<svg xmlns="http://www.w3.org/2000/svg" xmlns:xlink="http://www.w3.org/1999/xlink" contentStyleType="text/css" data-diagram-type="CLASS" height="295px" preserveAspectRatio="none" style="width:2728px;height:295px;background:#FFFFFF;" version="1.1" viewBox="0 0 2728 295" width="2728px" zoomAndPan="magnify"><title>The Seven Sacraments of the Catholic Church</title><defs/><g><g class="title" data-source-line="1"><text fill="#000000" font-family="sans-serif" font-size="14" font-weight="bold" lengthAdjust="spacing" textLength="307.2959" x="1203.7621" y="24.5332">The Seven Sacraments of the Catholic Church</text></g><!--cluster Sacraments of Initiation--><g class="cluster" data-entity="Sacraments of Initiation" data-source-line="4" data-uid="ent0002" id="cluster_Sacraments of Initiation"><path d="M228.32,152.8294 L388.0163,152.8294 A3.75,3.75 0 0 1 390.5163,155.3294 L397.5163,176.4388 L1301.32,176.4388 A2.5,2.5 0 0 1 1303.82,178.9388 L1303.82,285.5494 A2.5,2.5 0 0 1 1301.32,288.0494 L228.32,288.0494 A2.5,2.5 0 0 1 225.82,285.5494 L225.82,155.3294 A2.5,2.5 0 0 1 228.32,152.8294" fill="#ADD8E6" style="stroke:#000000;stroke-width:1.5;"/><line style="stroke:#000000;stroke-width:1.5;" x1="225.82" x2="397.5163" y1="176.4388" y2="176.4388"/><text fill="#000000" font-family="sans-serif" font-size="14" font-weight="bold" lengthAdjust="spacing" textLength="158.6963" x="229.82" y="169.3626">Sacraments of Initiation</text></g><!--cluster Sacraments of Healing--><g class="cluster" data-entity="Sacraments of Healing" data-source-line="19" data-uid="ent0006" id="cluster_Sacraments of Healing"><path d="M1330.32,152.8294 L1482.2575,152.8294 A3.75,3.75 0 0 1 1484.7575,155.3294 L1491.7575,176.4388 L2032.32,176.4388 A2.5,2.5 0 0 1 2034.82,178.9388 L2034.82,285.5494 A2.5,2.5 0 0 1 2032.32,288.0494 L1330.32,288.0494 A2.5,2.5 0 0 1 1327.82,285.5494 L1327.82,155.3294 A2.5,2.5 0 0 1 1330.32,152.8294" fill="#90EE90" style="stroke:#000000;stroke-width:1.5;"/><line style="stroke:#000000;stroke-width:1.5;" x1="1327.82" x2="1491.7575" y1="176.4388" y2="176.4388"/><text fill="#000000" font-family="sans-serif" font-size="14" font-weight="bold" lengthAdjust="spacing" textLength="150.9375" x="1331.82" y="169.3626">Sacraments of Healing</text></g><!--cluster Sacraments of Service / Vocation--><g class="cluster" data-entity="Sacraments of Service . Vocation" data-source-line="30" data-uid="ent0009" id="cluster_Sacraments of Service . Vocation"><path d="M2061.32,152.8294 L2283.2985,152.8294 A3.75,3.75 0 0 1 2285.7985,155.3294 L2292.7985,176.4388 L2719.32,176.4388 A2.5,2.5 0 0 1 2721.82,178.9388 L2721.82,285.5494 A2.5,2.5 0 0 1 2719.32,288.0494 L2061.32,288.0494 A2.5,2.5 0 0 1 2058.82,285.5494 L2058.82,155.3294 A2.5,2.5 0 0 1 2061.32,152.8294" fill="#FFFFE0" style="stroke:#000000;stroke-width:1.5;"/><line style="stroke:#000000;stroke-width:1.5;" x1="2058.82" x2="2292.7985" y1="176.4388" y2="176.4388"/><text fill="#000000" font-family="sans-serif" font-size="14" font-weight="bold" lengthAdjust="spacing" textLength="220.9785" x="2062.82" y="169.3626">Sacraments of Service / Vocation</text></g><!--class Baptism--><g class="entity" data-entity="Baptism" data-source-line="5" data-uid="ent0003" id="entity_Baptism"><rect fill="#F1F1F1" height="83.2188" rx="2.5" ry="2.5" style="stroke:#181818;stroke-width:0.5;" width="331.0469" x="242.29" y="188.8294"/><ellipse cx="378.2773" cy="204.8294" fill="#ADD1B2" rx="11" ry="11" style="stroke:#181818;stroke-width:1;"/><path d="M381.0429,200.7044 Q381.1992,200.4856 381.3867,200.3763 Q381.5742,200.2669 381.7929,200.2669 Q382.1679,200.2669 382.4023,200.5325 Q382.6367,200.7825 382.6367,201.3919 L382.6367,202.845 Q382.6367,203.4544 382.4023,203.72 Q382.1679,203.9856 381.7929,203.9856 Q381.4492,203.9856 381.2461,203.7825 Q381.0429,203.595 380.9336,203.0794 Q380.8867,202.72 380.6992,202.5325 Q380.3711,202.1575 379.7617,201.9388 Q379.1523,201.72 378.5273,201.72 Q377.7617,201.72 377.1211,202.0481 Q376.4961,202.3763 375.9961,203.1263 Q375.5117,203.8763 375.5117,204.9075 L375.5117,206.0013 Q375.5117,207.2356 376.4023,208.0638 Q377.2929,208.8763 378.8867,208.8763 Q379.8242,208.8763 380.4804,208.6263 Q380.8711,208.47 381.2929,208.0325 Q381.5586,207.7669 381.6992,207.6888 Q381.8554,207.6106 382.0586,207.6106 Q382.3867,207.6106 382.6367,207.8763 Q382.9023,208.1263 382.9023,208.47 Q382.9023,208.8138 382.5586,209.22 Q382.0586,209.7981 381.2617,210.1263 Q380.1836,210.5794 378.8867,210.5794 Q377.3711,210.5794 376.1679,209.9544 Q375.1836,209.4544 374.4961,208.3919 Q373.8086,207.3138 373.8086,206.0325 L373.8086,204.8763 Q373.8086,203.5481 374.4179,202.4075 Q375.0429,201.2513 376.1367,200.6419 Q377.2304,200.0169 378.4648,200.0169 Q379.1992,200.0169 379.8398,200.1888 Q380.4961,200.345 381.0429,200.7044 Z " fill="#000000"/><text fill="#000000" font-family="sans-serif" font-size="14" lengthAdjust="spacing" textLength="50.5723" x="398.7773" y="210.5579">Baptism</text><line style="stroke:#181818;stroke-width:0.5;" x1="243.29" x2="572.3369" y1="220.8294" y2="220.8294"/><text fill="#000000" font-family="sans-serif" font-size="14" lengthAdjust="spacing" textLength="155.6338" x="248.29" y="239.3626">Scripture: Matthew 28:19</text><text fill="#000000" font-family="sans-serif" font-size="14" lengthAdjust="spacing" textLength="319.0469" x="248.29" y="256.972">Effect: Cleanses sin, adoption, Church membership</text><line style="stroke:#181818;stroke-width:0.5;" x1="243.29" x2="572.3369" y1="264.0481" y2="264.0481"/></g><!--class Confirmation--><g class="entity" data-entity="Confirmation" data-source-line="9" data-uid="ent0004" id="entity_Confirmation"><rect fill="#F1F1F1" height="83.2188" rx="2.5" ry="2.5" style="stroke:#181818;stroke-width:0.5;" width="306.9229" x="608.36" y="188.8294"/><ellipse cx="717.8888" cy="204.8294" fill="#ADD1B2" rx="11" ry="11" style="stroke:#181818;stroke-width:1;"/><path d="M720.6544,200.7044 Q720.8107,200.4856 720.9982,200.3763 Q721.1857,200.2669 721.4044,200.2669 Q721.7794,200.2669 722.0138,200.5325 Q722.2482,200.7825 722.2482,201.3919 L722.2482,202.845 Q722.2482,203.4544 722.0138,203.72 Q721.7794,203.9856 721.4044,203.9856 Q721.0607,203.9856 720.8576,203.7825 Q720.6544,203.595 720.5451,203.0794 Q720.4982,202.72 720.3107,202.5325 Q719.9826,202.1575 719.3732,201.9388 Q718.7638,201.72 718.1388,201.72 Q717.3732,201.72 716.7326,202.0481 Q716.1076,202.3763 715.6076,203.1263 Q715.1232,203.8763 715.1232,204.9075 L715.1232,206.0013 Q715.1232,207.2356 716.0138,208.0638 Q716.9044,208.8763 718.4982,208.8763 Q719.4357,208.8763 720.0919,208.6263 Q720.4826,208.47 720.9044,208.0325 Q721.1701,207.7669 721.3107,207.6888 Q721.4669,207.6106 721.6701,207.6106 Q721.9982,207.6106 722.2482,207.8763 Q722.5138,208.1263 722.5138,208.47 Q722.5138,208.8138 722.1701,209.22 Q721.6701,209.7981 720.8732,210.1263 Q719.7951,210.5794 718.4982,210.5794 Q716.9826,210.5794 715.7794,209.9544 Q714.7951,209.4544 714.1076,208.3919 Q713.4201,207.3138 713.4201,206.0325 L713.4201,204.8763 Q713.4201,203.5481 714.0294,202.4075 Q714.6544,201.2513 715.7482,200.6419 Q716.8419,200.0169 718.0763,200.0169 Q718.8107,200.0169 719.4513,200.1888 Q720.1076,200.345 720.6544,200.7044 Z " fill="#000000"/><text fill="#000000" font-family="sans-serif" font-size="14" lengthAdjust="spacing" textLength="79.3652" x="738.3888" y="210.5579">Confirmation</text><line style="stroke:#181818;stroke-width:0.5;" x1="609.36" x2="914.2829" y1="220.8294" y2="220.8294"/><text fill="#000000" font-family="sans-serif" font-size="14" lengthAdjust="spacing" textLength="142.3994" x="614.36" y="239.3626">Scripture: Acts 8:14-17</text><text fill="#000000" font-family="sans-serif" font-size="14" lengthAdjust="spacing" textLength="294.9229" x="614.36" y="256.972">Effect: Sealed with Holy Spirit, strengthens faith</text><line style="stroke:#181818;stroke-width:0.5;" x1="609.36" x2="914.2829" y1="264.0481" y2="264.0481"/></g><!--class Eucharist--><g class="entity" data-entity="Eucharist" data-source-line="13" data-uid="ent0005" id="entity_Eucharist"><rect fill="#F1F1F1" height="83.2188" rx="2.5" ry="2.5" style="stroke:#181818;stroke-width:0.5;" width="337.2334" x="950.2" y="188.8294"/><ellipse cx="1085.3875" cy="204.8294" fill="#ADD1B2" rx="11" ry="11" style="stroke:#181818;stroke-width:1;"/><path d="M1088.1531,200.7044 Q1088.3094,200.4856 1088.4969,200.3763 Q1088.6844,200.2669 1088.9031,200.2669 Q1089.2781,200.2669 1089.5125,200.5325 Q1089.7469,200.7825 1089.7469,201.3919 L1089.7469,202.845 Q1089.7469,203.4544 1089.5125,203.72 Q1089.2781,203.9856 1088.9031,203.9856 Q1088.5594,203.9856 1088.3563,203.7825 Q1088.1531,203.595 1088.0438,203.0794 Q1087.9969,202.72 1087.8094,202.5325 Q1087.4813,202.1575 1086.8719,201.9388 Q1086.2625,201.72 1085.6375,201.72 Q1084.8719,201.72 1084.2313,202.0481 Q1083.6063,202.3763 1083.1063,203.1263 Q1082.6219,203.8763 1082.6219,204.9075 L1082.6219,206.0013 Q1082.6219,207.2356 1083.5125,208.0638 Q1084.4031,208.8763 1085.9969,208.8763 Q1086.9344,208.8763 1087.5906,208.6263 Q1087.9813,208.47 1088.4031,208.0325 Q1088.6688,207.7669 1088.8094,207.6888 Q1088.9656,207.6106 1089.1688,207.6106 Q1089.4969,207.6106 1089.7469,207.8763 Q1090.0125,208.1263 1090.0125,208.47 Q1090.0125,208.8138 1089.6688,209.22 Q1089.1688,209.7981 1088.3719,210.1263 Q1087.2938,210.5794 1085.9969,210.5794 Q1084.4813,210.5794 1083.2781,209.9544 Q1082.2938,209.4544 1081.6063,208.3919 Q1080.9188,207.3138 1080.9188,206.0325 L1080.9188,204.8763 Q1080.9188,203.5481 1081.5281,202.4075 Q1082.1531,201.2513 1083.2469,200.6419 Q1084.3406,200.0169 1085.575,200.0169 Q1086.3094,200.0169 1086.95,200.1888 Q1087.6063,200.345 1088.1531,200.7044 Z " fill="#000000"/><text fill="#000000" font-family="sans-serif" font-size="14" lengthAdjust="spacing" textLength="58.3584" x="1105.8875" y="210.5579">Eucharist</text><line style="stroke:#181818;stroke-width:0.5;" x1="951.2" x2="1286.4334" y1="220.8294" y2="220.8294"/><text fill="#000000" font-family="sans-serif" font-size="14" lengthAdjust="spacing" textLength="153.3164" x="956.2" y="239.3626">Scripture: Luke 22:19-20</text><text fill="#000000" font-family="sans-serif" font-size="14" lengthAdjust="spacing" textLength="325.2334" x="956.2" y="256.972">Effect: Communion with Christ, spiritual nourishment</text><line style="stroke:#181818;stroke-width:0.5;" x1="951.2" x2="1286.4334" y1="264.0481" y2="264.0481"/></g><!--class Penance--><g class="entity" data-entity="Penance" data-source-line="20" data-uid="ent0007" id="entity_Penance"><rect fill="#F1F1F1" height="83.2188" rx="2.5" ry="2.5" style="stroke:#181818;stroke-width:0.5;" width="330.2334" x="1343.7" y="188.8294"/><ellipse cx="1476.9324" cy="204.8294" fill="#ADD1B2" rx="11" ry="11" style="stroke:#181818;stroke-width:1;"/><path d="M1479.698,200.7044 Q1479.8543,200.4856 1480.0418,200.3763 Q1480.2293,200.2669 1480.448,200.2669 Q1480.823,200.2669 1481.0574,200.5325 Q1481.2918,200.7825 1481.2918,201.3919 L1481.2918,202.845 Q1481.2918,203.4544 1481.0574,203.72 Q1480.823,203.9856 1480.448,203.9856 Q1480.1043,203.9856 1479.9012,203.7825 Q1479.698,203.595 1479.5887,203.0794 Q1479.5418,202.72 1479.3543,202.5325 Q1479.0262,202.1575 1478.4168,201.9388 Q1477.8074,201.72 1477.1824,201.72 Q1476.4168,201.72 1475.7762,202.0481 Q1475.1512,202.3763 1474.6512,203.1263 Q1474.1668,203.8763 1474.1668,204.9075 L1474.1668,206.0013 Q1474.1668,207.2356 1475.0574,208.0638 Q1475.948,208.8763 1477.5418,208.8763 Q1478.4793,208.8763 1479.1355,208.6263 Q1479.5262,208.47 1479.948,208.0325 Q1480.2137,207.7669 1480.3543,207.6888 Q1480.5105,207.6106 1480.7137,207.6106 Q1481.0418,207.6106 1481.2918,207.8763 Q1481.5574,208.1263 1481.5574,208.47 Q1481.5574,208.8138 1481.2137,209.22 Q1480.7137,209.7981 1479.9168,210.1263 Q1478.8387,210.5794 1477.5418,210.5794 Q1476.0262,210.5794 1474.823,209.9544 Q1473.8387,209.4544 1473.1512,208.3919 Q1472.4637,207.3138 1472.4637,206.0325 L1472.4637,204.8763 Q1472.4637,203.5481 1473.073,202.4075 Q1473.698,201.2513 1474.7918,200.6419 Q1475.8855,200.0169 1477.1199,200.0169 Q1477.8543,200.0169 1478.4949,200.1888 Q1479.1512,200.345 1479.698,200.7044 Z " fill="#000000"/><text fill="#000000" font-family="sans-serif" font-size="14" lengthAdjust="spacing" textLength="55.2686" x="1497.4324" y="210.5579">Penance</text><line style="stroke:#181818;stroke-width:0.5;" x1="1344.7" x2="1672.9334" y1="220.8294" y2="220.8294"/><text fill="#000000" font-family="sans-serif" font-size="14" lengthAdjust="spacing" textLength="153.3164" x="1349.7" y="239.3626">Scripture: John 20:22-23</text><text fill="#000000" font-family="sans-serif" font-size="14" lengthAdjust="spacing" textLength="318.2334" x="1349.7" y="256.972">Effect: Forgives sins, reconciles with God &amp; Church</text><line style="stroke:#181818;stroke-width:0.5;" x1="1344.7" x2="1672.9334" y1="264.0481" y2="264.0481"/></g><!--class Anointing--><g class="entity" data-entity="Anointing" data-source-line="24" data-uid="ent0008" id="entity_Anointing"><rect fill="#F1F1F1" height="83.2188" rx="2.5" ry="2.5" style="stroke:#181818;stroke-width:0.5;" width="310.0605" x="1708.79" y="188.8294"/><ellipse cx="1795.7534" cy="204.8294" fill="#ADD1B2" rx="11" ry="11" style="stroke:#181818;stroke-width:1;"/><path d="M1798.519,200.7044 Q1798.6753,200.4856 1798.8628,200.3763 Q1799.0503,200.2669 1799.269,200.2669 Q1799.644,200.2669 1799.8784,200.5325 Q1800.1128,200.7825 1800.1128,201.3919 L1800.1128,202.845 Q1800.1128,203.4544 1799.8784,203.72 Q1799.644,203.9856 1799.269,203.9856 Q1798.9253,203.9856 1798.7221,203.7825 Q1798.519,203.595 1798.4096,203.0794 Q1798.3628,202.72 1798.1753,202.5325 Q1797.8471,202.1575 1797.2378,201.9388 Q1796.6284,201.72 1796.0034,201.72 Q1795.2378,201.72 1794.5971,202.0481 Q1793.9721,202.3763 1793.4721,203.1263 Q1792.9878,203.8763 1792.9878,204.9075 L1792.9878,206.0013 Q1792.9878,207.2356 1793.8784,208.0638 Q1794.769,208.8763 1796.3628,208.8763 Q1797.3003,208.8763 1797.9565,208.6263 Q1798.3471,208.47 1798.769,208.0325 Q1799.0346,207.7669 1799.1753,207.6888 Q1799.3315,207.6106 1799.5346,207.6106 Q1799.8628,207.6106 1800.1128,207.8763 Q1800.3784,208.1263 1800.3784,208.47 Q1800.3784,208.8138 1800.0346,209.22 Q1799.5346,209.7981 1798.7378,210.1263 Q1797.6596,210.5794 1796.3628,210.5794 Q1794.8471,210.5794 1793.644,209.9544 Q1792.6596,209.4544 1791.9721,208.3919 Q1791.2846,207.3138 1791.2846,206.0325 L1791.2846,204.8763 Q1791.2846,203.5481 1791.894,202.4075 Q1792.519,201.2513 1793.6128,200.6419 Q1794.7065,200.0169 1795.9409,200.0169 Q1796.6753,200.0169 1797.3159,200.1888 Q1797.9721,200.345 1798.519,200.7044 Z " fill="#000000"/><text fill="#000000" font-family="sans-serif" font-size="14" lengthAdjust="spacing" textLength="127.6338" x="1816.2534" y="210.5579">Anointing of the Sick</text><line style="stroke:#181818;stroke-width:0.5;" x1="1709.79" x2="2017.8505" y1="220.8294" y2="220.8294"/><text fill="#000000" font-family="sans-serif" font-size="14" lengthAdjust="spacing" textLength="156.4063" x="1714.79" y="239.3626">Scripture: James 5:14-15</text><text fill="#000000" font-family="sans-serif" font-size="14" lengthAdjust="spacing" textLength="298.0605" x="1714.79" y="256.972">Effect: Strength, healing, preparation for eternity</text><line style="stroke:#181818;stroke-width:0.5;" x1="1709.79" x2="2017.8505" y1="264.0481" y2="264.0481"/></g><!--class Matrimony--><g class="entity" data-entity="Matrimony" data-source-line="31" data-uid="ent0010" id="entity_Matrimony"><rect fill="#F1F1F1" height="83.2188" rx="2.5" ry="2.5" style="stroke:#181818;stroke-width:0.5;" width="315.4746" x="2075.08" y="188.8294"/><ellipse cx="2195.8949" cy="204.8294" fill="#ADD1B2" rx="11" ry="11" style="stroke:#181818;stroke-width:1;"/><path d="M2198.6606,200.7044 Q2198.8168,200.4856 2199.0043,200.3763 Q2199.1918,200.2669 2199.4106,200.2669 Q2199.7856,200.2669 2200.0199,200.5325 Q2200.2543,200.7825 2200.2543,201.3919 L2200.2543,202.845 Q2200.2543,203.4544 2200.0199,203.72 Q2199.7856,203.9856 2199.4106,203.9856 Q2199.0668,203.9856 2198.8637,203.7825 Q2198.6606,203.595 2198.5512,203.0794 Q2198.5043,202.72 2198.3168,202.5325 Q2197.9887,202.1575 2197.3793,201.9388 Q2196.7699,201.72 2196.1449,201.72 Q2195.3793,201.72 2194.7387,202.0481 Q2194.1137,202.3763 2193.6137,203.1263 Q2193.1293,203.8763 2193.1293,204.9075 L2193.1293,206.0013 Q2193.1293,207.2356 2194.0199,208.0638 Q2194.9106,208.8763 2196.5043,208.8763 Q2197.4418,208.8763 2198.0981,208.6263 Q2198.4887,208.47 2198.9106,208.0325 Q2199.1762,207.7669 2199.3168,207.6888 Q2199.4731,207.6106 2199.6762,207.6106 Q2200.0043,207.6106 2200.2543,207.8763 Q2200.5199,208.1263 2200.5199,208.47 Q2200.5199,208.8138 2200.1762,209.22 Q2199.6762,209.7981 2198.8793,210.1263 Q2197.8012,210.5794 2196.5043,210.5794 Q2194.9887,210.5794 2193.7856,209.9544 Q2192.8012,209.4544 2192.1137,208.3919 Q2191.4262,207.3138 2191.4262,206.0325 L2191.4262,204.8763 Q2191.4262,203.5481 2192.0356,202.4075 Q2192.6606,201.2513 2193.7543,200.6419 Q2194.8481,200.0169 2196.0824,200.0169 Q2196.8168,200.0169 2197.4574,200.1888 Q2198.1137,200.345 2198.6606,200.7044 Z " fill="#000000"/><text fill="#000000" font-family="sans-serif" font-size="14" lengthAdjust="spacing" textLength="65.3447" x="2216.3949" y="210.5579">Matrimony</text><line style="stroke:#181818;stroke-width:0.5;" x1="2076.08" x2="2389.5546" y1="220.8294" y2="220.8294"/><text fill="#000000" font-family="sans-serif" font-size="14" lengthAdjust="spacing" textLength="147.8477" x="2081.08" y="239.3626">Scripture: Matthew 19:6</text><text fill="#000000" font-family="sans-serif" font-size="14" lengthAdjust="spacing" textLength="303.4746" x="2081.08" y="256.972">Effect: Union of spouses, sign of Christ &amp; Church</text><line style="stroke:#181818;stroke-width:0.5;" x1="2076.08" x2="2389.5546" y1="264.0481" y2="264.0481"/></g><!--class HolyOrders--><g class="entity" data-entity="HolyOrders" data-source-line="35" data-uid="ent0011" id="entity_HolyOrders"><rect fill="#F1F1F1" height="83.2188" rx="2.5" ry="2.5" style="stroke:#181818;stroke-width:0.5;" width="280.4746" x="2425.58" y="188.8294"/><ellipse cx="2524.226" cy="204.8294" fill="#ADD1B2" rx="11" ry="11" style="stroke:#181818;stroke-width:1;"/><path d="M2526.9916,200.7044 Q2527.1479,200.4856 2527.3354,200.3763 Q2527.5229,200.2669 2527.7416,200.2669 Q2528.1166,200.2669 2528.351,200.5325 Q2528.5854,200.7825 2528.5854,201.3919 L2528.5854,202.845 Q2528.5854,203.4544 2528.351,203.72 Q2528.1166,203.9856 2527.7416,203.9856 Q2527.3979,203.9856 2527.1947,203.7825 Q2526.9916,203.595 2526.8822,203.0794 Q2526.8354,202.72 2526.6479,202.5325 Q2526.3197,202.1575 2525.7104,201.9388 Q2525.101,201.72 2524.476,201.72 Q2523.7104,201.72 2523.0697,202.0481 Q2522.4447,202.3763 2521.9447,203.1263 Q2521.4604,203.8763 2521.4604,204.9075 L2521.4604,206.0013 Q2521.4604,207.2356 2522.351,208.0638 Q2523.2416,208.8763 2524.8354,208.8763 Q2525.7729,208.8763 2526.4291,208.6263 Q2526.8197,208.47 2527.2416,208.0325 Q2527.5072,207.7669 2527.6479,207.6888 Q2527.8041,207.6106 2528.0072,207.6106 Q2528.3354,207.6106 2528.5854,207.8763 Q2528.851,208.1263 2528.851,208.47 Q2528.851,208.8138 2528.5072,209.22 Q2528.0072,209.7981 2527.2104,210.1263 Q2526.1322,210.5794 2524.8354,210.5794 Q2523.3197,210.5794 2522.1166,209.9544 Q2521.1322,209.4544 2520.4447,208.3919 Q2519.7572,207.3138 2519.7572,206.0325 L2519.7572,204.8763 Q2519.7572,203.5481 2520.3666,202.4075 Q2520.9916,201.2513 2522.0854,200.6419 Q2523.1791,200.0169 2524.4135,200.0169 Q2525.1479,200.0169 2525.7885,200.1888 Q2526.4447,200.345 2526.9916,200.7044 Z " fill="#000000"/><text fill="#000000" font-family="sans-serif" font-size="14" lengthAdjust="spacing" textLength="74.6826" x="2544.726" y="210.5579">Holy Orders</text><line style="stroke:#181818;stroke-width:0.5;" x1="2426.58" x2="2705.0546" y1="220.8294" y2="220.8294"/><text fill="#000000" font-family="sans-serif" font-size="14" lengthAdjust="spacing" textLength="199.2129" x="2431.58" y="239.3626">Scripture: Luke 22:19; 2 Tim 1:6</text><text fill="#000000" font-family="sans-serif" font-size="14" lengthAdjust="spacing" textLength="268.4746" x="2431.58" y="256.972">Effect: Grace to teach, sanctify, and govern</text><line style="stroke:#181818;stroke-width:0.5;" x1="2426.58" x2="2705.0546" y1="264.0481" y2="264.0481"/></g><!--class Christ--><g class="entity" data-entity="Christ" data-source-line="42" data-uid="ent0012" id="entity_Christ"><rect fill="#F1F1F1" height="83.2188" rx="2.5" ry="2.5" style="stroke:#181818;stroke-width:0.5;" width="219.7646" x="1203.94" y="45.6094"/><ellipse cx="1291.293" cy="61.6094" fill="#ADD1B2" rx="11" ry="11" style="stroke:#181818;stroke-width:1;"/><path d="M1294.0587,57.4844 Q1294.2149,57.2656 1294.4024,57.1563 Q1294.5899,57.0469 1294.8087,57.0469 Q1295.1837,57.0469 1295.418,57.3125 Q1295.6524,57.5625 1295.6524,58.1719 L1295.6524,59.625 Q1295.6524,60.2344 1295.418,60.5 Q1295.1837,60.7656 1294.8087,60.7656 Q1294.4649,60.7656 1294.2618,60.5625 Q1294.0587,60.375 1293.9493,59.8594 Q1293.9024,59.5 1293.7149,59.3125 Q1293.3868,58.9375 1292.7774,58.7188 Q1292.168,58.5 1291.543,58.5 Q1290.7774,58.5 1290.1368,58.8281 Q1289.5118,59.1563 1289.0118,59.9063 Q1288.5274,60.6563 1288.5274,61.6875 L1288.5274,62.7813 Q1288.5274,64.0156 1289.418,64.8438 Q1290.3087,65.6563 1291.9024,65.6563 Q1292.8399,65.6563 1293.4962,65.4063 Q1293.8868,65.25 1294.3087,64.8125 Q1294.5743,64.5469 1294.7149,64.4688 Q1294.8712,64.3906 1295.0743,64.3906 Q1295.4024,64.3906 1295.6524,64.6563 Q1295.918,64.9063 1295.918,65.25 Q1295.918,65.5938 1295.5743,66 Q1295.0743,66.5781 1294.2774,66.9063 Q1293.1993,67.3594 1291.9024,67.3594 Q1290.3868,67.3594 1289.1837,66.7344 Q1288.1993,66.2344 1287.5118,65.1719 Q1286.8243,64.0938 1286.8243,62.8125 L1286.8243,61.6563 Q1286.8243,60.3281 1287.4337,59.1875 Q1288.0587,58.0313 1289.1524,57.4219 Q1290.2462,56.7969 1291.4805,56.7969 Q1292.2149,56.7969 1292.8555,56.9688 Q1293.5118,57.125 1294.0587,57.4844 Z " fill="#000000"/><text fill="#000000" font-family="sans-serif" font-size="14" lengthAdjust="spacing" textLength="36.5586" x="1311.793" y="67.3379">Christ</text><line style="stroke:#181818;stroke-width:0.5;" x1="1204.94" x2="1422.7046" y1="77.6094" y2="77.6094"/><text fill="#000000" font-family="sans-serif" font-size="14" lengthAdjust="spacing" textLength="207.7646" x="1209.94" y="96.1426">Role: Institutor of the Sacraments</text><text fill="#000000" font-family="sans-serif" font-size="14" lengthAdjust="spacing" textLength="173.5508" x="1209.94" y="113.752">Purpose: Channels of grace</text><line style="stroke:#181818;stroke-width:0.5;" x1="1204.94" x2="1422.7046" y1="120.8281" y2="120.8281"/></g><g class="entity" data-entity="GMN20" data-source-line="57" data-uid="ent0021" id="entity_GMN20"><path d="M6,192.7394 L6,268.1456 L207.6353,268.1456 L207.6353,202.7394 L197.6353,192.7394 L6,192.7394" fill="#FEFFDD" style="stroke:#181818;stroke-width:0.5;"/><path d="M197.6353,192.7394 L197.6353,202.7394 L207.6353,202.7394 L197.6353,192.7394" fill="#FEFFDD" style="stroke:#181818;stroke-width:1;"/><text fill="#000000" font-family="sans-serif" font-size="13" lengthAdjust="spacing" textLength="111.2617" x="12" y="211.2345">All sacraments are:</text><text fill="#000000" font-family="sans-serif" font-size="13" lengthAdjust="spacing" textLength="115.5972" x="12" y="227.5861">- Instituted by Christ</text><text fill="#000000" font-family="sans-serif" font-size="13" lengthAdjust="spacing" textLength="180.6353" x="12" y="243.9376">- Visible signs of invisible grace</text><text fill="#000000" font-family="sans-serif" font-size="13" lengthAdjust="spacing" textLength="178.4834" x="12" y="260.2892">- Channels of sanctifying grace</text></g><!--link Christ to Baptism--><g class="link" data-entity-1="Christ" data-entity-2="Baptism" data-source-line="48" data-uid="lnk13" id="link_Christ_Baptism"><path codeLine="48" d="M1203.48,92.0894 C1030.45,98.9594 703.42,115.4094 590.82,144.8294 C553.06,154.6994 518.8413,169.3256 486.1813,185.7356" fill="none" id="Christ-to-Baptism" style="stroke:#181818;stroke-width:1;"/><polygon fill="#181818" points="480.82,188.4294,490.6578,187.9629,485.2877,186.1846,487.0661,180.8145,480.82,188.4294" style="stroke:#181818;stroke-width:1;"/></g><!--link Christ to Confirmation--><g class="link" data-entity-1="Christ" data-entity-2="Confirmation" data-source-line="49" data-uid="lnk14" id="link_Christ_Confirmation"><path codeLine="49" d="M1203.81,95.4394 C1126.6,102.6994 1021.68,116.9994 932.82,144.8294 C898.36,155.6194 867.5561,169.7584 837.4361,185.6584" fill="none" id="Christ-to-Confirmation" style="stroke:#181818;stroke-width:1;"/><polygon fill="#181818" points="832.13,188.4594,841.9564,187.7952,836.5517,186.1252,838.2218,180.7205,832.13,188.4594" style="stroke:#181818;stroke-width:1;"/></g><!--link Christ to Eucharist--><g class="link" data-entity-1="Christ" data-entity-2="Eucharist" data-source-line="50" data-uid="lnk15" id="link_Christ_Eucharist"><path codeLine="50" d="M1257.15,129.2594 C1231.4,147.9094 1205.8683,166.3884 1180.1483,185.0284" fill="none" id="Christ-to-Eucharist" style="stroke:#181818;stroke-width:1;"/><polygon fill="#181818" points="1175.29,188.5494,1184.9247,186.5068,1179.3386,185.6153,1180.2301,180.0291,1175.29,188.5494" style="stroke:#181818;stroke-width:1;"/></g><!--link Christ to Penance--><g class="link" data-entity-1="Christ" data-entity-2="Penance" data-source-line="51" data-uid="lnk16" id="link_Christ_Penance"><path codeLine="51" d="M1370.48,129.2594 C1396.23,147.9094 1421.7611,166.3893 1447.4911,185.0293" fill="none" id="Christ-to-Penance" style="stroke:#181818;stroke-width:1;"/><polygon fill="#181818" points="1452.35,188.5494,1447.4083,180.03,1448.3009,185.616,1442.7149,186.5086,1452.35,188.5494" style="stroke:#181818;stroke-width:1;"/></g><!--link Christ to Anointing--><g class="link" data-entity-1="Christ" data-entity-2="Anointing" data-source-line="52" data-uid="lnk17" id="link_Christ_Anointing"><path codeLine="52" d="M1424.17,95.7294 C1500.65,103.0994 1604.1,117.4194 1691.82,144.8294 C1726.44,155.6494 1757.4464,169.8128 1787.7464,185.7028" fill="none" id="Christ-to-Anointing" style="stroke:#181818;stroke-width:1;"/><polygon fill="#181818" points="1793.06,188.4894,1786.9473,180.767,1788.632,186.1672,1783.2318,187.8519,1793.06,188.4894" style="stroke:#181818;stroke-width:1;"/></g><!--link Christ to Matrimony--><g class="link" data-entity-1="Christ" data-entity-2="Matrimony" data-source-line="53" data-uid="lnk18" id="link_Christ_Matrimony"><path codeLine="53" d="M1424.11,92.4994 C1596.61,99.9294 1922.19,117.1394 2034.82,144.8294 C2075.29,154.7794 2112.6253,169.5985 2148.0253,185.9885" fill="none" id="Christ-to-Matrimony" style="stroke:#181818;stroke-width:1;"/><polygon fill="#181818" points="2153.47,188.5094,2146.9835,181.0982,2148.9327,186.4086,2143.6223,188.3579,2153.47,188.5094" style="stroke:#181818;stroke-width:1;"/></g><!--link Christ to HolyOrders--><g class="link" data-entity-1="Christ" data-entity-2="HolyOrders" data-source-line="54" data-uid="lnk19" id="link_Christ_HolyOrders"><path codeLine="54" d="M1423.91,87.8394 C1663.46,87.9894 2225.18,93.9594 2407.82,144.8294 C2441.54,154.2194 2470.973,168.6494 2499.163,185.2894" fill="none" id="Christ-to-HolyOrders" style="stroke:#181818;stroke-width:1;"/><polygon fill="#181818" points="2504.33,188.3394,2498.6128,180.3198,2500.0242,185.7977,2494.5462,187.2091,2504.33,188.3394" style="stroke:#181818;stroke-width:1;"/></g><!--link Christ to GMN20--><g class="link" data-entity-1="Christ" data-entity-2="GMN20" data-source-line="57" data-uid="lnk22" id="link_Christ_GMN20"><path d="M1203.45,90.4694 C945.16,96.2294 316.3,113.3294 225.82,144.8294 C196.73,154.9594 168.45,174.5294 146.76,192.2994" fill="none" id="Christ-GMN20" style="stroke:#181818;stroke-width:1;stroke-dasharray:7,7;"/></g><!--SRC=[XLHXRzCm4FsUNt4g4dnfn1eOi2AGkcfiGqDCwvZ4HzUz9gSvTcGxhIgq_yxPITgKbitVykputhttpfwyGhWl46QuGWqp8QqeKNi7PWcUyQdmXL4aOLhKLXP9yWQ-yDgT32SmDvRGnPsa4l9Hv0Y3_SkkDNaIdemUmAiRoWj_hcg4Fmdmaaeu1-UYykJA5Wjh9YrLlhOuXX_2CvyrP9_6exFjWOlb4gKVmrIXq8ufED9340jJXKh3bZMKMCxHkeAg-ETJh-ZKw2NPCZ8xNdaYkGEk-ZuTVJmeF4EXS05hyWLS6RM1MKMM_12SjwXpfgmTB0Ll7rI-g6KXB3b_lEnD_OYGPTnjcfqSDcpAijQ1SomzBS95N3LMhuK2RMg6Yg1_M_af-PytLzm4wRmpvj8YwZrdRb4BBV4uqU-cq92TZBCipTuT4FrcR4whnXat18lIQ4cAWKZyqYpWTHUkVnKQJBGXxPbQ5ySPoSS120UxdUESk3a7fz6qqqFJMc-6K3IT3w6oM0dRf61fBA17oudTlAZT3EsAM9gty63aNhv_er9clQSZXzXIQVJc-OoFpiOV3aZ_YcvpHLUPcgFEPbCUWSRyPsICmVnf5pm2KRpmtNo-5BtFaC4zbJ0wGkZI2kxR6_0e96lfE2AUbXkUFxs0tAnOmPryxRjnXogA56RHXPzRyl7fQEasK6JQxWQMTqOnjMljF0VSiqLT9BPsyA7RsbR6yRbf8RH65ItA0z66myHQi-Q1jARixcOEWJ_JR-z9seqq_TezINse_s3qyUquzy5sSFhGDhbzS1kCFhYpAKcqyGXpupqJtrgUJ9JQyNOWsBmatMh4xz9yqnrDuO4SpVcv3x69kf1UjL2ZKBgdMcTdcB5c7zdMm2Fv2m00]--></g></svg>