<svg xmlns="http://www.w3.org/2000/svg" xmlns:xlink="http://www.w3.org/1999/xlink" contentStyleType="text/css" data-diagram-type="CLASS" height="1086px" preserveAspectRatio="none" style="width:2293px;height:1086px;background:#FFFFFF;" version="1.1" viewBox="0 0 2293 1086" width="2293px" zoomAndPan="magnify"><title>Baptism: History, Institution, and Effects (Catholic Teaching)</title><defs/><g><g class="title" data-source-line="1"><text fill="#000000" font-family="sans-serif" font-size="14" font-weight="bold" lengthAdjust="spacing" textLength="404.4756" x="937.5739" y="24.5332">Baptism: History, Institution, and Effects (Catholic Teaching)</text></g><!--cluster Historical Roots--><g class="cluster" data-entity="Historical Roots" data-source-line="4" data-uid="ent0002" id="cluster_Historical Roots"><path d="M1021.5,44.6094 L1129.8516,44.6094 A3.75,3.75 0 0 1 1132.3516,47.1094 L1139.3516,68.2188 L1318.5,68.2188 A2.5,2.5 0 0 1 1321,70.7188 L1321,618.6394 A2.5,2.5 0 0 1 1318.5,621.1394 L1021.5,621.1394 A2.5,2.5 0 0 1 1019,618.6394 L1019,47.1094 A2.5,2.5 0 0 1 1021.5,44.6094" fill="none" style="stroke:#000000;stroke-width:1.5;"/><line style="stroke:#000000;stroke-width:1.5;" x1="1019" x2="1139.3516" y1="68.2188" y2="68.2188"/><text fill="#000000" font-family="sans-serif" font-size="14" font-weight="bold" lengthAdjust="spacing" textLength="107.3516" x="1023" y="61.1426">Historical Roots</text></g><!--cluster Christian Sacramental Baptism--><g class="cluster" data-entity="Christian Sacramental Baptism" data-source-line="30" data-uid="ent0008" id="cluster_Christian Sacramental Baptism"><path d="M8.5,671.1394 L216.458,671.1394 A3.75,3.75 0 0 1 218.958,673.6394 L225.958,694.7488 L2059.5,694.7488 A2.5,2.5 0 0 1 2062,697.2488 L2062,1064.3094 A2.5,2.5 0 0 1 2059.5,1066.8094 L8.5,1066.8094 A2.5,2.5 0 0 1 6,1064.3094 L6,673.6394 A2.5,2.5 0 0 1 8.5,671.1394" fill="none" style="stroke:#000000;stroke-width:1.5;"/><line style="stroke:#000000;stroke-width:1.5;" x1="6" x2="225.958" y1="694.7488" y2="694.7488"/><text fill="#000000" font-family="sans-serif" font-size="14" font-weight="bold" lengthAdjust="spacing" textLength="206.958" x="10" y="687.6726">Christian Sacramental Baptism</text></g><!--class Jewish--><g class="entity" data-entity="Jewish" data-source-line="5" data-uid="ent0003" id="entity_Jewish"><rect fill="#F1F1F1" height="131.6563" rx="2.5" ry="2.5" style="stroke:#181818;stroke-width:0.5;" width="269.5166" x="1035.24" y="80.6094"/><ellipse cx="1091.8313" cy="103.2188" fill="#ADD1B2" rx="11" ry="11" style="stroke:#181818;stroke-width:1;"/><path d="M1094.5969,99.0938 Q1094.7532,98.875 1094.9407,98.7656 Q1095.1282,98.6563 1095.3469,98.6563 Q1095.7219,98.6563 1095.9563,98.9219 Q1096.1907,99.1719 1096.1907,99.7813 L1096.1907,101.2344 Q1096.1907,101.8438 1095.9563,102.1094 Q1095.7219,102.375 1095.3469,102.375 Q1095.0032,102.375 1094.8001,102.1719 Q1094.5969,101.9844 1094.4876,101.4688 Q1094.4407,101.1094 1094.2532,100.9219 Q1093.9251,100.5469 1093.3157,100.3281 Q1092.7063,100.1094 1092.0813,100.1094 Q1091.3157,100.1094 1090.6751,100.4375 Q1090.0501,100.7656 1089.5501,101.5156 Q1089.0657,102.2656 1089.0657,103.2969 L1089.0657,104.3906 Q1089.0657,105.625 1089.9563,106.4531 Q1090.8469,107.2656 1092.4407,107.2656 Q1093.3782,107.2656 1094.0344,107.0156 Q1094.4251,106.8594 1094.8469,106.4219 Q1095.1126,106.1563 1095.2532,106.0781 Q1095.4094,106 1095.6126,106 Q1095.9407,106 1096.1907,106.2656 Q1096.4563,106.5156 1096.4563,106.8594 Q1096.4563,107.2031 1096.1126,107.6094 Q1095.6126,108.1875 1094.8157,108.5156 Q1093.7376,108.9688 1092.4407,108.9688 Q1090.9251,108.9688 1089.7219,108.3438 Q1088.7376,107.8438 1088.0501,106.7813 Q1087.3626,105.7031 1087.3626,104.4219 L1087.3626,103.2656 Q1087.3626,101.9375 1087.9719,100.7969 Q1088.5969,99.6406 1089.6907,99.0313 Q1090.7844,98.4063 1092.0188,98.4063 Q1092.7532,98.4063 1093.3938,98.5781 Q1094.0501,98.7344 1094.5969,99.0938 Z " fill="#000000"/><text fill="#000000" font-family="sans-serif" font-size="14" lengthAdjust="spacing" textLength="147.834" x="1112.3313" y="100.1426">Jewish Ritual Washings</text><text fill="#000000" font-family="sans-serif" font-size="14" lengthAdjust="spacing" textLength="53.6689" x="1159.4138" y="117.752">(Mikveh)</text><line style="stroke:#181818;stroke-width:0.5;" x1="1036.24" x2="1303.7566" y1="125.8281" y2="125.8281"/><text fill="#000000" font-family="sans-serif" font-size="14" lengthAdjust="spacing" textLength="167.3096" x="1041.24" y="144.3613">Purpose: Ritual purification</text><text fill="#000000" font-family="sans-serif" font-size="14" lengthAdjust="spacing" textLength="189.8682" x="1041.24" y="161.9707">OT Reference: Leviticus 14-15</text><text fill="#000000" font-family="sans-serif" font-size="14" lengthAdjust="spacing" textLength="76.2549" x="1041.24" y="179.5801">Numbers 19</text><text fill="#000000" font-family="sans-serif" font-size="14" lengthAdjust="spacing" textLength="257.5166" x="1041.24" y="197.1895">Symbolism: Cleansing from ritual impurity</text><line style="stroke:#181818;stroke-width:0.5;" x1="1036.24" x2="1303.7566" y1="204.2656" y2="204.2656"/></g><!--class JohnBaptism--><g class="entity" data-entity="JohnBaptism" data-source-line="11" data-uid="ent0004" id="entity_JohnBaptism"><rect fill="#F1F1F1" height="118.4375" rx="2.5" ry="2.5" style="stroke:#181818;stroke-width:0.5;" width="236.9229" x="1051.54" y="290.2594"/><ellipse cx="1084.7149" cy="306.2594" fill="#ADD1B2" rx="11" ry="11" style="stroke:#181818;stroke-width:1;"/><path d="M1087.4805,302.1344 Q1087.6368,301.9156 1087.8243,301.8063 Q1088.0118,301.6969 1088.2305,301.6969 Q1088.6055,301.6969 1088.8399,301.9625 Q1089.0743,302.2125 1089.0743,302.8219 L1089.0743,304.275 Q1089.0743,304.8844 1088.8399,305.15 Q1088.6055,305.4156 1088.2305,305.4156 Q1087.8868,305.4156 1087.6837,305.2125 Q1087.4805,305.025 1087.3712,304.5094 Q1087.3243,304.15 1087.1368,303.9625 Q1086.8087,303.5875 1086.1993,303.3688 Q1085.5899,303.15 1084.9649,303.15 Q1084.1993,303.15 1083.5587,303.4781 Q1082.9337,303.8063 1082.4337,304.5563 Q1081.9493,305.3063 1081.9493,306.3375 L1081.9493,307.4313 Q1081.9493,308.6656 1082.8399,309.4938 Q1083.7305,310.3063 1085.3243,310.3063 Q1086.2618,310.3063 1086.918,310.0563 Q1087.3087,309.9 1087.7305,309.4625 Q1087.9962,309.1969 1088.1368,309.1188 Q1088.293,309.0406 1088.4962,309.0406 Q1088.8243,309.0406 1089.0743,309.3063 Q1089.3399,309.5563 1089.3399,309.9 Q1089.3399,310.2438 1088.9962,310.65 Q1088.4962,311.2281 1087.6993,311.5563 Q1086.6212,312.0094 1085.3243,312.0094 Q1083.8087,312.0094 1082.6055,311.3844 Q1081.6212,310.8844 1080.9337,309.8219 Q1080.2462,308.7438 1080.2462,307.4625 L1080.2462,306.3063 Q1080.2462,304.9781 1080.8555,303.8375 Q1081.4805,302.6813 1082.5743,302.0719 Q1083.668,301.4469 1084.9024,301.4469 Q1085.6368,301.4469 1086.2774,301.6188 Q1086.9337,301.775 1087.4805,302.1344 Z " fill="#000000"/><text fill="#000000" font-family="sans-serif" font-size="14" lengthAdjust="spacing" textLength="164.5342" x="1102.7538" y="311.9879">John the Baptist's Baptism</text><line style="stroke:#181818;stroke-width:0.5;" x1="1052.54" x2="1287.4629" y1="322.2594" y2="322.2594"/><text fill="#000000" font-family="sans-serif" font-size="14" lengthAdjust="spacing" textLength="224.9229" x="1057.54" y="340.7926">Purpose: Repentance &amp; Preparation</text><text fill="#000000" font-family="sans-serif" font-size="14" lengthAdjust="spacing" textLength="140.0752" x="1057.54" y="358.402">Location: Jordan River</text><text fill="#000000" font-family="sans-serif" font-size="14" lengthAdjust="spacing" textLength="190.627" x="1057.54" y="376.0113">Symbolism: Confession of sins</text><text fill="#000000" font-family="sans-serif" font-size="14" lengthAdjust="spacing" textLength="152.5098" x="1057.54" y="393.6207">Scripture: Matthew 3:1-6</text><line style="stroke:#181818;stroke-width:0.5;" x1="1052.54" x2="1287.4629" y1="400.6969" y2="400.6969"/></g><!--class JesusBaptism--><g class="entity" data-entity="JesusBaptism" data-source-line="18" data-uid="ent0005" id="entity_JesusBaptism"><rect fill="#F1F1F1" height="118.4375" rx="2.5" ry="2.5" style="stroke:#181818;stroke-width:0.5;" width="213.5439" x="1063.23" y="486.6994"/><ellipse cx="1112.4522" cy="502.6994" fill="#ADD1B2" rx="11" ry="11" style="stroke:#181818;stroke-width:1;"/><path d="M1115.2178,498.5744 Q1115.374,498.3556 1115.5615,498.2463 Q1115.749,498.1369 1115.9678,498.1369 Q1116.3428,498.1369 1116.5772,498.4025 Q1116.8115,498.6525 1116.8115,499.2619 L1116.8115,500.715 Q1116.8115,501.3244 1116.5772,501.59 Q1116.3428,501.8556 1115.9678,501.8556 Q1115.624,501.8556 1115.4209,501.6525 Q1115.2178,501.465 1115.1084,500.9494 Q1115.0615,500.59 1114.874,500.4025 Q1114.5459,500.0275 1113.9365,499.8088 Q1113.3272,499.59 1112.7022,499.59 Q1111.9365,499.59 1111.2959,499.9181 Q1110.6709,500.2463 1110.1709,500.9963 Q1109.6865,501.7463 1109.6865,502.7775 L1109.6865,503.8713 Q1109.6865,505.1056 1110.5772,505.9338 Q1111.4678,506.7463 1113.0615,506.7463 Q1113.999,506.7463 1114.6553,506.4963 Q1115.0459,506.34 1115.4678,505.9025 Q1115.7334,505.6369 1115.874,505.5588 Q1116.0303,505.4806 1116.2334,505.4806 Q1116.5615,505.4806 1116.8115,505.7463 Q1117.0772,505.9963 1117.0772,506.34 Q1117.0772,506.6838 1116.7334,507.09 Q1116.2334,507.6681 1115.4365,507.9963 Q1114.3584,508.4494 1113.0615,508.4494 Q1111.5459,508.4494 1110.3428,507.8244 Q1109.3584,507.3244 1108.6709,506.2619 Q1107.9834,505.1838 1107.9834,503.9025 L1107.9834,502.7463 Q1107.9834,501.4181 1108.5928,500.2775 Q1109.2178,499.1213 1110.3115,498.5119 Q1111.4053,497.8869 1112.6397,497.8869 Q1113.374,497.8869 1114.0147,498.0588 Q1114.6709,498.215 1115.2178,498.5744 Z " fill="#000000"/><text fill="#000000" font-family="sans-serif" font-size="14" lengthAdjust="spacing" textLength="106.5996" x="1132.9522" y="508.4279">Baptism of Jesus</text><line style="stroke:#181818;stroke-width:0.5;" x1="1064.23" x2="1275.7739" y1="518.6994" y2="518.6994"/><text fill="#000000" font-family="sans-serif" font-size="14" lengthAdjust="spacing" textLength="201.5439" x="1069.23" y="537.2326">Purpose: Fulfill all righteousness</text><text fill="#000000" font-family="sans-serif" font-size="14" lengthAdjust="spacing" textLength="150.9854" x="1069.23" y="554.842">Event: Baptized by John</text><text fill="#000000" font-family="sans-serif" font-size="14" lengthAdjust="spacing" textLength="182.0547" x="1069.23" y="572.4513">Symbolism: Sanctifies waters</text><text fill="#000000" font-family="sans-serif" font-size="14" lengthAdjust="spacing" textLength="168.082" x="1069.23" y="590.0607">Scripture: Matthew 3:13-17</text><line style="stroke:#181818;stroke-width:0.5;" x1="1064.23" x2="1275.7739" y1="597.1369" y2="597.1369"/></g><!--class Baptism--><g class="entity" data-entity="Baptism" data-source-line="31" data-uid="ent0009" id="entity_Baptism"><rect fill="#F1F1F1" height="153.6563" rx="2.5" ry="2.5" style="stroke:#181818;stroke-width:0.5;" width="301.0029" x="1019.5" y="707.1394"/><ellipse cx="1100.0103" cy="723.1394" fill="#ADD1B2" rx="11" ry="11" style="stroke:#181818;stroke-width:1;"/><path d="M1102.7759,719.0144 Q1102.9321,718.7956 1103.1196,718.6863 Q1103.3071,718.5769 1103.5259,718.5769 Q1103.9009,718.5769 1104.1353,718.8425 Q1104.3696,719.0925 1104.3696,719.7019 L1104.3696,721.155 Q1104.3696,721.7644 1104.1353,722.03 Q1103.9009,722.2956 1103.5259,722.2956 Q1103.1821,722.2956 1102.979,722.0925 Q1102.7759,721.905 1102.6665,721.3894 Q1102.6196,721.03 1102.4321,720.8425 Q1102.104,720.4675 1101.4946,720.2488 Q1100.8853,720.03 1100.2603,720.03 Q1099.4946,720.03 1098.854,720.3581 Q1098.229,720.6863 1097.729,721.4363 Q1097.2446,722.1863 1097.2446,723.2175 L1097.2446,724.3113 Q1097.2446,725.5456 1098.1353,726.3738 Q1099.0259,727.1863 1100.6196,727.1863 Q1101.5571,727.1863 1102.2134,726.9363 Q1102.604,726.78 1103.0259,726.3425 Q1103.2915,726.0769 1103.4321,725.9988 Q1103.5884,725.9206 1103.7915,725.9206 Q1104.1196,725.9206 1104.3696,726.1863 Q1104.6353,726.4363 1104.6353,726.78 Q1104.6353,727.1238 1104.2915,727.53 Q1103.7915,728.1081 1102.9946,728.4363 Q1101.9165,728.8894 1100.6196,728.8894 Q1099.104,728.8894 1097.9009,728.2644 Q1096.9165,727.7644 1096.229,726.7019 Q1095.5415,725.6238 1095.5415,724.3425 L1095.5415,723.1863 Q1095.5415,721.8581 1096.1509,720.7175 Q1096.7759,719.5613 1097.8696,718.9519 Q1098.9634,718.3269 1100.1978,718.3269 Q1100.9321,718.3269 1101.5728,718.4988 Q1102.229,718.655 1102.7759,719.0144 Z " fill="#000000"/><text fill="#000000" font-family="sans-serif" font-size="14" lengthAdjust="spacing" textLength="131.4824" x="1120.5103" y="728.8679">Baptism (Sacrament)</text><line style="stroke:#181818;stroke-width:0.5;" x1="1020.5" x2="1319.5029" y1="739.1394" y2="739.1394"/><text fill="#000000" font-family="sans-serif" font-size="14" lengthAdjust="spacing" textLength="84.793" x="1025.5" y="757.6726">Matter: Water</text><text fill="#000000" font-family="sans-serif" font-size="14" lengthAdjust="spacing" textLength="289.0029" x="1025.5" y="775.282">Form: "I baptize you in the name of the Father,</text><text fill="#000000" font-family="sans-serif" font-size="14" lengthAdjust="spacing" textLength="128.7002" x="1025.5" y="792.8913">Son, and Holy Spirit"</text><text fill="#000000" font-family="sans-serif" font-size="14" lengthAdjust="spacing" textLength="155.6338" x="1025.5" y="810.5007">Scripture: Matthew 28:19</text><line style="stroke:#181818;stroke-width:0.5;" x1="1020.5" x2="1319.5029" y1="817.5769" y2="817.5769"/><text fill="#000000" font-family="sans-serif" font-size="14" lengthAdjust="spacing" textLength="199.1924" x="1025.5" y="836.1101">Minister: Bishop, Priest, Deacon</text><text fill="#000000" font-family="sans-serif" font-size="14" lengthAdjust="spacing" textLength="162.627" x="1025.5" y="853.7195">(Or anyone in emergency)</text></g><!--class Forgiveness--><g class="entity" data-entity="Forgiveness" data-source-line="38" data-uid="ent0010" id="entity_Forgiveness"><rect fill="#F1F1F1" height="65.6094" rx="2.5" ry="2.5" style="stroke:#181818;stroke-width:0.5;" width="246.623" x="21.69" y="976.3994"/><ellipse cx="82.7794" cy="992.3994" fill="#ADD1B2" rx="11" ry="11" style="stroke:#181818;stroke-width:1;"/><path d="M85.545,988.2744 Q85.7012,988.0556 85.8887,987.9463 Q86.0762,987.8369 86.295,987.8369 Q86.67,987.8369 86.9044,988.1025 Q87.1387,988.3525 87.1387,988.9619 L87.1387,990.415 Q87.1387,991.0244 86.9044,991.29 Q86.67,991.5556 86.295,991.5556 Q85.9512,991.5556 85.7481,991.3525 Q85.545,991.165 85.4356,990.6494 Q85.3887,990.29 85.2012,990.1025 Q84.8731,989.7275 84.2637,989.5088 Q83.6544,989.29 83.0294,989.29 Q82.2637,989.29 81.6231,989.6181 Q80.9981,989.9463 80.4981,990.6963 Q80.0137,991.4463 80.0137,992.4775 L80.0137,993.5713 Q80.0137,994.8056 80.9044,995.6338 Q81.795,996.4463 83.3887,996.4463 Q84.3262,996.4463 84.9825,996.1963 Q85.3731,996.04 85.795,995.6025 Q86.0606,995.3369 86.2012,995.2588 Q86.3575,995.1806 86.5606,995.1806 Q86.8887,995.1806 87.1387,995.4463 Q87.4044,995.6963 87.4044,996.04 Q87.4044,996.3838 87.0606,996.79 Q86.5606,997.3681 85.7637,997.6963 Q84.6856,998.1494 83.3887,998.1494 Q81.8731,998.1494 80.67,997.5244 Q79.6856,997.0244 78.9981,995.9619 Q78.3106,994.8838 78.3106,993.6025 L78.3106,992.4463 Q78.3106,991.1181 78.92,989.9775 Q79.545,988.8213 80.6387,988.2119 Q81.7325,987.5869 82.9669,987.5869 Q83.7012,987.5869 84.3419,987.7588 Q84.9981,987.915 85.545,988.2744 Z " fill="#000000"/><text fill="#000000" font-family="sans-serif" font-size="14" lengthAdjust="spacing" textLength="115.9443" x="103.2794" y="998.1279">Forgiveness of Sin</text><line style="stroke:#181818;stroke-width:0.5;" x1="22.69" x2="267.313" y1="1008.3994" y2="1008.3994"/><text fill="#000000" font-family="sans-serif" font-size="14" lengthAdjust="spacing" textLength="234.623" x="27.69" y="1026.9326">Includes: Original Sin + Personal Sins</text><line style="stroke:#181818;stroke-width:0.5;" x1="22.69" x2="267.313" y1="1034.0088" y2="1034.0088"/></g><!--class Grace--><g class="entity" data-entity="Grace" data-source-line="41" data-uid="ent0011" id="entity_Grace"><rect fill="#F1F1F1" height="65.6094" rx="2.5" ry="2.5" style="stroke:#181818;stroke-width:0.5;" width="218.2061" x="302.9" y="976.3994"/><ellipse cx="352.505" cy="992.3994" fill="#ADD1B2" rx="11" ry="11" style="stroke:#181818;stroke-width:1;"/><path d="M355.2706,988.2744 Q355.4269,988.0556 355.6144,987.9463 Q355.8019,987.8369 356.0206,987.8369 Q356.3956,987.8369 356.63,988.1025 Q356.8644,988.3525 356.8644,988.9619 L356.8644,990.415 Q356.8644,991.0244 356.63,991.29 Q356.3956,991.5556 356.0206,991.5556 Q355.6769,991.5556 355.4737,991.3525 Q355.2706,991.165 355.1612,990.6494 Q355.1144,990.29 354.9269,990.1025 Q354.5987,989.7275 353.9894,989.5088 Q353.38,989.29 352.755,989.29 Q351.9894,989.29 351.3487,989.6181 Q350.7237,989.9463 350.2237,990.6963 Q349.7394,991.4463 349.7394,992.4775 L349.7394,993.5713 Q349.7394,994.8056 350.63,995.6338 Q351.5206,996.4463 353.1144,996.4463 Q354.0519,996.4463 354.7081,996.1963 Q355.0987,996.04 355.5206,995.6025 Q355.7862,995.3369 355.9269,995.2588 Q356.0831,995.1806 356.2862,995.1806 Q356.6144,995.1806 356.8644,995.4463 Q357.13,995.6963 357.13,996.04 Q357.13,996.3838 356.7862,996.79 Q356.2862,997.3681 355.4894,997.6963 Q354.4112,998.1494 353.1144,998.1494 Q351.5987,998.1494 350.3956,997.5244 Q349.4112,997.0244 348.7237,995.9619 Q348.0362,994.8838 348.0362,993.6025 L348.0362,992.4463 Q348.0362,991.1181 348.6456,989.9775 Q349.2706,988.8213 350.3644,988.2119 Q351.4581,987.5869 352.6925,987.5869 Q353.4269,987.5869 354.0675,987.7588 Q354.7237,987.915 355.2706,988.2744 Z " fill="#000000"/><text fill="#000000" font-family="sans-serif" font-size="14" lengthAdjust="spacing" textLength="110.4961" x="373.005" y="998.1279">Sanctifying Grace</text><line style="stroke:#181818;stroke-width:0.5;" x1="303.9" x2="520.1061" y1="1008.3994" y2="1008.3994"/><text fill="#000000" font-family="sans-serif" font-size="14" lengthAdjust="spacing" textLength="206.2061" x="308.9" y="1026.9326">Description: Divine life in the soul</text><line style="stroke:#181818;stroke-width:0.5;" x1="303.9" x2="520.1061" y1="1034.0088" y2="1034.0088"/></g><!--class HolySpirit--><g class="entity" data-entity="HolySpirit" data-source-line="44" data-uid="ent0012" id="entity_HolySpirit"><rect fill="#F1F1F1" height="65.6094" rx="2.5" ry="2.5" style="stroke:#181818;stroke-width:0.5;" width="307.6816" x="556.16" y="976.3994"/><ellipse cx="621.3202" cy="992.3994" fill="#ADD1B2" rx="11" ry="11" style="stroke:#181818;stroke-width:1;"/><path d="M624.0858,988.2744 Q624.242,988.0556 624.4295,987.9463 Q624.617,987.8369 624.8358,987.8369 Q625.2108,987.8369 625.4452,988.1025 Q625.6795,988.3525 625.6795,988.9619 L625.6795,990.415 Q625.6795,991.0244 625.4452,991.29 Q625.2108,991.5556 624.8358,991.5556 Q624.492,991.5556 624.2889,991.3525 Q624.0858,991.165 623.9764,990.6494 Q623.9295,990.29 623.742,990.1025 Q623.4139,989.7275 622.8045,989.5088 Q622.1952,989.29 621.5702,989.29 Q620.8045,989.29 620.1639,989.6181 Q619.5389,989.9463 619.0389,990.6963 Q618.5545,991.4463 618.5545,992.4775 L618.5545,993.5713 Q618.5545,994.8056 619.4452,995.6338 Q620.3358,996.4463 621.9295,996.4463 Q622.867,996.4463 623.5233,996.1963 Q623.9139,996.04 624.3358,995.6025 Q624.6014,995.3369 624.742,995.2588 Q624.8983,995.1806 625.1014,995.1806 Q625.4295,995.1806 625.6795,995.4463 Q625.9452,995.6963 625.9452,996.04 Q625.9452,996.3838 625.6014,996.79 Q625.1014,997.3681 624.3045,997.6963 Q623.2264,998.1494 621.9295,998.1494 Q620.4139,998.1494 619.2108,997.5244 Q618.2264,997.0244 617.5389,995.9619 Q616.8514,994.8838 616.8514,993.6025 L616.8514,992.4463 Q616.8514,991.1181 617.4608,989.9775 Q618.0858,988.8213 619.1795,988.2119 Q620.2733,987.5869 621.5077,987.5869 Q622.242,987.5869 622.8827,987.7588 Q623.5389,987.915 624.0858,988.2744 Z " fill="#000000"/><text fill="#000000" font-family="sans-serif" font-size="14" lengthAdjust="spacing" textLength="168.8613" x="641.8202" y="998.1279">Indwelling of the Holy Spirit</text><line style="stroke:#181818;stroke-width:0.5;" x1="557.16" x2="862.8416" y1="1008.3994" y2="1008.3994"/><text fill="#000000" font-family="sans-serif" font-size="14" lengthAdjust="spacing" textLength="295.6816" x="562.16" y="1026.9326">Description: Soul becomes temple of Holy Spirit</text><line style="stroke:#181818;stroke-width:0.5;" x1="557.16" x2="862.8416" y1="1034.0088" y2="1034.0088"/></g><!--class Adoption--><g class="entity" data-entity="Adoption" data-source-line="47" data-uid="ent0013" id="entity_Adoption"><rect fill="#F1F1F1" height="65.6094" rx="2.5" ry="2.5" style="stroke:#181818;stroke-width:0.5;" width="299.4375" x="899.28" y="976.3994"/><ellipse cx="966.9216" cy="992.3994" fill="#ADD1B2" rx="11" ry="11" style="stroke:#181818;stroke-width:1;"/><path d="M969.6872,988.2744 Q969.8435,988.0556 970.031,987.9463 Q970.2185,987.8369 970.4372,987.8369 Q970.8122,987.8369 971.0466,988.1025 Q971.281,988.3525 971.281,988.9619 L971.281,990.415 Q971.281,991.0244 971.0466,991.29 Q970.8122,991.5556 970.4372,991.5556 Q970.0935,991.5556 969.8904,991.3525 Q969.6872,991.165 969.5779,990.6494 Q969.531,990.29 969.3435,990.1025 Q969.0154,989.7275 968.406,989.5088 Q967.7966,989.29 967.1716,989.29 Q966.406,989.29 965.7654,989.6181 Q965.1404,989.9463 964.6404,990.6963 Q964.156,991.4463 964.156,992.4775 L964.156,993.5713 Q964.156,994.8056 965.0466,995.6338 Q965.9372,996.4463 967.531,996.4463 Q968.4685,996.4463 969.1247,996.1963 Q969.5154,996.04 969.9372,995.6025 Q970.2029,995.3369 970.3435,995.2588 Q970.4997,995.1806 970.7029,995.1806 Q971.031,995.1806 971.281,995.4463 Q971.5466,995.6963 971.5466,996.04 Q971.5466,996.3838 971.2029,996.79 Q970.7029,997.3681 969.906,997.6963 Q968.8279,998.1494 967.531,998.1494 Q966.0154,998.1494 964.8122,997.5244 Q963.8279,997.0244 963.1404,995.9619 Q962.4529,994.8838 962.4529,993.6025 L962.4529,992.4463 Q962.4529,991.1181 963.0622,989.9775 Q963.6872,988.8213 964.781,988.2119 Q965.8747,987.5869 967.1091,987.5869 Q967.8435,987.5869 968.4841,987.7588 Q969.1404,987.915 969.6872,988.2744 Z " fill="#000000"/><text fill="#000000" font-family="sans-serif" font-size="14" lengthAdjust="spacing" textLength="155.6543" x="987.4216" y="998.1279">Adoption as Child of God</text><line style="stroke:#181818;stroke-width:0.5;" x1="900.28" x2="1197.7175" y1="1008.3994" y2="1008.3994"/><text fill="#000000" font-family="sans-serif" font-size="14" lengthAdjust="spacing" textLength="287.4375" x="905.28" y="1026.9326">Description: Becomes member of God's family</text><line style="stroke:#181818;stroke-width:0.5;" x1="900.28" x2="1197.7175" y1="1034.0088" y2="1034.0088"/></g><!--class ChurchMembership--><g class="entity" data-entity="ChurchMembership" data-source-line="50" data-uid="ent0014" id="entity_ChurchMembership"><rect fill="#F1F1F1" height="65.6094" rx="2.5" ry="2.5" style="stroke:#181818;stroke-width:0.5;" width="222.082" x="1233.96" y="976.3994"/><ellipse cx="1253.2491" cy="992.3994" fill="#ADD1B2" rx="11" ry="11" style="stroke:#181818;stroke-width:1;"/><path d="M1256.0147,988.2744 Q1256.1709,988.0556 1256.3584,987.9463 Q1256.5459,987.8369 1256.7647,987.8369 Q1257.1397,987.8369 1257.3741,988.1025 Q1257.6084,988.3525 1257.6084,988.9619 L1257.6084,990.415 Q1257.6084,991.0244 1257.3741,991.29 Q1257.1397,991.5556 1256.7647,991.5556 Q1256.4209,991.5556 1256.2178,991.3525 Q1256.0147,991.165 1255.9053,990.6494 Q1255.8584,990.29 1255.6709,990.1025 Q1255.3428,989.7275 1254.7334,989.5088 Q1254.1241,989.29 1253.4991,989.29 Q1252.7334,989.29 1252.0928,989.6181 Q1251.4678,989.9463 1250.9678,990.6963 Q1250.4834,991.4463 1250.4834,992.4775 L1250.4834,993.5713 Q1250.4834,994.8056 1251.3741,995.6338 Q1252.2647,996.4463 1253.8584,996.4463 Q1254.7959,996.4463 1255.4522,996.1963 Q1255.8428,996.04 1256.2647,995.6025 Q1256.5303,995.3369 1256.6709,995.2588 Q1256.8272,995.1806 1257.0303,995.1806 Q1257.3584,995.1806 1257.6084,995.4463 Q1257.8741,995.6963 1257.8741,996.04 Q1257.8741,996.3838 1257.5303,996.79 Q1257.0303,997.3681 1256.2334,997.6963 Q1255.1553,998.1494 1253.8584,998.1494 Q1252.3428,998.1494 1251.1397,997.5244 Q1250.1553,997.0244 1249.4678,995.9619 Q1248.7803,994.8838 1248.7803,993.6025 L1248.7803,992.4463 Q1248.7803,991.1181 1249.3897,989.9775 Q1250.0147,988.8213 1251.1084,988.2119 Q1252.2022,987.5869 1253.4366,987.5869 Q1254.1709,987.5869 1254.8116,987.7588 Q1255.4678,987.915 1256.0147,988.2744 Z " fill="#000000"/><text fill="#000000" font-family="sans-serif" font-size="14" lengthAdjust="spacing" textLength="180.5508" x="1268.2022" y="998.1279">Incorporation into the Church</text><line style="stroke:#181818;stroke-width:0.5;" x1="1234.96" x2="1455.042" y1="1008.3994" y2="1008.3994"/><text fill="#000000" font-family="sans-serif" font-size="14" lengthAdjust="spacing" textLength="210.082" x="1239.96" y="1026.9326">Description: Enters Body of Christ</text><line style="stroke:#181818;stroke-width:0.5;" x1="1234.96" x2="1455.042" y1="1034.0088" y2="1034.0088"/></g><!--class Character--><g class="entity" data-entity="Character" data-source-line="53" data-uid="ent0015" id="entity_Character"><rect fill="#F1F1F1" height="65.6094" rx="2.5" ry="2.5" style="stroke:#181818;stroke-width:0.5;" width="300.6816" x="1490.66" y="976.3994"/><ellipse cx="1565.9408" cy="992.3994" fill="#ADD1B2" rx="11" ry="11" style="stroke:#181818;stroke-width:1;"/><path d="M1568.7064,988.2744 Q1568.8626,988.0556 1569.0501,987.9463 Q1569.2376,987.8369 1569.4564,987.8369 Q1569.8314,987.8369 1570.0658,988.1025 Q1570.3001,988.3525 1570.3001,988.9619 L1570.3001,990.415 Q1570.3001,991.0244 1570.0658,991.29 Q1569.8314,991.5556 1569.4564,991.5556 Q1569.1126,991.5556 1568.9095,991.3525 Q1568.7064,991.165 1568.597,990.6494 Q1568.5501,990.29 1568.3626,990.1025 Q1568.0345,989.7275 1567.4251,989.5088 Q1566.8158,989.29 1566.1908,989.29 Q1565.4251,989.29 1564.7845,989.6181 Q1564.1595,989.9463 1563.6595,990.6963 Q1563.1751,991.4463 1563.1751,992.4775 L1563.1751,993.5713 Q1563.1751,994.8056 1564.0658,995.6338 Q1564.9564,996.4463 1566.5501,996.4463 Q1567.4876,996.4463 1568.1439,996.1963 Q1568.5345,996.04 1568.9564,995.6025 Q1569.222,995.3369 1569.3626,995.2588 Q1569.5189,995.1806 1569.722,995.1806 Q1570.0501,995.1806 1570.3001,995.4463 Q1570.5658,995.6963 1570.5658,996.04 Q1570.5658,996.3838 1570.222,996.79 Q1569.722,997.3681 1568.9251,997.6963 Q1567.847,998.1494 1566.5501,998.1494 Q1565.0345,998.1494 1563.8314,997.5244 Q1562.847,997.0244 1562.1595,995.9619 Q1561.472,994.8838 1561.472,993.6025 L1561.472,992.4463 Q1561.472,991.1181 1562.0814,989.9775 Q1562.7064,988.8213 1563.8001,988.2119 Q1564.8939,987.5869 1566.1283,987.5869 Q1566.8626,987.5869 1567.5033,987.7588 Q1568.1595,987.915 1568.7064,988.2744 Z " fill="#000000"/><text fill="#000000" font-family="sans-serif" font-size="14" lengthAdjust="spacing" textLength="141.6201" x="1586.4408" y="998.1279">Indelible Spiritual Mark</text><line style="stroke:#181818;stroke-width:0.5;" x1="1491.66" x2="1790.3416" y1="1008.3994" y2="1008.3994"/><text fill="#000000" font-family="sans-serif" font-size="14" lengthAdjust="spacing" textLength="288.6816" x="1496.66" y="1026.9326">Description: Permanent sacramental character</text><line style="stroke:#181818;stroke-width:0.5;" x1="1491.66" x2="1790.3416" y1="1034.0088" y2="1034.0088"/></g><!--class Gateway--><g class="entity" data-entity="Gateway" data-source-line="56" data-uid="ent0016" id="entity_Gateway"><rect fill="#F1F1F1" height="83.2188" rx="2.5" ry="2.5" style="stroke:#181818;stroke-width:0.5;" width="220.3027" x="1825.85" y="967.5894"/><ellipse cx="1840.85" cy="983.5894" fill="#ADD1B2" rx="11" ry="11" style="stroke:#181818;stroke-width:1;"/><path d="M1843.6156,979.4644 Q1843.7719,979.2456 1843.9594,979.1363 Q1844.1469,979.0269 1844.3656,979.0269 Q1844.7406,979.0269 1844.975,979.2925 Q1845.2094,979.5425 1845.2094,980.1519 L1845.2094,981.605 Q1845.2094,982.2144 1844.975,982.48 Q1844.7406,982.7456 1844.3656,982.7456 Q1844.0219,982.7456 1843.8188,982.5425 Q1843.6156,982.355 1843.5063,981.8394 Q1843.4594,981.48 1843.2719,981.2925 Q1842.9438,980.9175 1842.3344,980.6988 Q1841.725,980.48 1841.1,980.48 Q1840.3344,980.48 1839.6938,980.8081 Q1839.0688,981.1363 1838.5688,981.8863 Q1838.0844,982.6363 1838.0844,983.6675 L1838.0844,984.7613 Q1838.0844,985.9956 1838.975,986.8238 Q1839.8656,987.6363 1841.4594,987.6363 Q1842.3969,987.6363 1843.0531,987.3863 Q1843.4438,987.23 1843.8656,986.7925 Q1844.1313,986.5269 1844.2719,986.4488 Q1844.4281,986.3706 1844.6313,986.3706 Q1844.9594,986.3706 1845.2094,986.6363 Q1845.475,986.8863 1845.475,987.23 Q1845.475,987.5738 1845.1313,987.98 Q1844.6313,988.5581 1843.8344,988.8863 Q1842.7563,989.3394 1841.4594,989.3394 Q1839.9438,989.3394 1838.7406,988.7144 Q1837.7563,988.2144 1837.0688,987.1519 Q1836.3813,986.0738 1836.3813,984.7925 L1836.3813,983.6363 Q1836.3813,982.3081 1836.9906,981.1675 Q1837.6156,980.0113 1838.7094,979.4019 Q1839.8031,978.7769 1841.0375,978.7769 Q1841.7719,978.7769 1842.4125,978.9488 Q1843.0688,979.105 1843.6156,979.4644 Z " fill="#000000"/><text fill="#000000" font-family="sans-serif" font-size="14" lengthAdjust="spacing" textLength="188.3027" x="1854.85" y="989.3179">Gateway to Other Sacraments</text><line style="stroke:#181818;stroke-width:0.5;" x1="1826.85" x2="2045.1527" y1="999.5894" y2="999.5894"/><text fill="#000000" font-family="sans-serif" font-size="14" lengthAdjust="spacing" textLength="154.8477" x="1831.85" y="1018.1226">Description: Required for</text><text fill="#000000" font-family="sans-serif" font-size="14" lengthAdjust="spacing" textLength="154.8408" x="1831.85" y="1035.732">Confirmation &amp; Eucharist</text><line style="stroke:#181818;stroke-width:0.5;" x1="1826.85" x2="2045.1527" y1="1042.8081" y2="1042.8081"/></g><g class="entity" data-entity="GMN25" data-source-line="74" data-uid="ent0026" id="entity_GMN25"><path d="M2081.37,938.7894 L2081.37,1079.6019 L2286.6234,1079.6019 L2286.6234,948.7894 L2276.6234,938.7894 L2081.37,938.7894" fill="#FEFFDD" style="stroke:#181818;stroke-width:0.5;"/><path d="M2276.6234,938.7894 L2276.6234,948.7894 L2286.6234,948.7894 L2276.6234,938.7894" fill="#FEFFDD" style="stroke:#181818;stroke-width:1;"/><text fill="#000000" font-family="sans-serif" font-size="13" lengthAdjust="spacing" textLength="43.3481" x="2087.37" y="957.2845">Effects:</text><text fill="#000000" font-family="sans-serif" font-size="13" lengthAdjust="spacing" textLength="91.0317" x="2087.37" y="973.6361">1. Forgives sins</text><text fill="#000000" font-family="sans-serif" font-size="13" lengthAdjust="spacing" textLength="92.498" x="2087.37" y="989.9876">2. Infuses grace</text><text fill="#000000" font-family="sans-serif" font-size="13" lengthAdjust="spacing" textLength="134.3926" x="2087.37" y="1006.3392">3. Holy Spirit indwelling</text><text fill="#000000" font-family="sans-serif" font-size="13" lengthAdjust="spacing" textLength="156.1016" x="2087.37" y="1022.6907">4. Adoption as child of God</text><text fill="#000000" font-family="sans-serif" font-size="13" lengthAdjust="spacing" textLength="131.498" x="2087.37" y="1039.0423">5. Church membership</text><text fill="#000000" font-family="sans-serif" font-size="13" lengthAdjust="spacing" textLength="95.3799" x="2087.37" y="1055.3939">6. Indelible mark</text><text fill="#000000" font-family="sans-serif" font-size="13" lengthAdjust="spacing" textLength="184.2534" x="2087.37" y="1071.7454">7. Gateway to other sacraments</text></g><!--link Jewish to JohnBaptism--><g class="link" data-entity-1="Jewish" data-entity-2="JohnBaptism" data-source-line="26" data-uid="lnk6" id="link_Jewish_JohnBaptism"><path codeLine="26" d="M1170,212.7094 C1170,237.5894 1170,259.7694 1170,283.9794" fill="none" id="Jewish-to-JohnBaptism" style="stroke:#181818;stroke-width:1;"/><polygon fill="#181818" points="1170,289.9794,1174,280.9794,1170,284.9794,1166,280.9794,1170,289.9794" style="stroke:#181818;stroke-width:1;"/><text fill="#000000" font-family="sans-serif" font-size="13" lengthAdjust="spacing" textLength="59.249" x="1171" y="256.7545">Prefigures</text></g><!--link JohnBaptism to JesusBaptism--><g class="link" data-entity-1="JohnBaptism" data-entity-2="JesusBaptism" data-source-line="27" data-uid="lnk7" id="link_JohnBaptism_JesusBaptism"><path codeLine="27" d="M1170,409.0794 C1170,433.5694 1170,455.9594 1170,480.4394" fill="none" id="JohnBaptism-to-JesusBaptism" style="stroke:#181818;stroke-width:1;"/><polygon fill="#181818" points="1170,486.4394,1174,477.4394,1170,481.4394,1166,477.4394,1170,486.4394" style="stroke:#181818;stroke-width:1;"/><text fill="#000000" font-family="sans-serif" font-size="13" lengthAdjust="spacing" textLength="109.0908" x="1171" y="453.1945">Prepares for Christ</text></g><!--link JesusBaptism to Baptism--><g class="link" data-entity-1="JesusBaptism" data-entity-2="Baptism" data-source-line="62" data-uid="lnk17" id="link_JesusBaptism_Baptism"><path codeLine="62" d="M1170,605.5694 C1170,636.1594 1170,667.9294 1170,700.7594" fill="none" id="JesusBaptism-to-Baptism" style="stroke:#181818;stroke-width:1;"/><polygon fill="#181818" points="1170,706.7594,1174,697.7594,1170,701.7594,1166,697.7594,1170,706.7594" style="stroke:#181818;stroke-width:1;"/><text fill="#000000" font-family="sans-serif" font-size="13" lengthAdjust="spacing" textLength="187.1606" x="1171" y="651.6345">Leads to institution of sacrament</text></g><!--link Baptism to Forgiveness--><g class="link" data-entity-1="Baptism" data-entity-2="Forgiveness" data-source-line="65" data-uid="lnk18" id="link_Baptism_Forgiveness"><path codeLine="65" d="M1019.23,797.8394 C840.49,816.1194 535.31,856.9094 285,938.7894 C256.12,948.2394 231.0221,959.9008 205.9521,973.1808" fill="none" id="Baptism-to-Forgiveness" style="stroke:#181818;stroke-width:1;"/><polygon fill="#181818" points="200.65,975.9894,210.4755,975.3112,205.0684,973.6489,206.7307,968.2418,200.65,975.9894" style="stroke:#181818;stroke-width:1;"/><text fill="#000000" font-family="sans-serif" font-size="13" lengthAdjust="spacing" textLength="54.1963" x="451.05" y="905.2845">Cleanses</text></g><!--link Baptism to Grace--><g class="link" data-entity-1="Baptism" data-entity-2="Grace" data-source-line="66" data-uid="lnk19" id="link_Baptism_Grace"><path codeLine="66" d="M1019.07,810.2694 C889.09,834.7494 697.89,877.2294 539,938.7894 C513.23,948.7794 491.3582,960.0029 468.8582,972.9729" fill="none" id="Baptism-to-Grace" style="stroke:#181818;stroke-width:1;"/><polygon fill="#181818" points="463.66,975.9694,473.4549,974.9401,467.9918,973.4723,469.4596,968.0092,463.66,975.9694" style="stroke:#181818;stroke-width:1;"/><text fill="#000000" font-family="sans-serif" font-size="13" lengthAdjust="spacing" textLength="41.9136" x="674.45" y="905.2845">Infuses</text></g><!--link Baptism to HolySpirit--><g class="link" data-entity-1="Baptism" data-entity-2="HolySpirit" data-source-line="67" data-uid="lnk20" id="link_Baptism_HolySpirit"><path codeLine="67" d="M1019.06,858.2194 C936.94,898.0694 844.908,942.7298 781.708,973.3998" fill="none" id="Baptism-to-HolySpirit" style="stroke:#181818;stroke-width:1;"/><polygon fill="#181818" points="776.31,976.0194,786.1533,975.6887,780.8083,973.8364,782.6606,968.4914,776.31,976.0194" style="stroke:#181818;stroke-width:1;"/><text fill="#000000" font-family="sans-serif" font-size="13" lengthAdjust="spacing" textLength="49.1309" x="941" y="905.2845">Bestows</text></g><!--link Baptism to Adoption--><g class="link" data-entity-1="Baptism" data-entity-2="Adoption" data-source-line="68" data-uid="lnk21" id="link_Baptism_Adoption"><path codeLine="68" d="M1128.7,861.1694 C1107.41,900.4494 1085.4289,940.9843 1069.2189,970.8943" fill="none" id="Baptism-to-Adoption" style="stroke:#181818;stroke-width:1;"/><polygon fill="#181818" points="1066.36,976.1694,1074.1651,970.1626,1068.7424,971.7735,1067.1316,966.3508,1066.36,976.1694" style="stroke:#181818;stroke-width:1;"/><text fill="#000000" font-family="sans-serif" font-size="13" lengthAdjust="spacing" textLength="40.4727" x="1110.5" y="905.2845">Adopts</text></g><!--link Baptism to ChurchMembership--><g class="link" data-entity-1="Baptism" data-entity-2="ChurchMembership" data-source-line="69" data-uid="lnk22" id="link_Baptism_ChurchMembership"><path codeLine="69" d="M1229.74,861.1694 C1260.53,900.4494 1292.738,941.5376 1316.188,971.4476" fill="none" id="Baptism-to-ChurchMembership" style="stroke:#181818;stroke-width:1;"/><polygon fill="#181818" points="1319.89,976.1694,1317.4849,966.6187,1316.805,972.2345,1311.1892,971.5547,1319.89,976.1694" style="stroke:#181818;stroke-width:1;"/><text fill="#000000" font-family="sans-serif" font-size="13" lengthAdjust="spacing" textLength="72.2617" x="1263.75" y="905.2845">Incorporates</text></g><!--link Baptism to Character--><g class="link" data-entity-1="Baptism" data-entity-2="Character" data-source-line="70" data-uid="lnk23" id="link_Baptism_Character"><path codeLine="70" d="M1320.97,856.5194 C1405.73,896.6894 1501.9081,942.2797 1567.5481,973.3897" fill="none" id="Baptism-to-Character" style="stroke:#181818;stroke-width:1;"/><polygon fill="#181818" points="1572.97,975.9594,1566.5503,968.4903,1568.4518,973.818,1563.1241,975.7194,1572.97,975.9594" style="stroke:#181818;stroke-width:1;"/><text fill="#000000" font-family="sans-serif" font-size="13" lengthAdjust="spacing" textLength="46.23" x="1420.62" y="905.2845">Imprints</text></g><!--link Baptism to Gateway--><g class="link" data-entity-1="Baptism" data-entity-2="Gateway" data-source-line="71" data-uid="lnk24" id="link_Baptism_Gateway"><path codeLine="71" d="M1320.9,809.6494 C1452.57,833.9094 1647.32,876.4194 1809,938.7894 C1829.04,946.5294 1844.5948,953.9623 1863.4448,964.2623" fill="none" id="Baptism-to-Gateway" style="stroke:#181818;stroke-width:1;"/><polygon fill="#181818" points="1868.71,967.1394,1862.7302,959.3137,1864.3223,964.7419,1858.8941,966.334,1868.71,967.1394" style="stroke:#181818;stroke-width:1;"/><text fill="#000000" font-family="sans-serif" font-size="13" lengthAdjust="spacing" textLength="67.2153" x="1708.63" y="905.2845">Opens path</text></g><!--link Baptism to GMN25--><g class="link" data-entity-1="Baptism" data-entity-2="GMN25" data-source-line="74" data-uid="lnk27" id="link_Baptism_GMN25"><path d="M1320.82,794.9794 C1501.52,810.5794 1811.28,848.8594 2062,938.7894 C2068.31,941.0594 2074.67,943.6294 2081,946.4294" fill="none" id="Baptism-GMN25" style="stroke:#181818;stroke-width:1;stroke-dasharray:7,7;"/></g><!--SRC=[VLLTR-Cs47pNhrZuuIv1RGE-t4She0KQv-DoI9eWFg0lUQ6bbKL48bMIig4UxhztA56sd2WD440qbpkxmvcbawvWEXULaxQCwQkqJfjcIZVAEkbg9xMQab0fNMOP9yxIoLAuN1SoeUyiabogpMaKlQVV_LyuBXDHqArKB3PCAvn2aYuWgaJox7-T328VjNPsGZyYmbzI26jfyertqkRqY18GyRUm7iW-gPCx-Rpb_7H2mb88wWuIFTIcqfRZ_bHL6va1mSE7aFllzCWP6rO9ucvvAvrCQakBZxF5foVrLrsksM3vMuXVDUKQlNfcbWKBPL45PKQNP3eCMNeKrxJnFwEZ5dIkoEKzkUwzxMdkYiTsM8zqm1Kh9r0blQC7mvKmmpPkTTTLZ2mc5GeTRzcCrAnLnjPw-dL6ADxsCOcHbQiDeEw4Gv4xEeiNiyyZRVGr8i4tjhKDpEFhpUglwYAJHK42_qPkSiUwjWg5XC3BBPgBEpR-vPJMJSl6w_fNOC3X3jdIJZZSpF-MVpPRV0aDe8KWZjdiZoEgOqzd9ZSuRAFXHXiuR2iEn0CyquQMkS4b7gJUhIN8Nud4Y18jlQNraL18Po-67sDqd-n3Ews_9DltpIQ6DTp-vg-q0McJ6rftp5AZQvAT21Lo-JlqtrTmC9lfarhrvlwgYuPMbOIK9ps0L2ZQGvo3HrrDGGSkmatf0hxN2bwyDpZSQCKUX4is6_YgENtxaZxy6WTh7MiCXM-WO2yHN-DAghRduSzztpSgAUgKRKpta9PK81BXz0izG1uwB6t06404AJNUmDT69DmYj5_xt1TisvfRPrt8BIOO5JBZdaEhw-9rvXkLxhWeVEB0xv1DZ-BNtN8SQeMyjEP4bz2Qux8gsgiQf7cD-cUgszC-_pANHUfFNEkq1TnlZiAT1wII_RGBvp2TCb7AeXbhCD5mTZU1m8NJRPVBl3P9FkaAy9ztRJvCwceSzr9v2zEvJXiF6WmrnYSNSWqEkjxzcBqJvZaWOH8co3CE0H6KGdahse7JalxGQx1hs6Sd6a9FzzuK1uTsWwxV7qLxv7zgQJ30C1-Ub1-s4l0jI-_eilQmXmv_-j7HFug0smD5HrF7Zw731BfbaLeVBG_FSJlAzuUHT3XKmYiT3TCDRTI_OtmSqlaWXhko-kNUGBrUEtYsTyS1UxN5tUVnxYjjU9HUKFmojhzT19MLWTPUr1ck0-x70scfmYIB8gKTqrexfzjdAXo80XTnj9Zt7DZk4VmmxpkbZUyyEfiFtGQsUqj77-Sqj5eoi5hqQHww2rRoxKMVVUvUmILq6tsPqq1ckfNP_W9jn9Y_leFeFm00]--></g></svg>