<svg xmlns="http://www.w3.org/2000/svg" xmlns:xlink="http://www.w3.org/1999/xlink" contentStyleType="text/css" data-diagram-type="CLASS" height="330px" preserveAspectRatio="none" style="width:3859px;height:330px;background:#FFFFFF;" version="1.1" viewBox="0 0 3859 330" width="3859px" zoomAndPan="magnify"><title>Matthew 7 - Key Teachings (RSV-CE)</title><defs/><g><g class="title" data-source-line="1"><text fill="#000000" font-family="sans-serif" font-size="14" font-weight="bold" lengthAdjust="spacing" textLength="245.041" x="1799.9795" y="24.5332">Matthew 7 - Key Teachings (RSV-CE)</text></g><!--cluster Judging Others (7:1-5)--><g class="cluster" data-entity="Judging Others .7.1-5." data-source-line="4" data-uid="ent0002" id="cluster_Judging Others .7.1-5."><path d="M481.5,44.6094 L631.8447,44.6094 A3.75,3.75 0 0 1 634.3447,47.1094 L641.3447,68.2188 L1100.5,68.2188 A2.5,2.5 0 0 1 1103,70.7188 L1103,223.3294 A2.5,2.5 0 0 1 1100.5,225.8294 L481.5,225.8294 A2.5,2.5 0 0 1 479,223.3294 L479,47.1094 A2.5,2.5 0 0 1 481.5,44.6094" fill="#FFFFE0" style="stroke:#000000;stroke-width:1.5;"/><line style="stroke:#000000;stroke-width:1.5;" x1="479" x2="641.3447" y1="68.2188" y2="68.2188"/><text fill="#000000" font-family="sans-serif" font-size="14" font-weight="bold" lengthAdjust="spacing" textLength="149.3447" x="483" y="61.1426">Judging Others (7:1-5)</text></g><!--cluster Speck vs--><g class="cluster" data-entity="Speck vs" data-source-line="7" data-uid="ent0006" id="cluster_Speck vs"><path d="M505.5,88.6094 L567.21,88.6094 A3.75,3.75 0 0 1 569.71,91.1094 L576.71,112.2188 L656.5,112.2188 A2.5,2.5 0 0 1 659,114.7188 L659,199.3294 A2.5,2.5 0 0 1 656.5,201.8294 L505.5,201.8294 A2.5,2.5 0 0 1 503,199.3294 L503,91.1094 A2.5,2.5 0 0 1 505.5,88.6094" fill="none" style="stroke:#000000;stroke-width:1.5;"/><line style="stroke:#000000;stroke-width:1.5;" x1="503" x2="576.71" y1="112.2188" y2="112.2188"/><text fill="#000000" font-family="sans-serif" font-size="14" font-weight="bold" lengthAdjust="spacing" textLength="60.71" x="507" y="105.1426">Speck vs</text></g><!--cluster Profaning the Holy (7:6)--><g class="cluster" data-entity="Profaning the Holy .7.6." data-source-line="10" data-uid="ent0007" id="cluster_Profaning the Holy .7.6."><path d="M1129.5,88.6094 L1288.3965,88.6094 A3.75,3.75 0 0 1 1290.8965,91.1094 L1297.8965,112.2188 L1370.5,112.2188 A2.5,2.5 0 0 1 1373,114.7188 L1373,199.3294 A2.5,2.5 0 0 1 1370.5,201.8294 L1129.5,201.8294 A2.5,2.5 0 0 1 1127,199.3294 L1127,91.1094 A2.5,2.5 0 0 1 1129.5,88.6094" fill="#FFB6C1" style="stroke:#000000;stroke-width:1.5;"/><line style="stroke:#000000;stroke-width:1.5;" x1="1127" x2="1297.8965" y1="112.2188" y2="112.2188"/><text fill="#000000" font-family="sans-serif" font-size="14" font-weight="bold" lengthAdjust="spacing" textLength="157.8965" x="1131" y="105.1426">Profaning the Holy (7:6)</text></g><!--cluster Prayer & God's Goodness (7:7-11)--><g class="cluster" data-entity="Prayer . God.s Goodness .7.7-11." data-source-line="14" data-uid="ent0009" id="cluster_Prayer . God.s Goodness .7.7-11."><path d="M1399.5,88.6094 L1627.1182,88.6094 A3.75,3.75 0 0 1 1629.6182,91.1094 L1636.6182,112.2188 L1777.5,112.2188 A2.5,2.5 0 0 1 1780,114.7188 L1780,199.3294 A2.5,2.5 0 0 1 1777.5,201.8294 L1399.5,201.8294 A2.5,2.5 0 0 1 1397,199.3294 L1397,91.1094 A2.5,2.5 0 0 1 1399.5,88.6094" fill="#90EE90" style="stroke:#000000;stroke-width:1.5;"/><line style="stroke:#000000;stroke-width:1.5;" x1="1397" x2="1636.6182" y1="112.2188" y2="112.2188"/><text fill="#000000" font-family="sans-serif" font-size="14" font-weight="bold" lengthAdjust="spacing" textLength="226.6182" x="1401" y="105.1426">Prayer &amp; God's Goodness (7:7-11)</text></g><!--cluster Golden Rule (7:12)--><g class="cluster" data-entity="Golden Rule .7.12." data-source-line="19" data-uid="ent0012" id="cluster_Golden Rule .7.12."><path d="M1806.5,88.6094 L1931.1826,88.6094 A3.75,3.75 0 0 1 1933.6826,91.1094 L1940.6826,112.2188 L2095.5,112.2188 A2.5,2.5 0 0 1 2098,114.7188 L2098,199.3294 A2.5,2.5 0 0 1 2095.5,201.8294 L1806.5,201.8294 A2.5,2.5 0 0 1 1804,199.3294 L1804,91.1094 A2.5,2.5 0 0 1 1806.5,88.6094" fill="#ADD8E6" style="stroke:#000000;stroke-width:1.5;"/><line style="stroke:#000000;stroke-width:1.5;" x1="1804" x2="1940.6826" y1="112.2188" y2="112.2188"/><text fill="#000000" font-family="sans-serif" font-size="14" font-weight="bold" lengthAdjust="spacing" textLength="123.6826" x="1808" y="105.1426">Golden Rule (7:12)</text></g><!--cluster The Narrow Gate (7:13-14)--><g class="cluster" data-entity="The Narrow Gate .7.13-14." data-source-line="23" data-uid="ent0014" id="cluster_The Narrow Gate .7.13-14."><path d="M2124.5,88.6094 L2298.9961,88.6094 A3.75,3.75 0 0 1 2301.4961,91.1094 L2308.4961,112.2188 L2516.5,112.2188 A2.5,2.5 0 0 1 2519,114.7188 L2519,199.3294 A2.5,2.5 0 0 1 2516.5,201.8294 L2124.5,201.8294 A2.5,2.5 0 0 1 2122,199.3294 L2122,91.1094 A2.5,2.5 0 0 1 2124.5,88.6094" fill="#FFD580" style="stroke:#000000;stroke-width:1.5;"/><line style="stroke:#000000;stroke-width:1.5;" x1="2122" x2="2308.4961" y1="112.2188" y2="112.2188"/><text fill="#000000" font-family="sans-serif" font-size="14" font-weight="bold" lengthAdjust="spacing" textLength="173.4961" x="2126" y="105.1426">The Narrow Gate (7:13-14)</text></g><!--cluster Discernment of Fruits (7:15-20)--><g class="cluster" data-entity="Discernment of Fruits .7.15-20." data-source-line="28" data-uid="ent0017" id="cluster_Discernment of Fruits .7.15-20."><path d="M2545.5,88.6094 L2752.6582,88.6094 A3.75,3.75 0 0 1 2755.1582,91.1094 L2762.1582,112.2188 L2992.5,112.2188 A2.5,2.5 0 0 1 2995,114.7188 L2995,199.3294 A2.5,2.5 0 0 1 2992.5,201.8294 L2545.5,201.8294 A2.5,2.5 0 0 1 2543,199.3294 L2543,91.1094 A2.5,2.5 0 0 1 2545.5,88.6094" fill="#FFFFE0" style="stroke:#000000;stroke-width:1.5;"/><line style="stroke:#000000;stroke-width:1.5;" x1="2543" x2="2762.1582" y1="112.2188" y2="112.2188"/><text fill="#000000" font-family="sans-serif" font-size="14" font-weight="bold" lengthAdjust="spacing" textLength="206.1582" x="2547" y="105.1426">Discernment of Fruits (7:15-20)</text></g><!--cluster True Disciples (7:21-23)--><g class="cluster" data-entity="True Disciples .7.21-23." data-source-line="33" data-uid="ent0020" id="cluster_True Disciples .7.21-23."><path d="M8.5,95.2194 L166.6719,95.2194 A3.75,3.75 0 0 1 169.1719,97.7194 L176.1719,118.8287 L452.5,118.8287 A2.5,2.5 0 0 1 455,121.3287 L455,320.5494 A2.5,2.5 0 0 1 452.5,323.0494 L8.5,323.0494 A2.5,2.5 0 0 1 6,320.5494 L6,97.7194 A2.5,2.5 0 0 1 8.5,95.2194" fill="#FFB6C1" style="stroke:#000000;stroke-width:1.5;"/><line style="stroke:#000000;stroke-width:1.5;" x1="6" x2="176.1719" y1="118.8287" y2="118.8287"/><text fill="#000000" font-family="sans-serif" font-size="14" font-weight="bold" lengthAdjust="spacing" textLength="157.1719" x="10" y="111.7526">True Disciples (7:21-23)</text></g><!--cluster Wise & Foolish Builders (7:24-27)--><g class="cluster" data-entity="Wise . Foolish Builders .7.24-27." data-source-line="39" data-uid="ent0024" id="cluster_Wise . Foolish Builders .7.24-27."><path d="M3021.5,88.6094 L3244.21,88.6094 A3.75,3.75 0 0 1 3246.71,91.1094 L3253.71,112.2188 L3424.5,112.2188 A2.5,2.5 0 0 1 3427,114.7188 L3427,199.3294 A2.5,2.5 0 0 1 3424.5,201.8294 L3021.5,201.8294 A2.5,2.5 0 0 1 3019,199.3294 L3019,91.1094 A2.5,2.5 0 0 1 3021.5,88.6094" fill="#90EE90" style="stroke:#000000;stroke-width:1.5;"/><line style="stroke:#000000;stroke-width:1.5;" x1="3019" x2="3253.71" y1="112.2188" y2="112.2188"/><text fill="#000000" font-family="sans-serif" font-size="14" font-weight="bold" lengthAdjust="spacing" textLength="221.71" x="3023" y="105.1426">Wise &amp; Foolish Builders (7:24-27)</text></g><!--cluster Jesus' Authority (7:28-29)--><g class="cluster" data-entity="Jesus. Authority .7.28-29." data-source-line="44" data-uid="ent0027" id="cluster_Jesus. Authority .7.28-29."><path d="M3453.5,88.6094 L3625.0977,88.6094 A3.75,3.75 0 0 1 3627.5977,91.1094 L3634.5977,112.2188 L3849.5,112.2188 A2.5,2.5 0 0 1 3852,114.7188 L3852,199.3294 A2.5,2.5 0 0 1 3849.5,201.8294 L3453.5,201.8294 A2.5,2.5 0 0 1 3451,199.3294 L3451,91.1094 A2.5,2.5 0 0 1 3453.5,88.6094" fill="#ADD8E6" style="stroke:#000000;stroke-width:1.5;"/><line style="stroke:#000000;stroke-width:1.5;" x1="3451" x2="3634.5977" y1="112.2188" y2="112.2188"/><text fill="#000000" font-family="sans-serif" font-size="14" font-weight="bold" lengthAdjust="spacing" textLength="170.5977" x="3455" y="105.1426">Jesus' Authority (7:28-29)</text></g><!--class Do not judge\n(7:1)--><g class="entity" data-entity="Do not judge.n.7.1." data-source-line="5" data-uid="ent0003" id="entity_Do not judge.n.7.1."><rect fill="#F1F1F1" height="61.2188" rx="2.5" ry="2.5" style="stroke:#181818;stroke-width:0.5;" width="111.3926" x="678.3" y="124.6094"/><ellipse cx="693.3" cy="147.2188" fill="#ADD1B2" rx="11" ry="11" style="stroke:#181818;stroke-width:1;"/><path d="M696.0656,143.0938 Q696.2219,142.875 696.4094,142.7656 Q696.5969,142.6563 696.8156,142.6563 Q697.1906,142.6563 697.425,142.9219 Q697.6594,143.1719 697.6594,143.7813 L697.6594,145.2344 Q697.6594,145.8438 697.425,146.1094 Q697.1906,146.375 696.8156,146.375 Q696.4719,146.375 696.2688,146.1719 Q696.0656,145.9844 695.9563,145.4688 Q695.9094,145.1094 695.7219,144.9219 Q695.3938,144.5469 694.7844,144.3281 Q694.175,144.1094 693.55,144.1094 Q692.7844,144.1094 692.1438,144.4375 Q691.5188,144.7656 691.0188,145.5156 Q690.5344,146.2656 690.5344,147.2969 L690.5344,148.3906 Q690.5344,149.625 691.425,150.4531 Q692.3156,151.2656 693.9094,151.2656 Q694.8469,151.2656 695.5031,151.0156 Q695.8938,150.8594 696.3156,150.4219 Q696.5813,150.1563 696.7219,150.0781 Q696.8781,150 697.0813,150 Q697.4094,150 697.6594,150.2656 Q697.925,150.5156 697.925,150.8594 Q697.925,151.2031 697.5813,151.6094 Q697.0813,152.1875 696.2844,152.5156 Q695.2063,152.9688 693.9094,152.9688 Q692.3938,152.9688 691.1906,152.3438 Q690.2063,151.8438 689.5188,150.7813 Q688.8313,149.7031 688.8313,148.4219 L688.8313,147.2656 Q688.8313,145.9375 689.4406,144.7969 Q690.0656,143.6406 691.1594,143.0313 Q692.2531,142.4063 693.4875,142.4063 Q694.2219,142.4063 694.8625,142.5781 Q695.5188,142.7344 696.0656,143.0938 Z " fill="#000000"/><text fill="#000000" font-family="sans-serif" font-size="14" lengthAdjust="spacing" textLength="79.3926" x="707.3" y="144.1426">Do not judge</text><text fill="#000000" font-family="sans-serif" font-size="14" lengthAdjust="spacing" textLength="28.7861" x="732.6032" y="161.752">(7:1)</text><line style="stroke:#181818;stroke-width:0.5;" x1="679.3" x2="788.6926" y1="169.8281" y2="169.8281"/><line style="stroke:#181818;stroke-width:0.5;" x1="679.3" x2="788.6926" y1="177.8281" y2="177.8281"/></g><!--class Measure you give = measure you get\n(7:2)--><g class="entity" data-entity="Measure you give . measure you get.n.7.2." data-source-line="6" data-uid="ent0004" id="entity_Measure you give . measure you get.n.7.2."><rect fill="#F1F1F1" height="61.2188" rx="2.5" ry="2.5" style="stroke:#181818;stroke-width:0.5;" width="262.7402" x="824.63" y="124.6094"/><ellipse cx="839.63" cy="147.2188" fill="#ADD1B2" rx="11" ry="11" style="stroke:#181818;stroke-width:1;"/><path d="M842.3956,143.0938 Q842.5519,142.875 842.7394,142.7656 Q842.9269,142.6563 843.1456,142.6563 Q843.5206,142.6563 843.755,142.9219 Q843.9894,143.1719 843.9894,143.7813 L843.9894,145.2344 Q843.9894,145.8438 843.755,146.1094 Q843.5206,146.375 843.1456,146.375 Q842.8019,146.375 842.5988,146.1719 Q842.3956,145.9844 842.2863,145.4688 Q842.2394,145.1094 842.0519,144.9219 Q841.7238,144.5469 841.1144,144.3281 Q840.505,144.1094 839.88,144.1094 Q839.1144,144.1094 838.4738,144.4375 Q837.8488,144.7656 837.3488,145.5156 Q836.8644,146.2656 836.8644,147.2969 L836.8644,148.3906 Q836.8644,149.625 837.755,150.4531 Q838.6456,151.2656 840.2394,151.2656 Q841.1769,151.2656 841.8331,151.0156 Q842.2238,150.8594 842.6456,150.4219 Q842.9113,150.1563 843.0519,150.0781 Q843.2081,150 843.4113,150 Q843.7394,150 843.9894,150.2656 Q844.255,150.5156 844.255,150.8594 Q844.255,151.2031 843.9113,151.6094 Q843.4113,152.1875 842.6144,152.5156 Q841.5363,152.9688 840.2394,152.9688 Q838.7238,152.9688 837.5206,152.3438 Q836.5363,151.8438 835.8488,150.7813 Q835.1613,149.7031 835.1613,148.4219 L835.1613,147.2656 Q835.1613,145.9375 835.7706,144.7969 Q836.3956,143.6406 837.4894,143.0313 Q838.5831,142.4063 839.8175,142.4063 Q840.5519,142.4063 841.1925,142.5781 Q841.8488,142.7344 842.3956,143.0938 Z " fill="#000000"/><text fill="#000000" font-family="sans-serif" font-size="14" lengthAdjust="spacing" textLength="230.7402" x="853.63" y="144.1426">Measure you give = measure you get</text><text fill="#000000" font-family="sans-serif" font-size="14" lengthAdjust="spacing" textLength="28.7861" x="954.6071" y="161.752">(7:2)</text><line style="stroke:#181818;stroke-width:0.5;" x1="825.63" x2="1086.3702" y1="169.8281" y2="169.8281"/><line style="stroke:#181818;stroke-width:0.5;" x1="825.63" x2="1086.3702" y1="177.8281" y2="177.8281"/></g><!--class  Log in the eye\n(7:3-5)--><g class="entity" data-entity=" Log in the eye.n.7.3-5." data-source-line="7" data-uid="ent0005" id="entity_ Log in the eye.n.7.3-5."><rect fill="#F1F1F1" height="61.2188" rx="2.5" ry="2.5" style="stroke:#181818;stroke-width:0.5;" width="123.8477" x="519.08" y="124.6094"/><ellipse cx="534.08" cy="147.2188" fill="#ADD1B2" rx="11" ry="11" style="stroke:#181818;stroke-width:1;"/><path d="M536.8456,143.0938 Q537.0019,142.875 537.1894,142.7656 Q537.3769,142.6563 537.5956,142.6563 Q537.9706,142.6563 538.205,142.9219 Q538.4394,143.1719 538.4394,143.7813 L538.4394,145.2344 Q538.4394,145.8438 538.205,146.1094 Q537.9706,146.375 537.5956,146.375 Q537.2519,146.375 537.0488,146.1719 Q536.8456,145.9844 536.7363,145.4688 Q536.6894,145.1094 536.5019,144.9219 Q536.1738,144.5469 535.5644,144.3281 Q534.955,144.1094 534.33,144.1094 Q533.5644,144.1094 532.9238,144.4375 Q532.2988,144.7656 531.7988,145.5156 Q531.3144,146.2656 531.3144,147.2969 L531.3144,148.3906 Q531.3144,149.625 532.205,150.4531 Q533.0956,151.2656 534.6894,151.2656 Q535.6269,151.2656 536.2831,151.0156 Q536.6738,150.8594 537.0956,150.4219 Q537.3613,150.1563 537.5019,150.0781 Q537.6581,150 537.8613,150 Q538.1894,150 538.4394,150.2656 Q538.705,150.5156 538.705,150.8594 Q538.705,151.2031 538.3613,151.6094 Q537.8613,152.1875 537.0644,152.5156 Q535.9863,152.9688 534.6894,152.9688 Q533.1738,152.9688 531.9706,152.3438 Q530.9863,151.8438 530.2988,150.7813 Q529.6113,149.7031 529.6113,148.4219 L529.6113,147.2656 Q529.6113,145.9375 530.2206,144.7969 Q530.8456,143.6406 531.9394,143.0313 Q533.0331,142.4063 534.2675,142.4063 Q535.0019,142.4063 535.6425,142.5781 Q536.2988,142.7344 536.8456,143.0938 Z " fill="#000000"/><text fill="#000000" font-family="sans-serif" font-size="14" lengthAdjust="spacing" textLength="87.958" x="551.9696" y="144.1426">Log in the eye</text><text fill="#000000" font-family="sans-serif" font-size="14" lengthAdjust="spacing" textLength="41.2344" x="573.3866" y="161.752">(7:3-5)</text><line style="stroke:#181818;stroke-width:0.5;" x1="520.08" x2="641.9277" y1="169.8281" y2="169.8281"/><line style="stroke:#181818;stroke-width:0.5;" x1="520.08" x2="641.9277" y1="177.8281" y2="177.8281"/></g><!--class Do not give dogs what is holy\nor cast pearls before swine--><g class="entity" data-entity="Do not give dogs what is holy.nor cast pearls before swine" data-source-line="11" data-uid="ent0008" id="entity_Do not give dogs what is holy.nor cast pearls before swine"><rect fill="#F1F1F1" height="61.2188" rx="2.5" ry="2.5" style="stroke:#181818;stroke-width:0.5;" width="214.1025" x="1142.95" y="124.6094"/><ellipse cx="1157.95" cy="147.2188" fill="#ADD1B2" rx="11" ry="11" style="stroke:#181818;stroke-width:1;"/><path d="M1160.7156,143.0938 Q1160.8719,142.875 1161.0594,142.7656 Q1161.2469,142.6563 1161.4656,142.6563 Q1161.8406,142.6563 1162.075,142.9219 Q1162.3094,143.1719 1162.3094,143.7813 L1162.3094,145.2344 Q1162.3094,145.8438 1162.075,146.1094 Q1161.8406,146.375 1161.4656,146.375 Q1161.1219,146.375 1160.9188,146.1719 Q1160.7156,145.9844 1160.6063,145.4688 Q1160.5594,145.1094 1160.3719,144.9219 Q1160.0438,144.5469 1159.4344,144.3281 Q1158.825,144.1094 1158.2,144.1094 Q1157.4344,144.1094 1156.7938,144.4375 Q1156.1688,144.7656 1155.6688,145.5156 Q1155.1844,146.2656 1155.1844,147.2969 L1155.1844,148.3906 Q1155.1844,149.625 1156.075,150.4531 Q1156.9656,151.2656 1158.5594,151.2656 Q1159.4969,151.2656 1160.1531,151.0156 Q1160.5438,150.8594 1160.9656,150.4219 Q1161.2313,150.1563 1161.3719,150.0781 Q1161.5281,150 1161.7313,150 Q1162.0594,150 1162.3094,150.2656 Q1162.575,150.5156 1162.575,150.8594 Q1162.575,151.2031 1162.2313,151.6094 Q1161.7313,152.1875 1160.9344,152.5156 Q1159.8563,152.9688 1158.5594,152.9688 Q1157.0438,152.9688 1155.8406,152.3438 Q1154.8563,151.8438 1154.1688,150.7813 Q1153.4813,149.7031 1153.4813,148.4219 L1153.4813,147.2656 Q1153.4813,145.9375 1154.0906,144.7969 Q1154.7156,143.6406 1155.8094,143.0313 Q1156.9031,142.4063 1158.1375,142.4063 Q1158.8719,142.4063 1159.5125,142.5781 Q1160.1688,142.7344 1160.7156,143.0938 Z " fill="#000000"/><text fill="#000000" font-family="sans-serif" font-size="14" lengthAdjust="spacing" textLength="182.1025" x="1171.95" y="144.1426">Do not give dogs what is holy</text><text fill="#000000" font-family="sans-serif" font-size="14" lengthAdjust="spacing" textLength="167.3027" x="1179.3499" y="161.752">or cast pearls before swine</text><line style="stroke:#181818;stroke-width:0.5;" x1="1143.95" x2="1356.0525" y1="169.8281" y2="169.8281"/><line style="stroke:#181818;stroke-width:0.5;" x1="1143.95" x2="1356.0525" y1="177.8281" y2="177.8281"/></g><!--class Ask, Seek, Knock\n(7:7-8)--><g class="entity" data-entity="Ask. Seek. Knock.n.7.7-8." data-source-line="15" data-uid="ent0010" id="entity_Ask. Seek. Knock.n.7.7-8."><rect fill="#F1F1F1" height="61.2188" rx="2.5" ry="2.5" style="stroke:#181818;stroke-width:0.5;" width="141.7168" x="1413.14" y="124.6094"/><ellipse cx="1428.14" cy="147.2188" fill="#ADD1B2" rx="11" ry="11" style="stroke:#181818;stroke-width:1;"/><path d="M1430.9056,143.0938 Q1431.0619,142.875 1431.2494,142.7656 Q1431.4369,142.6563 1431.6556,142.6563 Q1432.0306,142.6563 1432.265,142.9219 Q1432.4994,143.1719 1432.4994,143.7813 L1432.4994,145.2344 Q1432.4994,145.8438 1432.265,146.1094 Q1432.0306,146.375 1431.6556,146.375 Q1431.3119,146.375 1431.1088,146.1719 Q1430.9056,145.9844 1430.7963,145.4688 Q1430.7494,145.1094 1430.5619,144.9219 Q1430.2338,144.5469 1429.6244,144.3281 Q1429.015,144.1094 1428.39,144.1094 Q1427.6244,144.1094 1426.9838,144.4375 Q1426.3588,144.7656 1425.8588,145.5156 Q1425.3744,146.2656 1425.3744,147.2969 L1425.3744,148.3906 Q1425.3744,149.625 1426.265,150.4531 Q1427.1556,151.2656 1428.7494,151.2656 Q1429.6869,151.2656 1430.3431,151.0156 Q1430.7338,150.8594 1431.1556,150.4219 Q1431.4213,150.1563 1431.5619,150.0781 Q1431.7181,150 1431.9213,150 Q1432.2494,150 1432.4994,150.2656 Q1432.765,150.5156 1432.765,150.8594 Q1432.765,151.2031 1432.4213,151.6094 Q1431.9213,152.1875 1431.1244,152.5156 Q1430.0463,152.9688 1428.7494,152.9688 Q1427.2338,152.9688 1426.0306,152.3438 Q1425.0463,151.8438 1424.3588,150.7813 Q1423.6713,149.7031 1423.6713,148.4219 L1423.6713,147.2656 Q1423.6713,145.9375 1424.2806,144.7969 Q1424.9056,143.6406 1425.9994,143.0313 Q1427.0931,142.4063 1428.3275,142.4063 Q1429.0619,142.4063 1429.7025,142.5781 Q1430.3588,142.7344 1430.9056,143.0938 Z " fill="#000000"/><text fill="#000000" font-family="sans-serif" font-size="14" lengthAdjust="spacing" textLength="109.7168" x="1442.14" y="144.1426">Ask, Seek, Knock</text><text fill="#000000" font-family="sans-serif" font-size="14" lengthAdjust="spacing" textLength="41.2344" x="1476.3812" y="161.752">(7:7-8)</text><line style="stroke:#181818;stroke-width:0.5;" x1="1414.14" x2="1553.8568" y1="169.8281" y2="169.8281"/><line style="stroke:#181818;stroke-width:0.5;" x1="1414.14" x2="1553.8568" y1="177.8281" y2="177.8281"/></g><!--class Father gives good gifts\n(7:9-11)--><g class="entity" data-entity="Father gives good gifts.n.7.9-11." data-source-line="16" data-uid="ent0011" id="entity_Father gives good gifts.n.7.9-11."><rect fill="#F1F1F1" height="61.2188" rx="2.5" ry="2.5" style="stroke:#181818;stroke-width:0.5;" width="173.6338" x="1590.18" y="124.6094"/><ellipse cx="1605.18" cy="147.2188" fill="#ADD1B2" rx="11" ry="11" style="stroke:#181818;stroke-width:1;"/><path d="M1607.9456,143.0938 Q1608.1019,142.875 1608.2894,142.7656 Q1608.4769,142.6563 1608.6956,142.6563 Q1609.0706,142.6563 1609.305,142.9219 Q1609.5394,143.1719 1609.5394,143.7813 L1609.5394,145.2344 Q1609.5394,145.8438 1609.305,146.1094 Q1609.0706,146.375 1608.6956,146.375 Q1608.3519,146.375 1608.1488,146.1719 Q1607.9456,145.9844 1607.8363,145.4688 Q1607.7894,145.1094 1607.6019,144.9219 Q1607.2738,144.5469 1606.6644,144.3281 Q1606.055,144.1094 1605.43,144.1094 Q1604.6644,144.1094 1604.0238,144.4375 Q1603.3988,144.7656 1602.8988,145.5156 Q1602.4144,146.2656 1602.4144,147.2969 L1602.4144,148.3906 Q1602.4144,149.625 1603.305,150.4531 Q1604.1956,151.2656 1605.7894,151.2656 Q1606.7269,151.2656 1607.3831,151.0156 Q1607.7738,150.8594 1608.1956,150.4219 Q1608.4613,150.1563 1608.6019,150.0781 Q1608.7581,150 1608.9613,150 Q1609.2894,150 1609.5394,150.2656 Q1609.805,150.5156 1609.805,150.8594 Q1609.805,151.2031 1609.4613,151.6094 Q1608.9613,152.1875 1608.1644,152.5156 Q1607.0863,152.9688 1605.7894,152.9688 Q1604.2738,152.9688 1603.0706,152.3438 Q1602.0863,151.8438 1601.3988,150.7813 Q1600.7113,149.7031 1600.7113,148.4219 L1600.7113,147.2656 Q1600.7113,145.9375 1601.3206,144.7969 Q1601.9456,143.6406 1603.0394,143.0313 Q1604.1331,142.4063 1605.3675,142.4063 Q1606.1019,142.4063 1606.7425,142.5781 Q1607.3988,142.7344 1607.9456,143.0938 Z " fill="#000000"/><text fill="#000000" font-family="sans-serif" font-size="14" lengthAdjust="spacing" textLength="141.6338" x="1619.18" y="144.1426">Father gives good gifts</text><text fill="#000000" font-family="sans-serif" font-size="14" lengthAdjust="spacing" textLength="49.0205" x="1665.4866" y="161.752">(7:9-11)</text><line style="stroke:#181818;stroke-width:0.5;" x1="1591.18" x2="1762.8138" y1="169.8281" y2="169.8281"/><line style="stroke:#181818;stroke-width:0.5;" x1="1591.18" x2="1762.8138" y1="177.8281" y2="177.8281"/></g><!--class Do to others as you wish done to you\nLaw & Prophets summary--><g class="entity" data-entity="Do to others as you wish done to you.nLaw . Prophets summary" data-source-line="20" data-uid="ent0013" id="entity_Do to others as you wish done to you.nLaw . Prophets summary"><rect fill="#F1F1F1" height="61.2188" rx="2.5" ry="2.5" style="stroke:#181818;stroke-width:0.5;" width="262.3574" x="1819.82" y="124.6094"/><ellipse cx="1834.82" cy="147.2188" fill="#ADD1B2" rx="11" ry="11" style="stroke:#181818;stroke-width:1;"/><path d="M1837.5856,143.0938 Q1837.7419,142.875 1837.9294,142.7656 Q1838.1169,142.6563 1838.3356,142.6563 Q1838.7106,142.6563 1838.945,142.9219 Q1839.1794,143.1719 1839.1794,143.7813 L1839.1794,145.2344 Q1839.1794,145.8438 1838.945,146.1094 Q1838.7106,146.375 1838.3356,146.375 Q1837.9919,146.375 1837.7888,146.1719 Q1837.5856,145.9844 1837.4763,145.4688 Q1837.4294,145.1094 1837.2419,144.9219 Q1836.9138,144.5469 1836.3044,144.3281 Q1835.695,144.1094 1835.07,144.1094 Q1834.3044,144.1094 1833.6638,144.4375 Q1833.0388,144.7656 1832.5388,145.5156 Q1832.0544,146.2656 1832.0544,147.2969 L1832.0544,148.3906 Q1832.0544,149.625 1832.945,150.4531 Q1833.8356,151.2656 1835.4294,151.2656 Q1836.3669,151.2656 1837.0231,151.0156 Q1837.4138,150.8594 1837.8356,150.4219 Q1838.1013,150.1563 1838.2419,150.0781 Q1838.3981,150 1838.6013,150 Q1838.9294,150 1839.1794,150.2656 Q1839.445,150.5156 1839.445,150.8594 Q1839.445,151.2031 1839.1013,151.6094 Q1838.6013,152.1875 1837.8044,152.5156 Q1836.7263,152.9688 1835.4294,152.9688 Q1833.9138,152.9688 1832.7106,152.3438 Q1831.7263,151.8438 1831.0388,150.7813 Q1830.3513,149.7031 1830.3513,148.4219 L1830.3513,147.2656 Q1830.3513,145.9375 1830.9606,144.7969 Q1831.5856,143.6406 1832.6794,143.0313 Q1833.7731,142.4063 1835.0075,142.4063 Q1835.7419,142.4063 1836.3825,142.5781 Q1837.0388,142.7344 1837.5856,143.0938 Z " fill="#000000"/><text fill="#000000" font-family="sans-serif" font-size="14" lengthAdjust="spacing" textLength="230.3574" x="1848.82" y="144.1426">Do to others as you wish done to you</text><text fill="#000000" font-family="sans-serif" font-size="14" lengthAdjust="spacing" textLength="160.2822" x="1883.8576" y="161.752">Law &amp; Prophets summary</text><line style="stroke:#181818;stroke-width:0.5;" x1="1820.82" x2="2081.1774" y1="169.8281" y2="169.8281"/><line style="stroke:#181818;stroke-width:0.5;" x1="1820.82" x2="2081.1774" y1="177.8281" y2="177.8281"/></g><!--class Wide gate ? destruction\nMany enter--><g class="entity" data-entity="Wide gate . destruction.nMany enter" data-source-line="24" data-uid="ent0015" id="entity_Wide gate . destruction.nMany enter"><rect fill="#F1F1F1" height="61.2188" rx="2.5" ry="2.5" style="stroke:#181818;stroke-width:0.5;" width="183.375" x="2138.31" y="124.6094"/><ellipse cx="2153.31" cy="147.2188" fill="#ADD1B2" rx="11" ry="11" style="stroke:#181818;stroke-width:1;"/><path d="M2156.0756,143.0938 Q2156.2319,142.875 2156.4194,142.7656 Q2156.6069,142.6563 2156.8256,142.6563 Q2157.2006,142.6563 2157.435,142.9219 Q2157.6694,143.1719 2157.6694,143.7813 L2157.6694,145.2344 Q2157.6694,145.8438 2157.435,146.1094 Q2157.2006,146.375 2156.8256,146.375 Q2156.4819,146.375 2156.2788,146.1719 Q2156.0756,145.9844 2155.9663,145.4688 Q2155.9194,145.1094 2155.7319,144.9219 Q2155.4038,144.5469 2154.7944,144.3281 Q2154.185,144.1094 2153.56,144.1094 Q2152.7944,144.1094 2152.1538,144.4375 Q2151.5288,144.7656 2151.0288,145.5156 Q2150.5444,146.2656 2150.5444,147.2969 L2150.5444,148.3906 Q2150.5444,149.625 2151.435,150.4531 Q2152.3256,151.2656 2153.9194,151.2656 Q2154.8569,151.2656 2155.5131,151.0156 Q2155.9038,150.8594 2156.3256,150.4219 Q2156.5913,150.1563 2156.7319,150.0781 Q2156.8881,150 2157.0913,150 Q2157.4194,150 2157.6694,150.2656 Q2157.935,150.5156 2157.935,150.8594 Q2157.935,151.2031 2157.5913,151.6094 Q2157.0913,152.1875 2156.2944,152.5156 Q2155.2163,152.9688 2153.9194,152.9688 Q2152.4038,152.9688 2151.2006,152.3438 Q2150.2163,151.8438 2149.5288,150.7813 Q2148.8413,149.7031 2148.8413,148.4219 L2148.8413,147.2656 Q2148.8413,145.9375 2149.4506,144.7969 Q2150.0756,143.6406 2151.1694,143.0313 Q2152.2631,142.4063 2153.4975,142.4063 Q2154.2319,142.4063 2154.8725,142.5781 Q2155.5288,142.7344 2156.0756,143.0938 Z " fill="#000000"/><text fill="#000000" font-family="sans-serif" font-size="14" lengthAdjust="spacing" textLength="151.375" x="2167.31" y="144.1426">Wide gate &#8594; destruction</text><text fill="#000000" font-family="sans-serif" font-size="14" lengthAdjust="spacing" textLength="70.0342" x="2207.9804" y="161.752">Many enter</text><line style="stroke:#181818;stroke-width:0.5;" x1="2139.31" x2="2320.685" y1="169.8281" y2="169.8281"/><line style="stroke:#181818;stroke-width:0.5;" x1="2139.31" x2="2320.685" y1="177.8281" y2="177.8281"/></g><!--class Narrow gate ? life\nFew find it--><g class="entity" data-entity="Narrow gate . life.nFew find it" data-source-line="25" data-uid="ent0016" id="entity_Narrow gate . life.nFew find it"><rect fill="#F1F1F1" height="61.2188" rx="2.5" ry="2.5" style="stroke:#181818;stroke-width:0.5;" width="146.0098" x="2357" y="124.6094"/><ellipse cx="2372" cy="147.2188" fill="#ADD1B2" rx="11" ry="11" style="stroke:#181818;stroke-width:1;"/><path d="M2374.7656,143.0938 Q2374.9219,142.875 2375.1094,142.7656 Q2375.2969,142.6563 2375.5156,142.6563 Q2375.8906,142.6563 2376.125,142.9219 Q2376.3594,143.1719 2376.3594,143.7813 L2376.3594,145.2344 Q2376.3594,145.8438 2376.125,146.1094 Q2375.8906,146.375 2375.5156,146.375 Q2375.1719,146.375 2374.9688,146.1719 Q2374.7656,145.9844 2374.6563,145.4688 Q2374.6094,145.1094 2374.4219,144.9219 Q2374.0938,144.5469 2373.4844,144.3281 Q2372.875,144.1094 2372.25,144.1094 Q2371.4844,144.1094 2370.8438,144.4375 Q2370.2188,144.7656 2369.7188,145.5156 Q2369.2344,146.2656 2369.2344,147.2969 L2369.2344,148.3906 Q2369.2344,149.625 2370.125,150.4531 Q2371.0156,151.2656 2372.6094,151.2656 Q2373.5469,151.2656 2374.2031,151.0156 Q2374.5938,150.8594 2375.0156,150.4219 Q2375.2813,150.1563 2375.4219,150.0781 Q2375.5781,150 2375.7813,150 Q2376.1094,150 2376.3594,150.2656 Q2376.625,150.5156 2376.625,150.8594 Q2376.625,151.2031 2376.2813,151.6094 Q2375.7813,152.1875 2374.9844,152.5156 Q2373.9063,152.9688 2372.6094,152.9688 Q2371.0938,152.9688 2369.8906,152.3438 Q2368.9063,151.8438 2368.2188,150.7813 Q2367.5313,149.7031 2367.5313,148.4219 L2367.5313,147.2656 Q2367.5313,145.9375 2368.1406,144.7969 Q2368.7656,143.6406 2369.8594,143.0313 Q2370.9531,142.4063 2372.1875,142.4063 Q2372.9219,142.4063 2373.5625,142.5781 Q2374.2188,142.7344 2374.7656,143.0938 Z " fill="#000000"/><text fill="#000000" font-family="sans-serif" font-size="14" lengthAdjust="spacing" textLength="114.0098" x="2386" y="144.1426">Narrow gate &#8594; life</text><text fill="#000000" font-family="sans-serif" font-size="14" lengthAdjust="spacing" textLength="63.7998" x="2411.105" y="161.752">Few find it</text><line style="stroke:#181818;stroke-width:0.5;" x1="2358" x2="2502.0098" y1="169.8281" y2="169.8281"/><line style="stroke:#181818;stroke-width:0.5;" x1="2358" x2="2502.0098" y1="177.8281" y2="177.8281"/></g><!--class Beware false prophets\nSheep outside, wolves inside--><g class="entity" data-entity="Beware false prophets.nSheep outside. wolves inside" data-source-line="29" data-uid="ent0018" id="entity_Beware false prophets.nSheep outside. wolves inside"><rect fill="#F1F1F1" height="61.2188" rx="2.5" ry="2.5" style="stroke:#181818;stroke-width:0.5;" width="212.5576" x="2558.72" y="124.6094"/><ellipse cx="2573.72" cy="147.2188" fill="#ADD1B2" rx="11" ry="11" style="stroke:#181818;stroke-width:1;"/><path d="M2576.4856,143.0938 Q2576.6419,142.875 2576.8294,142.7656 Q2577.0169,142.6563 2577.2356,142.6563 Q2577.6106,142.6563 2577.845,142.9219 Q2578.0794,143.1719 2578.0794,143.7813 L2578.0794,145.2344 Q2578.0794,145.8438 2577.845,146.1094 Q2577.6106,146.375 2577.2356,146.375 Q2576.8919,146.375 2576.6888,146.1719 Q2576.4856,145.9844 2576.3763,145.4688 Q2576.3294,145.1094 2576.1419,144.9219 Q2575.8138,144.5469 2575.2044,144.3281 Q2574.595,144.1094 2573.97,144.1094 Q2573.2044,144.1094 2572.5638,144.4375 Q2571.9388,144.7656 2571.4388,145.5156 Q2570.9544,146.2656 2570.9544,147.2969 L2570.9544,148.3906 Q2570.9544,149.625 2571.845,150.4531 Q2572.7356,151.2656 2574.3294,151.2656 Q2575.2669,151.2656 2575.9231,151.0156 Q2576.3138,150.8594 2576.7356,150.4219 Q2577.0013,150.1563 2577.1419,150.0781 Q2577.2981,150 2577.5013,150 Q2577.8294,150 2578.0794,150.2656 Q2578.345,150.5156 2578.345,150.8594 Q2578.345,151.2031 2578.0013,151.6094 Q2577.5013,152.1875 2576.7044,152.5156 Q2575.6263,152.9688 2574.3294,152.9688 Q2572.8138,152.9688 2571.6106,152.3438 Q2570.6263,151.8438 2569.9388,150.7813 Q2569.2513,149.7031 2569.2513,148.4219 L2569.2513,147.2656 Q2569.2513,145.9375 2569.8606,144.7969 Q2570.4856,143.6406 2571.5794,143.0313 Q2572.6731,142.4063 2573.9075,142.4063 Q2574.6419,142.4063 2575.2825,142.5781 Q2575.9388,142.7344 2576.4856,143.0938 Z " fill="#000000"/><text fill="#000000" font-family="sans-serif" font-size="14" lengthAdjust="spacing" textLength="139.3027" x="2608.3474" y="144.1426">Beware false prophets</text><text fill="#000000" font-family="sans-serif" font-size="14" lengthAdjust="spacing" textLength="180.5576" x="2587.72" y="161.752">Sheep outside, wolves inside</text><line style="stroke:#181818;stroke-width:0.5;" x1="2559.72" x2="2770.2776" y1="169.8281" y2="169.8281"/><line style="stroke:#181818;stroke-width:0.5;" x1="2559.72" x2="2770.2776" y1="177.8281" y2="177.8281"/></g><!--class Good tree ? good fruit\nBad tree ? bad fruit--><g class="entity" data-entity="Good tree . good fruit.nBad tree . bad fruit" data-source-line="30" data-uid="ent0019" id="entity_Good tree . good fruit.nBad tree . bad fruit"><rect fill="#F1F1F1" height="61.2188" rx="2.5" ry="2.5" style="stroke:#181818;stroke-width:0.5;" width="172.4922" x="2806.75" y="124.6094"/><ellipse cx="2821.75" cy="147.2188" fill="#ADD1B2" rx="11" ry="11" style="stroke:#181818;stroke-width:1;"/><path d="M2824.5156,143.0938 Q2824.6719,142.875 2824.8594,142.7656 Q2825.0469,142.6563 2825.2656,142.6563 Q2825.6406,142.6563 2825.875,142.9219 Q2826.1094,143.1719 2826.1094,143.7813 L2826.1094,145.2344 Q2826.1094,145.8438 2825.875,146.1094 Q2825.6406,146.375 2825.2656,146.375 Q2824.9219,146.375 2824.7188,146.1719 Q2824.5156,145.9844 2824.4063,145.4688 Q2824.3594,145.1094 2824.1719,144.9219 Q2823.8438,144.5469 2823.2344,144.3281 Q2822.625,144.1094 2822,144.1094 Q2821.2344,144.1094 2820.5938,144.4375 Q2819.9688,144.7656 2819.4688,145.5156 Q2818.9844,146.2656 2818.9844,147.2969 L2818.9844,148.3906 Q2818.9844,149.625 2819.875,150.4531 Q2820.7656,151.2656 2822.3594,151.2656 Q2823.2969,151.2656 2823.9531,151.0156 Q2824.3438,150.8594 2824.7656,150.4219 Q2825.0313,150.1563 2825.1719,150.0781 Q2825.3281,150 2825.5313,150 Q2825.8594,150 2826.1094,150.2656 Q2826.375,150.5156 2826.375,150.8594 Q2826.375,151.2031 2826.0313,151.6094 Q2825.5313,152.1875 2824.7344,152.5156 Q2823.6563,152.9688 2822.3594,152.9688 Q2820.8438,152.9688 2819.6406,152.3438 Q2818.6563,151.8438 2817.9688,150.7813 Q2817.2813,149.7031 2817.2813,148.4219 L2817.2813,147.2656 Q2817.2813,145.9375 2817.8906,144.7969 Q2818.5156,143.6406 2819.6094,143.0313 Q2820.7031,142.4063 2821.9375,142.4063 Q2822.6719,142.4063 2823.3125,142.5781 Q2823.9688,142.7344 2824.5156,143.0938 Z " fill="#000000"/><text fill="#000000" font-family="sans-serif" font-size="14" lengthAdjust="spacing" textLength="140.4922" x="2835.75" y="144.1426">Good tree &#8594; good fruit</text><text fill="#000000" font-family="sans-serif" font-size="14" lengthAdjust="spacing" textLength="123.3682" x="2844.312" y="161.752">Bad tree &#8594; bad fruit</text><line style="stroke:#181818;stroke-width:0.5;" x1="2807.75" x2="2978.2422" y1="169.8281" y2="169.8281"/><line style="stroke:#181818;stroke-width:0.5;" x1="2807.75" x2="2978.2422" y1="177.8281" y2="177.8281"/></g><!--class Not everyone 'Lord, Lord' enters--><g class="entity" data-entity="Not everyone .Lord. Lord. enters" data-source-line="34" data-uid="ent0021" id="entity_Not everyone .Lord. Lord. enters"><rect fill="#F1F1F1" height="48" rx="2.5" ry="2.5" style="stroke:#181818;stroke-width:0.5;" width="231.124" x="22.44" y="131.2194"/><ellipse cx="37.44" cy="147.2194" fill="#ADD1B2" rx="11" ry="11" style="stroke:#181818;stroke-width:1;"/><path d="M40.2056,143.0944 Q40.3619,142.8756 40.5494,142.7662 Q40.7369,142.6569 40.9556,142.6569 Q41.3306,142.6569 41.565,142.9225 Q41.7994,143.1725 41.7994,143.7819 L41.7994,145.235 Q41.7994,145.8444 41.565,146.11 Q41.3306,146.3756 40.9556,146.3756 Q40.6119,146.3756 40.4088,146.1725 Q40.2056,145.985 40.0963,145.4694 Q40.0494,145.11 39.8619,144.9225 Q39.5338,144.5475 38.9244,144.3287 Q38.315,144.11 37.69,144.11 Q36.9244,144.11 36.2838,144.4381 Q35.6588,144.7662 35.1588,145.5162 Q34.6744,146.2662 34.6744,147.2975 L34.6744,148.3912 Q34.6744,149.6256 35.565,150.4537 Q36.4556,151.2662 38.0494,151.2662 Q38.9869,151.2662 39.6431,151.0162 Q40.0338,150.86 40.4556,150.4225 Q40.7213,150.1569 40.8619,150.0787 Q41.0181,150.0006 41.2213,150.0006 Q41.5494,150.0006 41.7994,150.2662 Q42.065,150.5162 42.065,150.86 Q42.065,151.2037 41.7213,151.61 Q41.2213,152.1881 40.4244,152.5162 Q39.3463,152.9694 38.0494,152.9694 Q36.5338,152.9694 35.3306,152.3444 Q34.3463,151.8444 33.6588,150.7819 Q32.9713,149.7037 32.9713,148.4225 L32.9713,147.2662 Q32.9713,145.9381 33.5806,144.7975 Q34.2056,143.6412 35.2994,143.0319 Q36.3931,142.4069 37.6275,142.4069 Q38.3619,142.4069 39.0025,142.5787 Q39.6588,142.735 40.2056,143.0944 Z " fill="#000000"/><text fill="#000000" font-family="sans-serif" font-size="14" lengthAdjust="spacing" textLength="199.124" x="51.44" y="152.9479">Not everyone 'Lord, Lord' enters</text><line style="stroke:#181818;stroke-width:0.5;" x1="23.44" x2="252.564" y1="163.2194" y2="163.2194"/><line style="stroke:#181818;stroke-width:0.5;" x1="23.44" x2="252.564" y1="171.2194" y2="171.2194"/></g><!--class Do the Father's will--><g class="entity" data-entity="Do the Father.s will" data-source-line="35" data-uid="ent0022" id="entity_Do the Father.s will"><rect fill="#F1F1F1" height="48" rx="2.5" ry="2.5" style="stroke:#181818;stroke-width:0.5;" width="150.6035" x="288.7" y="131.2194"/><ellipse cx="303.7" cy="147.2194" fill="#ADD1B2" rx="11" ry="11" style="stroke:#181818;stroke-width:1;"/><path d="M306.4656,143.0944 Q306.6219,142.8756 306.8094,142.7662 Q306.9969,142.6569 307.2156,142.6569 Q307.5906,142.6569 307.825,142.9225 Q308.0594,143.1725 308.0594,143.7819 L308.0594,145.235 Q308.0594,145.8444 307.825,146.11 Q307.5906,146.3756 307.2156,146.3756 Q306.8719,146.3756 306.6688,146.1725 Q306.4656,145.985 306.3563,145.4694 Q306.3094,145.11 306.1219,144.9225 Q305.7938,144.5475 305.1844,144.3287 Q304.575,144.11 303.95,144.11 Q303.1844,144.11 302.5438,144.4381 Q301.9188,144.7662 301.4188,145.5162 Q300.9344,146.2662 300.9344,147.2975 L300.9344,148.3912 Q300.9344,149.6256 301.825,150.4537 Q302.7156,151.2662 304.3094,151.2662 Q305.2469,151.2662 305.9031,151.0162 Q306.2938,150.86 306.7156,150.4225 Q306.9813,150.1569 307.1219,150.0787 Q307.2781,150.0006 307.4813,150.0006 Q307.8094,150.0006 308.0594,150.2662 Q308.325,150.5162 308.325,150.86 Q308.325,151.2037 307.9813,151.61 Q307.4813,152.1881 306.6844,152.5162 Q305.6063,152.9694 304.3094,152.9694 Q302.7938,152.9694 301.5906,152.3444 Q300.6063,151.8444 299.9188,150.7819 Q299.2313,149.7037 299.2313,148.4225 L299.2313,147.2662 Q299.2313,145.9381 299.8406,144.7975 Q300.4656,143.6412 301.5594,143.0319 Q302.6531,142.4069 303.8875,142.4069 Q304.6219,142.4069 305.2625,142.5787 Q305.9188,142.735 306.4656,143.0944 Z " fill="#000000"/><text fill="#000000" font-family="sans-serif" font-size="14" lengthAdjust="spacing" textLength="118.6035" x="317.7" y="152.9479">Do the Father's will</text><line style="stroke:#181818;stroke-width:0.5;" x1="289.7" x2="438.3035" y1="163.2194" y2="163.2194"/><line style="stroke:#181818;stroke-width:0.5;" x1="289.7" x2="438.3035" y1="171.2194" y2="171.2194"/></g><!--class I never knew you\nDepart, evildoers--><g class="entity" data-entity="I never knew you.nDepart. evildoers" data-source-line="36" data-uid="ent0023" id="entity_I never knew you.nDepart. evildoers"><rect fill="#F1F1F1" height="61.2188" rx="2.5" ry="2.5" style="stroke:#181818;stroke-width:0.5;" width="137.834" x="69.08" y="245.8294"/><ellipse cx="84.08" cy="268.4388" fill="#ADD1B2" rx="11" ry="11" style="stroke:#181818;stroke-width:1;"/><path d="M86.8456,264.3138 Q87.0019,264.095 87.1894,263.9856 Q87.3769,263.8763 87.5956,263.8763 Q87.9706,263.8763 88.205,264.1419 Q88.4394,264.3919 88.4394,265.0013 L88.4394,266.4544 Q88.4394,267.0638 88.205,267.3294 Q87.9706,267.595 87.5956,267.595 Q87.2519,267.595 87.0488,267.3919 Q86.8456,267.2044 86.7363,266.6888 Q86.6894,266.3294 86.5019,266.1419 Q86.1738,265.7669 85.5644,265.5481 Q84.955,265.3294 84.33,265.3294 Q83.5644,265.3294 82.9238,265.6575 Q82.2988,265.9856 81.7988,266.7356 Q81.3144,267.4856 81.3144,268.5169 L81.3144,269.6106 Q81.3144,270.845 82.205,271.6731 Q83.0956,272.4856 84.6894,272.4856 Q85.6269,272.4856 86.2831,272.2356 Q86.6738,272.0794 87.0956,271.6419 Q87.3613,271.3763 87.5019,271.2981 Q87.6581,271.22 87.8613,271.22 Q88.1894,271.22 88.4394,271.4856 Q88.705,271.7356 88.705,272.0794 Q88.705,272.4231 88.3613,272.8294 Q87.8613,273.4075 87.0644,273.7356 Q85.9863,274.1888 84.6894,274.1888 Q83.1738,274.1888 81.9706,273.5638 Q80.9863,273.0638 80.2988,272.0013 Q79.6113,270.9231 79.6113,269.6419 L79.6113,268.4856 Q79.6113,267.1575 80.2206,266.0169 Q80.8456,264.8606 81.9394,264.2513 Q83.0331,263.6263 84.2675,263.6263 Q85.0019,263.6263 85.6425,263.7981 Q86.2988,263.9544 86.8456,264.3138 Z " fill="#000000"/><text fill="#000000" font-family="sans-serif" font-size="14" lengthAdjust="spacing" textLength="105.834" x="98.08" y="265.3626">I never knew you</text><text fill="#000000" font-family="sans-serif" font-size="14" lengthAdjust="spacing" textLength="105.8271" x="98.0834" y="282.972">Depart, evildoers</text><line style="stroke:#181818;stroke-width:0.5;" x1="70.08" x2="205.914" y1="291.0481" y2="291.0481"/><line style="stroke:#181818;stroke-width:0.5;" x1="70.08" x2="205.914" y1="299.0481" y2="299.0481"/></g><!--class Wise: House on rock\nHears & does word--><g class="entity" data-entity="Wise. House on rock.nHears . does word" data-source-line="40" data-uid="ent0025" id="entity_Wise. House on rock.nHears . does word"><rect fill="#F1F1F1" height="61.2188" rx="2.5" ry="2.5" style="stroke:#181818;stroke-width:0.5;" width="161.1582" x="3035.42" y="124.6094"/><ellipse cx="3050.42" cy="147.2188" fill="#ADD1B2" rx="11" ry="11" style="stroke:#181818;stroke-width:1;"/><path d="M3053.1856,143.0938 Q3053.3419,142.875 3053.5294,142.7656 Q3053.7169,142.6563 3053.9356,142.6563 Q3054.3106,142.6563 3054.545,142.9219 Q3054.7794,143.1719 3054.7794,143.7813 L3054.7794,145.2344 Q3054.7794,145.8438 3054.545,146.1094 Q3054.3106,146.375 3053.9356,146.375 Q3053.5919,146.375 3053.3888,146.1719 Q3053.1856,145.9844 3053.0763,145.4688 Q3053.0294,145.1094 3052.8419,144.9219 Q3052.5138,144.5469 3051.9044,144.3281 Q3051.295,144.1094 3050.67,144.1094 Q3049.9044,144.1094 3049.2638,144.4375 Q3048.6388,144.7656 3048.1388,145.5156 Q3047.6544,146.2656 3047.6544,147.2969 L3047.6544,148.3906 Q3047.6544,149.625 3048.545,150.4531 Q3049.4356,151.2656 3051.0294,151.2656 Q3051.9669,151.2656 3052.6231,151.0156 Q3053.0138,150.8594 3053.4356,150.4219 Q3053.7013,150.1563 3053.8419,150.0781 Q3053.9981,150 3054.2013,150 Q3054.5294,150 3054.7794,150.2656 Q3055.045,150.5156 3055.045,150.8594 Q3055.045,151.2031 3054.7013,151.6094 Q3054.2013,152.1875 3053.4044,152.5156 Q3052.3263,152.9688 3051.0294,152.9688 Q3049.5138,152.9688 3048.3106,152.3438 Q3047.3263,151.8438 3046.6388,150.7813 Q3045.9513,149.7031 3045.9513,148.4219 L3045.9513,147.2656 Q3045.9513,145.9375 3046.5606,144.7969 Q3047.1856,143.6406 3048.2794,143.0313 Q3049.3731,142.4063 3050.6075,142.4063 Q3051.3419,142.4063 3051.9825,142.5781 Q3052.6388,142.7344 3053.1856,143.0938 Z " fill="#000000"/><text fill="#000000" font-family="sans-serif" font-size="14" lengthAdjust="spacing" textLength="129.1582" x="3064.42" y="144.1426">Wise: House on rock</text><text fill="#000000" font-family="sans-serif" font-size="14" lengthAdjust="spacing" textLength="119.0547" x="3069.4718" y="161.752">Hears &amp; does word</text><line style="stroke:#181818;stroke-width:0.5;" x1="3036.42" x2="3195.5782" y1="169.8281" y2="169.8281"/><line style="stroke:#181818;stroke-width:0.5;" x1="3036.42" x2="3195.5782" y1="177.8281" y2="177.8281"/></g><!--class Foolish: House on sand\nHears & ignores word--><g class="entity" data-entity="Foolish. House on sand.nHears . ignores word" data-source-line="41" data-uid="ent0026" id="entity_Foolish. House on sand.nHears . ignores word"><rect fill="#F1F1F1" height="61.2188" rx="2.5" ry="2.5" style="stroke:#181818;stroke-width:0.5;" width="179.0889" x="3231.46" y="124.6094"/><ellipse cx="3246.46" cy="147.2188" fill="#ADD1B2" rx="11" ry="11" style="stroke:#181818;stroke-width:1;"/><path d="M3249.2256,143.0938 Q3249.3819,142.875 3249.5694,142.7656 Q3249.7569,142.6563 3249.9756,142.6563 Q3250.3506,142.6563 3250.585,142.9219 Q3250.8194,143.1719 3250.8194,143.7813 L3250.8194,145.2344 Q3250.8194,145.8438 3250.585,146.1094 Q3250.3506,146.375 3249.9756,146.375 Q3249.6319,146.375 3249.4288,146.1719 Q3249.2256,145.9844 3249.1163,145.4688 Q3249.0694,145.1094 3248.8819,144.9219 Q3248.5538,144.5469 3247.9444,144.3281 Q3247.335,144.1094 3246.71,144.1094 Q3245.9444,144.1094 3245.3038,144.4375 Q3244.6788,144.7656 3244.1788,145.5156 Q3243.6944,146.2656 3243.6944,147.2969 L3243.6944,148.3906 Q3243.6944,149.625 3244.585,150.4531 Q3245.4756,151.2656 3247.0694,151.2656 Q3248.0069,151.2656 3248.6631,151.0156 Q3249.0538,150.8594 3249.4756,150.4219 Q3249.7413,150.1563 3249.8819,150.0781 Q3250.0381,150 3250.2413,150 Q3250.5694,150 3250.8194,150.2656 Q3251.085,150.5156 3251.085,150.8594 Q3251.085,151.2031 3250.7413,151.6094 Q3250.2413,152.1875 3249.4444,152.5156 Q3248.3663,152.9688 3247.0694,152.9688 Q3245.5538,152.9688 3244.3506,152.3438 Q3243.3663,151.8438 3242.6788,150.7813 Q3241.9913,149.7031 3241.9913,148.4219 L3241.9913,147.2656 Q3241.9913,145.9375 3242.6006,144.7969 Q3243.2256,143.6406 3244.3194,143.0313 Q3245.4131,142.4063 3246.6475,142.4063 Q3247.3819,142.4063 3248.0225,142.5781 Q3248.6788,142.7344 3249.2256,143.0938 Z " fill="#000000"/><text fill="#000000" font-family="sans-serif" font-size="14" lengthAdjust="spacing" textLength="147.0889" x="3260.46" y="144.1426">Foolish: House on sand</text><text fill="#000000" font-family="sans-serif" font-size="14" lengthAdjust="spacing" textLength="134.6133" x="3266.6978" y="161.752">Hears &amp; ignores word</text><line style="stroke:#181818;stroke-width:0.5;" x1="3232.46" x2="3409.5489" y1="169.8281" y2="169.8281"/><line style="stroke:#181818;stroke-width:0.5;" x1="3232.46" x2="3409.5489" y1="177.8281" y2="177.8281"/></g><!--class Crowds astonished--><g class="entity" data-entity="Crowds astonished" data-source-line="45" data-uid="ent0028" id="entity_Crowds astonished"><rect fill="#F1F1F1" height="48" rx="2.5" ry="2.5" style="stroke:#181818;stroke-width:0.5;" width="151.0615" x="3467.47" y="131.2194"/><ellipse cx="3482.47" cy="147.2194" fill="#ADD1B2" rx="11" ry="11" style="stroke:#181818;stroke-width:1;"/><path d="M3485.2356,143.0944 Q3485.3919,142.8756 3485.5794,142.7662 Q3485.7669,142.6569 3485.9856,142.6569 Q3486.3606,142.6569 3486.595,142.9225 Q3486.8294,143.1725 3486.8294,143.7819 L3486.8294,145.235 Q3486.8294,145.8444 3486.595,146.11 Q3486.3606,146.3756 3485.9856,146.3756 Q3485.6419,146.3756 3485.4388,146.1725 Q3485.2356,145.985 3485.1263,145.4694 Q3485.0794,145.11 3484.8919,144.9225 Q3484.5638,144.5475 3483.9544,144.3287 Q3483.345,144.11 3482.72,144.11 Q3481.9544,144.11 3481.3138,144.4381 Q3480.6888,144.7662 3480.1888,145.5162 Q3479.7044,146.2662 3479.7044,147.2975 L3479.7044,148.3912 Q3479.7044,149.6256 3480.595,150.4537 Q3481.4856,151.2662 3483.0794,151.2662 Q3484.0169,151.2662 3484.6731,151.0162 Q3485.0638,150.86 3485.4856,150.4225 Q3485.7513,150.1569 3485.8919,150.0787 Q3486.0481,150.0006 3486.2513,150.0006 Q3486.5794,150.0006 3486.8294,150.2662 Q3487.095,150.5162 3487.095,150.86 Q3487.095,151.2037 3486.7513,151.61 Q3486.2513,152.1881 3485.4544,152.5162 Q3484.3763,152.9694 3483.0794,152.9694 Q3481.5638,152.9694 3480.3606,152.3444 Q3479.3763,151.8444 3478.6888,150.7819 Q3478.0013,149.7037 3478.0013,148.4225 L3478.0013,147.2662 Q3478.0013,145.9381 3478.6106,144.7975 Q3479.2356,143.6412 3480.3294,143.0319 Q3481.4231,142.4069 3482.6575,142.4069 Q3483.3919,142.4069 3484.0325,142.5787 Q3484.6888,142.735 3485.2356,143.0944 Z " fill="#000000"/><text fill="#000000" font-family="sans-serif" font-size="14" lengthAdjust="spacing" textLength="119.0615" x="3496.47" y="152.9479">Crowds astonished</text><line style="stroke:#181818;stroke-width:0.5;" x1="3468.47" x2="3617.5315" y1="163.2194" y2="163.2194"/><line style="stroke:#181818;stroke-width:0.5;" x1="3468.47" x2="3617.5315" y1="171.2194" y2="171.2194"/></g><!--class He taught with authority,\nnot as scribes--><g class="entity" data-entity="He taught with authority..nnot as scribes" data-source-line="46" data-uid="ent0029" id="entity_He taught with authority..nnot as scribes"><rect fill="#F1F1F1" height="61.2188" rx="2.5" ry="2.5" style="stroke:#181818;stroke-width:0.5;" width="182.9717" x="3653.51" y="124.6094"/><ellipse cx="3668.51" cy="147.2188" fill="#ADD1B2" rx="11" ry="11" style="stroke:#181818;stroke-width:1;"/><path d="M3671.2756,143.0938 Q3671.4319,142.875 3671.6194,142.7656 Q3671.8069,142.6563 3672.0256,142.6563 Q3672.4006,142.6563 3672.635,142.9219 Q3672.8694,143.1719 3672.8694,143.7813 L3672.8694,145.2344 Q3672.8694,145.8438 3672.635,146.1094 Q3672.4006,146.375 3672.0256,146.375 Q3671.6819,146.375 3671.4788,146.1719 Q3671.2756,145.9844 3671.1663,145.4688 Q3671.1194,145.1094 3670.9319,144.9219 Q3670.6038,144.5469 3669.9944,144.3281 Q3669.385,144.1094 3668.76,144.1094 Q3667.9944,144.1094 3667.3538,144.4375 Q3666.7288,144.7656 3666.2288,145.5156 Q3665.7444,146.2656 3665.7444,147.2969 L3665.7444,148.3906 Q3665.7444,149.625 3666.635,150.4531 Q3667.5256,151.2656 3669.1194,151.2656 Q3670.0569,151.2656 3670.7131,151.0156 Q3671.1038,150.8594 3671.5256,150.4219 Q3671.7913,150.1563 3671.9319,150.0781 Q3672.0881,150 3672.2913,150 Q3672.6194,150 3672.8694,150.2656 Q3673.135,150.5156 3673.135,150.8594 Q3673.135,151.2031 3672.7913,151.6094 Q3672.2913,152.1875 3671.4944,152.5156 Q3670.4163,152.9688 3669.1194,152.9688 Q3667.6038,152.9688 3666.4006,152.3438 Q3665.4163,151.8438 3664.7288,150.7813 Q3664.0413,149.7031 3664.0413,148.4219 L3664.0413,147.2656 Q3664.0413,145.9375 3664.6506,144.7969 Q3665.2756,143.6406 3666.3694,143.0313 Q3667.4631,142.4063 3668.6975,142.4063 Q3669.4319,142.4063 3670.0725,142.5781 Q3670.7288,142.7344 3671.2756,143.0938 Z " fill="#000000"/><text fill="#000000" font-family="sans-serif" font-size="14" lengthAdjust="spacing" textLength="150.9717" x="3682.51" y="144.1426">He taught with authority,</text><text fill="#000000" font-family="sans-serif" font-size="14" lengthAdjust="spacing" textLength="86.3721" x="3714.8098" y="161.752">not as scribes</text><line style="stroke:#181818;stroke-width:0.5;" x1="3654.51" x2="3835.4817" y1="169.8281" y2="169.8281"/><line style="stroke:#181818;stroke-width:0.5;" x1="3654.51" x2="3835.4817" y1="177.8281" y2="177.8281"/></g><!--SRC=[VLJBRjim4BpxAnOk43U0LSHAKYS1UaZYEcbUBUAWkUX2Iok9DKqAV4GGYbxx0Vt4VacNjElGGTEBO9FSsU7CB2st0k6MMLjZ2sD8u1exU42MrrnM1jxUpxucvnztUmE1fGMhGFEgjb1mZRdbIlPw3SiNh4BeNxcYeYBuJ5YQIiSde-HmjmzlX2_fK0ZLmlSUG2wOCT2VA93AmZSgmqpwutJuUViMcN4QeLCEAlw4y06MyHBQK9JkzfzhPWtc2tWox-16LS0b41N0RWM_xzdqVaIClsXLCkav-tENIdIUzViDvuRBnJyO1pQ58ddQcbdW1cegpQJIa3DZeK6cXO4vbeh8cfPBVDcNTQXX1ovKCJ3qLOL44oGR9wFHfd-b4MLCuDGiXZ13fE-rLFaYt6kS7CKQJ9dNFv0qK14q_Ioj2KUF0_eMbmib2cfoxoW7teDqqtqk7BwuFVclLkuo4rnekQb92eb-YnOoUSDQkXWfszHe3HYtN3BTRVTy8BNlcDQKXmjcLtttaz61RpsTJWwFzkA-Zxn0gFovtpz_GO76QXUobybR9Zj0QL570goHDnM2bnI0AUMxvB80RhV9JBZ9KSibmO0gOQeTjwlq7YRftd_oUuOj8tzB9Wn2ixvm9cSrOWFAMKEyXz0guOtWql-DM7hJmPB1WMFmgVIjCtd6eeqvMw-_K52JDvuvRmG6jkaeIVTVJUuTnHQVK7VUgi6DqiKG_7UmKi_qjsqcVrOnedIsN8Xe-nD83mGBIO86noVOC6s7XCz5eG9OJFMHapmxC5LA-B2SEJgrVX_IWoGTlvvsNtb2O-a8G4dG8V2ND5o6yAWJSQChnD5VzOXg39F5SmslQ4OtPJ79ApJE3E3KsLffRiCxa1ubwV6hqt1E6Ily75WbgIV6F2vf79ZpxsJBRGtiB-ema_xzeDankUPp34hz0G00]--></g></svg>