<svg xmlns="http://www.w3.org/2000/svg" xmlns:xlink="http://www.w3.org/1999/xlink" contentStyleType="text/css" data-diagram-type="CLASS" height="791px" preserveAspectRatio="none" style="width:509px;height:791px;background:#FFFFFF;" version="1.1" viewBox="0 0 509 791" width="509px" zoomAndPan="magnify"><title>Development of Baptism - Historical &amp; Theological Lineage</title><defs/><g><g class="title" data-source-line="1"><text fill="#000000" font-family="sans-serif" font-size="14" font-weight="bold" lengthAdjust="spacing" textLength="392.8477" x="51.1183" y="24.5332">Development of Baptism - Historical &amp; Theological Lineage</text></g><!--class Jewish--><g class="entity" data-entity="Jewish" data-source-line="4" data-uid="ent0002" id="entity_Jewish"><rect fill="#F1F1F1" height="131.6563" rx="2.5" ry="2.5" style="stroke:#181818;stroke-width:0.5;" width="269.5166" x="7" y="45.6094"/><ellipse cx="63.5913" cy="68.2188" fill="#ADD1B2" rx="11" ry="11" style="stroke:#181818;stroke-width:1;"/><path d="M66.3569,64.0938 Q66.5132,63.875 66.7007,63.7656 Q66.8882,63.6563 67.1069,63.6563 Q67.4819,63.6563 67.7163,63.9219 Q67.9507,64.1719 67.9507,64.7813 L67.9507,66.2344 Q67.9507,66.8438 67.7163,67.1094 Q67.4819,67.375 67.1069,67.375 Q66.7632,67.375 66.5601,67.1719 Q66.3569,66.9844 66.2476,66.4688 Q66.2007,66.1094 66.0132,65.9219 Q65.6851,65.5469 65.0757,65.3281 Q64.4663,65.1094 63.8413,65.1094 Q63.0757,65.1094 62.4351,65.4375 Q61.8101,65.7656 61.3101,66.5156 Q60.8257,67.2656 60.8257,68.2969 L60.8257,69.3906 Q60.8257,70.625 61.7163,71.4531 Q62.6069,72.2656 64.2007,72.2656 Q65.1382,72.2656 65.7944,72.0156 Q66.1851,71.8594 66.6069,71.4219 Q66.8726,71.1563 67.0132,71.0781 Q67.1694,71 67.3726,71 Q67.7007,71 67.9507,71.2656 Q68.2163,71.5156 68.2163,71.8594 Q68.2163,72.2031 67.8726,72.6094 Q67.3726,73.1875 66.5757,73.5156 Q65.4976,73.9688 64.2007,73.9688 Q62.6851,73.9688 61.4819,73.3438 Q60.4976,72.8438 59.8101,71.7813 Q59.1226,70.7031 59.1226,69.4219 L59.1226,68.2656 Q59.1226,66.9375 59.7319,65.7969 Q60.3569,64.6406 61.4507,64.0313 Q62.5444,63.4063 63.7788,63.4063 Q64.5132,63.4063 65.1538,63.5781 Q65.8101,63.7344 66.3569,64.0938 Z " fill="#000000"/><text fill="#000000" font-family="sans-serif" font-size="14" lengthAdjust="spacing" textLength="147.834" x="84.0913" y="65.1426">Jewish Ritual Washings</text><text fill="#000000" font-family="sans-serif" font-size="14" lengthAdjust="spacing" textLength="53.6689" x="131.1738" y="82.752">(Mikveh)</text><line style="stroke:#181818;stroke-width:0.5;" x1="8" x2="275.5166" y1="90.8281" y2="90.8281"/><text fill="#000000" font-family="sans-serif" font-size="14" lengthAdjust="spacing" textLength="167.3096" x="13" y="109.3613">Purpose: Ritual purification</text><text fill="#000000" font-family="sans-serif" font-size="14" lengthAdjust="spacing" textLength="166.5371" x="13" y="126.9707">Reference: Leviticus 14-15</text><text fill="#000000" font-family="sans-serif" font-size="14" lengthAdjust="spacing" textLength="76.2549" x="13" y="144.5801">Numbers 19</text><text fill="#000000" font-family="sans-serif" font-size="14" lengthAdjust="spacing" textLength="257.5166" x="13" y="162.1895">Symbolism: Cleansing from ritual impurity</text><line style="stroke:#181818;stroke-width:0.5;" x1="8" x2="275.5166" y1="169.2656" y2="169.2656"/></g><!--class JohnBaptism--><g class="entity" data-entity="JohnBaptism" data-source-line="10" data-uid="ent0003" id="entity_JohnBaptism"><rect fill="#F1F1F1" height="118.4375" rx="2.5" ry="2.5" style="stroke:#181818;stroke-width:0.5;" width="235.3711" x="24.07" y="255.2694"/><ellipse cx="56.5466" cy="271.2694" fill="#ADD1B2" rx="11" ry="11" style="stroke:#181818;stroke-width:1;"/><path d="M59.3122,267.1444 Q59.4685,266.9256 59.656,266.8163 Q59.8435,266.7069 60.0622,266.7069 Q60.4372,266.7069 60.6716,266.9725 Q60.906,267.2225 60.906,267.8319 L60.906,269.285 Q60.906,269.8944 60.6716,270.16 Q60.4372,270.4256 60.0622,270.4256 Q59.7185,270.4256 59.5154,270.2225 Q59.3122,270.035 59.2029,269.5194 Q59.156,269.16 58.9685,268.9725 Q58.6404,268.5975 58.031,268.3788 Q57.4216,268.16 56.7966,268.16 Q56.031,268.16 55.3904,268.4881 Q54.7654,268.8163 54.2654,269.5663 Q53.781,270.3163 53.781,271.3475 L53.781,272.4413 Q53.781,273.6756 54.6716,274.5038 Q55.5622,275.3163 57.156,275.3163 Q58.0935,275.3163 58.7497,275.0663 Q59.1404,274.91 59.5622,274.4725 Q59.8279,274.2069 59.9685,274.1288 Q60.1247,274.0506 60.3279,274.0506 Q60.656,274.0506 60.906,274.3163 Q61.1716,274.5663 61.1716,274.91 Q61.1716,275.2538 60.8279,275.66 Q60.3279,276.2381 59.531,276.5663 Q58.4529,277.0194 57.156,277.0194 Q55.6404,277.0194 54.4372,276.3944 Q53.4529,275.8944 52.7654,274.8319 Q52.0779,273.7538 52.0779,272.4725 L52.0779,271.3163 Q52.0779,269.9881 52.6872,268.8475 Q53.3122,267.6913 54.406,267.0819 Q55.4997,266.4569 56.7341,266.4569 Q57.4685,266.4569 58.1091,266.6288 Q58.7654,266.785 59.3122,267.1444 Z " fill="#000000"/><text fill="#000000" font-family="sans-serif" font-size="14" lengthAdjust="spacing" textLength="164.5342" x="74.4303" y="276.9979">John the Baptist's Baptism</text><line style="stroke:#181818;stroke-width:0.5;" x1="25.07" x2="258.4411" y1="287.2694" y2="287.2694"/><text fill="#000000" font-family="sans-serif" font-size="14" lengthAdjust="spacing" textLength="223.3711" x="30.07" y="305.8026">Purpose: Repentance &amp; preparation</text><text fill="#000000" font-family="sans-serif" font-size="14" lengthAdjust="spacing" textLength="140.0752" x="30.07" y="323.412">Location: Jordan River</text><text fill="#000000" font-family="sans-serif" font-size="14" lengthAdjust="spacing" textLength="190.627" x="30.07" y="341.0213">Symbolism: Confession of sins</text><text fill="#000000" font-family="sans-serif" font-size="14" lengthAdjust="spacing" textLength="152.5098" x="30.07" y="358.6307">Scripture: Matthew 3:1-6</text><line style="stroke:#181818;stroke-width:0.5;" x1="25.07" x2="258.4411" y1="365.7069" y2="365.7069"/></g><!--class JesusBaptism--><g class="entity" data-entity="JesusBaptism" data-source-line="17" data-uid="ent0004" id="entity_JesusBaptism"><rect fill="#F1F1F1" height="118.4375" rx="2.5" ry="2.5" style="stroke:#181818;stroke-width:0.5;" width="220.5439" x="31.49" y="451.7094"/><ellipse cx="84.2122" cy="467.7094" fill="#ADD1B2" rx="11" ry="11" style="stroke:#181818;stroke-width:1;"/><path d="M86.9778,463.5844 Q87.134,463.3656 87.3215,463.2563 Q87.509,463.1469 87.7278,463.1469 Q88.1028,463.1469 88.3372,463.4125 Q88.5715,463.6625 88.5715,464.2719 L88.5715,465.725 Q88.5715,466.3344 88.3372,466.6 Q88.1028,466.8656 87.7278,466.8656 Q87.384,466.8656 87.1809,466.6625 Q86.9778,466.475 86.8684,465.9594 Q86.8215,465.6 86.634,465.4125 Q86.3059,465.0375 85.6965,464.8188 Q85.0872,464.6 84.4622,464.6 Q83.6965,464.6 83.0559,464.9281 Q82.4309,465.2563 81.9309,466.0063 Q81.4465,466.7563 81.4465,467.7875 L81.4465,468.8813 Q81.4465,470.1156 82.3372,470.9438 Q83.2278,471.7563 84.8215,471.7563 Q85.759,471.7563 86.4153,471.5063 Q86.8059,471.35 87.2278,470.9125 Q87.4934,470.6469 87.634,470.5688 Q87.7903,470.4906 87.9934,470.4906 Q88.3215,470.4906 88.5715,470.7563 Q88.8372,471.0063 88.8372,471.35 Q88.8372,471.6938 88.4934,472.1 Q87.9934,472.6781 87.1965,473.0063 Q86.1184,473.4594 84.8215,473.4594 Q83.3059,473.4594 82.1028,472.8344 Q81.1184,472.3344 80.4309,471.2719 Q79.7434,470.1938 79.7434,468.9125 L79.7434,467.7563 Q79.7434,466.4281 80.3528,465.2875 Q80.9778,464.1313 82.0715,463.5219 Q83.1653,462.8969 84.3997,462.8969 Q85.134,462.8969 85.7747,463.0688 Q86.4309,463.225 86.9778,463.5844 Z " fill="#000000"/><text fill="#000000" font-family="sans-serif" font-size="14" lengthAdjust="spacing" textLength="106.5996" x="104.7122" y="473.4379">Baptism of Jesus</text><line style="stroke:#181818;stroke-width:0.5;" x1="32.49" x2="251.0339" y1="483.7094" y2="483.7094"/><text fill="#000000" font-family="sans-serif" font-size="14" lengthAdjust="spacing" textLength="208.5439" x="37.49" y="502.2426">Purpose: Fulfills all righteousness</text><text fill="#000000" font-family="sans-serif" font-size="14" lengthAdjust="spacing" textLength="189.8955" x="37.49" y="519.852">Event: Jesus baptized by John</text><text fill="#000000" font-family="sans-serif" font-size="14" lengthAdjust="spacing" textLength="182.0547" x="37.49" y="537.4613">Symbolism: Sanctifies waters</text><text fill="#000000" font-family="sans-serif" font-size="14" lengthAdjust="spacing" textLength="168.082" x="37.49" y="555.0707">Scripture: Matthew 3:13-17</text><line style="stroke:#181818;stroke-width:0.5;" x1="32.49" x2="251.0339" y1="562.1469" y2="562.1469"/></g><!--class ChristianBaptism--><g class="entity" data-entity="ChristianBaptism" data-source-line="24" data-uid="ent0005" id="entity_ChristianBaptism"><rect fill="#F1F1F1" height="136.0469" rx="2.5" ry="2.5" style="stroke:#181818;stroke-width:0.5;" width="257.1162" x="139.2" y="648.1394"/><ellipse cx="169.0188" cy="664.1394" fill="#ADD1B2" rx="11" ry="11" style="stroke:#181818;stroke-width:1;"/><path d="M171.7844,660.0144 Q171.9407,659.7956 172.1282,659.6863 Q172.3157,659.5769 172.5344,659.5769 Q172.9094,659.5769 173.1438,659.8425 Q173.3782,660.0925 173.3782,660.7019 L173.3782,662.155 Q173.3782,662.7644 173.1438,663.03 Q172.9094,663.2956 172.5344,663.2956 Q172.1907,663.2956 171.9875,663.0925 Q171.7844,662.905 171.675,662.3894 Q171.6282,662.03 171.4407,661.8425 Q171.1125,661.4675 170.5032,661.2488 Q169.8938,661.03 169.2688,661.03 Q168.5032,661.03 167.8625,661.3581 Q167.2375,661.6863 166.7375,662.4363 Q166.2532,663.1863 166.2532,664.2175 L166.2532,665.3113 Q166.2532,666.5456 167.1438,667.3738 Q168.0344,668.1863 169.6282,668.1863 Q170.5657,668.1863 171.2219,667.9363 Q171.6125,667.78 172.0344,667.3425 Q172.3,667.0769 172.4407,666.9988 Q172.5969,666.9206 172.8,666.9206 Q173.1282,666.9206 173.3782,667.1863 Q173.6438,667.4363 173.6438,667.78 Q173.6438,668.1238 173.3,668.53 Q172.8,669.1081 172.0032,669.4363 Q170.925,669.8894 169.6282,669.8894 Q168.1125,669.8894 166.9094,669.2644 Q165.925,668.7644 165.2375,667.7019 Q164.55,666.6238 164.55,665.3425 L164.55,664.1863 Q164.55,662.8581 165.1594,661.7175 Q165.7844,660.5613 166.8782,659.9519 Q167.9719,659.3269 169.2063,659.3269 Q169.9407,659.3269 170.5813,659.4988 Q171.2375,659.655 171.7844,660.0144 Z " fill="#000000"/><text fill="#000000" font-family="sans-serif" font-size="14" lengthAdjust="spacing" textLength="192.1855" x="186.3119" y="669.8679">Christian Sacramental Baptism</text><line style="stroke:#181818;stroke-width:0.5;" x1="140.2" x2="395.3162" y1="680.1394" y2="680.1394"/><text fill="#000000" font-family="sans-serif" font-size="14" lengthAdjust="spacing" textLength="245.1162" x="145.2" y="698.6726">Purpose: Forgiveness of sins &amp; new life</text><text fill="#000000" font-family="sans-serif" font-size="14" lengthAdjust="spacing" textLength="160.2891" x="145.2" y="716.282">Instituted by: Jesus Christ</text><text fill="#000000" font-family="sans-serif" font-size="14" lengthAdjust="spacing" textLength="225.1895" x="145.2" y="733.8913">Formula: "In the name of the Father,</text><text fill="#000000" font-family="sans-serif" font-size="14" lengthAdjust="spacing" textLength="128.7002" x="145.2" y="751.5007">Son, and Holy Spirit"</text><text fill="#000000" font-family="sans-serif" font-size="14" lengthAdjust="spacing" textLength="155.6338" x="145.2" y="769.1101">Scripture: Matthew 28:19</text><line style="stroke:#181818;stroke-width:0.5;" x1="140.2" x2="395.3162" y1="776.1863" y2="776.1863"/></g><g class="entity" data-entity="GMN9" data-source-line="38" data-uid="ent0010" id="entity_GMN9"><path d="M287.43,473.2194 L287.43,548.6256 L502.0843,548.6256 L502.0843,483.2194 L492.0843,473.2194 L287.43,473.2194" fill="#FEFFDD" style="stroke:#181818;stroke-width:0.5;"/><path d="M492.0843,473.2194 L492.0843,483.2194 L502.0843,483.2194 L492.0843,473.2194" fill="#FEFFDD" style="stroke:#181818;stroke-width:1;"/><text fill="#000000" font-family="sans-serif" font-size="13" lengthAdjust="spacing" textLength="193.6543" x="293.43" y="491.7145">- Cleanses original &amp; personal sin</text><text fill="#000000" font-family="sans-serif" font-size="13" lengthAdjust="spacing" textLength="114.1309" x="293.43" y="508.0661">- Imparts Holy Spirit</text><text fill="#000000" font-family="sans-serif" font-size="13" lengthAdjust="spacing" textLength="171.9771" x="293.43" y="524.4176">- Incorporates into the Church</text><text fill="#000000" font-family="sans-serif" font-size="13" lengthAdjust="spacing" textLength="114.1372" x="293.43" y="540.7692">- New birth in Christ</text></g><!--link Jewish to JohnBaptism--><g class="link" data-entity-1="Jewish" data-entity-2="JohnBaptism" data-source-line="32" data-uid="lnk6" id="link_Jewish_JohnBaptism"><path codeLine="32" d="M141.76,177.7094 C141.76,202.5894 141.76,224.7694 141.76,248.9894" fill="none" id="Jewish-to-JohnBaptism" style="stroke:#181818;stroke-width:1;"/><polygon fill="#181818" points="141.76,254.9894,145.76,245.9894,141.76,249.9894,137.76,245.9894,141.76,254.9894" style="stroke:#181818;stroke-width:1;"/><text fill="#000000" font-family="sans-serif" font-size="13" lengthAdjust="spacing" textLength="59.249" x="142.76" y="221.7645">Prefigures</text></g><!--link JohnBaptism to JesusBaptism--><g class="link" data-entity-1="JohnBaptism" data-entity-2="JesusBaptism" data-source-line="33" data-uid="lnk7" id="link_JohnBaptism_JesusBaptism"><path codeLine="33" d="M141.76,374.0894 C141.76,398.5794 141.76,420.9694 141.76,445.4394" fill="none" id="JohnBaptism-to-JesusBaptism" style="stroke:#181818;stroke-width:1;"/><polygon fill="#181818" points="141.76,451.4394,145.76,442.4394,141.76,446.4394,137.76,442.4394,141.76,451.4394" style="stroke:#181818;stroke-width:1;"/><text fill="#000000" font-family="sans-serif" font-size="13" lengthAdjust="spacing" textLength="109.0908" x="142.76" y="418.2045">Prepares for Christ</text></g><!--link JesusBaptism to ChristianBaptism--><g class="link" data-entity-1="JesusBaptism" data-entity-2="ChristianBaptism" data-source-line="34" data-uid="lnk8" id="link_JesusBaptism_ChristianBaptism"><path codeLine="34" d="M177.39,570.4394 C186.9,585.9694 197.19,602.7094 206.76,618.1394 C212.74,627.7794 215.8945,632.8548 222.1345,642.8148" fill="none" id="JesusBaptism-to-ChristianBaptism" style="stroke:#181818;stroke-width:1;"/><polygon fill="#181818" points="225.32,647.8994,223.9314,638.1489,222.6654,643.6623,217.1521,642.3962,225.32,647.8994" style="stroke:#181818;stroke-width:1;"/><text fill="#000000" font-family="sans-serif" font-size="13" lengthAdjust="spacing" textLength="160.4243" x="207.76" y="614.6345">Leads to sacramental grace</text></g><!--link GMN9 to ChristianBaptism--><g class="link" data-entity-1="GMN9" data-entity-2="ChristianBaptism" data-source-line="38" data-uid="lnk11" id="link_GMN9_ChristianBaptism"><path d="M392.71,548.7994 C390.21,570.1894 384.71,596.9994 372.76,618.1394 C366.83,628.6194 359.39,638.6094 351.2,647.9194" fill="none" id="GMN9-ChristianBaptism" style="stroke:#181818;stroke-width:1;stroke-dasharray:7,7;"/></g><!--SRC=[TLJ1Rjim3BtxAuWSrWse3rctTVDXXtKhsg8jYcR0Bhqe3cq9bIL1b1DaG_zzJqvSE5rtIMJpFUhnaNGooJ9zvpLR7pfsYNn3trH8HZegwS98yj7Koj8R-gdPMzyEJzV6iMgvA8v0Rl10Zxobe9Mma1AghH8SY-6VPbUyCQBftgGUv5zAj76jFBYtD-PnpVhTB7Fse3y5qLqVWnUkHaReesbmSJBU8NpF3KTsDG3Nl3R9rBtG_4Cv__ZWRljkoH6FNm1SRBkbjwYbeZFBoWckfIRwZk8kiUbowhGjdefdhLuxIfhtDgGZ6GtPgKHuDEXGAWVufw0ANeN8GSLHxxNVIQ_0ZYlbKDQQumjztZKi0bHk0OHAZjVHXDH7fBzH2Q8sT5BDoqyJkQCMaAvOUjbRYTEhAizxsnXhqIHhOKAh4_jU76u6wiSQ5LGxDYqp_JUlQBaTYZwKkq2X2Jr1kpSgmV3_gZqfvwSJlMSwmbG34nQgZYhF7FemTVWPyNe1FhPmBoiUZOBV3dTPqp2GbmxarAT1-LZCBYUYe7UzLHNDBdTTTf2G4-NpkS9lF7vm2- -EIRaLNNYxfKKmc97PwnM-_rnXr9xo9jop7TgCwGv2elqcZvlThyf-lClowy4CLNGNiK4jaaen3Gp0QHy79AOAbZS-ZYKTG3Bd7_loagYLKF8a4ylRgEfXWIym1JPF0d7JS9saS3unu27xyZ9TKUvN2JBmQMYD6puE0IFWyn4D0UIoWz0aK__oMrTxj15x0R9n49HTFzDzh3N2jx1pQMBIY8tbCPgGvHH_0G00]--></g></svg>