<svg xmlns="http://www.w3.org/2000/svg" xmlns:xlink="http://www.w3.org/1999/xlink" contentStyleType="text/css" data-diagram-type="CLASS" height="332px" preserveAspectRatio="none" style="width:2005px;height:332px;background:#FFFFFF;" version="1.1" viewBox="0 0 2005 332" width="2005px" zoomAndPan="magnify"><title>Effects and Benefits of Christian Baptism (Catholic Teaching)</title><defs/><g><g class="title" data-source-line="1"><text fill="#000000" font-family="sans-serif" font-size="14" font-weight="bold" lengthAdjust="spacing" textLength="409.165" x="791.0696" y="24.5332">Effects and Benefits of Christian Baptism (Catholic Teaching)</text></g><!--class Baptism--><g class="entity" data-entity="Baptism" data-source-line="5" data-uid="ent0002" id="entity_Baptism"><rect fill="#F1F1F1" height="118.4375" rx="2.5" ry="2.5" style="stroke:#181818;stroke-width:0.5;" width="538.6748" x="761.63" y="45.6094"/><ellipse cx="960.9762" cy="61.6094" fill="#ADD1B2" rx="11" ry="11" style="stroke:#181818;stroke-width:1;"/><path d="M963.7418,57.4844 Q963.8981,57.2656 964.0856,57.1563 Q964.2731,57.0469 964.4918,57.0469 Q964.8668,57.0469 965.1012,57.3125 Q965.3356,57.5625 965.3356,58.1719 L965.3356,59.625 Q965.3356,60.2344 965.1012,60.5 Q964.8668,60.7656 964.4918,60.7656 Q964.1481,60.7656 963.9449,60.5625 Q963.7418,60.375 963.6324,59.8594 Q963.5856,59.5 963.3981,59.3125 Q963.0699,58.9375 962.4606,58.7188 Q961.8512,58.5 961.2262,58.5 Q960.4606,58.5 959.8199,58.8281 Q959.1949,59.1563 958.6949,59.9063 Q958.2106,60.6563 958.2106,61.6875 L958.2106,62.7813 Q958.2106,64.0156 959.1012,64.8438 Q959.9918,65.6563 961.5856,65.6563 Q962.5231,65.6563 963.1793,65.4063 Q963.5699,65.25 963.9918,64.8125 Q964.2574,64.5469 964.3981,64.4688 Q964.5543,64.3906 964.7574,64.3906 Q965.0856,64.3906 965.3356,64.6563 Q965.6012,64.9063 965.6012,65.25 Q965.6012,65.5938 965.2574,66 Q964.7574,66.5781 963.9606,66.9063 Q962.8824,67.3594 961.5856,67.3594 Q960.0699,67.3594 958.8668,66.7344 Q957.8824,66.2344 957.1949,65.1719 Q956.5074,64.0938 956.5074,62.8125 L956.5074,61.6563 Q956.5074,60.3281 957.1168,59.1875 Q957.7418,58.0313 958.8356,57.4219 Q959.9293,56.7969 961.1637,56.7969 Q961.8981,56.7969 962.5387,56.9688 Q963.1949,57.125 963.7418,57.4844 Z " fill="#000000"/><text fill="#000000" font-family="sans-serif" font-size="14" lengthAdjust="spacing" textLength="131.4824" x="981.4762" y="67.3379">Baptism (Sacrament)</text><line style="stroke:#181818;stroke-width:0.5;" x1="762.63" x2="1299.3048" y1="77.6094" y2="77.6094"/><text fill="#000000" font-family="sans-serif" font-size="14" lengthAdjust="spacing" textLength="84.793" x="767.63" y="96.1426">Matter: Water</text><text fill="#000000" font-family="sans-serif" font-size="14" lengthAdjust="spacing" textLength="526.6748" x="767.63" y="113.752">Form: "I baptize you in the name of the Father, and of the Son, and of the Holy Spirit"</text><text fill="#000000" font-family="sans-serif" font-size="14" lengthAdjust="spacing" textLength="265.3164" x="767.63" y="131.3613">Minister: Ordinary - Bishop, Priest, Deacon</text><text fill="#000000" font-family="sans-serif" font-size="14" lengthAdjust="spacing" textLength="277.7988" x="767.63" y="148.9707">Extraordinary - Any person with proper intent</text><line style="stroke:#181818;stroke-width:0.5;" x1="762.63" x2="1299.3048" y1="156.0469" y2="156.0469"/></g><!--class Forgiveness--><g class="entity" data-entity="Forgiveness" data-source-line="12" data-uid="ent0003" id="entity_Forgiveness"><rect fill="#F1F1F1" height="83.2188" rx="2.5" ry="2.5" style="stroke:#181818;stroke-width:0.5;" width="147.9443" x="7" y="242.0494"/><ellipse cx="22" cy="258.0494" fill="#ADD1B2" rx="11" ry="11" style="stroke:#181818;stroke-width:1;"/><path d="M24.7656,253.9244 Q24.9219,253.7056 25.1094,253.5963 Q25.2969,253.4869 25.5156,253.4869 Q25.8906,253.4869 26.125,253.7525 Q26.3594,254.0025 26.3594,254.6119 L26.3594,256.065 Q26.3594,256.6744 26.125,256.94 Q25.8906,257.2056 25.5156,257.2056 Q25.1719,257.2056 24.9688,257.0025 Q24.7656,256.815 24.6563,256.2994 Q24.6094,255.94 24.4219,255.7525 Q24.0938,255.3775 23.4844,255.1588 Q22.875,254.94 22.25,254.94 Q21.4844,254.94 20.8438,255.2681 Q20.2188,255.5963 19.7188,256.3463 Q19.2344,257.0963 19.2344,258.1275 L19.2344,259.2213 Q19.2344,260.4556 20.125,261.2838 Q21.0156,262.0963 22.6094,262.0963 Q23.5469,262.0963 24.2031,261.8463 Q24.5938,261.69 25.0156,261.2525 Q25.2813,260.9869 25.4219,260.9088 Q25.5781,260.8306 25.7813,260.8306 Q26.1094,260.8306 26.3594,261.0963 Q26.625,261.3463 26.625,261.69 Q26.625,262.0338 26.2813,262.44 Q25.7813,263.0181 24.9844,263.3463 Q23.9063,263.7994 22.6094,263.7994 Q21.0938,263.7994 19.8906,263.1744 Q18.9063,262.6744 18.2188,261.6119 Q17.5313,260.5338 17.5313,259.2525 L17.5313,258.0963 Q17.5313,256.7681 18.1406,255.6275 Q18.7656,254.4713 19.8594,253.8619 Q20.9531,253.2369 22.1875,253.2369 Q22.9219,253.2369 23.5625,253.4088 Q24.2188,253.565 24.7656,253.9244 Z " fill="#000000"/><text fill="#000000" font-family="sans-serif" font-size="14" lengthAdjust="spacing" textLength="115.9443" x="36" y="263.7779">Forgiveness of Sin</text><line style="stroke:#181818;stroke-width:0.5;" x1="8" x2="153.9443" y1="274.0494" y2="274.0494"/><line style="stroke:#181818;stroke-width:0.5;" x1="8" x2="153.9443" y1="282.0494" y2="282.0494"/><text fill="#000000" font-family="sans-serif" font-size="14" lengthAdjust="spacing" textLength="132.2891" x="13" y="300.5826">Includes: Original Sin</text><text fill="#000000" font-family="sans-serif" font-size="14" lengthAdjust="spacing" textLength="133.0547" x="13" y="318.192">Personal Sins (if any)</text></g><!--class Grace--><g class="entity" data-entity="Grace" data-source-line="16" data-uid="ent0004" id="entity_Grace"><rect fill="#F1F1F1" height="65.6094" rx="2.5" ry="2.5" style="stroke:#181818;stroke-width:0.5;" width="278.916" x="189.51" y="250.8594"/><ellipse cx="269.47" cy="266.8594" fill="#ADD1B2" rx="11" ry="11" style="stroke:#181818;stroke-width:1;"/><path d="M272.2356,262.7344 Q272.3918,262.5156 272.5793,262.4063 Q272.7668,262.2969 272.9856,262.2969 Q273.3606,262.2969 273.595,262.5625 Q273.8293,262.8125 273.8293,263.4219 L273.8293,264.875 Q273.8293,265.4844 273.595,265.75 Q273.3606,266.0156 272.9856,266.0156 Q272.6418,266.0156 272.4387,265.8125 Q272.2356,265.625 272.1262,265.1094 Q272.0793,264.75 271.8918,264.5625 Q271.5637,264.1875 270.9543,263.9688 Q270.345,263.75 269.72,263.75 Q268.9543,263.75 268.3137,264.0781 Q267.6887,264.4063 267.1887,265.1563 Q266.7043,265.9063 266.7043,266.9375 L266.7043,268.0313 Q266.7043,269.2656 267.595,270.0938 Q268.4856,270.9063 270.0793,270.9063 Q271.0168,270.9063 271.6731,270.6563 Q272.0637,270.5 272.4856,270.0625 Q272.7512,269.7969 272.8918,269.7188 Q273.0481,269.6406 273.2512,269.6406 Q273.5793,269.6406 273.8293,269.9063 Q274.095,270.1563 274.095,270.5 Q274.095,270.8438 273.7512,271.25 Q273.2512,271.8281 272.4543,272.1563 Q271.3762,272.6094 270.0793,272.6094 Q268.5637,272.6094 267.3606,271.9844 Q266.3762,271.4844 265.6887,270.4219 Q265.0012,269.3438 265.0012,268.0625 L265.0012,266.9063 Q265.0012,265.5781 265.6106,264.4375 Q266.2356,263.2813 267.3293,262.6719 Q268.4231,262.0469 269.6575,262.0469 Q270.3918,262.0469 271.0325,262.2188 Q271.6887,262.375 272.2356,262.7344 Z " fill="#000000"/><text fill="#000000" font-family="sans-serif" font-size="14" lengthAdjust="spacing" textLength="110.4961" x="289.97" y="272.5879">Sanctifying Grace</text><line style="stroke:#181818;stroke-width:0.5;" x1="190.51" x2="467.426" y1="282.8594" y2="282.8594"/><text fill="#000000" font-family="sans-serif" font-size="14" lengthAdjust="spacing" textLength="266.916" x="195.51" y="301.3926">Description: Divine life infused into the soul</text><line style="stroke:#181818;stroke-width:0.5;" x1="190.51" x2="467.426" y1="308.4688" y2="308.4688"/></g><!--class HolySpirit--><g class="entity" data-entity="HolySpirit" data-source-line="20" data-uid="ent0005" id="entity_HolySpirit"><rect fill="#F1F1F1" height="65.6094" rx="2.5" ry="2.5" style="stroke:#181818;stroke-width:0.5;" width="342.709" x="503.62" y="250.8594"/><ellipse cx="586.2938" cy="266.8594" fill="#ADD1B2" rx="11" ry="11" style="stroke:#181818;stroke-width:1;"/><path d="M589.0595,262.7344 Q589.2157,262.5156 589.4032,262.4063 Q589.5907,262.2969 589.8095,262.2969 Q590.1845,262.2969 590.4188,262.5625 Q590.6532,262.8125 590.6532,263.4219 L590.6532,264.875 Q590.6532,265.4844 590.4188,265.75 Q590.1845,266.0156 589.8095,266.0156 Q589.4657,266.0156 589.2626,265.8125 Q589.0595,265.625 588.9501,265.1094 Q588.9032,264.75 588.7157,264.5625 Q588.3876,264.1875 587.7782,263.9688 Q587.1688,263.75 586.5438,263.75 Q585.7782,263.75 585.1376,264.0781 Q584.5126,264.4063 584.0126,265.1563 Q583.5282,265.9063 583.5282,266.9375 L583.5282,268.0313 Q583.5282,269.2656 584.4188,270.0938 Q585.3095,270.9063 586.9032,270.9063 Q587.8407,270.9063 588.497,270.6563 Q588.8876,270.5 589.3095,270.0625 Q589.5751,269.7969 589.7157,269.7188 Q589.872,269.6406 590.0751,269.6406 Q590.4032,269.6406 590.6532,269.9063 Q590.9188,270.1563 590.9188,270.5 Q590.9188,270.8438 590.5751,271.25 Q590.0751,271.8281 589.2782,272.1563 Q588.2001,272.6094 586.9032,272.6094 Q585.3876,272.6094 584.1845,271.9844 Q583.2001,271.4844 582.5126,270.4219 Q581.8251,269.3438 581.8251,268.0625 L581.8251,266.9063 Q581.8251,265.5781 582.4345,264.4375 Q583.0595,263.2813 584.1532,262.6719 Q585.247,262.0469 586.4813,262.0469 Q587.2157,262.0469 587.8563,262.2188 Q588.5126,262.375 589.0595,262.7344 Z " fill="#000000"/><text fill="#000000" font-family="sans-serif" font-size="14" lengthAdjust="spacing" textLength="168.8613" x="606.7938" y="272.5879">Indwelling of the Holy Spirit</text><line style="stroke:#181818;stroke-width:0.5;" x1="504.62" x2="845.329" y1="282.8594" y2="282.8594"/><text fill="#000000" font-family="sans-serif" font-size="14" lengthAdjust="spacing" textLength="330.709" x="509.62" y="301.3926">Description: Soul becomes a temple of the Holy Spirit</text><line style="stroke:#181818;stroke-width:0.5;" x1="504.62" x2="845.329" y1="308.4688" y2="308.4688"/></g><!--class Adoption--><g class="entity" data-entity="Adoption" data-source-line="24" data-uid="ent0006" id="entity_Adoption"><rect fill="#F1F1F1" height="65.6094" rx="2.5" ry="2.5" style="stroke:#181818;stroke-width:0.5;" width="299.4375" x="881.25" y="250.8594"/><ellipse cx="948.8916" cy="266.8594" fill="#ADD1B2" rx="11" ry="11" style="stroke:#181818;stroke-width:1;"/><path d="M951.6572,262.7344 Q951.8135,262.5156 952.001,262.4063 Q952.1885,262.2969 952.4072,262.2969 Q952.7822,262.2969 953.0166,262.5625 Q953.251,262.8125 953.251,263.4219 L953.251,264.875 Q953.251,265.4844 953.0166,265.75 Q952.7822,266.0156 952.4072,266.0156 Q952.0635,266.0156 951.8604,265.8125 Q951.6572,265.625 951.5479,265.1094 Q951.501,264.75 951.3135,264.5625 Q950.9854,264.1875 950.376,263.9688 Q949.7666,263.75 949.1416,263.75 Q948.376,263.75 947.7354,264.0781 Q947.1104,264.4063 946.6104,265.1563 Q946.126,265.9063 946.126,266.9375 L946.126,268.0313 Q946.126,269.2656 947.0166,270.0938 Q947.9072,270.9063 949.501,270.9063 Q950.4385,270.9063 951.0947,270.6563 Q951.4854,270.5 951.9072,270.0625 Q952.1729,269.7969 952.3135,269.7188 Q952.4697,269.6406 952.6729,269.6406 Q953.001,269.6406 953.251,269.9063 Q953.5166,270.1563 953.5166,270.5 Q953.5166,270.8438 953.1729,271.25 Q952.6729,271.8281 951.876,272.1563 Q950.7979,272.6094 949.501,272.6094 Q947.9854,272.6094 946.7822,271.9844 Q945.7979,271.4844 945.1104,270.4219 Q944.4229,269.3438 944.4229,268.0625 L944.4229,266.9063 Q944.4229,265.5781 945.0322,264.4375 Q945.6572,263.2813 946.751,262.6719 Q947.8447,262.0469 949.0791,262.0469 Q949.8135,262.0469 950.4541,262.2188 Q951.1104,262.375 951.6572,262.7344 Z " fill="#000000"/><text fill="#000000" font-family="sans-serif" font-size="14" lengthAdjust="spacing" textLength="155.6543" x="969.3916" y="272.5879">Adoption as Child of God</text><line style="stroke:#181818;stroke-width:0.5;" x1="882.25" x2="1179.6875" y1="282.8594" y2="282.8594"/><text fill="#000000" font-family="sans-serif" font-size="14" lengthAdjust="spacing" textLength="287.4375" x="887.25" y="301.3926">Description: Becomes member of God's family</text><line style="stroke:#181818;stroke-width:0.5;" x1="882.25" x2="1179.6875" y1="308.4688" y2="308.4688"/></g><!--class ChurchMembership--><g class="entity" data-entity="ChurchMembership" data-source-line="28" data-uid="ent0007" id="entity_ChurchMembership"><rect fill="#F1F1F1" height="83.2188" rx="2.5" ry="2.5" style="stroke:#181818;stroke-width:0.5;" width="245.4336" x="1215.26" y="242.0494"/><ellipse cx="1245.0573" cy="258.0494" fill="#ADD1B2" rx="11" ry="11" style="stroke:#181818;stroke-width:1;"/><path d="M1247.8229,253.9244 Q1247.9791,253.7056 1248.1666,253.5963 Q1248.3541,253.4869 1248.5729,253.4869 Q1248.9479,253.4869 1249.1823,253.7525 Q1249.4166,254.0025 1249.4166,254.6119 L1249.4166,256.065 Q1249.4166,256.6744 1249.1823,256.94 Q1248.9479,257.2056 1248.5729,257.2056 Q1248.2291,257.2056 1248.026,257.0025 Q1247.8229,256.815 1247.7135,256.2994 Q1247.6666,255.94 1247.4791,255.7525 Q1247.151,255.3775 1246.5416,255.1588 Q1245.9323,254.94 1245.3073,254.94 Q1244.5416,254.94 1243.901,255.2681 Q1243.276,255.5963 1242.776,256.3463 Q1242.2916,257.0963 1242.2916,258.1275 L1242.2916,259.2213 Q1242.2916,260.4556 1243.1823,261.2838 Q1244.0729,262.0963 1245.6666,262.0963 Q1246.6041,262.0963 1247.2604,261.8463 Q1247.651,261.69 1248.0729,261.2525 Q1248.3385,260.9869 1248.4791,260.9088 Q1248.6354,260.8306 1248.8385,260.8306 Q1249.1666,260.8306 1249.4166,261.0963 Q1249.6823,261.3463 1249.6823,261.69 Q1249.6823,262.0338 1249.3385,262.44 Q1248.8385,263.0181 1248.0416,263.3463 Q1246.9635,263.7994 1245.6666,263.7994 Q1244.151,263.7994 1242.9479,263.1744 Q1241.9635,262.6744 1241.276,261.6119 Q1240.5885,260.5338 1240.5885,259.2525 L1240.5885,258.0963 Q1240.5885,256.7681 1241.1979,255.6275 Q1241.8229,254.4713 1242.9166,253.8619 Q1244.0104,253.2369 1245.2448,253.2369 Q1245.9791,253.2369 1246.6198,253.4088 Q1247.276,253.565 1247.8229,253.9244 Z " fill="#000000"/><text fill="#000000" font-family="sans-serif" font-size="14" lengthAdjust="spacing" textLength="180.5508" x="1262.3455" y="263.7779">Incorporation into the Church</text><line style="stroke:#181818;stroke-width:0.5;" x1="1216.26" x2="1459.6936" y1="274.0494" y2="274.0494"/><text fill="#000000" font-family="sans-serif" font-size="14" lengthAdjust="spacing" textLength="233.4336" x="1221.26" y="292.5826">Description: Enters the Body of Christ</text><text fill="#000000" font-family="sans-serif" font-size="14" lengthAdjust="spacing" textLength="228.792" x="1221.26" y="310.192">and gains membership in the Church</text><line style="stroke:#181818;stroke-width:0.5;" x1="1216.26" x2="1459.6936" y1="317.2681" y2="317.2681"/></g><!--class Character--><g class="entity" data-entity="Character" data-source-line="32" data-uid="ent0008" id="entity_Character"><rect fill="#F1F1F1" height="83.2188" rx="2.5" ry="2.5" style="stroke:#181818;stroke-width:0.5;" width="222.875" x="1495.53" y="242.0494"/><ellipse cx="1532.6947" cy="258.0494" fill="#ADD1B2" rx="11" ry="11" style="stroke:#181818;stroke-width:1;"/><path d="M1535.4603,253.9244 Q1535.6166,253.7056 1535.8041,253.5963 Q1535.9916,253.4869 1536.2103,253.4869 Q1536.5853,253.4869 1536.8197,253.7525 Q1537.0541,254.0025 1537.0541,254.6119 L1537.0541,256.065 Q1537.0541,256.6744 1536.8197,256.94 Q1536.5853,257.2056 1536.2103,257.2056 Q1535.8666,257.2056 1535.6634,257.0025 Q1535.4603,256.815 1535.3509,256.2994 Q1535.3041,255.94 1535.1166,255.7525 Q1534.7884,255.3775 1534.1791,255.1588 Q1533.5697,254.94 1532.9447,254.94 Q1532.1791,254.94 1531.5384,255.2681 Q1530.9134,255.5963 1530.4134,256.3463 Q1529.9291,257.0963 1529.9291,258.1275 L1529.9291,259.2213 Q1529.9291,260.4556 1530.8197,261.2838 Q1531.7103,262.0963 1533.3041,262.0963 Q1534.2416,262.0963 1534.8978,261.8463 Q1535.2884,261.69 1535.7103,261.2525 Q1535.9759,260.9869 1536.1166,260.9088 Q1536.2728,260.8306 1536.4759,260.8306 Q1536.8041,260.8306 1537.0541,261.0963 Q1537.3197,261.3463 1537.3197,261.69 Q1537.3197,262.0338 1536.9759,262.44 Q1536.4759,263.0181 1535.6791,263.3463 Q1534.6009,263.7994 1533.3041,263.7994 Q1531.7884,263.7994 1530.5853,263.1744 Q1529.6009,262.6744 1528.9134,261.6119 Q1528.2259,260.5338 1528.2259,259.2525 L1528.2259,258.0963 Q1528.2259,256.7681 1528.8353,255.6275 Q1529.4603,254.4713 1530.5541,253.8619 Q1531.6478,253.2369 1532.8822,253.2369 Q1533.6166,253.2369 1534.2572,253.4088 Q1534.9134,253.565 1535.4603,253.9244 Z " fill="#000000"/><text fill="#000000" font-family="sans-serif" font-size="14" lengthAdjust="spacing" textLength="141.6201" x="1551.6202" y="263.7779">Indelible Spiritual Mark</text><line style="stroke:#181818;stroke-width:0.5;" x1="1496.53" x2="1717.405" y1="274.0494" y2="274.0494"/><text fill="#000000" font-family="sans-serif" font-size="14" lengthAdjust="spacing" textLength="201.5713" x="1501.53" y="292.5826">Description: Cannot be repeated</text><text fill="#000000" font-family="sans-serif" font-size="14" lengthAdjust="spacing" textLength="210.875" x="1501.53" y="310.192">Permanent sacramental character</text><line style="stroke:#181818;stroke-width:0.5;" x1="1496.53" x2="1717.405" y1="317.2681" y2="317.2681"/></g><!--class Gateway--><g class="entity" data-entity="Gateway" data-source-line="36" data-uid="ent0009" id="entity_Gateway"><rect fill="#F1F1F1" height="83.2188" rx="2.5" ry="2.5" style="stroke:#181818;stroke-width:0.5;" width="244.6543" x="1753.65" y="242.0494"/><ellipse cx="1779.6082" cy="258.0494" fill="#ADD1B2" rx="11" ry="11" style="stroke:#181818;stroke-width:1;"/><path d="M1782.3738,253.9244 Q1782.5301,253.7056 1782.7176,253.5963 Q1782.9051,253.4869 1783.1238,253.4869 Q1783.4988,253.4869 1783.7332,253.7525 Q1783.9676,254.0025 1783.9676,254.6119 L1783.9676,256.065 Q1783.9676,256.6744 1783.7332,256.94 Q1783.4988,257.2056 1783.1238,257.2056 Q1782.7801,257.2056 1782.577,257.0025 Q1782.3738,256.815 1782.2645,256.2994 Q1782.2176,255.94 1782.0301,255.7525 Q1781.702,255.3775 1781.0926,255.1588 Q1780.4832,254.94 1779.8582,254.94 Q1779.0926,254.94 1778.452,255.2681 Q1777.827,255.5963 1777.327,256.3463 Q1776.8426,257.0963 1776.8426,258.1275 L1776.8426,259.2213 Q1776.8426,260.4556 1777.7332,261.2838 Q1778.6238,262.0963 1780.2176,262.0963 Q1781.1551,262.0963 1781.8113,261.8463 Q1782.202,261.69 1782.6238,261.2525 Q1782.8895,260.9869 1783.0301,260.9088 Q1783.1863,260.8306 1783.3895,260.8306 Q1783.7176,260.8306 1783.9676,261.0963 Q1784.2332,261.3463 1784.2332,261.69 Q1784.2332,262.0338 1783.8895,262.44 Q1783.3895,263.0181 1782.5926,263.3463 Q1781.5145,263.7994 1780.2176,263.7994 Q1778.702,263.7994 1777.4988,263.1744 Q1776.5145,262.6744 1775.827,261.6119 Q1775.1395,260.5338 1775.1395,259.2525 L1775.1395,258.0963 Q1775.1395,256.7681 1775.7488,255.6275 Q1776.3738,254.4713 1777.4676,253.8619 Q1778.5613,253.2369 1779.7957,253.2369 Q1780.5301,253.2369 1781.1707,253.4088 Q1781.827,253.565 1782.3738,253.9244 Z " fill="#000000"/><text fill="#000000" font-family="sans-serif" font-size="14" lengthAdjust="spacing" textLength="188.3027" x="1796.0434" y="263.7779">Gateway to Other Sacraments</text><line style="stroke:#181818;stroke-width:0.5;" x1="1754.65" x2="1997.3043" y1="274.0494" y2="274.0494"/><text fill="#000000" font-family="sans-serif" font-size="14" lengthAdjust="spacing" textLength="232.6543" x="1759.65" y="292.5826">Description: Prerequisite for receiving</text><text fill="#000000" font-family="sans-serif" font-size="14" lengthAdjust="spacing" textLength="154.8408" x="1759.65" y="310.192">Confirmation &amp; Eucharist</text><line style="stroke:#181818;stroke-width:0.5;" x1="1754.65" x2="1997.3043" y1="317.2681" y2="317.2681"/></g><!--link Baptism to Forgiveness--><g class="link" data-entity-1="Baptism" data-entity-2="Forgiveness" data-source-line="41" data-uid="lnk10" id="link_Baptism_Forgiveness"><path codeLine="41" d="M761.4,130.2094 C590.1,150.1794 365.04,184.7494 171.97,242.0494 C166.5,243.6794 166.5516,243.4894 161.0016,245.5294" fill="none" id="Baptism-to-Forgiveness" style="stroke:#181818;stroke-width:1;"/><polygon fill="#181818" points="155.37,247.5994,165.1974,248.2488,160.063,245.8744,162.4374,240.74,155.37,247.5994" style="stroke:#181818;stroke-width:1;"/><text fill="#000000" font-family="sans-serif" font-size="13" lengthAdjust="spacing" textLength="54.1963" x="357.41" y="208.5445">Cleanses</text></g><!--link Baptism to Grace--><g class="link" data-entity-1="Baptism" data-entity-2="Grace" data-source-line="42" data-uid="lnk11" id="link_Baptism_Grace"><path codeLine="42" d="M794.46,164.4994 C698.65,188.3794 586.99,216.3594 485.97,242.0494 C475.33,244.7594 470.1021,246.0896 459.0221,248.9296" fill="none" id="Baptism-to-Grace" style="stroke:#181818;stroke-width:1;"/><polygon fill="#181818" points="453.21,250.4194,462.9213,252.0595,458.0534,249.1779,460.935,244.31,453.21,250.4194" style="stroke:#181818;stroke-width:1;"/><text fill="#000000" font-family="sans-serif" font-size="13" lengthAdjust="spacing" textLength="41.9136" x="666.71" y="208.5445">Infuses</text></g><!--link Baptism to HolySpirit--><g class="link" data-entity-1="Baptism" data-entity-2="HolySpirit" data-source-line="43" data-uid="lnk12" id="link_Baptism_HolySpirit"><path codeLine="43" d="M912.92,164.4694 C855.24,193.1194 793.4239,223.8308 745.1739,247.7908" fill="none" id="Baptism-to-HolySpirit" style="stroke:#181818;stroke-width:1;"/><polygon fill="#181818" points="739.8,250.4594,749.6399,250.0391,744.2782,248.2356,746.0818,242.8739,739.8,250.4594" style="stroke:#181818;stroke-width:1;"/><text fill="#000000" font-family="sans-serif" font-size="13" lengthAdjust="spacing" textLength="49.1309" x="853.97" y="208.5445">Bestows</text></g><!--link Baptism to Adoption--><g class="link" data-entity-1="Baptism" data-entity-2="Adoption" data-source-line="44" data-uid="lnk13" id="link_Baptism_Adoption"><path codeLine="44" d="M1030.97,164.2194 C1030.97,192.8894 1030.97,220.3394 1030.97,244.3694" fill="none" id="Baptism-to-Adoption" style="stroke:#181818;stroke-width:1;"/><polygon fill="#181818" points="1030.97,250.3694,1034.97,241.3694,1030.97,245.3694,1026.97,241.3694,1030.97,250.3694" style="stroke:#181818;stroke-width:1;"/><text fill="#000000" font-family="sans-serif" font-size="13" lengthAdjust="spacing" textLength="129.3525" x="1031.97" y="208.5445">Adopts into Divine Life</text></g><!--link Baptism to ChurchMembership--><g class="link" data-entity-1="Baptism" data-entity-2="ChurchMembership" data-source-line="45" data-uid="lnk14" id="link_Baptism_ChurchMembership"><path codeLine="45" d="M1132.77,164.4694 C1176.76,189.7994 1221.9509,215.8344 1261.7909,238.7844" fill="none" id="Baptism-to-ChurchMembership" style="stroke:#181818;stroke-width:1;"/><polygon fill="#181818" points="1266.99,241.7794,1261.188,233.8209,1262.6574,239.2836,1257.1948,240.753,1266.99,241.7794" style="stroke:#181818;stroke-width:1;"/><text fill="#000000" font-family="sans-serif" font-size="13" lengthAdjust="spacing" textLength="142.3525" x="1212.97" y="208.5445">Incorporates into Church</text></g><!--link Baptism to Character--><g class="link" data-entity-1="Baptism" data-entity-2="Character" data-source-line="46" data-uid="lnk15" id="link_Baptism_Character"><path codeLine="46" d="M1263.29,164.4894 C1297.2,173.8894 1331.59,183.8794 1363.97,194.0494 C1409.28,208.2794 1452.997,223.7762 1495.307,239.5262" fill="none" id="Baptism-to-Character" style="stroke:#181818;stroke-width:1;"/><polygon fill="#181818" points="1500.93,241.6194,1493.8909,234.7309,1496.2441,239.8751,1491.1,242.2283,1500.93,241.6194" style="stroke:#181818;stroke-width:1;"/><text fill="#000000" font-family="sans-serif" font-size="13" lengthAdjust="spacing" textLength="46.23" x="1418.79" y="208.5445">Imprints</text></g><!--link Baptism to Gateway--><g class="link" data-entity-1="Baptism" data-entity-2="Gateway" data-source-line="47" data-uid="lnk16" id="link_Baptism_Gateway"><path codeLine="47" d="M1300.45,151.9294 C1432.35,175.9994 1593.12,207.6094 1735.97,242.0494 C1741.63,243.4194 1741.5923,243.3526 1747.4123,244.8626" fill="none" id="Baptism-to-Gateway" style="stroke:#181818;stroke-width:1;"/><polygon fill="#181818" points="1753.22,246.3694,1745.513,240.2373,1748.3802,245.1137,1743.5039,247.981,1753.22,246.3694" style="stroke:#181818;stroke-width:1;"/><text fill="#000000" font-family="sans-serif" font-size="13" lengthAdjust="spacing" textLength="185.7134" x="1603.02" y="208.5445">Opens path to other sacraments</text></g><!--SRC=[RLHDRzim3BtxLn0vh2tG_e4S1ZHfsXLOqM8Pi4ikYat7n6JAa-Hcth3_FbB-QDpqaeYH-1xv7fb8qI9ioXBp6C1m0IjaB4a2LyAwyXGY6OQLQIA56YxN9bREKWxVqUGLyU4gkx1OHeWEF1sg20Lv0IF7MNO1JuOOWiczgP4ZvDQ4aALFM4oOs_7-QW4cJ5n_Cv3y6D4luOUHBudldQ-Ni7Y4lJxwWz2v5eGYLWWi65grdk-bJFJNgQFXfwtZMVp5sGws3NcA2sKYbbwLwzaNnCPtS0Ch2fLhhk754uPu3NVIjECTRtv7RzpRkrlke44V7CEHOWMDTn9AOL6wolwf4gF6mZuqEEeWFHteLMGFwNPBd6Gu_LcbUEJSjWK6BP0EmcprwOvV4cyV1RYaKfhihfHqmDyQ5Z_AJio21szoJF3fb83lCEIU6hLi2NVqIenWgKGflsm35jg6Iv85rzeJu4SkZcYjudwWgP9et8VdJ5i1WptchaQPF8XODnO_03eXl2rSIbReTKKsUVdWYiGrNPunhGQI6kkzkDBdN0GeJKsscpMKEzyuRnBErFQwQdrUBNfMFJube51HSqws4SzzI7ahLtHlQxHZ7Rw3KPVgDu1XU7lWkRXeQI-Iz3Aqul2JyJ-7CepO9qJd_6l3xA882nuRbBKfqeZKXdK1frKKj7m4EM5za8IZwNIRdtM3ODhDq4_DS7z6- -BHuw-M0aM4qdbXpr5dwR3ZjUEIf8AawYVOjCeiYlIByGrjkb4rGZOk_ytDvza6I6CM3GUSF-cdU2dBeQCwlpiPFfs14Drn_c2Qc6L_3BtbmmfybHMOFJ_pNcd7WS4XUV1ndZUQ9Gbru-NTkoO6KMMp6vJfQEJFInrmoO79if3z1m00]--></g></svg>