<svg xmlns="http://www.w3.org/2000/svg" xmlns:xlink="http://www.w3.org/1999/xlink" contentStyleType="text/css" data-diagram-type="SEQUENCE" height="726px" preserveAspectRatio="none" style="width:1055px;height:726px;background:#FFFFFF;" version="1.1" viewBox="0 0 1055 726" width="1055px" zoomAndPan="magnify"><title>Matthew 3 - Key Events and Interactions</title><defs/><g><text fill="#000000" font-family="sans-serif" font-size="14" font-weight="bold" lengthAdjust="spacing" textLength="267.6201" x="389.8723" y="29.5332">Matthew 3 - Key Events and Interactions</text><g><title>Crowds</title><rect fill="#000000" fill-opacity="0.00000" height="523.2734" width="8" x="27.7275" y="121.2188"/><line style="stroke:#181818;stroke-width:0.5;stroke-dasharray:5,5;" x1="31" x2="31" y1="121.2188" y2="644.4922"/></g><g><title>Pharisees . Sadducees</title><rect fill="#000000" fill-opacity="0.00000" height="523.2734" width="8" x="142.1685" y="121.2188"/><line style="stroke:#181818;stroke-width:0.5;stroke-dasharray:5,5;" x1="145.4551" x2="145.4551" y1="121.2188" y2="644.4922"/></g><g><title>John the Baptist</title><rect fill="#000000" fill-opacity="0.00000" height="523.2734" width="8" x="409.5249" y="121.2188"/><line style="stroke:#181818;stroke-width:0.5;stroke-dasharray:5,5;" x1="413.3252" x2="413.3252" y1="121.2188" y2="644.4922"/></g><g><title>Jesus</title><rect fill="#000000" fill-opacity="0.00000" height="523.2734" width="8" x="651.5923" y="121.2188"/><line style="stroke:#181818;stroke-width:0.5;stroke-dasharray:5,5;" x1="655.3062" x2="655.3062" y1="121.2188" y2="644.4922"/></g><g><title>Holy Spirit</title><rect fill="#000000" fill-opacity="0.00000" height="523.2734" width="8" x="838.1875" y="121.2188"/><line style="stroke:#181818;stroke-width:0.5;stroke-dasharray:5,5;" x1="841.291" x2="841.291" y1="121.2188" y2="644.4922"/></g><g><title>Voice of God</title><rect fill="#000000" fill-opacity="0.00000" height="523.2734" width="8" x="991.896" y="121.2188"/><line style="stroke:#181818;stroke-width:0.5;stroke-dasharray:5,5;" x1="995.4272" x2="995.4272" y1="121.2188" y2="644.4922"/></g><g class="participant participant-head" data-participant="Crowds"><text fill="#000000" font-family="sans-serif" font-size="14" lengthAdjust="spacing" textLength="47.4551" x="5" y="118.1426">Crowds</text><ellipse cx="31.7275" cy="52.1094" fill="#E2E2F0" rx="8" ry="8" style="stroke:#181818;stroke-width:0.5;"/><path d="M31.7275,60.1094 L31.7275,87.1094 M18.7275,68.1094 L44.7275,68.1094 M31.7275,87.1094 L18.7275,102.1094 M31.7275,87.1094 L44.7275,102.1094" fill="none" style="stroke:#181818;stroke-width:0.5;"/></g><g class="participant participant-tail" data-participant="Crowds"><text fill="#000000" font-family="sans-serif" font-size="14" lengthAdjust="spacing" textLength="47.4551" x="5" y="658.0254">Crowds</text><ellipse cx="31.7275" cy="669.6016" fill="#E2E2F0" rx="8" ry="8" style="stroke:#181818;stroke-width:0.5;"/><path d="M31.7275,677.6016 L31.7275,704.6016 M18.7275,685.6016 L44.7275,685.6016 M31.7275,704.6016 L18.7275,719.6016 M31.7275,704.6016 L44.7275,719.6016" fill="none" style="stroke:#181818;stroke-width:0.5;"/></g><g class="participant participant-head" data-participant="Leaders"><text fill="#000000" font-family="sans-serif" font-size="14" lengthAdjust="spacing" textLength="149.4268" x="68.4551" y="118.1426">Pharisees &amp; Sadducees</text><ellipse cx="146.1685" cy="52.1094" fill="#E2E2F0" rx="8" ry="8" style="stroke:#181818;stroke-width:0.5;"/><path d="M146.1685,60.1094 L146.1685,87.1094 M133.1685,68.1094 L159.1685,68.1094 M146.1685,87.1094 L133.1685,102.1094 M146.1685,87.1094 L159.1685,102.1094" fill="none" style="stroke:#181818;stroke-width:0.5;"/></g><g class="participant participant-tail" data-participant="Leaders"><text fill="#000000" font-family="sans-serif" font-size="14" lengthAdjust="spacing" textLength="149.4268" x="68.4551" y="658.0254">Pharisees &amp; Sadducees</text><ellipse cx="146.1685" cy="669.6016" fill="#E2E2F0" rx="8" ry="8" style="stroke:#181818;stroke-width:0.5;"/><path d="M146.1685,677.6016 L146.1685,704.6016 M133.1685,685.6016 L159.1685,685.6016 M146.1685,704.6016 L133.1685,719.6016 M146.1685,704.6016 L159.1685,719.6016" fill="none" style="stroke:#181818;stroke-width:0.5;"/></g><g class="participant participant-head" data-participant="John"><rect fill="#E2E2F0" height="31.6094" rx="2.5" ry="2.5" style="stroke:#181818;stroke-width:0.5;" width="114.3994" x="356.3252" y="88.6094"/><text fill="#000000" font-family="sans-serif" font-size="14" lengthAdjust="spacing" textLength="100.3994" x="363.3252" y="110.1426">John the Baptist</text></g><g class="participant participant-tail" data-participant="John"><rect fill="#E2E2F0" height="31.6094" rx="2.5" ry="2.5" style="stroke:#181818;stroke-width:0.5;" width="114.3994" x="356.3252" y="643.4922"/><text fill="#000000" font-family="sans-serif" font-size="14" lengthAdjust="spacing" textLength="100.3994" x="363.3252" y="665.0254">John the Baptist</text></g><g class="participant participant-head" data-participant="Jesus"><rect fill="#E2E2F0" height="31.6094" rx="2.5" ry="2.5" style="stroke:#181818;stroke-width:0.5;" width="50.5723" x="630.3062" y="88.6094"/><text fill="#000000" font-family="sans-serif" font-size="14" lengthAdjust="spacing" textLength="36.5723" x="637.3062" y="110.1426">Jesus</text></g><g class="participant participant-tail" data-participant="Jesus"><rect fill="#E2E2F0" height="31.6094" rx="2.5" ry="2.5" style="stroke:#181818;stroke-width:0.5;" width="50.5723" x="630.3062" y="643.4922"/><text fill="#000000" font-family="sans-serif" font-size="14" lengthAdjust="spacing" textLength="36.5723" x="637.3062" y="665.0254">Jesus</text></g><g class="participant participant-head" data-participant="Spirit"><rect fill="#E2E2F0" height="31.6094" rx="2.5" ry="2.5" style="stroke:#181818;stroke-width:0.5;" width="77.793" x="803.291" y="88.6094"/><text fill="#000000" font-family="sans-serif" font-size="14" lengthAdjust="spacing" textLength="63.793" x="810.291" y="110.1426">Holy Spirit</text></g><g class="participant participant-tail" data-participant="Spirit"><rect fill="#E2E2F0" height="31.6094" rx="2.5" ry="2.5" style="stroke:#181818;stroke-width:0.5;" width="77.793" x="803.291" y="643.4922"/><text fill="#000000" font-family="sans-serif" font-size="14" lengthAdjust="spacing" textLength="63.793" x="810.291" y="665.0254">Holy Spirit</text></g><g class="participant participant-head" data-participant="Father"><rect fill="#E2E2F0" height="31.6094" rx="2.5" ry="2.5" style="stroke:#181818;stroke-width:0.5;" width="94.9375" x="948.4272" y="88.6094"/><text fill="#000000" font-family="sans-serif" font-size="14" lengthAdjust="spacing" textLength="80.9375" x="955.4272" y="110.1426">Voice of God</text></g><g class="participant participant-tail" data-participant="Father"><rect fill="#E2E2F0" height="31.6094" rx="2.5" ry="2.5" style="stroke:#181818;stroke-width:0.5;" width="94.9375" x="948.4272" y="643.4922"/><text fill="#000000" font-family="sans-serif" font-size="14" lengthAdjust="spacing" textLength="80.9375" x="955.4272" y="665.0254">Voice of God</text></g><rect fill="#EEEEEE" height="3" style="stroke:#EEEEEE;stroke-width:1;" width="1048.3647" x="0" y="152.3945"/><line style="stroke:#000000;stroke-width:1;" x1="0" x2="1048.3647" y1="152.3945" y2="152.3945"/><line style="stroke:#000000;stroke-width:1;" x1="0" x2="1048.3647" y1="155.3945" y2="155.3945"/><rect fill="#EEEEEE" height="24.3516" style="stroke:#000000;stroke-width:2;" width="112.4395" x="467.9626" y="141.2188"/><text fill="#000000" font-family="sans-serif" font-size="13" font-weight="bold" lengthAdjust="spacing" textLength="94.8276" x="473.9626" y="158.7139">John's Ministry</text><g class="message" data-participant-1="John" data-participant-2="Crowds"><polygon fill="#181818" points="42.7275,196.9219,32.7275,200.9219,42.7275,204.9219,38.7275,200.9219" style="stroke:#181818;stroke-width:1;"/><line style="stroke:#181818;stroke-width:1;" x1="36.7275" x2="412.5249" y1="200.9219" y2="200.9219"/><text fill="#000000" font-family="sans-serif" font-size="13" lengthAdjust="spacing" textLength="291.0718" x="48.7275" y="196.0654">Preaches "Repent, Kingdom of Heaven is at hand"</text></g><path d="M418,180.5703 L418,206.5703 L603,206.5703 L603,190.5703 L593,180.5703 L418,180.5703" fill="#FEFFDD" style="stroke:#181818;stroke-width:0.5;"/><path d="M593,180.5703 L593,190.5703 L603,190.5703 L593,180.5703" fill="#FEFFDD" style="stroke:#181818;stroke-width:0.5;"/><text fill="#000000" font-family="sans-serif" font-size="13" lengthAdjust="spacing" textLength="164.7725" x="424" y="199.0654">Isaiah 40:3 prophecy fulfilled</text><g class="message" data-participant-1="Crowds" data-participant-2="John"><polygon fill="#181818" points="401.5249,230.2734,411.5249,234.2734,401.5249,238.2734,405.5249,234.2734" style="stroke:#181818;stroke-width:1;"/><line style="stroke:#181818;stroke-width:1;" x1="31.7275" x2="407.5249" y1="234.2734" y2="234.2734"/><text fill="#000000" font-family="sans-serif" font-size="13" lengthAdjust="spacing" textLength="194.3716" x="38.7275" y="229.417">Confess sins and receive baptism</text></g><g class="message" data-participant-1="Leaders" data-participant-2="John"><polygon fill="#181818" points="401.5249,260.625,411.5249,264.625,401.5249,268.625,405.5249,264.625" style="stroke:#181818;stroke-width:1;"/><line style="stroke:#181818;stroke-width:1;" x1="146.1685" x2="407.5249" y1="264.625" y2="264.625"/><text fill="#000000" font-family="sans-serif" font-size="13" lengthAdjust="spacing" textLength="148.1226" x="153.1685" y="259.7686">Come to observe baptism</text></g><g class="message" data-participant-1="John" data-participant-2="Leaders"><polygon fill="#181818" points="157.1685,290.9766,147.1685,294.9766,157.1685,298.9766,153.1685,294.9766" style="stroke:#181818;stroke-width:1;"/><line style="stroke:#181818;stroke-width:1;" x1="151.1685" x2="412.5249" y1="294.9766" y2="294.9766"/><text fill="#000000" font-family="sans-serif" font-size="13" lengthAdjust="spacing" textLength="243.3564" x="163.1685" y="290.1201">"Brood of vipers! Bear fruit of repentance!"</text></g><g class="message" data-participant-1="John" data-participant-2="Crowds"><polygon fill="#181818" points="42.7275,321.3281,32.7275,325.3281,42.7275,329.3281,38.7275,325.3281" style="stroke:#181818;stroke-width:1;"/><line style="stroke:#181818;stroke-width:1;" x1="36.7275" x2="412.5249" y1="325.3281" y2="325.3281"/><text fill="#000000" font-family="sans-serif" font-size="13" lengthAdjust="spacing" textLength="274.3774" x="48.7275" y="320.4717">"One mightier will baptize with Holy Spirit &amp; fire"</text></g><rect fill="#EEEEEE" height="3" style="stroke:#EEEEEE;stroke-width:1;" width="1048.3647" x="0" y="354.5039"/><line style="stroke:#000000;stroke-width:1;" x1="0" x2="1048.3647" y1="354.5039" y2="354.5039"/><line style="stroke:#000000;stroke-width:1;" x1="0" x2="1048.3647" y1="357.5039" y2="357.5039"/><rect fill="#EEEEEE" height="24.3516" style="stroke:#000000;stroke-width:2;" width="125.2554" x="461.5547" y="343.3281"/><text fill="#000000" font-family="sans-serif" font-size="13" font-weight="bold" lengthAdjust="spacing" textLength="107.6436" x="467.5547" y="360.8232">Baptism of Jesus</text><g class="message" data-participant-1="Jesus" data-participant-2="John"><polygon fill="#181818" points="424.5249,396.0313,414.5249,400.0313,424.5249,404.0313,420.5249,400.0313" style="stroke:#181818;stroke-width:1;"/><line style="stroke:#181818;stroke-width:1;" x1="418.5249" x2="654.5923" y1="400.0313" y2="400.0313"/><text fill="#000000" font-family="sans-serif" font-size="13" lengthAdjust="spacing" textLength="97.5508" x="430.5249" y="395.1748">Request baptism</text></g><g class="message" data-participant-1="John" data-participant-2="Jesus"><polygon fill="#181818" points="643.5923,426.3828,653.5923,430.3828,643.5923,434.3828,647.5923,430.3828" style="stroke:#181818;stroke-width:1;"/><line style="stroke:#181818;stroke-width:1;" x1="413.5249" x2="649.5923" y1="430.3828" y2="430.3828"/><text fill="#000000" font-family="sans-serif" font-size="13" lengthAdjust="spacing" textLength="171.1201" x="420.5249" y="425.5264">"I should be baptized by you!"</text></g><g class="message" data-participant-1="Jesus" data-participant-2="John"><polygon fill="#181818" points="424.5249,456.7344,414.5249,460.7344,424.5249,464.7344,420.5249,460.7344" style="stroke:#181818;stroke-width:1;"/><line style="stroke:#181818;stroke-width:1;" x1="418.5249" x2="654.5923" y1="460.7344" y2="460.7344"/><text fill="#000000" font-family="sans-serif" font-size="13" lengthAdjust="spacing" textLength="218.0674" x="430.5249" y="455.8779">"Let it be so to fulfill all righteousness"</text></g><g class="message" data-participant-1="John" data-participant-2="Jesus"><polygon fill="#181818" points="643.5923,487.0859,653.5923,491.0859,643.5923,495.0859,647.5923,491.0859" style="stroke:#181818;stroke-width:1;"/><line style="stroke:#181818;stroke-width:1;" x1="413.5249" x2="649.5923" y1="491.0859" y2="491.0859"/><text fill="#000000" font-family="sans-serif" font-size="13" lengthAdjust="spacing" textLength="166.207" x="420.5249" y="486.2295">Baptizes Jesus in the Jordan</text></g><rect fill="#EEEEEE" height="3" style="stroke:#EEEEEE;stroke-width:1;" width="1048.3647" x="0" y="520.2617"/><line style="stroke:#000000;stroke-width:1;" x1="0" x2="1048.3647" y1="520.2617" y2="520.2617"/><line style="stroke:#000000;stroke-width:1;" x1="0" x2="1048.3647" y1="523.2617" y2="523.2617"/><rect fill="#EEEEEE" height="24.3516" style="stroke:#000000;stroke-width:2;" width="125.979" x="461.1929" y="509.0859"/><text fill="#000000" font-family="sans-serif" font-size="13" font-weight="bold" lengthAdjust="spacing" textLength="108.3672" x="467.1929" y="526.5811">Divine Revelation</text><g class="message" data-participant-1="Jesus" data-participant-2="Spirit"><polygon fill="#181818" points="830.1875,561.7891,840.1875,565.7891,830.1875,569.7891,834.1875,565.7891" style="stroke:#181818;stroke-width:1;"/><line style="stroke:#181818;stroke-width:1;" x1="655.5923" x2="836.1875" y1="565.7891" y2="565.7891"/><text fill="#000000" font-family="sans-serif" font-size="13" lengthAdjust="spacing" textLength="162.5952" x="662.5923" y="560.9326">Receives descent as a dove</text></g><g class="message" data-participant-1="Spirit" data-participant-2="Jesus"><polygon fill="#181818" points="666.5923,592.1406,656.5923,596.1406,666.5923,600.1406,662.5923,596.1406" style="stroke:#181818;stroke-width:1;"/><line style="stroke:#181818;stroke-width:1;" x1="660.5923" x2="841.1875" y1="596.1406" y2="596.1406"/><text fill="#000000" font-family="sans-serif" font-size="13" lengthAdjust="spacing" textLength="43.3608" x="672.5923" y="591.2842">Anoints</text></g><g class="message" data-participant-1="Father" data-participant-2="Jesus"><polygon fill="#181818" points="666.5923,622.4922,656.5923,626.4922,666.5923,630.4922,662.5923,626.4922" style="stroke:#181818;stroke-width:1;"/><line style="stroke:#181818;stroke-width:1;" x1="660.5923" x2="994.896" y1="626.4922" y2="626.4922"/><text fill="#000000" font-family="sans-serif" font-size="13" lengthAdjust="spacing" textLength="316.3037" x="672.5923" y="621.6357">"This is my beloved Son, with whom I am well pleased"</text></g><!--SRC=[PPFBRjim44Nt_8eRBTfD0XH8LmPSe4uVSHveO1VTq-8e740YLPAoeNvzHwJSsWuW0IDgo3ltp31nQWdFEYLB1zpY1eyqukkUN8hGpc3j4WLT9_OkAYM13wZkWZ-OM457bF3uuyNgm94euXsssfYXbZZdFP4s5ABgTKXSSwzTGlNWhOCeOwNxn37bp6dn8etYK4x9qVdFUz-EsFOSk6mluNdEByyrmJVuxarE-gP5DIYrN6Qvzn7FxAI0C6AvLBcicq-pjmLU0kdQYgbgGxsGkSOZkrVZk-d8Uz922oou4gmWgvJpYH3urQO5rb6pjlZuON6BFlZUKZsY6Tg6svQCKaLZKfjK5xZphg4O4TcL1WIgYVU4NKRKAJMJFDtI4PA7tqKA9vb76_E61QfLyDvCHU-vbvKhh4W7D67WDAs6x4wxcgugzOP2zSCHkiaLKy11wYzAVqW-aiL98wJx3GUgCk3IsymgjoyJpi4_1nlwFL1CRohFQQAyHhH-Q0rsTDIKUCJe1wdquh3gYHAa1icDVk8oquQMDtU5_12TGAukXLRbx7dEm6Ku7tmmscKlNtZFGc53UshrT2VEp1JpavtSiWX3iHQYqyHf6BydDVFvB_dPUPQxfif4dfh-QMMcvEb6iTBAPeEjTzS5zi7AzAsXEnn8RFKjwKWoUdy1]--></g></svg>