<svg xmlns="http://www.w3.org/2000/svg" xmlns:xlink="http://www.w3.org/1999/xlink" contentStyleType="text/css" data-diagram-type="ACTIVITY" height="913px" preserveAspectRatio="none" style="width:343px;height:913px;background:#FFFFFF;" version="1.1" viewBox="0 0 343 913" width="343px" zoomAndPan="magnify"><title>Timeline of the Holy Family in Matthew 2</title><defs/><g><g class="title" data-source-line="1"><text fill="#000000" font-family="sans-serif" font-size="14" font-weight="bold" lengthAdjust="spacing" textLength="269.1514" x="35.645" y="34.5332">Timeline of the Holy Family in Matthew 2</text></g><ellipse cx="171.7207" cy="58.6094" fill="#222222" rx="10" ry="10" style="stroke:#222222;stroke-width:1;"/><rect fill="#F1F1F1" height="35.0938" rx="12.5" ry="12.5" style="stroke:#181818;stroke-width:0.5;" width="201.3887" x="71.0264" y="88.6094"/><text fill="#000000" font-family="sans-serif" font-size="12" lengthAdjust="spacing" textLength="83.373" x="81.0264" y="111.0664">Jesus is born in</text><text fill="#000000" font-family="sans-serif" font-size="12" font-weight="bold" lengthAdjust="spacing" textLength="61.3477" x="167.7334" y="111.0664">Bethlehem</text><text fill="#000000" font-family="sans-serif" font-size="12" lengthAdjust="spacing" textLength="30" x="232.415" y="111.0664">(vv.1)</text><rect fill="#F1F1F1" height="50.1875" rx="12.5" ry="12.5" style="stroke:#181818;stroke-width:0.5;" width="218.7148" x="62.3633" y="143.7031"/><text fill="#000000" font-family="sans-serif" font-size="12" lengthAdjust="spacing" textLength="198.7148" x="72.3633" y="166.1602">Wise Men (Magi) arrive from the East</text><text fill="#000000" font-family="sans-serif" font-size="12" lengthAdjust="spacing" textLength="163.4121" x="72.3633" y="181.2539">and worship the child (vv.1-12)</text><rect fill="#F1F1F1" height="50.1875" rx="12.5" ry="12.5" style="stroke:#181818;stroke-width:0.5;" width="208.1035" x="67.6689" y="213.8906"/><text fill="#000000" font-family="sans-serif" font-size="12" lengthAdjust="spacing" textLength="145.4004" x="77.6689" y="236.3477">Angel warns Magi in dream</text><text fill="#000000" font-family="sans-serif" font-size="12" lengthAdjust="spacing" textLength="188.1035" x="77.6689" y="251.4414">:Magi return home by another route</text><rect fill="#F1F1F1" height="50.1875" rx="12.5" ry="12.5" style="stroke:#181818;stroke-width:0.5;" width="188.0938" x="77.6738" y="284.0781"/><text fill="#000000" font-family="sans-serif" font-size="12" lengthAdjust="spacing" textLength="168.0938" x="87.6738" y="306.5352">Angel warns Joseph in a dream</text><text fill="#000000" font-family="sans-serif" font-size="12" lengthAdjust="spacing" textLength="114.0586" x="87.6738" y="321.6289">to flee to Egypt (v.13)</text><rect fill="#F1F1F1" height="35.0938" rx="12.5" ry="12.5" style="stroke:#181818;stroke-width:0.5;" width="264.0371" x="39.7021" y="354.2656"/><text fill="#000000" font-family="sans-serif" font-size="12" lengthAdjust="spacing" textLength="106.0313" x="49.7021" y="376.7227">Holy Family departs</text><text fill="#000000" font-family="sans-serif" font-size="12" font-weight="bold" lengthAdjust="spacing" textLength="46.6582" x="159.0674" y="376.7227">by night</text><text fill="#000000" font-family="sans-serif" font-size="12" lengthAdjust="spacing" textLength="14.0039" x="209.0596" y="376.7227">for</text><text fill="#000000" font-family="sans-serif" font-size="12" font-weight="bold" lengthAdjust="spacing" textLength="33.334" x="226.3975" y="376.7227">Egypt</text><text fill="#000000" font-family="sans-serif" font-size="12" lengthAdjust="spacing" textLength="30.6738" x="263.0654" y="376.7227">(v.14)</text><rect fill="#F1F1F1" height="50.1875" rx="12.5" ry="12.5" style="stroke:#181818;stroke-width:0.5;" width="212.5977" x="65.4219" y="409.3594"/><text fill="#000000" font-family="sans-serif" font-size="12" lengthAdjust="spacing" textLength="124.0547" x="75.4219" y="431.8164">Fulfillment of prophecy:</text><text fill="#000000" font-family="sans-serif" font-size="12" lengthAdjust="spacing" textLength="192.5977" x="75.4219" y="446.9102">"Out of Egypt I called my son" (v.15)</text><rect fill="#F1F1F1" height="35.0938" rx="12.5" ry="12.5" style="stroke:#181818;stroke-width:0.5;" width="321.4414" x="11" y="479.5469"/><text fill="#000000" font-family="sans-serif" font-size="12" lengthAdjust="spacing" textLength="90.0469" x="21" y="502.0039">Herod orders the</text><text fill="#000000" font-family="sans-serif" font-size="12" font-weight="bold" lengthAdjust="spacing" textLength="150.709" x="114.3809" y="502.0039">Massacre of the Innocents</text><text fill="#000000" font-family="sans-serif" font-size="12" lengthAdjust="spacing" textLength="54.0176" x="268.4238" y="502.0039">(vv.16-18)</text><rect fill="#F1F1F1" height="50.1875" rx="12.5" ry="12.5" style="stroke:#181818;stroke-width:0.5;" width="222.7695" x="60.3359" y="534.6406"/><text fill="#000000" font-family="sans-serif" font-size="12" lengthAdjust="spacing" textLength="106.3477" x="70.3359" y="557.0977">After Herod's death,</text><text fill="#000000" font-family="sans-serif" font-size="12" lengthAdjust="spacing" textLength="202.7695" x="70.3359" y="572.1914">Angel tells Joseph to return (vv.19-20)</text><rect fill="#F1F1F1" height="35.0938" rx="12.5" ry="12.5" style="stroke:#181818;stroke-width:0.5;" width="198.1074" x="72.667" y="604.8281"/><text fill="#000000" font-family="sans-serif" font-size="12" lengthAdjust="spacing" textLength="178.1074" x="82.667" y="627.2852">Joseph is afraid to settle in Judea</text><rect fill="#F1F1F1" height="35.0938" rx="12.5" ry="12.5" style="stroke:#181818;stroke-width:0.5;" width="202.7598" x="70.3408" y="659.9219"/><text fill="#000000" font-family="sans-serif" font-size="12" lengthAdjust="spacing" textLength="182.7598" x="80.3408" y="682.3789">Angel warns him in another dream</text><rect fill="#F1F1F1" height="35.0938" rx="12.5" ry="12.5" style="stroke:#181818;stroke-width:0.5;" width="168.0605" x="87.6904" y="715.0156"/><text fill="#000000" font-family="sans-serif" font-size="12" lengthAdjust="spacing" textLength="105.3691" x="97.6904" y="737.4727">Holy Family goes to</text><text fill="#000000" font-family="sans-serif" font-size="12" font-weight="bold" lengthAdjust="spacing" textLength="39.3574" x="206.3936" y="737.4727">Galilee</text><rect fill="#F1F1F1" height="35.0938" rx="12.5" ry="12.5" style="stroke:#181818;stroke-width:0.5;" width="179.3926" x="82.0244" y="770.1094"/><text fill="#000000" font-family="sans-serif" font-size="12" lengthAdjust="spacing" textLength="71.3672" x="92.0244" y="792.5664">They settle in</text><text fill="#000000" font-family="sans-serif" font-size="12" font-weight="bold" lengthAdjust="spacing" textLength="50.6836" x="166.7256" y="792.5664">Nazareth</text><text fill="#000000" font-family="sans-serif" font-size="12" lengthAdjust="spacing" textLength="30.6738" x="220.7432" y="792.5664">(v.23)</text><rect fill="#F1F1F1" height="35.0938" rx="12.5" ry="12.5" style="stroke:#181818;stroke-width:0.5;" width="286.666" x="28.3877" y="825.2031"/><text fill="#000000" font-family="sans-serif" font-size="12" lengthAdjust="spacing" textLength="266.666" x="38.3877" y="847.6602">Prophecy fulfilled: "He shall be called a Nazarene"</text><ellipse cx="171.7207" cy="891.2969" fill="none" rx="11" ry="11" style="stroke:#222222;stroke-width:1;"/><ellipse cx="171.7207" cy="891.2969" fill="#222222" rx="6" ry="6" style="stroke:#222222;stroke-width:1;"/><line style="stroke:#181818;stroke-width:1;" x1="171.7207" x2="171.7207" y1="68.6094" y2="88.6094"/><polygon fill="#181818" points="167.7207,78.6094,171.7207,88.6094,175.7207,78.6094,171.7207,82.6094" style="stroke:#181818;stroke-width:1;"/><line style="stroke:#181818;stroke-width:1;" x1="171.7207" x2="171.7207" y1="123.7031" y2="143.7031"/><polygon fill="#181818" points="167.7207,133.7031,171.7207,143.7031,175.7207,133.7031,171.7207,137.7031" style="stroke:#181818;stroke-width:1;"/><line style="stroke:#181818;stroke-width:1;" x1="171.7207" x2="171.7207" y1="193.8906" y2="213.8906"/><polygon fill="#181818" points="167.7207,203.8906,171.7207,213.8906,175.7207,203.8906,171.7207,207.8906" style="stroke:#181818;stroke-width:1;"/><line style="stroke:#181818;stroke-width:1;" x1="171.7207" x2="171.7207" y1="264.0781" y2="284.0781"/><polygon fill="#181818" points="167.7207,274.0781,171.7207,284.0781,175.7207,274.0781,171.7207,278.0781" style="stroke:#181818;stroke-width:1;"/><line style="stroke:#181818;stroke-width:1;" x1="171.7207" x2="171.7207" y1="334.2656" y2="354.2656"/><polygon fill="#181818" points="167.7207,344.2656,171.7207,354.2656,175.7207,344.2656,171.7207,348.2656" style="stroke:#181818;stroke-width:1;"/><line style="stroke:#181818;stroke-width:1;" x1="171.7207" x2="171.7207" y1="389.3594" y2="409.3594"/><polygon fill="#181818" points="167.7207,399.3594,171.7207,409.3594,175.7207,399.3594,171.7207,403.3594" style="stroke:#181818;stroke-width:1;"/><line style="stroke:#181818;stroke-width:1;" x1="171.7207" x2="171.7207" y1="459.5469" y2="479.5469"/><polygon fill="#181818" points="167.7207,469.5469,171.7207,479.5469,175.7207,469.5469,171.7207,473.5469" style="stroke:#181818;stroke-width:1;"/><line style="stroke:#181818;stroke-width:1;" x1="171.7207" x2="171.7207" y1="514.6406" y2="534.6406"/><polygon fill="#181818" points="167.7207,524.6406,171.7207,534.6406,175.7207,524.6406,171.7207,528.6406" style="stroke:#181818;stroke-width:1;"/><line style="stroke:#181818;stroke-width:1;" x1="171.7207" x2="171.7207" y1="584.8281" y2="604.8281"/><polygon fill="#181818" points="167.7207,594.8281,171.7207,604.8281,175.7207,594.8281,171.7207,598.8281" style="stroke:#181818;stroke-width:1;"/><line style="stroke:#181818;stroke-width:1;" x1="171.7207" x2="171.7207" y1="639.9219" y2="659.9219"/><polygon fill="#181818" points="167.7207,649.9219,171.7207,659.9219,175.7207,649.9219,171.7207,653.9219" style="stroke:#181818;stroke-width:1;"/><line style="stroke:#181818;stroke-width:1;" x1="171.7207" x2="171.7207" y1="695.0156" y2="715.0156"/><polygon fill="#181818" points="167.7207,705.0156,171.7207,715.0156,175.7207,705.0156,171.7207,709.0156" style="stroke:#181818;stroke-width:1;"/><line style="stroke:#181818;stroke-width:1;" x1="171.7207" x2="171.7207" y1="750.1094" y2="770.1094"/><polygon fill="#181818" points="167.7207,760.1094,171.7207,770.1094,175.7207,760.1094,171.7207,764.1094" style="stroke:#181818;stroke-width:1;"/><line style="stroke:#181818;stroke-width:1;" x1="171.7207" x2="171.7207" y1="805.2031" y2="825.2031"/><polygon fill="#181818" points="167.7207,815.2031,171.7207,825.2031,175.7207,815.2031,171.7207,819.2031" style="stroke:#181818;stroke-width:1;"/><line style="stroke:#181818;stroke-width:1;" x1="171.7207" x2="171.7207" y1="860.2969" y2="880.2969"/><polygon fill="#181818" points="167.7207,870.2969,171.7207,880.2969,175.7207,870.2969,171.7207,874.2969" style="stroke:#181818;stroke-width:1;"/><!--SRC=[NP9DRzim38Rl_XL4Bck49QYp3spEQGNQfW6oxb1WPyQcBG6oP8Xo0lVNZvAJejr9C24-vFl8qKHBy69wiiOH-1QY9jXvEy43zaOEu-20KQfds1G5HmongFR48uDXEFhWqXMbxYXgIvfwfU3cT5gNosrH_JLCS207DmVip18m17CYQ8Flyw1xv5YWQ-3i0sipv6AjZMrcnghS2AQeVhcEB9mnE8P4IYERGDWNLVuC54TPHFkUu3W1EY-W0C6FaQJ_8s3lcGQT47Y1H0-j9G8vxxjfY39yNNv90TwRQ6YGy2nPPOGpdOuIjVL12hah1r-NN_F63wDjZRKzkPYi3i4FckgfAXRFOwxCWvwWHckfWNu2zcwH2TyoOKV1D-13Gu6p5wKEo8nrU7kd9-TyBHFuwlpxglmn2skZvC-8JooROzIVYrb296lV94ZYYxlS_tErkLrcOLT93DW6D4swoHJJtoBYzgCWjn-rQjDdfnVtsUn_1ZjFd41AFQ8rObofFEn5q_IEhjHlV4NPIyzAD_af_bmKGZkhfQQ2nOw0jHY48rrD8ipTZXRRzCFwuHy0]--></g></svg>