<svg xmlns="http://www.w3.org/2000/svg" xmlns:xlink="http://www.w3.org/1999/xlink" contentStyleType="text/css" data-diagram-type="CLASS" height="436px" preserveAspectRatio="none" style="width:2457px;height:436px;background:#FFFFFF;" version="1.1" viewBox="0 0 2457 436" width="2457px" zoomAndPan="magnify"><title>Key Individuals in Matthew 9 - Relationships with Jesus</title><defs/><g><g class="title" data-source-line="1"><text fill="#000000" font-family="sans-serif" font-size="14" font-weight="bold" lengthAdjust="spacing" textLength="370.2959" x="1036.3521" y="24.5332">Key Individuals in Matthew 9 - Relationships with Jesus</text></g><!--cluster Jesus' Ministry (Matthew 9)--><g class="cluster" data-entity="Jesus. Ministry .Matthew 9." data-source-line="3" data-uid="ent0002" id="cluster_Jesus. Ministry .Matthew 9."><path d="M8.5,44.6094 L190.9805,44.6094 A3.75,3.75 0 0 1 193.4805,47.1094 L200.4805,68.2188 L2447.5,68.2188 A2.5,2.5 0 0 1 2450,70.7188 L2450,426.5894 A2.5,2.5 0 0 1 2447.5,429.0894 L8.5,429.0894 A2.5,2.5 0 0 1 6,426.5894 L6,47.1094 A2.5,2.5 0 0 1 8.5,44.6094" fill="none" style="stroke:#000000;stroke-width:1.5;"/><line style="stroke:#000000;stroke-width:1.5;" x1="6" x2="200.4805" y1="68.2188" y2="68.2188"/><text fill="#000000" font-family="sans-serif" font-size="14" font-weight="bold" lengthAdjust="spacing" textLength="181.4805" x="10" y="61.1426">Jesus' Ministry (Matthew 9)</text></g><!--class Jesus--><g class="entity" data-entity="Jesus" data-source-line="5" data-uid="ent0003" id="entity_Jesus"><rect fill="#F1F1F1" height="153.6563" rx="2.5" ry="2.5" style="stroke:#181818;stroke-width:0.5;" width="166.0684" x="1307.97" y="80.6094"/><ellipse cx="1368.468" cy="96.6094" fill="#ADD1B2" rx="11" ry="11" style="stroke:#181818;stroke-width:1;"/><path d="M1371.2337,92.4844 Q1371.3899,92.2656 1371.5774,92.1563 Q1371.7649,92.0469 1371.9837,92.0469 Q1372.3587,92.0469 1372.593,92.3125 Q1372.8274,92.5625 1372.8274,93.1719 L1372.8274,94.625 Q1372.8274,95.2344 1372.593,95.5 Q1372.3587,95.7656 1371.9837,95.7656 Q1371.6399,95.7656 1371.4368,95.5625 Q1371.2337,95.375 1371.1243,94.8594 Q1371.0774,94.5 1370.8899,94.3125 Q1370.5618,93.9375 1369.9524,93.7188 Q1369.343,93.5 1368.718,93.5 Q1367.9524,93.5 1367.3118,93.8281 Q1366.6868,94.1563 1366.1868,94.9063 Q1365.7024,95.6563 1365.7024,96.6875 L1365.7024,97.7813 Q1365.7024,99.0156 1366.593,99.8438 Q1367.4837,100.6563 1369.0774,100.6563 Q1370.0149,100.6563 1370.6712,100.4063 Q1371.0618,100.25 1371.4837,99.8125 Q1371.7493,99.5469 1371.8899,99.4688 Q1372.0462,99.3906 1372.2493,99.3906 Q1372.5774,99.3906 1372.8274,99.6563 Q1373.093,99.9063 1373.093,100.25 Q1373.093,100.5938 1372.7493,101 Q1372.2493,101.5781 1371.4524,101.9063 Q1370.3743,102.3594 1369.0774,102.3594 Q1367.5618,102.3594 1366.3587,101.7344 Q1365.3743,101.2344 1364.6868,100.1719 Q1363.9993,99.0938 1363.9993,97.8125 L1363.9993,96.6563 Q1363.9993,95.3281 1364.6087,94.1875 Q1365.2337,93.0313 1366.3274,92.4219 Q1367.4212,91.7969 1368.6555,91.7969 Q1369.3899,91.7969 1370.0305,91.9688 Q1370.6868,92.125 1371.2337,92.4844 Z " fill="#000000"/><text fill="#000000" font-family="sans-serif" font-size="14" lengthAdjust="spacing" textLength="36.5723" x="1388.968" y="102.3379">Jesus</text><line style="stroke:#181818;stroke-width:0.5;" x1="1308.97" x2="1473.0384" y1="112.6094" y2="112.6094"/><ellipse cx="1318.97" cy="126.9141" fill="none" rx="3" ry="3" style="stroke:#038048;stroke-width:1;"/><text fill="#000000" font-family="sans-serif" font-size="14" lengthAdjust="spacing" textLength="82.4688" x="1327.97" y="131.1426">Forgives sins</text><ellipse cx="1318.97" cy="144.5234" fill="none" rx="3" ry="3" style="stroke:#038048;stroke-width:1;"/><text fill="#000000" font-family="sans-serif" font-size="14" lengthAdjust="spacing" textLength="94.9375" x="1327.97" y="148.752">Heals diseases</text><ellipse cx="1318.97" cy="162.1328" fill="none" rx="3" ry="3" style="stroke:#038048;stroke-width:1;"/><text fill="#000000" font-family="sans-serif" font-size="14" lengthAdjust="spacing" textLength="101.1787" x="1327.97" y="166.3613">Raises the dead</text><ellipse cx="1318.97" cy="179.7422" fill="none" rx="3" ry="3" style="stroke:#038048;stroke-width:1;"/><text fill="#000000" font-family="sans-serif" font-size="14" lengthAdjust="spacing" textLength="88.6963" x="1327.97" y="183.9707">Calls disciples</text><ellipse cx="1318.97" cy="197.3516" fill="none" rx="3" ry="3" style="stroke:#038048;stroke-width:1;"/><text fill="#000000" font-family="sans-serif" font-size="14" lengthAdjust="spacing" textLength="140.0684" x="1327.97" y="201.5801">Teaches with authority</text><ellipse cx="1318.97" cy="214.9609" fill="none" rx="3" ry="3" style="stroke:#038048;stroke-width:1;"/><text fill="#000000" font-family="sans-serif" font-size="14" lengthAdjust="spacing" textLength="103.4893" x="1327.97" y="219.1895">Has compassion</text><line style="stroke:#181818;stroke-width:0.5;" x1="1308.97" x2="1473.0384" y1="226.2656" y2="226.2656"/></g><!--class Paralytic Man--><g class="entity" data-entity="Paralytic Man" data-source-line="14" data-uid="ent0004" id="entity_Paralytic Man"><rect fill="#F1F1F1" height="83.2188" rx="2.5" ry="2.5" style="stroke:#181818;stroke-width:0.5;" width="129.5029" x="22.25" y="321.0694"/><ellipse cx="42.9633" cy="337.0694" fill="#ADD1B2" rx="11" ry="11" style="stroke:#181818;stroke-width:1;"/><path d="M45.729,332.9444 Q45.8852,332.7256 46.0727,332.6163 Q46.2602,332.5069 46.479,332.5069 Q46.854,332.5069 47.0883,332.7725 Q47.3227,333.0225 47.3227,333.6319 L47.3227,335.085 Q47.3227,335.6944 47.0883,335.96 Q46.854,336.2256 46.479,336.2256 Q46.1352,336.2256 45.9321,336.0225 Q45.729,335.835 45.6196,335.3194 Q45.5727,334.96 45.3852,334.7725 Q45.0571,334.3975 44.4477,334.1788 Q43.8383,333.96 43.2133,333.96 Q42.4477,333.96 41.8071,334.2881 Q41.1821,334.6163 40.6821,335.3663 Q40.1977,336.1163 40.1977,337.1475 L40.1977,338.2413 Q40.1977,339.4756 41.0883,340.3038 Q41.979,341.1163 43.5727,341.1163 Q44.5102,341.1163 45.1665,340.8663 Q45.5571,340.71 45.979,340.2725 Q46.2446,340.0069 46.3852,339.9288 Q46.5415,339.8506 46.7446,339.8506 Q47.0727,339.8506 47.3227,340.1163 Q47.5883,340.3663 47.5883,340.71 Q47.5883,341.0538 47.2446,341.46 Q46.7446,342.0381 45.9477,342.3663 Q44.8696,342.8194 43.5727,342.8194 Q42.0571,342.8194 40.854,342.1944 Q39.8696,341.6944 39.1821,340.6319 Q38.4946,339.5538 38.4946,338.2725 L38.4946,337.1163 Q38.4946,335.7881 39.104,334.6475 Q39.729,333.4913 40.8227,332.8819 Q41.9165,332.2569 43.1508,332.2569 Q43.8852,332.2569 44.5258,332.4288 Q45.1821,332.585 45.729,332.9444 Z " fill="#000000"/><text fill="#000000" font-family="sans-serif" font-size="14" lengthAdjust="spacing" textLength="84.8066" x="58.233" y="342.7979">Paralytic Man</text><line style="stroke:#181818;stroke-width:0.5;" x1="23.25" x2="150.7529" y1="353.0694" y2="353.0694"/><ellipse cx="33.25" cy="367.3741" fill="none" rx="3" ry="3" style="stroke:#038048;stroke-width:1;"/><text fill="#000000" font-family="sans-serif" font-size="14" lengthAdjust="spacing" textLength="103.5029" x="42.25" y="371.6026">Healed by Jesus</text><ellipse cx="33.25" cy="384.9834" fill="none" rx="3" ry="3" style="stroke:#038048;stroke-width:1;"/><text fill="#000000" font-family="sans-serif" font-size="14" lengthAdjust="spacing" textLength="80.9307" x="42.25" y="389.212">Sins forgiven</text><line style="stroke:#181818;stroke-width:0.5;" x1="23.25" x2="150.7529" y1="396.2881" y2="396.2881"/></g><!--class Matthew (Tax Collector)--><g class="entity" data-entity="Matthew .Tax Collector." data-source-line="19" data-uid="ent0005" id="entity_Matthew .Tax Collector."><rect fill="#F1F1F1" height="83.2188" rx="2.5" ry="2.5" style="stroke:#181818;stroke-width:0.5;" width="180.5928" x="186.7" y="321.0694"/><ellipse cx="201.7" cy="337.0694" fill="#ADD1B2" rx="11" ry="11" style="stroke:#181818;stroke-width:1;"/><path d="M204.4656,332.9444 Q204.6219,332.7256 204.8094,332.6163 Q204.9969,332.5069 205.2156,332.5069 Q205.5906,332.5069 205.825,332.7725 Q206.0594,333.0225 206.0594,333.6319 L206.0594,335.085 Q206.0594,335.6944 205.825,335.96 Q205.5906,336.2256 205.2156,336.2256 Q204.8719,336.2256 204.6688,336.0225 Q204.4656,335.835 204.3563,335.3194 Q204.3094,334.96 204.1219,334.7725 Q203.7938,334.3975 203.1844,334.1788 Q202.575,333.96 201.95,333.96 Q201.1844,333.96 200.5438,334.2881 Q199.9188,334.6163 199.4188,335.3663 Q198.9344,336.1163 198.9344,337.1475 L198.9344,338.2413 Q198.9344,339.4756 199.825,340.3038 Q200.7156,341.1163 202.3094,341.1163 Q203.2469,341.1163 203.9031,340.8663 Q204.2938,340.71 204.7156,340.2725 Q204.9813,340.0069 205.1219,339.9288 Q205.2781,339.8506 205.4813,339.8506 Q205.8094,339.8506 206.0594,340.1163 Q206.325,340.3663 206.325,340.71 Q206.325,341.0538 205.9813,341.46 Q205.4813,342.0381 204.6844,342.3663 Q203.6063,342.8194 202.3094,342.8194 Q200.7938,342.8194 199.5906,342.1944 Q198.6063,341.6944 197.9188,340.6319 Q197.2313,339.5538 197.2313,338.2725 L197.2313,337.1163 Q197.2313,335.7881 197.8406,334.6475 Q198.4656,333.4913 199.5594,332.8819 Q200.6531,332.2569 201.8875,332.2569 Q202.6219,332.2569 203.2625,332.4288 Q203.9188,332.585 204.4656,332.9444 Z " fill="#000000"/><text fill="#000000" font-family="sans-serif" font-size="14" lengthAdjust="spacing" textLength="148.5928" x="215.7" y="342.7979">Matthew (Tax Collector)</text><line style="stroke:#181818;stroke-width:0.5;" x1="187.7" x2="366.2928" y1="353.0694" y2="353.0694"/><ellipse cx="197.7" cy="367.3741" fill="none" rx="3" ry="3" style="stroke:#038048;stroke-width:1;"/><text fill="#000000" font-family="sans-serif" font-size="14" lengthAdjust="spacing" textLength="135.3994" x="206.7" y="371.6026">Called to follow Jesus</text><ellipse cx="197.7" cy="384.9834" fill="none" rx="3" ry="3" style="stroke:#038048;stroke-width:1;"/><text fill="#000000" font-family="sans-serif" font-size="14" lengthAdjust="spacing" textLength="108.9443" x="206.7" y="389.212">Becomes Apostle</text><line style="stroke:#181818;stroke-width:0.5;" x1="187.7" x2="366.2928" y1="396.2881" y2="396.2881"/></g><!--class Pharisees--><g class="entity" data-entity="Pharisees" data-source-line="24" data-uid="ent0006" id="entity_Pharisees"><rect fill="#F1F1F1" height="100.8281" rx="2.5" ry="2.5" style="stroke:#181818;stroke-width:0.5;" width="215.0752" x="1272.46" y="312.2594"/><ellipse cx="1344.6202" cy="328.2594" fill="#ADD1B2" rx="11" ry="11" style="stroke:#181818;stroke-width:1;"/><path d="M1347.3858,324.1344 Q1347.542,323.9156 1347.7295,323.8063 Q1347.917,323.6969 1348.1358,323.6969 Q1348.5108,323.6969 1348.7452,323.9625 Q1348.9795,324.2125 1348.9795,324.8219 L1348.9795,326.275 Q1348.9795,326.8844 1348.7452,327.15 Q1348.5108,327.4156 1348.1358,327.4156 Q1347.792,327.4156 1347.5889,327.2125 Q1347.3858,327.025 1347.2764,326.5094 Q1347.2295,326.15 1347.042,325.9625 Q1346.7139,325.5875 1346.1045,325.3688 Q1345.4952,325.15 1344.8702,325.15 Q1344.1045,325.15 1343.4639,325.4781 Q1342.8389,325.8063 1342.3389,326.5563 Q1341.8545,327.3063 1341.8545,328.3375 L1341.8545,329.4313 Q1341.8545,330.6656 1342.7452,331.4938 Q1343.6358,332.3063 1345.2295,332.3063 Q1346.167,332.3063 1346.8233,332.0563 Q1347.2139,331.9 1347.6358,331.4625 Q1347.9014,331.1969 1348.042,331.1188 Q1348.1983,331.0406 1348.4014,331.0406 Q1348.7295,331.0406 1348.9795,331.3063 Q1349.2452,331.5563 1349.2452,331.9 Q1349.2452,332.2438 1348.9014,332.65 Q1348.4014,333.2281 1347.6045,333.5563 Q1346.5264,334.0094 1345.2295,334.0094 Q1343.7139,334.0094 1342.5108,333.3844 Q1341.5264,332.8844 1340.8389,331.8219 Q1340.1514,330.7438 1340.1514,329.4625 L1340.1514,328.3063 Q1340.1514,326.9781 1340.7608,325.8375 Q1341.3858,324.6813 1342.4795,324.0719 Q1343.5733,323.4469 1344.8077,323.4469 Q1345.542,323.4469 1346.1827,323.6188 Q1346.8389,323.775 1347.3858,324.1344 Z " fill="#000000"/><text fill="#000000" font-family="sans-serif" font-size="14" lengthAdjust="spacing" textLength="62.2549" x="1365.1202" y="333.9879">Pharisees</text><line style="stroke:#181818;stroke-width:0.5;" x1="1273.46" x2="1486.5352" y1="344.2594" y2="344.2594"/><rect fill="none" height="6" style="stroke:#C82930;stroke-width:1;" width="6" x="1280.46" y="355.5641"/><text fill="#000000" font-family="sans-serif" font-size="14" lengthAdjust="spacing" textLength="89.4961" x="1292.46" y="362.7926">Oppose Jesus</text><rect fill="none" height="6" style="stroke:#C82930;stroke-width:1;" width="6" x="1280.46" y="373.1734"/><text fill="#000000" font-family="sans-serif" font-size="14" lengthAdjust="spacing" textLength="161.8408" x="1292.46" y="380.402">Accuse Him of blasphemy</text><rect fill="none" height="6" style="stroke:#C82930;stroke-width:1;" width="6" x="1280.46" y="390.7828"/><text fill="#000000" font-family="sans-serif" font-size="14" lengthAdjust="spacing" textLength="189.0752" x="1292.46" y="398.0113">Accuse Him of demonic power</text><line style="stroke:#181818;stroke-width:0.5;" x1="1273.46" x2="1486.5352" y1="405.0875" y2="405.0875"/></g><!--class Scribes--><g class="entity" data-entity="Scribes" data-source-line="30" data-uid="ent0007" id="entity_Scribes"><rect fill="#F1F1F1" height="83.2188" rx="2.5" ry="2.5" style="stroke:#181818;stroke-width:0.5;" width="167.6133" x="1522.19" y="321.0694"/><ellipse cx="1578.4053" cy="337.0694" fill="#ADD1B2" rx="11" ry="11" style="stroke:#181818;stroke-width:1;"/><path d="M1581.171,332.9444 Q1581.3272,332.7256 1581.5147,332.6163 Q1581.7022,332.5069 1581.921,332.5069 Q1582.296,332.5069 1582.5303,332.7725 Q1582.7647,333.0225 1582.7647,333.6319 L1582.7647,335.085 Q1582.7647,335.6944 1582.5303,335.96 Q1582.296,336.2256 1581.921,336.2256 Q1581.5772,336.2256 1581.3741,336.0225 Q1581.171,335.835 1581.0616,335.3194 Q1581.0147,334.96 1580.8272,334.7725 Q1580.4991,334.3975 1579.8897,334.1788 Q1579.2803,333.96 1578.6553,333.96 Q1577.8897,333.96 1577.2491,334.2881 Q1576.6241,334.6163 1576.1241,335.3663 Q1575.6397,336.1163 1575.6397,337.1475 L1575.6397,338.2413 Q1575.6397,339.4756 1576.5303,340.3038 Q1577.421,341.1163 1579.0147,341.1163 Q1579.9522,341.1163 1580.6085,340.8663 Q1580.9991,340.71 1581.421,340.2725 Q1581.6866,340.0069 1581.8272,339.9288 Q1581.9835,339.8506 1582.1866,339.8506 Q1582.5147,339.8506 1582.7647,340.1163 Q1583.0303,340.3663 1583.0303,340.71 Q1583.0303,341.0538 1582.6866,341.46 Q1582.1866,342.0381 1581.3897,342.3663 Q1580.3116,342.8194 1579.0147,342.8194 Q1577.4991,342.8194 1576.296,342.1944 Q1575.3116,341.6944 1574.6241,340.6319 Q1573.9366,339.5538 1573.9366,338.2725 L1573.9366,337.1163 Q1573.9366,335.7881 1574.546,334.6475 Q1575.171,333.4913 1576.2647,332.8819 Q1577.3585,332.2569 1578.5928,332.2569 Q1579.3272,332.2569 1579.9678,332.4288 Q1580.6241,332.585 1581.171,332.9444 Z " fill="#000000"/><text fill="#000000" font-family="sans-serif" font-size="14" lengthAdjust="spacing" textLength="46.6826" x="1598.9053" y="342.7979">Scribes</text><line style="stroke:#181818;stroke-width:0.5;" x1="1523.19" x2="1688.8033" y1="353.0694" y2="353.0694"/><rect fill="none" height="6" style="stroke:#C82930;stroke-width:1;" width="6" x="1530.19" y="364.3741"/><text fill="#000000" font-family="sans-serif" font-size="14" lengthAdjust="spacing" textLength="74.6826" x="1542.19" y="371.6026">Silent critics</text><rect fill="none" height="6" style="stroke:#C82930;stroke-width:1;" width="6" x="1530.19" y="381.9834"/><text fill="#000000" font-family="sans-serif" font-size="14" lengthAdjust="spacing" textLength="141.6133" x="1542.19" y="389.212">Accuse Jesus inwardly</text><line style="stroke:#181818;stroke-width:0.5;" x1="1523.19" x2="1688.8033" y1="396.2881" y2="396.2881"/></g><!--class John?s Disciples--><g class="entity" data-entity="John.s Disciples" data-source-line="35" data-uid="ent0008" id="entity_John.s Disciples"><rect fill="#F1F1F1" height="65.6094" rx="2.5" ry="2.5" style="stroke:#181818;stroke-width:0.5;" width="132.3721" x="401.81" y="329.8694"/><ellipse cx="416.81" cy="345.8694" fill="#ADD1B2" rx="11" ry="11" style="stroke:#181818;stroke-width:1;"/><path d="M419.5756,341.7444 Q419.7319,341.5256 419.9194,341.4163 Q420.1069,341.3069 420.3256,341.3069 Q420.7006,341.3069 420.935,341.5725 Q421.1694,341.8225 421.1694,342.4319 L421.1694,343.885 Q421.1694,344.4944 420.935,344.76 Q420.7006,345.0256 420.3256,345.0256 Q419.9819,345.0256 419.7788,344.8225 Q419.5756,344.635 419.4663,344.1194 Q419.4194,343.76 419.2319,343.5725 Q418.9038,343.1975 418.2944,342.9788 Q417.685,342.76 417.06,342.76 Q416.2944,342.76 415.6538,343.0881 Q415.0288,343.4163 414.5288,344.1663 Q414.0444,344.9163 414.0444,345.9475 L414.0444,347.0413 Q414.0444,348.2756 414.935,349.1038 Q415.8256,349.9163 417.4194,349.9163 Q418.3569,349.9163 419.0131,349.6663 Q419.4038,349.51 419.8256,349.0725 Q420.0913,348.8069 420.2319,348.7288 Q420.3881,348.6506 420.5913,348.6506 Q420.9194,348.6506 421.1694,348.9163 Q421.435,349.1663 421.435,349.51 Q421.435,349.8538 421.0913,350.26 Q420.5913,350.8381 419.7944,351.1663 Q418.7163,351.6194 417.4194,351.6194 Q415.9038,351.6194 414.7006,350.9944 Q413.7163,350.4944 413.0288,349.4319 Q412.3413,348.3538 412.3413,347.0725 L412.3413,345.9163 Q412.3413,344.5881 412.9506,343.4475 Q413.5756,342.2913 414.6694,341.6819 Q415.7631,341.0569 416.9975,341.0569 Q417.7319,341.0569 418.3725,341.2288 Q419.0288,341.385 419.5756,341.7444 Z " fill="#000000"/><text fill="#000000" font-family="sans-serif" font-size="14" lengthAdjust="spacing" textLength="100.3721" x="430.81" y="351.5979">John&#8217;s Disciples</text><line style="stroke:#181818;stroke-width:0.5;" x1="402.81" x2="533.1821" y1="361.8694" y2="361.8694"/><ellipse cx="412.81" cy="376.1741" fill="none" rx="3" ry="3" style="stroke:#038048;stroke-width:1;"/><text fill="#000000" font-family="sans-serif" font-size="14" lengthAdjust="spacing" textLength="101.1719" x="421.81" y="380.4026">Question fasting</text><line style="stroke:#181818;stroke-width:0.5;" x1="402.81" x2="533.1821" y1="387.4788" y2="387.4788"/></g><!--class Synagogue Ruler (Jairus)--><g class="entity" data-entity="Synagogue Ruler .Jairus." data-source-line="39" data-uid="ent0009" id="entity_Synagogue Ruler .Jairus."><rect fill="#F1F1F1" height="83.2188" rx="2.5" ry="2.5" style="stroke:#181818;stroke-width:0.5;" width="193.3369" x="569.33" y="321.0694"/><ellipse cx="585.4967" cy="337.0694" fill="#ADD1B2" rx="11" ry="11" style="stroke:#181818;stroke-width:1;"/><path d="M588.2624,332.9444 Q588.4186,332.7256 588.6061,332.6163 Q588.7936,332.5069 589.0124,332.5069 Q589.3874,332.5069 589.6217,332.7725 Q589.8561,333.0225 589.8561,333.6319 L589.8561,335.085 Q589.8561,335.6944 589.6217,335.96 Q589.3874,336.2256 589.0124,336.2256 Q588.6686,336.2256 588.4655,336.0225 Q588.2624,335.835 588.153,335.3194 Q588.1061,334.96 587.9186,334.7725 Q587.5905,334.3975 586.9811,334.1788 Q586.3717,333.96 585.7467,333.96 Q584.9811,333.96 584.3405,334.2881 Q583.7155,334.6163 583.2155,335.3663 Q582.7311,336.1163 582.7311,337.1475 L582.7311,338.2413 Q582.7311,339.4756 583.6217,340.3038 Q584.5124,341.1163 586.1061,341.1163 Q587.0436,341.1163 587.6999,340.8663 Q588.0905,340.71 588.5124,340.2725 Q588.778,340.0069 588.9186,339.9288 Q589.0749,339.8506 589.278,339.8506 Q589.6061,339.8506 589.8561,340.1163 Q590.1217,340.3663 590.1217,340.71 Q590.1217,341.0538 589.778,341.46 Q589.278,342.0381 588.4811,342.3663 Q587.403,342.8194 586.1061,342.8194 Q584.5905,342.8194 583.3874,342.1944 Q582.403,341.6944 581.7155,340.6319 Q581.028,339.5538 581.028,338.2725 L581.028,337.1163 Q581.028,335.7881 581.6374,334.6475 Q582.2624,333.4913 583.3561,332.8819 Q584.4499,332.2569 585.6842,332.2569 Q586.4186,332.2569 587.0592,332.4288 Q587.7155,332.585 588.2624,332.9444 Z " fill="#000000"/><text fill="#000000" font-family="sans-serif" font-size="14" lengthAdjust="spacing" textLength="158.7441" x="599.756" y="342.7979">Synagogue Ruler (Jairus)</text><line style="stroke:#181818;stroke-width:0.5;" x1="570.33" x2="761.6669" y1="353.0694" y2="353.0694"/><ellipse cx="580.33" cy="367.3741" fill="none" rx="3" ry="3" style="stroke:#038048;stroke-width:1;"/><text fill="#000000" font-family="sans-serif" font-size="14" lengthAdjust="spacing" textLength="167.3369" x="589.33" y="371.6026">Seeks healing for daughter</text><ellipse cx="580.33" cy="384.9834" fill="none" rx="3" ry="3" style="stroke:#038048;stroke-width:1;"/><text fill="#000000" font-family="sans-serif" font-size="14" lengthAdjust="spacing" textLength="127.6201" x="589.33" y="389.212">Shows faith in Jesus</text><line style="stroke:#181818;stroke-width:0.5;" x1="570.33" x2="761.6669" y1="396.2881" y2="396.2881"/></g><!--class Ruler's Daughter--><g class="entity" data-entity="Ruler.s Daughter" data-source-line="44" data-uid="ent0010" id="entity_Ruler.s Daughter"><rect fill="#F1F1F1" height="65.6094" rx="2.5" ry="2.5" style="stroke:#181818;stroke-width:0.5;" width="159.8545" x="798.07" y="329.8694"/><ellipse cx="823.5299" cy="345.8694" fill="#ADD1B2" rx="11" ry="11" style="stroke:#181818;stroke-width:1;"/><path d="M826.2955,341.7444 Q826.4517,341.5256 826.6392,341.4163 Q826.8267,341.3069 827.0455,341.3069 Q827.4205,341.3069 827.6549,341.5725 Q827.8892,341.8225 827.8892,342.4319 L827.8892,343.885 Q827.8892,344.4944 827.6549,344.76 Q827.4205,345.0256 827.0455,345.0256 Q826.7017,345.0256 826.4986,344.8225 Q826.2955,344.635 826.1861,344.1194 Q826.1392,343.76 825.9517,343.5725 Q825.6236,343.1975 825.0142,342.9788 Q824.4049,342.76 823.7799,342.76 Q823.0142,342.76 822.3736,343.0881 Q821.7486,343.4163 821.2486,344.1663 Q820.7642,344.9163 820.7642,345.9475 L820.7642,347.0413 Q820.7642,348.2756 821.6549,349.1038 Q822.5455,349.9163 824.1392,349.9163 Q825.0767,349.9163 825.733,349.6663 Q826.1236,349.51 826.5455,349.0725 Q826.8111,348.8069 826.9517,348.7288 Q827.108,348.6506 827.3111,348.6506 Q827.6392,348.6506 827.8892,348.9163 Q828.1549,349.1663 828.1549,349.51 Q828.1549,349.8538 827.8111,350.26 Q827.3111,350.8381 826.5142,351.1663 Q825.4361,351.6194 824.1392,351.6194 Q822.6236,351.6194 821.4205,350.9944 Q820.4361,350.4944 819.7486,349.4319 Q819.0611,348.3538 819.0611,347.0725 L819.0611,345.9163 Q819.0611,344.5881 819.6705,343.4475 Q820.2955,342.2913 821.3892,341.6819 Q822.483,341.0569 823.7174,341.0569 Q824.4517,341.0569 825.0924,341.2288 Q825.7486,341.385 826.2955,341.7444 Z " fill="#000000"/><text fill="#000000" font-family="sans-serif" font-size="14" lengthAdjust="spacing" textLength="104.6104" x="839.8543" y="351.5979">Ruler's Daughter</text><line style="stroke:#181818;stroke-width:0.5;" x1="799.07" x2="956.9245" y1="361.8694" y2="361.8694"/><ellipse cx="809.07" cy="376.1741" fill="none" rx="3" ry="3" style="stroke:#038048;stroke-width:1;"/><text fill="#000000" font-family="sans-serif" font-size="14" lengthAdjust="spacing" textLength="133.8545" x="818.07" y="380.4026">Raised from the dead</text><line style="stroke:#181818;stroke-width:0.5;" x1="799.07" x2="956.9245" y1="387.4788" y2="387.4788"/></g><!--class Hemorrhaging Woman--><g class="entity" data-entity="Hemorrhaging Woman" data-source-line="48" data-uid="ent0011" id="entity_Hemorrhaging Woman"><rect fill="#F1F1F1" height="83.2188" rx="2.5" ry="2.5" style="stroke:#181818;stroke-width:0.5;" width="244.2441" x="992.88" y="321.0694"/><ellipse cx="1040.3351" cy="337.0694" fill="#ADD1B2" rx="11" ry="11" style="stroke:#181818;stroke-width:1;"/><path d="M1043.1007,332.9444 Q1043.257,332.7256 1043.4445,332.6163 Q1043.632,332.5069 1043.8507,332.5069 Q1044.2257,332.5069 1044.4601,332.7725 Q1044.6945,333.0225 1044.6945,333.6319 L1044.6945,335.085 Q1044.6945,335.6944 1044.4601,335.96 Q1044.2257,336.2256 1043.8507,336.2256 Q1043.507,336.2256 1043.3038,336.0225 Q1043.1007,335.835 1042.9913,335.3194 Q1042.9445,334.96 1042.757,334.7725 Q1042.4288,334.3975 1041.8195,334.1788 Q1041.2101,333.96 1040.5851,333.96 Q1039.8195,333.96 1039.1788,334.2881 Q1038.5538,334.6163 1038.0538,335.3663 Q1037.5695,336.1163 1037.5695,337.1475 L1037.5695,338.2413 Q1037.5695,339.4756 1038.4601,340.3038 Q1039.3507,341.1163 1040.9445,341.1163 Q1041.882,341.1163 1042.5382,340.8663 Q1042.9288,340.71 1043.3507,340.2725 Q1043.6163,340.0069 1043.757,339.9288 Q1043.9132,339.8506 1044.1163,339.8506 Q1044.4445,339.8506 1044.6945,340.1163 Q1044.9601,340.3663 1044.9601,340.71 Q1044.9601,341.0538 1044.6163,341.46 Q1044.1163,342.0381 1043.3195,342.3663 Q1042.2413,342.8194 1040.9445,342.8194 Q1039.4288,342.8194 1038.2257,342.1944 Q1037.2413,341.6944 1036.5538,340.6319 Q1035.8663,339.5538 1035.8663,338.2725 L1035.8663,337.1163 Q1035.8663,335.7881 1036.4757,334.6475 Q1037.1007,333.4913 1038.1945,332.8819 Q1039.2882,332.2569 1040.5226,332.2569 Q1041.257,332.2569 1041.8976,332.4288 Q1042.5538,332.585 1043.1007,332.9444 Z " fill="#000000"/><text fill="#000000" font-family="sans-serif" font-size="14" lengthAdjust="spacing" textLength="140.834" x="1060.8351" y="342.7979">Hemorrhaging Woman</text><line style="stroke:#181818;stroke-width:0.5;" x1="993.88" x2="1236.1241" y1="353.0694" y2="353.0694"/><ellipse cx="1003.88" cy="367.3741" fill="none" rx="3" ry="3" style="stroke:#038048;stroke-width:1;"/><text fill="#000000" font-family="sans-serif" font-size="14" lengthAdjust="spacing" textLength="218.2441" x="1012.88" y="371.6026">Healed by touching Jesus' garment</text><ellipse cx="1003.88" cy="384.9834" fill="none" rx="3" ry="3" style="stroke:#038048;stroke-width:1;"/><text fill="#000000" font-family="sans-serif" font-size="14" lengthAdjust="spacing" textLength="117.4961" x="1012.88" y="389.212">Demonstrates faith</text><line style="stroke:#181818;stroke-width:0.5;" x1="993.88" x2="1236.1241" y1="396.2881" y2="396.2881"/></g><!--class Two Blind Men--><g class="entity" data-entity="Two Blind Men" data-source-line="53" data-uid="ent0012" id="entity_Two Blind Men"><rect fill="#F1F1F1" height="83.2188" rx="2.5" ry="2.5" style="stroke:#181818;stroke-width:0.5;" width="184.5664" x="1724.72" y="321.0694"/><ellipse cx="1766.7081" cy="337.0694" fill="#ADD1B2" rx="11" ry="11" style="stroke:#181818;stroke-width:1;"/><path d="M1769.4738,332.9444 Q1769.63,332.7256 1769.8175,332.6163 Q1770.005,332.5069 1770.2238,332.5069 Q1770.5988,332.5069 1770.8331,332.7725 Q1771.0675,333.0225 1771.0675,333.6319 L1771.0675,335.085 Q1771.0675,335.6944 1770.8331,335.96 Q1770.5988,336.2256 1770.2238,336.2256 Q1769.88,336.2256 1769.6769,336.0225 Q1769.4738,335.835 1769.3644,335.3194 Q1769.3175,334.96 1769.13,334.7725 Q1768.8019,334.3975 1768.1925,334.1788 Q1767.5831,333.96 1766.9581,333.96 Q1766.1925,333.96 1765.5519,334.2881 Q1764.9269,334.6163 1764.4269,335.3663 Q1763.9425,336.1163 1763.9425,337.1475 L1763.9425,338.2413 Q1763.9425,339.4756 1764.8331,340.3038 Q1765.7238,341.1163 1767.3175,341.1163 Q1768.255,341.1163 1768.9113,340.8663 Q1769.3019,340.71 1769.7238,340.2725 Q1769.9894,340.0069 1770.13,339.9288 Q1770.2863,339.8506 1770.4894,339.8506 Q1770.8175,339.8506 1771.0675,340.1163 Q1771.3331,340.3663 1771.3331,340.71 Q1771.3331,341.0538 1770.9894,341.46 Q1770.4894,342.0381 1769.6925,342.3663 Q1768.6144,342.8194 1767.3175,342.8194 Q1765.8019,342.8194 1764.5988,342.1944 Q1763.6144,341.6944 1762.9269,340.6319 Q1762.2394,339.5538 1762.2394,338.2725 L1762.2394,337.1163 Q1762.2394,335.7881 1762.8488,334.6475 Q1763.4738,333.4913 1764.5675,332.8819 Q1765.6613,332.2569 1766.8956,332.2569 Q1767.63,332.2569 1768.2706,332.4288 Q1768.9269,332.585 1769.4738,332.9444 Z " fill="#000000"/><text fill="#000000" font-family="sans-serif" font-size="14" lengthAdjust="spacing" textLength="92.5928" x="1786.7055" y="342.7979">Two Blind Men</text><line style="stroke:#181818;stroke-width:0.5;" x1="1725.72" x2="1908.2864" y1="353.0694" y2="353.0694"/><ellipse cx="1735.72" cy="367.3741" fill="none" rx="3" ry="3" style="stroke:#038048;stroke-width:1;"/><text fill="#000000" font-family="sans-serif" font-size="14" lengthAdjust="spacing" textLength="158.5664" x="1744.72" y="371.6026">Call Jesus "Son of David"</text><ellipse cx="1735.72" cy="384.9834" fill="none" rx="3" ry="3" style="stroke:#038048;stroke-width:1;"/><text fill="#000000" font-family="sans-serif" font-size="14" lengthAdjust="spacing" textLength="154.875" x="1744.72" y="389.212">Healed according to faith</text><line style="stroke:#181818;stroke-width:0.5;" x1="1725.72" x2="1908.2864" y1="396.2881" y2="396.2881"/></g><!--class Mute Demoniac--><g class="entity" data-entity="Mute Demoniac" data-source-line="58" data-uid="ent0013" id="entity_Mute Demoniac"><rect fill="#F1F1F1" height="83.2188" rx="2.5" ry="2.5" style="stroke:#181818;stroke-width:0.5;" width="130.041" x="1943.98" y="321.0694"/><ellipse cx="1958.98" cy="337.0694" fill="#ADD1B2" rx="11" ry="11" style="stroke:#181818;stroke-width:1;"/><path d="M1961.7456,332.9444 Q1961.9019,332.7256 1962.0894,332.6163 Q1962.2769,332.5069 1962.4956,332.5069 Q1962.8706,332.5069 1963.105,332.7725 Q1963.3394,333.0225 1963.3394,333.6319 L1963.3394,335.085 Q1963.3394,335.6944 1963.105,335.96 Q1962.8706,336.2256 1962.4956,336.2256 Q1962.1519,336.2256 1961.9488,336.0225 Q1961.7456,335.835 1961.6363,335.3194 Q1961.5894,334.96 1961.4019,334.7725 Q1961.0738,334.3975 1960.4644,334.1788 Q1959.855,333.96 1959.23,333.96 Q1958.4644,333.96 1957.8238,334.2881 Q1957.1988,334.6163 1956.6988,335.3663 Q1956.2144,336.1163 1956.2144,337.1475 L1956.2144,338.2413 Q1956.2144,339.4756 1957.105,340.3038 Q1957.9956,341.1163 1959.5894,341.1163 Q1960.5269,341.1163 1961.1831,340.8663 Q1961.5738,340.71 1961.9956,340.2725 Q1962.2613,340.0069 1962.4019,339.9288 Q1962.5581,339.8506 1962.7613,339.8506 Q1963.0894,339.8506 1963.3394,340.1163 Q1963.605,340.3663 1963.605,340.71 Q1963.605,341.0538 1963.2613,341.46 Q1962.7613,342.0381 1961.9644,342.3663 Q1960.8863,342.8194 1959.5894,342.8194 Q1958.0738,342.8194 1956.8706,342.1944 Q1955.8863,341.6944 1955.1988,340.6319 Q1954.5113,339.5538 1954.5113,338.2725 L1954.5113,337.1163 Q1954.5113,335.7881 1955.1206,334.6475 Q1955.7456,333.4913 1956.8394,332.8819 Q1957.9331,332.2569 1959.1675,332.2569 Q1959.9019,332.2569 1960.5425,332.4288 Q1961.1988,332.585 1961.7456,332.9444 Z " fill="#000000"/><text fill="#000000" font-family="sans-serif" font-size="14" lengthAdjust="spacing" textLength="98.041" x="1972.98" y="342.7979">Mute Demoniac</text><line style="stroke:#181818;stroke-width:0.5;" x1="1944.98" x2="2073.021" y1="353.0694" y2="353.0694"/><ellipse cx="1954.98" cy="367.3741" fill="none" rx="3" ry="3" style="stroke:#038048;stroke-width:1;"/><text fill="#000000" font-family="sans-serif" font-size="14" lengthAdjust="spacing" textLength="98.0479" x="1963.98" y="371.6026">Demon cast out</text><ellipse cx="1954.98" cy="384.9834" fill="none" rx="3" ry="3" style="stroke:#038048;stroke-width:1;"/><text fill="#000000" font-family="sans-serif" font-size="14" lengthAdjust="spacing" textLength="84.8408" x="1963.98" y="389.212">Speaks again</text><line style="stroke:#181818;stroke-width:0.5;" x1="1944.98" x2="2073.021" y1="396.2881" y2="396.2881"/></g><!--class Crowds--><g class="entity" data-entity="Crowds" data-source-line="63" data-uid="ent0014" id="entity_Crowds"><rect fill="#F1F1F1" height="83.2188" rx="2.5" ry="2.5" style="stroke:#181818;stroke-width:0.5;" width="131.793" x="2302.1" y="321.0694"/><ellipse cx="2340.6521" cy="337.0694" fill="#ADD1B2" rx="11" ry="11" style="stroke:#181818;stroke-width:1;"/><path d="M2343.4177,332.9444 Q2343.5739,332.7256 2343.7614,332.6163 Q2343.9489,332.5069 2344.1677,332.5069 Q2344.5427,332.5069 2344.7771,332.7725 Q2345.0114,333.0225 2345.0114,333.6319 L2345.0114,335.085 Q2345.0114,335.6944 2344.7771,335.96 Q2344.5427,336.2256 2344.1677,336.2256 Q2343.8239,336.2256 2343.6208,336.0225 Q2343.4177,335.835 2343.3083,335.3194 Q2343.2614,334.96 2343.0739,334.7725 Q2342.7458,334.3975 2342.1364,334.1788 Q2341.5271,333.96 2340.9021,333.96 Q2340.1364,333.96 2339.4958,334.2881 Q2338.8708,334.6163 2338.3708,335.3663 Q2337.8864,336.1163 2337.8864,337.1475 L2337.8864,338.2413 Q2337.8864,339.4756 2338.7771,340.3038 Q2339.6677,341.1163 2341.2614,341.1163 Q2342.1989,341.1163 2342.8552,340.8663 Q2343.2458,340.71 2343.6677,340.2725 Q2343.9333,340.0069 2344.0739,339.9288 Q2344.2302,339.8506 2344.4333,339.8506 Q2344.7614,339.8506 2345.0114,340.1163 Q2345.2771,340.3663 2345.2771,340.71 Q2345.2771,341.0538 2344.9333,341.46 Q2344.4333,342.0381 2343.6364,342.3663 Q2342.5583,342.8194 2341.2614,342.8194 Q2339.7458,342.8194 2338.5427,342.1944 Q2337.5583,341.6944 2336.8708,340.6319 Q2336.1833,339.5538 2336.1833,338.2725 L2336.1833,337.1163 Q2336.1833,335.7881 2336.7927,334.6475 Q2337.4177,333.4913 2338.5114,332.8819 Q2339.6052,332.2569 2340.8396,332.2569 Q2341.5739,332.2569 2342.2146,332.4288 Q2342.8708,332.585 2343.4177,332.9444 Z " fill="#000000"/><text fill="#000000" font-family="sans-serif" font-size="14" lengthAdjust="spacing" textLength="47.4551" x="2359.8858" y="342.7979">Crowds</text><line style="stroke:#181818;stroke-width:0.5;" x1="2303.1" x2="2432.893" y1="353.0694" y2="353.0694"/><ellipse cx="2313.1" cy="367.3741" fill="none" rx="3" ry="3" style="stroke:#038048;stroke-width:1;"/><text fill="#000000" font-family="sans-serif" font-size="14" lengthAdjust="spacing" textLength="105.793" x="2322.1" y="371.6026">Witness miracles</text><ellipse cx="2313.1" cy="384.9834" fill="none" rx="3" ry="3" style="stroke:#038048;stroke-width:1;"/><text fill="#000000" font-family="sans-serif" font-size="14" lengthAdjust="spacing" textLength="98.0342" x="2322.1" y="389.212">Marvel at Jesus</text><line style="stroke:#181818;stroke-width:0.5;" x1="2303.1" x2="2432.893" y1="396.2881" y2="396.2881"/></g><!--class Laborers (Symbolic)--><g class="entity" data-entity="Laborers .Symbolic." data-source-line="68" data-uid="ent0015" id="entity_Laborers .Symbolic."><rect fill="#F1F1F1" height="83.2188" rx="2.5" ry="2.5" style="stroke:#181818;stroke-width:0.5;" width="157.2617" x="2109.37" y="321.0694"/><ellipse cx="2124.37" cy="337.0694" fill="#ADD1B2" rx="11" ry="11" style="stroke:#181818;stroke-width:1;"/><path d="M2127.1356,332.9444 Q2127.2919,332.7256 2127.4794,332.6163 Q2127.6669,332.5069 2127.8856,332.5069 Q2128.2606,332.5069 2128.495,332.7725 Q2128.7294,333.0225 2128.7294,333.6319 L2128.7294,335.085 Q2128.7294,335.6944 2128.495,335.96 Q2128.2606,336.2256 2127.8856,336.2256 Q2127.5419,336.2256 2127.3388,336.0225 Q2127.1356,335.835 2127.0263,335.3194 Q2126.9794,334.96 2126.7919,334.7725 Q2126.4638,334.3975 2125.8544,334.1788 Q2125.245,333.96 2124.62,333.96 Q2123.8544,333.96 2123.2138,334.2881 Q2122.5888,334.6163 2122.0888,335.3663 Q2121.6044,336.1163 2121.6044,337.1475 L2121.6044,338.2413 Q2121.6044,339.4756 2122.495,340.3038 Q2123.3856,341.1163 2124.9794,341.1163 Q2125.9169,341.1163 2126.5731,340.8663 Q2126.9638,340.71 2127.3856,340.2725 Q2127.6513,340.0069 2127.7919,339.9288 Q2127.9481,339.8506 2128.1513,339.8506 Q2128.4794,339.8506 2128.7294,340.1163 Q2128.995,340.3663 2128.995,340.71 Q2128.995,341.0538 2128.6513,341.46 Q2128.1513,342.0381 2127.3544,342.3663 Q2126.2763,342.8194 2124.9794,342.8194 Q2123.4638,342.8194 2122.2606,342.1944 Q2121.2763,341.6944 2120.5888,340.6319 Q2119.9013,339.5538 2119.9013,338.2725 L2119.9013,337.1163 Q2119.9013,335.7881 2120.5106,334.6475 Q2121.1356,333.4913 2122.2294,332.8819 Q2123.3231,332.2569 2124.5575,332.2569 Q2125.2919,332.2569 2125.9325,332.4288 Q2126.5888,332.585 2127.1356,332.9444 Z " fill="#000000"/><text fill="#000000" font-family="sans-serif" font-size="14" lengthAdjust="spacing" textLength="125.2617" x="2138.37" y="342.7979">Laborers (Symbolic)</text><line style="stroke:#181818;stroke-width:0.5;" x1="2110.37" x2="2265.6317" y1="353.0694" y2="353.0694"/><ellipse cx="2120.37" cy="367.3741" fill="none" rx="3" ry="3" style="stroke:#038048;stroke-width:1;"/><text fill="#000000" font-family="sans-serif" font-size="14" lengthAdjust="spacing" textLength="98.041" x="2129.37" y="371.6026">Future disciples</text><ellipse cx="2120.37" cy="384.9834" fill="none" rx="3" ry="3" style="stroke:#038048;stroke-width:1;"/><text fill="#000000" font-family="sans-serif" font-size="14" lengthAdjust="spacing" textLength="101.1309" x="2129.37" y="389.212">Harvest workers</text><line style="stroke:#181818;stroke-width:0.5;" x1="2110.37" x2="2265.6317" y1="396.2881" y2="396.2881"/></g><!--link Jesus to Paralytic Man--><g class="link" data-entity-1="Jesus" data-entity-2="Paralytic Man" data-source-line="73" data-uid="lnk16" id="link_Jesus_Paralytic Man"><path codeLine="73" d="M1307.55,163.5794 C1133.36,175.0894 718.67,206.5594 375,264.2594 C282.29,279.8294 256.1,276.8994 169,312.2594 C162.99,314.6994 162.2496,314.8027 156.2596,317.8727" fill="none" id="Jesus-to-Paralytic Man" style="stroke:#181818;stroke-width:1;"/><polygon fill="#181818" points="150.92,320.6094,160.7538,320.0641,155.3696,318.3288,157.1049,312.9447,150.92,320.6094" style="stroke:#181818;stroke-width:1;"/><text fill="#000000" font-family="sans-serif" font-size="13" lengthAdjust="spacing" textLength="92.4917" x="376" y="278.7545">forgives &amp; heals</text></g><!--link Jesus to Matthew (Tax Collector)--><g class="link" data-entity-1="Jesus" data-entity-2="Matthew .Tax Collector." data-source-line="74" data-uid="lnk17" id="link_Jesus_Matthew .Tax Collector."><path codeLine="74" d="M1307.52,165.1794 C1157.06,178.1994 830.83,210.3594 560,264.2594 C480.48,280.0894 460.18,284.4994 384,312.2594 C376.98,314.8194 375.3305,315.3466 368.1605,318.3266" fill="none" id="Jesus-to-Matthew (Tax Collector)" style="stroke:#181818;stroke-width:1;"/><polygon fill="#181818" points="362.62,320.6294,372.4659,320.8689,367.2371,318.7104,369.3956,313.4816,362.62,320.6294" style="stroke:#181818;stroke-width:1;"/><text fill="#000000" font-family="sans-serif" font-size="13" lengthAdjust="spacing" textLength="77.3081" x="561" y="278.7545">calls to follow</text></g><!--link Jesus to Pharisees--><g class="link" data-entity-1="Jesus" data-entity-2="Pharisees" data-source-line="75" data-uid="lnk18" id="link_Jesus_Pharisees"><path codeLine="75" d="M1315.38,234.4494 C1309.18,243.9194 1303.83,253.9194 1300,264.2594 C1293.65,281.3994 1296.1994,293.0361 1307.5794,307.2461" fill="none" id="Jesus-to-Pharisees" style="stroke:#181818;stroke-width:1;"/><polygon fill="#181818" points="1311.33,311.9294,1308.8263,302.4041,1308.2045,308.0266,1302.5819,307.4048,1311.33,311.9294" style="stroke:#181818;stroke-width:1;"/><text fill="#000000" font-family="sans-serif" font-size="13" lengthAdjust="spacing" textLength="46.249" x="1301" y="278.7545">rebukes</text></g><!--link Pharisees to Jesus--><g class="link" data-entity-1="Pharisees" data-entity-2="Jesus" data-source-line="86" data-uid="lnk28" id="link_Pharisees_Jesus"><path codeLine="86" d="M1382.7,311.8194 C1383.95,288.6094 1385.1572,266.4807 1386.5472,240.6807" fill="none" id="Pharisees-to-Jesus" style="stroke:#181818;stroke-width:1;"/><polygon fill="#181818" points="1386.87,234.6894,1382.3916,243.4611,1386.601,239.6821,1390.38,243.8915,1386.87,234.6894" style="stroke:#181818;stroke-width:1;"/><text fill="#000000" font-family="sans-serif" font-size="13" lengthAdjust="spacing" textLength="41.1899" x="1386.17" y="278.7545">accuse</text></g><!--link Jesus to Scribes--><g class="link" data-entity-1="Jesus" data-entity-2="Scribes" data-source-line="76" data-uid="lnk19" id="link_Jesus_Scribes"><path codeLine="76" d="M1432.35,234.7394 C1443.54,251.5494 1456.59,268.4394 1471,282.2594 C1486.11,296.7494 1499.2269,306.5863 1517.3369,317.6263" fill="none" id="Jesus-to-Scribes" style="stroke:#181818;stroke-width:1;"/><polygon fill="#181818" points="1522.46,320.7494,1516.8574,312.6493,1518.1907,318.1468,1512.6933,319.4801,1522.46,320.7494" style="stroke:#181818;stroke-width:1;"/><text fill="#000000" font-family="sans-serif" font-size="13" lengthAdjust="spacing" textLength="90.3335" x="1472" y="278.7545">knows thoughts</text></g><!--link Scribes to Jesus--><g class="link" data-entity-1="Scribes" data-entity-2="Jesus" data-source-line="87" data-uid="lnk29" id="link_Scribes_Jesus"><path codeLine="87" d="M1596.05,320.5794 C1589.99,301.8594 1580.7,280.3494 1567,264.2594 C1542.04,234.9394 1512.1144,214.3423 1479.7244,197.0723" fill="none" id="Scribes-to-Jesus" style="stroke:#181818;stroke-width:1;"/><polygon fill="#181818" points="1474.43,194.2494,1480.4897,202.0134,1478.842,196.6018,1484.2536,194.9542,1474.43,194.2494" style="stroke:#181818;stroke-width:1;"/><text fill="#000000" font-family="sans-serif" font-size="13" lengthAdjust="spacing" textLength="88.1689" x="1579.47" y="278.7545">doubt internally</text></g><!--link Jesus to John?s Disciples--><g class="link" data-entity-1="Jesus" data-entity-2="John.s Disciples" data-source-line="77" data-uid="lnk20" id="link_Jesus_John.s Disciples"><path codeLine="77" d="M1307.7,169.4994 C1183.31,186.5694 941.89,221.8494 739,264.2594 C655.01,281.8194 631.31,279.5194 552,312.2594 C540.43,317.0394 533.7397,320.203 522.6597,326.533" fill="none" id="Jesus-to-John&#8217;s Disciples" style="stroke:#181818;stroke-width:1;"/><polygon fill="#181818" points="517.45,329.5094,527.2488,328.518,521.7915,327.0291,523.2804,321.5717,517.45,329.5094" style="stroke:#181818;stroke-width:1;"/><text fill="#000000" font-family="sans-serif" font-size="13" lengthAdjust="spacing" textLength="129.3652" x="740" y="278.7545">teaches new covenant</text></g><!--link Jesus to Synagogue Ruler (Jairus)--><g class="link" data-entity-1="Jesus" data-entity-2="Synagogue Ruler .Jairus." data-source-line="78" data-uid="lnk21" id="link_Jesus_Synagogue Ruler .Jairus."><path codeLine="78" d="M1307.57,173.3294 C1188.41,195.9594 963.67,243.7694 781,312.2594 C773.98,314.8894 772.3261,315.4691 765.0961,318.3791" fill="none" id="Jesus-to-Synagogue Ruler (Jairus)" style="stroke:#181818;stroke-width:1;"/><polygon fill="#181818" points="759.53,320.6194,769.3726,320.9697,764.1684,318.7525,766.3856,313.5482,759.53,320.6194" style="stroke:#181818;stroke-width:1;"/><text fill="#000000" font-family="sans-serif" font-size="13" lengthAdjust="spacing" textLength="96.1162" x="912.52" y="278.7545">responds to faith</text></g><!--link Jesus to Ruler's Daughter--><g class="link" data-entity-1="Jesus" data-entity-2="Ruler.s Daughter" data-source-line="79" data-uid="lnk22" id="link_Jesus_Ruler.s Daughter"><path codeLine="79" d="M1307.75,183.6194 C1243.91,203.6194 1153.99,233.2894 1077,264.2594 C1030.52,282.9594 1019.99,290.2194 975,312.2594 C963.8,317.7494 957.2725,320.9781 945.8225,326.7781" fill="none" id="Jesus-to-Ruler's Daughter" style="stroke:#181818;stroke-width:1;"/><polygon fill="#181818" points="940.47,329.4894,950.3062,328.9907,944.9304,327.23,946.6912,321.8541,940.47,329.4894" style="stroke:#181818;stroke-width:1;"/><text fill="#000000" font-family="sans-serif" font-size="13" lengthAdjust="spacing" textLength="100.4326" x="1078" y="278.7545">raises from death</text></g><!--link Jesus to Hemorrhaging Woman--><g class="link" data-entity-1="Jesus" data-entity-2="Hemorrhaging Woman" data-source-line="80" data-uid="lnk23" id="link_Jesus_Hemorrhaging Woman"><path codeLine="80" d="M1307.49,199.2794 C1274.46,217.1694 1237.04,239.6894 1206,264.2594 C1185.13,280.7794 1168.6069,297.5991 1152.3769,316.0991" fill="none" id="Jesus-to-Hemorrhaging Woman" style="stroke:#181818;stroke-width:1;"/><polygon fill="#181818" points="1148.42,320.6094,1157.3622,316.4818,1151.7174,316.8508,1151.3485,311.206,1148.42,320.6094" style="stroke:#181818;stroke-width:1;"/><text fill="#000000" font-family="sans-serif" font-size="13" lengthAdjust="spacing" textLength="81.6626" x="1207" y="278.7545">heals her faith</text></g><!--link Jesus to Two Blind Men--><g class="link" data-entity-1="Jesus" data-entity-2="Two Blind Men" data-source-line="81" data-uid="lnk24" id="link_Jesus_Two Blind Men"><path codeLine="81" d="M1474.4,183.3094 C1532.5,202.0894 1610.93,230.3794 1676,264.2594 C1706.74,280.2694 1733.8674,298.3369 1759.5674,317.1369" fill="none" id="Jesus-to-Two Blind Men" style="stroke:#181818;stroke-width:1;"/><polygon fill="#181818" points="1764.41,320.6794,1759.5077,312.1373,1760.3745,317.7273,1754.7844,318.5941,1764.41,320.6794" style="stroke:#181818;stroke-width:1;"/><text fill="#000000" font-family="sans-serif" font-size="13" lengthAdjust="spacing" textLength="62.1499" x="1705.5" y="278.7545">heals eyes</text></g><!--link Jesus to Mute Demoniac--><g class="link" data-entity-1="Jesus" data-entity-2="Mute Demoniac" data-source-line="82" data-uid="lnk25" id="link_Jesus_Mute Demoniac"><path codeLine="82" d="M1474.46,174.4394 C1582.22,196.8694 1774.04,242.8494 1927,312.2594 C1932.6,314.7994 1932.9907,314.8256 1938.6407,317.8256" fill="none" id="Jesus-to-Mute Demoniac" style="stroke:#181818;stroke-width:1;"/><polygon fill="#181818" points="1943.94,320.6394,1937.8669,312.8858,1939.5239,318.2946,1934.1152,319.9516,1943.94,320.6394" style="stroke:#181818;stroke-width:1;"/><text fill="#000000" font-family="sans-serif" font-size="13" lengthAdjust="spacing" textLength="95.3862" x="1843.78" y="278.7545">casts out demon</text></g><!--link Jesus to Crowds--><g class="link" data-entity-1="Jesus" data-entity-2="Crowds" data-source-line="83" data-uid="lnk26" id="link_Jesus_Crowds"><path codeLine="83" d="M1474.45,166.3594 C1609.14,180.1394 1882.29,212.1094 2109,264.2594 C2134.89,270.2194 2140.45,274.9894 2166,282.2594 C2218.04,297.0794 2233.96,291.6694 2284,312.2594 C2290.1,314.7694 2290.9375,314.9581 2297.0575,318.0581" fill="none" id="Jesus-to-Crowds" style="stroke:#181818;stroke-width:1;"/><polygon fill="#181818" points="2302.41,320.7694,2296.1887,313.1342,2297.9496,318.51,2292.5738,320.2709,2302.41,320.7694" style="stroke:#181818;stroke-width:1;"/><text fill="#000000" font-family="sans-serif" font-size="13" lengthAdjust="spacing" textLength="93.939" x="2167" y="278.7545">has compassion</text></g><!--link Crowds to Jesus--><g class="link" data-entity-1="Crowds" data-entity-2="Jesus" data-source-line="88" data-uid="lnk30" id="link_Crowds_Jesus"><path codeLine="88" d="M2336.12,321.0294 C2317.65,300.4894 2292.63,277.2294 2265,264.2594 C2125.7,198.8494 1670.7334,171.1415 1480.3634,162.1815" fill="none" id="Crowds-to-Jesus" style="stroke:#181818;stroke-width:1;"/><polygon fill="#181818" points="1474.37,161.8994,1483.172,166.3181,1479.3645,162.1344,1483.5481,158.3269,1474.37,161.8994" style="stroke:#181818;stroke-width:1;"/><text fill="#000000" font-family="sans-serif" font-size="13" lengthAdjust="spacing" textLength="125.0044" x="2292.38" y="278.7545">amazed &amp; glorify God</text></g><!--link Jesus to Laborers (Symbolic)--><g class="link" data-entity-1="Jesus" data-entity-2="Laborers .Symbolic." data-source-line="84" data-uid="lnk27" id="link_Jesus_Laborers .Symbolic."><path codeLine="84" d="M1474.35,170.6894 C1583.93,187.6294 1782.02,221.0394 1948,264.2594 C2013.28,281.2594 2029.83,286.0794 2092,312.2594 C2098.13,314.8394 2098.9776,315.1121 2105.2476,318.0521" fill="none" id="Jesus-to-Laborers (Symbolic)" style="stroke:#181818;stroke-width:1;"/><polygon fill="#181818" points="2110.68,320.5994,2104.2295,313.1568,2106.153,318.4767,2100.8332,320.4001,2110.68,320.5994" style="stroke:#181818;stroke-width:1;"/><text fill="#000000" font-family="sans-serif" font-size="13" lengthAdjust="spacing" textLength="88.1372" x="2012.46" y="278.7545">calls to mission</text></g><!--SRC=[TLNRRjim37tFLn1zQ5CC-O3vOK0lwB9kmRQcm9uPYR65o98XoVMyeS1-Ox-tBndbMnp7xKEBCEJX4NaE6rJG19-fXaz6gXSbIzGUb84DXf1H1UzX1K-aCIXhVAOA3vKA6JoIB_rYKQ0uO4fmqNo-WeqooWTNmtAelxw0tui5WD3eVPSOGy0_xnwiIzKBUV3A-3QqfiX0Aa_egOiz8N_qm80W2MKRl4FT9WfLw3xpcL1ar974CcJMgL1toEX1sBnW7lmOZhsEU7r3XxeEIl3BpS0laY49kxfxS1FSCbVOjyodCFspby_u4-wirYI2TTS3O2JDWC4oWDQs6kFU4hDZxZU5zRoLAS4C7K-1Xk6jlXQSI2E4rOqG9KVMAWUxXnqN5XdbzToNad9h-BM5hSXDMcs5KxjHewtIP09mbETpsgffpdgfq4bTJt0URMR-_VdhuRvVqZ27xoNvA2dO8_yrwPH1RJ2rQKdmL6foi7n4vKf_dEEMwE0Xu_LmSLm6I2pJB3HlYTzdjk8bOPG1gxcVqRX7Wtp5vBh20RjHcuIzi_bOSkFQDK_FkGpJsFs7pMSb4smfifZGcID5b_CSsxJxE7-s2WRgU4vQF5SMRlbr4ZPaJlJJ3VrYo-FZJTuZs_RYf3aAOPsChQFGPi0tPI1eA2WK0tWJ0C4R0LjsFBS58KyQKrHJhTyvMydZId-eO8ZZkN8e1aDkqBsG1WopE_Y2E-l8ULXkwtndjHB75J-KeNGqDVWwuZ71ohe35_Pu_LrPhJwSUJdfpUhXif6CdnQywTg4fn6lpE3NirP7LoRWQ5SUw0nzi5C21nDboLSfIkuiSSul2OJkf1acA2oV76mqTDhYJRz4LhwmHlgn5awAput0HUt5RJp0-ZylcdD0qawNVxlvJXDDz_bKdmzjej2aaQMFkcnFrpI_5oDZJi_yITwiuaPhpbLR5kj6osttq-8aqLzy_6BAiDlJ16dBNU33mzCqZ1mFuy1m0fNZBtRi9QIQ_rNjQ_XevU9ryHy0]--></g></svg>