<svg xmlns="http://www.w3.org/2000/svg" xmlns:xlink="http://www.w3.org/1999/xlink" contentStyleType="text/css" data-diagram-type="CLASS" height="2899px" preserveAspectRatio="none" style="width:337px;height:2899px;background:#FFFFFF;" version="1.1" viewBox="0 0 337 2899" width="337px" zoomAndPan="magnify"><title>Jesus' Early Life and Ministry (Matthew 1-9)</title><defs/><g><g class="title" data-source-line="1"><text fill="#000000" font-family="sans-serif" font-size="14" font-weight="bold" lengthAdjust="spacing" textLength="289.625" x="16.6875" y="24.5332">Jesus' Early Life and Ministry (Matthew 1-9)</text></g><!--cluster Genealogy & Birth (Ch 1-2)--><g class="cluster" data-entity="Genealogy . Birth .Ch 1-2." data-source-line="3" data-uid="ent0002" id="cluster_Genealogy . Birth .Ch 1-2."><path d="M55.5,44.6094 L234.6309,44.6094 A3.75,3.75 0 0 1 237.1309,47.1094 L244.1309,68.2188 L280.5,68.2188 A2.5,2.5 0 0 1 283,70.7188 L283,574.1094 A2.5,2.5 0 0 1 280.5,576.6094 L55.5,576.6094 A2.5,2.5 0 0 1 53,574.1094 L53,47.1094 A2.5,2.5 0 0 1 55.5,44.6094" fill="none" style="stroke:#000000;stroke-width:1.5;"/><line style="stroke:#000000;stroke-width:1.5;" x1="53" x2="244.1309" y1="68.2188" y2="68.2188"/><text fill="#000000" font-family="sans-serif" font-size="14" font-weight="bold" lengthAdjust="spacing" textLength="178.1309" x="57" y="61.1426">Genealogy &amp; Birth (Ch 1-2)</text></g><!--cluster Preparation for Ministry (Ch 3-4)--><g class="cluster" data-entity="Preparation for Ministry .Ch 3-4." data-source-line="11" data-uid="ent0008" id="cluster_Preparation for Ministry .Ch 3-4."><path d="M8.5,600.6094 L223.417,600.6094 A3.75,3.75 0 0 1 225.917,603.1094 L232.917,624.2188 L327.5,624.2188 A2.5,2.5 0 0 1 330,626.7188 L330,1022.1094 A2.5,2.5 0 0 1 327.5,1024.6094 L8.5,1024.6094 A2.5,2.5 0 0 1 6,1022.1094 L6,603.1094 A2.5,2.5 0 0 1 8.5,600.6094" fill="none" style="stroke:#000000;stroke-width:1.5;"/><line style="stroke:#000000;stroke-width:1.5;" x1="6" x2="232.917" y1="624.2188" y2="624.2188"/><text fill="#000000" font-family="sans-serif" font-size="14" font-weight="bold" lengthAdjust="spacing" textLength="213.917" x="10" y="617.1426">Preparation for Ministry (Ch 3-4)</text></g><!--cluster Teachings: Sermon on the Mount (Ch 5-7)--><g class="cluster" data-entity="Teachings. Sermon on the Mount .Ch 5-7." data-source-line="18" data-uid="ent0013" id="cluster_Teachings. Sermon on the Mount .Ch 5-7."><path d="M24.5,1048.6094 L303.1689,1048.6094 A3.75,3.75 0 0 1 305.6689,1051.1094 L312.6689,1072.2188 L312.5,1072.2188 A2.5,2.5 0 0 1 315,1074.7188 L315,1578.1094 A2.5,2.5 0 0 1 312.5,1580.6094 L24.5,1580.6094 A2.5,2.5 0 0 1 22,1578.1094 L22,1051.1094 A2.5,2.5 0 0 1 24.5,1048.6094" fill="none" style="stroke:#000000;stroke-width:1.5;"/><line style="stroke:#000000;stroke-width:1.5;" x1="22" x2="312.6689" y1="1072.2188" y2="1072.2188"/><text fill="#000000" font-family="sans-serif" font-size="14" font-weight="bold" lengthAdjust="spacing" textLength="277.6689" x="26" y="1065.1426">Teachings: Sermon on the Mount (Ch 5-7)</text></g><!--cluster Early Miracles & Signs (Ch 8-9)--><g class="cluster" data-entity="Early Miracles . Signs .Ch 8-9." data-source-line="26" data-uid="ent0019" id="cluster_Early Miracles . Signs .Ch 8-9."><path d="M8.5,1604.6094 L215.6787,1604.6094 A3.75,3.75 0 0 1 218.1787,1607.1094 L225.1787,1628.2188 L327.5,1628.2188 A2.5,2.5 0 0 1 330,1630.7188 L330,2890.1094 A2.5,2.5 0 0 1 327.5,2892.6094 L8.5,2892.6094 A2.5,2.5 0 0 1 6,2890.1094 L6,1607.1094 A2.5,2.5 0 0 1 8.5,1604.6094" fill="none" style="stroke:#000000;stroke-width:1.5;"/><line style="stroke:#000000;stroke-width:1.5;" x1="6" x2="225.1787" y1="1628.2188" y2="1628.2188"/><text fill="#000000" font-family="sans-serif" font-size="14" font-weight="bold" lengthAdjust="spacing" textLength="206.1787" x="10" y="1621.1426">Early Miracles &amp; Signs (Ch 8-9)</text></g><!--class Genealogy of Jesus (Ch 1)--><g class="entity" data-entity="Genealogy of Jesus .Ch 1." data-source-line="4" data-uid="ent0003" id="entity_Genealogy of Jesus .Ch 1."><rect fill="#F1F1F1" height="48" rx="2.5" ry="2.5" style="stroke:#181818;stroke-width:0.5;" width="198.5303" x="68.73" y="80.6094"/><ellipse cx="83.73" cy="96.6094" fill="#ADD1B2" rx="11" ry="11" style="stroke:#181818;stroke-width:1;"/><path d="M86.4956,92.4844 Q86.6519,92.2656 86.8394,92.1563 Q87.0269,92.0469 87.2456,92.0469 Q87.6206,92.0469 87.855,92.3125 Q88.0894,92.5625 88.0894,93.1719 L88.0894,94.625 Q88.0894,95.2344 87.855,95.5 Q87.6206,95.7656 87.2456,95.7656 Q86.9019,95.7656 86.6988,95.5625 Q86.4956,95.375 86.3863,94.8594 Q86.3394,94.5 86.1519,94.3125 Q85.8238,93.9375 85.2144,93.7188 Q84.605,93.5 83.98,93.5 Q83.2144,93.5 82.5738,93.8281 Q81.9488,94.1563 81.4488,94.9063 Q80.9644,95.6563 80.9644,96.6875 L80.9644,97.7813 Q80.9644,99.0156 81.855,99.8438 Q82.7456,100.6563 84.3394,100.6563 Q85.2769,100.6563 85.9331,100.4063 Q86.3238,100.25 86.7456,99.8125 Q87.0113,99.5469 87.1519,99.4688 Q87.3081,99.3906 87.5113,99.3906 Q87.8394,99.3906 88.0894,99.6563 Q88.355,99.9063 88.355,100.25 Q88.355,100.5938 88.0113,101 Q87.5113,101.5781 86.7144,101.9063 Q85.6363,102.3594 84.3394,102.3594 Q82.8238,102.3594 81.6206,101.7344 Q80.6363,101.2344 79.9488,100.1719 Q79.2613,99.0938 79.2613,97.8125 L79.2613,96.6563 Q79.2613,95.3281 79.8706,94.1875 Q80.4956,93.0313 81.5894,92.4219 Q82.6831,91.7969 83.9175,91.7969 Q84.6519,91.7969 85.2925,91.9688 Q85.9488,92.125 86.4956,92.4844 Z " fill="#000000"/><text fill="#000000" font-family="sans-serif" font-size="14" lengthAdjust="spacing" textLength="166.5303" x="97.73" y="102.3379">Genealogy of Jesus (Ch 1)</text><line style="stroke:#181818;stroke-width:0.5;" x1="69.73" x2="266.2603" y1="112.6094" y2="112.6094"/><line style="stroke:#181818;stroke-width:0.5;" x1="69.73" x2="266.2603" y1="120.6094" y2="120.6094"/></g><!--class Birth of Jesus (Ch 1)--><g class="entity" data-entity="Birth of Jesus .Ch 1." data-source-line="5" data-uid="ent0004" id="entity_Birth of Jesus .Ch 1."><rect fill="#F1F1F1" height="48" rx="2.5" ry="2.5" style="stroke:#181818;stroke-width:0.5;" width="159.5996" x="88.2" y="188.6094"/><ellipse cx="103.2" cy="204.6094" fill="#ADD1B2" rx="11" ry="11" style="stroke:#181818;stroke-width:1;"/><path d="M105.9656,200.4844 Q106.1219,200.2656 106.3094,200.1563 Q106.4969,200.0469 106.7156,200.0469 Q107.0906,200.0469 107.325,200.3125 Q107.5594,200.5625 107.5594,201.1719 L107.5594,202.625 Q107.5594,203.2344 107.325,203.5 Q107.0906,203.7656 106.7156,203.7656 Q106.3719,203.7656 106.1688,203.5625 Q105.9656,203.375 105.8563,202.8594 Q105.8094,202.5 105.6219,202.3125 Q105.2938,201.9375 104.6844,201.7188 Q104.075,201.5 103.45,201.5 Q102.6844,201.5 102.0438,201.8281 Q101.4188,202.1563 100.9188,202.9063 Q100.4344,203.6563 100.4344,204.6875 L100.4344,205.7813 Q100.4344,207.0156 101.325,207.8438 Q102.2156,208.6563 103.8094,208.6563 Q104.7469,208.6563 105.4031,208.4063 Q105.7938,208.25 106.2156,207.8125 Q106.4813,207.5469 106.6219,207.4688 Q106.7781,207.3906 106.9813,207.3906 Q107.3094,207.3906 107.5594,207.6563 Q107.825,207.9063 107.825,208.25 Q107.825,208.5938 107.4813,209 Q106.9813,209.5781 106.1844,209.9063 Q105.1063,210.3594 103.8094,210.3594 Q102.2938,210.3594 101.0906,209.7344 Q100.1063,209.2344 99.4188,208.1719 Q98.7313,207.0938 98.7313,205.8125 L98.7313,204.6563 Q98.7313,203.3281 99.3406,202.1875 Q99.9656,201.0313 101.0594,200.4219 Q102.1531,199.7969 103.3875,199.7969 Q104.1219,199.7969 104.7625,199.9688 Q105.4188,200.125 105.9656,200.4844 Z " fill="#000000"/><text fill="#000000" font-family="sans-serif" font-size="14" lengthAdjust="spacing" textLength="127.5996" x="117.2" y="210.3379">Birth of Jesus (Ch 1)</text><line style="stroke:#181818;stroke-width:0.5;" x1="89.2" x2="246.7996" y1="220.6094" y2="220.6094"/><line style="stroke:#181818;stroke-width:0.5;" x1="89.2" x2="246.7996" y1="228.6094" y2="228.6094"/></g><!--class Visit of the Magi (Ch 2)--><g class="entity" data-entity="Visit of the Magi .Ch 2." data-source-line="6" data-uid="ent0005" id="entity_Visit of the Magi .Ch 2."><rect fill="#F1F1F1" height="48" rx="2.5" ry="2.5" style="stroke:#181818;stroke-width:0.5;" width="174.3857" x="80.81" y="296.6094"/><ellipse cx="95.81" cy="312.6094" fill="#ADD1B2" rx="11" ry="11" style="stroke:#181818;stroke-width:1;"/><path d="M98.5756,308.4844 Q98.7319,308.2656 98.9194,308.1563 Q99.1069,308.0469 99.3256,308.0469 Q99.7006,308.0469 99.935,308.3125 Q100.1694,308.5625 100.1694,309.1719 L100.1694,310.625 Q100.1694,311.2344 99.935,311.5 Q99.7006,311.7656 99.3256,311.7656 Q98.9819,311.7656 98.7788,311.5625 Q98.5756,311.375 98.4663,310.8594 Q98.4194,310.5 98.2319,310.3125 Q97.9038,309.9375 97.2944,309.7188 Q96.685,309.5 96.06,309.5 Q95.2944,309.5 94.6538,309.8281 Q94.0288,310.1563 93.5288,310.9063 Q93.0444,311.6563 93.0444,312.6875 L93.0444,313.7813 Q93.0444,315.0156 93.935,315.8438 Q94.8256,316.6563 96.4194,316.6563 Q97.3569,316.6563 98.0131,316.4063 Q98.4038,316.25 98.8256,315.8125 Q99.0913,315.5469 99.2319,315.4688 Q99.3881,315.3906 99.5913,315.3906 Q99.9194,315.3906 100.1694,315.6563 Q100.435,315.9063 100.435,316.25 Q100.435,316.5938 100.0913,317 Q99.5913,317.5781 98.7944,317.9063 Q97.7163,318.3594 96.4194,318.3594 Q94.9038,318.3594 93.7006,317.7344 Q92.7163,317.2344 92.0288,316.1719 Q91.3413,315.0938 91.3413,313.8125 L91.3413,312.6563 Q91.3413,311.3281 91.9506,310.1875 Q92.5756,309.0313 93.6694,308.4219 Q94.7631,307.7969 95.9975,307.7969 Q96.7319,307.7969 97.3725,307.9688 Q98.0288,308.125 98.5756,308.4844 Z " fill="#000000"/><text fill="#000000" font-family="sans-serif" font-size="14" lengthAdjust="spacing" textLength="142.3857" x="109.81" y="318.3379">Visit of the Magi (Ch 2)</text><line style="stroke:#181818;stroke-width:0.5;" x1="81.81" x2="254.1957" y1="328.6094" y2="328.6094"/><line style="stroke:#181818;stroke-width:0.5;" x1="81.81" x2="254.1957" y1="336.6094" y2="336.6094"/></g><!--class Flight to Egypt (Ch 2)--><g class="entity" data-entity="Flight to Egypt .Ch 2." data-source-line="7" data-uid="ent0006" id="entity_Flight to Egypt .Ch 2."><rect fill="#F1F1F1" height="48" rx="2.5" ry="2.5" style="stroke:#181818;stroke-width:0.5;" width="164.2754" x="85.86" y="404.6094"/><ellipse cx="100.86" cy="420.6094" fill="#ADD1B2" rx="11" ry="11" style="stroke:#181818;stroke-width:1;"/><path d="M103.6256,416.4844 Q103.7819,416.2656 103.9694,416.1563 Q104.1569,416.0469 104.3756,416.0469 Q104.7506,416.0469 104.985,416.3125 Q105.2194,416.5625 105.2194,417.1719 L105.2194,418.625 Q105.2194,419.2344 104.985,419.5 Q104.7506,419.7656 104.3756,419.7656 Q104.0319,419.7656 103.8288,419.5625 Q103.6256,419.375 103.5163,418.8594 Q103.4694,418.5 103.2819,418.3125 Q102.9538,417.9375 102.3444,417.7188 Q101.735,417.5 101.11,417.5 Q100.3444,417.5 99.7038,417.8281 Q99.0788,418.1563 98.5788,418.9063 Q98.0944,419.6563 98.0944,420.6875 L98.0944,421.7813 Q98.0944,423.0156 98.985,423.8438 Q99.8756,424.6563 101.4694,424.6563 Q102.4069,424.6563 103.0631,424.4063 Q103.4538,424.25 103.8756,423.8125 Q104.1413,423.5469 104.2819,423.4688 Q104.4381,423.3906 104.6413,423.3906 Q104.9694,423.3906 105.2194,423.6563 Q105.485,423.9063 105.485,424.25 Q105.485,424.5938 105.1413,425 Q104.6413,425.5781 103.8444,425.9063 Q102.7663,426.3594 101.4694,426.3594 Q99.9538,426.3594 98.7506,425.7344 Q97.7663,425.2344 97.0788,424.1719 Q96.3913,423.0938 96.3913,421.8125 L96.3913,420.6563 Q96.3913,419.3281 97.0006,418.1875 Q97.6256,417.0313 98.7194,416.4219 Q99.8131,415.7969 101.0475,415.7969 Q101.7819,415.7969 102.4225,415.9688 Q103.0788,416.125 103.6256,416.4844 Z " fill="#000000"/><text fill="#000000" font-family="sans-serif" font-size="14" lengthAdjust="spacing" textLength="132.2754" x="114.86" y="426.3379">Flight to Egypt (Ch 2)</text><line style="stroke:#181818;stroke-width:0.5;" x1="86.86" x2="249.1354" y1="436.6094" y2="436.6094"/><line style="stroke:#181818;stroke-width:0.5;" x1="86.86" x2="249.1354" y1="444.6094" y2="444.6094"/></g><!--class Return to Nazareth (Ch 2)--><g class="entity" data-entity="Return to Nazareth .Ch 2." data-source-line="8" data-uid="ent0007" id="entity_Return to Nazareth .Ch 2."><rect fill="#F1F1F1" height="48" rx="2.5" ry="2.5" style="stroke:#181818;stroke-width:0.5;" width="193.0684" x="71.47" y="512.6094"/><ellipse cx="86.47" cy="528.6094" fill="#ADD1B2" rx="11" ry="11" style="stroke:#181818;stroke-width:1;"/><path d="M89.2356,524.4844 Q89.3919,524.2656 89.5794,524.1563 Q89.7669,524.0469 89.9856,524.0469 Q90.3606,524.0469 90.595,524.3125 Q90.8294,524.5625 90.8294,525.1719 L90.8294,526.625 Q90.8294,527.2344 90.595,527.5 Q90.3606,527.7656 89.9856,527.7656 Q89.6419,527.7656 89.4388,527.5625 Q89.2356,527.375 89.1263,526.8594 Q89.0794,526.5 88.8919,526.3125 Q88.5638,525.9375 87.9544,525.7188 Q87.345,525.5 86.72,525.5 Q85.9544,525.5 85.3138,525.8281 Q84.6888,526.1563 84.1888,526.9063 Q83.7044,527.6563 83.7044,528.6875 L83.7044,529.7813 Q83.7044,531.0156 84.595,531.8438 Q85.4856,532.6563 87.0794,532.6563 Q88.0169,532.6563 88.6731,532.4063 Q89.0638,532.25 89.4856,531.8125 Q89.7513,531.5469 89.8919,531.4688 Q90.0481,531.3906 90.2513,531.3906 Q90.5794,531.3906 90.8294,531.6563 Q91.095,531.9063 91.095,532.25 Q91.095,532.5938 90.7513,533 Q90.2513,533.5781 89.4544,533.9063 Q88.3763,534.3594 87.0794,534.3594 Q85.5638,534.3594 84.3606,533.7344 Q83.3763,533.2344 82.6888,532.1719 Q82.0013,531.0938 82.0013,529.8125 L82.0013,528.6563 Q82.0013,527.3281 82.6106,526.1875 Q83.2356,525.0313 84.3294,524.4219 Q85.4231,523.7969 86.6575,523.7969 Q87.3919,523.7969 88.0325,523.9688 Q88.6888,524.125 89.2356,524.4844 Z " fill="#000000"/><text fill="#000000" font-family="sans-serif" font-size="14" lengthAdjust="spacing" textLength="161.0684" x="100.47" y="534.3379">Return to Nazareth (Ch 2)</text><line style="stroke:#181818;stroke-width:0.5;" x1="72.47" x2="263.5384" y1="544.6094" y2="544.6094"/><line style="stroke:#181818;stroke-width:0.5;" x1="72.47" x2="263.5384" y1="552.6094" y2="552.6094"/></g><!--class John the Baptist Prepares the Way (Ch 3)--><g class="entity" data-entity="John the Baptist Prepares the Way .Ch 3." data-source-line="12" data-uid="ent0009" id="entity_John the Baptist Prepares the Way .Ch 3."><rect fill="#F1F1F1" height="48" rx="2.5" ry="2.5" style="stroke:#181818;stroke-width:0.5;" width="291.123" x="22.44" y="636.6094"/><ellipse cx="37.44" cy="652.6094" fill="#ADD1B2" rx="11" ry="11" style="stroke:#181818;stroke-width:1;"/><path d="M40.2056,648.4844 Q40.3619,648.2656 40.5494,648.1563 Q40.7369,648.0469 40.9556,648.0469 Q41.3306,648.0469 41.565,648.3125 Q41.7994,648.5625 41.7994,649.1719 L41.7994,650.625 Q41.7994,651.2344 41.565,651.5 Q41.3306,651.7656 40.9556,651.7656 Q40.6119,651.7656 40.4088,651.5625 Q40.2056,651.375 40.0963,650.8594 Q40.0494,650.5 39.8619,650.3125 Q39.5338,649.9375 38.9244,649.7188 Q38.315,649.5 37.69,649.5 Q36.9244,649.5 36.2838,649.8281 Q35.6588,650.1563 35.1588,650.9063 Q34.6744,651.6563 34.6744,652.6875 L34.6744,653.7813 Q34.6744,655.0156 35.565,655.8438 Q36.4556,656.6563 38.0494,656.6563 Q38.9869,656.6563 39.6431,656.4063 Q40.0338,656.25 40.4556,655.8125 Q40.7213,655.5469 40.8619,655.4688 Q41.0181,655.3906 41.2213,655.3906 Q41.5494,655.3906 41.7994,655.6563 Q42.065,655.9063 42.065,656.25 Q42.065,656.5938 41.7213,657 Q41.2213,657.5781 40.4244,657.9063 Q39.3463,658.3594 38.0494,658.3594 Q36.5338,658.3594 35.3306,657.7344 Q34.3463,657.2344 33.6588,656.1719 Q32.9713,655.0938 32.9713,653.8125 L32.9713,652.6563 Q32.9713,651.3281 33.5806,650.1875 Q34.2056,649.0313 35.2994,648.4219 Q36.3931,647.7969 37.6275,647.7969 Q38.3619,647.7969 39.0025,647.9688 Q39.6588,648.125 40.2056,648.4844 Z " fill="#000000"/><text fill="#000000" font-family="sans-serif" font-size="14" lengthAdjust="spacing" textLength="259.123" x="51.44" y="658.3379">John the Baptist Prepares the Way (Ch 3)</text><line style="stroke:#181818;stroke-width:0.5;" x1="23.44" x2="312.563" y1="668.6094" y2="668.6094"/><line style="stroke:#181818;stroke-width:0.5;" x1="23.44" x2="312.563" y1="676.6094" y2="676.6094"/></g><!--class Baptism of Jesus (Ch 3)--><g class="entity" data-entity="Baptism of Jesus .Ch 3." data-source-line="13" data-uid="ent0010" id="entity_Baptism of Jesus .Ch 3."><rect fill="#F1F1F1" height="48" rx="2.5" ry="2.5" style="stroke:#181818;stroke-width:0.5;" width="181.3857" x="77.31" y="744.6094"/><ellipse cx="92.31" cy="760.6094" fill="#ADD1B2" rx="11" ry="11" style="stroke:#181818;stroke-width:1;"/><path d="M95.0756,756.4844 Q95.2319,756.2656 95.4194,756.1563 Q95.6069,756.0469 95.8256,756.0469 Q96.2006,756.0469 96.435,756.3125 Q96.6694,756.5625 96.6694,757.1719 L96.6694,758.625 Q96.6694,759.2344 96.435,759.5 Q96.2006,759.7656 95.8256,759.7656 Q95.4819,759.7656 95.2788,759.5625 Q95.0756,759.375 94.9663,758.8594 Q94.9194,758.5 94.7319,758.3125 Q94.4038,757.9375 93.7944,757.7188 Q93.185,757.5 92.56,757.5 Q91.7944,757.5 91.1538,757.8281 Q90.5288,758.1563 90.0288,758.9063 Q89.5444,759.6563 89.5444,760.6875 L89.5444,761.7813 Q89.5444,763.0156 90.435,763.8438 Q91.3256,764.6563 92.9194,764.6563 Q93.8569,764.6563 94.5131,764.4063 Q94.9038,764.25 95.3256,763.8125 Q95.5913,763.5469 95.7319,763.4688 Q95.8881,763.3906 96.0913,763.3906 Q96.4194,763.3906 96.6694,763.6563 Q96.935,763.9063 96.935,764.25 Q96.935,764.5938 96.5913,765 Q96.0913,765.5781 95.2944,765.9063 Q94.2163,766.3594 92.9194,766.3594 Q91.4038,766.3594 90.2006,765.7344 Q89.2163,765.2344 88.5288,764.1719 Q87.8413,763.0938 87.8413,761.8125 L87.8413,760.6563 Q87.8413,759.3281 88.4506,758.1875 Q89.0756,757.0313 90.1694,756.4219 Q91.2631,755.7969 92.4975,755.7969 Q93.2319,755.7969 93.8725,755.9688 Q94.5288,756.125 95.0756,756.4844 Z " fill="#000000"/><text fill="#000000" font-family="sans-serif" font-size="14" lengthAdjust="spacing" textLength="149.3857" x="106.31" y="766.3379">Baptism of Jesus (Ch 3)</text><line style="stroke:#181818;stroke-width:0.5;" x1="78.31" x2="257.6957" y1="776.6094" y2="776.6094"/><line style="stroke:#181818;stroke-width:0.5;" x1="78.31" x2="257.6957" y1="784.6094" y2="784.6094"/></g><!--class Temptation in the Desert (Ch 4)--><g class="entity" data-entity="Temptation in the Desert .Ch 4." data-source-line="14" data-uid="ent0011" id="entity_Temptation in the Desert .Ch 4."><rect fill="#F1F1F1" height="48" rx="2.5" ry="2.5" style="stroke:#181818;stroke-width:0.5;" width="228.082" x="53.96" y="852.6094"/><ellipse cx="68.96" cy="868.6094" fill="#ADD1B2" rx="11" ry="11" style="stroke:#181818;stroke-width:1;"/><path d="M71.7256,864.4844 Q71.8819,864.2656 72.0694,864.1563 Q72.2569,864.0469 72.4756,864.0469 Q72.8506,864.0469 73.085,864.3125 Q73.3194,864.5625 73.3194,865.1719 L73.3194,866.625 Q73.3194,867.2344 73.085,867.5 Q72.8506,867.7656 72.4756,867.7656 Q72.1319,867.7656 71.9288,867.5625 Q71.7256,867.375 71.6163,866.8594 Q71.5694,866.5 71.3819,866.3125 Q71.0538,865.9375 70.4444,865.7188 Q69.835,865.5 69.21,865.5 Q68.4444,865.5 67.8038,865.8281 Q67.1788,866.1563 66.6788,866.9063 Q66.1944,867.6563 66.1944,868.6875 L66.1944,869.7813 Q66.1944,871.0156 67.085,871.8438 Q67.9756,872.6563 69.5694,872.6563 Q70.5069,872.6563 71.1631,872.4063 Q71.5538,872.25 71.9756,871.8125 Q72.2413,871.5469 72.3819,871.4688 Q72.5381,871.3906 72.7413,871.3906 Q73.0694,871.3906 73.3194,871.6563 Q73.585,871.9063 73.585,872.25 Q73.585,872.5938 73.2413,873 Q72.7413,873.5781 71.9444,873.9063 Q70.8663,874.3594 69.5694,874.3594 Q68.0538,874.3594 66.8506,873.7344 Q65.8663,873.2344 65.1788,872.1719 Q64.4913,871.0938 64.4913,869.8125 L64.4913,868.6563 Q64.4913,867.3281 65.1006,866.1875 Q65.7256,865.0313 66.8194,864.4219 Q67.9131,863.7969 69.1475,863.7969 Q69.8819,863.7969 70.5225,863.9688 Q71.1788,864.125 71.7256,864.4844 Z " fill="#000000"/><text fill="#000000" font-family="sans-serif" font-size="14" lengthAdjust="spacing" textLength="196.082" x="82.96" y="874.3379">Temptation in the Desert (Ch 4)</text><line style="stroke:#181818;stroke-width:0.5;" x1="54.96" x2="281.042" y1="884.6094" y2="884.6094"/><line style="stroke:#181818;stroke-width:0.5;" x1="54.96" x2="281.042" y1="892.6094" y2="892.6094"/></g><!--class Call of First Disciples (Ch 4)--><g class="entity" data-entity="Call of First Disciples .Ch 4." data-source-line="15" data-uid="ent0012" id="entity_Call of First Disciples .Ch 4."><rect fill="#F1F1F1" height="48" rx="2.5" ry="2.5" style="stroke:#181818;stroke-width:0.5;" width="205.4756" x="65.26" y="960.6094"/><ellipse cx="80.26" cy="976.6094" fill="#ADD1B2" rx="11" ry="11" style="stroke:#181818;stroke-width:1;"/><path d="M83.0256,972.4844 Q83.1819,972.2656 83.3694,972.1563 Q83.5569,972.0469 83.7756,972.0469 Q84.1506,972.0469 84.385,972.3125 Q84.6194,972.5625 84.6194,973.1719 L84.6194,974.625 Q84.6194,975.2344 84.385,975.5 Q84.1506,975.7656 83.7756,975.7656 Q83.4319,975.7656 83.2288,975.5625 Q83.0256,975.375 82.9163,974.8594 Q82.8694,974.5 82.6819,974.3125 Q82.3538,973.9375 81.7444,973.7188 Q81.135,973.5 80.51,973.5 Q79.7444,973.5 79.1038,973.8281 Q78.4788,974.1563 77.9788,974.9063 Q77.4944,975.6563 77.4944,976.6875 L77.4944,977.7813 Q77.4944,979.0156 78.385,979.8438 Q79.2756,980.6563 80.8694,980.6563 Q81.8069,980.6563 82.4631,980.4063 Q82.8538,980.25 83.2756,979.8125 Q83.5413,979.5469 83.6819,979.4688 Q83.8381,979.3906 84.0413,979.3906 Q84.3694,979.3906 84.6194,979.6563 Q84.885,979.9063 84.885,980.25 Q84.885,980.5938 84.5413,981 Q84.0413,981.5781 83.2444,981.9063 Q82.1663,982.3594 80.8694,982.3594 Q79.3538,982.3594 78.1506,981.7344 Q77.1663,981.2344 76.4788,980.1719 Q75.7913,979.0938 75.7913,977.8125 L75.7913,976.6563 Q75.7913,975.3281 76.4006,974.1875 Q77.0256,973.0313 78.1194,972.4219 Q79.2131,971.7969 80.4475,971.7969 Q81.1819,971.7969 81.8225,971.9688 Q82.4788,972.125 83.0256,972.4844 Z " fill="#000000"/><text fill="#000000" font-family="sans-serif" font-size="14" lengthAdjust="spacing" textLength="173.4756" x="94.26" y="982.3379">Call of First Disciples (Ch 4)</text><line style="stroke:#181818;stroke-width:0.5;" x1="66.26" x2="269.7356" y1="992.6094" y2="992.6094"/><line style="stroke:#181818;stroke-width:0.5;" x1="66.26" x2="269.7356" y1="1000.6094" y2="1000.6094"/></g><!--class Beatitudes (Ch 5)--><g class="entity" data-entity="Beatitudes .Ch 5." data-source-line="19" data-uid="ent0014" id="entity_Beatitudes .Ch 5."><rect fill="#F1F1F1" height="48" rx="2.5" ry="2.5" style="stroke:#181818;stroke-width:0.5;" width="140.9443" x="97.53" y="1084.6094"/><ellipse cx="112.53" cy="1100.6094" fill="#ADD1B2" rx="11" ry="11" style="stroke:#181818;stroke-width:1;"/><path d="M115.2956,1096.4844 Q115.4519,1096.2656 115.6394,1096.1563 Q115.8269,1096.0469 116.0456,1096.0469 Q116.4206,1096.0469 116.655,1096.3125 Q116.8894,1096.5625 116.8894,1097.1719 L116.8894,1098.625 Q116.8894,1099.2344 116.655,1099.5 Q116.4206,1099.7656 116.0456,1099.7656 Q115.7019,1099.7656 115.4988,1099.5625 Q115.2956,1099.375 115.1863,1098.8594 Q115.1394,1098.5 114.9519,1098.3125 Q114.6238,1097.9375 114.0144,1097.7188 Q113.405,1097.5 112.78,1097.5 Q112.0144,1097.5 111.3738,1097.8281 Q110.7488,1098.1563 110.2488,1098.9063 Q109.7644,1099.6563 109.7644,1100.6875 L109.7644,1101.7813 Q109.7644,1103.0156 110.655,1103.8438 Q111.5456,1104.6563 113.1394,1104.6563 Q114.0769,1104.6563 114.7331,1104.4063 Q115.1238,1104.25 115.5456,1103.8125 Q115.8113,1103.5469 115.9519,1103.4688 Q116.1081,1103.3906 116.3113,1103.3906 Q116.6394,1103.3906 116.8894,1103.6563 Q117.155,1103.9063 117.155,1104.25 Q117.155,1104.5938 116.8113,1105 Q116.3113,1105.5781 115.5144,1105.9063 Q114.4363,1106.3594 113.1394,1106.3594 Q111.6238,1106.3594 110.4206,1105.7344 Q109.4363,1105.2344 108.7488,1104.1719 Q108.0613,1103.0938 108.0613,1101.8125 L108.0613,1100.6563 Q108.0613,1099.3281 108.6706,1098.1875 Q109.2956,1097.0313 110.3894,1096.4219 Q111.4831,1095.7969 112.7175,1095.7969 Q113.4519,1095.7969 114.0925,1095.9688 Q114.7488,1096.125 115.2956,1096.4844 Z " fill="#000000"/><text fill="#000000" font-family="sans-serif" font-size="14" lengthAdjust="spacing" textLength="108.9443" x="126.53" y="1106.3379">Beatitudes (Ch 5)</text><line style="stroke:#181818;stroke-width:0.5;" x1="98.53" x2="237.4743" y1="1116.6094" y2="1116.6094"/><line style="stroke:#181818;stroke-width:0.5;" x1="98.53" x2="237.4743" y1="1124.6094" y2="1124.6094"/></g><!--class Law & Prophets Fulfilled (Ch 5)--><g class="entity" data-entity="Law . Prophets Fulfilled .Ch 5." data-source-line="20" data-uid="ent0015" id="entity_Law . Prophets Fulfilled .Ch 5."><rect fill="#F1F1F1" height="48" rx="2.5" ry="2.5" style="stroke:#181818;stroke-width:0.5;" width="225.751" x="55.12" y="1192.6094"/><ellipse cx="70.12" cy="1208.6094" fill="#ADD1B2" rx="11" ry="11" style="stroke:#181818;stroke-width:1;"/><path d="M72.8856,1204.4844 Q73.0419,1204.2656 73.2294,1204.1563 Q73.4169,1204.0469 73.6356,1204.0469 Q74.0106,1204.0469 74.245,1204.3125 Q74.4794,1204.5625 74.4794,1205.1719 L74.4794,1206.625 Q74.4794,1207.2344 74.245,1207.5 Q74.0106,1207.7656 73.6356,1207.7656 Q73.2919,1207.7656 73.0888,1207.5625 Q72.8856,1207.375 72.7763,1206.8594 Q72.7294,1206.5 72.5419,1206.3125 Q72.2138,1205.9375 71.6044,1205.7188 Q70.995,1205.5 70.37,1205.5 Q69.6044,1205.5 68.9638,1205.8281 Q68.3388,1206.1563 67.8388,1206.9063 Q67.3544,1207.6563 67.3544,1208.6875 L67.3544,1209.7813 Q67.3544,1211.0156 68.245,1211.8438 Q69.1356,1212.6563 70.7294,1212.6563 Q71.6669,1212.6563 72.3231,1212.4063 Q72.7138,1212.25 73.1356,1211.8125 Q73.4013,1211.5469 73.5419,1211.4688 Q73.6981,1211.3906 73.9013,1211.3906 Q74.2294,1211.3906 74.4794,1211.6563 Q74.745,1211.9063 74.745,1212.25 Q74.745,1212.5938 74.4013,1213 Q73.9013,1213.5781 73.1044,1213.9063 Q72.0263,1214.3594 70.7294,1214.3594 Q69.2138,1214.3594 68.0106,1213.7344 Q67.0263,1213.2344 66.3388,1212.1719 Q65.6513,1211.0938 65.6513,1209.8125 L65.6513,1208.6563 Q65.6513,1207.3281 66.2606,1206.1875 Q66.8856,1205.0313 67.9794,1204.4219 Q69.0731,1203.7969 70.3075,1203.7969 Q71.0419,1203.7969 71.6825,1203.9688 Q72.3388,1204.125 72.8856,1204.4844 Z " fill="#000000"/><text fill="#000000" font-family="sans-serif" font-size="14" lengthAdjust="spacing" textLength="193.751" x="84.12" y="1214.3379">Law &amp; Prophets Fulfilled (Ch 5)</text><line style="stroke:#181818;stroke-width:0.5;" x1="56.12" x2="279.871" y1="1224.6094" y2="1224.6094"/><line style="stroke:#181818;stroke-width:0.5;" x1="56.12" x2="279.871" y1="1232.6094" y2="1232.6094"/></g><!--class Prayer & Fasting (Ch 6)--><g class="entity" data-entity="Prayer . Fasting .Ch 6." data-source-line="21" data-uid="ent0016" id="entity_Prayer . Fasting .Ch 6."><rect fill="#F1F1F1" height="48" rx="2.5" ry="2.5" style="stroke:#181818;stroke-width:0.5;" width="179.0479" x="78.48" y="1300.6094"/><ellipse cx="93.48" cy="1316.6094" fill="#ADD1B2" rx="11" ry="11" style="stroke:#181818;stroke-width:1;"/><path d="M96.2456,1312.4844 Q96.4019,1312.2656 96.5894,1312.1563 Q96.7769,1312.0469 96.9956,1312.0469 Q97.3706,1312.0469 97.605,1312.3125 Q97.8394,1312.5625 97.8394,1313.1719 L97.8394,1314.625 Q97.8394,1315.2344 97.605,1315.5 Q97.3706,1315.7656 96.9956,1315.7656 Q96.6519,1315.7656 96.4488,1315.5625 Q96.2456,1315.375 96.1363,1314.8594 Q96.0894,1314.5 95.9019,1314.3125 Q95.5738,1313.9375 94.9644,1313.7188 Q94.355,1313.5 93.73,1313.5 Q92.9644,1313.5 92.3238,1313.8281 Q91.6988,1314.1563 91.1988,1314.9063 Q90.7144,1315.6563 90.7144,1316.6875 L90.7144,1317.7813 Q90.7144,1319.0156 91.605,1319.8438 Q92.4956,1320.6563 94.0894,1320.6563 Q95.0269,1320.6563 95.6831,1320.4063 Q96.0738,1320.25 96.4956,1319.8125 Q96.7613,1319.5469 96.9019,1319.4688 Q97.0581,1319.3906 97.2613,1319.3906 Q97.5894,1319.3906 97.8394,1319.6563 Q98.105,1319.9063 98.105,1320.25 Q98.105,1320.5938 97.7613,1321 Q97.2613,1321.5781 96.4644,1321.9063 Q95.3863,1322.3594 94.0894,1322.3594 Q92.5738,1322.3594 91.3706,1321.7344 Q90.3863,1321.2344 89.6988,1320.1719 Q89.0113,1319.0938 89.0113,1317.8125 L89.0113,1316.6563 Q89.0113,1315.3281 89.6206,1314.1875 Q90.2456,1313.0313 91.3394,1312.4219 Q92.4331,1311.7969 93.6675,1311.7969 Q94.4019,1311.7969 95.0425,1311.9688 Q95.6988,1312.125 96.2456,1312.4844 Z " fill="#000000"/><text fill="#000000" font-family="sans-serif" font-size="14" lengthAdjust="spacing" textLength="147.0479" x="107.48" y="1322.3379">Prayer &amp; Fasting (Ch 6)</text><line style="stroke:#181818;stroke-width:0.5;" x1="79.48" x2="256.5279" y1="1332.6094" y2="1332.6094"/><line style="stroke:#181818;stroke-width:0.5;" x1="79.48" x2="256.5279" y1="1340.6094" y2="1340.6094"/></g><!--class Judging Others, Golden Rule (Ch 7)--><g class="entity" data-entity="Judging Others. Golden Rule .Ch 7." data-source-line="22" data-uid="ent0017" id="entity_Judging Others. Golden Rule .Ch 7."><rect fill="#F1F1F1" height="48" rx="2.5" ry="2.5" style="stroke:#181818;stroke-width:0.5;" width="255.3369" x="40.33" y="1408.6094"/><ellipse cx="55.33" cy="1424.6094" fill="#ADD1B2" rx="11" ry="11" style="stroke:#181818;stroke-width:1;"/><path d="M58.0956,1420.4844 Q58.2519,1420.2656 58.4394,1420.1563 Q58.6269,1420.0469 58.8456,1420.0469 Q59.2206,1420.0469 59.455,1420.3125 Q59.6894,1420.5625 59.6894,1421.1719 L59.6894,1422.625 Q59.6894,1423.2344 59.455,1423.5 Q59.2206,1423.7656 58.8456,1423.7656 Q58.5019,1423.7656 58.2988,1423.5625 Q58.0956,1423.375 57.9863,1422.8594 Q57.9394,1422.5 57.7519,1422.3125 Q57.4238,1421.9375 56.8144,1421.7188 Q56.205,1421.5 55.58,1421.5 Q54.8144,1421.5 54.1738,1421.8281 Q53.5488,1422.1563 53.0488,1422.9063 Q52.5644,1423.6563 52.5644,1424.6875 L52.5644,1425.7813 Q52.5644,1427.0156 53.455,1427.8438 Q54.3456,1428.6563 55.9394,1428.6563 Q56.8769,1428.6563 57.5331,1428.4063 Q57.9238,1428.25 58.3456,1427.8125 Q58.6113,1427.5469 58.7519,1427.4688 Q58.9081,1427.3906 59.1113,1427.3906 Q59.4394,1427.3906 59.6894,1427.6563 Q59.955,1427.9063 59.955,1428.25 Q59.955,1428.5938 59.6113,1429 Q59.1113,1429.5781 58.3144,1429.9063 Q57.2363,1430.3594 55.9394,1430.3594 Q54.4238,1430.3594 53.2206,1429.7344 Q52.2363,1429.2344 51.5488,1428.1719 Q50.8613,1427.0938 50.8613,1425.8125 L50.8613,1424.6563 Q50.8613,1423.3281 51.4706,1422.1875 Q52.0956,1421.0313 53.1894,1420.4219 Q54.2831,1419.7969 55.5175,1419.7969 Q56.2519,1419.7969 56.8925,1419.9688 Q57.5488,1420.125 58.0956,1420.4844 Z " fill="#000000"/><text fill="#000000" font-family="sans-serif" font-size="14" lengthAdjust="spacing" textLength="223.3369" x="69.33" y="1430.3379">Judging Others, Golden Rule (Ch 7)</text><line style="stroke:#181818;stroke-width:0.5;" x1="41.33" x2="294.6669" y1="1440.6094" y2="1440.6094"/><line style="stroke:#181818;stroke-width:0.5;" x1="41.33" x2="294.6669" y1="1448.6094" y2="1448.6094"/></g><!--class Wise and Foolish Builders (Ch 7)--><g class="entity" data-entity="Wise and Foolish Builders .Ch 7." data-source-line="23" data-uid="ent0018" id="entity_Wise and Foolish Builders .Ch 7."><rect fill="#F1F1F1" height="48" rx="2.5" ry="2.5" style="stroke:#181818;stroke-width:0.5;" width="236.6338" x="49.68" y="1516.6094"/><ellipse cx="64.68" cy="1532.6094" fill="#ADD1B2" rx="11" ry="11" style="stroke:#181818;stroke-width:1;"/><path d="M67.4456,1528.4844 Q67.6019,1528.2656 67.7894,1528.1563 Q67.9769,1528.0469 68.1956,1528.0469 Q68.5706,1528.0469 68.805,1528.3125 Q69.0394,1528.5625 69.0394,1529.1719 L69.0394,1530.625 Q69.0394,1531.2344 68.805,1531.5 Q68.5706,1531.7656 68.1956,1531.7656 Q67.8519,1531.7656 67.6488,1531.5625 Q67.4456,1531.375 67.3363,1530.8594 Q67.2894,1530.5 67.1019,1530.3125 Q66.7738,1529.9375 66.1644,1529.7188 Q65.555,1529.5 64.93,1529.5 Q64.1644,1529.5 63.5238,1529.8281 Q62.8988,1530.1563 62.3988,1530.9063 Q61.9144,1531.6563 61.9144,1532.6875 L61.9144,1533.7813 Q61.9144,1535.0156 62.805,1535.8438 Q63.6956,1536.6563 65.2894,1536.6563 Q66.2269,1536.6563 66.8831,1536.4063 Q67.2738,1536.25 67.6956,1535.8125 Q67.9613,1535.5469 68.1019,1535.4688 Q68.2581,1535.3906 68.4613,1535.3906 Q68.7894,1535.3906 69.0394,1535.6563 Q69.305,1535.9063 69.305,1536.25 Q69.305,1536.5938 68.9613,1537 Q68.4613,1537.5781 67.6644,1537.9063 Q66.5863,1538.3594 65.2894,1538.3594 Q63.7738,1538.3594 62.5706,1537.7344 Q61.5863,1537.2344 60.8988,1536.1719 Q60.2113,1535.0938 60.2113,1533.8125 L60.2113,1532.6563 Q60.2113,1531.3281 60.8206,1530.1875 Q61.4456,1529.0313 62.5394,1528.4219 Q63.6331,1527.7969 64.8675,1527.7969 Q65.6019,1527.7969 66.2425,1527.9688 Q66.8988,1528.125 67.4456,1528.4844 Z " fill="#000000"/><text fill="#000000" font-family="sans-serif" font-size="14" lengthAdjust="spacing" textLength="204.6338" x="78.68" y="1538.3379">Wise and Foolish Builders (Ch 7)</text><line style="stroke:#181818;stroke-width:0.5;" x1="50.68" x2="285.3138" y1="1548.6094" y2="1548.6094"/><line style="stroke:#181818;stroke-width:0.5;" x1="50.68" x2="285.3138" y1="1556.6094" y2="1556.6094"/></g><!--class Healing of Leper (8:1-4)--><g class="entity" data-entity="Healing of Leper .8.1-4." data-source-line="27" data-uid="ent0020" id="entity_Healing of Leper .8.1-4."><rect fill="#F1F1F1" height="48" rx="2.5" ry="2.5" style="stroke:#181818;stroke-width:0.5;" width="179.8613" x="78.07" y="1640.6094"/><ellipse cx="93.07" cy="1656.6094" fill="#ADD1B2" rx="11" ry="11" style="stroke:#181818;stroke-width:1;"/><path d="M95.8356,1652.4844 Q95.9919,1652.2656 96.1794,1652.1563 Q96.3669,1652.0469 96.5856,1652.0469 Q96.9606,1652.0469 97.195,1652.3125 Q97.4294,1652.5625 97.4294,1653.1719 L97.4294,1654.625 Q97.4294,1655.2344 97.195,1655.5 Q96.9606,1655.7656 96.5856,1655.7656 Q96.2419,1655.7656 96.0388,1655.5625 Q95.8356,1655.375 95.7263,1654.8594 Q95.6794,1654.5 95.4919,1654.3125 Q95.1638,1653.9375 94.5544,1653.7188 Q93.945,1653.5 93.32,1653.5 Q92.5544,1653.5 91.9138,1653.8281 Q91.2888,1654.1563 90.7888,1654.9063 Q90.3044,1655.6563 90.3044,1656.6875 L90.3044,1657.7813 Q90.3044,1659.0156 91.195,1659.8438 Q92.0856,1660.6563 93.6794,1660.6563 Q94.6169,1660.6563 95.2731,1660.4063 Q95.6638,1660.25 96.0856,1659.8125 Q96.3513,1659.5469 96.4919,1659.4688 Q96.6481,1659.3906 96.8513,1659.3906 Q97.1794,1659.3906 97.4294,1659.6563 Q97.695,1659.9063 97.695,1660.25 Q97.695,1660.5938 97.3513,1661 Q96.8513,1661.5781 96.0544,1661.9063 Q94.9763,1662.3594 93.6794,1662.3594 Q92.1638,1662.3594 90.9606,1661.7344 Q89.9763,1661.2344 89.2888,1660.1719 Q88.6013,1659.0938 88.6013,1657.8125 L88.6013,1656.6563 Q88.6013,1655.3281 89.2106,1654.1875 Q89.8356,1653.0313 90.9294,1652.4219 Q92.0231,1651.7969 93.2575,1651.7969 Q93.9919,1651.7969 94.6325,1651.9688 Q95.2888,1652.125 95.8356,1652.4844 Z " fill="#000000"/><text fill="#000000" font-family="sans-serif" font-size="14" lengthAdjust="spacing" textLength="147.8613" x="107.07" y="1662.3379">Healing of Leper (8:1-4)</text><line style="stroke:#181818;stroke-width:0.5;" x1="79.07" x2="256.9313" y1="1672.6094" y2="1672.6094"/><line style="stroke:#181818;stroke-width:0.5;" x1="79.07" x2="256.9313" y1="1680.6094" y2="1680.6094"/></g><!--class Healing of Centurion's Servant (8:5-13)--><g class="entity" data-entity="Healing of Centurion.s Servant .8.5-13." data-source-line="28" data-uid="ent0021" id="entity_Healing of Centurion.s Servant .8.5-13."><rect fill="#F1F1F1" height="48" rx="2.5" ry="2.5" style="stroke:#181818;stroke-width:0.5;" width="274.3545" x="30.82" y="1748.6094"/><ellipse cx="45.82" cy="1764.6094" fill="#ADD1B2" rx="11" ry="11" style="stroke:#181818;stroke-width:1;"/><path d="M48.5856,1760.4844 Q48.7419,1760.2656 48.9294,1760.1563 Q49.1169,1760.0469 49.3356,1760.0469 Q49.7106,1760.0469 49.945,1760.3125 Q50.1794,1760.5625 50.1794,1761.1719 L50.1794,1762.625 Q50.1794,1763.2344 49.945,1763.5 Q49.7106,1763.7656 49.3356,1763.7656 Q48.9919,1763.7656 48.7888,1763.5625 Q48.5856,1763.375 48.4763,1762.8594 Q48.4294,1762.5 48.2419,1762.3125 Q47.9138,1761.9375 47.3044,1761.7188 Q46.695,1761.5 46.07,1761.5 Q45.3044,1761.5 44.6638,1761.8281 Q44.0388,1762.1563 43.5388,1762.9063 Q43.0544,1763.6563 43.0544,1764.6875 L43.0544,1765.7813 Q43.0544,1767.0156 43.945,1767.8438 Q44.8356,1768.6563 46.4294,1768.6563 Q47.3669,1768.6563 48.0231,1768.4063 Q48.4138,1768.25 48.8356,1767.8125 Q49.1013,1767.5469 49.2419,1767.4688 Q49.3981,1767.3906 49.6013,1767.3906 Q49.9294,1767.3906 50.1794,1767.6563 Q50.445,1767.9063 50.445,1768.25 Q50.445,1768.5938 50.1013,1769 Q49.6013,1769.5781 48.8044,1769.9063 Q47.7263,1770.3594 46.4294,1770.3594 Q44.9138,1770.3594 43.7106,1769.7344 Q42.7263,1769.2344 42.0388,1768.1719 Q41.3513,1767.0938 41.3513,1765.8125 L41.3513,1764.6563 Q41.3513,1763.3281 41.9606,1762.1875 Q42.5856,1761.0313 43.6794,1760.4219 Q44.7731,1759.7969 46.0075,1759.7969 Q46.7419,1759.7969 47.3825,1759.9688 Q48.0388,1760.125 48.5856,1760.4844 Z " fill="#000000"/><text fill="#000000" font-family="sans-serif" font-size="14" lengthAdjust="spacing" textLength="242.3545" x="59.82" y="1770.3379">Healing of Centurion's Servant (8:5-13)</text><line style="stroke:#181818;stroke-width:0.5;" x1="31.82" x2="304.1745" y1="1780.6094" y2="1780.6094"/><line style="stroke:#181818;stroke-width:0.5;" x1="31.82" x2="304.1745" y1="1788.6094" y2="1788.6094"/></g><!--class Healing of Peter's Mother-in-law (8:14-15)--><g class="entity" data-entity="Healing of Peter.s Mother-in-law .8.14-15." data-source-line="29" data-uid="ent0022" id="entity_Healing of Peter.s Mother-in-law .8.14-15."><rect fill="#F1F1F1" height="48" rx="2.5" ry="2.5" style="stroke:#181818;stroke-width:0.5;" width="291.4512" x="22.27" y="1856.6094"/><ellipse cx="37.27" cy="1872.6094" fill="#ADD1B2" rx="11" ry="11" style="stroke:#181818;stroke-width:1;"/><path d="M40.0356,1868.4844 Q40.1919,1868.2656 40.3794,1868.1563 Q40.5669,1868.0469 40.7856,1868.0469 Q41.1606,1868.0469 41.395,1868.3125 Q41.6294,1868.5625 41.6294,1869.1719 L41.6294,1870.625 Q41.6294,1871.2344 41.395,1871.5 Q41.1606,1871.7656 40.7856,1871.7656 Q40.4419,1871.7656 40.2388,1871.5625 Q40.0356,1871.375 39.9263,1870.8594 Q39.8794,1870.5 39.6919,1870.3125 Q39.3638,1869.9375 38.7544,1869.7188 Q38.145,1869.5 37.52,1869.5 Q36.7544,1869.5 36.1138,1869.8281 Q35.4888,1870.1563 34.9888,1870.9063 Q34.5044,1871.6563 34.5044,1872.6875 L34.5044,1873.7813 Q34.5044,1875.0156 35.395,1875.8438 Q36.2856,1876.6563 37.8794,1876.6563 Q38.8169,1876.6563 39.4731,1876.4063 Q39.8638,1876.25 40.2856,1875.8125 Q40.5513,1875.5469 40.6919,1875.4688 Q40.8481,1875.3906 41.0513,1875.3906 Q41.3794,1875.3906 41.6294,1875.6563 Q41.895,1875.9063 41.895,1876.25 Q41.895,1876.5938 41.5513,1877 Q41.0513,1877.5781 40.2544,1877.9063 Q39.1763,1878.3594 37.8794,1878.3594 Q36.3638,1878.3594 35.1606,1877.7344 Q34.1763,1877.2344 33.4888,1876.1719 Q32.8013,1875.0938 32.8013,1873.8125 L32.8013,1872.6563 Q32.8013,1871.3281 33.4106,1870.1875 Q34.0356,1869.0313 35.1294,1868.4219 Q36.2231,1867.7969 37.4575,1867.7969 Q38.1919,1867.7969 38.8325,1867.9688 Q39.4888,1868.125 40.0356,1868.4844 Z " fill="#000000"/><text fill="#000000" font-family="sans-serif" font-size="14" lengthAdjust="spacing" textLength="259.4512" x="51.27" y="1878.3379">Healing of Peter's Mother-in-law (8:14-15)</text><line style="stroke:#181818;stroke-width:0.5;" x1="23.27" x2="312.7212" y1="1888.6094" y2="1888.6094"/><line style="stroke:#181818;stroke-width:0.5;" x1="23.27" x2="312.7212" y1="1896.6094" y2="1896.6094"/></g><!--class Stilling the Storm (8:23-27)--><g class="entity" data-entity="Stilling the Storm .8.23-27." data-source-line="30" data-uid="ent0023" id="entity_Stilling the Storm .8.23-27."><rect fill="#F1F1F1" height="48" rx="2.5" ry="2.5" style="stroke:#181818;stroke-width:0.5;" width="198.5166" x="68.74" y="1964.6094"/><ellipse cx="83.74" cy="1980.6094" fill="#ADD1B2" rx="11" ry="11" style="stroke:#181818;stroke-width:1;"/><path d="M86.5056,1976.4844 Q86.6619,1976.2656 86.8494,1976.1563 Q87.0369,1976.0469 87.2556,1976.0469 Q87.6306,1976.0469 87.865,1976.3125 Q88.0994,1976.5625 88.0994,1977.1719 L88.0994,1978.625 Q88.0994,1979.2344 87.865,1979.5 Q87.6306,1979.7656 87.2556,1979.7656 Q86.9119,1979.7656 86.7088,1979.5625 Q86.5056,1979.375 86.3963,1978.8594 Q86.3494,1978.5 86.1619,1978.3125 Q85.8338,1977.9375 85.2244,1977.7188 Q84.615,1977.5 83.99,1977.5 Q83.2244,1977.5 82.5838,1977.8281 Q81.9588,1978.1563 81.4588,1978.9063 Q80.9744,1979.6563 80.9744,1980.6875 L80.9744,1981.7813 Q80.9744,1983.0156 81.865,1983.8438 Q82.7556,1984.6563 84.3494,1984.6563 Q85.2869,1984.6563 85.9431,1984.4063 Q86.3338,1984.25 86.7556,1983.8125 Q87.0213,1983.5469 87.1619,1983.4688 Q87.3181,1983.3906 87.5213,1983.3906 Q87.8494,1983.3906 88.0994,1983.6563 Q88.365,1983.9063 88.365,1984.25 Q88.365,1984.5938 88.0213,1985 Q87.5213,1985.5781 86.7244,1985.9063 Q85.6463,1986.3594 84.3494,1986.3594 Q82.8338,1986.3594 81.6306,1985.7344 Q80.6463,1985.2344 79.9588,1984.1719 Q79.2713,1983.0938 79.2713,1981.8125 L79.2713,1980.6563 Q79.2713,1979.3281 79.8806,1978.1875 Q80.5056,1977.0313 81.5994,1976.4219 Q82.6931,1975.7969 83.9275,1975.7969 Q84.6619,1975.7969 85.3025,1975.9688 Q85.9588,1976.125 86.5056,1976.4844 Z " fill="#000000"/><text fill="#000000" font-family="sans-serif" font-size="14" lengthAdjust="spacing" textLength="166.5166" x="97.74" y="1986.3379">Stilling the Storm (8:23-27)</text><line style="stroke:#181818;stroke-width:0.5;" x1="69.74" x2="266.2566" y1="1996.6094" y2="1996.6094"/><line style="stroke:#181818;stroke-width:0.5;" x1="69.74" x2="266.2566" y1="2004.6094" y2="2004.6094"/></g><!--class Healing of Demoniacs (8:28-34)--><g class="entity" data-entity="Healing of Demoniacs .8.28-34." data-source-line="31" data-uid="ent0024" id="entity_Healing of Demoniacs .8.28-34."><rect fill="#F1F1F1" height="48" rx="2.5" ry="2.5" style="stroke:#181818;stroke-width:0.5;" width="229.6543" x="53.17" y="2072.6094"/><ellipse cx="68.17" cy="2088.6094" fill="#ADD1B2" rx="11" ry="11" style="stroke:#181818;stroke-width:1;"/><path d="M70.9356,2084.4844 Q71.0919,2084.2656 71.2794,2084.1563 Q71.4669,2084.0469 71.6856,2084.0469 Q72.0606,2084.0469 72.295,2084.3125 Q72.5294,2084.5625 72.5294,2085.1719 L72.5294,2086.625 Q72.5294,2087.2344 72.295,2087.5 Q72.0606,2087.7656 71.6856,2087.7656 Q71.3419,2087.7656 71.1388,2087.5625 Q70.9356,2087.375 70.8263,2086.8594 Q70.7794,2086.5 70.5919,2086.3125 Q70.2638,2085.9375 69.6544,2085.7188 Q69.045,2085.5 68.42,2085.5 Q67.6544,2085.5 67.0138,2085.8281 Q66.3888,2086.1563 65.8888,2086.9063 Q65.4044,2087.6563 65.4044,2088.6875 L65.4044,2089.7813 Q65.4044,2091.0156 66.295,2091.8438 Q67.1856,2092.6563 68.7794,2092.6563 Q69.7169,2092.6563 70.3731,2092.4063 Q70.7638,2092.25 71.1856,2091.8125 Q71.4513,2091.5469 71.5919,2091.4688 Q71.7481,2091.3906 71.9513,2091.3906 Q72.2794,2091.3906 72.5294,2091.6563 Q72.795,2091.9063 72.795,2092.25 Q72.795,2092.5938 72.4513,2093 Q71.9513,2093.5781 71.1544,2093.9063 Q70.0763,2094.3594 68.7794,2094.3594 Q67.2638,2094.3594 66.0606,2093.7344 Q65.0763,2093.2344 64.3888,2092.1719 Q63.7013,2091.0938 63.7013,2089.8125 L63.7013,2088.6563 Q63.7013,2087.3281 64.3106,2086.1875 Q64.9356,2085.0313 66.0294,2084.4219 Q67.1231,2083.7969 68.3575,2083.7969 Q69.0919,2083.7969 69.7325,2083.9688 Q70.3888,2084.125 70.9356,2084.4844 Z " fill="#000000"/><text fill="#000000" font-family="sans-serif" font-size="14" lengthAdjust="spacing" textLength="197.6543" x="82.17" y="2094.3379">Healing of Demoniacs (8:28-34)</text><line style="stroke:#181818;stroke-width:0.5;" x1="54.17" x2="281.8243" y1="2104.6094" y2="2104.6094"/><line style="stroke:#181818;stroke-width:0.5;" x1="54.17" x2="281.8243" y1="2112.6094" y2="2112.6094"/></g><!--class Healing of Paralytic (9:1-8)--><g class="entity" data-entity="Healing of Paralytic .9.1-8." data-source-line="32" data-uid="ent0025" id="entity_Healing of Paralytic .9.1-8."><rect fill="#F1F1F1" height="48" rx="2.5" ry="2.5" style="stroke:#181818;stroke-width:0.5;" width="197.7373" x="69.13" y="2180.6094"/><ellipse cx="84.13" cy="2196.6094" fill="#ADD1B2" rx="11" ry="11" style="stroke:#181818;stroke-width:1;"/><path d="M86.8956,2192.4844 Q87.0519,2192.2656 87.2394,2192.1563 Q87.4269,2192.0469 87.6456,2192.0469 Q88.0206,2192.0469 88.255,2192.3125 Q88.4894,2192.5625 88.4894,2193.1719 L88.4894,2194.625 Q88.4894,2195.2344 88.255,2195.5 Q88.0206,2195.7656 87.6456,2195.7656 Q87.3019,2195.7656 87.0988,2195.5625 Q86.8956,2195.375 86.7863,2194.8594 Q86.7394,2194.5 86.5519,2194.3125 Q86.2238,2193.9375 85.6144,2193.7188 Q85.005,2193.5 84.38,2193.5 Q83.6144,2193.5 82.9738,2193.8281 Q82.3488,2194.1563 81.8488,2194.9063 Q81.3644,2195.6563 81.3644,2196.6875 L81.3644,2197.7813 Q81.3644,2199.0156 82.255,2199.8438 Q83.1456,2200.6563 84.7394,2200.6563 Q85.6769,2200.6563 86.3331,2200.4063 Q86.7238,2200.25 87.1456,2199.8125 Q87.4113,2199.5469 87.5519,2199.4688 Q87.7081,2199.3906 87.9113,2199.3906 Q88.2394,2199.3906 88.4894,2199.6563 Q88.755,2199.9063 88.755,2200.25 Q88.755,2200.5938 88.4113,2201 Q87.9113,2201.5781 87.1144,2201.9063 Q86.0363,2202.3594 84.7394,2202.3594 Q83.2238,2202.3594 82.0206,2201.7344 Q81.0363,2201.2344 80.3488,2200.1719 Q79.6613,2199.0938 79.6613,2197.8125 L79.6613,2196.6563 Q79.6613,2195.3281 80.2706,2194.1875 Q80.8956,2193.0313 81.9894,2192.4219 Q83.0831,2191.7969 84.3175,2191.7969 Q85.0519,2191.7969 85.6925,2191.9688 Q86.3488,2192.125 86.8956,2192.4844 Z " fill="#000000"/><text fill="#000000" font-family="sans-serif" font-size="14" lengthAdjust="spacing" textLength="165.7373" x="98.13" y="2202.3379">Healing of Paralytic (9:1-8)</text><line style="stroke:#181818;stroke-width:0.5;" x1="70.13" x2="265.8673" y1="2212.6094" y2="2212.6094"/><line style="stroke:#181818;stroke-width:0.5;" x1="70.13" x2="265.8673" y1="2220.6094" y2="2220.6094"/></g><!--class Call of Matthew (9:9-13)--><g class="entity" data-entity="Call of Matthew .9.9-13." data-source-line="33" data-uid="ent0026" id="entity_Call of Matthew .9.9-13."><rect fill="#F1F1F1" height="48" rx="2.5" ry="2.5" style="stroke:#181818;stroke-width:0.5;" width="181.3926" x="77.3" y="2288.6094"/><ellipse cx="92.3" cy="2304.6094" fill="#ADD1B2" rx="11" ry="11" style="stroke:#181818;stroke-width:1;"/><path d="M95.0656,2300.4844 Q95.2219,2300.2656 95.4094,2300.1563 Q95.5969,2300.0469 95.8156,2300.0469 Q96.1906,2300.0469 96.425,2300.3125 Q96.6594,2300.5625 96.6594,2301.1719 L96.6594,2302.625 Q96.6594,2303.2344 96.425,2303.5 Q96.1906,2303.7656 95.8156,2303.7656 Q95.4719,2303.7656 95.2688,2303.5625 Q95.0656,2303.375 94.9563,2302.8594 Q94.9094,2302.5 94.7219,2302.3125 Q94.3938,2301.9375 93.7844,2301.7188 Q93.175,2301.5 92.55,2301.5 Q91.7844,2301.5 91.1438,2301.8281 Q90.5188,2302.1563 90.0188,2302.9063 Q89.5344,2303.6563 89.5344,2304.6875 L89.5344,2305.7813 Q89.5344,2307.0156 90.425,2307.8438 Q91.3156,2308.6563 92.9094,2308.6563 Q93.8469,2308.6563 94.5031,2308.4063 Q94.8938,2308.25 95.3156,2307.8125 Q95.5813,2307.5469 95.7219,2307.4688 Q95.8781,2307.3906 96.0813,2307.3906 Q96.4094,2307.3906 96.6594,2307.6563 Q96.925,2307.9063 96.925,2308.25 Q96.925,2308.5938 96.5813,2309 Q96.0813,2309.5781 95.2844,2309.9063 Q94.2063,2310.3594 92.9094,2310.3594 Q91.3938,2310.3594 90.1906,2309.7344 Q89.2063,2309.2344 88.5188,2308.1719 Q87.8313,2307.0938 87.8313,2305.8125 L87.8313,2304.6563 Q87.8313,2303.3281 88.4406,2302.1875 Q89.0656,2301.0313 90.1594,2300.4219 Q91.2531,2299.7969 92.4875,2299.7969 Q93.2219,2299.7969 93.8625,2299.9688 Q94.5188,2300.125 95.0656,2300.4844 Z " fill="#000000"/><text fill="#000000" font-family="sans-serif" font-size="14" lengthAdjust="spacing" textLength="149.3926" x="106.3" y="2310.3379">Call of Matthew (9:9-13)</text><line style="stroke:#181818;stroke-width:0.5;" x1="78.3" x2="257.6926" y1="2320.6094" y2="2320.6094"/><line style="stroke:#181818;stroke-width:0.5;" x1="78.3" x2="257.6926" y1="2328.6094" y2="2328.6094"/></g><!--class Raising Ruler?s Daughter (9:18-26)--><g class="entity" data-entity="Raising Ruler.s Daughter .9.18-26." data-source-line="34" data-uid="ent0027" id="entity_Raising Ruler.s Daughter .9.18-26."><rect fill="#F1F1F1" height="48" rx="2.5" ry="2.5" style="stroke:#181818;stroke-width:0.5;" width="248.3232" x="43.84" y="2396.6094"/><ellipse cx="58.84" cy="2412.6094" fill="#ADD1B2" rx="11" ry="11" style="stroke:#181818;stroke-width:1;"/><path d="M61.6056,2408.4844 Q61.7619,2408.2656 61.9494,2408.1563 Q62.1369,2408.0469 62.3556,2408.0469 Q62.7306,2408.0469 62.965,2408.3125 Q63.1994,2408.5625 63.1994,2409.1719 L63.1994,2410.625 Q63.1994,2411.2344 62.965,2411.5 Q62.7306,2411.7656 62.3556,2411.7656 Q62.0119,2411.7656 61.8088,2411.5625 Q61.6056,2411.375 61.4963,2410.8594 Q61.4494,2410.5 61.2619,2410.3125 Q60.9338,2409.9375 60.3244,2409.7188 Q59.715,2409.5 59.09,2409.5 Q58.3244,2409.5 57.6838,2409.8281 Q57.0588,2410.1563 56.5588,2410.9063 Q56.0744,2411.6563 56.0744,2412.6875 L56.0744,2413.7813 Q56.0744,2415.0156 56.965,2415.8438 Q57.8556,2416.6563 59.4494,2416.6563 Q60.3869,2416.6563 61.0431,2416.4063 Q61.4338,2416.25 61.8556,2415.8125 Q62.1213,2415.5469 62.2619,2415.4688 Q62.4181,2415.3906 62.6213,2415.3906 Q62.9494,2415.3906 63.1994,2415.6563 Q63.465,2415.9063 63.465,2416.25 Q63.465,2416.5938 63.1213,2417 Q62.6213,2417.5781 61.8244,2417.9063 Q60.7463,2418.3594 59.4494,2418.3594 Q57.9338,2418.3594 56.7306,2417.7344 Q55.7463,2417.2344 55.0588,2416.1719 Q54.3713,2415.0938 54.3713,2413.8125 L54.3713,2412.6563 Q54.3713,2411.3281 54.9806,2410.1875 Q55.6056,2409.0313 56.6994,2408.4219 Q57.7931,2407.7969 59.0275,2407.7969 Q59.7619,2407.7969 60.4025,2407.9688 Q61.0588,2408.125 61.6056,2408.4844 Z " fill="#000000"/><text fill="#000000" font-family="sans-serif" font-size="14" lengthAdjust="spacing" textLength="216.3232" x="72.84" y="2418.3379">Raising Ruler&#8217;s Daughter (9:18-26)</text><line style="stroke:#181818;stroke-width:0.5;" x1="44.84" x2="291.1632" y1="2428.6094" y2="2428.6094"/><line style="stroke:#181818;stroke-width:0.5;" x1="44.84" x2="291.1632" y1="2436.6094" y2="2436.6094"/></g><!--class Healing Hemorrhaging Woman (9:20-22)--><g class="entity" data-entity="Healing Hemorrhaging Woman .9.20-22." data-source-line="35" data-uid="ent0028" id="entity_Healing Hemorrhaging Woman .9.20-22."><rect fill="#F1F1F1" height="48" rx="2.5" ry="2.5" style="stroke:#181818;stroke-width:0.5;" width="284.8955" x="25.55" y="2504.6094"/><ellipse cx="40.55" cy="2520.6094" fill="#ADD1B2" rx="11" ry="11" style="stroke:#181818;stroke-width:1;"/><path d="M43.3156,2516.4844 Q43.4719,2516.2656 43.6594,2516.1563 Q43.8469,2516.0469 44.0656,2516.0469 Q44.4406,2516.0469 44.675,2516.3125 Q44.9094,2516.5625 44.9094,2517.1719 L44.9094,2518.625 Q44.9094,2519.2344 44.675,2519.5 Q44.4406,2519.7656 44.0656,2519.7656 Q43.7219,2519.7656 43.5188,2519.5625 Q43.3156,2519.375 43.2063,2518.8594 Q43.1594,2518.5 42.9719,2518.3125 Q42.6438,2517.9375 42.0344,2517.7188 Q41.425,2517.5 40.8,2517.5 Q40.0344,2517.5 39.3938,2517.8281 Q38.7688,2518.1563 38.2688,2518.9063 Q37.7844,2519.6563 37.7844,2520.6875 L37.7844,2521.7813 Q37.7844,2523.0156 38.675,2523.8438 Q39.5656,2524.6563 41.1594,2524.6563 Q42.0969,2524.6563 42.7531,2524.4063 Q43.1438,2524.25 43.5656,2523.8125 Q43.8313,2523.5469 43.9719,2523.4688 Q44.1281,2523.3906 44.3313,2523.3906 Q44.6594,2523.3906 44.9094,2523.6563 Q45.175,2523.9063 45.175,2524.25 Q45.175,2524.5938 44.8313,2525 Q44.3313,2525.5781 43.5344,2525.9063 Q42.4563,2526.3594 41.1594,2526.3594 Q39.6438,2526.3594 38.4406,2525.7344 Q37.4563,2525.2344 36.7688,2524.1719 Q36.0813,2523.0938 36.0813,2521.8125 L36.0813,2520.6563 Q36.0813,2519.3281 36.6906,2518.1875 Q37.3156,2517.0313 38.4094,2516.4219 Q39.5031,2515.7969 40.7375,2515.7969 Q41.4719,2515.7969 42.1125,2515.9688 Q42.7688,2516.125 43.3156,2516.4844 Z " fill="#000000"/><text fill="#000000" font-family="sans-serif" font-size="14" lengthAdjust="spacing" textLength="252.8955" x="54.55" y="2526.3379">Healing Hemorrhaging Woman (9:20-22)</text><line style="stroke:#181818;stroke-width:0.5;" x1="26.55" x2="309.4455" y1="2536.6094" y2="2536.6094"/><line style="stroke:#181818;stroke-width:0.5;" x1="26.55" x2="309.4455" y1="2544.6094" y2="2544.6094"/></g><!--class Healing Two Blind Men (9:27-31)--><g class="entity" data-entity="Healing Two Blind Men .9.27-31." data-source-line="36" data-uid="ent0029" id="entity_Healing Two Blind Men .9.27-31."><rect fill="#F1F1F1" height="48" rx="2.5" ry="2.5" style="stroke:#181818;stroke-width:0.5;" width="236.6543" x="49.67" y="2612.6094"/><ellipse cx="64.67" cy="2628.6094" fill="#ADD1B2" rx="11" ry="11" style="stroke:#181818;stroke-width:1;"/><path d="M67.4356,2624.4844 Q67.5919,2624.2656 67.7794,2624.1563 Q67.9669,2624.0469 68.1856,2624.0469 Q68.5606,2624.0469 68.795,2624.3125 Q69.0294,2624.5625 69.0294,2625.1719 L69.0294,2626.625 Q69.0294,2627.2344 68.795,2627.5 Q68.5606,2627.7656 68.1856,2627.7656 Q67.8419,2627.7656 67.6388,2627.5625 Q67.4356,2627.375 67.3263,2626.8594 Q67.2794,2626.5 67.0919,2626.3125 Q66.7638,2625.9375 66.1544,2625.7188 Q65.545,2625.5 64.92,2625.5 Q64.1544,2625.5 63.5138,2625.8281 Q62.8888,2626.1563 62.3888,2626.9063 Q61.9044,2627.6563 61.9044,2628.6875 L61.9044,2629.7813 Q61.9044,2631.0156 62.795,2631.8438 Q63.6856,2632.6563 65.2794,2632.6563 Q66.2169,2632.6563 66.8731,2632.4063 Q67.2638,2632.25 67.6856,2631.8125 Q67.9513,2631.5469 68.0919,2631.4688 Q68.2481,2631.3906 68.4513,2631.3906 Q68.7794,2631.3906 69.0294,2631.6563 Q69.295,2631.9063 69.295,2632.25 Q69.295,2632.5938 68.9513,2633 Q68.4513,2633.5781 67.6544,2633.9063 Q66.5763,2634.3594 65.2794,2634.3594 Q63.7638,2634.3594 62.5606,2633.7344 Q61.5763,2633.2344 60.8888,2632.1719 Q60.2013,2631.0938 60.2013,2629.8125 L60.2013,2628.6563 Q60.2013,2627.3281 60.8106,2626.1875 Q61.4356,2625.0313 62.5294,2624.4219 Q63.6231,2623.7969 64.8575,2623.7969 Q65.5919,2623.7969 66.2325,2623.9688 Q66.8888,2624.125 67.4356,2624.4844 Z " fill="#000000"/><text fill="#000000" font-family="sans-serif" font-size="14" lengthAdjust="spacing" textLength="204.6543" x="78.67" y="2634.3379">Healing Two Blind Men (9:27-31)</text><line style="stroke:#181818;stroke-width:0.5;" x1="50.67" x2="285.3243" y1="2644.6094" y2="2644.6094"/><line style="stroke:#181818;stroke-width:0.5;" x1="50.67" x2="285.3243" y1="2652.6094" y2="2652.6094"/></g><!--class Healing Mute Demoniac (9:32-34)--><g class="entity" data-entity="Healing Mute Demoniac .9.32-34." data-source-line="37" data-uid="ent0030" id="entity_Healing Mute Demoniac .9.32-34."><rect fill="#F1F1F1" height="48" rx="2.5" ry="2.5" style="stroke:#181818;stroke-width:0.5;" width="242.1025" x="46.95" y="2720.6094"/><ellipse cx="61.95" cy="2736.6094" fill="#ADD1B2" rx="11" ry="11" style="stroke:#181818;stroke-width:1;"/><path d="M64.7156,2732.4844 Q64.8719,2732.2656 65.0594,2732.1563 Q65.2469,2732.0469 65.4656,2732.0469 Q65.8406,2732.0469 66.075,2732.3125 Q66.3094,2732.5625 66.3094,2733.1719 L66.3094,2734.625 Q66.3094,2735.2344 66.075,2735.5 Q65.8406,2735.7656 65.4656,2735.7656 Q65.1219,2735.7656 64.9188,2735.5625 Q64.7156,2735.375 64.6063,2734.8594 Q64.5594,2734.5 64.3719,2734.3125 Q64.0438,2733.9375 63.4344,2733.7188 Q62.825,2733.5 62.2,2733.5 Q61.4344,2733.5 60.7938,2733.8281 Q60.1688,2734.1563 59.6688,2734.9063 Q59.1844,2735.6563 59.1844,2736.6875 L59.1844,2737.7813 Q59.1844,2739.0156 60.075,2739.8438 Q60.9656,2740.6563 62.5594,2740.6563 Q63.4969,2740.6563 64.1531,2740.4063 Q64.5438,2740.25 64.9656,2739.8125 Q65.2313,2739.5469 65.3719,2739.4688 Q65.5281,2739.3906 65.7313,2739.3906 Q66.0594,2739.3906 66.3094,2739.6563 Q66.575,2739.9063 66.575,2740.25 Q66.575,2740.5938 66.2313,2741 Q65.7313,2741.5781 64.9344,2741.9063 Q63.8563,2742.3594 62.5594,2742.3594 Q61.0438,2742.3594 59.8406,2741.7344 Q58.8563,2741.2344 58.1688,2740.1719 Q57.4813,2739.0938 57.4813,2737.8125 L57.4813,2736.6563 Q57.4813,2735.3281 58.0906,2734.1875 Q58.7156,2733.0313 59.8094,2732.4219 Q60.9031,2731.7969 62.1375,2731.7969 Q62.8719,2731.7969 63.5125,2731.9688 Q64.1688,2732.125 64.7156,2732.4844 Z " fill="#000000"/><text fill="#000000" font-family="sans-serif" font-size="14" lengthAdjust="spacing" textLength="210.1025" x="75.95" y="2742.3379">Healing Mute Demoniac (9:32-34)</text><line style="stroke:#181818;stroke-width:0.5;" x1="47.95" x2="288.0525" y1="2752.6094" y2="2752.6094"/><line style="stroke:#181818;stroke-width:0.5;" x1="47.95" x2="288.0525" y1="2760.6094" y2="2760.6094"/></g><!--class Teaching & Preaching Tours (9:35-38)--><g class="entity" data-entity="Teaching . Preaching Tours .9.35-38." data-source-line="38" data-uid="ent0031" id="entity_Teaching . Preaching Tours .9.35-38."><rect fill="#F1F1F1" height="48" rx="2.5" ry="2.5" style="stroke:#181818;stroke-width:0.5;" width="270.123" x="32.94" y="2828.6094"/><ellipse cx="47.94" cy="2844.6094" fill="#ADD1B2" rx="11" ry="11" style="stroke:#181818;stroke-width:1;"/><path d="M50.7056,2840.4844 Q50.8619,2840.2656 51.0494,2840.1563 Q51.2369,2840.0469 51.4556,2840.0469 Q51.8306,2840.0469 52.065,2840.3125 Q52.2994,2840.5625 52.2994,2841.1719 L52.2994,2842.625 Q52.2994,2843.2344 52.065,2843.5 Q51.8306,2843.7656 51.4556,2843.7656 Q51.1119,2843.7656 50.9088,2843.5625 Q50.7056,2843.375 50.5963,2842.8594 Q50.5494,2842.5 50.3619,2842.3125 Q50.0338,2841.9375 49.4244,2841.7188 Q48.815,2841.5 48.19,2841.5 Q47.4244,2841.5 46.7838,2841.8281 Q46.1588,2842.1563 45.6588,2842.9063 Q45.1744,2843.6563 45.1744,2844.6875 L45.1744,2845.7813 Q45.1744,2847.0156 46.065,2847.8438 Q46.9556,2848.6563 48.5494,2848.6563 Q49.4869,2848.6563 50.1431,2848.4063 Q50.5338,2848.25 50.9556,2847.8125 Q51.2213,2847.5469 51.3619,2847.4688 Q51.5181,2847.3906 51.7213,2847.3906 Q52.0494,2847.3906 52.2994,2847.6563 Q52.565,2847.9063 52.565,2848.25 Q52.565,2848.5938 52.2213,2849 Q51.7213,2849.5781 50.9244,2849.9063 Q49.8463,2850.3594 48.5494,2850.3594 Q47.0338,2850.3594 45.8306,2849.7344 Q44.8463,2849.2344 44.1588,2848.1719 Q43.4713,2847.0938 43.4713,2845.8125 L43.4713,2844.6563 Q43.4713,2843.3281 44.0806,2842.1875 Q44.7056,2841.0313 45.7994,2840.4219 Q46.8931,2839.7969 48.1275,2839.7969 Q48.8619,2839.7969 49.5025,2839.9688 Q50.1588,2840.125 50.7056,2840.4844 Z " fill="#000000"/><text fill="#000000" font-family="sans-serif" font-size="14" lengthAdjust="spacing" textLength="238.123" x="61.94" y="2850.3379">Teaching &amp; Preaching Tours (9:35-38)</text><line style="stroke:#181818;stroke-width:0.5;" x1="33.94" x2="302.063" y1="2860.6094" y2="2860.6094"/><line style="stroke:#181818;stroke-width:0.5;" x1="33.94" x2="302.063" y1="2868.6094" y2="2868.6094"/></g><!--link Genealogy of Jesus (Ch 1) to Birth of Jesus (Ch 1)--><g class="link" data-entity-1="Genealogy of Jesus .Ch 1." data-entity-2="Birth of Jesus .Ch 1." data-source-line="41" data-uid="lnk32" id="link_Genealogy of Jesus .Ch 1._Birth of Jesus .Ch 1."><path codeLine="41" d="M168,128.8694 C168,146.5494 168,164.7394 168,182.3994" fill="none" id="Genealogy of Jesus (Ch 1)-to-Birth of Jesus (Ch 1)" style="stroke:#181818;stroke-width:1;"/><polygon fill="#181818" points="168,188.3994,172,179.3994,168,183.3994,164,179.3994,168,188.3994" style="stroke:#181818;stroke-width:1;"/></g><!--link Birth of Jesus (Ch 1) to Visit of the Magi (Ch 2)--><g class="link" data-entity-1="Birth of Jesus .Ch 1." data-entity-2="Visit of the Magi .Ch 2." data-source-line="42" data-uid="lnk33" id="link_Birth of Jesus .Ch 1._Visit of the Magi .Ch 2."><path codeLine="42" d="M168,236.8694 C168,254.5494 168,272.7394 168,290.3994" fill="none" id="Birth of Jesus (Ch 1)-to-Visit of the Magi (Ch 2)" style="stroke:#181818;stroke-width:1;"/><polygon fill="#181818" points="168,296.3994,172,287.3994,168,291.3994,164,287.3994,168,296.3994" style="stroke:#181818;stroke-width:1;"/></g><!--link Visit of the Magi (Ch 2) to Flight to Egypt (Ch 2)--><g class="link" data-entity-1="Visit of the Magi .Ch 2." data-entity-2="Flight to Egypt .Ch 2." data-source-line="43" data-uid="lnk34" id="link_Visit of the Magi .Ch 2._Flight to Egypt .Ch 2."><path codeLine="43" d="M168,344.8694 C168,362.5494 168,380.7394 168,398.3994" fill="none" id="Visit of the Magi (Ch 2)-to-Flight to Egypt (Ch 2)" style="stroke:#181818;stroke-width:1;"/><polygon fill="#181818" points="168,404.3994,172,395.3994,168,399.3994,164,395.3994,168,404.3994" style="stroke:#181818;stroke-width:1;"/></g><!--link Flight to Egypt (Ch 2) to Return to Nazareth (Ch 2)--><g class="link" data-entity-1="Flight to Egypt .Ch 2." data-entity-2="Return to Nazareth .Ch 2." data-source-line="44" data-uid="lnk35" id="link_Flight to Egypt .Ch 2._Return to Nazareth .Ch 2."><path codeLine="44" d="M168,452.8694 C168,470.5494 168,488.7394 168,506.3994" fill="none" id="Flight to Egypt (Ch 2)-to-Return to Nazareth (Ch 2)" style="stroke:#181818;stroke-width:1;"/><polygon fill="#181818" points="168,512.3994,172,503.3994,168,507.3994,164,503.3994,168,512.3994" style="stroke:#181818;stroke-width:1;"/></g><!--link Return to Nazareth (Ch 2) to John the Baptist Prepares the Way (Ch 3)--><g class="link" data-entity-1="Return to Nazareth .Ch 2." data-entity-2="John the Baptist Prepares the Way .Ch 3." data-source-line="47" data-uid="lnk36" id="link_Return to Nazareth .Ch 2._John the Baptist Prepares the Way .Ch 3."><path codeLine="47" d="M168,560.8394 C168,582.5494 168,608.7794 168,630.4594" fill="none" id="Return to Nazareth (Ch 2)-to-John the Baptist Prepares the Way (Ch 3)" style="stroke:#181818;stroke-width:1;"/><polygon fill="#181818" points="168,636.4594,172,627.4594,168,631.4594,164,627.4594,168,636.4594" style="stroke:#181818;stroke-width:1;"/></g><!--link John the Baptist Prepares the Way (Ch 3) to Baptism of Jesus (Ch 3)--><g class="link" data-entity-1="John the Baptist Prepares the Way .Ch 3." data-entity-2="Baptism of Jesus .Ch 3." data-source-line="48" data-uid="lnk37" id="link_John the Baptist Prepares the Way .Ch 3._Baptism of Jesus .Ch 3."><path codeLine="48" d="M168,684.8694 C168,702.5494 168,720.7394 168,738.3994" fill="none" id="John the Baptist Prepares the Way (Ch 3)-to-Baptism of Jesus (Ch 3)" style="stroke:#181818;stroke-width:1;"/><polygon fill="#181818" points="168,744.3994,172,735.3994,168,739.3994,164,735.3994,168,744.3994" style="stroke:#181818;stroke-width:1;"/></g><!--link Baptism of Jesus (Ch 3) to Temptation in the Desert (Ch 4)--><g class="link" data-entity-1="Baptism of Jesus .Ch 3." data-entity-2="Temptation in the Desert .Ch 4." data-source-line="49" data-uid="lnk38" id="link_Baptism of Jesus .Ch 3._Temptation in the Desert .Ch 4."><path codeLine="49" d="M168,792.8694 C168,810.5494 168,828.7394 168,846.3994" fill="none" id="Baptism of Jesus (Ch 3)-to-Temptation in the Desert (Ch 4)" style="stroke:#181818;stroke-width:1;"/><polygon fill="#181818" points="168,852.3994,172,843.3994,168,847.3994,164,843.3994,168,852.3994" style="stroke:#181818;stroke-width:1;"/></g><!--link Temptation in the Desert (Ch 4) to Call of First Disciples (Ch 4)--><g class="link" data-entity-1="Temptation in the Desert .Ch 4." data-entity-2="Call of First Disciples .Ch 4." data-source-line="50" data-uid="lnk39" id="link_Temptation in the Desert .Ch 4._Call of First Disciples .Ch 4."><path codeLine="50" d="M168,900.8694 C168,918.5494 168,936.7394 168,954.3994" fill="none" id="Temptation in the Desert (Ch 4)-to-Call of First Disciples (Ch 4)" style="stroke:#181818;stroke-width:1;"/><polygon fill="#181818" points="168,960.3994,172,951.3994,168,955.3994,164,951.3994,168,960.3994" style="stroke:#181818;stroke-width:1;"/></g><!--link Call of First Disciples (Ch 4) to Beatitudes (Ch 5)--><g class="link" data-entity-1="Call of First Disciples .Ch 4." data-entity-2="Beatitudes .Ch 5." data-source-line="52" data-uid="lnk40" id="link_Call of First Disciples .Ch 4._Beatitudes .Ch 5."><path codeLine="52" d="M168,1008.8394 C168,1030.5494 168,1056.7794 168,1078.4594" fill="none" id="Call of First Disciples (Ch 4)-to-Beatitudes (Ch 5)" style="stroke:#181818;stroke-width:1;"/><polygon fill="#181818" points="168,1084.4594,172,1075.4594,168,1079.4594,164,1075.4594,168,1084.4594" style="stroke:#181818;stroke-width:1;"/></g><!--link Beatitudes (Ch 5) to Law & Prophets Fulfilled (Ch 5)--><g class="link" data-entity-1="Beatitudes .Ch 5." data-entity-2="Law . Prophets Fulfilled .Ch 5." data-source-line="53" data-uid="lnk41" id="link_Beatitudes .Ch 5._Law . Prophets Fulfilled .Ch 5."><path codeLine="53" d="M168,1132.8694 C168,1150.5494 168,1168.7394 168,1186.3994" fill="none" id="Beatitudes (Ch 5)-to-Law &amp; Prophets Fulfilled (Ch 5)" style="stroke:#181818;stroke-width:1;"/><polygon fill="#181818" points="168,1192.3994,172,1183.3994,168,1187.3994,164,1183.3994,168,1192.3994" style="stroke:#181818;stroke-width:1;"/></g><!--link Law & Prophets Fulfilled (Ch 5) to Prayer & Fasting (Ch 6)--><g class="link" data-entity-1="Law . Prophets Fulfilled .Ch 5." data-entity-2="Prayer . Fasting .Ch 6." data-source-line="54" data-uid="lnk42" id="link_Law . Prophets Fulfilled .Ch 5._Prayer . Fasting .Ch 6."><path codeLine="54" d="M168,1240.8694 C168,1258.5494 168,1276.7394 168,1294.3994" fill="none" id="Law &amp; Prophets Fulfilled (Ch 5)-to-Prayer &amp; Fasting (Ch 6)" style="stroke:#181818;stroke-width:1;"/><polygon fill="#181818" points="168,1300.3994,172,1291.3994,168,1295.3994,164,1291.3994,168,1300.3994" style="stroke:#181818;stroke-width:1;"/></g><!--link Prayer & Fasting (Ch 6) to Judging Others, Golden Rule (Ch 7)--><g class="link" data-entity-1="Prayer . Fasting .Ch 6." data-entity-2="Judging Others. Golden Rule .Ch 7." data-source-line="55" data-uid="lnk43" id="link_Prayer . Fasting .Ch 6._Judging Others. Golden Rule .Ch 7."><path codeLine="55" d="M168,1348.8694 C168,1366.5494 168,1384.7394 168,1402.3994" fill="none" id="Prayer &amp; Fasting (Ch 6)-to-Judging Others, Golden Rule (Ch 7)" style="stroke:#181818;stroke-width:1;"/><polygon fill="#181818" points="168,1408.3994,172,1399.3994,168,1403.3994,164,1399.3994,168,1408.3994" style="stroke:#181818;stroke-width:1;"/></g><!--link Judging Others, Golden Rule (Ch 7) to Wise and Foolish Builders (Ch 7)--><g class="link" data-entity-1="Judging Others. Golden Rule .Ch 7." data-entity-2="Wise and Foolish Builders .Ch 7." data-source-line="56" data-uid="lnk44" id="link_Judging Others. Golden Rule .Ch 7._Wise and Foolish Builders .Ch 7."><path codeLine="56" d="M168,1456.8694 C168,1474.5494 168,1492.7394 168,1510.3994" fill="none" id="Judging Others, Golden Rule (Ch 7)-to-Wise and Foolish Builders (Ch 7)" style="stroke:#181818;stroke-width:1;"/><polygon fill="#181818" points="168,1516.3994,172,1507.3994,168,1511.3994,164,1507.3994,168,1516.3994" style="stroke:#181818;stroke-width:1;"/></g><!--link Wise and Foolish Builders (Ch 7) to Healing of Leper (8:1-4)--><g class="link" data-entity-1="Wise and Foolish Builders .Ch 7." data-entity-2="Healing of Leper .8.1-4." data-source-line="58" data-uid="lnk45" id="link_Wise and Foolish Builders .Ch 7._Healing of Leper .8.1-4."><path codeLine="58" d="M168,1564.8394 C168,1586.5494 168,1612.7794 168,1634.4594" fill="none" id="Wise and Foolish Builders (Ch 7)-to-Healing of Leper (8:1-4)" style="stroke:#181818;stroke-width:1;"/><polygon fill="#181818" points="168,1640.4594,172,1631.4594,168,1635.4594,164,1631.4594,168,1640.4594" style="stroke:#181818;stroke-width:1;"/></g><!--link Healing of Leper (8:1-4) to Healing of Centurion's Servant (8:5-13)--><g class="link" data-entity-1="Healing of Leper .8.1-4." data-entity-2="Healing of Centurion.s Servant .8.5-13." data-source-line="59" data-uid="lnk46" id="link_Healing of Leper .8.1-4._Healing of Centurion.s Servant .8.5-13."><path codeLine="59" d="M168,1688.8694 C168,1706.5494 168,1724.7394 168,1742.3994" fill="none" id="Healing of Leper (8:1-4)-to-Healing of Centurion's Servant (8:5-13)" style="stroke:#181818;stroke-width:1;"/><polygon fill="#181818" points="168,1748.3994,172,1739.3994,168,1743.3994,164,1739.3994,168,1748.3994" style="stroke:#181818;stroke-width:1;"/></g><!--link Healing of Centurion's Servant (8:5-13) to Healing of Peter's Mother-in-law (8:14-15)--><g class="link" data-entity-1="Healing of Centurion.s Servant .8.5-13." data-entity-2="Healing of Peter.s Mother-in-law .8.14-15." data-source-line="60" data-uid="lnk47" id="link_Healing of Centurion.s Servant .8.5-13._Healing of Peter.s Mother-in-law .8.14-15."><path codeLine="60" d="M168,1796.8694 C168,1814.5494 168,1832.7394 168,1850.3994" fill="none" id="Healing of Centurion's Servant (8:5-13)-to-Healing of Peter's Mother-in-law (8:14-15)" style="stroke:#181818;stroke-width:1;"/><polygon fill="#181818" points="168,1856.3994,172,1847.3994,168,1851.3994,164,1847.3994,168,1856.3994" style="stroke:#181818;stroke-width:1;"/></g><!--link Healing of Peter's Mother-in-law (8:14-15) to Stilling the Storm (8:23-27)--><g class="link" data-entity-1="Healing of Peter.s Mother-in-law .8.14-15." data-entity-2="Stilling the Storm .8.23-27." data-source-line="61" data-uid="lnk48" id="link_Healing of Peter.s Mother-in-law .8.14-15._Stilling the Storm .8.23-27."><path codeLine="61" d="M168,1904.8694 C168,1922.5494 168,1940.7394 168,1958.3994" fill="none" id="Healing of Peter's Mother-in-law (8:14-15)-to-Stilling the Storm (8:23-27)" style="stroke:#181818;stroke-width:1;"/><polygon fill="#181818" points="168,1964.3994,172,1955.3994,168,1959.3994,164,1955.3994,168,1964.3994" style="stroke:#181818;stroke-width:1;"/></g><!--link Stilling the Storm (8:23-27) to Healing of Demoniacs (8:28-34)--><g class="link" data-entity-1="Stilling the Storm .8.23-27." data-entity-2="Healing of Demoniacs .8.28-34." data-source-line="62" data-uid="lnk49" id="link_Stilling the Storm .8.23-27._Healing of Demoniacs .8.28-34."><path codeLine="62" d="M168,2012.8694 C168,2030.5494 168,2048.7394 168,2066.3994" fill="none" id="Stilling the Storm (8:23-27)-to-Healing of Demoniacs (8:28-34)" style="stroke:#181818;stroke-width:1;"/><polygon fill="#181818" points="168,2072.3994,172,2063.3994,168,2067.3994,164,2063.3994,168,2072.3994" style="stroke:#181818;stroke-width:1;"/></g><!--link Healing of Demoniacs (8:28-34) to Healing of Paralytic (9:1-8)--><g class="link" data-entity-1="Healing of Demoniacs .8.28-34." data-entity-2="Healing of Paralytic .9.1-8." data-source-line="64" data-uid="lnk50" id="link_Healing of Demoniacs .8.28-34._Healing of Paralytic .9.1-8."><path codeLine="64" d="M168,2120.8694 C168,2138.5494 168,2156.7394 168,2174.3994" fill="none" id="Healing of Demoniacs (8:28-34)-to-Healing of Paralytic (9:1-8)" style="stroke:#181818;stroke-width:1;"/><polygon fill="#181818" points="168,2180.3994,172,2171.3994,168,2175.3994,164,2171.3994,168,2180.3994" style="stroke:#181818;stroke-width:1;"/></g><!--link Healing of Paralytic (9:1-8) to Call of Matthew (9:9-13)--><g class="link" data-entity-1="Healing of Paralytic .9.1-8." data-entity-2="Call of Matthew .9.9-13." data-source-line="65" data-uid="lnk51" id="link_Healing of Paralytic .9.1-8._Call of Matthew .9.9-13."><path codeLine="65" d="M168,2228.8694 C168,2246.5494 168,2264.7394 168,2282.3994" fill="none" id="Healing of Paralytic (9:1-8)-to-Call of Matthew (9:9-13)" style="stroke:#181818;stroke-width:1;"/><polygon fill="#181818" points="168,2288.3994,172,2279.3994,168,2283.3994,164,2279.3994,168,2288.3994" style="stroke:#181818;stroke-width:1;"/></g><!--link Call of Matthew (9:9-13) to Raising Ruler?s Daughter (9:18-26)--><g class="link" data-entity-1="Call of Matthew .9.9-13." data-entity-2="Raising Ruler.s Daughter .9.18-26." data-source-line="66" data-uid="lnk52" id="link_Call of Matthew .9.9-13._Raising Ruler.s Daughter .9.18-26."><path codeLine="66" d="M168,2336.8694 C168,2354.5494 168,2372.7394 168,2390.3994" fill="none" id="Call of Matthew (9:9-13)-to-Raising Ruler&#8217;s Daughter (9:18-26)" style="stroke:#181818;stroke-width:1;"/><polygon fill="#181818" points="168,2396.3994,172,2387.3994,168,2391.3994,164,2387.3994,168,2396.3994" style="stroke:#181818;stroke-width:1;"/></g><!--link Raising Ruler?s Daughter (9:18-26) to Healing Hemorrhaging Woman (9:20-22)--><g class="link" data-entity-1="Raising Ruler.s Daughter .9.18-26." data-entity-2="Healing Hemorrhaging Woman .9.20-22." data-source-line="68" data-uid="lnk53" id="link_Raising Ruler.s Daughter .9.18-26._Healing Hemorrhaging Woman .9.20-22."><path codeLine="68" d="M168,2444.8694 C168,2462.5494 168,2480.7394 168,2498.3994" fill="none" id="Raising Ruler&#8217;s Daughter (9:18-26)-to-Healing Hemorrhaging Woman (9:20-22)" style="stroke:#181818;stroke-width:1;"/><polygon fill="#181818" points="168,2504.3994,172,2495.3994,168,2499.3994,164,2495.3994,168,2504.3994" style="stroke:#181818;stroke-width:1;"/></g><!--link Healing Hemorrhaging Woman (9:20-22) to Healing Two Blind Men (9:27-31)--><g class="link" data-entity-1="Healing Hemorrhaging Woman .9.20-22." data-entity-2="Healing Two Blind Men .9.27-31." data-source-line="69" data-uid="lnk54" id="link_Healing Hemorrhaging Woman .9.20-22._Healing Two Blind Men .9.27-31."><path codeLine="69" d="M168,2552.8694 C168,2570.5494 168,2588.7394 168,2606.3994" fill="none" id="Healing Hemorrhaging Woman (9:20-22)-to-Healing Two Blind Men (9:27-31)" style="stroke:#181818;stroke-width:1;"/><polygon fill="#181818" points="168,2612.3994,172,2603.3994,168,2607.3994,164,2603.3994,168,2612.3994" style="stroke:#181818;stroke-width:1;"/></g><!--link Healing Two Blind Men (9:27-31) to Healing Mute Demoniac (9:32-34)--><g class="link" data-entity-1="Healing Two Blind Men .9.27-31." data-entity-2="Healing Mute Demoniac .9.32-34." data-source-line="70" data-uid="lnk55" id="link_Healing Two Blind Men .9.27-31._Healing Mute Demoniac .9.32-34."><path codeLine="70" d="M168,2660.8694 C168,2678.5494 168,2696.7394 168,2714.3994" fill="none" id="Healing Two Blind Men (9:27-31)-to-Healing Mute Demoniac (9:32-34)" style="stroke:#181818;stroke-width:1;"/><polygon fill="#181818" points="168,2720.3994,172,2711.3994,168,2715.3994,164,2711.3994,168,2720.3994" style="stroke:#181818;stroke-width:1;"/></g><!--link Healing Mute Demoniac (9:32-34) to Teaching & Preaching Tours (9:35-38)--><g class="link" data-entity-1="Healing Mute Demoniac .9.32-34." data-entity-2="Teaching . Preaching Tours .9.35-38." data-source-line="71" data-uid="lnk56" id="link_Healing Mute Demoniac .9.32-34._Teaching . Preaching Tours .9.35-38."><path codeLine="71" d="M168,2768.8694 C168,2786.5494 168,2804.7394 168,2822.3994" fill="none" id="Healing Mute Demoniac (9:32-34)-to-Teaching &amp; Preaching Tours (9:35-38)" style="stroke:#181818;stroke-width:1;"/><polygon fill="#181818" points="168,2828.3994,172,2819.3994,168,2823.3994,164,2819.3994,168,2828.3994" style="stroke:#181818;stroke-width:1;"/></g><!--SRC=[hPN1Rjim38RlVWgYXpO59c1ncYRjOOSqJOkYsO8aMCz2ejZ25CkGv1NPC62liTVRauooaiwk8zl3UZFCZnH_YY8DDuB10zEPFeDRgiGE7lc60KtMCEK9rqRje3EbniJi6RhawZm8KhhwGYC69tSiOLJ8Q0UdCEBAnD2vYH4Apq_WUm2m4bJh8YOtxYZ7dP_yPPoxt_wPQswi7VE0AOruZeH5P29u51im4cwZNMggm9oPJ2KM-4Y_KSNs-LhcHq7LJB6KAcguJ60ZLQ4C2FV8HLdSWuoJFAaHJGrouDoPpdy-qRrRIMjERijgIyIIRLFZCk0k-fXfffocYo9vGuMmWIPSuTbZhbSy5Ko_W4LXIqPNCKyYVGqBfhOONBhWKvabBdQV3ChoHWpJCDbw7x9VFFkHFkF5pvHCOsOqJ3AnuKAmTPMSARfZ2k49rGOpo8dB8l6GhIDh-8JvAFqExgHOimJc6NQdXGT5-8bhrw4JAGNNCOmoZhZIBsXHjklgALTqPIjp2WiU9GuTOZ-NvDvZezeqiAAFBCMKEyFhBYbLl83Si0Gx2c_fJDkAVgMsYiFhFkdsF1upPfX2UYgjJi8J8h28zf0BqYsLR66mbjRBNj32IBMrMDWZuS0JUypmIZbTwHmSafulxHbsjzWPleBE5QeR7kkdmuj7ukgLd3d5juYHxDsetpz_QHZJ35-UhHR66vBmyjZ1zvYUKZ7Dh_b9RcbYyV0z2SDZ-F9PmWY_S0mnHmv8htkCd6Q6lOYtP2zyfVtG-7ct7hwNChCDWtYVz8QkPsf65H3omJkcFF-TZtTqGL1Zorrz8yrdS5urSouugx4wxzO3RLyHpp1prgP1vgYc8VPsEGTl9I_uJ-716vKcQ2BsCgfZ_CW_npQEzKR2nV4EVQzbVvajLa4Ro4LhtXL1C-D2-PU3trJnhDyPhSbAtCRDyY-mYrw_WkhDbVoERgUWYQZAhEwkUdFv6LNNcj-q7wQjjbtGZYlBgT-8xR1oHE_IR2JASRmhjP4uJBys2_SF]--></g></svg>