<svg xmlns="http://www.w3.org/2000/svg" xmlns:xlink="http://www.w3.org/1999/xlink" contentStyleType="text/css" data-diagram-type="CLASS" height="747px" preserveAspectRatio="none" style="width:2361px;height:747px;background:#FFFFFF;" version="1.1" viewBox="0 0 2361 747" width="2361px" zoomAndPan="magnify"><title>Flow of Grace Through the Seven Sacraments</title><defs/><g><g class="title" data-source-line="1"><text fill="#000000" font-family="sans-serif" font-size="14" font-weight="bold" lengthAdjust="spacing" textLength="306.5166" x="1020.5767" y="24.5332">Flow of Grace Through the Seven Sacraments</text></g><!--cluster Sacraments of Initiation--><g class="cluster" data-entity="Sacraments of Initiation" data-source-line="18" data-uid="ent0005" id="cluster_Sacraments of Initiation"><path d="M265.17,175.8294 L424.8663,175.8294 A3.75,3.75 0 0 1 427.3663,178.3294 L434.3663,199.4387 L1158.17,199.4387 A2.5,2.5 0 0 1 1160.67,201.9387 L1160.67,308.5494 A2.5,2.5 0 0 1 1158.17,311.0494 L265.17,311.0494 A2.5,2.5 0 0 1 262.67,308.5494 L262.67,178.3294 A2.5,2.5 0 0 1 265.17,175.8294" fill="#ADD8E6" style="stroke:#000000;stroke-width:1.5;"/><line style="stroke:#000000;stroke-width:1.5;" x1="262.67" x2="434.3663" y1="199.4387" y2="199.4387"/><text fill="#000000" font-family="sans-serif" font-size="14" font-weight="bold" lengthAdjust="spacing" textLength="158.6963" x="266.67" y="192.3626">Sacraments of Initiation</text></g><!--cluster Sacraments of Healing--><g class="cluster" data-entity="Sacraments of Healing" data-source-line="33" data-uid="ent0009" id="cluster_Sacraments of Healing"><path d="M1187.17,175.8294 L1339.1075,175.8294 A3.75,3.75 0 0 1 1341.6075,178.3294 L1348.6075,199.4387 L1711.17,199.4387 A2.5,2.5 0 0 1 1713.67,201.9387 L1713.67,308.5494 A2.5,2.5 0 0 1 1711.17,311.0494 L1187.17,311.0494 A2.5,2.5 0 0 1 1184.67,308.5494 L1184.67,178.3294 A2.5,2.5 0 0 1 1187.17,175.8294" fill="#90EE90" style="stroke:#000000;stroke-width:1.5;"/><line style="stroke:#000000;stroke-width:1.5;" x1="1184.67" x2="1348.6075" y1="199.4387" y2="199.4387"/><text fill="#000000" font-family="sans-serif" font-size="14" font-weight="bold" lengthAdjust="spacing" textLength="150.9375" x="1188.67" y="192.3626">Sacraments of Healing</text></g><!--cluster Sacraments of Service / Vocation--><g class="cluster" data-entity="Sacraments of Service . Vocation" data-source-line="44" data-uid="ent0012" id="cluster_Sacraments of Service . Vocation"><path d="M1740.17,175.8294 L1962.1485,175.8294 A3.75,3.75 0 0 1 1964.6485,178.3294 L1971.6485,199.4387 L2352.17,199.4387 A2.5,2.5 0 0 1 2354.67,201.9387 L2354.67,308.5494 A2.5,2.5 0 0 1 2352.17,311.0494 L1740.17,311.0494 A2.5,2.5 0 0 1 1737.67,308.5494 L1737.67,178.3294 A2.5,2.5 0 0 1 1740.17,175.8294" fill="#FFFFE0" style="stroke:#000000;stroke-width:1.5;"/><line style="stroke:#000000;stroke-width:1.5;" x1="1737.67" x2="1971.6485" y1="199.4387" y2="199.4387"/><text fill="#000000" font-family="sans-serif" font-size="14" font-weight="bold" lengthAdjust="spacing" textLength="220.9785" x="1741.67" y="192.3626">Sacraments of Service / Vocation</text></g><!--class Baptism--><g class="entity" data-entity="Baptism" data-source-line="19" data-uid="ent0006" id="entity_Baptism"><rect fill="#F1F1F1" height="83.2188" rx="2.5" ry="2.5" style="stroke:#181818;stroke-width:0.5;" width="200.3096" x="278.51" y="211.8294"/><ellipse cx="349.1287" cy="227.8294" fill="#ADD1B2" rx="11" ry="11" style="stroke:#181818;stroke-width:1;"/><path d="M351.8943,223.7044 Q352.0505,223.4856 352.238,223.3762 Q352.4255,223.2669 352.6443,223.2669 Q353.0193,223.2669 353.2537,223.5325 Q353.488,223.7825 353.488,224.3919 L353.488,225.845 Q353.488,226.4544 353.2537,226.72 Q353.0193,226.9856 352.6443,226.9856 Q352.3005,226.9856 352.0974,226.7825 Q351.8943,226.595 351.7849,226.0794 Q351.738,225.72 351.5505,225.5325 Q351.2224,225.1575 350.613,224.9387 Q350.0037,224.72 349.3787,224.72 Q348.613,224.72 347.9724,225.0481 Q347.3474,225.3762 346.8474,226.1262 Q346.363,226.8762 346.363,227.9075 L346.363,229.0012 Q346.363,230.2356 347.2537,231.0637 Q348.1443,231.8762 349.738,231.8762 Q350.6755,231.8762 351.3318,231.6262 Q351.7224,231.47 352.1443,231.0325 Q352.4099,230.7669 352.5505,230.6887 Q352.7068,230.6106 352.9099,230.6106 Q353.238,230.6106 353.488,230.8762 Q353.7537,231.1262 353.7537,231.47 Q353.7537,231.8137 353.4099,232.22 Q352.9099,232.7981 352.113,233.1262 Q351.0349,233.5794 349.738,233.5794 Q348.2224,233.5794 347.0193,232.9544 Q346.0349,232.4544 345.3474,231.3919 Q344.6599,230.3137 344.6599,229.0325 L344.6599,227.8762 Q344.6599,226.5481 345.2693,225.4075 Q345.8943,224.2512 346.988,223.6419 Q348.0818,223.0169 349.3162,223.0169 Q350.0505,223.0169 350.6912,223.1887 Q351.3474,223.345 351.8943,223.7044 Z " fill="#000000"/><text fill="#000000" font-family="sans-serif" font-size="14" lengthAdjust="spacing" textLength="50.5723" x="369.6287" y="233.5579">Baptism</text><line style="stroke:#181818;stroke-width:0.5;" x1="279.51" x2="477.8196" y1="243.8294" y2="243.8294"/><text fill="#000000" font-family="sans-serif" font-size="14" lengthAdjust="spacing" textLength="188.3096" x="284.51" y="262.3626">Effect: Cleanses sin, new birth</text><text fill="#000000" font-family="sans-serif" font-size="14" lengthAdjust="spacing" textLength="155.6338" x="284.51" y="279.972">Scripture: Matthew 28:19</text><line style="stroke:#181818;stroke-width:0.5;" x1="279.51" x2="477.8196" y1="287.0481" y2="287.0481"/></g><!--class Confirmation--><g class="entity" data-entity="Confirmation" data-source-line="23" data-uid="ent0007" id="entity_Confirmation"><rect fill="#F1F1F1" height="83.2188" rx="2.5" ry="2.5" style="stroke:#181818;stroke-width:0.5;" width="298.3506" x="513.49" y="211.8294"/><ellipse cx="618.7327" cy="227.8294" fill="#ADD1B2" rx="11" ry="11" style="stroke:#181818;stroke-width:1;"/><path d="M621.4983,223.7044 Q621.6546,223.4856 621.8421,223.3762 Q622.0296,223.2669 622.2483,223.2669 Q622.6233,223.2669 622.8577,223.5325 Q623.0921,223.7825 623.0921,224.3919 L623.0921,225.845 Q623.0921,226.4544 622.8577,226.72 Q622.6233,226.9856 622.2483,226.9856 Q621.9046,226.9856 621.7014,226.7825 Q621.4983,226.595 621.3889,226.0794 Q621.3421,225.72 621.1546,225.5325 Q620.8264,225.1575 620.2171,224.9387 Q619.6077,224.72 618.9827,224.72 Q618.2171,224.72 617.5764,225.0481 Q616.9514,225.3762 616.4514,226.1262 Q615.9671,226.8762 615.9671,227.9075 L615.9671,229.0012 Q615.9671,230.2356 616.8577,231.0637 Q617.7483,231.8762 619.3421,231.8762 Q620.2796,231.8762 620.9358,231.6262 Q621.3264,231.47 621.7483,231.0325 Q622.0139,230.7669 622.1546,230.6887 Q622.3108,230.6106 622.5139,230.6106 Q622.8421,230.6106 623.0921,230.8762 Q623.3577,231.1262 623.3577,231.47 Q623.3577,231.8137 623.0139,232.22 Q622.5139,232.7981 621.7171,233.1262 Q620.6389,233.5794 619.3421,233.5794 Q617.8264,233.5794 616.6233,232.9544 Q615.6389,232.4544 614.9514,231.3919 Q614.2639,230.3137 614.2639,229.0325 L614.2639,227.8762 Q614.2639,226.5481 614.8733,225.4075 Q615.4983,224.2512 616.5921,223.6419 Q617.6858,223.0169 618.9202,223.0169 Q619.6546,223.0169 620.2952,223.1887 Q620.9514,223.345 621.4983,223.7044 Z " fill="#000000"/><text fill="#000000" font-family="sans-serif" font-size="14" lengthAdjust="spacing" textLength="79.3652" x="639.2327" y="233.5579">Confirmation</text><line style="stroke:#181818;stroke-width:0.5;" x1="514.49" x2="810.8406" y1="243.8294" y2="243.8294"/><text fill="#000000" font-family="sans-serif" font-size="14" lengthAdjust="spacing" textLength="286.3506" x="519.49" y="262.3626">Effect: Strengthens faith, seals with Holy Spirit</text><text fill="#000000" font-family="sans-serif" font-size="14" lengthAdjust="spacing" textLength="142.3994" x="519.49" y="279.972">Scripture: Acts 8:14-17</text><line style="stroke:#181818;stroke-width:0.5;" x1="514.49" x2="810.8406" y1="287.0481" y2="287.0481"/></g><!--class Eucharist--><g class="entity" data-entity="Eucharist" data-source-line="27" data-uid="ent0008" id="entity_Eucharist"><rect fill="#F1F1F1" height="83.2188" rx="2.5" ry="2.5" style="stroke:#181818;stroke-width:0.5;" width="298.3506" x="846.49" y="211.8294"/><ellipse cx="962.2361" cy="227.8294" fill="#ADD1B2" rx="11" ry="11" style="stroke:#181818;stroke-width:1;"/><path d="M965.0017,223.7044 Q965.158,223.4856 965.3455,223.3762 Q965.533,223.2669 965.7517,223.2669 Q966.1267,223.2669 966.3611,223.5325 Q966.5955,223.7825 966.5955,224.3919 L966.5955,225.845 Q966.5955,226.4544 966.3611,226.72 Q966.1267,226.9856 965.7517,226.9856 Q965.408,226.9856 965.2048,226.7825 Q965.0017,226.595 964.8923,226.0794 Q964.8455,225.72 964.658,225.5325 Q964.3298,225.1575 963.7205,224.9387 Q963.1111,224.72 962.4861,224.72 Q961.7205,224.72 961.0798,225.0481 Q960.4548,225.3762 959.9548,226.1262 Q959.4705,226.8762 959.4705,227.9075 L959.4705,229.0012 Q959.4705,230.2356 960.3611,231.0637 Q961.2517,231.8762 962.8455,231.8762 Q963.783,231.8762 964.4392,231.6262 Q964.8298,231.47 965.2517,231.0325 Q965.5173,230.7669 965.658,230.6887 Q965.8142,230.6106 966.0173,230.6106 Q966.3455,230.6106 966.5955,230.8762 Q966.8611,231.1262 966.8611,231.47 Q966.8611,231.8137 966.5173,232.22 Q966.0173,232.7981 965.2205,233.1262 Q964.1423,233.5794 962.8455,233.5794 Q961.3298,233.5794 960.1267,232.9544 Q959.1423,232.4544 958.4548,231.3919 Q957.7673,230.3137 957.7673,229.0325 L957.7673,227.8762 Q957.7673,226.5481 958.3767,225.4075 Q959.0017,224.2512 960.0955,223.6419 Q961.1892,223.0169 962.4236,223.0169 Q963.158,223.0169 963.7986,223.1887 Q964.4548,223.345 965.0017,223.7044 Z " fill="#000000"/><text fill="#000000" font-family="sans-serif" font-size="14" lengthAdjust="spacing" textLength="58.3584" x="982.7361" y="233.5579">Eucharist</text><line style="stroke:#181818;stroke-width:0.5;" x1="847.49" x2="1143.8406" y1="243.8294" y2="243.8294"/><text fill="#000000" font-family="sans-serif" font-size="14" lengthAdjust="spacing" textLength="286.3506" x="852.49" y="262.3626">Effect: Spiritual nourishment, union with Christ</text><text fill="#000000" font-family="sans-serif" font-size="14" lengthAdjust="spacing" textLength="153.3164" x="852.49" y="279.972">Scripture: Luke 22:19-20</text><line style="stroke:#181818;stroke-width:0.5;" x1="847.49" x2="1143.8406" y1="287.0481" y2="287.0481"/></g><!--class Penance--><g class="entity" data-entity="Penance" data-source-line="34" data-uid="ent0010" id="entity_Penance"><rect fill="#F1F1F1" height="83.2188" rx="2.5" ry="2.5" style="stroke:#181818;stroke-width:0.5;" width="221.3164" x="1201.01" y="211.8294"/><ellipse cx="1279.7839" cy="227.8294" fill="#ADD1B2" rx="11" ry="11" style="stroke:#181818;stroke-width:1;"/><path d="M1282.5496,223.7044 Q1282.7058,223.4856 1282.8933,223.3762 Q1283.0808,223.2669 1283.2996,223.2669 Q1283.6746,223.2669 1283.9089,223.5325 Q1284.1433,223.7825 1284.1433,224.3919 L1284.1433,225.845 Q1284.1433,226.4544 1283.9089,226.72 Q1283.6746,226.9856 1283.2996,226.9856 Q1282.9558,226.9856 1282.7527,226.7825 Q1282.5496,226.595 1282.4402,226.0794 Q1282.3933,225.72 1282.2058,225.5325 Q1281.8777,225.1575 1281.2683,224.9387 Q1280.6589,224.72 1280.0339,224.72 Q1279.2683,224.72 1278.6277,225.0481 Q1278.0027,225.3762 1277.5027,226.1262 Q1277.0183,226.8762 1277.0183,227.9075 L1277.0183,229.0012 Q1277.0183,230.2356 1277.9089,231.0637 Q1278.7996,231.8762 1280.3933,231.8762 Q1281.3308,231.8762 1281.9871,231.6262 Q1282.3777,231.47 1282.7996,231.0325 Q1283.0652,230.7669 1283.2058,230.6887 Q1283.3621,230.6106 1283.5652,230.6106 Q1283.8933,230.6106 1284.1433,230.8762 Q1284.4089,231.1262 1284.4089,231.47 Q1284.4089,231.8137 1284.0652,232.22 Q1283.5652,232.7981 1282.7683,233.1262 Q1281.6902,233.5794 1280.3933,233.5794 Q1278.8777,233.5794 1277.6746,232.9544 Q1276.6902,232.4544 1276.0027,231.3919 Q1275.3152,230.3137 1275.3152,229.0325 L1275.3152,227.8762 Q1275.3152,226.5481 1275.9246,225.4075 Q1276.5496,224.2512 1277.6433,223.6419 Q1278.7371,223.0169 1279.9714,223.0169 Q1280.7058,223.0169 1281.3464,223.1887 Q1282.0027,223.345 1282.5496,223.7044 Z " fill="#000000"/><text fill="#000000" font-family="sans-serif" font-size="14" lengthAdjust="spacing" textLength="55.2686" x="1300.2839" y="233.5579">Penance</text><line style="stroke:#181818;stroke-width:0.5;" x1="1202.01" x2="1421.3264" y1="243.8294" y2="243.8294"/><text fill="#000000" font-family="sans-serif" font-size="14" lengthAdjust="spacing" textLength="209.3164" x="1207.01" y="262.3626">Effect: Forgiveness, reconciliation</text><text fill="#000000" font-family="sans-serif" font-size="14" lengthAdjust="spacing" textLength="153.3164" x="1207.01" y="279.972">Scripture: John 20:22-23</text><line style="stroke:#181818;stroke-width:0.5;" x1="1202.01" x2="1421.3264" y1="287.0481" y2="287.0481"/></g><!--class Anointing--><g class="entity" data-entity="Anointing" data-source-line="38" data-uid="ent0011" id="entity_Anointing"><rect fill="#F1F1F1" height="83.2188" rx="2.5" ry="2.5" style="stroke:#181818;stroke-width:0.5;" width="240.0332" x="1457.65" y="211.8294"/><ellipse cx="1509.5997" cy="227.8294" fill="#ADD1B2" rx="11" ry="11" style="stroke:#181818;stroke-width:1;"/><path d="M1512.3653,223.7044 Q1512.5216,223.4856 1512.7091,223.3762 Q1512.8966,223.2669 1513.1153,223.2669 Q1513.4903,223.2669 1513.7247,223.5325 Q1513.9591,223.7825 1513.9591,224.3919 L1513.9591,225.845 Q1513.9591,226.4544 1513.7247,226.72 Q1513.4903,226.9856 1513.1153,226.9856 Q1512.7716,226.9856 1512.5685,226.7825 Q1512.3653,226.595 1512.256,226.0794 Q1512.2091,225.72 1512.0216,225.5325 Q1511.6935,225.1575 1511.0841,224.9387 Q1510.4747,224.72 1509.8497,224.72 Q1509.0841,224.72 1508.4435,225.0481 Q1507.8185,225.3762 1507.3185,226.1262 Q1506.8341,226.8762 1506.8341,227.9075 L1506.8341,229.0012 Q1506.8341,230.2356 1507.7247,231.0637 Q1508.6153,231.8762 1510.2091,231.8762 Q1511.1466,231.8762 1511.8028,231.6262 Q1512.1935,231.47 1512.6153,231.0325 Q1512.881,230.7669 1513.0216,230.6887 Q1513.1778,230.6106 1513.381,230.6106 Q1513.7091,230.6106 1513.9591,230.8762 Q1514.2247,231.1262 1514.2247,231.47 Q1514.2247,231.8137 1513.881,232.22 Q1513.381,232.7981 1512.5841,233.1262 Q1511.506,233.5794 1510.2091,233.5794 Q1508.6935,233.5794 1507.4903,232.9544 Q1506.506,232.4544 1505.8185,231.3919 Q1505.131,230.3137 1505.131,229.0325 L1505.131,227.8762 Q1505.131,226.5481 1505.7403,225.4075 Q1506.3653,224.2512 1507.4591,223.6419 Q1508.5528,223.0169 1509.7872,223.0169 Q1510.5216,223.0169 1511.1622,223.1887 Q1511.8185,223.345 1512.3653,223.7044 Z " fill="#000000"/><text fill="#000000" font-family="sans-serif" font-size="14" lengthAdjust="spacing" textLength="127.6338" x="1530.0997" y="233.5579">Anointing of the Sick</text><line style="stroke:#181818;stroke-width:0.5;" x1="1458.65" x2="1696.6832" y1="243.8294" y2="243.8294"/><text fill="#000000" font-family="sans-serif" font-size="14" lengthAdjust="spacing" textLength="228.0332" x="1463.65" y="262.3626">Effect: Strength, healing, preparation</text><text fill="#000000" font-family="sans-serif" font-size="14" lengthAdjust="spacing" textLength="156.4063" x="1463.65" y="279.972">Scripture: James 5:14-15</text><line style="stroke:#181818;stroke-width:0.5;" x1="1458.65" x2="1696.6832" y1="287.0481" y2="287.0481"/></g><!--class Matrimony--><g class="entity" data-entity="Matrimony" data-source-line="45" data-uid="ent0013" id="entity_Matrimony"><rect fill="#F1F1F1" height="83.2188" rx="2.5" ry="2.5" style="stroke:#181818;stroke-width:0.5;" width="296.0332" x="1753.65" y="211.8294"/><ellipse cx="1864.7442" cy="227.8294" fill="#ADD1B2" rx="11" ry="11" style="stroke:#181818;stroke-width:1;"/><path d="M1867.5099,223.7044 Q1867.6661,223.4856 1867.8536,223.3762 Q1868.0411,223.2669 1868.2599,223.2669 Q1868.6349,223.2669 1868.8692,223.5325 Q1869.1036,223.7825 1869.1036,224.3919 L1869.1036,225.845 Q1869.1036,226.4544 1868.8692,226.72 Q1868.6349,226.9856 1868.2599,226.9856 Q1867.9161,226.9856 1867.713,226.7825 Q1867.5099,226.595 1867.4005,226.0794 Q1867.3536,225.72 1867.1661,225.5325 Q1866.838,225.1575 1866.2286,224.9387 Q1865.6192,224.72 1864.9942,224.72 Q1864.2286,224.72 1863.588,225.0481 Q1862.963,225.3762 1862.463,226.1262 Q1861.9786,226.8762 1861.9786,227.9075 L1861.9786,229.0012 Q1861.9786,230.2356 1862.8692,231.0637 Q1863.7599,231.8762 1865.3536,231.8762 Q1866.2911,231.8762 1866.9474,231.6262 Q1867.338,231.47 1867.7599,231.0325 Q1868.0255,230.7669 1868.1661,230.6887 Q1868.3224,230.6106 1868.5255,230.6106 Q1868.8536,230.6106 1869.1036,230.8762 Q1869.3692,231.1262 1869.3692,231.47 Q1869.3692,231.8137 1869.0255,232.22 Q1868.5255,232.7981 1867.7286,233.1262 Q1866.6505,233.5794 1865.3536,233.5794 Q1863.838,233.5794 1862.6349,232.9544 Q1861.6505,232.4544 1860.963,231.3919 Q1860.2755,230.3137 1860.2755,229.0325 L1860.2755,227.8762 Q1860.2755,226.5481 1860.8849,225.4075 Q1861.5099,224.2512 1862.6036,223.6419 Q1863.6974,223.0169 1864.9317,223.0169 Q1865.6661,223.0169 1866.3067,223.1887 Q1866.963,223.345 1867.5099,223.7044 Z " fill="#000000"/><text fill="#000000" font-family="sans-serif" font-size="14" lengthAdjust="spacing" textLength="65.3447" x="1885.2442" y="233.5579">Matrimony</text><line style="stroke:#181818;stroke-width:0.5;" x1="1754.65" x2="2048.6832" y1="243.8294" y2="243.8294"/><text fill="#000000" font-family="sans-serif" font-size="14" lengthAdjust="spacing" textLength="284.0332" x="1759.65" y="262.3626">Effect: Spousal union, sign of Christ &amp; Church</text><text fill="#000000" font-family="sans-serif" font-size="14" lengthAdjust="spacing" textLength="147.8477" x="1759.65" y="279.972">Scripture: Matthew 19:6</text><line style="stroke:#181818;stroke-width:0.5;" x1="1754.65" x2="2048.6832" y1="287.0481" y2="287.0481"/></g><!--class HolyOrders--><g class="entity" data-entity="HolyOrders" data-source-line="49" data-uid="ent0014" id="entity_HolyOrders"><rect fill="#F1F1F1" height="83.2188" rx="2.5" ry="2.5" style="stroke:#181818;stroke-width:0.5;" width="253.2266" x="2085.05" y="211.8294"/><ellipse cx="2170.072" cy="227.8294" fill="#ADD1B2" rx="11" ry="11" style="stroke:#181818;stroke-width:1;"/><path d="M2172.8376,223.7044 Q2172.9938,223.4856 2173.1813,223.3762 Q2173.3688,223.2669 2173.5876,223.2669 Q2173.9626,223.2669 2174.197,223.5325 Q2174.4313,223.7825 2174.4313,224.3919 L2174.4313,225.845 Q2174.4313,226.4544 2174.197,226.72 Q2173.9626,226.9856 2173.5876,226.9856 Q2173.2438,226.9856 2173.0407,226.7825 Q2172.8376,226.595 2172.7282,226.0794 Q2172.6813,225.72 2172.4938,225.5325 Q2172.1657,225.1575 2171.5563,224.9387 Q2170.947,224.72 2170.322,224.72 Q2169.5563,224.72 2168.9157,225.0481 Q2168.2907,225.3762 2167.7907,226.1262 Q2167.3063,226.8762 2167.3063,227.9075 L2167.3063,229.0012 Q2167.3063,230.2356 2168.197,231.0637 Q2169.0876,231.8762 2170.6813,231.8762 Q2171.6188,231.8762 2172.2751,231.6262 Q2172.6657,231.47 2173.0876,231.0325 Q2173.3532,230.7669 2173.4938,230.6887 Q2173.6501,230.6106 2173.8532,230.6106 Q2174.1813,230.6106 2174.4313,230.8762 Q2174.697,231.1262 2174.697,231.47 Q2174.697,231.8137 2174.3532,232.22 Q2173.8532,232.7981 2173.0563,233.1262 Q2171.9782,233.5794 2170.6813,233.5794 Q2169.1657,233.5794 2167.9626,232.9544 Q2166.9782,232.4544 2166.2907,231.3919 Q2165.6032,230.3137 2165.6032,229.0325 L2165.6032,227.8762 Q2165.6032,226.5481 2166.2126,225.4075 Q2166.8376,224.2512 2167.9313,223.6419 Q2169.0251,223.0169 2170.2595,223.0169 Q2170.9938,223.0169 2171.6345,223.1887 Q2172.2907,223.345 2172.8376,223.7044 Z " fill="#000000"/><text fill="#000000" font-family="sans-serif" font-size="14" lengthAdjust="spacing" textLength="74.6826" x="2190.572" y="233.5579">Holy Orders</text><line style="stroke:#181818;stroke-width:0.5;" x1="2086.05" x2="2337.2766" y1="243.8294" y2="243.8294"/><text fill="#000000" font-family="sans-serif" font-size="14" lengthAdjust="spacing" textLength="241.2266" x="2091.05" y="262.3626">Effect: Grace to teach, sanctify, govern</text><text fill="#000000" font-family="sans-serif" font-size="14" lengthAdjust="spacing" textLength="199.2129" x="2091.05" y="279.972">Scripture: Luke 22:19; 2 Tim 1:6</text><line style="stroke:#181818;stroke-width:0.5;" x1="2086.05" x2="2337.2766" y1="287.0481" y2="287.0481"/></g><!--class Christ--><g class="entity" data-entity="Christ" data-source-line="4" data-uid="ent0002" id="entity_Christ"><rect fill="#F1F1F1" height="83.2188" rx="2.5" ry="2.5" style="stroke:#181818;stroke-width:0.5;" width="236.7178" x="966.31" y="45.6094"/><ellipse cx="1062.1396" cy="61.6094" fill="#ADD1B2" rx="11" ry="11" style="stroke:#181818;stroke-width:1;"/><path d="M1064.9052,57.4844 Q1065.0615,57.2656 1065.249,57.1563 Q1065.4365,57.0469 1065.6552,57.0469 Q1066.0302,57.0469 1066.2646,57.3125 Q1066.499,57.5625 1066.499,58.1719 L1066.499,59.625 Q1066.499,60.2344 1066.2646,60.5 Q1066.0302,60.7656 1065.6552,60.7656 Q1065.3115,60.7656 1065.1083,60.5625 Q1064.9052,60.375 1064.7958,59.8594 Q1064.749,59.5 1064.5615,59.3125 Q1064.2333,58.9375 1063.624,58.7188 Q1063.0146,58.5 1062.3896,58.5 Q1061.624,58.5 1060.9833,58.8281 Q1060.3583,59.1563 1059.8583,59.9063 Q1059.374,60.6563 1059.374,61.6875 L1059.374,62.7813 Q1059.374,64.0156 1060.2646,64.8438 Q1061.1552,65.6563 1062.749,65.6563 Q1063.6865,65.6563 1064.3427,65.4063 Q1064.7333,65.25 1065.1552,64.8125 Q1065.4208,64.5469 1065.5615,64.4688 Q1065.7177,64.3906 1065.9208,64.3906 Q1066.249,64.3906 1066.499,64.6563 Q1066.7646,64.9063 1066.7646,65.25 Q1066.7646,65.5938 1066.4208,66 Q1065.9208,66.5781 1065.124,66.9063 Q1064.0458,67.3594 1062.749,67.3594 Q1061.2333,67.3594 1060.0302,66.7344 Q1059.0458,66.2344 1058.3583,65.1719 Q1057.6708,64.0938 1057.6708,62.8125 L1057.6708,61.6563 Q1057.6708,60.3281 1058.2802,59.1875 Q1058.9052,58.0313 1059.999,57.4219 Q1061.0927,56.7969 1062.3271,56.7969 Q1063.0615,56.7969 1063.7021,56.9688 Q1064.3583,57.125 1064.9052,57.4844 Z " fill="#000000"/><text fill="#000000" font-family="sans-serif" font-size="14" lengthAdjust="spacing" textLength="36.5586" x="1082.6396" y="67.3379">Christ</text><line style="stroke:#181818;stroke-width:0.5;" x1="967.31" x2="1202.0278" y1="77.6094" y2="77.6094"/><text fill="#000000" font-family="sans-serif" font-size="14" lengthAdjust="spacing" textLength="212.2559" x="972.31" y="96.1426">"Source of all Sacramental Grace"</text><text fill="#000000" font-family="sans-serif" font-size="14" lengthAdjust="spacing" textLength="224.7178" x="972.31" y="113.752">"Institutor of the Seven Sacraments"</text><line style="stroke:#181818;stroke-width:0.5;" x1="967.31" x2="1202.0278" y1="120.8281" y2="120.8281"/></g><!--class Grace--><g class="entity" data-entity="Grace" data-source-line="10" data-uid="ent0003" id="entity_Grace"><rect fill="#F1F1F1" height="83.2188" rx="2.5" ry="2.5" style="stroke:#181818;stroke-width:0.5;" width="239.8213" x="964.76" y="358.0494"/><ellipse cx="1025.1726" cy="374.0494" fill="#ADD1B2" rx="11" ry="11" style="stroke:#181818;stroke-width:1;"/><path d="M1027.9382,369.9244 Q1028.0945,369.7056 1028.282,369.5962 Q1028.4695,369.4869 1028.6882,369.4869 Q1029.0632,369.4869 1029.2976,369.7525 Q1029.532,370.0025 1029.532,370.6119 L1029.532,372.065 Q1029.532,372.6744 1029.2976,372.94 Q1029.0632,373.2056 1028.6882,373.2056 Q1028.3445,373.2056 1028.1413,373.0025 Q1027.9382,372.815 1027.8288,372.2994 Q1027.782,371.94 1027.5945,371.7525 Q1027.2663,371.3775 1026.657,371.1587 Q1026.0476,370.94 1025.4226,370.94 Q1024.657,370.94 1024.0163,371.2681 Q1023.3913,371.5962 1022.8913,372.3462 Q1022.407,373.0962 1022.407,374.1275 L1022.407,375.2212 Q1022.407,376.4556 1023.2976,377.2837 Q1024.1882,378.0962 1025.782,378.0962 Q1026.7195,378.0962 1027.3757,377.8462 Q1027.7663,377.69 1028.1882,377.2525 Q1028.4538,376.9869 1028.5945,376.9087 Q1028.7507,376.8306 1028.9538,376.8306 Q1029.282,376.8306 1029.532,377.0962 Q1029.7976,377.3462 1029.7976,377.69 Q1029.7976,378.0337 1029.4538,378.44 Q1028.9538,379.0181 1028.157,379.3462 Q1027.0788,379.7994 1025.782,379.7994 Q1024.2663,379.7994 1023.0632,379.1744 Q1022.0788,378.6744 1021.3913,377.6119 Q1020.7038,376.5337 1020.7038,375.2525 L1020.7038,374.0962 Q1020.7038,372.7681 1021.3132,371.6275 Q1021.9382,370.4712 1023.032,369.8619 Q1024.1257,369.2369 1025.3601,369.2369 Q1026.0945,369.2369 1026.7351,369.4087 Q1027.3913,369.565 1027.9382,369.9244 Z " fill="#000000"/><text fill="#000000" font-family="sans-serif" font-size="14" lengthAdjust="spacing" textLength="110.4961" x="1045.6726" y="379.7779">Sanctifying Grace</text><line style="stroke:#181818;stroke-width:0.5;" x1="965.76" x2="1203.5813" y1="390.0494" y2="390.0494"/><text fill="#000000" font-family="sans-serif" font-size="14" lengthAdjust="spacing" textLength="138.3389" x="970.76" y="408.5826">"Divine life in the soul"</text><text fill="#000000" font-family="sans-serif" font-size="14" lengthAdjust="spacing" textLength="227.8213" x="970.76" y="426.192">"Participation in the life of the Trinity"</text><line style="stroke:#181818;stroke-width:0.5;" x1="965.76" x2="1203.5813" y1="433.2681" y2="433.2681"/></g><!--class ChristianLife--><g class="entity" data-entity="ChristianLife" data-source-line="74" data-uid="ent0029" id="entity_ChristianLife"><rect fill="#F1F1F1" height="100.8281" rx="2.5" ry="2.5" style="stroke:#181818;stroke-width:0.5;" width="181.4629" x="993.93" y="519.2694"/><ellipse cx="1013.862" cy="535.2694" fill="#ADD1B2" rx="11" ry="11" style="stroke:#181818;stroke-width:1;"/><path d="M1016.6276,531.1444 Q1016.7839,530.9256 1016.9714,530.8163 Q1017.1589,530.7069 1017.3776,530.7069 Q1017.7526,530.7069 1017.987,530.9725 Q1018.2214,531.2225 1018.2214,531.8319 L1018.2214,533.285 Q1018.2214,533.8944 1017.987,534.16 Q1017.7526,534.4256 1017.3776,534.4256 Q1017.0339,534.4256 1016.8307,534.2225 Q1016.6276,534.035 1016.5182,533.5194 Q1016.4714,533.16 1016.2839,532.9725 Q1015.9557,532.5975 1015.3464,532.3788 Q1014.737,532.16 1014.112,532.16 Q1013.3464,532.16 1012.7057,532.4881 Q1012.0807,532.8163 1011.5807,533.5663 Q1011.0964,534.3163 1011.0964,535.3475 L1011.0964,536.4413 Q1011.0964,537.6756 1011.987,538.5038 Q1012.8776,539.3163 1014.4714,539.3163 Q1015.4089,539.3163 1016.0651,539.0663 Q1016.4557,538.91 1016.8776,538.4725 Q1017.1432,538.2069 1017.2839,538.1288 Q1017.4401,538.0506 1017.6432,538.0506 Q1017.9714,538.0506 1018.2214,538.3163 Q1018.487,538.5663 1018.487,538.91 Q1018.487,539.2538 1018.1432,539.66 Q1017.6432,540.2381 1016.8464,540.5663 Q1015.7682,541.0194 1014.4714,541.0194 Q1012.9557,541.0194 1011.7526,540.3944 Q1010.7682,539.8944 1010.0807,538.8319 Q1009.3932,537.7538 1009.3932,536.4725 L1009.3932,535.3163 Q1009.3932,533.9881 1010.0026,532.8475 Q1010.6276,531.6913 1011.7214,531.0819 Q1012.8151,530.4569 1014.0495,530.4569 Q1014.7839,530.4569 1015.4245,530.6288 Q1016.0807,530.785 1016.6276,531.1444 Z " fill="#000000"/><text fill="#000000" font-family="sans-serif" font-size="14" lengthAdjust="spacing" textLength="138.5029" x="1028.958" y="540.9979">Christian Life in Grace</text><line style="stroke:#181818;stroke-width:0.5;" x1="994.93" x2="1174.3929" y1="551.2694" y2="551.2694"/><text fill="#000000" font-family="sans-serif" font-size="14" lengthAdjust="spacing" textLength="105.6631" x="999.93" y="569.8026">"Live in holiness"</text><text fill="#000000" font-family="sans-serif" font-size="14" lengthAdjust="spacing" textLength="169.4629" x="999.93" y="587.412">"Serve in love and mission"</text><text fill="#000000" font-family="sans-serif" font-size="14" lengthAdjust="spacing" textLength="143.7939" x="999.93" y="605.0213">"Journey to eternal life"</text><line style="stroke:#181818;stroke-width:0.5;" x1="994.93" x2="1174.3929" y1="612.0975" y2="612.0975"/></g><g class="entity" data-entity="GMN31" data-source-line="83" data-uid="ent0032" id="entity_GMN31"><path d="M958.92,681.0994 L958.92,740.1541 A0,0 0 0 0 958.92,740.1541 L1210.4034,740.1541 A0,0 0 0 0 1210.4034,740.1541 L1210.4034,691.0994 L1200.4034,681.0994 L1088.67,681.0994 L1084.67,620.4494 L1080.67,681.0994 L958.92,681.0994 A0,0 0 0 0 958.92,681.0994" fill="#FEFFDD" style="stroke:#181818;stroke-width:0.5;"/><path d="M1200.4034,681.0994 L1200.4034,691.0994 L1210.4034,691.0994 L1200.4034,681.0994" fill="#FEFFDD" style="stroke:#181818;stroke-width:0.5;"/><text fill="#000000" font-family="sans-serif" font-size="13" lengthAdjust="spacing" textLength="230.4834" x="964.92" y="699.5945">Grace from the sacraments sustains the</text><text fill="#000000" font-family="sans-serif" font-size="13" lengthAdjust="spacing" textLength="197.9707" x="964.92" y="715.9461">entire journey of Christian life from</text><text fill="#000000" font-family="sans-serif" font-size="13" lengthAdjust="spacing" textLength="169.7935" x="964.92" y="732.2976">birth in Christ to eternal glory.</text></g><!--link Christ to Grace--><g class="link" data-entity-1="Christ" data-entity-2="Grace" data-source-line="15" data-uid="lnk4" id="link_Christ_Grace"><path codeLine="15" d="M966.29,88.5094 C708.15,90.3794 112.73,101.8794 51.67,167.8294 C6,217.1494 6,269.7294 51.67,319.0494 C112.58,384.8294 699.1702,396.3952 958.3402,398.3052" fill="none" id="Christ-to-Grace" style="stroke:#181818;stroke-width:1;"/><polygon fill="#181818" points="964.34,398.3494,955.3697,394.2832,959.3401,398.3125,955.3108,402.2829,964.34,398.3494" style="stroke:#181818;stroke-width:1;"/><text fill="#000000" font-family="sans-serif" font-size="13" lengthAdjust="spacing" textLength="209.5615" x="52.67" y="258.9345">Channels grace through sacraments</text></g><!--link Christ to Baptism--><g class="link" data-entity-1="Christ" data-entity-2="Baptism" data-source-line="56" data-uid="lnk15" id="link_Christ_Baptism"><path codeLine="56" d="M965.84,97.3994 C819.09,109.9194 578.67,134.6594 495.67,167.8294 C469.94,178.1094 449.336,191.5573 428.866,207.7473" fill="none" id="Christ-to-Baptism" style="stroke:#181818;stroke-width:1;"/><polygon fill="#181818" points="424.16,211.4694,433.7004,209.0237,428.0817,208.3677,428.7376,202.749,424.16,211.4694" style="stroke:#181818;stroke-width:1;"/></g><!--link Christ to Confirmation--><g class="link" data-entity-1="Christ" data-entity-2="Confirmation" data-source-line="57" data-uid="lnk16" id="link_Christ_Confirmation"><path codeLine="57" d="M965.94,120.5594 C922.21,133.6594 872.64,149.9394 828.67,167.8294 C797.81,180.3894 770.2265,193.7581 741.9165,208.5681" fill="none" id="Christ-to-Confirmation" style="stroke:#181818;stroke-width:1;"/><polygon fill="#181818" points="736.6,211.3494,746.4288,210.7218,741.0304,209.0317,742.7205,203.6332,736.6,211.3494" style="stroke:#181818;stroke-width:1;"/></g><!--link Christ to Eucharist--><g class="link" data-entity-1="Christ" data-entity-2="Eucharist" data-source-line="58" data-uid="lnk17" id="link_Christ_Eucharist"><path codeLine="58" d="M1062.44,129.2394 C1048.84,154.3194 1034.3793,181.0145 1020.7793,206.1045" fill="none" id="Christ-to-Eucharist" style="stroke:#181818;stroke-width:1;"/><polygon fill="#181818" points="1017.92,211.3794,1025.7255,205.3732,1020.3027,206.9836,1018.6923,201.5608,1017.92,211.3794" style="stroke:#181818;stroke-width:1;"/></g><!--link Christ to Penance--><g class="link" data-entity-1="Christ" data-entity-2="Penance" data-source-line="59" data-uid="lnk18" id="link_Christ_Penance"><path codeLine="59" d="M1141.36,129.2394 C1176.03,154.3194 1215.3688,182.7724 1250.0488,207.8624" fill="none" id="Christ-to-Penance" style="stroke:#181818;stroke-width:1;"/><polygon fill="#181818" points="1254.91,211.3794,1249.9628,202.8632,1250.859,208.4486,1245.2736,209.3448,1254.91,211.3794" style="stroke:#181818;stroke-width:1;"/></g><!--link Christ to Anointing--><g class="link" data-entity-1="Christ" data-entity-2="Anointing" data-source-line="60" data-uid="lnk19" id="link_Christ_Anointing"><path codeLine="60" d="M1203.52,104.8094 C1273.91,117.0794 1363.87,137.0894 1439.67,167.8294 C1467.66,179.1794 1491.4487,192.6504 1515.4587,208.2504" fill="none" id="Christ-to-Anointing" style="stroke:#181818;stroke-width:1;"/><polygon fill="#181818" points="1520.49,211.5194,1515.1224,203.2617,1516.2973,208.7952,1510.7638,209.9701,1520.49,211.5194" style="stroke:#181818;stroke-width:1;"/></g><!--link Christ to Matrimony--><g class="link" data-entity-1="Christ" data-entity-2="Matrimony" data-source-line="61" data-uid="lnk20" id="link_Christ_Matrimony"><path codeLine="61" d="M1203.24,92.7594 C1331.27,100.0594 1540.17,118.9894 1713.67,167.8294 C1751.39,178.4494 1785.8334,192.8577 1819.0834,208.8577" fill="none" id="Christ-to-Matrimony" style="stroke:#181818;stroke-width:1;"/><polygon fill="#181818" points="1824.49,211.4594,1818.1146,203.9525,1819.9845,209.2913,1814.6457,211.1613,1824.49,211.4594" style="stroke:#181818;stroke-width:1;"/></g><!--link Christ to HolyOrders--><g class="link" data-entity-1="Christ" data-entity-2="HolyOrders" data-source-line="62" data-uid="lnk21" id="link_Christ_HolyOrders"><path codeLine="62" d="M1203.15,91.1994 C1428.31,97.9494 1909.61,117.8894 2067.67,167.8294 C2098.63,177.6094 2125.0291,191.7753 2150.5891,208.2753" fill="none" id="Christ-to-HolyOrders" style="stroke:#181818;stroke-width:1;"/><polygon fill="#181818" points="2155.63,211.5294,2150.238,203.2876,2151.4292,208.8176,2145.8992,210.0088,2155.63,211.5294" style="stroke:#181818;stroke-width:1;"/></g><!--link Baptism to Grace--><g class="link" data-entity-1="Baptism" data-entity-2="Grace" data-source-line="65" data-uid="lnk22" id="link_Baptism_Grace"><path codeLine="65" d="M442.92,295.4594 C459.56,304.5094 477.82,313.1494 495.67,319.0494 C652.41,370.8994 837.3081,388.7172 958.4381,395.0272" fill="none" id="Baptism-to-Grace" style="stroke:#181818;stroke-width:1;"/><polygon fill="#181818" points="964.43,395.3394,955.6503,390.8766,959.4368,395.0793,955.2341,398.8658,964.43,395.3394" style="stroke:#181818;stroke-width:1;"/></g><!--link Confirmation to Grace--><g class="link" data-entity-1="Confirmation" data-entity-2="Grace" data-source-line="66" data-uid="lnk23" id="link_Confirmation_Grace"><path codeLine="66" d="M764.97,295.5394 C785.94,303.6094 807.94,311.7994 828.67,319.0494 C872.6,334.4094 915.5438,348.1598 958.5438,361.3498" fill="none" id="Confirmation-to-Grace" style="stroke:#181818;stroke-width:1;"/><polygon fill="#181818" points="964.28,363.1094,956.8487,356.6459,959.4998,361.6431,954.5027,364.2942,964.28,363.1094" style="stroke:#181818;stroke-width:1;"/></g><!--link Eucharist to Grace--><g class="link" data-entity-1="Eucharist" data-entity-2="Grace" data-source-line="67" data-uid="lnk24" id="link_Eucharist_Grace"><path codeLine="67" d="M1020.93,295.3794 C1032.96,314.8694 1044.1478,333.0041 1056.1878,352.5041" fill="none" id="Eucharist-to-Grace" style="stroke:#181818;stroke-width:1;"/><polygon fill="#181818" points="1059.34,357.6094,1058.0152,347.85,1056.7132,353.355,1051.2082,352.0529,1059.34,357.6094" style="stroke:#181818;stroke-width:1;"/></g><!--link Penance to Grace--><g class="link" data-entity-1="Penance" data-entity-2="Grace" data-source-line="68" data-uid="lnk25" id="link_Penance_Grace"><path codeLine="68" d="M1247.22,295.3794 C1216.55,314.8694 1185.0242,334.8916 1154.3342,354.3916" fill="none" id="Penance-to-Grace" style="stroke:#181818;stroke-width:1;"/><polygon fill="#181818" points="1149.27,357.6094,1159.0115,356.1589,1153.4902,354.9279,1154.7212,349.4066,1149.27,357.6094" style="stroke:#181818;stroke-width:1;"/></g><!--link Anointing to Grace--><g class="link" data-entity-1="Anointing" data-entity-2="Grace" data-source-line="69" data-uid="lnk26" id="link_Anointing_Grace"><path codeLine="69" d="M1497.52,295.5394 C1478.84,304.0994 1458.82,312.5094 1439.67,319.0494 C1363.16,345.1894 1280.3023,363.9578 1210.6823,377.3278" fill="none" id="Anointing-to-Grace" style="stroke:#181818;stroke-width:1;"/><polygon fill="#181818" points="1204.79,378.4594,1214.3829,380.6902,1209.7003,377.5164,1212.8741,372.8338,1204.79,378.4594" style="stroke:#181818;stroke-width:1;"/></g><!--link Matrimony to Grace--><g class="link" data-entity-1="Matrimony" data-entity-2="Grace" data-source-line="70" data-uid="lnk27" id="link_Matrimony_Grace"><path codeLine="70" d="M1794.41,295.5294 C1768.29,304.3594 1740.22,312.8694 1713.67,319.0494 C1539.18,359.6194 1338.3115,380.309 1210.7615,390.339" fill="none" id="Matrimony-to-Grace" style="stroke:#181818;stroke-width:1;"/><polygon fill="#181818" points="1204.78,390.8094,1214.0659,394.0915,1209.7646,390.4174,1213.4387,386.1161,1204.78,390.8094" style="stroke:#181818;stroke-width:1;"/></g><!--link HolyOrders to Grace--><g class="link" data-entity-1="HolyOrders" data-entity-2="Grace" data-source-line="71" data-uid="lnk28" id="link_HolyOrders_Grace"><path codeLine="71" d="M2133.06,295.4994 C2112.3,304.7194 2089.56,313.4294 2067.67,319.0494 C1907.63,360.1294 1436.1847,384.2663 1210.8847,393.7763" fill="none" id="HolyOrders-to-Grace" style="stroke:#181818;stroke-width:1;"/><polygon fill="#181818" points="1204.89,394.0294,1214.0507,397.6463,1209.8856,393.8185,1213.7133,389.6534,1204.89,394.0294" style="stroke:#181818;stroke-width:1;"/></g><!--link Grace to ChristianLife--><g class="link" data-entity-1="Grace" data-entity-2="ChristianLife" data-source-line="80" data-uid="lnk30" id="link_Grace_ChristianLife"><path codeLine="80" d="M1084.67,441.7594 C1084.67,465.0794 1084.67,488.4194 1084.67,513.0194" fill="none" id="Grace-to-ChristianLife" style="stroke:#181818;stroke-width:1;"/><polygon fill="#181818" points="1084.67,519.0194,1088.67,510.0194,1084.67,514.0194,1080.67,510.0194,1084.67,519.0194" style="stroke:#181818;stroke-width:1;"/><text fill="#000000" font-family="sans-serif" font-size="13" lengthAdjust="spacing" textLength="61.4072" x="1085.67" y="485.7645">Empowers</text></g><!--SRC=[XLLjZzCm3FxUNs4D2Rvim9Nt8P2Eu-10nukq4n8VG-UsvhgaIjoR9iH_nqcp9MCxwAVMSVCyjX_RJDmXlElC6amDxwsg4AvQQuQc1MuH5dY36XQgicg5cbrHt8DN_e4p-RIgWuKPhFmKZ4NLAUTWSjPQSZm1vM1yXLy5o3E9pWAbkYvTAzS4wCdezK4x9XxOMEzvZCQa-9sOZAo_3DmF39_DyYyo2wKhfdf3keaedjVuKwJrbcv88tHK8v0EYCuCNQJpLLccYdh5PFJsFFX6TbUMDF4ca8hnpcQl8yHSKg2qniv14mmSq-kE9LKnDiOIkXX3hwfhrQ2FOkljKJy87WK-4xXpIKtBRxfX6yuOznlLCxbLjFddlAwnOk7JeT9E81pfAMXSmm-otExy5fMbdWUBS_YaM09SG_byVl8YEFpE8CwChicknhmSuYpOecxaV-sWLiJj51mgoSDQtk72T1jOz6I9Zo6VLXAfe3wUdJmx03uVgbPbkjf33LSE8YajOYFN-gHDOT2UP40UItGCz7AuHYXBYNLMFeoeKjDRYd0XmOYejXLuRn7rNWc-eXRjuH6IxunjI2IDpat1OcLqHTrOq6EyFffMG_bmNfQpyj51DYQdsf1ch-zjkr1r7LIUJculpnJQCP0fz1PxPM-d8R4xU1AAykI_wLcWlI69_W5yCzMULhzZvmTEdYeHcgMLqPkZ5JM3atg64eg6gD7-_jXfT-L5Xie_vNloOlxqC6r1WL_i4gqBoVBVu-SH4cCpim56LNabnwaoXSRSeDN_bjDBAE6ALd2ouv7Dh_tfUsgjMM_RFviciPzpKzv_kNtN7hanYZ4txTIH6tULo8qfDPvsLkSQSIaZKVBYiZ4R1bsndK2xMLZi3OnaJksSRDlUIPQavMHBiacsh8p9c2Pi28gKXai_mG_NnLyECkxJqjYTXQEuF2wbaRrRQwI9fA7Zrl3o3_PEz05ABs55plak6Cy_odJIkF6IGXO1YS3zJWbBP5H2AF4UuXpELxrPXp9emmW_3BDPfMw8Zl62sifPM6QfO6vmh4WcijWBiP15-1cfvDUC2yxVK8Jju2E9WiWODvsnc_jopn8yd-8F]--></g></svg>