<svg xmlns="http://www.w3.org/2000/svg" xmlns:xlink="http://www.w3.org/1999/xlink" contentStyleType="text/css" data-diagram-type="ACTIVITY" height="1024px" preserveAspectRatio="none" style="width:554px;height:1024px;background:#FFFFFF;" version="1.1" viewBox="0 0 554 1024" width="554px" zoomAndPan="magnify"><title>Timeline and Movement of the Holy Family in Matthew 2 (RSV-CE)</title><defs/><g><g class="title" data-source-line="1"><text fill="#000000" font-family="sans-serif" font-size="14" font-weight="bold" lengthAdjust="spacing" textLength="437.165" x="57.4109" y="34.5332">Timeline and Movement of the Holy Family in Matthew 2 (RSV-CE)</text></g><ellipse cx="143.0449" cy="58.6094" fill="#222222" rx="10" ry="10" style="stroke:#222222;stroke-width:1;"/><path d="M248.0713,78.6094 L248.0713,104.1367 L228.0713,108.1367 L248.0713,112.1367 L248.0713,137.6641 A0,0 0 0 0 248.0713,137.6641 L381.082,137.6641 A0,0 0 0 0 381.082,137.6641 L381.082,88.6094 L371.082,78.6094 L248.0713,78.6094 A0,0 0 0 0 248.0713,78.6094" fill="#FEFFDD" style="stroke:#181818;stroke-width:0.5;"/><path d="M371.082,78.6094 L371.082,88.6094 L381.082,88.6094 L371.082,78.6094" fill="#FEFFDD" style="stroke:#181818;stroke-width:0.5;"/><text fill="#000000" font-family="sans-serif" font-size="13" lengthAdjust="spacing" textLength="112.0107" x="254.0713" y="97.1045">Individuals present:</text><text fill="#000000" font-family="sans-serif" font-size="13" lengthAdjust="spacing" textLength="104.0381" x="254.0713" y="113.4561">- Jesus (newborn)</text><text fill="#000000" font-family="sans-serif" font-size="13" lengthAdjust="spacing" textLength="94.6436" x="254.0713" y="129.8076">- Mary &amp; Joseph</text><rect fill="#F1F1F1" height="35.0938" rx="12.5" ry="12.5" style="stroke:#181818;stroke-width:0.5;" width="170.0527" x="58.0186" y="90.5898"/><text fill="#000000" font-family="sans-serif" font-size="12" lengthAdjust="spacing" textLength="85.3711" x="68.0186" y="113.0469">Birth of Jesus in</text><text fill="#000000" font-family="sans-serif" font-size="12" font-weight="bold" lengthAdjust="spacing" textLength="61.3477" x="156.7236" y="113.0469">Bethlehem</text><path d="M216.3926,153.8594 L216.3926,171.2109 L196.3926,175.2109 L216.3926,179.2109 L216.3926,196.5625 A0,0 0 0 0 216.3926,196.5625 L390.5552,196.5625 A0,0 0 0 0 390.5552,196.5625 L390.5552,163.8594 L380.5552,153.8594 L216.3926,153.8594 A0,0 0 0 0 216.3926,153.8594" fill="#FEFFDD" style="stroke:#181818;stroke-width:0.5;"/><path d="M380.5552,153.8594 L380.5552,163.8594 L390.5552,163.8594 L380.5552,153.8594" fill="#FEFFDD" style="stroke:#181818;stroke-width:0.5;"/><text fill="#000000" font-family="sans-serif" font-size="13" lengthAdjust="spacing" textLength="88.8672" x="222.3926" y="172.3545">Magi offer gifts:</text><text fill="#000000" font-family="sans-serif" font-size="13" lengthAdjust="spacing" textLength="153.1626" x="222.3926" y="188.7061">Gold, Frankincense, Myrrh</text><rect fill="#F1F1F1" height="35.0938" rx="12.5" ry="12.5" style="stroke:#181818;stroke-width:0.5;" width="106.6953" x="89.6973" y="157.6641"/><text fill="#000000" font-family="sans-serif" font-size="12" lengthAdjust="spacing" textLength="56.0273" x="99.6973" y="180.1211">Visit of the</text><text fill="#000000" font-family="sans-serif" font-size="12" font-weight="bold" lengthAdjust="spacing" textLength="27.334" x="159.0586" y="180.1211">Magi</text><rect fill="#F1F1F1" height="35.0938" rx="12.5" ry="12.5" style="stroke:#181818;stroke-width:0.5;" width="204.7695" x="40.6602" y="265.4805"/><text fill="#000000" font-family="sans-serif" font-size="12" lengthAdjust="spacing" textLength="184.7695" x="50.6602" y="287.9375">Magi return home by another route</text><polygon fill="#F1F1F1" points="73.3442,216.5625,212.7456,216.5625,224.7456,228.5625,212.7456,240.5625,73.3442,240.5625,61.3442,228.5625,73.3442,216.5625" style="stroke:#181818;stroke-width:0.5;"/><text fill="#000000" font-family="sans-serif" font-size="11" lengthAdjust="spacing" textLength="18.9546" x="147.0449" y="251.9814">Yes</text><text fill="#000000" font-family="sans-serif" font-size="11" lengthAdjust="spacing" textLength="139.4014" x="73.3442" y="233.0635">Angel warns Magi in dream?</text><polygon fill="#F1F1F1" points="143.0449,320.5742,155.0449,332.5742,143.0449,344.5742,131.0449,332.5742,143.0449,320.5742" style="stroke:#181818;stroke-width:0.5;"/><rect fill="#F1F1F1" height="35.0938" rx="12.5" ry="12.5" style="stroke:#181818;stroke-width:0.5;" width="167.4043" x="59.3428" y="364.5742"/><text fill="#000000" font-family="sans-serif" font-size="12" lengthAdjust="spacing" textLength="66.0352" x="69.3428" y="387.0313">Angel warns</text><text fill="#000000" font-family="sans-serif" font-size="12" font-weight="bold" lengthAdjust="spacing" textLength="42.0117" x="138.7119" y="387.0313">Joseph</text><text fill="#000000" font-family="sans-serif" font-size="12" lengthAdjust="spacing" textLength="32.6895" x="184.0576" y="387.0313">to flee</text><path d="M271.4063,409.668 L271.4063,443.3711 L251.4063,447.3711 L271.4063,451.3711 L271.4063,485.0742 A0,0 0 0 0 271.4063,485.0742 L433.3242,485.0742 A0,0 0 0 0 433.3242,485.0742 L433.3242,419.668 L423.3242,409.668 L271.4063,409.668 A0,0 0 0 0 271.4063,409.668" fill="#FEFFDD" style="stroke:#181818;stroke-width:0.5;"/><path d="M423.3242,409.668 L423.3242,419.668 L433.3242,419.668 L423.3242,409.668" fill="#FEFFDD" style="stroke:#181818;stroke-width:0.5;"/><text fill="#000000" font-family="sans-serif" font-size="13" lengthAdjust="spacing" textLength="103.3271" x="277.4063" y="428.1631">Active individuals:</text><text fill="#000000" font-family="sans-serif" font-size="13" lengthAdjust="spacing" textLength="101.4927" x="277.4063" y="444.5146">- Jesus (~0-2 yrs)</text><text fill="#000000" font-family="sans-serif" font-size="13" lengthAdjust="spacing" textLength="94.6436" x="277.4063" y="460.8662">- Mary &amp; Joseph</text><text fill="#000000" font-family="sans-serif" font-size="13" lengthAdjust="spacing" textLength="140.918" x="277.4063" y="477.2178">- Angel guiding in dream</text><rect fill="#F1F1F1" height="35.0938" rx="12.5" ry="12.5" style="stroke:#181818;stroke-width:0.5;" width="216.7227" x="34.6836" y="429.8242"/><text fill="#000000" font-family="sans-serif" font-size="12" lengthAdjust="spacing" textLength="114.6914" x="44.6836" y="452.2813">Holy Family travels to</text><text fill="#000000" font-family="sans-serif" font-size="12" font-weight="bold" lengthAdjust="spacing" textLength="33.334" x="162.709" y="452.2813">Egypt</text><text fill="#000000" font-family="sans-serif" font-size="12" lengthAdjust="spacing" textLength="42.0293" x="199.377" y="452.2813">by night</text><rect fill="#F1F1F1" height="50.1875" rx="12.5" ry="12.5" style="stroke:#181818;stroke-width:0.5;" width="178.5898" x="53.75" y="505.0742"/><text fill="#000000" font-family="sans-serif" font-size="12" lengthAdjust="spacing" textLength="120.7207" x="63.75" y="527.5313">Fulfillment of prophecy</text><text fill="#000000" font-family="sans-serif" font-size="12" lengthAdjust="spacing" textLength="158.5898" x="63.75" y="542.625">"Out of Egypt I called my son"</text><path d="M295.0898,565.2617 L295.0898,590.7891 L275.0898,594.7891 L295.0898,598.7891 L295.0898,624.3164 A0,0 0 0 0 295.0898,624.3164 L542.9868,624.3164 A0,0 0 0 0 542.9868,624.3164 L542.9868,575.2617 L532.9868,565.2617 L295.0898,565.2617 A0,0 0 0 0 295.0898,565.2617" fill="#FEFFDD" style="stroke:#181818;stroke-width:0.5;"/><path d="M532.9868,565.2617 L532.9868,575.2617 L542.9868,575.2617 L532.9868,565.2617" fill="#FEFFDD" style="stroke:#181818;stroke-width:0.5;"/><text fill="#000000" font-family="sans-serif" font-size="13" lengthAdjust="spacing" textLength="156.4189" x="301.0898" y="583.7568">- Herod the Great (~70 yrs)</text><text fill="#000000" font-family="sans-serif" font-size="13" lengthAdjust="spacing" textLength="145.9326" x="301.0898" y="600.1084">- Holy Innocents (0-2 yrs)</text><text fill="#000000" font-family="sans-serif" font-size="13" lengthAdjust="spacing" textLength="226.897" x="301.0898" y="616.46">- Archelaus (young adult, not ruling yet)</text><rect fill="#F1F1F1" height="35.0938" rx="12.5" ry="12.5" style="stroke:#181818;stroke-width:0.5;" width="264.0898" x="11" y="577.2422"/><text fill="#000000" font-family="sans-serif" font-size="12" lengthAdjust="spacing" textLength="90.0469" x="21" y="599.6992">Herod orders the</text><text fill="#000000" font-family="sans-serif" font-size="12" font-weight="bold" lengthAdjust="spacing" textLength="150.709" x="114.3809" y="599.6992">Massacre of the Innocents</text><rect fill="#F1F1F1" height="50.1875" rx="12.5" ry="12.5" style="stroke:#181818;stroke-width:0.5;" width="192.0723" x="47.0088" y="644.3164"/><text fill="#000000" font-family="sans-serif" font-size="12" lengthAdjust="spacing" textLength="106.3477" x="57.0088" y="666.7734">After Herod's death,</text><text fill="#000000" font-family="sans-serif" font-size="12" lengthAdjust="spacing" textLength="78.7031" x="57.0088" y="681.8672">Angel instructs</text><text fill="#000000" font-family="sans-serif" font-size="12" font-weight="bold" lengthAdjust="spacing" textLength="42.0117" x="139.0459" y="681.8672">Joseph</text><text fill="#000000" font-family="sans-serif" font-size="12" lengthAdjust="spacing" textLength="44.6895" x="184.3916" y="681.8672">to return</text><rect fill="#F1F1F1" height="35.0938" rx="12.5" ry="12.5" style="stroke:#181818;stroke-width:0.5;" width="124.7363" x="80.6768" y="763.4219"/><text fill="#000000" font-family="sans-serif" font-size="12" lengthAdjust="spacing" textLength="104.7363" x="90.6768" y="785.8789">Joseph fears Judea</text><rect fill="#F1F1F1" height="35.0938" rx="12.5" ry="12.5" style="stroke:#181818;stroke-width:0.5;" width="172.0918" x="56.999" y="833.5156"/><text fill="#000000" font-family="sans-serif" font-size="12" lengthAdjust="spacing" textLength="109.4004" x="66.999" y="855.9727">Angel warns to go to</text><text fill="#000000" font-family="sans-serif" font-size="12" font-weight="bold" lengthAdjust="spacing" textLength="39.3574" x="179.7334" y="855.9727">Galilee</text><polygon fill="#F1F1F1" points="51.0166,714.5039,235.0732,714.5039,247.0732,726.5039,235.0732,738.5039,51.0166,738.5039,39.0166,726.5039,51.0166,714.5039" style="stroke:#181818;stroke-width:0.5;"/><text fill="#000000" font-family="sans-serif" font-size="11" lengthAdjust="spacing" textLength="18.9546" x="147.0449" y="749.9229">Yes</text><text fill="#000000" font-family="sans-serif" font-size="11" lengthAdjust="spacing" textLength="184.0566" x="51.0166" y="731.0049">Joseph hears Archelaus rules Judea?</text><polygon fill="#F1F1F1" points="143.0449,888.6094,155.0449,900.6094,143.0449,912.6094,131.0449,900.6094,143.0449,888.6094" style="stroke:#181818;stroke-width:0.5;"/><path d="M256.7344,928.8047 L256.7344,946.1563 L236.7344,950.1563 L256.7344,954.1563 L256.7344,971.5078 A0,0 0 0 0 256.7344,971.5078 L460.4009,971.5078 A0,0 0 0 0 460.4009,971.5078 L460.4009,938.8047 L450.4009,928.8047 L256.7344,928.8047 A0,0 0 0 0 256.7344,928.8047" fill="#FEFFDD" style="stroke:#181818;stroke-width:0.5;"/><path d="M450.4009,928.8047 L450.4009,938.8047 L460.4009,938.8047 L450.4009,928.8047" fill="#FEFFDD" style="stroke:#181818;stroke-width:0.5;"/><text fill="#000000" font-family="sans-serif" font-size="13" lengthAdjust="spacing" textLength="102.6099" x="262.7344" y="947.2998">Prophecy fulfilled:</text><text fill="#000000" font-family="sans-serif" font-size="13" lengthAdjust="spacing" textLength="182.6665" x="262.7344" y="963.6514">"He shall be called a Nazarene"</text><rect fill="#F1F1F1" height="35.0938" rx="12.5" ry="12.5" style="stroke:#181818;stroke-width:0.5;" width="187.3789" x="49.3555" y="932.6094"/><text fill="#000000" font-family="sans-serif" font-size="12" lengthAdjust="spacing" textLength="113.3613" x="59.3555" y="955.0664">Holy Family settles in</text><text fill="#000000" font-family="sans-serif" font-size="12" font-weight="bold" lengthAdjust="spacing" textLength="50.6836" x="176.0508" y="955.0664">Nazareth</text><ellipse cx="143.0449" cy="1002.5078" fill="none" rx="11" ry="11" style="stroke:#222222;stroke-width:1;"/><ellipse cx="143.0449" cy="1002.5078" fill="#222222" rx="6" ry="6" style="stroke:#222222;stroke-width:1;"/><line style="stroke:#181818;stroke-width:1;" x1="143.0449" x2="143.0449" y1="68.6094" y2="90.5898"/><polygon fill="#181818" points="139.0449,80.5898,143.0449,90.5898,147.0449,80.5898,143.0449,84.5898" style="stroke:#181818;stroke-width:1;"/><line style="stroke:#181818;stroke-width:1;" x1="143.0449" x2="143.0449" y1="125.6836" y2="157.6641"/><polygon fill="#181818" points="139.0449,147.6641,143.0449,157.6641,147.0449,147.6641,143.0449,151.6641" style="stroke:#181818;stroke-width:1;"/><line style="stroke:#181818;stroke-width:1;" x1="143.0449" x2="143.0449" y1="240.5625" y2="265.4805"/><polygon fill="#181818" points="139.0449,255.4805,143.0449,265.4805,147.0449,255.4805,143.0449,259.4805" style="stroke:#181818;stroke-width:1;"/><line style="stroke:#181818;stroke-width:1;" x1="224.7456" x2="255.4297" y1="228.5625" y2="228.5625"/><polygon fill="#181818" points="251.4297,273.0273,255.4297,283.0273,259.4297,273.0273,255.4297,277.0273" style="stroke:#181818;stroke-width:1;"/><line style="stroke:#181818;stroke-width:1;" x1="255.4297" x2="255.4297" y1="228.5625" y2="332.5742"/><line style="stroke:#181818;stroke-width:1;" x1="255.4297" x2="155.0449" y1="332.5742" y2="332.5742"/><polygon fill="#181818" points="165.0449,328.5742,155.0449,332.5742,165.0449,336.5742,161.0449,332.5742" style="stroke:#181818;stroke-width:1;"/><line style="stroke:#181818;stroke-width:1;" x1="143.0449" x2="143.0449" y1="300.5742" y2="320.5742"/><polygon fill="#181818" points="139.0449,310.5742,143.0449,320.5742,147.0449,310.5742,143.0449,314.5742" style="stroke:#181818;stroke-width:1;"/><line style="stroke:#181818;stroke-width:1;" x1="143.0449" x2="143.0449" y1="192.7578" y2="216.5625"/><polygon fill="#181818" points="139.0449,206.5625,143.0449,216.5625,147.0449,206.5625,143.0449,210.5625" style="stroke:#181818;stroke-width:1;"/><line style="stroke:#181818;stroke-width:1;" x1="143.0449" x2="143.0449" y1="344.5742" y2="364.5742"/><polygon fill="#181818" points="139.0449,354.5742,143.0449,364.5742,147.0449,354.5742,143.0449,358.5742" style="stroke:#181818;stroke-width:1;"/><line style="stroke:#181818;stroke-width:1;" x1="143.0449" x2="143.0449" y1="399.668" y2="429.8242"/><polygon fill="#181818" points="139.0449,419.8242,143.0449,429.8242,147.0449,419.8242,143.0449,423.8242" style="stroke:#181818;stroke-width:1;"/><line style="stroke:#181818;stroke-width:1;" x1="143.0449" x2="143.0449" y1="464.918" y2="505.0742"/><polygon fill="#181818" points="139.0449,495.0742,143.0449,505.0742,147.0449,495.0742,143.0449,499.0742" style="stroke:#181818;stroke-width:1;"/><line style="stroke:#181818;stroke-width:1;" x1="143.0449" x2="143.0449" y1="555.2617" y2="577.2422"/><polygon fill="#181818" points="139.0449,567.2422,143.0449,577.2422,147.0449,567.2422,143.0449,571.2422" style="stroke:#181818;stroke-width:1;"/><line style="stroke:#181818;stroke-width:1;" x1="143.0449" x2="143.0449" y1="612.3359" y2="644.3164"/><polygon fill="#181818" points="139.0449,634.3164,143.0449,644.3164,147.0449,634.3164,143.0449,638.3164" style="stroke:#181818;stroke-width:1;"/><line style="stroke:#181818;stroke-width:1;" x1="143.0449" x2="143.0449" y1="798.5156" y2="833.5156"/><polygon fill="#181818" points="139.0449,823.5156,143.0449,833.5156,147.0449,823.5156,143.0449,827.5156" style="stroke:#181818;stroke-width:1;"/><line style="stroke:#181818;stroke-width:1;" x1="143.0449" x2="143.0449" y1="738.5039" y2="763.4219"/><polygon fill="#181818" points="139.0449,753.4219,143.0449,763.4219,147.0449,753.4219,143.0449,757.4219" style="stroke:#181818;stroke-width:1;"/><line style="stroke:#181818;stroke-width:1;" x1="247.0732" x2="259.0732" y1="726.5039" y2="726.5039"/><polygon fill="#181818" points="255.0732,806.0156,259.0732,816.0156,263.0732,806.0156,259.0732,810.0156" style="stroke:#181818;stroke-width:1;"/><line style="stroke:#181818;stroke-width:1;" x1="259.0732" x2="259.0732" y1="726.5039" y2="900.6094"/><line style="stroke:#181818;stroke-width:1;" x1="259.0732" x2="155.0449" y1="900.6094" y2="900.6094"/><polygon fill="#181818" points="165.0449,896.6094,155.0449,900.6094,165.0449,904.6094,161.0449,900.6094" style="stroke:#181818;stroke-width:1;"/><line style="stroke:#181818;stroke-width:1;" x1="143.0449" x2="143.0449" y1="868.6094" y2="888.6094"/><polygon fill="#181818" points="139.0449,878.6094,143.0449,888.6094,147.0449,878.6094,143.0449,882.6094" style="stroke:#181818;stroke-width:1;"/><line style="stroke:#181818;stroke-width:1;" x1="143.0449" x2="143.0449" y1="694.5039" y2="714.5039"/><polygon fill="#181818" points="139.0449,704.5039,143.0449,714.5039,147.0449,704.5039,143.0449,708.5039" style="stroke:#181818;stroke-width:1;"/><line style="stroke:#181818;stroke-width:1;" x1="143.0449" x2="143.0449" y1="912.6094" y2="932.6094"/><polygon fill="#181818" points="139.0449,922.6094,143.0449,932.6094,147.0449,922.6094,143.0449,926.6094" style="stroke:#181818;stroke-width:1;"/><line style="stroke:#181818;stroke-width:1;" x1="143.0449" x2="143.0449" y1="967.7031" y2="991.5078"/><polygon fill="#181818" points="139.0449,981.5078,143.0449,991.5078,147.0449,981.5078,143.0449,985.5078" style="stroke:#181818;stroke-width:1;"/><!--SRC=[RLDBQzj04BxhLmm-jBQm8UHIa0_5AV4Bt9Os17fSIoFjqjMkc1tPg8V-zivAiQF4FGbcP-PxZTYmHNWoDLhZ49GhuE1FMADZy2MmHjXwsy5QrKO-ni51iLJFS0_J7p-V5ryUPqaIM14dsOCXrd5iZw4DiJbD7v2rHOrrcYuJvnc1JAKv0TYvmfnCqIeRe24C0fb9UV4oFNLuFdfoixvsKDJ11zZxW8rEK6Z6NKcIFPjWhbJJzA0gSuCKYz9I8a5bIWuPI77ZRJ67DIdtsxWSNS0v73gYyNPJmdJbAhHmLkJ2i4Xa5OIg_ZoBc0wclp14abd_IiWjET2-HZXsOgYN9WBoBUCohZQbi1ulJTD1LPe2UoWjIbysDfr9dL1CajSqVQowXgLLThiexvtKLSxcXCBnwkqRJ__UBUwXe_0_KsDbu5MrfZ2kkYeT-xrkRMcilHn8GxxHc7V9v5lR5tf-i8DSMOi5r1q4xoPBcTmY-G8y5KZXcbO8AYUyvBTppaiK76uYNC0m7hismeb5owUxLoczNzTncBxHkQ9SerNHWCwt8amLhULvb0JKsYYrGvwDPQvAbjHwp8y12W7KysHmnxZ0rERyFhaX-ULmDSC3Q5GYzXLVq330lfM5D-VpCbBs8ttBCfR7fo8ebH_kOAEiaLE9HbsEQdmp0PaZLFyFVbL_bB3JDwv-VqaFoY5LBFfVOx9525e2X2DUWbGmR74u6VaKs3V_0000]--></g></svg>