<svg xmlns="http://www.w3.org/2000/svg" xmlns:xlink="http://www.w3.org/1999/xlink" contentStyleType="text/css" data-diagram-type="CLASS" height="994px" preserveAspectRatio="none" style="width:540px;height:994px;background:#FFFFFF;" version="1.1" viewBox="0 0 540 994" width="540px" zoomAndPan="magnify"><title>Beatitudes (Matthew 5:3-12)</title><defs/><g><g class="title" data-source-line="5"><text fill="#000000" font-family="sans-serif" font-size="14" font-weight="bold" lengthAdjust="spacing" textLength="185.1445" x="170.4423" y="24.5332">Beatitudes (Matthew 5:3-12)</text></g><!--class B1--><g class="entity" data-entity="B1" data-source-line="7" data-uid="ent0002" id="entity_B1"><rect fill="#F1F1F1" height="65.6094" rx="2.5" ry="2.5" style="stroke:#181818;stroke-width:0.5;" width="190.9854" x="34.89" y="820.7994"/><ellipse cx="86.0604" cy="836.7994" fill="#ADD1B2" rx="11" ry="11" style="stroke:#181818;stroke-width:1;"/><path d="M88.826,832.6744 Q88.9823,832.4556 89.1698,832.3462 Q89.3573,832.2369 89.576,832.2369 Q89.951,832.2369 90.1854,832.5025 Q90.4198,832.7525 90.4198,833.3619 L90.4198,834.815 Q90.4198,835.4244 90.1854,835.69 Q89.951,835.9556 89.576,835.9556 Q89.2323,835.9556 89.0292,835.7525 Q88.826,835.565 88.7167,835.0494 Q88.6698,834.69 88.4823,834.5025 Q88.1542,834.1275 87.5448,833.9087 Q86.9354,833.69 86.3104,833.69 Q85.5448,833.69 84.9042,834.0181 Q84.2792,834.3462 83.7792,835.0962 Q83.2948,835.8462 83.2948,836.8775 L83.2948,837.9712 Q83.2948,839.2056 84.1854,840.0337 Q85.076,840.8462 86.6698,840.8462 Q87.6073,840.8462 88.2635,840.5962 Q88.6542,840.44 89.076,840.0025 Q89.3417,839.7369 89.4823,839.6587 Q89.6385,839.5806 89.8417,839.5806 Q90.1698,839.5806 90.4198,839.8462 Q90.6854,840.0962 90.6854,840.44 Q90.6854,840.7837 90.3417,841.19 Q89.8417,841.7681 89.0448,842.0962 Q87.9667,842.5494 86.6698,842.5494 Q85.1542,842.5494 83.951,841.9244 Q82.9667,841.4244 82.2792,840.3619 Q81.5917,839.2837 81.5917,838.0025 L81.5917,836.8462 Q81.5917,835.5181 82.201,834.3775 Q82.826,833.2212 83.9198,832.6119 Q85.0135,831.9869 86.2479,831.9869 Q86.9823,831.9869 87.6229,832.1587 Q88.2792,832.315 88.826,832.6744 Z " fill="#000000"/><text fill="#000000" font-family="sans-serif" font-size="14" lengthAdjust="spacing" textLength="80.1445" x="106.5604" y="842.5279">Poor in Spirit</text><line style="stroke:#181818;stroke-width:0.5;" x1="35.89" x2="224.8754" y1="852.7994" y2="852.7994"/><text fill="#000000" font-family="sans-serif" font-size="14" lengthAdjust="spacing" textLength="178.9854" x="40.89" y="871.3326">Reward: Kingdom of Heaven</text><line style="stroke:#181818;stroke-width:0.5;" x1="35.89" x2="224.8754" y1="878.4087" y2="878.4087"/></g><!--class B2--><g class="entity" data-entity="B2" data-source-line="11" data-uid="ent0003" id="entity_B2"><rect fill="#F1F1F1" height="65.6094" rx="2.5" ry="2.5" style="stroke:#181818;stroke-width:0.5;" width="144.0547" x="58.35" y="719.7994"/><ellipse cx="73.35" cy="735.7994" fill="#ADD1B2" rx="11" ry="11" style="stroke:#181818;stroke-width:1;"/><path d="M76.1156,731.6744 Q76.2719,731.4556 76.4594,731.3462 Q76.6469,731.2369 76.8656,731.2369 Q77.2406,731.2369 77.475,731.5025 Q77.7094,731.7525 77.7094,732.3619 L77.7094,733.815 Q77.7094,734.4244 77.475,734.69 Q77.2406,734.9556 76.8656,734.9556 Q76.5219,734.9556 76.3188,734.7525 Q76.1156,734.565 76.0063,734.0494 Q75.9594,733.69 75.7719,733.5025 Q75.4438,733.1275 74.8344,732.9087 Q74.225,732.69 73.6,732.69 Q72.8344,732.69 72.1938,733.0181 Q71.5688,733.3462 71.0688,734.0962 Q70.5844,734.8462 70.5844,735.8775 L70.5844,736.9712 Q70.5844,738.2056 71.475,739.0337 Q72.3656,739.8462 73.9594,739.8462 Q74.8969,739.8462 75.5531,739.5962 Q75.9438,739.44 76.3656,739.0025 Q76.6313,738.7369 76.7719,738.6587 Q76.9281,738.5806 77.1313,738.5806 Q77.4594,738.5806 77.7094,738.8462 Q77.975,739.0962 77.975,739.44 Q77.975,739.7837 77.6313,740.19 Q77.1313,740.7681 76.3344,741.0962 Q75.2563,741.5494 73.9594,741.5494 Q72.4438,741.5494 71.2406,740.9244 Q70.2563,740.4244 69.5688,739.3619 Q68.8813,738.2837 68.8813,737.0025 L68.8813,735.8462 Q68.8813,734.5181 69.4906,733.3775 Q70.1156,732.2212 71.2094,731.6119 Q72.3031,730.9869 73.5375,730.9869 Q74.2719,730.9869 74.9125,731.1587 Q75.5688,731.315 76.1156,731.6744 Z " fill="#000000"/><text fill="#000000" font-family="sans-serif" font-size="14" lengthAdjust="spacing" textLength="112.0547" x="87.35" y="741.5279">Those who Mourn</text><line style="stroke:#181818;stroke-width:0.5;" x1="59.35" x2="201.4047" y1="751.7994" y2="751.7994"/><text fill="#000000" font-family="sans-serif" font-size="14" lengthAdjust="spacing" textLength="121.3789" x="64.35" y="770.3326">Reward: Comforted</text><line style="stroke:#181818;stroke-width:0.5;" x1="59.35" x2="201.4047" y1="777.4087" y2="777.4087"/></g><!--class B3--><g class="entity" data-entity="B3" data-source-line="15" data-uid="ent0004" id="entity_B3"><rect fill="#F1F1F1" height="65.6094" rx="2.5" ry="2.5" style="stroke:#181818;stroke-width:0.5;" width="167.6338" x="46.57" y="618.7994"/><ellipse cx="95.0129" cy="634.7994" fill="#ADD1B2" rx="11" ry="11" style="stroke:#181818;stroke-width:1;"/><path d="M97.7785,630.6744 Q97.9347,630.4556 98.1222,630.3462 Q98.3097,630.2369 98.5285,630.2369 Q98.9035,630.2369 99.1379,630.5025 Q99.3722,630.7525 99.3722,631.3619 L99.3722,632.815 Q99.3722,633.4244 99.1379,633.69 Q98.9035,633.9556 98.5285,633.9556 Q98.1847,633.9556 97.9816,633.7525 Q97.7785,633.565 97.6691,633.0494 Q97.6222,632.69 97.4347,632.5025 Q97.1066,632.1275 96.4972,631.9087 Q95.8879,631.69 95.2629,631.69 Q94.4972,631.69 93.8566,632.0181 Q93.2316,632.3462 92.7316,633.0962 Q92.2472,633.8462 92.2472,634.8775 L92.2472,635.9712 Q92.2472,637.2056 93.1379,638.0337 Q94.0285,638.8462 95.6222,638.8462 Q96.5597,638.8462 97.216,638.5962 Q97.6066,638.44 98.0285,638.0025 Q98.2941,637.7369 98.4347,637.6587 Q98.591,637.5806 98.7941,637.5806 Q99.1222,637.5806 99.3722,637.8462 Q99.6379,638.0962 99.6379,638.44 Q99.6379,638.7837 99.2941,639.19 Q98.7941,639.7681 97.9972,640.0962 Q96.9191,640.5494 95.6222,640.5494 Q94.1066,640.5494 92.9035,639.9244 Q91.9191,639.4244 91.2316,638.3619 Q90.5441,637.2837 90.5441,636.0025 L90.5441,634.8462 Q90.5441,633.5181 91.1535,632.3775 Q91.7785,631.2212 92.8722,630.6119 Q93.966,629.9869 95.2004,629.9869 Q95.9347,629.9869 96.5754,630.1587 Q97.2316,630.315 97.7785,630.6744 Z " fill="#000000"/><text fill="#000000" font-family="sans-serif" font-size="14" lengthAdjust="spacing" textLength="62.248" x="115.5129" y="640.5279">The Meek</text><line style="stroke:#181818;stroke-width:0.5;" x1="47.57" x2="213.2038" y1="650.7994" y2="650.7994"/><text fill="#000000" font-family="sans-serif" font-size="14" lengthAdjust="spacing" textLength="155.6338" x="52.57" y="669.3326">Reward: Inherit the Earth</text><line style="stroke:#181818;stroke-width:0.5;" x1="47.57" x2="213.2038" y1="676.4087" y2="676.4087"/></g><!--class B4--><g class="entity" data-entity="B4" data-source-line="19" data-uid="ent0005" id="entity_B4"><rect fill="#F1F1F1" height="65.6094" rx="2.5" ry="2.5" style="stroke:#181818;stroke-width:0.5;" width="246.7646" x="7" y="517.7994"/><ellipse cx="22" cy="533.7994" fill="#ADD1B2" rx="11" ry="11" style="stroke:#181818;stroke-width:1;"/><path d="M24.7656,529.6744 Q24.9219,529.4556 25.1094,529.3462 Q25.2969,529.2369 25.5156,529.2369 Q25.8906,529.2369 26.125,529.5025 Q26.3594,529.7525 26.3594,530.3619 L26.3594,531.815 Q26.3594,532.4244 26.125,532.69 Q25.8906,532.9556 25.5156,532.9556 Q25.1719,532.9556 24.9688,532.7525 Q24.7656,532.565 24.6563,532.0494 Q24.6094,531.69 24.4219,531.5025 Q24.0938,531.1275 23.4844,530.9087 Q22.875,530.69 22.25,530.69 Q21.4844,530.69 20.8438,531.0181 Q20.2188,531.3462 19.7188,532.0962 Q19.2344,532.8462 19.2344,533.8775 L19.2344,534.9712 Q19.2344,536.2056 20.125,537.0337 Q21.0156,537.8462 22.6094,537.8462 Q23.5469,537.8462 24.2031,537.5962 Q24.5938,537.44 25.0156,537.0025 Q25.2813,536.7369 25.4219,536.6587 Q25.5781,536.5806 25.7813,536.5806 Q26.1094,536.5806 26.3594,536.8462 Q26.625,537.0962 26.625,537.44 Q26.625,537.7837 26.2813,538.19 Q25.7813,538.7681 24.9844,539.0962 Q23.9063,539.5494 22.6094,539.5494 Q21.0938,539.5494 19.8906,538.9244 Q18.9063,538.4244 18.2188,537.3619 Q17.5313,536.2837 17.5313,535.0025 L17.5313,533.8462 Q17.5313,532.5181 18.1406,531.3775 Q18.7656,530.2212 19.8594,529.6119 Q20.9531,528.9869 22.1875,528.9869 Q22.9219,528.9869 23.5625,529.1587 Q24.2188,529.315 24.7656,529.6744 Z " fill="#000000"/><text fill="#000000" font-family="sans-serif" font-size="14" lengthAdjust="spacing" textLength="214.7646" x="36" y="539.5279">Hunger &amp; Thirst for Righteousness</text><line style="stroke:#181818;stroke-width:0.5;" x1="8" x2="252.7646" y1="549.7994" y2="549.7994"/><text fill="#000000" font-family="sans-serif" font-size="14" lengthAdjust="spacing" textLength="109.7168" x="13" y="568.3326">Reward: Satisfied</text><line style="stroke:#181818;stroke-width:0.5;" x1="8" x2="252.7646" y1="575.4087" y2="575.4087"/></g><!--class B5--><g class="entity" data-entity="B5" data-source-line="23" data-uid="ent0006" id="entity_B5"><rect fill="#F1F1F1" height="65.6094" rx="2.5" ry="2.5" style="stroke:#181818;stroke-width:0.5;" width="151.2686" x="54.75" y="416.7994"/><ellipse cx="88.7616" cy="432.7994" fill="#ADD1B2" rx="11" ry="11" style="stroke:#181818;stroke-width:1;"/><path d="M91.5272,428.6744 Q91.6835,428.4556 91.871,428.3462 Q92.0585,428.2369 92.2772,428.2369 Q92.6522,428.2369 92.8866,428.5025 Q93.121,428.7525 93.121,429.3619 L93.121,430.815 Q93.121,431.4244 92.8866,431.69 Q92.6522,431.9556 92.2772,431.9556 Q91.9335,431.9556 91.7304,431.7525 Q91.5272,431.565 91.4179,431.0494 Q91.371,430.69 91.1835,430.5025 Q90.8554,430.1275 90.246,429.9087 Q89.6366,429.69 89.0116,429.69 Q88.246,429.69 87.6054,430.0181 Q86.9804,430.3462 86.4804,431.0962 Q85.996,431.8462 85.996,432.8775 L85.996,433.9712 Q85.996,435.2056 86.8866,436.0337 Q87.7772,436.8462 89.371,436.8462 Q90.3085,436.8462 90.9647,436.5962 Q91.3554,436.44 91.7772,436.0025 Q92.0429,435.7369 92.1835,435.6587 Q92.3397,435.5806 92.5429,435.5806 Q92.871,435.5806 93.121,435.8462 Q93.3866,436.0962 93.3866,436.44 Q93.3866,436.7837 93.0429,437.19 Q92.5429,437.7681 91.746,438.0962 Q90.6679,438.5494 89.371,438.5494 Q87.8554,438.5494 86.6522,437.9244 Q85.6679,437.4244 84.9804,436.3619 Q84.2929,435.2837 84.2929,434.0025 L84.2929,432.8462 Q84.2929,431.5181 84.9022,430.3775 Q85.5272,429.2212 86.621,428.6119 Q87.7147,427.9869 88.9491,427.9869 Q89.6835,427.9869 90.3241,428.1587 Q90.9804,428.315 91.5272,428.6744 Z " fill="#000000"/><text fill="#000000" font-family="sans-serif" font-size="14" lengthAdjust="spacing" textLength="77.0205" x="106.9864" y="438.5279">The Merciful</text><line style="stroke:#181818;stroke-width:0.5;" x1="55.75" x2="205.0186" y1="448.7994" y2="448.7994"/><text fill="#000000" font-family="sans-serif" font-size="14" lengthAdjust="spacing" textLength="139.2686" x="60.75" y="467.3326">Reward: Obtain Mercy</text><line style="stroke:#181818;stroke-width:0.5;" x1="55.75" x2="205.0186" y1="474.4087" y2="474.4087"/></g><!--class B6--><g class="entity" data-entity="B6" data-source-line="27" data-uid="ent0007" id="entity_B6"><rect fill="#F1F1F1" height="65.6094" rx="2.5" ry="2.5" style="stroke:#181818;stroke-width:0.5;" width="123.2822" x="68.74" y="315.7994"/><ellipse cx="87.6999" cy="331.7994" fill="#ADD1B2" rx="11" ry="11" style="stroke:#181818;stroke-width:1;"/><path d="M90.4655,327.6744 Q90.6218,327.4556 90.8093,327.3462 Q90.9968,327.2369 91.2155,327.2369 Q91.5905,327.2369 91.8249,327.5025 Q92.0593,327.7525 92.0593,328.3619 L92.0593,329.815 Q92.0593,330.4244 91.8249,330.69 Q91.5905,330.9556 91.2155,330.9556 Q90.8718,330.9556 90.6687,330.7525 Q90.4655,330.565 90.3562,330.0494 Q90.3093,329.69 90.1218,329.5025 Q89.7937,329.1275 89.1843,328.9087 Q88.5749,328.69 87.9499,328.69 Q87.1843,328.69 86.5437,329.0181 Q85.9187,329.3462 85.4187,330.0962 Q84.9343,330.8462 84.9343,331.8775 L84.9343,332.9712 Q84.9343,334.2056 85.8249,335.0337 Q86.7155,335.8462 88.3093,335.8462 Q89.2468,335.8462 89.903,335.5962 Q90.2937,335.44 90.7155,335.0025 Q90.9812,334.7369 91.1218,334.6587 Q91.278,334.5806 91.4812,334.5806 Q91.8093,334.5806 92.0593,334.8462 Q92.3249,335.0962 92.3249,335.44 Q92.3249,335.7837 91.9812,336.19 Q91.4812,336.7681 90.6843,337.0962 Q89.6062,337.5494 88.3093,337.5494 Q86.7937,337.5494 85.5905,336.9244 Q84.6062,336.4244 83.9187,335.3619 Q83.2312,334.2837 83.2312,333.0025 L83.2312,331.8462 Q83.2312,330.5181 83.8405,329.3775 Q84.4655,328.2212 85.5593,327.6119 Q86.653,326.9869 87.8874,326.9869 Q88.6218,326.9869 89.2624,327.1587 Q89.9187,327.315 90.4655,327.6744 Z " fill="#000000"/><text fill="#000000" font-family="sans-serif" font-size="14" lengthAdjust="spacing" textLength="82.4824" x="102.5799" y="337.5279">Pure in Heart</text><line style="stroke:#181818;stroke-width:0.5;" x1="69.74" x2="191.0222" y1="347.7994" y2="347.7994"/><text fill="#000000" font-family="sans-serif" font-size="14" lengthAdjust="spacing" textLength="111.2822" x="74.74" y="366.3326">Reward: See God</text><line style="stroke:#181818;stroke-width:0.5;" x1="69.74" x2="191.0222" y1="373.4087" y2="373.4087"/></g><!--class B7--><g class="entity" data-entity="B7" data-source-line="31" data-uid="ent0008" id="entity_B7"><rect fill="#F1F1F1" height="65.6094" rx="2.5" ry="2.5" style="stroke:#181818;stroke-width:0.5;" width="189.4268" x="35.67" y="214.7994"/><ellipse cx="83.337" cy="230.7994" fill="#ADD1B2" rx="11" ry="11" style="stroke:#181818;stroke-width:1;"/><path d="M86.1026,226.6744 Q86.2589,226.4556 86.4464,226.3462 Q86.6339,226.2369 86.8526,226.2369 Q87.2276,226.2369 87.462,226.5025 Q87.6964,226.7525 87.6964,227.3619 L87.6964,228.815 Q87.6964,229.4244 87.462,229.69 Q87.2276,229.9556 86.8526,229.9556 Q86.5089,229.9556 86.3057,229.7525 Q86.1026,229.565 85.9932,229.0494 Q85.9464,228.69 85.7589,228.5025 Q85.4307,228.1275 84.8214,227.9087 Q84.212,227.69 83.587,227.69 Q82.8214,227.69 82.1807,228.0181 Q81.5557,228.3462 81.0557,229.0962 Q80.5714,229.8462 80.5714,230.8775 L80.5714,231.9712 Q80.5714,233.2056 81.462,234.0337 Q82.3526,234.8462 83.9464,234.8462 Q84.8839,234.8462 85.5401,234.5962 Q85.9307,234.44 86.3526,234.0025 Q86.6182,233.7369 86.7589,233.6587 Q86.9151,233.5806 87.1182,233.5806 Q87.4464,233.5806 87.6964,233.8462 Q87.962,234.0962 87.962,234.44 Q87.962,234.7837 87.6182,235.19 Q87.1182,235.7681 86.3214,236.0962 Q85.2432,236.5494 83.9464,236.5494 Q82.4307,236.5494 81.2276,235.9244 Q80.2432,235.4244 79.5557,234.3619 Q78.8682,233.2837 78.8682,232.0025 L78.8682,230.8462 Q78.8682,229.5181 79.4776,228.3775 Q80.1026,227.2212 81.1964,226.6119 Q82.2901,225.9869 83.5245,225.9869 Q84.2589,225.9869 84.8995,226.1587 Q85.5557,226.315 86.1026,226.6744 Z " fill="#000000"/><text fill="#000000" font-family="sans-serif" font-size="14" lengthAdjust="spacing" textLength="85.5928" x="103.837" y="236.5279">Peacemakers</text><line style="stroke:#181818;stroke-width:0.5;" x1="36.67" x2="224.0968" y1="246.7994" y2="246.7994"/><text fill="#000000" font-family="sans-serif" font-size="14" lengthAdjust="spacing" textLength="177.4268" x="41.67" y="265.3326">Reward: Called Sons of God</text><line style="stroke:#181818;stroke-width:0.5;" x1="36.67" x2="224.0968" y1="272.4087" y2="272.4087"/></g><!--class B8--><g class="entity" data-entity="B8" data-source-line="35" data-uid="ent0009" id="entity_B8"><rect fill="#F1F1F1" height="65.6094" rx="2.5" ry="2.5" style="stroke:#181818;stroke-width:0.5;" width="219.5508" x="20.61" y="921.7994"/><ellipse cx="35.61" cy="937.7994" fill="#ADD1B2" rx="11" ry="11" style="stroke:#181818;stroke-width:1;"/><path d="M38.3756,933.6744 Q38.5319,933.4556 38.7194,933.3462 Q38.9069,933.2369 39.1256,933.2369 Q39.5006,933.2369 39.735,933.5025 Q39.9694,933.7525 39.9694,934.3619 L39.9694,935.815 Q39.9694,936.4244 39.735,936.69 Q39.5006,936.9556 39.1256,936.9556 Q38.7819,936.9556 38.5788,936.7525 Q38.3756,936.565 38.2663,936.0494 Q38.2194,935.69 38.0319,935.5025 Q37.7038,935.1275 37.0944,934.9087 Q36.485,934.69 35.86,934.69 Q35.0944,934.69 34.4538,935.0181 Q33.8288,935.3462 33.3288,936.0962 Q32.8444,936.8462 32.8444,937.8775 L32.8444,938.9712 Q32.8444,940.2056 33.735,941.0337 Q34.6256,941.8462 36.2194,941.8462 Q37.1569,941.8462 37.8131,941.5962 Q38.2038,941.44 38.6256,941.0025 Q38.8913,940.7369 39.0319,940.6587 Q39.1881,940.5806 39.3913,940.5806 Q39.7194,940.5806 39.9694,940.8462 Q40.235,941.0962 40.235,941.44 Q40.235,941.7837 39.8913,942.19 Q39.3913,942.7681 38.5944,943.0962 Q37.5163,943.5494 36.2194,943.5494 Q34.7038,943.5494 33.5006,942.9244 Q32.5163,942.4244 31.8288,941.3619 Q31.1413,940.2837 31.1413,939.0025 L31.1413,937.8462 Q31.1413,936.5181 31.7506,935.3775 Q32.3756,934.2212 33.4694,933.6119 Q34.5631,932.9869 35.7975,932.9869 Q36.5319,932.9869 37.1725,933.1587 Q37.8288,933.315 38.3756,933.6744 Z " fill="#000000"/><text fill="#000000" font-family="sans-serif" font-size="14" lengthAdjust="spacing" textLength="187.5508" x="49.61" y="943.5279">Persecuted for Righteousness</text><line style="stroke:#181818;stroke-width:0.5;" x1="21.61" x2="239.1608" y1="953.7994" y2="953.7994"/><text fill="#000000" font-family="sans-serif" font-size="14" lengthAdjust="spacing" textLength="178.9854" x="26.61" y="972.3326">Reward: Kingdom of Heaven</text><line style="stroke:#181818;stroke-width:0.5;" x1="21.61" x2="239.1608" y1="979.4087" y2="979.4087"/></g><!--class B9--><g class="entity" data-entity="B9" data-source-line="39" data-uid="ent0010" id="entity_B9"><rect fill="#F1F1F1" height="65.6094" rx="2.5" ry="2.5" style="stroke:#181818;stroke-width:0.5;" width="222.0957" x="19.33" y="74.7994"/><ellipse cx="72.4452" cy="90.7994" fill="#ADD1B2" rx="11" ry="11" style="stroke:#181818;stroke-width:1;"/><path d="M75.2109,86.6744 Q75.3671,86.4556 75.5546,86.3462 Q75.7421,86.2369 75.9609,86.2369 Q76.3359,86.2369 76.5702,86.5025 Q76.8046,86.7525 76.8046,87.3619 L76.8046,88.815 Q76.8046,89.4244 76.5702,89.69 Q76.3359,89.9556 75.9609,89.9556 Q75.6171,89.9556 75.414,89.7525 Q75.2109,89.565 75.1015,89.0494 Q75.0546,88.69 74.8671,88.5025 Q74.539,88.1275 73.9296,87.9087 Q73.3202,87.69 72.6952,87.69 Q71.9296,87.69 71.289,88.0181 Q70.664,88.3462 70.164,89.0962 Q69.6796,89.8462 69.6796,90.8775 L69.6796,91.9712 Q69.6796,93.2056 70.5702,94.0337 Q71.4609,94.8462 73.0546,94.8462 Q73.9921,94.8462 74.6484,94.5962 Q75.039,94.44 75.4609,94.0025 Q75.7265,93.7369 75.8671,93.6587 Q76.0234,93.5806 76.2265,93.5806 Q76.5546,93.5806 76.8046,93.8462 Q77.0702,94.0962 77.0702,94.44 Q77.0702,94.7837 76.7265,95.19 Q76.2265,95.7681 75.4296,96.0962 Q74.3515,96.5494 73.0546,96.5494 Q71.539,96.5494 70.3359,95.9244 Q69.3515,95.4244 68.664,94.3619 Q67.9765,93.2837 67.9765,92.0025 L67.9765,90.8462 Q67.9765,89.5181 68.5859,88.3775 Q69.2109,87.2212 70.3046,86.6119 Q71.3984,85.9869 72.6327,85.9869 Q73.3671,85.9869 74.0077,86.1587 Q74.664,86.315 75.2109,86.6744 Z " fill="#000000"/><text fill="#000000" font-family="sans-serif" font-size="14" lengthAdjust="spacing" textLength="107.3652" x="92.9452" y="96.5279">Reviled for Christ</text><line style="stroke:#181818;stroke-width:0.5;" x1="20.33" x2="240.4257" y1="106.7994" y2="106.7994"/><text fill="#000000" font-family="sans-serif" font-size="14" lengthAdjust="spacing" textLength="210.0957" x="25.33" y="125.3326">Reward: Great Reward in Heaven</text><line style="stroke:#181818;stroke-width:0.5;" x1="20.33" x2="240.4257" y1="132.4087" y2="132.4087"/></g><!--class Kingdom of Heaven--><g class="entity" data-entity="Kingdom of Heaven" data-source-line="43" data-uid="ent0011" id="entity_Kingdom of Heaven"><rect fill="#F1F1F1" height="48" rx="2.5" ry="2.5" style="stroke:#181818;stroke-width:0.5;" width="154.9648" x="345.92" y="879.6094"/><ellipse cx="360.92" cy="895.6094" fill="#ADD1B2" rx="11" ry="11" style="stroke:#181818;stroke-width:1;"/><path d="M363.6856,891.4844 Q363.8419,891.2656 364.0294,891.1563 Q364.2169,891.0469 364.4356,891.0469 Q364.8106,891.0469 365.045,891.3125 Q365.2794,891.5625 365.2794,892.1719 L365.2794,893.625 Q365.2794,894.2344 365.045,894.5 Q364.8106,894.7656 364.4356,894.7656 Q364.0919,894.7656 363.8888,894.5625 Q363.6856,894.375 363.5763,893.8594 Q363.5294,893.5 363.3419,893.3125 Q363.0138,892.9375 362.4044,892.7188 Q361.795,892.5 361.17,892.5 Q360.4044,892.5 359.7638,892.8281 Q359.1388,893.1563 358.6388,893.9063 Q358.1544,894.6563 358.1544,895.6875 L358.1544,896.7813 Q358.1544,898.0156 359.045,898.8438 Q359.9356,899.6563 361.5294,899.6563 Q362.4669,899.6563 363.1231,899.4063 Q363.5138,899.25 363.9356,898.8125 Q364.2013,898.5469 364.3419,898.4688 Q364.4981,898.3906 364.7013,898.3906 Q365.0294,898.3906 365.2794,898.6563 Q365.545,898.9063 365.545,899.25 Q365.545,899.5938 365.2013,900 Q364.7013,900.5781 363.9044,900.9063 Q362.8263,901.3594 361.5294,901.3594 Q360.0138,901.3594 358.8106,900.7344 Q357.8263,900.2344 357.1388,899.1719 Q356.4513,898.0938 356.4513,896.8125 L356.4513,895.6563 Q356.4513,894.3281 357.0606,893.1875 Q357.6856,892.0313 358.7794,891.4219 Q359.8731,890.7969 361.1075,890.7969 Q361.8419,890.7969 362.4825,890.9688 Q363.1388,891.125 363.6856,891.4844 Z " fill="#000000"/><text fill="#000000" font-family="sans-serif" font-size="14" lengthAdjust="spacing" textLength="122.9648" x="374.92" y="901.3379">Kingdom of Heaven</text><line style="stroke:#181818;stroke-width:0.5;" x1="346.92" x2="499.8848" y1="911.6094" y2="911.6094"/><line style="stroke:#181818;stroke-width:0.5;" x1="346.92" x2="499.8848" y1="919.6094" y2="919.6094"/></g><!--class Comforted--><g class="entity" data-entity="Comforted" data-source-line="44" data-uid="ent0013" id="entity_Comforted"><rect fill="#F1F1F1" height="48" rx="2.5" ry="2.5" style="stroke:#181818;stroke-width:0.5;" width="97.3584" x="374.72" y="728.6094"/><ellipse cx="389.72" cy="744.6094" fill="#ADD1B2" rx="11" ry="11" style="stroke:#181818;stroke-width:1;"/><path d="M392.4856,740.4844 Q392.6419,740.2656 392.8294,740.1563 Q393.0169,740.0469 393.2356,740.0469 Q393.6106,740.0469 393.845,740.3125 Q394.0794,740.5625 394.0794,741.1719 L394.0794,742.625 Q394.0794,743.2344 393.845,743.5 Q393.6106,743.7656 393.2356,743.7656 Q392.8919,743.7656 392.6888,743.5625 Q392.4856,743.375 392.3763,742.8594 Q392.3294,742.5 392.1419,742.3125 Q391.8138,741.9375 391.2044,741.7188 Q390.595,741.5 389.97,741.5 Q389.2044,741.5 388.5638,741.8281 Q387.9388,742.1563 387.4388,742.9063 Q386.9544,743.6563 386.9544,744.6875 L386.9544,745.7813 Q386.9544,747.0156 387.845,747.8438 Q388.7356,748.6563 390.3294,748.6563 Q391.2669,748.6563 391.9231,748.4063 Q392.3138,748.25 392.7356,747.8125 Q393.0013,747.5469 393.1419,747.4688 Q393.2981,747.3906 393.5013,747.3906 Q393.8294,747.3906 394.0794,747.6563 Q394.345,747.9063 394.345,748.25 Q394.345,748.5938 394.0013,749 Q393.5013,749.5781 392.7044,749.9063 Q391.6263,750.3594 390.3294,750.3594 Q388.8138,750.3594 387.6106,749.7344 Q386.6263,749.2344 385.9388,748.1719 Q385.2513,747.0938 385.2513,745.8125 L385.2513,744.6563 Q385.2513,743.3281 385.8606,742.1875 Q386.4856,741.0313 387.5794,740.4219 Q388.6731,739.7969 389.9075,739.7969 Q390.6419,739.7969 391.2825,739.9688 Q391.9388,740.125 392.4856,740.4844 Z " fill="#000000"/><text fill="#000000" font-family="sans-serif" font-size="14" lengthAdjust="spacing" textLength="65.3584" x="403.72" y="750.3379">Comforted</text><line style="stroke:#181818;stroke-width:0.5;" x1="375.72" x2="471.0784" y1="760.6094" y2="760.6094"/><line style="stroke:#181818;stroke-width:0.5;" x1="375.72" x2="471.0784" y1="768.6094" y2="768.6094"/></g><!--class Inherit the Earth--><g class="entity" data-entity="Inherit the Earth" data-source-line="45" data-uid="ent0015" id="entity_Inherit the Earth"><rect fill="#F1F1F1" height="48" rx="2.5" ry="2.5" style="stroke:#181818;stroke-width:0.5;" width="131.6133" x="357.59" y="627.6094"/><ellipse cx="372.59" cy="643.6094" fill="#ADD1B2" rx="11" ry="11" style="stroke:#181818;stroke-width:1;"/><path d="M375.3556,639.4844 Q375.5119,639.2656 375.6994,639.1563 Q375.8869,639.0469 376.1056,639.0469 Q376.4806,639.0469 376.715,639.3125 Q376.9494,639.5625 376.9494,640.1719 L376.9494,641.625 Q376.9494,642.2344 376.715,642.5 Q376.4806,642.7656 376.1056,642.7656 Q375.7619,642.7656 375.5588,642.5625 Q375.3556,642.375 375.2463,641.8594 Q375.1994,641.5 375.0119,641.3125 Q374.6838,640.9375 374.0744,640.7188 Q373.465,640.5 372.84,640.5 Q372.0744,640.5 371.4338,640.8281 Q370.8088,641.1563 370.3088,641.9063 Q369.8244,642.6563 369.8244,643.6875 L369.8244,644.7813 Q369.8244,646.0156 370.715,646.8438 Q371.6056,647.6563 373.1994,647.6563 Q374.1369,647.6563 374.7931,647.4063 Q375.1838,647.25 375.6056,646.8125 Q375.8713,646.5469 376.0119,646.4688 Q376.1681,646.3906 376.3713,646.3906 Q376.6994,646.3906 376.9494,646.6563 Q377.215,646.9063 377.215,647.25 Q377.215,647.5938 376.8713,648 Q376.3713,648.5781 375.5744,648.9063 Q374.4963,649.3594 373.1994,649.3594 Q371.6838,649.3594 370.4806,648.7344 Q369.4963,648.2344 368.8088,647.1719 Q368.1213,646.0938 368.1213,644.8125 L368.1213,643.6563 Q368.1213,642.3281 368.7306,641.1875 Q369.3556,640.0313 370.4494,639.4219 Q371.5431,638.7969 372.7775,638.7969 Q373.5119,638.7969 374.1525,638.9688 Q374.8088,639.125 375.3556,639.4844 Z " fill="#000000"/><text fill="#000000" font-family="sans-serif" font-size="14" lengthAdjust="spacing" textLength="99.6133" x="386.59" y="649.3379">Inherit the Earth</text><line style="stroke:#181818;stroke-width:0.5;" x1="358.59" x2="488.2033" y1="659.6094" y2="659.6094"/><line style="stroke:#181818;stroke-width:0.5;" x1="358.59" x2="488.2033" y1="667.6094" y2="667.6094"/></g><!--class Satisfied--><g class="entity" data-entity="Satisfied" data-source-line="46" data-uid="ent0017" id="entity_Satisfied"><rect fill="#F1F1F1" height="48" rx="2.5" ry="2.5" style="stroke:#181818;stroke-width:0.5;" width="85.6963" x="380.55" y="526.6094"/><ellipse cx="395.55" cy="542.6094" fill="#ADD1B2" rx="11" ry="11" style="stroke:#181818;stroke-width:1;"/><path d="M398.3156,538.4844 Q398.4719,538.2656 398.6594,538.1563 Q398.8469,538.0469 399.0656,538.0469 Q399.4406,538.0469 399.675,538.3125 Q399.9094,538.5625 399.9094,539.1719 L399.9094,540.625 Q399.9094,541.2344 399.675,541.5 Q399.4406,541.7656 399.0656,541.7656 Q398.7219,541.7656 398.5188,541.5625 Q398.3156,541.375 398.2063,540.8594 Q398.1594,540.5 397.9719,540.3125 Q397.6438,539.9375 397.0344,539.7188 Q396.425,539.5 395.8,539.5 Q395.0344,539.5 394.3938,539.8281 Q393.7688,540.1563 393.2688,540.9063 Q392.7844,541.6563 392.7844,542.6875 L392.7844,543.7813 Q392.7844,545.0156 393.675,545.8438 Q394.5656,546.6563 396.1594,546.6563 Q397.0969,546.6563 397.7531,546.4063 Q398.1438,546.25 398.5656,545.8125 Q398.8313,545.5469 398.9719,545.4688 Q399.1281,545.3906 399.3313,545.3906 Q399.6594,545.3906 399.9094,545.6563 Q400.175,545.9063 400.175,546.25 Q400.175,546.5938 399.8313,547 Q399.3313,547.5781 398.5344,547.9063 Q397.4563,548.3594 396.1594,548.3594 Q394.6438,548.3594 393.4406,547.7344 Q392.4563,547.2344 391.7688,546.1719 Q391.0813,545.0938 391.0813,543.8125 L391.0813,542.6563 Q391.0813,541.3281 391.6906,540.1875 Q392.3156,539.0313 393.4094,538.4219 Q394.5031,537.7969 395.7375,537.7969 Q396.4719,537.7969 397.1125,537.9688 Q397.7688,538.125 398.3156,538.4844 Z " fill="#000000"/><text fill="#000000" font-family="sans-serif" font-size="14" lengthAdjust="spacing" textLength="53.6963" x="409.55" y="548.3379">Satisfied</text><line style="stroke:#181818;stroke-width:0.5;" x1="381.55" x2="465.2463" y1="558.6094" y2="558.6094"/><line style="stroke:#181818;stroke-width:0.5;" x1="381.55" x2="465.2463" y1="566.6094" y2="566.6094"/></g><!--class Obtain Mercy--><g class="entity" data-entity="Obtain Mercy" data-source-line="47" data-uid="ent0019" id="entity_Obtain Mercy"><rect fill="#F1F1F1" height="48" rx="2.5" ry="2.5" style="stroke:#181818;stroke-width:0.5;" width="115.248" x="365.78" y="425.6094"/><ellipse cx="380.78" cy="441.6094" fill="#ADD1B2" rx="11" ry="11" style="stroke:#181818;stroke-width:1;"/><path d="M383.5456,437.4844 Q383.7019,437.2656 383.8894,437.1563 Q384.0769,437.0469 384.2956,437.0469 Q384.6706,437.0469 384.905,437.3125 Q385.1394,437.5625 385.1394,438.1719 L385.1394,439.625 Q385.1394,440.2344 384.905,440.5 Q384.6706,440.7656 384.2956,440.7656 Q383.9519,440.7656 383.7488,440.5625 Q383.5456,440.375 383.4363,439.8594 Q383.3894,439.5 383.2019,439.3125 Q382.8738,438.9375 382.2644,438.7188 Q381.655,438.5 381.03,438.5 Q380.2644,438.5 379.6238,438.8281 Q378.9988,439.1563 378.4988,439.9063 Q378.0144,440.6563 378.0144,441.6875 L378.0144,442.7813 Q378.0144,444.0156 378.905,444.8438 Q379.7956,445.6563 381.3894,445.6563 Q382.3269,445.6563 382.9831,445.4063 Q383.3738,445.25 383.7956,444.8125 Q384.0613,444.5469 384.2019,444.4688 Q384.3581,444.3906 384.5613,444.3906 Q384.8894,444.3906 385.1394,444.6563 Q385.405,444.9063 385.405,445.25 Q385.405,445.5938 385.0613,446 Q384.5613,446.5781 383.7644,446.9063 Q382.6863,447.3594 381.3894,447.3594 Q379.8738,447.3594 378.6706,446.7344 Q377.6863,446.2344 376.9988,445.1719 Q376.3113,444.0938 376.3113,442.8125 L376.3113,441.6563 Q376.3113,440.3281 376.9206,439.1875 Q377.5456,438.0313 378.6394,437.4219 Q379.7331,436.7969 380.9675,436.7969 Q381.7019,436.7969 382.3425,436.9688 Q382.9988,437.125 383.5456,437.4844 Z " fill="#000000"/><text fill="#000000" font-family="sans-serif" font-size="14" lengthAdjust="spacing" textLength="83.248" x="394.78" y="447.3379">Obtain Mercy</text><line style="stroke:#181818;stroke-width:0.5;" x1="366.78" x2="480.028" y1="457.6094" y2="457.6094"/><line style="stroke:#181818;stroke-width:0.5;" x1="366.78" x2="480.028" y1="465.6094" y2="465.6094"/></g><!--class See God--><g class="entity" data-entity="See God" data-source-line="48" data-uid="ent0021" id="entity_See God"><rect fill="#F1F1F1" height="48" rx="2.5" ry="2.5" style="stroke:#181818;stroke-width:0.5;" width="87.2617" x="379.77" y="324.6094"/><ellipse cx="394.77" cy="340.6094" fill="#ADD1B2" rx="11" ry="11" style="stroke:#181818;stroke-width:1;"/><path d="M397.5356,336.4844 Q397.6919,336.2656 397.8794,336.1563 Q398.0669,336.0469 398.2856,336.0469 Q398.6606,336.0469 398.895,336.3125 Q399.1294,336.5625 399.1294,337.1719 L399.1294,338.625 Q399.1294,339.2344 398.895,339.5 Q398.6606,339.7656 398.2856,339.7656 Q397.9419,339.7656 397.7388,339.5625 Q397.5356,339.375 397.4263,338.8594 Q397.3794,338.5 397.1919,338.3125 Q396.8638,337.9375 396.2544,337.7188 Q395.645,337.5 395.02,337.5 Q394.2544,337.5 393.6138,337.8281 Q392.9888,338.1563 392.4888,338.9063 Q392.0044,339.6563 392.0044,340.6875 L392.0044,341.7813 Q392.0044,343.0156 392.895,343.8438 Q393.7856,344.6563 395.3794,344.6563 Q396.3169,344.6563 396.9731,344.4063 Q397.3638,344.25 397.7856,343.8125 Q398.0513,343.5469 398.1919,343.4688 Q398.3481,343.3906 398.5513,343.3906 Q398.8794,343.3906 399.1294,343.6563 Q399.395,343.9063 399.395,344.25 Q399.395,344.5938 399.0513,345 Q398.5513,345.5781 397.7544,345.9063 Q396.6763,346.3594 395.3794,346.3594 Q393.8638,346.3594 392.6606,345.7344 Q391.6763,345.2344 390.9888,344.1719 Q390.3013,343.0938 390.3013,341.8125 L390.3013,340.6563 Q390.3013,339.3281 390.9106,338.1875 Q391.5356,337.0313 392.6294,336.4219 Q393.7231,335.7969 394.9575,335.7969 Q395.6919,335.7969 396.3325,335.9688 Q396.9888,336.125 397.5356,336.4844 Z " fill="#000000"/><text fill="#000000" font-family="sans-serif" font-size="14" lengthAdjust="spacing" textLength="55.2617" x="408.77" y="346.3379">See God</text><line style="stroke:#181818;stroke-width:0.5;" x1="380.77" x2="466.0317" y1="356.6094" y2="356.6094"/><line style="stroke:#181818;stroke-width:0.5;" x1="380.77" x2="466.0317" y1="364.6094" y2="364.6094"/></g><!--class Called Sons of God--><g class="entity" data-entity="Called Sons of God" data-source-line="49" data-uid="ent0023" id="entity_Called Sons of God"><rect fill="#F1F1F1" height="48" rx="2.5" ry="2.5" style="stroke:#181818;stroke-width:0.5;" width="153.4063" x="346.7" y="223.6094"/><ellipse cx="361.7" cy="239.6094" fill="#ADD1B2" rx="11" ry="11" style="stroke:#181818;stroke-width:1;"/><path d="M364.4656,235.4844 Q364.6219,235.2656 364.8094,235.1563 Q364.9969,235.0469 365.2156,235.0469 Q365.5906,235.0469 365.825,235.3125 Q366.0594,235.5625 366.0594,236.1719 L366.0594,237.625 Q366.0594,238.2344 365.825,238.5 Q365.5906,238.7656 365.2156,238.7656 Q364.8719,238.7656 364.6688,238.5625 Q364.4656,238.375 364.3563,237.8594 Q364.3094,237.5 364.1219,237.3125 Q363.7938,236.9375 363.1844,236.7188 Q362.575,236.5 361.95,236.5 Q361.1844,236.5 360.5438,236.8281 Q359.9188,237.1563 359.4188,237.9063 Q358.9344,238.6563 358.9344,239.6875 L358.9344,240.7813 Q358.9344,242.0156 359.825,242.8438 Q360.7156,243.6563 362.3094,243.6563 Q363.2469,243.6563 363.9031,243.4063 Q364.2938,243.25 364.7156,242.8125 Q364.9813,242.5469 365.1219,242.4688 Q365.2781,242.3906 365.4813,242.3906 Q365.8094,242.3906 366.0594,242.6563 Q366.325,242.9063 366.325,243.25 Q366.325,243.5938 365.9813,244 Q365.4813,244.5781 364.6844,244.9063 Q363.6063,245.3594 362.3094,245.3594 Q360.7938,245.3594 359.5906,244.7344 Q358.6063,244.2344 357.9188,243.1719 Q357.2313,242.0938 357.2313,240.8125 L357.2313,239.6563 Q357.2313,238.3281 357.8406,237.1875 Q358.4656,236.0313 359.5594,235.4219 Q360.6531,234.7969 361.8875,234.7969 Q362.6219,234.7969 363.2625,234.9688 Q363.9188,235.125 364.4656,235.4844 Z " fill="#000000"/><text fill="#000000" font-family="sans-serif" font-size="14" lengthAdjust="spacing" textLength="121.4063" x="375.7" y="245.3379">Called Sons of God</text><line style="stroke:#181818;stroke-width:0.5;" x1="347.7" x2="499.1063" y1="255.6094" y2="255.6094"/><line style="stroke:#181818;stroke-width:0.5;" x1="347.7" x2="499.1063" y1="263.6094" y2="263.6094"/></g><!--class Great Reward in Heaven--><g class="entity" data-entity="Great Reward in Heaven" data-source-line="51" data-uid="ent0026" id="entity_Great Reward in Heaven"><rect fill="#F1F1F1" height="48" rx="2.5" ry="2.5" style="stroke:#181818;stroke-width:0.5;" width="186.0752" x="330.36" y="45.6094"/><ellipse cx="345.36" cy="61.6094" fill="#ADD1B2" rx="11" ry="11" style="stroke:#181818;stroke-width:1;"/><path d="M348.1256,57.4844 Q348.2819,57.2656 348.4694,57.1563 Q348.6569,57.0469 348.8756,57.0469 Q349.2506,57.0469 349.485,57.3125 Q349.7194,57.5625 349.7194,58.1719 L349.7194,59.625 Q349.7194,60.2344 349.485,60.5 Q349.2506,60.7656 348.8756,60.7656 Q348.5319,60.7656 348.3288,60.5625 Q348.1256,60.375 348.0163,59.8594 Q347.9694,59.5 347.7819,59.3125 Q347.4538,58.9375 346.8444,58.7188 Q346.235,58.5 345.61,58.5 Q344.8444,58.5 344.2038,58.8281 Q343.5788,59.1563 343.0788,59.9063 Q342.5944,60.6563 342.5944,61.6875 L342.5944,62.7813 Q342.5944,64.0156 343.485,64.8438 Q344.3756,65.6563 345.9694,65.6563 Q346.9069,65.6563 347.5631,65.4063 Q347.9538,65.25 348.3756,64.8125 Q348.6413,64.5469 348.7819,64.4688 Q348.9381,64.3906 349.1413,64.3906 Q349.4694,64.3906 349.7194,64.6563 Q349.985,64.9063 349.985,65.25 Q349.985,65.5938 349.6413,66 Q349.1413,66.5781 348.3444,66.9063 Q347.2663,67.3594 345.9694,67.3594 Q344.4538,67.3594 343.2506,66.7344 Q342.2663,66.2344 341.5788,65.1719 Q340.8913,64.0938 340.8913,62.8125 L340.8913,61.6563 Q340.8913,60.3281 341.5006,59.1875 Q342.1256,58.0313 343.2194,57.4219 Q344.3131,56.7969 345.5475,56.7969 Q346.2819,56.7969 346.9225,56.9688 Q347.5788,57.125 348.1256,57.4844 Z " fill="#000000"/><text fill="#000000" font-family="sans-serif" font-size="14" lengthAdjust="spacing" textLength="154.0752" x="359.36" y="67.3379">Great Reward in Heaven</text><line style="stroke:#181818;stroke-width:0.5;" x1="331.36" x2="515.4352" y1="77.6094" y2="77.6094"/><line style="stroke:#181818;stroke-width:0.5;" x1="331.36" x2="515.4352" y1="85.6094" y2="85.6094"/></g><g class="entity" data-entity="GMN28" data-source-line="54" data-uid="ent0029" id="entity_GMN28"><path d="M313.76,129.0794 L313.76,135.5194 L241.82,126.9594 L313.76,143.5194 L313.76,188.1341 A0,0 0 0 0 313.76,188.1341 L533.029,188.1341 A0,0 0 0 0 533.029,188.1341 L533.029,139.0794 L523.029,129.0794 L313.76,129.0794 A0,0 0 0 0 313.76,129.0794" fill="#FEFFDD" style="stroke:#181818;stroke-width:0.5;"/><path d="M523.029,129.0794 L523.029,139.0794 L533.029,139.0794 L523.029,129.0794" fill="#FEFFDD" style="stroke:#181818;stroke-width:0.5;"/><text fill="#000000" font-family="sans-serif" font-size="13" lengthAdjust="spacing" textLength="78.0444" x="319.76" y="147.5745">Matthew 5:12</text><text fill="#000000" font-family="sans-serif" font-size="13" lengthAdjust="spacing" textLength="123.1445" x="319.76" y="163.9261">"Rejoice and be glad,</text><text fill="#000000" font-family="sans-serif" font-size="13" lengthAdjust="spacing" textLength="198.269" x="319.76" y="180.2776">for your reward is great in heaven"</text></g><!--link B1 to Kingdom of Heaven--><g class="link" data-entity-1="B1" data-entity-2="Kingdom of Heaven" data-source-line="43" data-uid="lnk12" id="link_B1_Kingdom of Heaven"><path codeLine="43" d="M226.27,869.9094 C264.92,876.5494 303.0968,883.1023 339.6668,889.3923" fill="none" id="B1-to-Kingdom of Heaven" style="stroke:#181818;stroke-width:1;"/><polygon fill="#181818" points="345.58,890.4094,337.3883,884.9417,340.6524,889.5618,336.0322,892.8259,345.58,890.4094" style="stroke:#181818;stroke-width:1;"/></g><!--link B2 to Comforted--><g class="link" data-entity-1="B2" data-entity-2="Comforted" data-source-line="44" data-uid="lnk14" id="link_B2_Comforted"><path codeLine="44" d="M202.57,752.6094 C255.92,752.6094 321.47,752.6094 368.24,752.6094" fill="none" id="B2-to-Comforted" style="stroke:#181818;stroke-width:1;"/><polygon fill="#181818" points="374.24,752.6094,365.24,748.6094,369.24,752.6094,365.24,756.6094,374.24,752.6094" style="stroke:#181818;stroke-width:1;"/></g><!--link B3 to Inherit the Earth--><g class="link" data-entity-1="B3" data-entity-2="Inherit the Earth" data-source-line="45" data-uid="lnk16" id="link_B3_Inherit the Earth"><path codeLine="45" d="M214.39,651.6094 C259.75,651.6094 309.11,651.6094 351.32,651.6094" fill="none" id="B3-to-Inherit the Earth" style="stroke:#181818;stroke-width:1;"/><polygon fill="#181818" points="357.32,651.6094,348.32,647.6094,352.32,651.6094,348.32,655.6094,357.32,651.6094" style="stroke:#181818;stroke-width:1;"/></g><!--link B4 to Satisfied--><g class="link" data-entity-1="B4" data-entity-2="Satisfied" data-source-line="46" data-uid="lnk18" id="link_B4_Satisfied"><path codeLine="46" d="M253.96,550.6094 C299,550.6094 341.06,550.6094 374.27,550.6094" fill="none" id="B4-to-Satisfied" style="stroke:#181818;stroke-width:1;"/><polygon fill="#181818" points="380.27,550.6094,371.27,546.6094,375.27,550.6094,371.27,554.6094,380.27,550.6094" style="stroke:#181818;stroke-width:1;"/></g><!--link B5 to Obtain Mercy--><g class="link" data-entity-1="B5" data-entity-2="Obtain Mercy" data-source-line="47" data-uid="lnk20" id="link_B5_Obtain Mercy"><path codeLine="47" d="M206.33,449.6094 C256.01,449.6094 314.17,449.6094 359.63,449.6094" fill="none" id="B5-to-Obtain Mercy" style="stroke:#181818;stroke-width:1;"/><polygon fill="#181818" points="365.63,449.6094,356.63,445.6094,360.63,449.6094,356.63,453.6094,365.63,449.6094" style="stroke:#181818;stroke-width:1;"/></g><!--link B6 to See God--><g class="link" data-entity-1="B6" data-entity-2="See God" data-source-line="48" data-uid="lnk22" id="link_B6_See God"><path codeLine="48" d="M192.39,348.6094 C248.39,348.6094 323.95,348.6094 373.4,348.6094" fill="none" id="B6-to-See God" style="stroke:#181818;stroke-width:1;"/><polygon fill="#181818" points="379.4,348.6094,370.4,344.6094,374.4,348.6094,370.4,352.6094,379.4,348.6094" style="stroke:#181818;stroke-width:1;"/></g><!--link B7 to Called Sons of God--><g class="link" data-entity-1="B7" data-entity-2="Called Sons of God" data-source-line="49" data-uid="lnk24" id="link_B7_Called Sons of God"><path codeLine="49" d="M225.47,247.6094 C264.66,247.6094 303.56,247.6094 340.58,247.6094" fill="none" id="B7-to-Called Sons of God" style="stroke:#181818;stroke-width:1;"/><polygon fill="#181818" points="346.58,247.6094,337.58,243.6094,341.58,247.6094,337.58,251.6094,346.58,247.6094" style="stroke:#181818;stroke-width:1;"/></g><!--link B8 to Kingdom of Heaven--><g class="link" data-entity-1="B8" data-entity-2="Kingdom of Heaven" data-source-line="50" data-uid="lnk25" id="link_B8_Kingdom of Heaven"><path codeLine="50" d="M240.57,935.4694 C275.57,929.3394 307.6602,923.7158 339.8202,918.0758" fill="none" id="B8-to-Kingdom of Heaven" style="stroke:#181818;stroke-width:1;"/><polygon fill="#181818" points="345.73,917.0394,336.1743,914.6541,340.8052,917.9031,337.5562,922.5339,345.73,917.0394" style="stroke:#181818;stroke-width:1;"/></g><!--link B9 to Great Reward in Heaven--><g class="link" data-entity-1="B9" data-entity-2="Great Reward in Heaven" data-source-line="51" data-uid="lnk27" id="link_B9_Great Reward in Heaven"><path codeLine="51" d="M241.82,93.1794 C270.92,89.3794 296.0705,86.096 324.1105,82.436" fill="none" id="B9-to-Great Reward in Heaven" style="stroke:#181818;stroke-width:1;"/><polygon fill="#181818" points="330.06,81.6594,320.618,78.8579,325.1021,82.3065,321.6534,86.7906,330.06,81.6594" style="stroke:#181818;stroke-width:1;"/></g><!--SRC=[ZLFBRjim4BppAwOwz0741zjn4kUGWuCYAGgZXfqVeAMLo4OcWoKL8oZwxrs5X6lL2T0RERipkpjBVleG3Uq8sxQZ9xOkAjLI7H4zs3Oceh9CPRJUAHLjR0aBqdBeAWhulDHHw7lChgUZyUIBKcMhGq2nyfvX7JPFbcqie0CMO_nIm9hscgjhVBUkgVmEliOzwMTowlU1_M1y8EoDnz9tx19zCg3V-btjEL8re16MH8yfVph8_-OCIIUGRl5LSpH7lFlEDSJuY0TZEKI8CDRzxEIxu2Y497W-4Do82Q6sRpJ0fQsxDd5c0ywFRTHYIf_oSaHRTKozMU83PwykXhM8SEUFAwr8bxJJZyIvkSkXExfjgSB6kz0R_2-N0vMTUFVUf5V_lQarFTis2zqQjY7tFnyetB4ycNpBWsOPUHIZqGsAang5aeM_XWwR5cYQe9DbIkWyXGvh4MYMe6FN1Rt8YSbJ0IvpdHFF97RrVdlp57fxja8fvoFbBoIqnLpy-FjRnXEvYdi_lIq9sbNO4ffMLsU2zsQ-oCC7PzM0vhMAo9iiJqBfAwW_]--></g></svg>