<svg xmlns="http://www.w3.org/2000/svg" xmlns:xlink="http://www.w3.org/1999/xlink" contentStyleType="text/css" data-diagram-type="CLASS" height="528px" preserveAspectRatio="none" style="width:936px;height:528px;background:#FFFFFF;" version="1.1" viewBox="0 0 936 528" width="936px" zoomAndPan="magnify"><title>Individuals in Matthew Chapter 2 (RSV-CE)</title><defs/><g><g class="title" data-source-line="1"><text fill="#000000" font-family="sans-serif" font-size="14" font-weight="bold" lengthAdjust="spacing" textLength="283.917" x="319.0417" y="24.5332">Individuals in Matthew Chapter 2 (RSV-CE)</text></g><!--class Jesus--><g class="entity" data-entity="Jesus" data-source-line="4" data-uid="ent0002" id="entity_Jesus"><rect fill="#F1F1F1" height="100.8281" rx="2.5" ry="2.5" style="stroke:#181818;stroke-width:0.5;" width="144.6855" x="80.74" y="420.8694"/><ellipse cx="130.5466" cy="436.8694" fill="#ADD1B2" rx="11" ry="11" style="stroke:#181818;stroke-width:1;"/><path d="M133.3123,432.7444 Q133.4685,432.5256 133.656,432.4163 Q133.8435,432.3069 134.0623,432.3069 Q134.4373,432.3069 134.6716,432.5725 Q134.906,432.8225 134.906,433.4319 L134.906,434.885 Q134.906,435.4944 134.6716,435.76 Q134.4373,436.0256 134.0623,436.0256 Q133.7185,436.0256 133.5154,435.8225 Q133.3123,435.635 133.2029,435.1194 Q133.156,434.76 132.9685,434.5725 Q132.6404,434.1975 132.031,433.9788 Q131.4216,433.76 130.7966,433.76 Q130.031,433.76 129.3904,434.0881 Q128.7654,434.4163 128.2654,435.1663 Q127.781,435.9163 127.781,436.9475 L127.781,438.0413 Q127.781,439.2756 128.6716,440.1038 Q129.5623,440.9163 131.156,440.9163 Q132.0935,440.9163 132.7498,440.6663 Q133.1404,440.51 133.5623,440.0725 Q133.8279,439.8069 133.9685,439.7288 Q134.1248,439.6506 134.3279,439.6506 Q134.656,439.6506 134.906,439.9163 Q135.1716,440.1663 135.1716,440.51 Q135.1716,440.8538 134.8279,441.26 Q134.3279,441.8381 133.531,442.1663 Q132.4529,442.6194 131.156,442.6194 Q129.6404,442.6194 128.4373,441.9944 Q127.4529,441.4944 126.7654,440.4319 Q126.0779,439.3538 126.0779,438.0725 L126.0779,436.9163 Q126.0779,435.5881 126.6873,434.4475 Q127.3123,433.2913 128.406,432.6819 Q129.4998,432.0569 130.7341,432.0569 Q131.4685,432.0569 132.1091,432.2288 Q132.7654,432.385 133.3123,432.7444 Z " fill="#000000"/><text fill="#000000" font-family="sans-serif" font-size="14" lengthAdjust="spacing" textLength="36.5723" x="151.0466" y="442.5979">Jesus</text><line style="stroke:#181818;stroke-width:0.5;" x1="81.74" x2="224.4255" y1="452.8694" y2="452.8694"/><text fill="#000000" font-family="sans-serif" font-size="14" lengthAdjust="spacing" textLength="132.6855" x="86.74" y="471.4026">Age: newborn ~ 2 yrs</text><text fill="#000000" font-family="sans-serif" font-size="14" lengthAdjust="spacing" textLength="88.7031" x="86.74" y="489.012">Role: Messiah</text><text fill="#000000" font-family="sans-serif" font-size="14" lengthAdjust="spacing" textLength="104.2822" x="86.74" y="506.6213">Born: Bethlehem</text><line style="stroke:#181818;stroke-width:0.5;" x1="81.74" x2="224.4255" y1="513.6975" y2="513.6975"/></g><!--class Mary--><g class="entity" data-entity="Mary" data-source-line="10" data-uid="ent0003" id="entity_Mary"><rect fill="#F1F1F1" height="100.8281" rx="2.5" ry="2.5" style="stroke:#181818;stroke-width:0.5;" width="148.1719" x="7" y="54.4094"/><ellipse cx="61.2808" cy="70.4094" fill="#ADD1B2" rx="11" ry="11" style="stroke:#181818;stroke-width:1;"/><path d="M64.0464,66.2844 Q64.2026,66.0656 64.3901,65.9562 Q64.5776,65.8469 64.7964,65.8469 Q65.1714,65.8469 65.4058,66.1125 Q65.6401,66.3625 65.6401,66.9719 L65.6401,68.425 Q65.6401,69.0344 65.4058,69.3 Q65.1714,69.5656 64.7964,69.5656 Q64.4526,69.5656 64.2495,69.3625 Q64.0464,69.175 63.937,68.6594 Q63.8901,68.3 63.7026,68.1125 Q63.3745,67.7375 62.7651,67.5187 Q62.1558,67.3 61.5308,67.3 Q60.7651,67.3 60.1245,67.6281 Q59.4995,67.9562 58.9995,68.7062 Q58.5151,69.4562 58.5151,70.4875 L58.5151,71.5812 Q58.5151,72.8156 59.4058,73.6437 Q60.2964,74.4562 61.8901,74.4562 Q62.8276,74.4562 63.4839,74.2062 Q63.8745,74.05 64.2964,73.6125 Q64.562,73.3469 64.7026,73.2687 Q64.8589,73.1906 65.062,73.1906 Q65.3901,73.1906 65.6401,73.4562 Q65.9058,73.7062 65.9058,74.05 Q65.9058,74.3937 65.562,74.8 Q65.062,75.3781 64.2651,75.7062 Q63.187,76.1594 61.8901,76.1594 Q60.3745,76.1594 59.1714,75.5344 Q58.187,75.0344 57.4995,73.9719 Q56.812,72.8937 56.812,71.6125 L56.812,70.4562 Q56.812,69.1281 57.4214,67.9875 Q58.0464,66.8312 59.1401,66.2219 Q60.2339,65.5969 61.4683,65.5969 Q62.2026,65.5969 62.8433,65.7687 Q63.4995,65.925 64.0464,66.2844 Z " fill="#000000"/><text fill="#000000" font-family="sans-serif" font-size="14" lengthAdjust="spacing" textLength="31.1104" x="81.7808" y="76.1379">Mary</text><line style="stroke:#181818;stroke-width:0.5;" x1="8" x2="154.1719" y1="86.4094" y2="86.4094"/><text fill="#000000" font-family="sans-serif" font-size="14" lengthAdjust="spacing" textLength="99.2236" x="13" y="104.9426">Age: ~15-17 yrs</text><text fill="#000000" font-family="sans-serif" font-size="14" lengthAdjust="spacing" textLength="136.1719" x="13" y="122.552">Role: Mother of Jesus</text><text fill="#000000" font-family="sans-serif" font-size="14" lengthAdjust="spacing" textLength="97.248" x="13" y="140.1613">From: Nazareth</text><line style="stroke:#181818;stroke-width:0.5;" x1="8" x2="154.1719" y1="147.2375" y2="147.2375"/></g><!--class Joseph--><g class="entity" data-entity="Joseph" data-source-line="16" data-uid="ent0004" id="entity_Joseph"><rect fill="#F1F1F1" height="100.8281" rx="2.5" ry="2.5" style="stroke:#181818;stroke-width:0.5;" width="183.9648" x="61.1" y="242.0394"/><ellipse cx="126.2602" cy="258.0394" fill="#ADD1B2" rx="11" ry="11" style="stroke:#181818;stroke-width:1;"/><path d="M129.0258,253.9144 Q129.182,253.6956 129.3695,253.5862 Q129.557,253.4769 129.7758,253.4769 Q130.1508,253.4769 130.3852,253.7425 Q130.6195,253.9925 130.6195,254.6019 L130.6195,256.055 Q130.6195,256.6644 130.3852,256.93 Q130.1508,257.1956 129.7758,257.1956 Q129.432,257.1956 129.2289,256.9925 Q129.0258,256.805 128.9164,256.2894 Q128.8695,255.93 128.682,255.7425 Q128.3539,255.3675 127.7445,255.1487 Q127.1352,254.93 126.5102,254.93 Q125.7445,254.93 125.1039,255.2581 Q124.4789,255.5862 123.9789,256.3362 Q123.4945,257.0862 123.4945,258.1175 L123.4945,259.2112 Q123.4945,260.4456 124.3852,261.2737 Q125.2758,262.0862 126.8695,262.0862 Q127.807,262.0862 128.4633,261.8362 Q128.8539,261.68 129.2758,261.2425 Q129.5414,260.9769 129.682,260.8987 Q129.8383,260.8206 130.0414,260.8206 Q130.3695,260.8206 130.6195,261.0862 Q130.8852,261.3362 130.8852,261.68 Q130.8852,262.0237 130.5414,262.43 Q130.0414,263.0081 129.2445,263.3362 Q128.1664,263.7894 126.8695,263.7894 Q125.3539,263.7894 124.1508,263.1644 Q123.1664,262.6644 122.4789,261.6019 Q121.7914,260.5237 121.7914,259.2425 L121.7914,258.0862 Q121.7914,256.7581 122.4008,255.6175 Q123.0258,254.4612 124.1195,253.8519 Q125.2133,253.2269 126.4477,253.2269 Q127.182,253.2269 127.8227,253.3987 Q128.4789,253.555 129.0258,253.9144 Z " fill="#000000"/><text fill="#000000" font-family="sans-serif" font-size="14" lengthAdjust="spacing" textLength="45.1445" x="146.7602" y="263.7679">Joseph</text><line style="stroke:#181818;stroke-width:0.5;" x1="62.1" x2="244.0648" y1="274.0394" y2="274.0394"/><text fill="#000000" font-family="sans-serif" font-size="14" lengthAdjust="spacing" textLength="99.2236" x="67.1" y="292.5726">Age: ~30-40 yrs</text><text fill="#000000" font-family="sans-serif" font-size="14" lengthAdjust="spacing" textLength="171.9648" x="67.1" y="310.182">Role: Foster father of Jesus</text><text fill="#000000" font-family="sans-serif" font-size="14" lengthAdjust="spacing" textLength="140.8545" x="67.1" y="327.7913">Occupation: Carpenter</text><line style="stroke:#181818;stroke-width:0.5;" x1="62.1" x2="244.0648" y1="334.8675" y2="334.8675"/></g><g class="entity" data-entity="GMN8" data-source-line="27" data-uid="ent0009" id="entity_GMN8"><path d="M260.89,449.9294 L260.89,467.2894 L225.82,471.2894 L260.89,475.2894 L260.89,492.6325 A0,0 0 0 0 260.89,492.6325 L425.2772,492.6325 A0,0 0 0 0 425.2772,492.6325 L425.2772,459.9294 L415.2772,449.9294 L260.89,449.9294 A0,0 0 0 0 260.89,449.9294" fill="#FEFFDD" style="stroke:#181818;stroke-width:0.5;"/><path d="M415.2772,449.9294 L415.2772,459.9294 L425.2772,459.9294 L415.2772,449.9294" fill="#FEFFDD" style="stroke:#181818;stroke-width:0.5;"/><text fill="#000000" font-family="sans-serif" font-size="13" lengthAdjust="spacing" textLength="111.2681" x="266.89" y="468.4245">Worshiped by Magi</text><text fill="#000000" font-family="sans-serif" font-size="13" lengthAdjust="spacing" textLength="143.3872" x="266.89" y="484.7761">Target of Herod's decree</text></g><!--class Herod--><g class="entity" data-entity="Herod" data-source-line="32" data-uid="ent0011" id="entity_Herod"><rect fill="#F1F1F1" height="118.4375" rx="2.5" ry="2.5" style="stroke:#181818;stroke-width:0.5;" width="199.5371" x="553.32" y="45.6094"/><ellipse cx="598.6457" cy="61.6094" fill="#ADD1B2" rx="11" ry="11" style="stroke:#181818;stroke-width:1;"/><path d="M601.4113,57.4844 Q601.5676,57.2656 601.7551,57.1563 Q601.9426,57.0469 602.1613,57.0469 Q602.5363,57.0469 602.7707,57.3125 Q603.0051,57.5625 603.0051,58.1719 L603.0051,59.625 Q603.0051,60.2344 602.7707,60.5 Q602.5363,60.7656 602.1613,60.7656 Q601.8176,60.7656 601.6144,60.5625 Q601.4113,60.375 601.3019,59.8594 Q601.2551,59.5 601.0676,59.3125 Q600.7394,58.9375 600.1301,58.7188 Q599.5207,58.5 598.8957,58.5 Q598.1301,58.5 597.4894,58.8281 Q596.8644,59.1563 596.3644,59.9063 Q595.8801,60.6563 595.8801,61.6875 L595.8801,62.7813 Q595.8801,64.0156 596.7707,64.8438 Q597.6613,65.6563 599.2551,65.6563 Q600.1926,65.6563 600.8488,65.4063 Q601.2394,65.25 601.6613,64.8125 Q601.9269,64.5469 602.0676,64.4688 Q602.2238,64.3906 602.4269,64.3906 Q602.7551,64.3906 603.0051,64.6563 Q603.2707,64.9063 603.2707,65.25 Q603.2707,65.5938 602.9269,66 Q602.4269,66.5781 601.6301,66.9063 Q600.5519,67.3594 599.2551,67.3594 Q597.7394,67.3594 596.5363,66.7344 Q595.5519,66.2344 594.8644,65.1719 Q594.1769,64.0938 594.1769,62.8125 L594.1769,61.6563 Q594.1769,60.3281 594.7863,59.1875 Q595.4113,58.0313 596.5051,57.4219 Q597.5988,56.7969 598.8332,56.7969 Q599.5676,56.7969 600.2082,56.9688 Q600.8644,57.125 601.4113,57.4844 Z " fill="#000000"/><text fill="#000000" font-family="sans-serif" font-size="14" lengthAdjust="spacing" textLength="100.3857" x="619.1457" y="67.3379">Herod the Great</text><line style="stroke:#181818;stroke-width:0.5;" x1="554.32" x2="751.8571" y1="77.6094" y2="77.6094"/><text fill="#000000" font-family="sans-serif" font-size="14" lengthAdjust="spacing" textLength="78.9893" x="559.32" y="96.1426">Age: ~70 yrs</text><text fill="#000000" font-family="sans-serif" font-size="14" lengthAdjust="spacing" textLength="122.1924" x="559.32" y="113.752">Role: King of Judea</text><text fill="#000000" font-family="sans-serif" font-size="14" lengthAdjust="spacing" textLength="95.7168" x="559.32" y="131.3613">Reign: 37-4 BC</text><text fill="#000000" font-family="sans-serif" font-size="14" lengthAdjust="spacing" textLength="187.5371" x="559.32" y="148.9707">Action: Massacre of Innocents</text><line style="stroke:#181818;stroke-width:0.5;" x1="554.32" x2="751.8571" y1="156.0469" y2="156.0469"/></g><!--class Archelaus--><g class="entity" data-entity="Archelaus" data-source-line="39" data-uid="ent0012" id="entity_Archelaus"><rect fill="#F1F1F1" height="100.8281" rx="2.5" ry="2.5" style="stroke:#181818;stroke-width:0.5;" width="162.2061" x="557.98" y="242.0394"/><ellipse cx="603.7056" cy="258.0394" fill="#ADD1B2" rx="11" ry="11" style="stroke:#181818;stroke-width:1;"/><path d="M606.4712,253.9144 Q606.6275,253.6956 606.815,253.5862 Q607.0025,253.4769 607.2212,253.4769 Q607.5962,253.4769 607.8306,253.7425 Q608.065,253.9925 608.065,254.6019 L608.065,256.055 Q608.065,256.6644 607.8306,256.93 Q607.5962,257.1956 607.2212,257.1956 Q606.8775,257.1956 606.6743,256.9925 Q606.4712,256.805 606.3618,256.2894 Q606.315,255.93 606.1275,255.7425 Q605.7993,255.3675 605.19,255.1487 Q604.5806,254.93 603.9556,254.93 Q603.19,254.93 602.5493,255.2581 Q601.9243,255.5862 601.4243,256.3362 Q600.94,257.0862 600.94,258.1175 L600.94,259.2112 Q600.94,260.4456 601.8306,261.2737 Q602.7212,262.0862 604.315,262.0862 Q605.2525,262.0862 605.9087,261.8362 Q606.2993,261.68 606.7212,261.2425 Q606.9868,260.9769 607.1275,260.8987 Q607.2837,260.8206 607.4868,260.8206 Q607.815,260.8206 608.065,261.0862 Q608.3306,261.3362 608.3306,261.68 Q608.3306,262.0237 607.9868,262.43 Q607.4868,263.0081 606.69,263.3362 Q605.6118,263.7894 604.315,263.7894 Q602.7993,263.7894 601.5962,263.1644 Q600.6118,262.6644 599.9243,261.6019 Q599.2368,260.5237 599.2368,259.2425 L599.2368,258.0862 Q599.2368,256.7581 599.8462,255.6175 Q600.4712,254.4612 601.565,253.8519 Q602.6587,253.2269 603.8931,253.2269 Q604.6275,253.2269 605.2681,253.3987 Q605.9243,253.555 606.4712,253.9144 Z " fill="#000000"/><text fill="#000000" font-family="sans-serif" font-size="14" lengthAdjust="spacing" textLength="62.2549" x="624.2056" y="263.7679">Archelaus</text><line style="stroke:#181818;stroke-width:0.5;" x1="558.98" x2="719.1861" y1="274.0394" y2="274.0394"/><text fill="#000000" font-family="sans-serif" font-size="14" lengthAdjust="spacing" textLength="99.2236" x="563.98" y="292.5726">Age: ~18-20 yrs</text><text fill="#000000" font-family="sans-serif" font-size="14" lengthAdjust="spacing" textLength="150.2061" x="563.98" y="310.182">Role: Ethnarch of Judea</text><text fill="#000000" font-family="sans-serif" font-size="14" lengthAdjust="spacing" textLength="125.2686" x="563.98" y="327.7913">Notorious for cruelty</text><line style="stroke:#181818;stroke-width:0.5;" x1="558.98" x2="719.1861" y1="334.8675" y2="334.8675"/></g><!--class Magi--><g class="entity" data-entity="Magi" data-source-line="48" data-uid="ent0014" id="entity_Magi"><rect fill="#F1F1F1" height="100.8281" rx="2.5" ry="2.5" style="stroke:#181818;stroke-width:0.5;" width="213.5029" x="280.33" y="242.0394"/><ellipse cx="367.6591" cy="258.0394" fill="#ADD1B2" rx="11" ry="11" style="stroke:#181818;stroke-width:1;"/><path d="M370.4247,253.9144 Q370.581,253.6956 370.7685,253.5862 Q370.956,253.4769 371.1747,253.4769 Q371.5497,253.4769 371.7841,253.7425 Q372.0185,253.9925 372.0185,254.6019 L372.0185,256.055 Q372.0185,256.6644 371.7841,256.93 Q371.5497,257.1956 371.1747,257.1956 Q370.831,257.1956 370.6279,256.9925 Q370.4247,256.805 370.3154,256.2894 Q370.2685,255.93 370.081,255.7425 Q369.7529,255.3675 369.1435,255.1487 Q368.5341,254.93 367.9091,254.93 Q367.1435,254.93 366.5029,255.2581 Q365.8779,255.5862 365.3779,256.3362 Q364.8935,257.0862 364.8935,258.1175 L364.8935,259.2112 Q364.8935,260.4456 365.7841,261.2737 Q366.6747,262.0862 368.2685,262.0862 Q369.206,262.0862 369.8622,261.8362 Q370.2529,261.68 370.6747,261.2425 Q370.9404,260.9769 371.081,260.8987 Q371.2372,260.8206 371.4404,260.8206 Q371.7685,260.8206 372.0185,261.0862 Q372.2841,261.3362 372.2841,261.68 Q372.2841,262.0237 371.9404,262.43 Q371.4404,263.0081 370.6435,263.3362 Q369.5654,263.7894 368.2685,263.7894 Q366.7529,263.7894 365.5497,263.1644 Q364.5654,262.6644 363.8779,261.6019 Q363.1904,260.5237 363.1904,259.2425 L363.1904,258.0862 Q363.1904,256.7581 363.7997,255.6175 Q364.4247,254.4612 365.5185,253.8519 Q366.6122,253.2269 367.8466,253.2269 Q368.581,253.2269 369.2216,253.3987 Q369.8779,253.555 370.4247,253.9144 Z " fill="#000000"/><text fill="#000000" font-family="sans-serif" font-size="14" lengthAdjust="spacing" textLength="30.3447" x="388.1591" y="263.7679">Magi</text><line style="stroke:#181818;stroke-width:0.5;" x1="281.33" x2="492.8329" y1="274.0394" y2="274.0394"/><text fill="#000000" font-family="sans-serif" font-size="14" lengthAdjust="spacing" textLength="120.6201" x="286.33" y="292.5726">Age: Adult scholars</text><text fill="#000000" font-family="sans-serif" font-size="14" lengthAdjust="spacing" textLength="185.9512" x="286.33" y="310.182">Role: Wise men from the East</text><text fill="#000000" font-family="sans-serif" font-size="14" lengthAdjust="spacing" textLength="201.5029" x="286.33" y="327.7913">Gifts: Gold, Frankincense, Myrrh</text><line style="stroke:#181818;stroke-width:0.5;" x1="281.33" x2="492.8329" y1="334.8675" y2="334.8675"/></g><!--class Innocents--><g class="entity" data-entity="Innocents" data-source-line="57" data-uid="ent0016" id="entity_Innocents"><rect fill="#F1F1F1" height="83.2188" rx="2.5" ry="2.5" style="stroke:#181818;stroke-width:0.5;" width="173.8203" x="755.18" y="250.8494"/><ellipse cx="792.3262" cy="266.8494" fill="#ADD1B2" rx="11" ry="11" style="stroke:#181818;stroke-width:1;"/><path d="M795.0919,262.7244 Q795.2481,262.5056 795.4356,262.3962 Q795.6231,262.2869 795.8419,262.2869 Q796.2169,262.2869 796.4512,262.5525 Q796.6856,262.8025 796.6856,263.4119 L796.6856,264.865 Q796.6856,265.4744 796.4512,265.74 Q796.2169,266.0056 795.8419,266.0056 Q795.4981,266.0056 795.295,265.8025 Q795.0919,265.615 794.9825,265.0994 Q794.9356,264.74 794.7481,264.5525 Q794.42,264.1775 793.8106,263.9587 Q793.2012,263.74 792.5762,263.74 Q791.8106,263.74 791.17,264.0681 Q790.545,264.3962 790.045,265.1462 Q789.5606,265.8962 789.5606,266.9275 L789.5606,268.0212 Q789.5606,269.2556 790.4512,270.0837 Q791.3419,270.8962 792.9356,270.8962 Q793.8731,270.8962 794.5294,270.6462 Q794.92,270.49 795.3419,270.0525 Q795.6075,269.7869 795.7481,269.7087 Q795.9044,269.6306 796.1075,269.6306 Q796.4356,269.6306 796.6856,269.8962 Q796.9512,270.1462 796.9512,270.49 Q796.9512,270.8337 796.6075,271.24 Q796.1075,271.8181 795.3106,272.1462 Q794.2325,272.5994 792.9356,272.5994 Q791.42,272.5994 790.2169,271.9744 Q789.2325,271.4744 788.545,270.4119 Q787.8575,269.3337 787.8575,268.0525 L787.8575,266.8962 Q787.8575,265.5681 788.4669,264.4275 Q789.0919,263.2712 790.1856,262.6619 Q791.2794,262.0369 792.5137,262.0369 Q793.2481,262.0369 793.8887,262.2087 Q794.545,262.365 795.0919,262.7244 Z " fill="#000000"/><text fill="#000000" font-family="sans-serif" font-size="14" lengthAdjust="spacing" textLength="92.6064" x="811.2476" y="272.5779">Holy Innocents</text><line style="stroke:#181818;stroke-width:0.5;" x1="756.18" x2="928.0003" y1="282.8494" y2="282.8494"/><text fill="#000000" font-family="sans-serif" font-size="14" lengthAdjust="spacing" textLength="75.4756" x="761.18" y="301.3826">Age: 0-2 yrs</text><text fill="#000000" font-family="sans-serif" font-size="14" lengthAdjust="spacing" textLength="161.8203" x="761.18" y="318.992">Role: Victims of massacre</text><line style="stroke:#181818;stroke-width:0.5;" x1="756.18" x2="928.0003" y1="326.0681" y2="326.0681"/></g><!--class Angels--><g class="entity" data-entity="Angels" data-source-line="64" data-uid="ent0018" id="entity_Angels"><rect fill="#F1F1F1" height="83.2188" rx="2.5" ry="2.5" style="stroke:#181818;stroke-width:0.5;" width="190.1855" x="273.99" y="63.2194"/><ellipse cx="309.0383" cy="79.2194" fill="#ADD1B2" rx="11" ry="11" style="stroke:#181818;stroke-width:1;"/><path d="M311.8039,75.0944 Q311.9602,74.8756 312.1477,74.7662 Q312.3352,74.6569 312.5539,74.6569 Q312.9289,74.6569 313.1633,74.9225 Q313.3977,75.1725 313.3977,75.7819 L313.3977,77.235 Q313.3977,77.8444 313.1633,78.11 Q312.9289,78.3756 312.5539,78.3756 Q312.2102,78.3756 312.007,78.1725 Q311.8039,77.985 311.6945,77.4694 Q311.6477,77.11 311.4602,76.9225 Q311.132,76.5475 310.5227,76.3287 Q309.9133,76.11 309.2883,76.11 Q308.5227,76.11 307.882,76.4381 Q307.257,76.7662 306.757,77.5162 Q306.2727,78.2662 306.2727,79.2975 L306.2727,80.3912 Q306.2727,81.6256 307.1633,82.4537 Q308.0539,83.2662 309.6477,83.2662 Q310.5852,83.2662 311.2414,83.0162 Q311.632,82.86 312.0539,82.4225 Q312.3195,82.1569 312.4602,82.0787 Q312.6164,82.0006 312.8195,82.0006 Q313.1477,82.0006 313.3977,82.2662 Q313.6633,82.5162 313.6633,82.86 Q313.6633,83.2037 313.3195,83.61 Q312.8195,84.1881 312.0227,84.5162 Q310.9445,84.9694 309.6477,84.9694 Q308.132,84.9694 306.9289,84.3444 Q305.9445,83.8444 305.257,82.7819 Q304.5695,81.7037 304.5695,80.4225 L304.5695,79.2662 Q304.5695,77.9381 305.1789,76.7975 Q305.8039,75.6412 306.8977,75.0319 Q307.9914,74.4069 309.2258,74.4069 Q309.9602,74.4069 310.6008,74.5787 Q311.257,74.735 311.8039,75.0944 Z " fill="#000000"/><text fill="#000000" font-family="sans-serif" font-size="14" lengthAdjust="spacing" textLength="113.6338" x="327.4935" y="84.9479">Angels of the Lord</text><line style="stroke:#181818;stroke-width:0.5;" x1="274.99" x2="463.1755" y1="95.2194" y2="95.2194"/><text fill="#000000" font-family="sans-serif" font-size="14" lengthAdjust="spacing" textLength="77.0479" x="279.99" y="113.7526">Age: Eternal</text><text fill="#000000" font-family="sans-serif" font-size="14" lengthAdjust="spacing" textLength="178.1855" x="279.99" y="131.362">Role: Messengers in dreams</text><line style="stroke:#181818;stroke-width:0.5;" x1="274.99" x2="463.1755" y1="138.4381" y2="138.4381"/></g><!--link Mary to Jesus--><g class="link" data-entity-1="Mary" data-entity-2="Jesus" data-source-line="22" data-uid="lnk5" id="link_Mary_Jesus"><path codeLine="22" d="M59.29,155.3794 C40.97,204.3494 21.14,280.7494 44.09,342.8694 C54.83,371.9494 75.5,398.8894 95.97,420.4294" fill="none" id="Mary-Jesus" style="stroke:#181818;stroke-width:1;"/></g><!--link Joseph to Jesus--><g class="link" data-entity-1="Joseph" data-entity-2="Jesus" data-source-line="23" data-uid="lnk6" id="link_Joseph_Jesus"><path codeLine="23" d="M153.09,343.1794 C153.09,367.3894 153.09,396.4294 153.09,420.6294" fill="none" id="Joseph-Jesus" style="stroke:#181818;stroke-width:1;"/></g><!--link Mary to Joseph--><g class="link" data-entity-1="Mary" data-entity-2="Joseph" data-source-line="24" data-uid="lnk7" id="link_Mary_Joseph"><path codeLine="24" d="M90.21,155.6594 C94.32,173.7694 99.89,194.1694 107.09,212.0394 C111.07,221.9494 116.12,232.1094 121.41,241.7094" fill="none" id="Mary-Joseph" style="stroke:#181818;stroke-width:1;"/><text fill="#000000" font-family="sans-serif" font-size="13" lengthAdjust="spacing" textLength="44.0908" x="108.09" y="208.5345">Spouse</text></g><!--link Herod to Archelaus--><g class="link" data-entity-1="Herod" data-entity-2="Archelaus" data-source-line="45" data-uid="lnk13" id="link_Herod_Archelaus"><path codeLine="45" d="M648.68,164.3094 C646.8,189.1694 644.64,217.8694 642.84,241.6994" fill="none" id="Herod-Archelaus" style="stroke:#181818;stroke-width:1;"/><text fill="#000000" font-family="sans-serif" font-size="13" lengthAdjust="spacing" textLength="65.0317" x="647.09" y="208.5345">Father-Son</text></g><!--link Magi to Jesus--><g class="link" data-entity-1="Magi" data-entity-2="Jesus" data-source-line="54" data-uid="lnk15" id="link_Magi_Jesus"><path codeLine="54" d="M321.28,343.1794 C289.24,367.3894 255.6172,392.8124 223.5872,417.0124" fill="none" id="Magi-to-Jesus" style="stroke:#181818;stroke-width:1;stroke-dasharray:7,7;"/><polygon fill="#181818" points="218.8,420.6294,228.3922,418.3954,222.7894,417.6152,223.5695,412.0125,218.8,420.6294" style="stroke:#181818;stroke-width:1;"/><text fill="#000000" font-family="sans-serif" font-size="13" lengthAdjust="spacing" textLength="90.2954" x="278.1" y="387.3645">Worship &amp; Gifts</text></g><!--link Herod to Innocents--><g class="link" data-entity-1="Herod" data-entity-2="Innocents" data-source-line="62" data-uid="lnk17" id="link_Herod_Innocents"><path codeLine="62" d="M712.63,164.3094 C741.19,192.3594 770.4393,221.0851 796.2193,246.4051" fill="none" id="Herod-to-Innocents" style="stroke:#181818;stroke-width:1;stroke-dasharray:7,7;"/><polygon fill="#181818" points="800.5,250.6094,796.8819,241.4492,796.9328,247.1058,791.2762,247.1567,800.5,250.6094" style="stroke:#181818;stroke-width:1;"/><text fill="#000000" font-family="sans-serif" font-size="13" lengthAdjust="spacing" textLength="75.8545" x="759.9" y="208.5345">Orders killing</text></g><!--link Angels to Joseph--><g class="link" data-entity-1="Angels" data-entity-2="Joseph" data-source-line="69" data-uid="lnk19" id="link_Angels_Joseph"><path codeLine="69" d="M321.42,146.7894 C288.87,174.7694 250.1,208.0782 215.56,237.7682" fill="none" id="Angels-to-Joseph" style="stroke:#181818;stroke-width:1;stroke-dasharray:7,7;"/><polygon fill="#181818" points="211.01,241.6794,220.4425,238.846,214.8017,238.4201,215.2276,232.7793,211.01,241.6794" style="stroke:#181818;stroke-width:1;"/><text fill="#000000" font-family="sans-serif" font-size="13" lengthAdjust="spacing" textLength="91.749" x="262.09" y="208.5345">Warn in dreams</text></g><!--link Angels to Magi--><g class="link" data-entity-1="Angels" data-entity-2="Magi" data-source-line="70" data-uid="lnk20" id="link_Angels_Magi"><path codeLine="70" d="M373.04,146.5594 C375.75,174.5294 378.7799,205.8375 381.6699,235.5875" fill="none" id="Angels-to-Magi" style="stroke:#181818;stroke-width:1;stroke-dasharray:7,7;"/><polygon fill="#181818" points="382.25,241.5594,385.3611,232.2148,381.7666,236.5828,377.3986,232.9883,382.25,241.5594" style="stroke:#181818;stroke-width:1;"/><text fill="#000000" font-family="sans-serif" font-size="13" lengthAdjust="spacing" textLength="158.2407" x="380.16" y="208.5345">Warn not to return to Herod</text></g><!--SRC=[RLHDRzim3BtxLn0zh1jG5qdR8OCF0v8WwSUMPcY6vipQZ2rKbW9ANf4LosyVBJknC-oKY7fw9DyZxPNN1FScKxzKLg5se0miqFk2tc1QuDOJmnLyV5eznzFPfoWwXpYE1I6mEwjtCCTIoOy4erIZS_10hdBm7W6CSqh0qDkBPGDxOTcna_2JrH9Va7CA2pbFv3g12Vb2Kq5bz2TgcHR8kuveF_mS3qUd75RAPB2R9gd4vspB11xnDxBmTLGFrj6sw95T3-ARmGdPtBgwrmt-oxbCqsgBNbcfSegy9IEucZhK9s8qm3R5yNoyRU89hBQsSXH5nde2LddX-rdMbbsXjfJ1oquwpvN4VYBd551tn3OxTv1HoaGHcGngceCTFwnMNgMeOQxoYidr_3WBRq6wWbicz6U0hk7hoJ4wrUARCdaehie8woYfNBg_7iKtC9dMhz96ZuLaG2cf1jyROrCHntMoZpajI6D_7lR3B_7LQRQPBmmAif_nqNhBIWI3ZML8kIBjTpLnKxdqt76BTy6qU6LDDw2vweaGZiSQnbcbFRYqi1fxTQoL8oZ9m4QcA0WsG-Vb-bPjl4lWrkhiGaOCpQioqgcZ2rZic8jc62J3vUNNTlwJWw7meNb-AEnPYNIb0nGBbs7K_cTPlLb7FODZnrFNnY0-NQa3jSXOjhvqYjMbTHm9B3aZTl2gj1Qp3uQTZKrEEb3K_N-td8NiRVYOUYOhO52VR3C9XiFt8vCvAyCOjE-2BeSzMADy3ZfK3n8qR04otk0jo1fNSf9_eOteBm00]--></g></svg>