<svg xmlns="http://www.w3.org/2000/svg" xmlns:xlink="http://www.w3.org/1999/xlink" contentStyleType="text/css" data-diagram-type="CLASS" height="1192px" preserveAspectRatio="none" style="width:975px;height:1192px;background:#FFFFFF;" version="1.1" viewBox="0 0 975 1192" width="975px" zoomAndPan="magnify"><title>Combined Genealogy &amp; Early Life Journey of Jesus (Matthew 1-2)</title><defs/><g><g class="title" data-source-line="1"><text fill="#000000" font-family="sans-serif" font-size="14" font-weight="bold" lengthAdjust="spacing" textLength="437.2061" x="262.0502" y="24.5332">Combined Genealogy &amp; Early Life Journey of Jesus (Matthew 1-2)</text></g><!--class Abraham--><g class="entity" data-entity="Abraham" data-source-line="6" data-uid="ent0002" id="entity_Abraham"><rect fill="#F1F1F1" height="48" rx="2.5" ry="2.5" style="stroke:#181818;stroke-width:0.5;" width="88.8066" x="51.6" y="45.6094"/><ellipse cx="66.6" cy="61.6094" fill="#ADD1B2" rx="11" ry="11" style="stroke:#181818;stroke-width:1;"/><path d="M69.3656,57.4844 Q69.5219,57.2656 69.7094,57.1563 Q69.8969,57.0469 70.1156,57.0469 Q70.4906,57.0469 70.725,57.3125 Q70.9594,57.5625 70.9594,58.1719 L70.9594,59.625 Q70.9594,60.2344 70.725,60.5 Q70.4906,60.7656 70.1156,60.7656 Q69.7719,60.7656 69.5688,60.5625 Q69.3656,60.375 69.2563,59.8594 Q69.2094,59.5 69.0219,59.3125 Q68.6938,58.9375 68.0844,58.7188 Q67.475,58.5 66.85,58.5 Q66.0844,58.5 65.4438,58.8281 Q64.8188,59.1563 64.3188,59.9063 Q63.8344,60.6563 63.8344,61.6875 L63.8344,62.7813 Q63.8344,64.0156 64.725,64.8438 Q65.6156,65.6563 67.2094,65.6563 Q68.1469,65.6563 68.8031,65.4063 Q69.1938,65.25 69.6156,64.8125 Q69.8813,64.5469 70.0219,64.4688 Q70.1781,64.3906 70.3813,64.3906 Q70.7094,64.3906 70.9594,64.6563 Q71.225,64.9063 71.225,65.25 Q71.225,65.5938 70.8813,66 Q70.3813,66.5781 69.5844,66.9063 Q68.5063,67.3594 67.2094,67.3594 Q65.6938,67.3594 64.4906,66.7344 Q63.5062,66.2344 62.8187,65.1719 Q62.1312,64.0938 62.1312,62.8125 L62.1312,61.6563 Q62.1312,60.3281 62.7406,59.1875 Q63.3656,58.0313 64.4594,57.4219 Q65.5531,56.7969 66.7875,56.7969 Q67.5219,56.7969 68.1625,56.9688 Q68.8188,57.125 69.3656,57.4844 Z " fill="#000000"/><text fill="#000000" font-family="sans-serif" font-size="14" lengthAdjust="spacing" textLength="56.8066" x="80.6" y="67.3379">Abraham</text><line style="stroke:#181818;stroke-width:0.5;" x1="52.6" x2="139.4066" y1="77.6094" y2="77.6094"/><line style="stroke:#181818;stroke-width:0.5;" x1="52.6" x2="139.4066" y1="85.6094" y2="85.6094"/></g><!--class Isaac--><g class="entity" data-entity="Isaac" data-source-line="7" data-uid="ent0003" id="entity_Isaac"><rect fill="#F1F1F1" height="48" rx="2.5" ry="2.5" style="stroke:#181818;stroke-width:0.5;" width="65.4619" x="63.27" y="153.6094"/><ellipse cx="78.27" cy="169.6094" fill="#ADD1B2" rx="11" ry="11" style="stroke:#181818;stroke-width:1;"/><path d="M81.0356,165.4844 Q81.1919,165.2656 81.3794,165.1563 Q81.5669,165.0469 81.7856,165.0469 Q82.1606,165.0469 82.395,165.3125 Q82.6294,165.5625 82.6294,166.1719 L82.6294,167.625 Q82.6294,168.2344 82.395,168.5 Q82.1606,168.7656 81.7856,168.7656 Q81.4419,168.7656 81.2388,168.5625 Q81.0356,168.375 80.9263,167.8594 Q80.8794,167.5 80.6919,167.3125 Q80.3638,166.9375 79.7544,166.7188 Q79.145,166.5 78.52,166.5 Q77.7544,166.5 77.1138,166.8281 Q76.4888,167.1563 75.9888,167.9063 Q75.5044,168.6563 75.5044,169.6875 L75.5044,170.7813 Q75.5044,172.0156 76.395,172.8438 Q77.2856,173.6563 78.8794,173.6563 Q79.8169,173.6563 80.4731,173.4063 Q80.8638,173.25 81.2856,172.8125 Q81.5513,172.5469 81.6919,172.4688 Q81.8481,172.3906 82.0513,172.3906 Q82.3794,172.3906 82.6294,172.6563 Q82.895,172.9063 82.895,173.25 Q82.895,173.5938 82.5513,174 Q82.0513,174.5781 81.2544,174.9063 Q80.1763,175.3594 78.8794,175.3594 Q77.3638,175.3594 76.1606,174.7344 Q75.1763,174.2344 74.4888,173.1719 Q73.8013,172.0938 73.8013,170.8125 L73.8013,169.6563 Q73.8013,168.3281 74.4106,167.1875 Q75.0356,166.0313 76.1294,165.4219 Q77.2231,164.7969 78.4575,164.7969 Q79.1919,164.7969 79.8325,164.9688 Q80.4888,165.125 81.0356,165.4844 Z " fill="#000000"/><text fill="#000000" font-family="sans-serif" font-size="14" lengthAdjust="spacing" textLength="33.4619" x="92.27" y="175.3379">Isaac</text><line style="stroke:#181818;stroke-width:0.5;" x1="64.27" x2="127.7319" y1="185.6094" y2="185.6094"/><line style="stroke:#181818;stroke-width:0.5;" x1="64.27" x2="127.7319" y1="193.6094" y2="193.6094"/></g><!--class Jacob--><g class="entity" data-entity="Jacob" data-source-line="8" data-uid="ent0004" id="entity_Jacob"><rect fill="#F1F1F1" height="48" rx="2.5" ry="2.5" style="stroke:#181818;stroke-width:0.5;" width="69.3584" x="61.32" y="261.6094"/><ellipse cx="76.32" cy="277.6094" fill="#ADD1B2" rx="11" ry="11" style="stroke:#181818;stroke-width:1;"/><path d="M79.0856,273.4844 Q79.2419,273.2656 79.4294,273.1563 Q79.6169,273.0469 79.8356,273.0469 Q80.2106,273.0469 80.445,273.3125 Q80.6794,273.5625 80.6794,274.1719 L80.6794,275.625 Q80.6794,276.2344 80.445,276.5 Q80.2106,276.7656 79.8356,276.7656 Q79.4919,276.7656 79.2888,276.5625 Q79.0856,276.375 78.9763,275.8594 Q78.9294,275.5 78.7419,275.3125 Q78.4138,274.9375 77.8044,274.7188 Q77.195,274.5 76.57,274.5 Q75.8044,274.5 75.1638,274.8281 Q74.5388,275.1563 74.0388,275.9063 Q73.5544,276.6563 73.5544,277.6875 L73.5544,278.7813 Q73.5544,280.0156 74.445,280.8438 Q75.3356,281.6563 76.9294,281.6563 Q77.8669,281.6563 78.5231,281.4063 Q78.9138,281.25 79.3356,280.8125 Q79.6013,280.5469 79.7419,280.4688 Q79.8981,280.3906 80.1013,280.3906 Q80.4294,280.3906 80.6794,280.6563 Q80.945,280.9063 80.945,281.25 Q80.945,281.5938 80.6013,282 Q80.1013,282.5781 79.3044,282.9063 Q78.2263,283.3594 76.9294,283.3594 Q75.4138,283.3594 74.2106,282.7344 Q73.2263,282.2344 72.5388,281.1719 Q71.8513,280.0938 71.8513,278.8125 L71.8513,277.6563 Q71.8513,276.3281 72.4606,275.1875 Q73.0856,274.0313 74.1794,273.4219 Q75.2731,272.7969 76.5075,272.7969 Q77.2419,272.7969 77.8825,272.9688 Q78.5388,273.125 79.0856,273.4844 Z " fill="#000000"/><text fill="#000000" font-family="sans-serif" font-size="14" lengthAdjust="spacing" textLength="37.3584" x="90.32" y="283.3379">Jacob</text><line style="stroke:#181818;stroke-width:0.5;" x1="62.32" x2="129.6784" y1="293.6094" y2="293.6094"/><line style="stroke:#181818;stroke-width:0.5;" x1="62.32" x2="129.6784" y1="301.6094" y2="301.6094"/></g><!--class Judah--><g class="entity" data-entity="Judah" data-source-line="9" data-uid="ent0005" id="entity_Judah"><rect fill="#F1F1F1" height="48" rx="2.5" ry="2.5" style="stroke:#181818;stroke-width:0.5;" width="70.1445" x="60.93" y="369.6094"/><ellipse cx="75.93" cy="385.6094" fill="#ADD1B2" rx="11" ry="11" style="stroke:#181818;stroke-width:1;"/><path d="M78.6956,381.4844 Q78.8519,381.2656 79.0394,381.1563 Q79.2269,381.0469 79.4456,381.0469 Q79.8206,381.0469 80.055,381.3125 Q80.2894,381.5625 80.2894,382.1719 L80.2894,383.625 Q80.2894,384.2344 80.055,384.5 Q79.8206,384.7656 79.4456,384.7656 Q79.1019,384.7656 78.8988,384.5625 Q78.6956,384.375 78.5863,383.8594 Q78.5394,383.5 78.3519,383.3125 Q78.0238,382.9375 77.4144,382.7188 Q76.805,382.5 76.18,382.5 Q75.4144,382.5 74.7738,382.8281 Q74.1488,383.1563 73.6488,383.9063 Q73.1644,384.6563 73.1644,385.6875 L73.1644,386.7813 Q73.1644,388.0156 74.055,388.8438 Q74.9456,389.6563 76.5394,389.6563 Q77.4769,389.6563 78.1331,389.4063 Q78.5238,389.25 78.9456,388.8125 Q79.2113,388.5469 79.3519,388.4688 Q79.5081,388.3906 79.7113,388.3906 Q80.0394,388.3906 80.2894,388.6563 Q80.555,388.9063 80.555,389.25 Q80.555,389.5938 80.2113,390 Q79.7113,390.5781 78.9144,390.9063 Q77.8363,391.3594 76.5394,391.3594 Q75.0238,391.3594 73.8206,390.7344 Q72.8363,390.2344 72.1488,389.1719 Q71.4613,388.0938 71.4613,386.8125 L71.4613,385.6563 Q71.4613,384.3281 72.0706,383.1875 Q72.6956,382.0313 73.7894,381.4219 Q74.8831,380.7969 76.1175,380.7969 Q76.8519,380.7969 77.4925,380.9688 Q78.1488,381.125 78.6956,381.4844 Z " fill="#000000"/><text fill="#000000" font-family="sans-serif" font-size="14" lengthAdjust="spacing" textLength="38.1445" x="89.93" y="391.3379">Judah</text><line style="stroke:#181818;stroke-width:0.5;" x1="61.93" x2="130.0745" y1="401.6094" y2="401.6094"/><line style="stroke:#181818;stroke-width:0.5;" x1="61.93" x2="130.0745" y1="409.6094" y2="409.6094"/></g><!--class David--><g class="entity" data-entity="David" data-source-line="10" data-uid="ent0006" id="entity_David"><rect fill="#F1F1F1" height="48" rx="2.5" ry="2.5" style="stroke:#181818;stroke-width:0.5;" width="67.793" x="62.1" y="610.8294"/><ellipse cx="77.1" cy="626.8294" fill="#ADD1B2" rx="11" ry="11" style="stroke:#181818;stroke-width:1;"/><path d="M79.8656,622.7044 Q80.0219,622.4856 80.2094,622.3763 Q80.3969,622.2669 80.6156,622.2669 Q80.9906,622.2669 81.225,622.5325 Q81.4594,622.7825 81.4594,623.3919 L81.4594,624.845 Q81.4594,625.4544 81.225,625.72 Q80.9906,625.9856 80.6156,625.9856 Q80.2719,625.9856 80.0688,625.7825 Q79.8656,625.595 79.7563,625.0794 Q79.7094,624.72 79.5219,624.5325 Q79.1938,624.1575 78.5844,623.9388 Q77.975,623.72 77.35,623.72 Q76.5844,623.72 75.9438,624.0481 Q75.3188,624.3763 74.8188,625.1263 Q74.3344,625.8763 74.3344,626.9075 L74.3344,628.0013 Q74.3344,629.2356 75.225,630.0638 Q76.1156,630.8763 77.7094,630.8763 Q78.6469,630.8763 79.3031,630.6263 Q79.6938,630.47 80.1156,630.0325 Q80.3813,629.7669 80.5219,629.6888 Q80.6781,629.6106 80.8813,629.6106 Q81.2094,629.6106 81.4594,629.8763 Q81.725,630.1263 81.725,630.47 Q81.725,630.8138 81.3813,631.22 Q80.8813,631.7981 80.0844,632.1263 Q79.0063,632.5794 77.7094,632.5794 Q76.1938,632.5794 74.9906,631.9544 Q74.0063,631.4544 73.3188,630.3919 Q72.6313,629.3138 72.6313,628.0325 L72.6313,626.8763 Q72.6313,625.5481 73.2406,624.4075 Q73.8656,623.2513 74.9594,622.6419 Q76.0531,622.0169 77.2875,622.0169 Q78.0219,622.0169 78.6625,622.1888 Q79.3188,622.345 79.8656,622.7044 Z " fill="#000000"/><text fill="#000000" font-family="sans-serif" font-size="14" lengthAdjust="spacing" textLength="35.793" x="91.1" y="632.5579">David</text><line style="stroke:#181818;stroke-width:0.5;" x1="63.1" x2="128.893" y1="642.8294" y2="642.8294"/><line style="stroke:#181818;stroke-width:0.5;" x1="63.1" x2="128.893" y1="650.8294" y2="650.8294"/></g><!--class Solomon--><g class="entity" data-entity="Solomon" data-source-line="11" data-uid="ent0007" id="entity_Solomon"><rect fill="#F1F1F1" height="48" rx="2.5" ry="2.5" style="stroke:#181818;stroke-width:0.5;" width="87.2549" x="52.37" y="747.1394"/><ellipse cx="67.37" cy="763.1394" fill="#ADD1B2" rx="11" ry="11" style="stroke:#181818;stroke-width:1;"/><path d="M70.1356,759.0144 Q70.2919,758.7956 70.4794,758.6863 Q70.6669,758.5769 70.8856,758.5769 Q71.2606,758.5769 71.495,758.8425 Q71.7294,759.0925 71.7294,759.7019 L71.7294,761.155 Q71.7294,761.7644 71.495,762.03 Q71.2606,762.2956 70.8856,762.2956 Q70.5419,762.2956 70.3388,762.0925 Q70.1356,761.905 70.0263,761.3894 Q69.9794,761.03 69.7919,760.8425 Q69.4638,760.4675 68.8544,760.2488 Q68.245,760.03 67.62,760.03 Q66.8544,760.03 66.2138,760.3581 Q65.5888,760.6863 65.0888,761.4363 Q64.6044,762.1863 64.6044,763.2175 L64.6044,764.3113 Q64.6044,765.5456 65.495,766.3738 Q66.3856,767.1863 67.9794,767.1863 Q68.9169,767.1863 69.5731,766.9363 Q69.9638,766.78 70.3856,766.3425 Q70.6513,766.0769 70.7919,765.9988 Q70.9481,765.9206 71.1513,765.9206 Q71.4794,765.9206 71.7294,766.1863 Q71.995,766.4363 71.995,766.78 Q71.995,767.1238 71.6513,767.53 Q71.1513,768.1081 70.3544,768.4363 Q69.2763,768.8894 67.9794,768.8894 Q66.4638,768.8894 65.2606,768.2644 Q64.2763,767.7644 63.5888,766.7019 Q62.9013,765.6238 62.9013,764.3425 L62.9013,763.1863 Q62.9013,761.8581 63.5106,760.7175 Q64.1356,759.5613 65.2294,758.9519 Q66.3231,758.3269 67.5575,758.3269 Q68.2919,758.3269 68.9325,758.4988 Q69.5888,758.655 70.1356,759.0144 Z " fill="#000000"/><text fill="#000000" font-family="sans-serif" font-size="14" lengthAdjust="spacing" textLength="55.2549" x="81.37" y="768.8679">Solomon</text><line style="stroke:#181818;stroke-width:0.5;" x1="53.37" x2="138.6249" y1="779.1394" y2="779.1394"/><line style="stroke:#181818;stroke-width:0.5;" x1="53.37" x2="138.6249" y1="787.1394" y2="787.1394"/></g><!--class Joseph--><g class="entity" data-entity="Joseph" data-source-line="12" data-uid="ent0008" id="entity_Joseph"><rect fill="#F1F1F1" height="61.2188" rx="2.5" ry="2.5" style="stroke:#181818;stroke-width:0.5;" width="147.9307" x="224.03" y="1005.6094"/><ellipse cx="239.03" cy="1028.2188" fill="#ADD1B2" rx="11" ry="11" style="stroke:#181818;stroke-width:1;"/><path d="M241.7956,1024.0938 Q241.9519,1023.875 242.1394,1023.7656 Q242.3269,1023.6563 242.5456,1023.6563 Q242.9206,1023.6563 243.155,1023.9219 Q243.3894,1024.1719 243.3894,1024.7813 L243.3894,1026.2344 Q243.3894,1026.8438 243.155,1027.1094 Q242.9206,1027.375 242.5456,1027.375 Q242.2019,1027.375 241.9988,1027.1719 Q241.7956,1026.9844 241.6863,1026.4688 Q241.6394,1026.1094 241.4519,1025.9219 Q241.1238,1025.5469 240.5144,1025.3281 Q239.905,1025.1094 239.28,1025.1094 Q238.5144,1025.1094 237.8738,1025.4375 Q237.2488,1025.7656 236.7488,1026.5156 Q236.2644,1027.2656 236.2644,1028.2969 L236.2644,1029.3906 Q236.2644,1030.625 237.155,1031.4531 Q238.0456,1032.2656 239.6394,1032.2656 Q240.5769,1032.2656 241.2331,1032.0156 Q241.6238,1031.8594 242.0456,1031.4219 Q242.3113,1031.1563 242.4519,1031.0781 Q242.6081,1031 242.8113,1031 Q243.1394,1031 243.3894,1031.2656 Q243.655,1031.5156 243.655,1031.8594 Q243.655,1032.2031 243.3113,1032.6094 Q242.8113,1033.1875 242.0144,1033.5156 Q240.9363,1033.9688 239.6394,1033.9688 Q238.1238,1033.9688 236.9206,1033.3438 Q235.9363,1032.8438 235.2488,1031.7813 Q234.5613,1030.7031 234.5613,1029.4219 L234.5613,1028.2656 Q234.5613,1026.9375 235.1706,1025.7969 Q235.7956,1024.6406 236.8894,1024.0313 Q237.9831,1023.4063 239.2175,1023.4063 Q239.9519,1023.4063 240.5925,1023.5781 Q241.2488,1023.7344 241.7956,1024.0938 Z " fill="#000000"/><text fill="#000000" font-family="sans-serif" font-size="14" lengthAdjust="spacing" textLength="45.1445" x="288.4231" y="1025.1426">Joseph</text><text fill="#000000" font-family="sans-serif" font-size="14" lengthAdjust="spacing" textLength="115.9307" x="253.03" y="1042.752">(Husband of Mary)</text><line style="stroke:#181818;stroke-width:0.5;" x1="225.03" x2="370.9607" y1="1050.8281" y2="1050.8281"/><line style="stroke:#181818;stroke-width:0.5;" x1="225.03" x2="370.9607" y1="1058.8281" y2="1058.8281"/></g><!--class Mary--><g class="entity" data-entity="Mary" data-source-line="13" data-uid="ent0009" id="entity_Mary"><rect fill="#F1F1F1" height="48" rx="2.5" ry="2.5" style="stroke:#181818;stroke-width:0.5;" width="63.1104" x="545.44" y="1012.2194"/><ellipse cx="560.44" cy="1028.2194" fill="#ADD1B2" rx="11" ry="11" style="stroke:#181818;stroke-width:1;"/><path d="M563.2056,1024.0944 Q563.3619,1023.8756 563.5494,1023.7663 Q563.7369,1023.6569 563.9556,1023.6569 Q564.3306,1023.6569 564.565,1023.9225 Q564.7994,1024.1725 564.7994,1024.7819 L564.7994,1026.235 Q564.7994,1026.8444 564.565,1027.11 Q564.3306,1027.3756 563.9556,1027.3756 Q563.6119,1027.3756 563.4088,1027.1725 Q563.2056,1026.985 563.0963,1026.4694 Q563.0494,1026.11 562.8619,1025.9225 Q562.5338,1025.5475 561.9244,1025.3288 Q561.315,1025.11 560.69,1025.11 Q559.9244,1025.11 559.2838,1025.4381 Q558.6588,1025.7663 558.1588,1026.5163 Q557.6744,1027.2663 557.6744,1028.2975 L557.6744,1029.3913 Q557.6744,1030.6256 558.565,1031.4538 Q559.4556,1032.2663 561.0494,1032.2663 Q561.9869,1032.2663 562.6431,1032.0163 Q563.0338,1031.86 563.4556,1031.4225 Q563.7213,1031.1569 563.8619,1031.0788 Q564.0181,1031.0006 564.2213,1031.0006 Q564.5494,1031.0006 564.7994,1031.2663 Q565.065,1031.5163 565.065,1031.86 Q565.065,1032.2038 564.7213,1032.61 Q564.2213,1033.1881 563.4244,1033.5163 Q562.3463,1033.9694 561.0494,1033.9694 Q559.5338,1033.9694 558.3306,1033.3444 Q557.3463,1032.8444 556.6588,1031.7819 Q555.9713,1030.7038 555.9713,1029.4225 L555.9713,1028.2663 Q555.9713,1026.9381 556.5806,1025.7975 Q557.2056,1024.6413 558.2994,1024.0319 Q559.3931,1023.4069 560.6275,1023.4069 Q561.3619,1023.4069 562.0025,1023.5788 Q562.6588,1023.735 563.2056,1024.0944 Z " fill="#000000"/><text fill="#000000" font-family="sans-serif" font-size="14" lengthAdjust="spacing" textLength="31.1104" x="574.44" y="1033.9479">Mary</text><line style="stroke:#181818;stroke-width:0.5;" x1="546.44" x2="607.5504" y1="1044.2194" y2="1044.2194"/><line style="stroke:#181818;stroke-width:0.5;" x1="546.44" x2="607.5504" y1="1052.2194" y2="1052.2194"/></g><!--class Jesus--><g class="entity" data-entity="Jesus" data-source-line="14" data-uid="ent0010" id="entity_Jesus"><rect fill="#F1F1F1" height="48" rx="2.5" ry="2.5" style="stroke:#181818;stroke-width:0.5;" width="68.5723" x="483.71" y="1132.3494"/><ellipse cx="498.71" cy="1148.3494" fill="#ADD1B2" rx="11" ry="11" style="stroke:#181818;stroke-width:1;"/><path d="M501.4756,1144.2244 Q501.6319,1144.0056 501.8194,1143.8963 Q502.0069,1143.7869 502.2256,1143.7869 Q502.6006,1143.7869 502.835,1144.0525 Q503.0694,1144.3025 503.0694,1144.9119 L503.0694,1146.365 Q503.0694,1146.9744 502.835,1147.24 Q502.6006,1147.5056 502.2256,1147.5056 Q501.8819,1147.5056 501.6788,1147.3025 Q501.4756,1147.115 501.3663,1146.5994 Q501.3194,1146.24 501.1319,1146.0525 Q500.8038,1145.6775 500.1944,1145.4588 Q499.585,1145.24 498.96,1145.24 Q498.1944,1145.24 497.5538,1145.5681 Q496.9288,1145.8963 496.4288,1146.6463 Q495.9444,1147.3963 495.9444,1148.4275 L495.9444,1149.5213 Q495.9444,1150.7556 496.835,1151.5838 Q497.7256,1152.3963 499.3194,1152.3963 Q500.2569,1152.3963 500.9131,1152.1463 Q501.3038,1151.99 501.7256,1151.5525 Q501.9913,1151.2869 502.1319,1151.2088 Q502.2881,1151.1306 502.4913,1151.1306 Q502.8194,1151.1306 503.0694,1151.3963 Q503.335,1151.6463 503.335,1151.99 Q503.335,1152.3338 502.9913,1152.74 Q502.4913,1153.3181 501.6944,1153.6463 Q500.6163,1154.0994 499.3194,1154.0994 Q497.8038,1154.0994 496.6006,1153.4744 Q495.6163,1152.9744 494.9288,1151.9119 Q494.2413,1150.8338 494.2413,1149.5525 L494.2413,1148.3963 Q494.2413,1147.0681 494.8506,1145.9275 Q495.4756,1144.7713 496.5694,1144.1619 Q497.6631,1143.5369 498.8975,1143.5369 Q499.6319,1143.5369 500.2725,1143.7088 Q500.9288,1143.865 501.4756,1144.2244 Z " fill="#000000"/><text fill="#000000" font-family="sans-serif" font-size="14" lengthAdjust="spacing" textLength="36.5723" x="512.71" y="1154.0779">Jesus</text><line style="stroke:#181818;stroke-width:0.5;" x1="484.71" x2="551.2823" y1="1164.3494" y2="1164.3494"/><line style="stroke:#181818;stroke-width:0.5;" x1="484.71" x2="551.2823" y1="1172.3494" y2="1172.3494"/></g><!--class Tribal--><g class="entity" data-entity="Tribal" data-source-line="17" data-uid="ent0011" id="entity_Tribal"><rect fill="#F1F1F1" height="48" rx="2.5" ry="2.5" style="stroke:#181818;stroke-width:0.5;" width="120.7236" x="35.64" y="483.1394"/><ellipse cx="50.64" cy="499.1394" fill="#ADD1B2" rx="11" ry="11" style="stroke:#181818;stroke-width:1;"/><path d="M53.4056,495.0144 Q53.5619,494.7956 53.7494,494.6863 Q53.9369,494.5769 54.1556,494.5769 Q54.5306,494.5769 54.765,494.8425 Q54.9994,495.0925 54.9994,495.7019 L54.9994,497.155 Q54.9994,497.7644 54.765,498.03 Q54.5306,498.2956 54.1556,498.2956 Q53.8119,498.2956 53.6088,498.0925 Q53.4056,497.905 53.2963,497.3894 Q53.2494,497.03 53.0619,496.8425 Q52.7338,496.4675 52.1244,496.2488 Q51.515,496.03 50.89,496.03 Q50.1244,496.03 49.4838,496.3581 Q48.8588,496.6863 48.3588,497.4363 Q47.8744,498.1863 47.8744,499.2175 L47.8744,500.3113 Q47.8744,501.5456 48.765,502.3738 Q49.6556,503.1863 51.2494,503.1863 Q52.1869,503.1863 52.8431,502.9363 Q53.2338,502.78 53.6556,502.3425 Q53.9213,502.0769 54.0619,501.9988 Q54.2181,501.9206 54.4213,501.9206 Q54.7494,501.9206 54.9994,502.1863 Q55.265,502.4363 55.265,502.78 Q55.265,503.1238 54.9213,503.53 Q54.4213,504.1081 53.6244,504.4363 Q52.5463,504.8894 51.2494,504.8894 Q49.7338,504.8894 48.5306,504.2644 Q47.5463,503.7644 46.8588,502.7019 Q46.1713,501.6238 46.1713,500.3425 L46.1713,499.1863 Q46.1713,497.8581 46.7806,496.7175 Q47.4056,495.5613 48.4994,494.9519 Q49.5931,494.3269 50.8275,494.3269 Q51.5619,494.3269 52.2025,494.4988 Q52.8588,494.655 53.4056,495.0144 Z " fill="#000000"/><text fill="#000000" font-family="sans-serif" font-size="14" lengthAdjust="spacing" textLength="88.7236" x="64.64" y="504.8679">Tribal Lineage</text><line style="stroke:#181818;stroke-width:0.5;" x1="36.64" x2="155.3636" y1="515.1394" y2="515.1394"/><line style="stroke:#181818;stroke-width:0.5;" x1="36.64" x2="155.3636" y1="523.1394" y2="523.1394"/></g><!--class Royal--><g class="entity" data-entity="Royal" data-source-line="18" data-uid="ent0012" id="entity_Royal"><rect fill="#F1F1F1" height="48" rx="2.5" ry="2.5" style="stroke:#181818;stroke-width:0.5;" width="121.5098" x="35.25" y="883.4494"/><ellipse cx="50.25" cy="899.4494" fill="#ADD1B2" rx="11" ry="11" style="stroke:#181818;stroke-width:1;"/><path d="M53.0156,895.3244 Q53.1719,895.1056 53.3594,894.9962 Q53.5469,894.8869 53.7656,894.8869 Q54.1406,894.8869 54.375,895.1525 Q54.6094,895.4025 54.6094,896.0119 L54.6094,897.465 Q54.6094,898.0744 54.375,898.34 Q54.1406,898.6056 53.7656,898.6056 Q53.4219,898.6056 53.2188,898.4025 Q53.0156,898.215 52.9063,897.6994 Q52.8594,897.34 52.6719,897.1525 Q52.3438,896.7775 51.7344,896.5587 Q51.125,896.34 50.5,896.34 Q49.7344,896.34 49.0938,896.6681 Q48.4688,896.9962 47.9688,897.7462 Q47.4844,898.4962 47.4844,899.5275 L47.4844,900.6212 Q47.4844,901.8556 48.375,902.6837 Q49.2656,903.4962 50.8594,903.4962 Q51.7969,903.4962 52.4531,903.2462 Q52.8438,903.09 53.2656,902.6525 Q53.5313,902.3869 53.6719,902.3087 Q53.8281,902.2306 54.0313,902.2306 Q54.3594,902.2306 54.6094,902.4962 Q54.875,902.7462 54.875,903.09 Q54.875,903.4337 54.5313,903.84 Q54.0313,904.4181 53.2344,904.7462 Q52.1563,905.1994 50.8594,905.1994 Q49.3438,905.1994 48.1406,904.5744 Q47.1563,904.0744 46.4688,903.0119 Q45.7813,901.9337 45.7813,900.6525 L45.7813,899.4962 Q45.7813,898.1681 46.3906,897.0275 Q47.0156,895.8712 48.1094,895.2619 Q49.2031,894.6369 50.4375,894.6369 Q51.1719,894.6369 51.8125,894.8087 Q52.4688,894.965 53.0156,895.3244 Z " fill="#000000"/><text fill="#000000" font-family="sans-serif" font-size="14" lengthAdjust="spacing" textLength="89.5098" x="64.25" y="905.1779">Royal Lineage</text><line style="stroke:#181818;stroke-width:0.5;" x1="36.25" x2="155.7598" y1="915.4494" y2="915.4494"/><line style="stroke:#181818;stroke-width:0.5;" x1="36.25" x2="155.7598" y1="923.4494" y2="923.4494"/></g><g class="entity" data-entity="GMN23" data-source-line="32" data-uid="ent0024" id="entity_GMN23"><path d="M587.41,1126.8294 L587.41,1151.8794 L552.57,1155.8794 L587.41,1159.8794 L587.41,1185.8841 A0,0 0 0 0 587.41,1185.8841 L774.598,1185.8841 A0,0 0 0 0 774.598,1185.8841 L774.598,1136.8294 L764.598,1126.8294 L587.41,1126.8294 A0,0 0 0 0 587.41,1126.8294" fill="#FEFFDD" style="stroke:#181818;stroke-width:0.5;"/><path d="M764.598,1126.8294 L764.598,1136.8294 L774.598,1136.8294 L764.598,1126.8294" fill="#FEFFDD" style="stroke:#181818;stroke-width:0.5;"/><text fill="#000000" font-family="sans-serif" font-size="13" lengthAdjust="spacing" textLength="151.0171" x="593.41" y="1145.3245">Messiah, King of the Jews</text><text fill="#000000" font-family="sans-serif" font-size="13" lengthAdjust="spacing" textLength="166.188" x="593.41" y="1161.6761">Born in Bethlehem (Matt 2:1)</text><text fill="#000000" font-family="sans-serif" font-size="13" lengthAdjust="spacing" textLength="140.8989" x="593.41" y="1178.0276">Fulfillment of prophecies</text></g><!--class Magi--><g class="entity" data-entity="Magi" data-source-line="38" data-uid="ent0026" id="entity_Magi"><rect fill="#F1F1F1" height="61.2188" rx="2.5" ry="2.5" style="stroke:#181818;stroke-width:0.5;" width="103.5586" x="407.22" y="1005.6094"/><ellipse cx="422.22" cy="1028.2188" fill="#ADD1B2" rx="11" ry="11" style="stroke:#181818;stroke-width:1;"/><path d="M424.9856,1024.0938 Q425.1419,1023.875 425.3294,1023.7656 Q425.5169,1023.6563 425.7356,1023.6563 Q426.1106,1023.6563 426.345,1023.9219 Q426.5794,1024.1719 426.5794,1024.7813 L426.5794,1026.2344 Q426.5794,1026.8438 426.345,1027.1094 Q426.1106,1027.375 425.7356,1027.375 Q425.3919,1027.375 425.1888,1027.1719 Q424.9856,1026.9844 424.8763,1026.4688 Q424.8294,1026.1094 424.6419,1025.9219 Q424.3138,1025.5469 423.7044,1025.3281 Q423.095,1025.1094 422.47,1025.1094 Q421.7044,1025.1094 421.0638,1025.4375 Q420.4388,1025.7656 419.9388,1026.5156 Q419.4544,1027.2656 419.4544,1028.2969 L419.4544,1029.3906 Q419.4544,1030.625 420.345,1031.4531 Q421.2356,1032.2656 422.8294,1032.2656 Q423.7669,1032.2656 424.4231,1032.0156 Q424.8138,1031.8594 425.2356,1031.4219 Q425.5013,1031.1563 425.6419,1031.0781 Q425.7981,1031 426.0013,1031 Q426.3294,1031 426.5794,1031.2656 Q426.845,1031.5156 426.845,1031.8594 Q426.845,1032.2031 426.5013,1032.6094 Q426.0013,1033.1875 425.2044,1033.5156 Q424.1263,1033.9688 422.8294,1033.9688 Q421.3138,1033.9688 420.1106,1033.3438 Q419.1263,1032.8438 418.4388,1031.7813 Q417.7513,1030.7031 417.7513,1029.4219 L417.7513,1028.2656 Q417.7513,1026.9375 418.3606,1025.7969 Q418.9856,1024.6406 420.0794,1024.0313 Q421.1731,1023.4063 422.4075,1023.4063 Q423.1419,1023.4063 423.7825,1023.5781 Q424.4388,1023.7344 424.9856,1024.0938 Z " fill="#000000"/><text fill="#000000" font-family="sans-serif" font-size="14" lengthAdjust="spacing" textLength="30.3447" x="456.8269" y="1025.1426">Magi</text><text fill="#000000" font-family="sans-serif" font-size="14" lengthAdjust="spacing" textLength="71.5586" x="436.22" y="1042.752">(Wise Men)</text><line style="stroke:#181818;stroke-width:0.5;" x1="408.22" x2="509.7786" y1="1050.8281" y2="1050.8281"/><line style="stroke:#181818;stroke-width:0.5;" x1="408.22" x2="509.7786" y1="1058.8281" y2="1058.8281"/></g><!--class Herod--><g class="entity" data-entity="Herod" data-source-line="39" data-uid="ent0027" id="entity_Herod"><rect fill="#F1F1F1" height="48" rx="2.5" ry="2.5" style="stroke:#181818;stroke-width:0.5;" width="132.3857" x="782.81" y="747.1394"/><ellipse cx="797.81" cy="763.1394" fill="#ADD1B2" rx="11" ry="11" style="stroke:#181818;stroke-width:1;"/><path d="M800.5756,759.0144 Q800.7319,758.7956 800.9194,758.6863 Q801.1069,758.5769 801.3256,758.5769 Q801.7006,758.5769 801.935,758.8425 Q802.1694,759.0925 802.1694,759.7019 L802.1694,761.155 Q802.1694,761.7644 801.935,762.03 Q801.7006,762.2956 801.3256,762.2956 Q800.9819,762.2956 800.7788,762.0925 Q800.5756,761.905 800.4663,761.3894 Q800.4194,761.03 800.2319,760.8425 Q799.9038,760.4675 799.2944,760.2488 Q798.685,760.03 798.06,760.03 Q797.2944,760.03 796.6538,760.3581 Q796.0288,760.6863 795.5288,761.4363 Q795.0444,762.1863 795.0444,763.2175 L795.0444,764.3113 Q795.0444,765.5456 795.935,766.3738 Q796.8256,767.1863 798.4194,767.1863 Q799.3569,767.1863 800.0131,766.9363 Q800.4038,766.78 800.8256,766.3425 Q801.0913,766.0769 801.2319,765.9988 Q801.3881,765.9206 801.5913,765.9206 Q801.9194,765.9206 802.1694,766.1863 Q802.435,766.4363 802.435,766.78 Q802.435,767.1238 802.0913,767.53 Q801.5913,768.1081 800.7944,768.4363 Q799.7163,768.8894 798.4194,768.8894 Q796.9038,768.8894 795.7006,768.2644 Q794.7163,767.7644 794.0288,766.7019 Q793.3413,765.6238 793.3413,764.3425 L793.3413,763.1863 Q793.3413,761.8581 793.9506,760.7175 Q794.5756,759.5613 795.6694,758.9519 Q796.7631,758.3269 797.9975,758.3269 Q798.7319,758.3269 799.3725,758.4988 Q800.0288,758.655 800.5756,759.0144 Z " fill="#000000"/><text fill="#000000" font-family="sans-serif" font-size="14" lengthAdjust="spacing" textLength="100.3857" x="811.81" y="768.8679">Herod the Great</text><line style="stroke:#181818;stroke-width:0.5;" x1="783.81" x2="914.1957" y1="779.1394" y2="779.1394"/><line style="stroke:#181818;stroke-width:0.5;" x1="783.81" x2="914.1957" y1="787.1394" y2="787.1394"/></g><!--class Archelaus--><g class="entity" data-entity="Archelaus" data-source-line="40" data-uid="ent0028" id="entity_Archelaus"><rect fill="#F1F1F1" height="48" rx="2.5" ry="2.5" style="stroke:#181818;stroke-width:0.5;" width="94.2549" x="729.87" y="1012.2194"/><ellipse cx="744.87" cy="1028.2194" fill="#ADD1B2" rx="11" ry="11" style="stroke:#181818;stroke-width:1;"/><path d="M747.6356,1024.0944 Q747.7919,1023.8756 747.9794,1023.7663 Q748.1669,1023.6569 748.3856,1023.6569 Q748.7606,1023.6569 748.995,1023.9225 Q749.2294,1024.1725 749.2294,1024.7819 L749.2294,1026.235 Q749.2294,1026.8444 748.995,1027.11 Q748.7606,1027.3756 748.3856,1027.3756 Q748.0419,1027.3756 747.8388,1027.1725 Q747.6356,1026.985 747.5263,1026.4694 Q747.4794,1026.11 747.2919,1025.9225 Q746.9638,1025.5475 746.3544,1025.3288 Q745.745,1025.11 745.12,1025.11 Q744.3544,1025.11 743.7138,1025.4381 Q743.0888,1025.7663 742.5888,1026.5163 Q742.1044,1027.2663 742.1044,1028.2975 L742.1044,1029.3913 Q742.1044,1030.6256 742.995,1031.4538 Q743.8856,1032.2663 745.4794,1032.2663 Q746.4169,1032.2663 747.0731,1032.0163 Q747.4638,1031.86 747.8856,1031.4225 Q748.1513,1031.1569 748.2919,1031.0788 Q748.4481,1031.0006 748.6513,1031.0006 Q748.9794,1031.0006 749.2294,1031.2663 Q749.495,1031.5163 749.495,1031.86 Q749.495,1032.2038 749.1513,1032.61 Q748.6513,1033.1881 747.8544,1033.5163 Q746.7763,1033.9694 745.4794,1033.9694 Q743.9638,1033.9694 742.7606,1033.3444 Q741.7763,1032.8444 741.0888,1031.7819 Q740.4013,1030.7038 740.4013,1029.4225 L740.4013,1028.2663 Q740.4013,1026.9381 741.0106,1025.7975 Q741.6356,1024.6413 742.7294,1024.0319 Q743.8231,1023.4069 745.0575,1023.4069 Q745.7919,1023.4069 746.4325,1023.5788 Q747.0888,1023.735 747.6356,1024.0944 Z " fill="#000000"/><text fill="#000000" font-family="sans-serif" font-size="14" lengthAdjust="spacing" textLength="62.2549" x="758.87" y="1033.9479">Archelaus</text><line style="stroke:#181818;stroke-width:0.5;" x1="730.87" x2="823.1249" y1="1044.2194" y2="1044.2194"/><line style="stroke:#181818;stroke-width:0.5;" x1="730.87" x2="823.1249" y1="1052.2194" y2="1052.2194"/></g><!--class Innocents--><g class="entity" data-entity="Innocents" data-source-line="41" data-uid="ent0029" id="entity_Innocents"><rect fill="#F1F1F1" height="61.2188" rx="2.5" ry="2.5" style="stroke:#181818;stroke-width:0.5;" width="124.6064" x="843.7" y="876.8394"/><ellipse cx="858.7" cy="899.4488" fill="#ADD1B2" rx="11" ry="11" style="stroke:#181818;stroke-width:1;"/><path d="M861.4656,895.3238 Q861.6219,895.105 861.8094,894.9956 Q861.9969,894.8863 862.2156,894.8863 Q862.5906,894.8863 862.825,895.1519 Q863.0594,895.4019 863.0594,896.0113 L863.0594,897.4644 Q863.0594,898.0738 862.825,898.3394 Q862.5906,898.605 862.2156,898.605 Q861.8719,898.605 861.6688,898.4019 Q861.4656,898.2144 861.3563,897.6988 Q861.3094,897.3394 861.1219,897.1519 Q860.7938,896.7769 860.1844,896.5581 Q859.575,896.3394 858.95,896.3394 Q858.1844,896.3394 857.5438,896.6675 Q856.9188,896.9956 856.4188,897.7456 Q855.9344,898.4956 855.9344,899.5269 L855.9344,900.6206 Q855.9344,901.855 856.825,902.6831 Q857.7156,903.4956 859.3094,903.4956 Q860.2469,903.4956 860.9031,903.2456 Q861.2938,903.0894 861.7156,902.6519 Q861.9813,902.3863 862.1219,902.3081 Q862.2781,902.23 862.4813,902.23 Q862.8094,902.23 863.0594,902.4956 Q863.325,902.7456 863.325,903.0894 Q863.325,903.4331 862.9813,903.8394 Q862.4813,904.4175 861.6844,904.7456 Q860.6063,905.1988 859.3094,905.1988 Q857.7938,905.1988 856.5906,904.5738 Q855.6063,904.0738 854.9188,903.0113 Q854.2313,901.9331 854.2313,900.6519 L854.2313,899.4956 Q854.2313,898.1675 854.8406,897.0269 Q855.4656,895.8706 856.5594,895.2613 Q857.6531,894.6363 858.8875,894.6363 Q859.6219,894.6363 860.2625,894.8081 Q860.9188,894.9644 861.4656,895.3238 Z " fill="#000000"/><text fill="#000000" font-family="sans-serif" font-size="14" lengthAdjust="spacing" textLength="92.6064" x="872.7" y="896.3726">Holy Innocents</text><text fill="#000000" font-family="sans-serif" font-size="14" lengthAdjust="spacing" textLength="52.1104" x="892.948" y="913.982">(0-2 yrs)</text><line style="stroke:#181818;stroke-width:0.5;" x1="844.7" x2="967.3064" y1="922.0581" y2="922.0581"/><line style="stroke:#181818;stroke-width:0.5;" x1="844.7" x2="967.3064" y1="930.0581" y2="930.0581"/></g><!--class Angels--><g class="entity" data-entity="Angels" data-source-line="42" data-uid="ent0030" id="entity_Angels"><rect fill="#F1F1F1" height="48" rx="2.5" ry="2.5" style="stroke:#181818;stroke-width:0.5;" width="145.6338" x="263.18" y="883.4494"/><ellipse cx="278.18" cy="899.4494" fill="#ADD1B2" rx="11" ry="11" style="stroke:#181818;stroke-width:1;"/><path d="M280.9456,895.3244 Q281.1019,895.1056 281.2894,894.9962 Q281.4769,894.8869 281.6956,894.8869 Q282.0706,894.8869 282.305,895.1525 Q282.5394,895.4025 282.5394,896.0119 L282.5394,897.465 Q282.5394,898.0744 282.305,898.34 Q282.0706,898.6056 281.6956,898.6056 Q281.3519,898.6056 281.1488,898.4025 Q280.9456,898.215 280.8363,897.6994 Q280.7894,897.34 280.6019,897.1525 Q280.2738,896.7775 279.6644,896.5587 Q279.055,896.34 278.43,896.34 Q277.6644,896.34 277.0238,896.6681 Q276.3988,896.9962 275.8988,897.7462 Q275.4144,898.4962 275.4144,899.5275 L275.4144,900.6212 Q275.4144,901.8556 276.305,902.6837 Q277.1956,903.4962 278.7894,903.4962 Q279.7269,903.4962 280.3831,903.2462 Q280.7738,903.09 281.1956,902.6525 Q281.4613,902.3869 281.6019,902.3087 Q281.7581,902.2306 281.9613,902.2306 Q282.2894,902.2306 282.5394,902.4962 Q282.805,902.7462 282.805,903.09 Q282.805,903.4337 282.4613,903.84 Q281.9613,904.4181 281.1644,904.7462 Q280.0863,905.1994 278.7894,905.1994 Q277.2738,905.1994 276.0706,904.5744 Q275.0863,904.0744 274.3988,903.0119 Q273.7113,901.9337 273.7113,900.6525 L273.7113,899.4962 Q273.7113,898.1681 274.3206,897.0275 Q274.9456,895.8712 276.0394,895.2619 Q277.1331,894.6369 278.3675,894.6369 Q279.1019,894.6369 279.7425,894.8087 Q280.3988,894.965 280.9456,895.3244 Z " fill="#000000"/><text fill="#000000" font-family="sans-serif" font-size="14" lengthAdjust="spacing" textLength="113.6338" x="292.18" y="905.1779">Angels of the Lord</text><line style="stroke:#181818;stroke-width:0.5;" x1="264.18" x2="407.8138" y1="915.4494" y2="915.4494"/><line style="stroke:#181818;stroke-width:0.5;" x1="264.18" x2="407.8138" y1="923.4494" y2="923.4494"/></g><!--class Bethlehem--><g class="entity" data-entity="Bethlehem" data-source-line="52" data-uid="ent0036" id="entity_Bethlehem"><rect fill="#F1F1F1" height="76.3125" rx="2.5" ry="2.5" style="stroke:#181818;stroke-width:0.5;" width="98.9307" x="651.53" y="596.6694"/><ellipse cx="666.53" cy="626.8256" fill="#ADD1B2" rx="11" ry="11" style="stroke:#181818;stroke-width:1;"/><path d="M669.2956,622.7006 Q669.4519,622.4819 669.6394,622.3725 Q669.8269,622.2631 670.0456,622.2631 Q670.4206,622.2631 670.655,622.5288 Q670.8894,622.7788 670.8894,623.3881 L670.8894,624.8413 Q670.8894,625.4506 670.655,625.7163 Q670.4206,625.9819 670.0456,625.9819 Q669.7019,625.9819 669.4988,625.7788 Q669.2956,625.5913 669.1863,625.0756 Q669.1394,624.7163 668.9519,624.5288 Q668.6238,624.1538 668.0144,623.935 Q667.405,623.7163 666.78,623.7163 Q666.0144,623.7163 665.3738,624.0444 Q664.7488,624.3725 664.2488,625.1225 Q663.7644,625.8725 663.7644,626.9038 L663.7644,627.9975 Q663.7644,629.2319 664.655,630.06 Q665.5456,630.8725 667.1394,630.8725 Q668.0769,630.8725 668.7331,630.6225 Q669.1238,630.4663 669.5456,630.0288 Q669.8113,629.7631 669.9519,629.685 Q670.1081,629.6069 670.3113,629.6069 Q670.6394,629.6069 670.8894,629.8725 Q671.155,630.1225 671.155,630.4663 Q671.155,630.81 670.8113,631.2163 Q670.3113,631.7944 669.5144,632.1225 Q668.4363,632.5756 667.1394,632.5756 Q665.6238,632.5756 664.4206,631.9506 Q663.4363,631.4506 662.7488,630.3881 Q662.0613,629.31 662.0613,628.0288 L662.0613,626.8725 Q662.0613,625.5444 662.6706,624.4038 Q663.2956,623.2475 664.3894,622.6381 Q665.4831,622.0131 666.7175,622.0131 Q667.4519,622.0131 668.0925,622.185 Q668.7488,622.3413 669.2956,622.7006 Z " fill="#000000"/><text fill="#000000" font-family="sans-serif" font-size="12" font-style="italic" lengthAdjust="spacing" textLength="54.709" x="686.6408" y="614.1264">&#171;location&#187;</text><text fill="#000000" font-family="sans-serif" font-size="14" lengthAdjust="spacing" textLength="66.9307" x="680.53" y="631.2963">Bethlehem</text><text fill="#000000" font-family="sans-serif" font-size="14" lengthAdjust="spacing" textLength="62.2549" x="682.8679" y="648.9057">Birthplace</text><line style="stroke:#181818;stroke-width:0.5;" x1="652.53" x2="749.4607" y1="656.9819" y2="656.9819"/><line style="stroke:#181818;stroke-width:0.5;" x1="652.53" x2="749.4607" y1="664.9819" y2="664.9819"/></g><!--class Egypt--><g class="entity" data-entity="Egypt" data-source-line="53" data-uid="ent0037" id="entity_Egypt"><rect fill="#F1F1F1" height="76.3125" rx="2.5" ry="2.5" style="stroke:#181818;stroke-width:0.5;" width="82.709" x="310.65" y="732.9794"/><ellipse cx="325.65" cy="763.1356" fill="#ADD1B2" rx="11" ry="11" style="stroke:#181818;stroke-width:1;"/><path d="M328.4156,759.0106 Q328.5719,758.7919 328.7594,758.6825 Q328.9469,758.5731 329.1656,758.5731 Q329.5406,758.5731 329.775,758.8388 Q330.0094,759.0888 330.0094,759.6981 L330.0094,761.1513 Q330.0094,761.7606 329.775,762.0263 Q329.5406,762.2919 329.1656,762.2919 Q328.8219,762.2919 328.6188,762.0888 Q328.4156,761.9013 328.3063,761.3856 Q328.2594,761.0263 328.0719,760.8388 Q327.7438,760.4638 327.1344,760.245 Q326.525,760.0263 325.9,760.0263 Q325.1344,760.0263 324.4938,760.3544 Q323.8688,760.6825 323.3688,761.4325 Q322.8844,762.1825 322.8844,763.2138 L322.8844,764.3075 Q322.8844,765.5419 323.775,766.37 Q324.6656,767.1825 326.2594,767.1825 Q327.1969,767.1825 327.8531,766.9325 Q328.2438,766.7763 328.6656,766.3388 Q328.9313,766.0731 329.0719,765.995 Q329.2281,765.9169 329.4313,765.9169 Q329.7594,765.9169 330.0094,766.1825 Q330.275,766.4325 330.275,766.7763 Q330.275,767.12 329.9313,767.5263 Q329.4313,768.1044 328.6344,768.4325 Q327.5563,768.8856 326.2594,768.8856 Q324.7438,768.8856 323.5406,768.2606 Q322.5563,767.7606 321.8688,766.6981 Q321.1813,765.62 321.1813,764.3388 L321.1813,763.1825 Q321.1813,761.8544 321.7906,760.7138 Q322.4156,759.5575 323.5094,758.9481 Q324.6031,758.3231 325.8375,758.3231 Q326.5719,758.3231 327.2125,758.495 Q327.8688,758.6513 328.4156,759.0106 Z " fill="#000000"/><text fill="#000000" font-family="sans-serif" font-size="12" font-style="italic" lengthAdjust="spacing" textLength="54.709" x="337.65" y="750.4364">&#171;location&#187;</text><text fill="#000000" font-family="sans-serif" font-size="14" lengthAdjust="spacing" textLength="35.7998" x="347.1046" y="767.6063">Egypt</text><text fill="#000000" font-family="sans-serif" font-size="14" lengthAdjust="spacing" textLength="45.1445" x="342.4322" y="785.2157">Refuge</text><line style="stroke:#181818;stroke-width:0.5;" x1="311.65" x2="392.359" y1="793.2919" y2="793.2919"/><line style="stroke:#181818;stroke-width:0.5;" x1="311.65" x2="392.359" y1="801.2919" y2="801.2919"/></g><!--class Nazareth--><g class="entity" data-entity="Nazareth" data-source-line="54" data-uid="ent0038" id="entity_Nazareth"><rect fill="#F1F1F1" height="76.3125" rx="2.5" ry="2.5" style="stroke:#181818;stroke-width:0.5;" width="151.0615" x="586.47" y="869.2894"/><ellipse cx="601.47" cy="899.4456" fill="#ADD1B2" rx="11" ry="11" style="stroke:#181818;stroke-width:1;"/><path d="M604.2356,895.3206 Q604.3919,895.1019 604.5794,894.9925 Q604.7669,894.8831 604.9856,894.8831 Q605.3606,894.8831 605.595,895.1488 Q605.8294,895.3988 605.8294,896.0081 L605.8294,897.4613 Q605.8294,898.0706 605.595,898.3363 Q605.3606,898.6019 604.9856,898.6019 Q604.6419,898.6019 604.4388,898.3988 Q604.2356,898.2113 604.1263,897.6956 Q604.0794,897.3363 603.8919,897.1488 Q603.5638,896.7738 602.9544,896.555 Q602.345,896.3363 601.72,896.3363 Q600.9544,896.3363 600.3138,896.6644 Q599.6888,896.9925 599.1888,897.7425 Q598.7044,898.4925 598.7044,899.5238 L598.7044,900.6175 Q598.7044,901.8519 599.595,902.68 Q600.4856,903.4925 602.0794,903.4925 Q603.0169,903.4925 603.6731,903.2425 Q604.0638,903.0863 604.4856,902.6488 Q604.7513,902.3831 604.8919,902.305 Q605.0481,902.2269 605.2513,902.2269 Q605.5794,902.2269 605.8294,902.4925 Q606.095,902.7425 606.095,903.0863 Q606.095,903.43 605.7513,903.8363 Q605.2513,904.4144 604.4544,904.7425 Q603.3763,905.1956 602.0794,905.1956 Q600.5638,905.1956 599.3606,904.5706 Q598.3763,904.0706 597.6888,903.0081 Q597.0013,901.93 597.0013,900.6488 L597.0013,899.4925 Q597.0013,898.1644 597.6106,897.0238 Q598.2356,895.8675 599.3294,895.2581 Q600.4231,894.6331 601.6575,894.6331 Q602.3919,894.6331 603.0325,894.805 Q603.6888,894.9613 604.2356,895.3206 Z " fill="#000000"/><text fill="#000000" font-family="sans-serif" font-size="12" font-style="italic" lengthAdjust="spacing" textLength="54.709" x="647.6463" y="886.7464">&#171;location&#187;</text><text fill="#000000" font-family="sans-serif" font-size="14" lengthAdjust="spacing" textLength="119.0615" x="615.47" y="903.9163">Nazareth in Galilee</text><text fill="#000000" font-family="sans-serif" font-size="14" lengthAdjust="spacing" textLength="66.9238" x="641.5388" y="921.5257">Settlement</text><line style="stroke:#181818;stroke-width:0.5;" x1="587.47" x2="736.5315" y1="929.6019" y2="929.6019"/><line style="stroke:#181818;stroke-width:0.5;" x1="587.47" x2="736.5315" y1="937.6019" y2="937.6019"/></g><g class="entity" data-entity="GMN52" data-source-line="75" data-uid="ent0053" id="entity_GMN52"><path d="M617.17,477.6094 L617.17,536.6641 A0,0 0 0 0 617.17,536.6641 L697,536.6641 L701,596.3494 L705,536.6641 L784.8326,536.6641 A0,0 0 0 0 784.8326,536.6641 L784.8326,487.6094 L774.8326,477.6094 L617.17,477.6094 A0,0 0 0 0 617.17,477.6094" fill="#FEFFDD" style="stroke:#181818;stroke-width:0.5;"/><path d="M774.8326,477.6094 L774.8326,487.6094 L784.8326,487.6094 L774.8326,477.6094" fill="#FEFFDD" style="stroke:#181818;stroke-width:0.5;"/><text fill="#000000" font-family="sans-serif" font-size="13" lengthAdjust="spacing" textLength="86.6963" x="623.17" y="496.1045">- Birth of Jesus</text><text fill="#000000" font-family="sans-serif" font-size="13" lengthAdjust="spacing" textLength="78.7427" x="623.17" y="512.4561">- Visit of Magi</text><text fill="#000000" font-family="sans-serif" font-size="13" lengthAdjust="spacing" textLength="146.6626" x="623.17" y="528.8076">- Herod plots &amp; Massacre</text></g><g class="entity" data-entity="GMN55" data-source-line="81" data-uid="ent0056" id="entity_GMN55"><path d="M251.63,613.4694 L251.63,656.1725 A0,0 0 0 0 251.63,656.1725 L334.22,656.1725 L338.22,732.6094 L342.22,656.1725 L452.3766,656.1725 A0,0 0 0 0 452.3766,656.1725 L452.3766,623.4694 L442.3766,613.4694 L251.63,613.4694 A0,0 0 0 0 251.63,613.4694" fill="#FEFFDD" style="stroke:#181818;stroke-width:0.5;"/><path d="M442.3766,613.4694 L442.3766,623.4694 L452.3766,623.4694 L442.3766,613.4694" fill="#FEFFDD" style="stroke:#181818;stroke-width:0.5;"/><text fill="#000000" font-family="sans-serif" font-size="13" lengthAdjust="spacing" textLength="106.9072" x="257.63" y="631.9645">- Holy Family flees</text><text fill="#000000" font-family="sans-serif" font-size="13" lengthAdjust="spacing" textLength="179.7466" x="257.63" y="648.3161">- "Out of Egypt I called my son"</text></g><g class="entity" data-entity="GMN58" data-source-line="86" data-uid="ent0059" id="entity_GMN58"><path d="M536.2,749.7894 L536.2,792.4925 A0,0 0 0 0 536.2,792.4925 L658,792.4925 L662,868.9194 L666,792.4925 L747.8074,792.4925 A0,0 0 0 0 747.8074,792.4925 L747.8074,759.7894 L737.8074,749.7894 L536.2,749.7894 A0,0 0 0 0 536.2,749.7894" fill="#FEFFDD" style="stroke:#181818;stroke-width:0.5;"/><path d="M737.8074,749.7894 L737.8074,759.7894 L747.8074,759.7894 L737.8074,749.7894" fill="#FEFFDD" style="stroke:#181818;stroke-width:0.5;"/><text fill="#000000" font-family="sans-serif" font-size="13" lengthAdjust="spacing" textLength="117.019" x="542.2" y="768.2845">- Holy Family settles</text><text fill="#000000" font-family="sans-serif" font-size="13" lengthAdjust="spacing" textLength="190.6074" x="542.2" y="784.6361">- "He shall be called a Nazarene"</text></g><!--link Abraham to Isaac--><g class="link" data-entity-1="Abraham" data-entity-2="Isaac" data-source-line="20" data-uid="lnk13" id="link_Abraham_Isaac"><path codeLine="20" d="M96,93.8494 C96,111.6394 96,129.6894 96,147.4594" fill="none" id="Abraham-to-Isaac" style="stroke:#181818;stroke-width:1;"/><polygon fill="#181818" points="96,153.4594,100,144.4594,96,148.4594,92,144.4594,96,153.4594" style="stroke:#181818;stroke-width:1;"/></g><!--link Isaac to Jacob--><g class="link" data-entity-1="Isaac" data-entity-2="Jacob" data-source-line="21" data-uid="lnk14" id="link_Isaac_Jacob"><path codeLine="21" d="M96,201.8494 C96,219.6394 96,237.6894 96,255.4594" fill="none" id="Isaac-to-Jacob" style="stroke:#181818;stroke-width:1;"/><polygon fill="#181818" points="96,261.4594,100,252.4594,96,256.4594,92,252.4594,96,261.4594" style="stroke:#181818;stroke-width:1;"/></g><!--link Jacob to Judah--><g class="link" data-entity-1="Jacob" data-entity-2="Judah" data-source-line="22" data-uid="lnk15" id="link_Jacob_Judah"><path codeLine="22" d="M96,309.8494 C96,327.6394 96,345.6894 96,363.4594" fill="none" id="Jacob-to-Judah" style="stroke:#181818;stroke-width:1;"/><polygon fill="#181818" points="96,369.4594,100,360.4594,96,364.4594,92,360.4594,96,369.4594" style="stroke:#181818;stroke-width:1;"/></g><!--link Judah to Tribal--><g class="link" data-entity-1="Judah" data-entity-2="Tribal" data-source-line="23" data-uid="lnk16" id="link_Judah_Tribal"><path codeLine="23" d="M96,417.9694 C96,437.1194 96,457.6794 96,476.8294" fill="none" id="Judah-to-Tribal" style="stroke:#181818;stroke-width:1;"/><polygon fill="#181818" points="96,482.8294,100,473.8294,96,477.8294,92,473.8294,96,482.8294" style="stroke:#181818;stroke-width:1;"/><text fill="#000000" font-family="sans-serif" font-size="13" lengthAdjust="spacing" textLength="88.8799" x="7" y="446.8945">Tribal lineage...</text></g><!--link Tribal to David--><g class="link" data-entity-1="Tribal" data-entity-2="David" data-source-line="24" data-uid="lnk17" id="link_Tribal_David"><path codeLine="24" d="M96,531.4594 C96,554.1794 96,581.9094 96,604.5994" fill="none" id="Tribal-to-David" style="stroke:#181818;stroke-width:1;"/><polygon fill="#181818" points="96,610.5994,100,601.5994,96,605.5994,92,601.5994,96,610.5994" style="stroke:#181818;stroke-width:1;"/></g><!--link David to Solomon--><g class="link" data-entity-1="David" data-entity-2="Solomon" data-source-line="25" data-uid="lnk18" id="link_David_Solomon"><path codeLine="25" d="M96,659.1994 C96,684.0094 96,716.2394 96,740.9794" fill="none" id="David-to-Solomon" style="stroke:#181818;stroke-width:1;"/><polygon fill="#181818" points="96,746.9794,100,737.9794,96,741.9794,92,737.9794,96,746.9794" style="stroke:#181818;stroke-width:1;"/></g><!--link Solomon to Royal--><g class="link" data-entity-1="Solomon" data-entity-2="Royal" data-source-line="26" data-uid="lnk19" id="link_Solomon_Royal"><path codeLine="26" d="M96,795.5094 C96,820.3194 96,852.5594 96,877.2894" fill="none" id="Solomon-to-Royal" style="stroke:#181818;stroke-width:1;"/><polygon fill="#181818" points="96,883.2894,100,874.2894,96,878.2894,92,874.2894,96,883.2894" style="stroke:#181818;stroke-width:1;"/><text fill="#000000" font-family="sans-serif" font-size="13" lengthAdjust="spacing" textLength="67.9199" x="28" y="835.8945">Royal line...</text></g><!--link Royal to Joseph--><g class="link" data-entity-1="Royal" data-entity-2="Joseph" data-source-line="27" data-uid="lnk20" id="link_Royal_Joseph"><path codeLine="27" d="M156.97,907.8794 C195.41,907.8794 237.83,907.8794 237.83,907.8794 C237.83,907.8794 237.83,961.1694 237.83,999.1494" fill="none" id="Royal-to-Joseph" style="stroke:#181818;stroke-width:1;"/><polygon fill="#181818" points="237.83,1005.1494,241.83,996.1494,237.83,1000.1494,233.83,996.1494,237.83,1005.1494" style="stroke:#181818;stroke-width:1;"/></g><!--link Joseph to Jesus--><g class="link" data-entity-1="Joseph" data-entity-2="Jesus" data-source-line="28" data-uid="lnk21" id="link_Joseph_Jesus"><path codeLine="28" d="M298,1067.0294 C298,1102.4894 298,1155.8794 298,1155.8794 C298,1155.8794 415.75,1155.8794 477.62,1155.8794" fill="none" id="Joseph-to-Jesus" style="stroke:#181818;stroke-width:1;"/><polygon fill="#181818" points="483.62,1155.8794,474.62,1151.8794,478.62,1155.8794,474.62,1159.8794,483.62,1155.8794" style="stroke:#181818;stroke-width:1;"/></g><!--link Mary to Jesus--><g class="link" data-entity-1="Mary" data-entity-2="Jesus" data-source-line="29" data-uid="lnk22" id="link_Mary_Jesus"><path codeLine="29" d="M545.08,1035.8794 C543.39,1035.8794 542.36,1035.8794 542.36,1035.8794 C542.36,1035.8794 542.36,1090.7694 542.36,1125.9694" fill="none" id="Mary-to-Jesus" style="stroke:#181818;stroke-width:1;"/><polygon fill="#181818" points="542.36,1131.9694,546.36,1122.9694,542.36,1126.9694,538.36,1122.9694,542.36,1131.9694" style="stroke:#181818;stroke-width:1;"/><text fill="#000000" font-family="sans-serif" font-size="13" lengthAdjust="spacing" textLength="40.46" x="501.36" y="1097.0645">Mother</text></g><!--link Herod to Archelaus--><g class="link" data-entity-1="Herod" data-entity-2="Archelaus" data-source-line="44" data-uid="lnk31" id="link_Herod_Archelaus"><path codeLine="44" d="M803.47,795.5994 C803.47,846.0994 803.47,955.3594 803.47,1005.8094" fill="none" id="Herod-to-Archelaus" style="stroke:#181818;stroke-width:1;"/><polygon fill="#181818" points="803.47,1011.8094,807.47,1002.8094,803.47,1006.8094,799.47,1002.8094,803.47,1011.8094" style="stroke:#181818;stroke-width:1;"/><text fill="#000000" font-family="sans-serif" font-size="13" lengthAdjust="spacing" textLength="65.0317" x="770.97" y="918.2045">Father-Son</text></g><!--link Herod to Innocents--><g class="link" data-entity-1="Herod" data-entity-2="Innocents" data-source-line="45" data-uid="lnk32" id="link_Herod_Innocents"><path codeLine="45" d="M879.44,795.5094 C879.44,818.0994 879.44,845.8194 879.44,870.3394" fill="none" id="Herod-to-Innocents" style="stroke:#181818;stroke-width:1;"/><polygon fill="#181818" points="879.44,876.3394,883.44,867.3394,879.44,871.3394,875.44,867.3394,879.44,876.3394" style="stroke:#181818;stroke-width:1;"/><text fill="#000000" font-family="sans-serif" font-size="13" lengthAdjust="spacing" textLength="130.7871" x="748.44" y="832.4245">Massacre of Innocents</text></g><!--link Magi to Jesus--><g class="link" data-entity-1="Magi" data-entity-2="Jesus" data-source-line="47" data-uid="lnk33" id="link_Magi_Jesus"><path codeLine="47" d="M497.25,1067.1494 C497.25,1087.3194 497.25,1107.2494 497.25,1125.9594" fill="none" id="Magi-to-Jesus" style="stroke:#181818;stroke-width:1;stroke-dasharray:7,7;"/><polygon fill="#181818" points="497.25,1131.9594,501.25,1122.9594,497.25,1126.9594,493.25,1122.9594,497.25,1131.9594" style="stroke:#181818;stroke-width:1;"/><text fill="#000000" font-family="sans-serif" font-size="13" lengthAdjust="spacing" textLength="47.6772" x="378.9663" y="1114.0545">Worship</text><text fill="#000000" font-family="sans-serif" font-size="13" lengthAdjust="spacing" textLength="187.1099" x="309.25" y="1130.4061">Gifts: Gold, Frankincense, Myrrh</text></g><!--link Angels to Joseph--><g class="link" data-entity-1="Angels" data-entity-2="Joseph" data-source-line="48" data-uid="lnk34" id="link_Angels_Joseph"><path codeLine="48" d="M299.44,931.6694 C299.44,952.5094 299.44,976.6894 299.44,999.2694" fill="none" id="Angels-to-Joseph" style="stroke:#181818;stroke-width:1;"/><polygon fill="#181818" points="299.44,1005.2694,303.44,996.2694,299.44,1000.2694,295.44,996.2694,299.44,1005.2694" style="stroke:#181818;stroke-width:1;"/><text fill="#000000" font-family="sans-serif" font-size="13" lengthAdjust="spacing" textLength="115.5972" x="183.44" y="964.9645">Warnings in dreams</text></g><!--link Angels to Magi--><g class="link" data-entity-1="Angels" data-entity-2="Magi" data-source-line="49" data-uid="lnk35" id="link_Angels_Magi"><path codeLine="49" d="M409.13,907.8794 C421.59,907.8794 430.6,907.8794 430.6,907.8794 C430.6,907.8794 430.6,961.1694 430.6,999.1494" fill="none" id="Angels-to-Magi" style="stroke:#181818;stroke-width:1;"/><polygon fill="#181818" points="430.6,1005.1494,434.6,996.1494,430.6,1000.1494,426.6,996.1494,430.6,1005.1494" style="stroke:#181818;stroke-width:1;"/><text fill="#000000" font-family="sans-serif" font-size="13" lengthAdjust="spacing" textLength="158.2407" x="431.6" y="960.2745">Warn not to return to Herod</text></g><!--link Bethlehem to Egypt--><g class="link" data-entity-1="Bethlehem" data-entity-2="Egypt" data-source-line="56" data-uid="lnk39" id="link_Bethlehem_Egypt"><path codeLine="56" d="M651.18,661.8794 C557.8,661.8794 365.78,661.8794 365.78,661.8794 C365.78,661.8794 365.78,695.1594 365.78,726.6194" fill="none" id="Bethlehem-to-Egypt" style="stroke:#181818;stroke-width:1;"/><polygon fill="#181818" points="365.78,732.6194,369.78,723.6194,365.78,727.6194,361.78,723.6194,365.78,732.6194" style="stroke:#181818;stroke-width:1;"/><text fill="#000000" font-family="sans-serif" font-size="13" lengthAdjust="spacing" textLength="93.2153" x="379.11" y="676.3745">Flight into Egypt</text></g><!--link Egypt to Nazareth--><g class="link" data-entity-1="Egypt" data-entity-2="Nazareth" data-source-line="57" data-uid="lnk40" id="link_Egypt_Nazareth"><path codeLine="57" d="M365.78,809.5494 C365.78,839.4394 365.78,875.8794 365.78,875.8794 C365.78,875.8794 492.34,875.8794 580.1,875.8794" fill="none" id="Egypt-to-Nazareth" style="stroke:#181818;stroke-width:1;"/><polygon fill="#181818" points="586.1,875.8794,577.1,871.8794,581.1,875.8794,577.1,879.8794,586.1,875.8794" style="stroke:#181818;stroke-width:1;"/><text fill="#000000" font-family="sans-serif" font-size="13" lengthAdjust="spacing" textLength="152.7881" x="289.78" y="872.3745">Return after Herod's death</text></g><!--link Bethlehem to Jesus--><g class="link" data-entity-1="Bethlehem" data-entity-2="Jesus" data-source-line="60" data-uid="lnk41" id="link_Bethlehem_Jesus"><path codeLine="60" d="M651.35,669.8794 C600.14,669.8794 527.72,669.8794 527.72,669.8794 C527.72,669.8794 527.72,1027.2494 527.72,1125.8994" fill="none" id="Bethlehem-to-Jesus" style="stroke:#181818;stroke-width:1;stroke-dasharray:7,7;"/><polygon fill="#181818" points="527.72,1131.8994,531.72,1122.8994,527.72,1126.8994,523.72,1122.8994,527.72,1131.8994" style="stroke:#181818;stroke-width:1;"/></g><!--link Bethlehem to Magi--><g class="link" data-entity-1="Bethlehem" data-entity-2="Magi" data-source-line="61" data-uid="lnk42" id="link_Bethlehem_Magi"><path codeLine="61" d="M651.21,665.8794 C586.47,665.8794 481.58,665.8794 481.58,665.8794 C481.58,665.8794 481.58,910.2694 481.58,999.2794" fill="none" id="Bethlehem-to-Magi" style="stroke:#181818;stroke-width:1;stroke-dasharray:7,7;"/><polygon fill="#181818" points="481.58,1005.2794,485.58,996.2794,481.58,1000.2794,477.58,996.2794,481.58,1005.2794" style="stroke:#181818;stroke-width:1;"/></g><!--link Bethlehem to Herod--><g class="link" data-entity-1="Bethlehem" data-entity-2="Herod" data-source-line="62" data-uid="lnk43" id="link_Bethlehem_Herod"><path codeLine="62" d="M750.62,634.8794 C793.97,634.8794 850.01,634.8794 850.01,634.8794 C850.01,634.8794 850.01,701.5894 850.01,740.7794" fill="none" id="Bethlehem-to-Herod" style="stroke:#181818;stroke-width:1;stroke-dasharray:7,7;"/><polygon fill="#181818" points="850.01,746.7794,854.01,737.7794,850.01,741.7794,846.01,737.7794,850.01,746.7794" style="stroke:#181818;stroke-width:1;"/></g><!--link Egypt to Jesus--><g class="link" data-entity-1="Egypt" data-entity-2="Jesus" data-source-line="64" data-uid="lnk44" id="link_Egypt_Jesus"><path codeLine="64" d="M393.77,804.8794 C443.31,804.8794 519.25,804.8794 519.25,804.8794 C519.25,804.8794 519.25,1046.2094 519.25,1125.9194" fill="none" id="Egypt-to-Jesus" style="stroke:#181818;stroke-width:1;stroke-dasharray:7,7;"/><polygon fill="#181818" points="519.25,1131.9194,523.25,1122.9194,519.25,1126.9194,515.25,1122.9194,519.25,1131.9194" style="stroke:#181818;stroke-width:1;"/></g><!--link Egypt to Mary--><g class="link" data-entity-1="Egypt" data-entity-2="Mary" data-source-line="65" data-uid="lnk45" id="link_Egypt_Mary"><path codeLine="65" d="M393.76,799.8794 C456.03,799.8794 565.96,799.8794 565.96,799.8794 C565.96,799.8794 565.96,945.4294 565.96,1005.8094" fill="none" id="Egypt-to-Mary" style="stroke:#181818;stroke-width:1;stroke-dasharray:7,7;"/><polygon fill="#181818" points="565.96,1011.8094,569.96,1002.8094,565.96,1006.8094,561.96,1002.8094,565.96,1011.8094" style="stroke:#181818;stroke-width:1;"/></g><!--link Egypt to Joseph--><g class="link" data-entity-1="Egypt" data-entity-2="Joseph" data-source-line="66" data-uid="lnk46" id="link_Egypt_Joseph"><path codeLine="66" d="M310.23,801.8794 C284.89,801.8794 257.4,801.8794 257.4,801.8794 C257.4,801.8794 257.4,936.0594 257.4,999.5794" fill="none" id="Egypt-to-Joseph" style="stroke:#181818;stroke-width:1;stroke-dasharray:7,7;"/><polygon fill="#181818" points="257.4,1005.5794,261.4,996.5794,257.4,1000.5794,253.4,996.5794,257.4,1005.5794" style="stroke:#181818;stroke-width:1;"/></g><!--link Egypt to Angels--><g class="link" data-entity-1="Egypt" data-entity-2="Angels" data-source-line="67" data-uid="lnk47" id="link_Egypt_Angels"><path codeLine="67" d="M338.22,809.4694 C338.22,833.0894 338.22,856.6694 338.22,877.1194" fill="none" id="Egypt-to-Angels" style="stroke:#181818;stroke-width:1;stroke-dasharray:7,7;"/><polygon fill="#181818" points="338.22,883.1194,342.22,874.1194,338.22,878.1194,334.22,874.1194,338.22,883.1194" style="stroke:#181818;stroke-width:1;"/></g><!--link Nazareth to Jesus--><g class="link" data-entity-1="Nazareth" data-entity-2="Jesus" data-source-line="69" data-uid="lnk48" id="link_Nazareth_Jesus"><path codeLine="69" d="M586.02,940.8794 C560.92,940.8794 539.28,940.8794 539.28,940.8794 C539.28,940.8794 539.28,1069.6994 539.28,1126.0494" fill="none" id="Nazareth-to-Jesus" style="stroke:#181818;stroke-width:1;stroke-dasharray:7,7;"/><polygon fill="#181818" points="539.28,1132.0494,543.28,1123.0494,539.28,1127.0494,535.28,1123.0494,539.28,1132.0494" style="stroke:#181818;stroke-width:1;"/></g><!--link Nazareth to Mary--><g class="link" data-entity-1="Nazareth" data-entity-2="Mary" data-source-line="70" data-uid="lnk49" id="link_Nazareth_Mary"><path codeLine="70" d="M597.51,946.0794 C597.51,967.4194 597.51,987.2694 597.51,1005.8094" fill="none" id="Nazareth-to-Mary" style="stroke:#181818;stroke-width:1;stroke-dasharray:7,7;"/><polygon fill="#181818" points="597.51,1011.8094,601.51,1002.8094,597.51,1006.8094,593.51,1002.8094,597.51,1011.8094" style="stroke:#181818;stroke-width:1;"/></g><!--link Nazareth to Joseph--><g class="link" data-entity-1="Nazareth" data-entity-2="Joseph" data-source-line="71" data-uid="lnk50" id="link_Nazareth_Joseph"><path codeLine="71" d="M586.32,935.8794 C489.93,935.8794 335.7,935.8794 335.7,935.8794 C335.7,935.8794 335.7,969.8094 335.7,999.2894" fill="none" id="Nazareth-to-Joseph" style="stroke:#181818;stroke-width:1;stroke-dasharray:7,7;"/><polygon fill="#181818" points="335.7,1005.2894,339.7,996.2894,335.7,1000.2894,331.7,996.2894,335.7,1005.2894" style="stroke:#181818;stroke-width:1;"/></g><!--link Nazareth to Archelaus--><g class="link" data-entity-1="Nazareth" data-entity-2="Archelaus" data-source-line="72" data-uid="lnk51" id="link_Nazareth_Archelaus"><path codeLine="72" d="M733.7,946.0794 C733.7,967.4194 733.7,987.2694 733.7,1005.8094" fill="none" id="Nazareth-to-Archelaus" style="stroke:#181818;stroke-width:1;stroke-dasharray:7,7;"/><polygon fill="#181818" points="733.7,1011.8094,737.7,1002.8094,733.7,1006.8094,729.7,1002.8094,733.7,1011.8094" style="stroke:#181818;stroke-width:1;"/><text fill="#000000" font-family="sans-serif" font-size="13" lengthAdjust="spacing" textLength="122.1416" x="610.7" y="975.4445">Joseph avoids Judea</text></g><!--SRC=[TLN1RkCs4BtpAmOvxCP0R7HpD3O1cctY91ktHL9qBxxGqaWaIf42IMUXVds7GucIj-r58jyC7uTlXiEeeq7uuhgZjbZ33YrAuze1Fi2zz6Q05zqWFBkJjpY0Q-0Pmod0vLx6gF0xV5fVhuG8VsdRIoyxC4GJXnx1-QYS41_XvkPcGNlvfhlUw4RJPert7HIYLV8KbP4XmCNFHo-Lx2v01XZ7a-afI5cnWKSJ_2mhTsIOHmK-rL9bE8qc-1Vvhck6UJJ1RywupbasZED2v0Bswc0l7q_XA6sTjDXBFwmoELidtuGpd0Q580cNdTCeIVExaHKgPshqm5uOe74UICw-9u5QaitBg9qD4yiVNX-beQoGe2qoNOOcXrSt_61dH8XHHbYlRqVb-ClpB1b_yvoruY_FnrstPN-J-JURpOKOeUINnUGlpoSDnpzZES3j56bYOfeyvTspcFcN4LOigJbFYMBlg7Iy4DP51AzR5Kk52e0zXg2bkeAlshR9GCva_9viTyvRq1RkC2g32hjSqN2z_RGYyyF9DDgO3Yqpzjxr2YkDGI1bFcqtLVPNkXLFjjPqufCquRochvSblPUjflBvfWDIQ7Or5aYh9uT7zAxc87SUPMGxO-LI-4gXaMCLbLbPxqoAnRgAmWwqrK_hQnXyo3iLGs6pBLB0eoulpkVxa64XSZH9xR8HAVuWa-BhDyhfx52eKqg8MrOU4- -yfKZdXCrcJjqtvuFI_S7kT1F35dPq2wxWmKjBhOGM1Ro2_U2z4cESSs6arT9RIcf8AQn9h2uitNYpx9Ho1T61nqWTB8soegKlkTRBNkcAIc_lth7ZOoooLWhaOEyqjRG-NLaMQYwTpv-Dg_YQtjvEw-xReOy7-uhDQRo6ZFodxw_oRqa1gdIQdJJQ81xi6qRgp2aUNbrypWZ474GwUDw2icJuBcXBvsLCP4loAKHRUCsYo2PI_s5TFWQegVJKfC_zE-ln0RuewkuL-GNeoVbb386LccCe2Vu1uoe_XyOqvBZcTVESM-V2d7l234nrMiupavn1p7FkbAdEi6MDZrKctvsk-Tb0ERQOwFfKr-Kar2dMm6Mnx3jh-5C77VC3GGTFIBuilN6ivdH95jraoPzJnilIbNwGdQPVGsMHwIz-EyNY1qz0nMlejUW62FHs_G_fTDn_yGOkj97v4I4eeeCZJhHoN6fnGVqF]--></g></svg>