<svg xmlns="http://www.w3.org/2000/svg" xmlns:xlink="http://www.w3.org/1999/xlink" contentStyleType="text/css" data-diagram-type="CLASS" height="1147px" preserveAspectRatio="none" style="width:975px;height:1147px;background:#FFFFFF;" version="1.1" viewBox="0 0 975 1147" width="975px" zoomAndPan="magnify"><title>Color-Coded Genealogy &amp; Journey of Jesus (Matthew 1-2)</title><defs/><g><g class="title" data-source-line="1"><text fill="#000000" font-family="sans-serif" font-size="14" font-weight="bold" lengthAdjust="spacing" textLength="386.6133" x="287.3466" y="24.5332">Color-Coded Genealogy &amp; Journey of Jesus (Matthew 1-2)</text></g><!--class Abraham--><g class="entity" data-entity="Abraham" data-source-line="15" data-uid="ent0002" id="entity_Abraham"><rect fill="#ADD8E6" height="48" rx="2.5" ry="2.5" style="stroke:#181818;stroke-width:0.5;" width="88.8066" x="51.6" y="45.6094"/><ellipse cx="66.6" cy="61.6094" fill="#ADD1B2" rx="11" ry="11" style="stroke:#181818;stroke-width:1;"/><path d="M69.3656,57.4844 Q69.5219,57.2656 69.7094,57.1563 Q69.8969,57.0469 70.1156,57.0469 Q70.4906,57.0469 70.725,57.3125 Q70.9594,57.5625 70.9594,58.1719 L70.9594,59.625 Q70.9594,60.2344 70.725,60.5 Q70.4906,60.7656 70.1156,60.7656 Q69.7719,60.7656 69.5688,60.5625 Q69.3656,60.375 69.2563,59.8594 Q69.2094,59.5 69.0219,59.3125 Q68.6938,58.9375 68.0844,58.7188 Q67.475,58.5 66.85,58.5 Q66.0844,58.5 65.4438,58.8281 Q64.8188,59.1563 64.3188,59.9063 Q63.8344,60.6563 63.8344,61.6875 L63.8344,62.7813 Q63.8344,64.0156 64.725,64.8438 Q65.6156,65.6563 67.2094,65.6563 Q68.1469,65.6563 68.8031,65.4063 Q69.1938,65.25 69.6156,64.8125 Q69.8813,64.5469 70.0219,64.4688 Q70.1781,64.3906 70.3813,64.3906 Q70.7094,64.3906 70.9594,64.6563 Q71.225,64.9063 71.225,65.25 Q71.225,65.5938 70.8813,66 Q70.3813,66.5781 69.5844,66.9063 Q68.5063,67.3594 67.2094,67.3594 Q65.6938,67.3594 64.4906,66.7344 Q63.5062,66.2344 62.8187,65.1719 Q62.1312,64.0938 62.1312,62.8125 L62.1312,61.6563 Q62.1312,60.3281 62.7406,59.1875 Q63.3656,58.0313 64.4594,57.4219 Q65.5531,56.7969 66.7875,56.7969 Q67.5219,56.7969 68.1625,56.9688 Q68.8188,57.125 69.3656,57.4844 Z " fill="#000000"/><text fill="#000000" font-family="sans-serif" font-size="14" lengthAdjust="spacing" textLength="56.8066" x="80.6" y="67.3379">Abraham</text><line style="stroke:#181818;stroke-width:0.5;" x1="52.6" x2="139.4066" y1="77.6094" y2="77.6094"/><line style="stroke:#181818;stroke-width:0.5;" x1="52.6" x2="139.4066" y1="85.6094" y2="85.6094"/></g><!--class Isaac--><g class="entity" data-entity="Isaac" data-source-line="16" data-uid="ent0003" id="entity_Isaac"><rect fill="#ADD8E6" height="48" rx="2.5" ry="2.5" style="stroke:#181818;stroke-width:0.5;" width="65.4619" x="63.27" y="153.6094"/><ellipse cx="78.27" cy="169.6094" fill="#ADD1B2" rx="11" ry="11" style="stroke:#181818;stroke-width:1;"/><path d="M81.0356,165.4844 Q81.1919,165.2656 81.3794,165.1563 Q81.5669,165.0469 81.7856,165.0469 Q82.1606,165.0469 82.395,165.3125 Q82.6294,165.5625 82.6294,166.1719 L82.6294,167.625 Q82.6294,168.2344 82.395,168.5 Q82.1606,168.7656 81.7856,168.7656 Q81.4419,168.7656 81.2388,168.5625 Q81.0356,168.375 80.9263,167.8594 Q80.8794,167.5 80.6919,167.3125 Q80.3638,166.9375 79.7544,166.7188 Q79.145,166.5 78.52,166.5 Q77.7544,166.5 77.1138,166.8281 Q76.4888,167.1563 75.9888,167.9063 Q75.5044,168.6563 75.5044,169.6875 L75.5044,170.7813 Q75.5044,172.0156 76.395,172.8438 Q77.2856,173.6563 78.8794,173.6563 Q79.8169,173.6563 80.4731,173.4063 Q80.8638,173.25 81.2856,172.8125 Q81.5513,172.5469 81.6919,172.4688 Q81.8481,172.3906 82.0513,172.3906 Q82.3794,172.3906 82.6294,172.6563 Q82.895,172.9063 82.895,173.25 Q82.895,173.5938 82.5513,174 Q82.0513,174.5781 81.2544,174.9063 Q80.1763,175.3594 78.8794,175.3594 Q77.3638,175.3594 76.1606,174.7344 Q75.1763,174.2344 74.4888,173.1719 Q73.8013,172.0938 73.8013,170.8125 L73.8013,169.6563 Q73.8013,168.3281 74.4106,167.1875 Q75.0356,166.0313 76.1294,165.4219 Q77.2231,164.7969 78.4575,164.7969 Q79.1919,164.7969 79.8325,164.9688 Q80.4888,165.125 81.0356,165.4844 Z " fill="#000000"/><text fill="#000000" font-family="sans-serif" font-size="14" lengthAdjust="spacing" textLength="33.4619" x="92.27" y="175.3379">Isaac</text><line style="stroke:#181818;stroke-width:0.5;" x1="64.27" x2="127.7319" y1="185.6094" y2="185.6094"/><line style="stroke:#181818;stroke-width:0.5;" x1="64.27" x2="127.7319" y1="193.6094" y2="193.6094"/></g><!--class Jacob--><g class="entity" data-entity="Jacob" data-source-line="17" data-uid="ent0004" id="entity_Jacob"><rect fill="#ADD8E6" height="48" rx="2.5" ry="2.5" style="stroke:#181818;stroke-width:0.5;" width="69.3584" x="61.32" y="261.6094"/><ellipse cx="76.32" cy="277.6094" fill="#ADD1B2" rx="11" ry="11" style="stroke:#181818;stroke-width:1;"/><path d="M79.0856,273.4844 Q79.2419,273.2656 79.4294,273.1563 Q79.6169,273.0469 79.8356,273.0469 Q80.2106,273.0469 80.445,273.3125 Q80.6794,273.5625 80.6794,274.1719 L80.6794,275.625 Q80.6794,276.2344 80.445,276.5 Q80.2106,276.7656 79.8356,276.7656 Q79.4919,276.7656 79.2888,276.5625 Q79.0856,276.375 78.9763,275.8594 Q78.9294,275.5 78.7419,275.3125 Q78.4138,274.9375 77.8044,274.7188 Q77.195,274.5 76.57,274.5 Q75.8044,274.5 75.1638,274.8281 Q74.5388,275.1563 74.0388,275.9063 Q73.5544,276.6563 73.5544,277.6875 L73.5544,278.7813 Q73.5544,280.0156 74.445,280.8438 Q75.3356,281.6563 76.9294,281.6563 Q77.8669,281.6563 78.5231,281.4063 Q78.9138,281.25 79.3356,280.8125 Q79.6013,280.5469 79.7419,280.4688 Q79.8981,280.3906 80.1013,280.3906 Q80.4294,280.3906 80.6794,280.6563 Q80.945,280.9063 80.945,281.25 Q80.945,281.5938 80.6013,282 Q80.1013,282.5781 79.3044,282.9063 Q78.2263,283.3594 76.9294,283.3594 Q75.4138,283.3594 74.2106,282.7344 Q73.2263,282.2344 72.5388,281.1719 Q71.8513,280.0938 71.8513,278.8125 L71.8513,277.6563 Q71.8513,276.3281 72.4606,275.1875 Q73.0856,274.0313 74.1794,273.4219 Q75.2731,272.7969 76.5075,272.7969 Q77.2419,272.7969 77.8825,272.9688 Q78.5388,273.125 79.0856,273.4844 Z " fill="#000000"/><text fill="#000000" font-family="sans-serif" font-size="14" lengthAdjust="spacing" textLength="37.3584" x="90.32" y="283.3379">Jacob</text><line style="stroke:#181818;stroke-width:0.5;" x1="62.32" x2="129.6784" y1="293.6094" y2="293.6094"/><line style="stroke:#181818;stroke-width:0.5;" x1="62.32" x2="129.6784" y1="301.6094" y2="301.6094"/></g><!--class Judah--><g class="entity" data-entity="Judah" data-source-line="18" data-uid="ent0005" id="entity_Judah"><rect fill="#ADD8E6" height="48" rx="2.5" ry="2.5" style="stroke:#181818;stroke-width:0.5;" width="70.1445" x="60.93" y="369.6094"/><ellipse cx="75.93" cy="385.6094" fill="#ADD1B2" rx="11" ry="11" style="stroke:#181818;stroke-width:1;"/><path d="M78.6956,381.4844 Q78.8519,381.2656 79.0394,381.1563 Q79.2269,381.0469 79.4456,381.0469 Q79.8206,381.0469 80.055,381.3125 Q80.2894,381.5625 80.2894,382.1719 L80.2894,383.625 Q80.2894,384.2344 80.055,384.5 Q79.8206,384.7656 79.4456,384.7656 Q79.1019,384.7656 78.8988,384.5625 Q78.6956,384.375 78.5863,383.8594 Q78.5394,383.5 78.3519,383.3125 Q78.0238,382.9375 77.4144,382.7188 Q76.805,382.5 76.18,382.5 Q75.4144,382.5 74.7738,382.8281 Q74.1488,383.1563 73.6488,383.9063 Q73.1644,384.6563 73.1644,385.6875 L73.1644,386.7813 Q73.1644,388.0156 74.055,388.8438 Q74.9456,389.6563 76.5394,389.6563 Q77.4769,389.6563 78.1331,389.4063 Q78.5238,389.25 78.9456,388.8125 Q79.2113,388.5469 79.3519,388.4688 Q79.5081,388.3906 79.7113,388.3906 Q80.0394,388.3906 80.2894,388.6563 Q80.555,388.9063 80.555,389.25 Q80.555,389.5938 80.2113,390 Q79.7113,390.5781 78.9144,390.9063 Q77.8363,391.3594 76.5394,391.3594 Q75.0238,391.3594 73.8206,390.7344 Q72.8363,390.2344 72.1488,389.1719 Q71.4613,388.0938 71.4613,386.8125 L71.4613,385.6563 Q71.4613,384.3281 72.0706,383.1875 Q72.6956,382.0313 73.7894,381.4219 Q74.8831,380.7969 76.1175,380.7969 Q76.8519,380.7969 77.4925,380.9688 Q78.1488,381.125 78.6956,381.4844 Z " fill="#000000"/><text fill="#000000" font-family="sans-serif" font-size="14" lengthAdjust="spacing" textLength="38.1445" x="89.93" y="391.3379">Judah</text><line style="stroke:#181818;stroke-width:0.5;" x1="61.93" x2="130.0745" y1="401.6094" y2="401.6094"/><line style="stroke:#181818;stroke-width:0.5;" x1="61.93" x2="130.0745" y1="409.6094" y2="409.6094"/></g><!--class David--><g class="entity" data-entity="David" data-source-line="19" data-uid="ent0006" id="entity_David"><rect fill="#ADD8E6" height="48" rx="2.5" ry="2.5" style="stroke:#181818;stroke-width:0.5;" width="67.793" x="62.1" y="603.2694"/><ellipse cx="77.1" cy="619.2694" fill="#ADD1B2" rx="11" ry="11" style="stroke:#181818;stroke-width:1;"/><path d="M79.8656,615.1444 Q80.0219,614.9256 80.2094,614.8163 Q80.3969,614.7069 80.6156,614.7069 Q80.9906,614.7069 81.225,614.9725 Q81.4594,615.2225 81.4594,615.8319 L81.4594,617.285 Q81.4594,617.8944 81.225,618.16 Q80.9906,618.4256 80.6156,618.4256 Q80.2719,618.4256 80.0688,618.2225 Q79.8656,618.035 79.7563,617.5194 Q79.7094,617.16 79.5219,616.9725 Q79.1938,616.5975 78.5844,616.3788 Q77.975,616.16 77.35,616.16 Q76.5844,616.16 75.9438,616.4881 Q75.3188,616.8163 74.8188,617.5663 Q74.3344,618.3163 74.3344,619.3475 L74.3344,620.4413 Q74.3344,621.6756 75.225,622.5038 Q76.1156,623.3163 77.7094,623.3163 Q78.6469,623.3163 79.3031,623.0663 Q79.6938,622.91 80.1156,622.4725 Q80.3813,622.2069 80.5219,622.1288 Q80.6781,622.0506 80.8813,622.0506 Q81.2094,622.0506 81.4594,622.3163 Q81.725,622.5663 81.725,622.91 Q81.725,623.2538 81.3813,623.66 Q80.8813,624.2381 80.0844,624.5663 Q79.0063,625.0194 77.7094,625.0194 Q76.1938,625.0194 74.9906,624.3944 Q74.0063,623.8944 73.3188,622.8319 Q72.6313,621.7538 72.6313,620.4725 L72.6313,619.3163 Q72.6313,617.9881 73.2406,616.8475 Q73.8656,615.6913 74.9594,615.0819 Q76.0531,614.4569 77.2875,614.4569 Q78.0219,614.4569 78.6625,614.6288 Q79.3188,614.785 79.8656,615.1444 Z " fill="#000000"/><text fill="#000000" font-family="sans-serif" font-size="14" lengthAdjust="spacing" textLength="35.793" x="91.1" y="624.9979">David</text><line style="stroke:#181818;stroke-width:0.5;" x1="63.1" x2="128.893" y1="635.2694" y2="635.2694"/><line style="stroke:#181818;stroke-width:0.5;" x1="63.1" x2="128.893" y1="643.2694" y2="643.2694"/></g><!--class Solomon--><g class="entity" data-entity="Solomon" data-source-line="20" data-uid="ent0007" id="entity_Solomon"><rect fill="#ADD8E6" height="48" rx="2.5" ry="2.5" style="stroke:#181818;stroke-width:0.5;" width="87.2549" x="52.37" y="724.4894"/><ellipse cx="67.37" cy="740.4894" fill="#ADD1B2" rx="11" ry="11" style="stroke:#181818;stroke-width:1;"/><path d="M70.1356,736.3644 Q70.2919,736.1456 70.4794,736.0363 Q70.6669,735.9269 70.8856,735.9269 Q71.2606,735.9269 71.495,736.1925 Q71.7294,736.4425 71.7294,737.0519 L71.7294,738.505 Q71.7294,739.1144 71.495,739.38 Q71.2606,739.6456 70.8856,739.6456 Q70.5419,739.6456 70.3388,739.4425 Q70.1356,739.255 70.0263,738.7394 Q69.9794,738.38 69.7919,738.1925 Q69.4638,737.8175 68.8544,737.5988 Q68.245,737.38 67.62,737.38 Q66.8544,737.38 66.2138,737.7081 Q65.5888,738.0363 65.0888,738.7863 Q64.6044,739.5363 64.6044,740.5675 L64.6044,741.6613 Q64.6044,742.8956 65.495,743.7238 Q66.3856,744.5363 67.9794,744.5363 Q68.9169,744.5363 69.5731,744.2863 Q69.9638,744.13 70.3856,743.6925 Q70.6513,743.4269 70.7919,743.3488 Q70.9481,743.2706 71.1513,743.2706 Q71.4794,743.2706 71.7294,743.5363 Q71.995,743.7863 71.995,744.13 Q71.995,744.4738 71.6513,744.88 Q71.1513,745.4581 70.3544,745.7863 Q69.2763,746.2394 67.9794,746.2394 Q66.4638,746.2394 65.2606,745.6144 Q64.2763,745.1144 63.5888,744.0519 Q62.9013,742.9738 62.9013,741.6925 L62.9013,740.5363 Q62.9013,739.2081 63.5106,738.0675 Q64.1356,736.9113 65.2294,736.3019 Q66.3231,735.6769 67.5575,735.6769 Q68.2919,735.6769 68.9325,735.8488 Q69.5888,736.005 70.1356,736.3644 Z " fill="#000000"/><text fill="#000000" font-family="sans-serif" font-size="14" lengthAdjust="spacing" textLength="55.2549" x="81.37" y="746.2179">Solomon</text><line style="stroke:#181818;stroke-width:0.5;" x1="53.37" x2="138.6249" y1="756.4894" y2="756.4894"/><line style="stroke:#181818;stroke-width:0.5;" x1="53.37" x2="138.6249" y1="764.4894" y2="764.4894"/></g><!--class Joseph--><g class="entity" data-entity="Joseph" data-source-line="21" data-uid="ent0008" id="entity_Joseph"><rect fill="#90EE90" height="61.2188" rx="2.5" ry="2.5" style="stroke:#181818;stroke-width:0.5;" width="147.9307" x="224.03" y="960.3194"/><ellipse cx="239.03" cy="982.9288" fill="#ADD1B2" rx="11" ry="11" style="stroke:#181818;stroke-width:1;"/><path d="M241.7956,978.8038 Q241.9519,978.585 242.1394,978.4756 Q242.3269,978.3663 242.5456,978.3663 Q242.9206,978.3663 243.155,978.6319 Q243.3894,978.8819 243.3894,979.4913 L243.3894,980.9444 Q243.3894,981.5538 243.155,981.8194 Q242.9206,982.085 242.5456,982.085 Q242.2019,982.085 241.9988,981.8819 Q241.7956,981.6944 241.6863,981.1788 Q241.6394,980.8194 241.4519,980.6319 Q241.1238,980.2569 240.5144,980.0381 Q239.905,979.8194 239.28,979.8194 Q238.5144,979.8194 237.8738,980.1475 Q237.2488,980.4756 236.7488,981.2256 Q236.2644,981.9756 236.2644,983.0069 L236.2644,984.1006 Q236.2644,985.335 237.155,986.1631 Q238.0456,986.9756 239.6394,986.9756 Q240.5769,986.9756 241.2331,986.7256 Q241.6238,986.5694 242.0456,986.1319 Q242.3113,985.8663 242.4519,985.7881 Q242.6081,985.71 242.8113,985.71 Q243.1394,985.71 243.3894,985.9756 Q243.655,986.2256 243.655,986.5694 Q243.655,986.9131 243.3113,987.3194 Q242.8113,987.8975 242.0144,988.2256 Q240.9363,988.6788 239.6394,988.6788 Q238.1238,988.6788 236.9206,988.0538 Q235.9363,987.5538 235.2488,986.4913 Q234.5613,985.4131 234.5613,984.1319 L234.5613,982.9756 Q234.5613,981.6475 235.1706,980.5069 Q235.7956,979.3506 236.8894,978.7413 Q237.9831,978.1163 239.2175,978.1163 Q239.9519,978.1163 240.5925,978.2881 Q241.2488,978.4444 241.7956,978.8038 Z " fill="#000000"/><text fill="#000000" font-family="sans-serif" font-size="14" lengthAdjust="spacing" textLength="45.1445" x="288.4231" y="979.8526">Joseph</text><text fill="#000000" font-family="sans-serif" font-size="14" lengthAdjust="spacing" textLength="115.9307" x="253.03" y="997.462">(Husband of Mary)</text><line style="stroke:#181818;stroke-width:0.5;" x1="225.03" x2="370.9607" y1="1005.5381" y2="1005.5381"/><line style="stroke:#181818;stroke-width:0.5;" x1="225.03" x2="370.9607" y1="1013.5381" y2="1013.5381"/></g><!--class Mary--><g class="entity" data-entity="Mary" data-source-line="22" data-uid="ent0009" id="entity_Mary"><rect fill="#90EE90" height="48" rx="2.5" ry="2.5" style="stroke:#181818;stroke-width:0.5;" width="63.1104" x="545.44" y="966.9294"/><ellipse cx="560.44" cy="982.9294" fill="#ADD1B2" rx="11" ry="11" style="stroke:#181818;stroke-width:1;"/><path d="M563.2056,978.8044 Q563.3619,978.5856 563.5494,978.4763 Q563.7369,978.3669 563.9556,978.3669 Q564.3306,978.3669 564.565,978.6325 Q564.7994,978.8825 564.7994,979.4919 L564.7994,980.945 Q564.7994,981.5544 564.565,981.82 Q564.3306,982.0856 563.9556,982.0856 Q563.6119,982.0856 563.4088,981.8825 Q563.2056,981.695 563.0963,981.1794 Q563.0494,980.82 562.8619,980.6325 Q562.5338,980.2575 561.9244,980.0388 Q561.315,979.82 560.69,979.82 Q559.9244,979.82 559.2838,980.1481 Q558.6588,980.4763 558.1588,981.2263 Q557.6744,981.9763 557.6744,983.0075 L557.6744,984.1013 Q557.6744,985.3356 558.565,986.1638 Q559.4556,986.9763 561.0494,986.9763 Q561.9869,986.9763 562.6431,986.7263 Q563.0338,986.57 563.4556,986.1325 Q563.7213,985.8669 563.8619,985.7888 Q564.0181,985.7106 564.2213,985.7106 Q564.5494,985.7106 564.7994,985.9763 Q565.065,986.2263 565.065,986.57 Q565.065,986.9138 564.7213,987.32 Q564.2213,987.8981 563.4244,988.2263 Q562.3463,988.6794 561.0494,988.6794 Q559.5338,988.6794 558.3306,988.0544 Q557.3463,987.5544 556.6588,986.4919 Q555.9713,985.4138 555.9713,984.1325 L555.9713,982.9763 Q555.9713,981.6481 556.5806,980.5075 Q557.2056,979.3513 558.2994,978.7419 Q559.3931,978.1169 560.6275,978.1169 Q561.3619,978.1169 562.0025,978.2888 Q562.6588,978.445 563.2056,978.8044 Z " fill="#000000"/><text fill="#000000" font-family="sans-serif" font-size="14" lengthAdjust="spacing" textLength="31.1104" x="574.44" y="988.6579">Mary</text><line style="stroke:#181818;stroke-width:0.5;" x1="546.44" x2="607.5504" y1="998.9294" y2="998.9294"/><line style="stroke:#181818;stroke-width:0.5;" x1="546.44" x2="607.5504" y1="1006.9294" y2="1006.9294"/></g><!--class Jesus--><g class="entity" data-entity="Jesus" data-source-line="23" data-uid="ent0010" id="entity_Jesus"><rect fill="#008000" height="48" rx="2.5" ry="2.5" style="stroke:#181818;stroke-width:0.5;" width="68.5723" x="483.71" y="1087.0594"/><ellipse cx="498.71" cy="1103.0594" fill="#ADD1B2" rx="11" ry="11" style="stroke:#181818;stroke-width:1;"/><path d="M501.4756,1098.9344 Q501.6319,1098.7156 501.8194,1098.6063 Q502.0069,1098.4969 502.2256,1098.4969 Q502.6006,1098.4969 502.835,1098.7625 Q503.0694,1099.0125 503.0694,1099.6219 L503.0694,1101.075 Q503.0694,1101.6844 502.835,1101.95 Q502.6006,1102.2156 502.2256,1102.2156 Q501.8819,1102.2156 501.6788,1102.0125 Q501.4756,1101.825 501.3663,1101.3094 Q501.3194,1100.95 501.1319,1100.7625 Q500.8038,1100.3875 500.1944,1100.1688 Q499.585,1099.95 498.96,1099.95 Q498.1944,1099.95 497.5538,1100.2781 Q496.9288,1100.6063 496.4288,1101.3563 Q495.9444,1102.1063 495.9444,1103.1375 L495.9444,1104.2313 Q495.9444,1105.4656 496.835,1106.2938 Q497.7256,1107.1063 499.3194,1107.1063 Q500.2569,1107.1063 500.9131,1106.8563 Q501.3038,1106.7 501.7256,1106.2625 Q501.9913,1105.9969 502.1319,1105.9188 Q502.2881,1105.8406 502.4913,1105.8406 Q502.8194,1105.8406 503.0694,1106.1063 Q503.335,1106.3563 503.335,1106.7 Q503.335,1107.0438 502.9913,1107.45 Q502.4913,1108.0281 501.6944,1108.3563 Q500.6163,1108.8094 499.3194,1108.8094 Q497.8038,1108.8094 496.6006,1108.1844 Q495.6163,1107.6844 494.9288,1106.6219 Q494.2413,1105.5438 494.2413,1104.2625 L494.2413,1103.1063 Q494.2413,1101.7781 494.8506,1100.6375 Q495.4756,1099.4813 496.5694,1098.8719 Q497.6631,1098.2469 498.8975,1098.2469 Q499.6319,1098.2469 500.2725,1098.4188 Q500.9288,1098.575 501.4756,1098.9344 Z " fill="#000000"/><text fill="#000000" font-family="sans-serif" font-size="14" lengthAdjust="spacing" textLength="36.5723" x="512.71" y="1108.7879">Jesus</text><line style="stroke:#181818;stroke-width:0.5;" x1="484.71" x2="551.2823" y1="1119.0594" y2="1119.0594"/><line style="stroke:#181818;stroke-width:0.5;" x1="484.71" x2="551.2823" y1="1127.0594" y2="1127.0594"/></g><!--class Tribal--><g class="entity" data-entity="Tribal" data-source-line="26" data-uid="ent0011" id="entity_Tribal"><rect fill="#ADD8E6" height="48" rx="2.5" ry="2.5" style="stroke:#181818;stroke-width:0.5;" width="120.7236" x="35.64" y="483.1294"/><ellipse cx="50.64" cy="499.1294" fill="#ADD1B2" rx="11" ry="11" style="stroke:#181818;stroke-width:1;"/><path d="M53.4056,495.0044 Q53.5619,494.7856 53.7494,494.6763 Q53.9369,494.5669 54.1556,494.5669 Q54.5306,494.5669 54.765,494.8325 Q54.9994,495.0825 54.9994,495.6919 L54.9994,497.145 Q54.9994,497.7544 54.765,498.02 Q54.5306,498.2856 54.1556,498.2856 Q53.8119,498.2856 53.6088,498.0825 Q53.4056,497.895 53.2963,497.3794 Q53.2494,497.02 53.0619,496.8325 Q52.7338,496.4575 52.1244,496.2388 Q51.515,496.02 50.89,496.02 Q50.1244,496.02 49.4838,496.3481 Q48.8588,496.6763 48.3588,497.4263 Q47.8744,498.1763 47.8744,499.2075 L47.8744,500.3013 Q47.8744,501.5356 48.765,502.3638 Q49.6556,503.1763 51.2494,503.1763 Q52.1869,503.1763 52.8431,502.9263 Q53.2338,502.77 53.6556,502.3325 Q53.9213,502.0669 54.0619,501.9888 Q54.2181,501.9106 54.4213,501.9106 Q54.7494,501.9106 54.9994,502.1763 Q55.265,502.4263 55.265,502.77 Q55.265,503.1138 54.9213,503.52 Q54.4213,504.0981 53.6244,504.4263 Q52.5463,504.8794 51.2494,504.8794 Q49.7338,504.8794 48.5306,504.2544 Q47.5463,503.7544 46.8588,502.6919 Q46.1713,501.6138 46.1713,500.3325 L46.1713,499.1763 Q46.1713,497.8481 46.7806,496.7075 Q47.4056,495.5513 48.4994,494.9419 Q49.5931,494.3169 50.8275,494.3169 Q51.5619,494.3169 52.2025,494.4888 Q52.8588,494.645 53.4056,495.0044 Z " fill="#000000"/><text fill="#000000" font-family="sans-serif" font-size="14" lengthAdjust="spacing" textLength="88.7236" x="64.64" y="504.8579">Tribal Lineage</text><line style="stroke:#181818;stroke-width:0.5;" x1="36.64" x2="155.3636" y1="515.1294" y2="515.1294"/><line style="stroke:#181818;stroke-width:0.5;" x1="36.64" x2="155.3636" y1="523.1294" y2="523.1294"/></g><!--class Royal--><g class="entity" data-entity="Royal" data-source-line="27" data-uid="ent0012" id="entity_Royal"><rect fill="#ADD8E6" height="48" rx="2.5" ry="2.5" style="stroke:#181818;stroke-width:0.5;" width="121.5098" x="35.25" y="845.7094"/><ellipse cx="50.25" cy="861.7094" fill="#ADD1B2" rx="11" ry="11" style="stroke:#181818;stroke-width:1;"/><path d="M53.0156,857.5844 Q53.1719,857.3656 53.3594,857.2563 Q53.5469,857.1469 53.7656,857.1469 Q54.1406,857.1469 54.375,857.4125 Q54.6094,857.6625 54.6094,858.2719 L54.6094,859.725 Q54.6094,860.3344 54.375,860.6 Q54.1406,860.8656 53.7656,860.8656 Q53.4219,860.8656 53.2188,860.6625 Q53.0156,860.475 52.9063,859.9594 Q52.8594,859.6 52.6719,859.4125 Q52.3438,859.0375 51.7344,858.8188 Q51.125,858.6 50.5,858.6 Q49.7344,858.6 49.0938,858.9281 Q48.4688,859.2563 47.9688,860.0063 Q47.4844,860.7563 47.4844,861.7875 L47.4844,862.8813 Q47.4844,864.1156 48.375,864.9438 Q49.2656,865.7563 50.8594,865.7563 Q51.7969,865.7563 52.4531,865.5063 Q52.8438,865.35 53.2656,864.9125 Q53.5313,864.6469 53.6719,864.5688 Q53.8281,864.4906 54.0313,864.4906 Q54.3594,864.4906 54.6094,864.7563 Q54.875,865.0063 54.875,865.35 Q54.875,865.6938 54.5313,866.1 Q54.0313,866.6781 53.2344,867.0063 Q52.1563,867.4594 50.8594,867.4594 Q49.3438,867.4594 48.1406,866.8344 Q47.1563,866.3344 46.4688,865.2719 Q45.7813,864.1938 45.7813,862.9125 L45.7813,861.7563 Q45.7813,860.4281 46.3906,859.2875 Q47.0156,858.1313 48.1094,857.5219 Q49.2031,856.8969 50.4375,856.8969 Q51.1719,856.8969 51.8125,857.0688 Q52.4688,857.225 53.0156,857.5844 Z " fill="#000000"/><text fill="#000000" font-family="sans-serif" font-size="14" lengthAdjust="spacing" textLength="89.5098" x="64.25" y="867.4379">Royal Lineage</text><line style="stroke:#181818;stroke-width:0.5;" x1="36.25" x2="155.7598" y1="877.7094" y2="877.7094"/><line style="stroke:#181818;stroke-width:0.5;" x1="36.25" x2="155.7598" y1="885.7094" y2="885.7094"/></g><g class="entity" data-entity="GMN23" data-source-line="41" data-uid="ent0024" id="entity_GMN23"><path d="M587.41,1081.5394 L587.41,1106.5894 L552.57,1110.5894 L587.41,1114.5894 L587.41,1140.5941 A0,0 0 0 0 587.41,1140.5941 L774.598,1140.5941 A0,0 0 0 0 774.598,1140.5941 L774.598,1091.5394 L764.598,1081.5394 L587.41,1081.5394 A0,0 0 0 0 587.41,1081.5394" fill="#FEFFDD" style="stroke:#181818;stroke-width:0.5;"/><path d="M764.598,1081.5394 L764.598,1091.5394 L774.598,1091.5394 L764.598,1081.5394" fill="#FEFFDD" style="stroke:#181818;stroke-width:0.5;"/><text fill="#000000" font-family="sans-serif" font-size="13" lengthAdjust="spacing" textLength="151.0171" x="593.41" y="1100.0345">Messiah, King of the Jews</text><text fill="#000000" font-family="sans-serif" font-size="13" lengthAdjust="spacing" textLength="166.188" x="593.41" y="1116.3861">Born in Bethlehem (Matt 2:1)</text><text fill="#000000" font-family="sans-serif" font-size="13" lengthAdjust="spacing" textLength="140.8989" x="593.41" y="1132.7376">Fulfillment of prophecies</text></g><!--class Magi--><g class="entity" data-entity="Magi" data-source-line="47" data-uid="ent0026" id="entity_Magi"><rect fill="#FFD700" height="61.2188" rx="2.5" ry="2.5" style="stroke:#181818;stroke-width:0.5;" width="103.5586" x="407.22" y="960.3194"/><ellipse cx="422.22" cy="982.9288" fill="#ADD1B2" rx="11" ry="11" style="stroke:#181818;stroke-width:1;"/><path d="M424.9856,978.8038 Q425.1419,978.585 425.3294,978.4756 Q425.5169,978.3663 425.7356,978.3663 Q426.1106,978.3663 426.345,978.6319 Q426.5794,978.8819 426.5794,979.4913 L426.5794,980.9444 Q426.5794,981.5538 426.345,981.8194 Q426.1106,982.085 425.7356,982.085 Q425.3919,982.085 425.1888,981.8819 Q424.9856,981.6944 424.8763,981.1788 Q424.8294,980.8194 424.6419,980.6319 Q424.3138,980.2569 423.7044,980.0381 Q423.095,979.8194 422.47,979.8194 Q421.7044,979.8194 421.0638,980.1475 Q420.4388,980.4756 419.9388,981.2256 Q419.4544,981.9756 419.4544,983.0069 L419.4544,984.1006 Q419.4544,985.335 420.345,986.1631 Q421.2356,986.9756 422.8294,986.9756 Q423.7669,986.9756 424.4231,986.7256 Q424.8138,986.5694 425.2356,986.1319 Q425.5013,985.8663 425.6419,985.7881 Q425.7981,985.71 426.0013,985.71 Q426.3294,985.71 426.5794,985.9756 Q426.845,986.2256 426.845,986.5694 Q426.845,986.9131 426.5013,987.3194 Q426.0013,987.8975 425.2044,988.2256 Q424.1263,988.6788 422.8294,988.6788 Q421.3138,988.6788 420.1106,988.0538 Q419.1263,987.5538 418.4388,986.4913 Q417.7513,985.4131 417.7513,984.1319 L417.7513,982.9756 Q417.7513,981.6475 418.3606,980.5069 Q418.9856,979.3506 420.0794,978.7413 Q421.1731,978.1163 422.4075,978.1163 Q423.1419,978.1163 423.7825,978.2881 Q424.4388,978.4444 424.9856,978.8038 Z " fill="#000000"/><text fill="#000000" font-family="sans-serif" font-size="14" lengthAdjust="spacing" textLength="30.3447" x="456.8269" y="979.8526">Magi</text><text fill="#000000" font-family="sans-serif" font-size="14" lengthAdjust="spacing" textLength="71.5586" x="436.22" y="997.462">(Wise Men)</text><line style="stroke:#181818;stroke-width:0.5;" x1="408.22" x2="509.7786" y1="1005.5381" y2="1005.5381"/><line style="stroke:#181818;stroke-width:0.5;" x1="408.22" x2="509.7786" y1="1013.5381" y2="1013.5381"/></g><!--class Herod--><g class="entity" data-entity="Herod" data-source-line="48" data-uid="ent0027" id="entity_Herod"><rect fill="#FF0000" height="48" rx="2.5" ry="2.5" style="stroke:#181818;stroke-width:0.5;" width="132.3857" x="782.81" y="724.4894"/><ellipse cx="797.81" cy="740.4894" fill="#ADD1B2" rx="11" ry="11" style="stroke:#181818;stroke-width:1;"/><path d="M800.5756,736.3644 Q800.7319,736.1456 800.9194,736.0363 Q801.1069,735.9269 801.3256,735.9269 Q801.7006,735.9269 801.935,736.1925 Q802.1694,736.4425 802.1694,737.0519 L802.1694,738.505 Q802.1694,739.1144 801.935,739.38 Q801.7006,739.6456 801.3256,739.6456 Q800.9819,739.6456 800.7788,739.4425 Q800.5756,739.255 800.4663,738.7394 Q800.4194,738.38 800.2319,738.1925 Q799.9038,737.8175 799.2944,737.5988 Q798.685,737.38 798.06,737.38 Q797.2944,737.38 796.6538,737.7081 Q796.0288,738.0363 795.5288,738.7863 Q795.0444,739.5363 795.0444,740.5675 L795.0444,741.6613 Q795.0444,742.8956 795.935,743.7238 Q796.8256,744.5363 798.4194,744.5363 Q799.3569,744.5363 800.0131,744.2863 Q800.4038,744.13 800.8256,743.6925 Q801.0913,743.4269 801.2319,743.3488 Q801.3881,743.2706 801.5913,743.2706 Q801.9194,743.2706 802.1694,743.5363 Q802.435,743.7863 802.435,744.13 Q802.435,744.4738 802.0913,744.88 Q801.5913,745.4581 800.7944,745.7863 Q799.7163,746.2394 798.4194,746.2394 Q796.9038,746.2394 795.7006,745.6144 Q794.7163,745.1144 794.0288,744.0519 Q793.3413,742.9738 793.3413,741.6925 L793.3413,740.5363 Q793.3413,739.2081 793.9506,738.0675 Q794.5756,736.9113 795.6694,736.3019 Q796.7631,735.6769 797.9975,735.6769 Q798.7319,735.6769 799.3725,735.8488 Q800.0288,736.005 800.5756,736.3644 Z " fill="#000000"/><text fill="#000000" font-family="sans-serif" font-size="14" lengthAdjust="spacing" textLength="100.3857" x="811.81" y="746.2179">Herod the Great</text><line style="stroke:#181818;stroke-width:0.5;" x1="783.81" x2="914.1957" y1="756.4894" y2="756.4894"/><line style="stroke:#181818;stroke-width:0.5;" x1="783.81" x2="914.1957" y1="764.4894" y2="764.4894"/></g><!--class Archelaus--><g class="entity" data-entity="Archelaus" data-source-line="49" data-uid="ent0028" id="entity_Archelaus"><rect fill="#FF0000" height="48" rx="2.5" ry="2.5" style="stroke:#181818;stroke-width:0.5;" width="94.2549" x="729.87" y="966.9294"/><ellipse cx="744.87" cy="982.9294" fill="#ADD1B2" rx="11" ry="11" style="stroke:#181818;stroke-width:1;"/><path d="M747.6356,978.8044 Q747.7919,978.5856 747.9794,978.4763 Q748.1669,978.3669 748.3856,978.3669 Q748.7606,978.3669 748.995,978.6325 Q749.2294,978.8825 749.2294,979.4919 L749.2294,980.945 Q749.2294,981.5544 748.995,981.82 Q748.7606,982.0856 748.3856,982.0856 Q748.0419,982.0856 747.8388,981.8825 Q747.6356,981.695 747.5263,981.1794 Q747.4794,980.82 747.2919,980.6325 Q746.9638,980.2575 746.3544,980.0388 Q745.745,979.82 745.12,979.82 Q744.3544,979.82 743.7138,980.1481 Q743.0888,980.4763 742.5888,981.2263 Q742.1044,981.9763 742.1044,983.0075 L742.1044,984.1013 Q742.1044,985.3356 742.995,986.1638 Q743.8856,986.9763 745.4794,986.9763 Q746.4169,986.9763 747.0731,986.7263 Q747.4638,986.57 747.8856,986.1325 Q748.1513,985.8669 748.2919,985.7888 Q748.4481,985.7106 748.6513,985.7106 Q748.9794,985.7106 749.2294,985.9763 Q749.495,986.2263 749.495,986.57 Q749.495,986.9138 749.1513,987.32 Q748.6513,987.8981 747.8544,988.2263 Q746.7763,988.6794 745.4794,988.6794 Q743.9638,988.6794 742.7606,988.0544 Q741.7763,987.5544 741.0888,986.4919 Q740.4013,985.4138 740.4013,984.1325 L740.4013,982.9763 Q740.4013,981.6481 741.0106,980.5075 Q741.6356,979.3513 742.7294,978.7419 Q743.8231,978.1169 745.0575,978.1169 Q745.7919,978.1169 746.4325,978.2888 Q747.0888,978.445 747.6356,978.8044 Z " fill="#000000"/><text fill="#000000" font-family="sans-serif" font-size="14" lengthAdjust="spacing" textLength="62.2549" x="758.87" y="988.6579">Archelaus</text><line style="stroke:#181818;stroke-width:0.5;" x1="730.87" x2="823.1249" y1="998.9294" y2="998.9294"/><line style="stroke:#181818;stroke-width:0.5;" x1="730.87" x2="823.1249" y1="1006.9294" y2="1006.9294"/></g><!--class Innocents--><g class="entity" data-entity="Innocents" data-source-line="50" data-uid="ent0029" id="entity_Innocents"><rect fill="#FFC0CB" height="61.2188" rx="2.5" ry="2.5" style="stroke:#181818;stroke-width:0.5;" width="124.6064" x="843.7" y="839.0994"/><ellipse cx="858.7" cy="861.7088" fill="#ADD1B2" rx="11" ry="11" style="stroke:#181818;stroke-width:1;"/><path d="M861.4656,857.5838 Q861.6219,857.365 861.8094,857.2556 Q861.9969,857.1463 862.2156,857.1463 Q862.5906,857.1463 862.825,857.4119 Q863.0594,857.6619 863.0594,858.2713 L863.0594,859.7244 Q863.0594,860.3338 862.825,860.5994 Q862.5906,860.865 862.2156,860.865 Q861.8719,860.865 861.6688,860.6619 Q861.4656,860.4744 861.3563,859.9588 Q861.3094,859.5994 861.1219,859.4119 Q860.7938,859.0369 860.1844,858.8181 Q859.575,858.5994 858.95,858.5994 Q858.1844,858.5994 857.5438,858.9275 Q856.9188,859.2556 856.4188,860.0056 Q855.9344,860.7556 855.9344,861.7869 L855.9344,862.8806 Q855.9344,864.115 856.825,864.9431 Q857.7156,865.7556 859.3094,865.7556 Q860.2469,865.7556 860.9031,865.5056 Q861.2938,865.3494 861.7156,864.9119 Q861.9813,864.6463 862.1219,864.5681 Q862.2781,864.49 862.4813,864.49 Q862.8094,864.49 863.0594,864.7556 Q863.325,865.0056 863.325,865.3494 Q863.325,865.6931 862.9813,866.0994 Q862.4813,866.6775 861.6844,867.0056 Q860.6063,867.4588 859.3094,867.4588 Q857.7938,867.4588 856.5906,866.8338 Q855.6063,866.3338 854.9188,865.2713 Q854.2313,864.1931 854.2313,862.9119 L854.2313,861.7556 Q854.2313,860.4275 854.8406,859.2869 Q855.4656,858.1306 856.5594,857.5213 Q857.6531,856.8963 858.8875,856.8963 Q859.6219,856.8963 860.2625,857.0681 Q860.9188,857.2244 861.4656,857.5838 Z " fill="#000000"/><text fill="#000000" font-family="sans-serif" font-size="14" lengthAdjust="spacing" textLength="92.6064" x="872.7" y="858.6326">Holy Innocents</text><text fill="#000000" font-family="sans-serif" font-size="14" lengthAdjust="spacing" textLength="52.1104" x="892.948" y="876.242">(0-2 yrs)</text><line style="stroke:#181818;stroke-width:0.5;" x1="844.7" x2="967.3064" y1="884.3181" y2="884.3181"/><line style="stroke:#181818;stroke-width:0.5;" x1="844.7" x2="967.3064" y1="892.3181" y2="892.3181"/></g><!--class Angels--><g class="entity" data-entity="Angels" data-source-line="51" data-uid="ent0030" id="entity_Angels"><rect fill="#FFFFE0" height="48" rx="2.5" ry="2.5" style="stroke:#181818;stroke-width:0.5;" width="145.6338" x="263.18" y="845.7094"/><ellipse cx="278.18" cy="861.7094" fill="#ADD1B2" rx="11" ry="11" style="stroke:#181818;stroke-width:1;"/><path d="M280.9456,857.5844 Q281.1019,857.3656 281.2894,857.2563 Q281.4769,857.1469 281.6956,857.1469 Q282.0706,857.1469 282.305,857.4125 Q282.5394,857.6625 282.5394,858.2719 L282.5394,859.725 Q282.5394,860.3344 282.305,860.6 Q282.0706,860.8656 281.6956,860.8656 Q281.3519,860.8656 281.1488,860.6625 Q280.9456,860.475 280.8363,859.9594 Q280.7894,859.6 280.6019,859.4125 Q280.2738,859.0375 279.6644,858.8188 Q279.055,858.6 278.43,858.6 Q277.6644,858.6 277.0238,858.9281 Q276.3988,859.2563 275.8988,860.0063 Q275.4144,860.7563 275.4144,861.7875 L275.4144,862.8813 Q275.4144,864.1156 276.305,864.9438 Q277.1956,865.7563 278.7894,865.7563 Q279.7269,865.7563 280.3831,865.5063 Q280.7738,865.35 281.1956,864.9125 Q281.4613,864.6469 281.6019,864.5688 Q281.7581,864.4906 281.9613,864.4906 Q282.2894,864.4906 282.5394,864.7563 Q282.805,865.0063 282.805,865.35 Q282.805,865.6938 282.4613,866.1 Q281.9613,866.6781 281.1644,867.0063 Q280.0863,867.4594 278.7894,867.4594 Q277.2738,867.4594 276.0706,866.8344 Q275.0863,866.3344 274.3988,865.2719 Q273.7113,864.1938 273.7113,862.9125 L273.7113,861.7563 Q273.7113,860.4281 274.3206,859.2875 Q274.9456,858.1313 276.0394,857.5219 Q277.1331,856.8969 278.3675,856.8969 Q279.1019,856.8969 279.7425,857.0688 Q280.3988,857.225 280.9456,857.5844 Z " fill="#000000"/><text fill="#000000" font-family="sans-serif" font-size="14" lengthAdjust="spacing" textLength="113.6338" x="292.18" y="867.4379">Angels of the Lord</text><line style="stroke:#181818;stroke-width:0.5;" x1="264.18" x2="407.8138" y1="877.7094" y2="877.7094"/><line style="stroke:#181818;stroke-width:0.5;" x1="264.18" x2="407.8138" y1="885.7094" y2="885.7094"/></g><!--class Bethlehem--><g class="entity" data-entity="Bethlehem" data-source-line="61" data-uid="ent0036" id="entity_Bethlehem"><rect fill="#FFFFFF" height="61.2188" rx="2.5" ry="2.5" style="stroke:#181818;stroke-width:0.5;" width="98.9307" x="652.53" y="596.6594"/><ellipse cx="667.53" cy="619.2688" fill="#ADD1B2" rx="11" ry="11" style="stroke:#181818;stroke-width:1;"/><path d="M670.2956,615.1438 Q670.4519,614.925 670.6394,614.8156 Q670.8269,614.7063 671.0456,614.7063 Q671.4206,614.7063 671.655,614.9719 Q671.8894,615.2219 671.8894,615.8313 L671.8894,617.2844 Q671.8894,617.8938 671.655,618.1594 Q671.4206,618.425 671.0456,618.425 Q670.7019,618.425 670.4988,618.2219 Q670.2956,618.0344 670.1863,617.5188 Q670.1394,617.1594 669.9519,616.9719 Q669.6238,616.5969 669.0144,616.3781 Q668.405,616.1594 667.78,616.1594 Q667.0144,616.1594 666.3738,616.4875 Q665.7488,616.8156 665.2488,617.5656 Q664.7644,618.3156 664.7644,619.3469 L664.7644,620.4406 Q664.7644,621.675 665.655,622.5031 Q666.5456,623.3156 668.1394,623.3156 Q669.0769,623.3156 669.7331,623.0656 Q670.1238,622.9094 670.5456,622.4719 Q670.8113,622.2063 670.9519,622.1281 Q671.1081,622.05 671.3113,622.05 Q671.6394,622.05 671.8894,622.3156 Q672.155,622.5656 672.155,622.9094 Q672.155,623.2531 671.8113,623.6594 Q671.3113,624.2375 670.5144,624.5656 Q669.4363,625.0188 668.1394,625.0188 Q666.6238,625.0188 665.4206,624.3938 Q664.4363,623.8938 663.7488,622.8313 Q663.0613,621.7531 663.0613,620.4719 L663.0613,619.3156 Q663.0613,617.9875 663.6706,616.8469 Q664.2956,615.6906 665.3894,615.0813 Q666.4831,614.4563 667.7175,614.4563 Q668.4519,614.4563 669.0925,614.6281 Q669.7488,614.7844 670.2956,615.1438 Z " fill="#000000"/><text fill="#000000" font-family="sans-serif" font-size="14" lengthAdjust="spacing" textLength="66.9307" x="681.53" y="616.1926">Bethlehem</text><text fill="#000000" font-family="sans-serif" font-size="14" lengthAdjust="spacing" textLength="62.2549" x="683.8679" y="633.802">Birthplace</text><line style="stroke:#181818;stroke-width:0.5;" x1="653.53" x2="750.4607" y1="641.8781" y2="641.8781"/><line style="stroke:#181818;stroke-width:0.5;" x1="653.53" x2="750.4607" y1="649.8781" y2="649.8781"/></g><!--class Egypt--><g class="entity" data-entity="Egypt" data-source-line="62" data-uid="ent0037" id="entity_Egypt"><rect fill="#FFFFFF" height="61.2188" rx="2.5" ry="2.5" style="stroke:#181818;stroke-width:0.5;" width="77.1445" x="314.43" y="717.8794"/><ellipse cx="329.43" cy="740.4888" fill="#ADD1B2" rx="11" ry="11" style="stroke:#181818;stroke-width:1;"/><path d="M332.1956,736.3638 Q332.3519,736.145 332.5394,736.0356 Q332.7269,735.9263 332.9456,735.9263 Q333.3206,735.9263 333.555,736.1919 Q333.7894,736.4419 333.7894,737.0513 L333.7894,738.5044 Q333.7894,739.1138 333.555,739.3794 Q333.3206,739.645 332.9456,739.645 Q332.6019,739.645 332.3988,739.4419 Q332.1956,739.2544 332.0863,738.7388 Q332.0394,738.3794 331.8519,738.1919 Q331.5238,737.8169 330.9144,737.5981 Q330.305,737.3794 329.68,737.3794 Q328.9144,737.3794 328.2738,737.7075 Q327.6488,738.0356 327.1488,738.7856 Q326.6644,739.5356 326.6644,740.5669 L326.6644,741.6606 Q326.6644,742.895 327.555,743.7231 Q328.4456,744.5356 330.0394,744.5356 Q330.9769,744.5356 331.6331,744.2856 Q332.0238,744.1294 332.4456,743.6919 Q332.7113,743.4263 332.8519,743.3481 Q333.0081,743.27 333.2113,743.27 Q333.5394,743.27 333.7894,743.5356 Q334.055,743.7856 334.055,744.1294 Q334.055,744.4731 333.7113,744.8794 Q333.2113,745.4575 332.4144,745.7856 Q331.3363,746.2388 330.0394,746.2388 Q328.5238,746.2388 327.3206,745.6138 Q326.3363,745.1138 325.6488,744.0513 Q324.9613,742.9731 324.9613,741.6919 L324.9613,740.5356 Q324.9613,739.2075 325.5706,738.0669 Q326.1956,736.9106 327.2894,736.3013 Q328.3831,735.6763 329.6175,735.6763 Q330.3519,735.6763 330.9925,735.8481 Q331.6488,736.0044 332.1956,736.3638 Z " fill="#000000"/><text fill="#000000" font-family="sans-serif" font-size="14" lengthAdjust="spacing" textLength="35.7998" x="348.1024" y="737.4126">Egypt</text><text fill="#000000" font-family="sans-serif" font-size="14" lengthAdjust="spacing" textLength="45.1445" x="343.43" y="755.022">Refuge</text><line style="stroke:#181818;stroke-width:0.5;" x1="315.43" x2="390.5745" y1="763.0981" y2="763.0981"/><line style="stroke:#181818;stroke-width:0.5;" x1="315.43" x2="390.5745" y1="771.0981" y2="771.0981"/></g><!--class Nazareth--><g class="entity" data-entity="Nazareth" data-source-line="63" data-uid="ent0038" id="entity_Nazareth"><rect fill="#FFFFFF" height="61.2188" rx="2.5" ry="2.5" style="stroke:#181818;stroke-width:0.5;" width="151.0615" x="586.47" y="839.0994"/><ellipse cx="601.47" cy="861.7088" fill="#ADD1B2" rx="11" ry="11" style="stroke:#181818;stroke-width:1;"/><path d="M604.2356,857.5838 Q604.3919,857.365 604.5794,857.2556 Q604.7669,857.1463 604.9856,857.1463 Q605.3606,857.1463 605.595,857.4119 Q605.8294,857.6619 605.8294,858.2713 L605.8294,859.7244 Q605.8294,860.3338 605.595,860.5994 Q605.3606,860.865 604.9856,860.865 Q604.6419,860.865 604.4388,860.6619 Q604.2356,860.4744 604.1263,859.9588 Q604.0794,859.5994 603.8919,859.4119 Q603.5638,859.0369 602.9544,858.8181 Q602.345,858.5994 601.72,858.5994 Q600.9544,858.5994 600.3138,858.9275 Q599.6888,859.2556 599.1888,860.0056 Q598.7044,860.7556 598.7044,861.7869 L598.7044,862.8806 Q598.7044,864.115 599.595,864.9431 Q600.4856,865.7556 602.0794,865.7556 Q603.0169,865.7556 603.6731,865.5056 Q604.0638,865.3494 604.4856,864.9119 Q604.7513,864.6463 604.8919,864.5681 Q605.0481,864.49 605.2513,864.49 Q605.5794,864.49 605.8294,864.7556 Q606.095,865.0056 606.095,865.3494 Q606.095,865.6931 605.7513,866.0994 Q605.2513,866.6775 604.4544,867.0056 Q603.3763,867.4588 602.0794,867.4588 Q600.5638,867.4588 599.3606,866.8338 Q598.3763,866.3338 597.6888,865.2713 Q597.0013,864.1931 597.0013,862.9119 L597.0013,861.7556 Q597.0013,860.4275 597.6106,859.2869 Q598.2356,858.1306 599.3294,857.5213 Q600.4231,856.8963 601.6575,856.8963 Q602.3919,856.8963 603.0325,857.0681 Q603.6888,857.2244 604.2356,857.5838 Z " fill="#000000"/><text fill="#000000" font-family="sans-serif" font-size="14" lengthAdjust="spacing" textLength="119.0615" x="615.47" y="858.6326">Nazareth in Galilee</text><text fill="#000000" font-family="sans-serif" font-size="14" lengthAdjust="spacing" textLength="66.9238" x="641.5388" y="876.242">Settlement</text><line style="stroke:#181818;stroke-width:0.5;" x1="587.47" x2="736.5315" y1="884.3181" y2="884.3181"/><line style="stroke:#181818;stroke-width:0.5;" x1="587.47" x2="736.5315" y1="892.3181" y2="892.3181"/></g><g class="entity" data-entity="GMN52" data-source-line="84" data-uid="ent0053" id="entity_GMN52"><path d="M618.17,477.6094 L618.17,536.6641 A0,0 0 0 0 618.17,536.6641 L698,536.6641 L702,596.3894 L706,536.6641 L785.8326,536.6641 A0,0 0 0 0 785.8326,536.6641 L785.8326,487.6094 L775.8326,477.6094 L618.17,477.6094 A0,0 0 0 0 618.17,477.6094" fill="#FEFFDD" style="stroke:#181818;stroke-width:0.5;"/><path d="M775.8326,477.6094 L775.8326,487.6094 L785.8326,487.6094 L775.8326,477.6094" fill="#FEFFDD" style="stroke:#181818;stroke-width:0.5;"/><text fill="#000000" font-family="sans-serif" font-size="13" lengthAdjust="spacing" textLength="86.6963" x="624.17" y="496.1045">- Birth of Jesus</text><text fill="#000000" font-family="sans-serif" font-size="13" lengthAdjust="spacing" textLength="78.7427" x="624.17" y="512.4561">- Visit of Magi</text><text fill="#000000" font-family="sans-serif" font-size="13" lengthAdjust="spacing" textLength="146.6626" x="624.17" y="528.8076">- Herod plots &amp; Massacre</text></g><g class="entity" data-entity="GMN55" data-source-line="90" data-uid="ent0056" id="entity_GMN55"><path d="M252.63,605.9194 L252.63,648.6225 A0,0 0 0 0 252.63,648.6225 L349,648.6225 L353,717.4394 L357,648.6225 L453.3766,648.6225 A0,0 0 0 0 453.3766,648.6225 L453.3766,615.9194 L443.3766,605.9194 L252.63,605.9194 A0,0 0 0 0 252.63,605.9194" fill="#FEFFDD" style="stroke:#181818;stroke-width:0.5;"/><path d="M443.3766,605.9194 L443.3766,615.9194 L453.3766,615.9194 L443.3766,605.9194" fill="#FEFFDD" style="stroke:#181818;stroke-width:0.5;"/><text fill="#000000" font-family="sans-serif" font-size="13" lengthAdjust="spacing" textLength="106.9072" x="258.63" y="624.4145">- Holy Family flees</text><text fill="#000000" font-family="sans-serif" font-size="13" lengthAdjust="spacing" textLength="179.7466" x="258.63" y="640.7661">- "Out of Egypt I called my son"</text></g><g class="entity" data-entity="GMN58" data-source-line="95" data-uid="ent0059" id="entity_GMN58"><path d="M536.2,727.1394 L536.2,769.8425 A0,0 0 0 0 536.2,769.8425 L658,769.8425 L662,838.6594 L666,769.8425 L747.8074,769.8425 A0,0 0 0 0 747.8074,769.8425 L747.8074,737.1394 L737.8074,727.1394 L536.2,727.1394 A0,0 0 0 0 536.2,727.1394" fill="#FEFFDD" style="stroke:#181818;stroke-width:0.5;"/><path d="M737.8074,727.1394 L737.8074,737.1394 L747.8074,737.1394 L737.8074,727.1394" fill="#FEFFDD" style="stroke:#181818;stroke-width:0.5;"/><text fill="#000000" font-family="sans-serif" font-size="13" lengthAdjust="spacing" textLength="117.019" x="542.2" y="745.6345">- Holy Family settles</text><text fill="#000000" font-family="sans-serif" font-size="13" lengthAdjust="spacing" textLength="190.6074" x="542.2" y="761.9861">- "He shall be called a Nazarene"</text></g><!--link Abraham to Isaac--><g class="link" data-entity-1="Abraham" data-entity-2="Isaac" data-source-line="29" data-uid="lnk13" id="link_Abraham_Isaac"><path codeLine="29" d="M96,93.8394 C96,111.6294 96,129.6794 96,147.4494" fill="none" id="Abraham-to-Isaac" style="stroke:#181818;stroke-width:1;"/><polygon fill="#181818" points="96,153.4494,100,144.4494,96,148.4494,92,144.4494,96,153.4494" style="stroke:#181818;stroke-width:1;"/></g><!--link Isaac to Jacob--><g class="link" data-entity-1="Isaac" data-entity-2="Jacob" data-source-line="30" data-uid="lnk14" id="link_Isaac_Jacob"><path codeLine="30" d="M96,201.8394 C96,219.6294 96,237.6794 96,255.4494" fill="none" id="Isaac-to-Jacob" style="stroke:#181818;stroke-width:1;"/><polygon fill="#181818" points="96,261.4494,100,252.4494,96,256.4494,92,252.4494,96,261.4494" style="stroke:#181818;stroke-width:1;"/></g><!--link Jacob to Judah--><g class="link" data-entity-1="Jacob" data-entity-2="Judah" data-source-line="31" data-uid="lnk15" id="link_Jacob_Judah"><path codeLine="31" d="M96,309.8394 C96,327.6294 96,345.6794 96,363.4494" fill="none" id="Jacob-to-Judah" style="stroke:#181818;stroke-width:1;"/><polygon fill="#181818" points="96,369.4494,100,360.4494,96,364.4494,92,360.4494,96,369.4494" style="stroke:#181818;stroke-width:1;"/></g><!--link Judah to Tribal--><g class="link" data-entity-1="Judah" data-entity-2="Tribal" data-source-line="32" data-uid="lnk16" id="link_Judah_Tribal"><path codeLine="32" d="M96,417.9594 C96,437.1194 96,457.6694 96,476.8194" fill="none" id="Judah-to-Tribal" style="stroke:#181818;stroke-width:1;"/><polygon fill="#181818" points="96,482.8194,100,473.8194,96,477.8194,92,473.8194,96,482.8194" style="stroke:#181818;stroke-width:1;"/><text fill="#000000" font-family="sans-serif" font-size="13" lengthAdjust="spacing" textLength="88.8799" x="7" y="446.8845">Tribal lineage...</text></g><!--link Tribal to David--><g class="link" data-entity-1="Tribal" data-entity-2="David" data-source-line="33" data-uid="lnk17" id="link_Tribal_David"><path codeLine="33" d="M96,531.4394 C96,552.2894 96,576.1594 96,596.9894" fill="none" id="Tribal-to-David" style="stroke:#181818;stroke-width:1;"/><polygon fill="#181818" points="96,602.9894,100,593.9894,96,597.9894,92,593.9894,96,602.9894" style="stroke:#181818;stroke-width:1;"/></g><!--link David to Solomon--><g class="link" data-entity-1="David" data-entity-2="Solomon" data-source-line="34" data-uid="lnk18" id="link_David_Solomon"><path codeLine="34" d="M96,651.5094 C96,672.6494 96,697.1594 96,718.2894" fill="none" id="David-to-Solomon" style="stroke:#181818;stroke-width:1;"/><polygon fill="#181818" points="96,724.2894,100,715.2894,96,719.2894,92,715.2894,96,724.2894" style="stroke:#181818;stroke-width:1;"/></g><!--link Solomon to Royal--><g class="link" data-entity-1="Solomon" data-entity-2="Royal" data-source-line="35" data-uid="lnk19" id="link_Solomon_Royal"><path codeLine="35" d="M96,772.7294 C96,793.8694 96,818.3794 96,839.5094" fill="none" id="Solomon-to-Royal" style="stroke:#181818;stroke-width:1;"/><polygon fill="#181818" points="96,845.5094,100,836.5094,96,840.5094,92,836.5094,96,845.5094" style="stroke:#181818;stroke-width:1;"/><text fill="#000000" font-family="sans-serif" font-size="13" lengthAdjust="spacing" textLength="67.9199" x="28" y="805.6145">Royal line...</text></g><!--link Royal to Joseph--><g class="link" data-entity-1="Royal" data-entity-2="Joseph" data-source-line="36" data-uid="lnk20" id="link_Royal_Joseph"><path codeLine="36" d="M157.19,869.5894 C195.76,869.5894 238.33,869.5894 238.33,869.5894 C238.33,869.5894 238.33,918.0494 238.33,953.9894" fill="none" id="Royal-to-Joseph" style="stroke:#181818;stroke-width:1;"/><polygon fill="#181818" points="238.33,959.9894,242.33,950.9894,238.33,954.9894,234.33,950.9894,238.33,959.9894" style="stroke:#181818;stroke-width:1;"/></g><!--link Joseph to Jesus--><g class="link" data-entity-1="Joseph" data-entity-2="Jesus" data-source-line="37" data-uid="lnk21" id="link_Joseph_Jesus"><path codeLine="37" d="M298,1021.7394 C298,1057.1994 298,1110.5894 298,1110.5894 C298,1110.5894 415.75,1110.5894 477.62,1110.5894" fill="none" id="Joseph-to-Jesus" style="stroke:#181818;stroke-width:1;"/><polygon fill="#181818" points="483.62,1110.5894,474.62,1106.5894,478.62,1110.5894,474.62,1114.5894,483.62,1110.5894" style="stroke:#181818;stroke-width:1;"/></g><!--link Mary to Jesus--><g class="link" data-entity-1="Mary" data-entity-2="Jesus" data-source-line="38" data-uid="lnk22" id="link_Mary_Jesus"><path codeLine="38" d="M545.08,998.5894 C543.39,998.5894 542.36,998.5894 542.36,998.5894 C542.36,998.5894 542.36,1047.5794 542.36,1080.6594" fill="none" id="Mary-to-Jesus" style="stroke:#181818;stroke-width:1;"/><polygon fill="#181818" points="542.36,1086.6594,546.36,1077.6594,542.36,1081.6594,538.36,1077.6594,542.36,1086.6594" style="stroke:#181818;stroke-width:1;"/><text fill="#000000" font-family="sans-serif" font-size="13" lengthAdjust="spacing" textLength="40.46" x="501.36" y="1037.7545">Mother</text></g><!--link Herod to Archelaus--><g class="link" data-entity-1="Herod" data-entity-2="Archelaus" data-source-line="53" data-uid="lnk31" id="link_Herod_Archelaus"><path codeLine="53" d="M803.47,772.6194 C803.47,818.9694 803.47,913.9794 803.47,960.5294" fill="none" id="Herod-to-Archelaus" style="stroke:#181818;stroke-width:1;"/><polygon fill="#181818" points="803.47,966.5294,807.47,957.5294,803.47,961.5294,799.47,957.5294,803.47,966.5294" style="stroke:#181818;stroke-width:1;"/><text fill="#000000" font-family="sans-serif" font-size="13" lengthAdjust="spacing" textLength="65.0317" x="770.97" y="884.0745">Father-Son</text></g><!--link Herod to Innocents--><g class="link" data-entity-1="Herod" data-entity-2="Innocents" data-source-line="54" data-uid="lnk32" id="link_Herod_Innocents"><path codeLine="54" d="M879.44,772.7294 C879.44,791.7994 879.44,812.4894 879.44,833.0394" fill="none" id="Herod-to-Innocents" style="stroke:#181818;stroke-width:1;"/><polygon fill="#181818" points="879.44,839.0394,883.44,830.0394,879.44,834.0394,875.44,830.0394,879.44,839.0394" style="stroke:#181818;stroke-width:1;"/><text fill="#000000" font-family="sans-serif" font-size="13" lengthAdjust="spacing" textLength="130.7871" x="748.44" y="802.3845">Massacre of Innocents</text></g><!--link Magi to Jesus--><g class="link" data-entity-1="Magi" data-entity-2="Jesus" data-source-line="56" data-uid="lnk33" id="link_Magi_Jesus"><path codeLine="56" d="M497.25,1021.8594 C497.25,1042.0294 497.25,1061.9594 497.25,1080.6694" fill="none" id="Magi-to-Jesus" style="stroke:#181818;stroke-width:1;stroke-dasharray:7,7;"/><polygon fill="#181818" points="497.25,1086.6694,501.25,1077.6694,497.25,1081.6694,493.25,1077.6694,497.25,1086.6694" style="stroke:#181818;stroke-width:1;"/><text fill="#000000" font-family="sans-serif" font-size="13" lengthAdjust="spacing" textLength="47.6772" x="378.9663" y="1068.7645">Worship</text><text fill="#000000" font-family="sans-serif" font-size="13" lengthAdjust="spacing" textLength="187.1099" x="309.25" y="1085.1161">Gifts: Gold, Frankincense, Myrrh</text></g><!--link Angels to Joseph--><g class="link" data-entity-1="Angels" data-entity-2="Joseph" data-source-line="57" data-uid="lnk34" id="link_Angels_Joseph"><path codeLine="57" d="M299.44,893.9494 C299.44,913.0194 299.44,933.7094 299.44,954.2594" fill="none" id="Angels-to-Joseph" style="stroke:#181818;stroke-width:1;"/><polygon fill="#181818" points="299.44,960.2594,303.44,951.2594,299.44,955.2594,295.44,951.2594,299.44,960.2594" style="stroke:#181818;stroke-width:1;"/><text fill="#000000" font-family="sans-serif" font-size="13" lengthAdjust="spacing" textLength="115.5972" x="183.44" y="923.5945">Warnings in dreams</text></g><!--link Angels to Magi--><g class="link" data-entity-1="Angels" data-entity-2="Magi" data-source-line="58" data-uid="lnk35" id="link_Angels_Magi"><path codeLine="58" d="M409.19,881.5894 C417.84,881.5894 423.67,881.5894 423.67,881.5894 C423.67,881.5894 423.67,921.5594 423.67,953.8894" fill="none" id="Angels-to-Magi" style="stroke:#181818;stroke-width:1;"/><polygon fill="#181818" points="423.67,959.8894,427.67,950.8894,423.67,954.8894,419.67,950.8894,423.67,959.8894" style="stroke:#181818;stroke-width:1;"/><text fill="#000000" font-family="sans-serif" font-size="13" lengthAdjust="spacing" textLength="158.2407" x="424.67" y="909.9945">Warn not to return to Herod</text></g><!--link Bethlehem to Egypt--><g class="link" data-entity-1="Bethlehem" data-entity-2="Egypt" data-source-line="65" data-uid="lnk39" id="link_Bethlehem_Egypt"><path codeLine="65" d="M652.05,627.5894 C598.46,627.5894 520.95,627.5894 520.95,627.5894 C520.95,627.5894 520.95,735.5894 520.95,735.5894 C520.95,735.5894 447.57,735.5894 397.95,735.5894" fill="none" id="Bethlehem-to-Egypt" style="stroke:#181818;stroke-width:1;"/><polygon fill="#181818" points="391.95,735.5894,400.95,739.5894,396.95,735.5894,400.95,731.5894,391.95,735.5894" style="stroke:#181818;stroke-width:1;"/><text fill="#000000" font-family="sans-serif" font-size="13" lengthAdjust="spacing" textLength="93.2153" x="426.95" y="677.0345">Flight into Egypt</text></g><!--link Egypt to Nazareth--><g class="link" data-entity-1="Egypt" data-entity-2="Nazareth" data-source-line="66" data-uid="lnk40" id="link_Egypt_Nazareth"><path codeLine="66" d="M391.76,761.5894 C414.38,761.5894 438.52,761.5894 438.52,761.5894 C438.52,761.5894 438.52,857.5894 438.52,857.5894 C438.52,857.5894 515.24,857.5894 580.03,857.5894" fill="none" id="Egypt-to-Nazareth" style="stroke:#181818;stroke-width:1;"/><polygon fill="#181818" points="586.03,857.5894,577.03,853.5894,581.03,857.5894,577.03,861.5894,586.03,857.5894" style="stroke:#181818;stroke-width:1;"/><text fill="#000000" font-family="sans-serif" font-size="13" lengthAdjust="spacing" textLength="152.7881" x="403.39" y="872.0845">Return after Herod's death</text></g><!--link Bethlehem to Jesus--><g class="link" data-entity-1="Bethlehem" data-entity-2="Jesus" data-source-line="69" data-uid="lnk41" id="link_Bethlehem_Jesus"><path codeLine="69" d="M652.04,637.5894 C600.02,637.5894 526.03,637.5894 526.03,637.5894 C526.03,637.5894 526.03,983.6494 526.03,1080.5994" fill="none" id="Bethlehem-to-Jesus" style="stroke:#181818;stroke-width:1;stroke-dasharray:7,7;"/><polygon fill="#181818" points="526.03,1086.5994,530.03,1077.5994,526.03,1081.5994,522.03,1077.5994,526.03,1086.5994" style="stroke:#181818;stroke-width:1;"/></g><!--link Bethlehem to Magi--><g class="link" data-entity-1="Bethlehem" data-entity-2="Magi" data-source-line="70" data-uid="lnk42" id="link_Bethlehem_Magi"><path codeLine="70" d="M652.1,616.5894 C587.21,616.5894 482.08,616.5894 482.08,616.5894 C482.08,616.5894 482.08,864.2894 482.08,953.9694" fill="none" id="Bethlehem-to-Magi" style="stroke:#181818;stroke-width:1;stroke-dasharray:7,7;"/><polygon fill="#181818" points="482.08,959.9694,486.08,950.9694,482.08,954.9694,478.08,950.9694,482.08,959.9694" style="stroke:#181818;stroke-width:1;"/></g><!--link Bethlehem to Herod--><g class="link" data-entity-1="Bethlehem" data-entity-2="Herod" data-source-line="71" data-uid="lnk43" id="link_Bethlehem_Herod"><path codeLine="71" d="M751.87,627.5894 C795.01,627.5894 850.51,627.5894 850.51,627.5894 C850.51,627.5894 850.51,682.6994 850.51,718.0194" fill="none" id="Bethlehem-to-Herod" style="stroke:#181818;stroke-width:1;stroke-dasharray:7,7;"/><polygon fill="#181818" points="850.51,724.0194,854.51,715.0194,850.51,719.0194,846.51,715.0194,850.51,724.0194" style="stroke:#181818;stroke-width:1;"/></g><!--link Egypt to Jesus--><g class="link" data-entity-1="Egypt" data-entity-2="Jesus" data-source-line="73" data-uid="lnk44" id="link_Egypt_Jesus"><path codeLine="73" d="M392.01,752.5894 C440.19,752.5894 515.86,752.5894 515.86,752.5894 C515.86,752.5894 515.86,1000.0194 515.86,1080.7094" fill="none" id="Egypt-to-Jesus" style="stroke:#181818;stroke-width:1;stroke-dasharray:7,7;"/><polygon fill="#181818" points="515.86,1086.7094,519.86,1077.7094,515.86,1081.7094,511.86,1077.7094,515.86,1086.7094" style="stroke:#181818;stroke-width:1;"/></g><!--link Egypt to Mary--><g class="link" data-entity-1="Egypt" data-entity-2="Mary" data-source-line="74" data-uid="lnk45" id="link_Egypt_Mary"><path codeLine="74" d="M391.65,744.5894 C444.03,744.5894 531.11,744.5894 531.11,744.5894 C531.11,744.5894 531.11,982.5894 531.11,982.5894 C531.11,982.5894 531.3,982.5894 539.13,982.5894" fill="none" id="Egypt-to-Mary" style="stroke:#181818;stroke-width:1;stroke-dasharray:7,7;"/><polygon fill="#181818" points="545.13,982.5894,536.13,978.5894,540.13,982.5894,536.13,986.5894,545.13,982.5894" style="stroke:#181818;stroke-width:1;"/></g><!--link Egypt to Joseph--><g class="link" data-entity-1="Egypt" data-entity-2="Joseph" data-source-line="75" data-uid="lnk46" id="link_Egypt_Joseph"><path codeLine="75" d="M314.05,748.5894 C287.78,748.5894 257.9,748.5894 257.9,748.5894 C257.9,748.5894 257.9,889.0194 257.9,954.2294" fill="none" id="Egypt-to-Joseph" style="stroke:#181818;stroke-width:1;stroke-dasharray:7,7;"/><polygon fill="#181818" points="257.9,960.2294,261.9,951.2294,257.9,955.2294,253.9,951.2294,257.9,960.2294" style="stroke:#181818;stroke-width:1;"/></g><!--link Egypt to Angels--><g class="link" data-entity-1="Egypt" data-entity-2="Angels" data-source-line="76" data-uid="lnk47" id="link_Egypt_Angels"><path codeLine="76" d="M353,779.3894 C353,799.8694 353,820.3694 353,839.3594" fill="none" id="Egypt-to-Angels" style="stroke:#181818;stroke-width:1;stroke-dasharray:7,7;"/><polygon fill="#181818" points="353,845.3594,357,836.3594,353,840.3594,349,836.3594,353,845.3594" style="stroke:#181818;stroke-width:1;"/></g><!--link Nazareth to Jesus--><g class="link" data-entity-1="Nazareth" data-entity-2="Jesus" data-source-line="78" data-uid="lnk48" id="link_Nazareth_Jesus"><path codeLine="78" d="M586.02,869.5894 C560.92,869.5894 539.28,869.5894 539.28,869.5894 C539.28,869.5894 539.28,1019.1894 539.28,1080.5794" fill="none" id="Nazareth-to-Jesus" style="stroke:#181818;stroke-width:1;stroke-dasharray:7,7;"/><polygon fill="#181818" points="539.28,1086.5794,543.28,1077.5794,539.28,1081.5794,535.28,1077.5794,539.28,1086.5794" style="stroke:#181818;stroke-width:1;"/></g><!--link Nazareth to Mary--><g class="link" data-entity-1="Nazareth" data-entity-2="Mary" data-source-line="79" data-uid="lnk49" id="link_Nazareth_Mary"><path codeLine="79" d="M601.19,900.6094 C601.19,921.0894 601.19,941.5894 601.19,960.5794" fill="none" id="Nazareth-to-Mary" style="stroke:#181818;stroke-width:1;stroke-dasharray:7,7;"/><polygon fill="#181818" points="601.19,966.5794,605.19,957.5794,601.19,961.5794,597.19,957.5794,601.19,966.5794" style="stroke:#181818;stroke-width:1;"/></g><!--link Nazareth to Joseph--><g class="link" data-entity-1="Nazareth" data-entity-2="Joseph" data-source-line="80" data-uid="lnk50" id="link_Nazareth_Joseph"><path codeLine="80" d="M593.83,900.5094 C593.83,915.6094 593.83,930.5894 593.83,930.5894 C593.83,930.5894 335.7,930.5894 335.7,930.5894 C335.7,930.5894 335.7,939.2094 335.7,954.0494" fill="none" id="Nazareth-to-Joseph" style="stroke:#181818;stroke-width:1;stroke-dasharray:7,7;"/><polygon fill="#181818" points="335.7,960.0494,339.7,951.0494,335.7,955.0494,331.7,951.0494,335.7,960.0494" style="stroke:#181818;stroke-width:1;"/></g><!--link Nazareth to Archelaus--><g class="link" data-entity-1="Nazareth" data-entity-2="Archelaus" data-source-line="81" data-uid="lnk51" id="link_Nazareth_Archelaus"><path codeLine="81" d="M733.7,900.6094 C733.7,921.0894 733.7,941.5894 733.7,960.5794" fill="none" id="Nazareth-to-Archelaus" style="stroke:#181818;stroke-width:1;stroke-dasharray:7,7;"/><polygon fill="#181818" points="733.7,966.5794,737.7,957.5794,733.7,961.5794,729.7,957.5794,733.7,966.5794" style="stroke:#181818;stroke-width:1;"/><text fill="#000000" font-family="sans-serif" font-size="13" lengthAdjust="spacing" textLength="122.1416" x="610.7" y="930.0845">Joseph avoids Judea</text></g><!--SRC=[TLRRRkCs47tdLmnYO3S6ug2RHmCfi4utjxNRHL9iK20lZ3IMY52aG589rA_lS4XTd7NVo9cZkPsPeO8A6k7AQkjMLxR44cxGeDIswk4JtDlE6Up1xk4UVUVXT2T3gF4TlgmkbaBuLsLQwMG3MXaCVOjWNQZjJ55ewVr65g-LivqfsHCyrIgW49_Xyl8oEOSjLcZAA23nhTKzNCj6wNuDMrNLuSOX6jACqMNvHdT8ufsir1fkh2xfyiDg5LGXDLohgdFer_20KV5J5K4rTFsXp2lTlveAjS-M_a6jxViGr5I5qqVLj5hj5TLcxsm3OmcM72qd22TVNvoiPNC2qaC-ms8ACQFkl9G5O_Xq174l2_l223uTGtIbh1CYdeuW_f1lgcG4duuW7gdcZJMCoUTZdgp7jdusfxUTVv743lN1Jhf-cRopDd-M-CdVHGn3uk4OW9if6U6sMYHjv4xB0clY4Lrg7VImf_QWXcfROe2Q19qCoXe_6FlRgHVYUaiTA2jagrdqQqOFjly0JP8PKWpihLQ_9vP4uYhUcHEHcE5xP40a7k8zErwFKUdawlpy_4HaKSGnBoAn4- -P0p5m4MKfilKGTBJ4PjALlJC38XF1abXEmMKVhsHYPwbZdH361WGNKnr7MW3iq7ibwpFuhamL5GGcvNlKRQmpe0niCDGQQspI2e2BzPSbgQyxlLTQDsZOOkjiMsEXq8iupD7TC53VQOtScL9HnftK_d2KBkQJ56UPUkv9UQJGp39tKgMeJUA0PzWjEbjogDGyCZ0goHPnseUnT4MDMkPk6sy76DusTyROWjBmvFgtrGNqpYVFem8Ml3O6mxmxXcfjhKi3byMBWvMImeg4J06iQRz5KbQFHFi4cBmHQ-H85WwZar4k19VY_7nYzyawNwlssToeVV1f3Px1jPE6jZ1zvF4CThrpjSZHJRqJlvRE4Ey-ibnI9Hi_Xx6p18fqGh3WCD2h44ySzhGnRULaM_FYtTatR3YD6R5Z3psRZQ9deesppbKRDGFqMzMtuTayuBxBSygIGVsd_5TI67MC-KPgfH6VpIC6UikYL_vWm0WnzMxCY0t5yckU0sKeaMGyQI9cj1zV3ivMxWDj94xuiuUI6guU4l_sneb-WgkQNho2S1vQ0czjmOkAIp35C3BtGHOh_K6KwvlYchwRxd7Gv-gq3oP18bA8CP_9o868xHo2aga3sRnvS_l8DwjAVeXGvlKIR1iRTg8KO0NCztpdhEWnzYga5uKIZv8q1QssNCsX-sURP6u_KSQVJJyBiATEIEPF_kh2Y8CxeAxKz7uqFNXwz_x7wDWp7-rwxgri-HR1rsGENd0mA_Ed1cUc_mC0]--></g></svg>