<svg xmlns="http://www.w3.org/2000/svg" xmlns:xlink="http://www.w3.org/1999/xlink" contentStyleType="text/css" data-diagram-type="CLASS" height="904px" preserveAspectRatio="none" style="width:1186px;height:904px;background:#FFFFFF;" version="1.1" viewBox="0 0 1186 904" width="1186px" zoomAndPan="magnify"><title>Matthew 3 - Roles and Relationships (Class Diagram Style)</title><defs/><g><g class="title" data-source-line="1"><text fill="#000000" font-family="sans-serif" font-size="14" font-weight="bold" lengthAdjust="spacing" textLength="390.5371" x="390.99" y="24.5332">Matthew 3 - Roles and Relationships (Class Diagram Style)</text></g><!--class Divine--><g class="entity" data-entity="Divine" data-source-line="4" data-uid="ent0002" id="entity_Divine"><rect fill="#F1F1F1" height="48" rx="2.5" ry="2.5" style="stroke:#181818;stroke-width:0.5;" width="119.1514" x="27.82" y="562.8694"/><ellipse cx="42.82" cy="578.8694" fill="#A9DCDF" rx="11" ry="11" style="stroke:#181818;stroke-width:1;"/><path d="M45.0075,580.635 L40.8669,580.635 L40.445,581.6663 L40.8669,581.6663 Q41.4763,581.6663 41.7419,581.9006 Q42.0075,582.135 42.0075,582.5256 Q42.0075,582.9006 41.7419,583.135 Q41.4763,583.3694 40.8669,583.3694 L38.57,583.3694 Q37.9606,583.3694 37.7106,583.135 Q37.445,582.9006 37.445,582.51 Q37.445,582.135 37.7263,581.9006 Q37.9919,581.6506 38.6169,581.6663 L41.2888,575.01 L40.1794,575.01 Q39.57,575.01 39.3044,574.7756 Q39.0388,574.5413 39.0388,574.1506 Q39.0388,573.7756 39.3044,573.5413 Q39.57,573.3069 40.1794,573.3069 L43.8513,573.3069 L47.2419,581.6663 Q47.8356,581.6663 48.0231,581.8069 Q48.4138,582.0725 48.4138,582.5256 Q48.4138,582.9006 48.1481,583.135 Q47.8981,583.3694 47.2888,583.3694 L44.9919,583.3694 Q44.3825,583.3694 44.1169,583.135 Q43.8513,582.9006 43.8513,582.51 Q43.8513,582.135 44.1169,581.9006 Q44.3825,581.6663 44.9919,581.6663 L45.4138,581.6663 L45.0075,580.635 Z M44.2888,578.9319 L42.9294,575.5569 L41.5544,578.9319 L44.2888,578.9319 Z " fill="#000000"/><text fill="#000000" font-family="sans-serif" font-size="14" font-style="italic" lengthAdjust="spacing" textLength="87.1514" x="56.82" y="584.5979">Divine Person</text><line style="stroke:#181818;stroke-width:0.5;" x1="28.82" x2="145.9714" y1="594.8694" y2="594.8694"/><line style="stroke:#181818;stroke-width:0.5;" x1="28.82" x2="145.9714" y1="602.8694" y2="602.8694"/></g><!--class Human--><g class="entity" data-entity="Human" data-source-line="5" data-uid="ent0003" id="entity_Human"><rect fill="#F1F1F1" height="48" rx="2.5" ry="2.5" style="stroke:#181818;stroke-width:0.5;" width="125.3789" x="392.71" y="849.0894"/><ellipse cx="407.71" cy="865.0894" fill="#A9DCDF" rx="11" ry="11" style="stroke:#181818;stroke-width:1;"/><path d="M409.8975,866.855 L405.7569,866.855 L405.335,867.8863 L405.7569,867.8863 Q406.3663,867.8863 406.6319,868.1206 Q406.8975,868.355 406.8975,868.7456 Q406.8975,869.1206 406.6319,869.355 Q406.3663,869.5894 405.7569,869.5894 L403.46,869.5894 Q402.8506,869.5894 402.6006,869.355 Q402.335,869.1206 402.335,868.73 Q402.335,868.355 402.6163,868.1206 Q402.8819,867.8706 403.5069,867.8863 L406.1788,861.23 L405.0694,861.23 Q404.46,861.23 404.1944,860.9956 Q403.9288,860.7613 403.9288,860.3706 Q403.9288,859.9956 404.1944,859.7613 Q404.46,859.5269 405.0694,859.5269 L408.7413,859.5269 L412.1319,867.8863 Q412.7256,867.8863 412.9131,868.0269 Q413.3038,868.2925 413.3038,868.7456 Q413.3038,869.1206 413.0381,869.355 Q412.7881,869.5894 412.1788,869.5894 L409.8819,869.5894 Q409.2725,869.5894 409.0069,869.355 Q408.7413,869.1206 408.7413,868.73 Q408.7413,868.355 409.0069,868.1206 Q409.2725,867.8863 409.8819,867.8863 L410.3038,867.8863 L409.8975,866.855 Z M409.1788,865.1519 L407.8194,861.7769 L406.4444,865.1519 L409.1788,865.1519 Z " fill="#000000"/><text fill="#000000" font-family="sans-serif" font-size="14" font-style="italic" lengthAdjust="spacing" textLength="93.3789" x="421.71" y="870.8179">Human Person</text><line style="stroke:#181818;stroke-width:0.5;" x1="393.71" x2="517.0889" y1="881.0894" y2="881.0894"/><line style="stroke:#181818;stroke-width:0.5;" x1="393.71" x2="517.0889" y1="889.0894" y2="889.0894"/></g><!--class Father--><g class="entity" data-entity="Father" data-source-line="8" data-uid="ent0004" id="entity_Father"><rect fill="#F1F1F1" height="83.2188" rx="2.5" ry="2.5" style="stroke:#181818;stroke-width:0.5;" width="197.9648" x="52.41" y="45.6094"/><ellipse cx="100.0599" cy="61.6094" fill="#ADD1B2" rx="11" ry="11" style="stroke:#181818;stroke-width:1;"/><path d="M102.8255,57.4844 Q102.9818,57.2656 103.1693,57.1563 Q103.3568,57.0469 103.5755,57.0469 Q103.9505,57.0469 104.1849,57.3125 Q104.4193,57.5625 104.4193,58.1719 L104.4193,59.625 Q104.4193,60.2344 104.1849,60.5 Q103.9505,60.7656 103.5755,60.7656 Q103.2318,60.7656 103.0287,60.5625 Q102.8255,60.375 102.7162,59.8594 Q102.6693,59.5 102.4818,59.3125 Q102.1537,58.9375 101.5443,58.7188 Q100.9349,58.5 100.3099,58.5 Q99.5443,58.5 98.9037,58.8281 Q98.2787,59.1563 97.7787,59.9063 Q97.2943,60.6563 97.2943,61.6875 L97.2943,62.7813 Q97.2943,64.0156 98.1849,64.8438 Q99.0755,65.6563 100.6693,65.6563 Q101.6068,65.6563 102.263,65.4063 Q102.6537,65.25 103.0755,64.8125 Q103.3412,64.5469 103.4818,64.4688 Q103.638,64.3906 103.8412,64.3906 Q104.1693,64.3906 104.4193,64.6563 Q104.6849,64.9063 104.6849,65.25 Q104.6849,65.5938 104.3412,66 Q103.8412,66.5781 103.0443,66.9063 Q101.9662,67.3594 100.6693,67.3594 Q99.1537,67.3594 97.9505,66.7344 Q96.9662,66.2344 96.2787,65.1719 Q95.5912,64.0938 95.5912,62.8125 L95.5912,61.6563 Q95.5912,60.3281 96.2005,59.1875 Q96.8255,58.0313 97.9193,57.4219 Q99.013,56.7969 100.2474,56.7969 Q100.9818,56.7969 101.6224,56.9688 Q102.2787,57.125 102.8255,57.4844 Z " fill="#000000"/><text fill="#000000" font-family="sans-serif" font-size="14" lengthAdjust="spacing" textLength="94.165" x="120.5599" y="67.3379">God the Father</text><line style="stroke:#181818;stroke-width:0.5;" x1="53.41" x2="249.3748" y1="77.6094" y2="77.6094"/><text fill="#000000" font-family="sans-serif" font-size="14" lengthAdjust="spacing" textLength="185.9648" x="58.41" y="96.1426">Role: Proclaims Jesus as Son</text><text fill="#000000" font-family="sans-serif" font-size="14" lengthAdjust="spacing" textLength="88.7031" x="58.41" y="113.752">Nature: Divine</text><line style="stroke:#181818;stroke-width:0.5;" x1="53.41" x2="249.3748" y1="120.8281" y2="120.8281"/></g><!--class Spirit--><g class="entity" data-entity="Spirit" data-source-line="12" data-uid="ent0005" id="entity_Spirit"><rect fill="#F1F1F1" height="83.2188" rx="2.5" ry="2.5" style="stroke:#181818;stroke-width:0.5;" width="163.751" x="69.52" y="206.8194"/><ellipse cx="115.249" cy="222.8194" fill="#ADD1B2" rx="11" ry="11" style="stroke:#181818;stroke-width:1;"/><path d="M118.0146,218.6944 Q118.1709,218.4756 118.3584,218.3663 Q118.5459,218.2569 118.7646,218.2569 Q119.1396,218.2569 119.374,218.5225 Q119.6084,218.7725 119.6084,219.3819 L119.6084,220.835 Q119.6084,221.4444 119.374,221.71 Q119.1396,221.9756 118.7646,221.9756 Q118.4209,221.9756 118.2178,221.7725 Q118.0146,221.585 117.9053,221.0694 Q117.8584,220.71 117.6709,220.5225 Q117.3428,220.1475 116.7334,219.9288 Q116.124,219.71 115.499,219.71 Q114.7334,219.71 114.0928,220.0381 Q113.4678,220.3663 112.9678,221.1163 Q112.4834,221.8663 112.4834,222.8975 L112.4834,223.9913 Q112.4834,225.2256 113.374,226.0538 Q114.2646,226.8663 115.8584,226.8663 Q116.7959,226.8663 117.4521,226.6163 Q117.8428,226.46 118.2646,226.0225 Q118.5303,225.7569 118.6709,225.6788 Q118.8271,225.6006 119.0303,225.6006 Q119.3584,225.6006 119.6084,225.8663 Q119.874,226.1163 119.874,226.46 Q119.874,226.8038 119.5303,227.21 Q119.0303,227.7881 118.2334,228.1163 Q117.1553,228.5694 115.8584,228.5694 Q114.3428,228.5694 113.1396,227.9444 Q112.1553,227.4444 111.4678,226.3819 Q110.7803,225.3038 110.7803,224.0225 L110.7803,222.8663 Q110.7803,221.5381 111.3896,220.3975 Q112.0146,219.2413 113.1084,218.6319 Q114.2021,218.0069 115.4365,218.0069 Q116.1709,218.0069 116.8115,218.1788 Q117.4678,218.335 118.0146,218.6944 Z " fill="#000000"/><text fill="#000000" font-family="sans-serif" font-size="14" lengthAdjust="spacing" textLength="63.793" x="135.749" y="228.5479">Holy Spirit</text><line style="stroke:#181818;stroke-width:0.5;" x1="70.52" x2="232.271" y1="238.8194" y2="238.8194"/><text fill="#000000" font-family="sans-serif" font-size="14" lengthAdjust="spacing" textLength="151.751" x="75.52" y="257.3526">Role: Descends as dove</text><text fill="#000000" font-family="sans-serif" font-size="14" lengthAdjust="spacing" textLength="88.7031" x="75.52" y="274.962">Nature: Divine</text><line style="stroke:#181818;stroke-width:0.5;" x1="70.52" x2="232.271" y1="282.0381" y2="282.0381"/></g><!--class Jesus--><g class="entity" data-entity="Jesus" data-source-line="18" data-uid="ent0006" id="entity_Jesus"><rect fill="#F1F1F1" height="83.2188" rx="2.5" ry="2.5" style="stroke:#181818;stroke-width:0.5;" width="180.1094" x="205.34" y="384.0394"/><ellipse cx="252.6344" cy="400.0394" fill="#ADD1B2" rx="11" ry="11" style="stroke:#181818;stroke-width:1;"/><path d="M255.4001,395.9144 Q255.5563,395.6956 255.7438,395.5863 Q255.9313,395.4769 256.1501,395.4769 Q256.5251,395.4769 256.7594,395.7425 Q256.9938,395.9925 256.9938,396.6019 L256.9938,398.055 Q256.9938,398.6644 256.7594,398.93 Q256.5251,399.1956 256.1501,399.1956 Q255.8063,399.1956 255.6032,398.9925 Q255.4001,398.805 255.2907,398.2894 Q255.2438,397.93 255.0563,397.7425 Q254.7282,397.3675 254.1188,397.1488 Q253.5094,396.93 252.8844,396.93 Q252.1188,396.93 251.4782,397.2581 Q250.8532,397.5863 250.3532,398.3363 Q249.8688,399.0863 249.8688,400.1175 L249.8688,401.2113 Q249.8688,402.4456 250.7594,403.2738 Q251.6501,404.0863 253.2438,404.0863 Q254.1813,404.0863 254.8376,403.8363 Q255.2282,403.68 255.6501,403.2425 Q255.9157,402.9769 256.0563,402.8988 Q256.2126,402.8206 256.4157,402.8206 Q256.7438,402.8206 256.9938,403.0863 Q257.2594,403.3363 257.2594,403.68 Q257.2594,404.0238 256.9157,404.43 Q256.4157,405.0081 255.6188,405.3363 Q254.5407,405.7894 253.2438,405.7894 Q251.7282,405.7894 250.5251,405.1644 Q249.5407,404.6644 248.8532,403.6019 Q248.1657,402.5238 248.1657,401.2425 L248.1657,400.0863 Q248.1657,398.7581 248.7751,397.6175 Q249.4001,396.4613 250.4938,395.8519 Q251.5876,395.2269 252.8219,395.2269 Q253.5563,395.2269 254.1969,395.3988 Q254.8532,395.555 255.4001,395.9144 Z " fill="#000000"/><text fill="#000000" font-family="sans-serif" font-size="14" lengthAdjust="spacing" textLength="77.0205" x="273.1344" y="405.7679">Jesus Christ</text><line style="stroke:#181818;stroke-width:0.5;" x1="206.34" x2="384.4494" y1="416.0394" y2="416.0394"/><text fill="#000000" font-family="sans-serif" font-size="14" lengthAdjust="spacing" textLength="168.1094" x="211.34" y="434.5726">Role: Son of God, baptized</text><text fill="#000000" font-family="sans-serif" font-size="14" lengthAdjust="spacing" textLength="56.4375" x="211.34" y="452.182">Age: ~30</text><line style="stroke:#181818;stroke-width:0.5;" x1="206.34" x2="384.4494" y1="459.2581" y2="459.2581"/></g><!--class John--><g class="entity" data-entity="John" data-source-line="22" data-uid="ent0007" id="entity_John"><rect fill="#F1F1F1" height="83.2188" rx="2.5" ry="2.5" style="stroke:#181818;stroke-width:0.5;" width="156.7441" x="377.02" y="545.2594"/><ellipse cx="402.9751" cy="561.2594" fill="#ADD1B2" rx="11" ry="11" style="stroke:#181818;stroke-width:1;"/><path d="M405.7408,557.1344 Q405.897,556.9156 406.0845,556.8063 Q406.272,556.6969 406.4908,556.6969 Q406.8658,556.6969 407.1001,556.9625 Q407.3345,557.2125 407.3345,557.8219 L407.3345,559.275 Q407.3345,559.8844 407.1001,560.15 Q406.8658,560.4156 406.4908,560.4156 Q406.147,560.4156 405.9439,560.2125 Q405.7408,560.025 405.6314,559.5094 Q405.5845,559.15 405.397,558.9625 Q405.0689,558.5875 404.4595,558.3688 Q403.8501,558.15 403.2251,558.15 Q402.4595,558.15 401.8189,558.4781 Q401.1939,558.8063 400.6939,559.5563 Q400.2095,560.3063 400.2095,561.3375 L400.2095,562.4313 Q400.2095,563.6656 401.1001,564.4938 Q401.9908,565.3063 403.5845,565.3063 Q404.522,565.3063 405.1783,565.0563 Q405.5689,564.9 405.9908,564.4625 Q406.2564,564.1969 406.397,564.1188 Q406.5533,564.0406 406.7564,564.0406 Q407.0845,564.0406 407.3345,564.3063 Q407.6001,564.5563 407.6001,564.9 Q407.6001,565.2438 407.2564,565.65 Q406.7564,566.2281 405.9595,566.5563 Q404.8814,567.0094 403.5845,567.0094 Q402.0689,567.0094 400.8658,566.3844 Q399.8814,565.8844 399.1939,564.8219 Q398.5064,563.7438 398.5064,562.4625 L398.5064,561.3063 Q398.5064,559.9781 399.1158,558.8375 Q399.7408,557.6813 400.8345,557.0719 Q401.9283,556.4469 403.1626,556.4469 Q403.897,556.4469 404.5376,556.6188 Q405.1939,556.775 405.7408,557.1344 Z " fill="#000000"/><text fill="#000000" font-family="sans-serif" font-size="14" lengthAdjust="spacing" textLength="100.3994" x="419.4096" y="566.9879">John the Baptist</text><line style="stroke:#181818;stroke-width:0.5;" x1="378.02" x2="532.7641" y1="577.2594" y2="577.2594"/><text fill="#000000" font-family="sans-serif" font-size="14" lengthAdjust="spacing" textLength="144.7441" x="383.02" y="595.7926">Role: Prophet, Baptizer</text><text fill="#000000" font-family="sans-serif" font-size="14" lengthAdjust="spacing" textLength="56.4375" x="383.02" y="613.402">Age: ~30</text><line style="stroke:#181818;stroke-width:0.5;" x1="378.02" x2="532.7641" y1="620.4781" y2="620.4781"/></g><!--class Pharisees--><g class="entity" data-entity="Pharisees" data-source-line="26" data-uid="ent0008" id="entity_Pharisees"><rect fill="#F1F1F1" height="65.6094" rx="2.5" ry="2.5" style="stroke:#181818;stroke-width:0.5;" width="262.585" x="324.1" y="722.4794"/><ellipse cx="420.015" cy="738.4794" fill="#ADD1B2" rx="11" ry="11" style="stroke:#181818;stroke-width:1;"/><path d="M422.7807,734.3544 Q422.9369,734.1356 423.1244,734.0263 Q423.3119,733.9169 423.5307,733.9169 Q423.9057,733.9169 424.14,734.1825 Q424.3744,734.4325 424.3744,735.0419 L424.3744,736.495 Q424.3744,737.1044 424.14,737.37 Q423.9057,737.6356 423.5307,737.6356 Q423.1869,737.6356 422.9838,737.4325 Q422.7807,737.245 422.6713,736.7294 Q422.6244,736.37 422.4369,736.1825 Q422.1088,735.8075 421.4994,735.5888 Q420.89,735.37 420.265,735.37 Q419.4994,735.37 418.8588,735.6981 Q418.2338,736.0263 417.7338,736.7763 Q417.2494,737.5263 417.2494,738.5575 L417.2494,739.6513 Q417.2494,740.8856 418.14,741.7138 Q419.0307,742.5263 420.6244,742.5263 Q421.5619,742.5263 422.2182,742.2763 Q422.6088,742.12 423.0307,741.6825 Q423.2963,741.4169 423.4369,741.3388 Q423.5932,741.2606 423.7963,741.2606 Q424.1244,741.2606 424.3744,741.5263 Q424.64,741.7763 424.64,742.12 Q424.64,742.4638 424.2963,742.87 Q423.7963,743.4481 422.9994,743.7763 Q421.9213,744.2294 420.6244,744.2294 Q419.1088,744.2294 417.9057,743.6044 Q416.9213,743.1044 416.2338,742.0419 Q415.5463,740.9638 415.5463,739.6825 L415.5463,738.5263 Q415.5463,737.1981 416.1557,736.0575 Q416.7807,734.9013 417.8744,734.2919 Q418.9682,733.6669 420.2025,733.6669 Q420.9369,733.6669 421.5775,733.8388 Q422.2338,733.995 422.7807,734.3544 Z " fill="#000000"/><text fill="#000000" font-family="sans-serif" font-size="14" lengthAdjust="spacing" textLength="62.2549" x="440.515" y="744.2079">Pharisees</text><line style="stroke:#181818;stroke-width:0.5;" x1="325.1" x2="585.685" y1="754.4794" y2="754.4794"/><text fill="#000000" font-family="sans-serif" font-size="14" lengthAdjust="spacing" textLength="250.585" x="330.1" y="773.0126">Role: Religious leaders, warned by John</text><line style="stroke:#181818;stroke-width:0.5;" x1="325.1" x2="585.685" y1="780.0888" y2="780.0888"/></g><!--class Sadducees--><g class="entity" data-entity="Sadducees" data-source-line="29" data-uid="ent0009" id="entity_Sadducees"><rect fill="#F1F1F1" height="65.6094" rx="2.5" ry="2.5" style="stroke:#181818;stroke-width:0.5;" width="262.585" x="622.1" y="722.4794"/><ellipse cx="714.1151" cy="738.4794" fill="#ADD1B2" rx="11" ry="11" style="stroke:#181818;stroke-width:1;"/><path d="M716.8808,734.3544 Q717.037,734.1356 717.2245,734.0263 Q717.412,733.9169 717.6308,733.9169 Q718.0058,733.9169 718.2401,734.1825 Q718.4745,734.4325 718.4745,735.0419 L718.4745,736.495 Q718.4745,737.1044 718.2401,737.37 Q718.0058,737.6356 717.6308,737.6356 Q717.287,737.6356 717.0839,737.4325 Q716.8808,737.245 716.7714,736.7294 Q716.7245,736.37 716.537,736.1825 Q716.2089,735.8075 715.5995,735.5888 Q714.9901,735.37 714.3651,735.37 Q713.5995,735.37 712.9589,735.6981 Q712.3339,736.0263 711.8339,736.7763 Q711.3495,737.5263 711.3495,738.5575 L711.3495,739.6513 Q711.3495,740.8856 712.2401,741.7138 Q713.1308,742.5263 714.7245,742.5263 Q715.662,742.5263 716.3183,742.2763 Q716.7089,742.12 717.1308,741.6825 Q717.3964,741.4169 717.537,741.3388 Q717.6933,741.2606 717.8964,741.2606 Q718.2245,741.2606 718.4745,741.5263 Q718.7401,741.7763 718.7401,742.12 Q718.7401,742.4638 718.3964,742.87 Q717.8964,743.4481 717.0995,743.7763 Q716.0214,744.2294 714.7245,744.2294 Q713.2089,744.2294 712.0058,743.6044 Q711.0214,743.1044 710.3339,742.0419 Q709.6464,740.9638 709.6464,739.6825 L709.6464,738.5263 Q709.6464,737.1981 710.2558,736.0575 Q710.8808,734.9013 711.9745,734.2919 Q713.0683,733.6669 714.3026,733.6669 Q715.037,733.6669 715.6776,733.8388 Q716.3339,733.995 716.8808,734.3544 Z " fill="#000000"/><text fill="#000000" font-family="sans-serif" font-size="14" lengthAdjust="spacing" textLength="70.0547" x="734.6151" y="744.2079">Sadducees</text><line style="stroke:#181818;stroke-width:0.5;" x1="623.1" x2="883.685" y1="754.4794" y2="754.4794"/><text fill="#000000" font-family="sans-serif" font-size="14" lengthAdjust="spacing" textLength="250.585" x="628.1" y="773.0126">Role: Religious leaders, warned by John</text><line style="stroke:#181818;stroke-width:0.5;" x1="623.1" x2="883.685" y1="780.0888" y2="780.0888"/></g><!--class Crowds--><g class="entity" data-entity="Crowds" data-source-line="32" data-uid="ent0010" id="entity_Crowds"><rect fill="#F1F1F1" height="65.6094" rx="2.5" ry="2.5" style="stroke:#181818;stroke-width:0.5;" width="260.2471" x="919.27" y="722.4794"/><ellipse cx="997.6748" cy="738.4794" fill="#ADD1B2" rx="11" ry="11" style="stroke:#181818;stroke-width:1;"/><path d="M1000.4404,734.3544 Q1000.5967,734.1356 1000.7842,734.0263 Q1000.9717,733.9169 1001.1904,733.9169 Q1001.5654,733.9169 1001.7998,734.1825 Q1002.0342,734.4325 1002.0342,735.0419 L1002.0342,736.495 Q1002.0342,737.1044 1001.7998,737.37 Q1001.5654,737.6356 1001.1904,737.6356 Q1000.8467,737.6356 1000.6435,737.4325 Q1000.4404,737.245 1000.331,736.7294 Q1000.2842,736.37 1000.0967,736.1825 Q999.7685,735.8075 999.1592,735.5888 Q998.5498,735.37 997.9248,735.37 Q997.1592,735.37 996.5185,735.6981 Q995.8935,736.0263 995.3935,736.7763 Q994.9092,737.5263 994.9092,738.5575 L994.9092,739.6513 Q994.9092,740.8856 995.7998,741.7138 Q996.6904,742.5263 998.2842,742.5263 Q999.2217,742.5263 999.8779,742.2763 Q1000.2685,742.12 1000.6904,741.6825 Q1000.956,741.4169 1001.0967,741.3388 Q1001.2529,741.2606 1001.456,741.2606 Q1001.7842,741.2606 1002.0342,741.5263 Q1002.2998,741.7763 1002.2998,742.12 Q1002.2998,742.4638 1001.956,742.87 Q1001.456,743.4481 1000.6592,743.7763 Q999.581,744.2294 998.2842,744.2294 Q996.7685,744.2294 995.5654,743.6044 Q994.581,743.1044 993.8935,742.0419 Q993.206,740.9638 993.206,739.6825 L993.206,738.5263 Q993.206,737.1981 993.8154,736.0575 Q994.4404,734.9013 995.5342,734.2919 Q996.6279,733.6669 997.8623,733.6669 Q998.5967,733.6669 999.2373,733.8388 Q999.8935,733.995 1000.4404,734.3544 Z " fill="#000000"/><text fill="#000000" font-family="sans-serif" font-size="14" lengthAdjust="spacing" textLength="94.9375" x="1018.1748" y="744.2079">Crowds/People</text><line style="stroke:#181818;stroke-width:0.5;" x1="920.27" x2="1178.5171" y1="754.4794" y2="754.4794"/><text fill="#000000" font-family="sans-serif" font-size="14" lengthAdjust="spacing" textLength="248.2471" x="925.27" y="773.0126">Role: Come for baptism and repentance</text><line style="stroke:#181818;stroke-width:0.5;" x1="920.27" x2="1178.5171" y1="780.0888" y2="780.0888"/></g><!--link Father to Divine--><g class="link" data-entity-1="Father" data-entity-2="Divine" data-source-line="37" data-uid="lnk11" id="link_Father_Divine"><path codeLine="37" d="M104.73,129.3194 C84.5,150.2394 63.04,177.4494 52.4,206.8194 C6,334.8094 50.8755,485.3118 72.5355,545.8418" fill="none" id="Father-to-Divine" style="stroke:#181818;stroke-width:1;"/><polygon fill="none" points="78.6,562.7894,78.1847,543.8203,66.8863,547.8633,78.6,562.7894" style="stroke:#181818;stroke-width:1;"/></g><!--link Spirit to Divine--><g class="link" data-entity-1="Spirit" data-entity-2="Divine" data-source-line="38" data-uid="lnk12" id="link_Spirit_Divine"><path codeLine="38" d="M143.61,290.3494 C130.05,361.6194 105.8934,488.6364 95.1734,544.9964" fill="none" id="Spirit-to-Divine" style="stroke:#181818;stroke-width:1;"/><polygon fill="none" points="91.81,562.6794,101.0677,546.1175,89.2791,543.8753,91.81,562.6794" style="stroke:#181818;stroke-width:1;"/></g><!--link Jesus to Divine--><g class="link" data-entity-1="Jesus" data-entity-2="Divine" data-source-line="39" data-uid="lnk13" id="link_Jesus_Divine"><path codeLine="39" d="M217.87,467.7494 C202.97,476.7894 187.83,486.7994 174.4,497.2594 C149.05,516.9894 135.6465,530.2787 118.9165,549.2187" fill="none" id="Jesus-to-Divine" style="stroke:#181818;stroke-width:1;"/><polygon fill="none" points="107,562.7094,123.4134,553.1909,114.4196,545.2466,107,562.7094" style="stroke:#181818;stroke-width:1;"/></g><!--link Jesus to Human--><g class="link" data-entity-1="Jesus" data-entity-2="Human" data-source-line="40" data-uid="lnk14" id="link_Jesus_Human"><path codeLine="40" d="M283.54,467.4994 C265.69,537.0494 238.95,681.2994 288.4,788.0894 C307.01,828.2894 335.9278,844.6065 375.0478,855.6565" fill="none" id="Jesus-to-Human" style="stroke:#181818;stroke-width:1;"/><polygon fill="none" points="392.37,860.5494,376.6787,849.8824,373.4168,861.4305,392.37,860.5494" style="stroke:#181818;stroke-width:1;"/></g><!--link John to Human--><g class="link" data-entity-1="John" data-entity-2="Human" data-source-line="41" data-uid="lnk15" id="link_John_Human"><path codeLine="41" d="M389.34,628.9394 C335.09,668.1394 272.3,729.7294 306.4,788.0894 C324.97,819.8794 343.835,833.8111 375.545,846.7011" fill="none" id="John-to-Human" style="stroke:#181818;stroke-width:1;"/><polygon fill="none" points="392.22,853.4794,377.8045,841.1427,373.2856,852.2594,392.22,853.4794" style="stroke:#181818;stroke-width:1;"/></g><!--link Pharisees to Human--><g class="link" data-entity-1="Pharisees" data-entity-2="Human" data-source-line="42" data-uid="lnk16" id="link_Pharisees_Human"><path codeLine="42" d="M455.4,788.5394 C455.4,807.6794 455.4,813.5094 455.4,830.8094" fill="none" id="Pharisees-to-Human" style="stroke:#181818;stroke-width:1;"/><polygon fill="none" points="455.4,848.8094,461.4,830.8094,449.4,830.8094,455.4,848.8094" style="stroke:#181818;stroke-width:1;"/></g><!--link Sadducees to Human--><g class="link" data-entity-1="Sadducees" data-entity-2="Human" data-source-line="43" data-uid="lnk17" id="link_Sadducees_Human"><path codeLine="43" d="M670.39,788.5394 C621.3,807.6194 577.0276,824.8192 532.5376,842.1092" fill="none" id="Sadducees-to-Human" style="stroke:#181818;stroke-width:1;"/><polygon fill="none" points="515.76,848.6294,534.711,847.7017,530.3642,836.5166,515.76,848.6294" style="stroke:#181818;stroke-width:1;"/></g><!--link Crowds to Human--><g class="link" data-entity-1="Crowds" data-entity-2="Human" data-source-line="44" data-uid="lnk18" id="link_Crowds_Human"><path codeLine="44" d="M918.79,784.7394 C913.25,785.8794 907.77,786.9994 902.4,788.0894 C765.79,815.6994 622.7838,841.9721 536.1338,857.6121" fill="none" id="Crowds-to-Human" style="stroke:#181818;stroke-width:1;"/><polygon fill="none" points="518.42,860.8094,537.1995,863.5167,535.068,851.7075,518.42,860.8094" style="stroke:#181818;stroke-width:1;"/></g><!--link John to Crowds--><g class="link" data-entity-1="John" data-entity-2="Crowds" data-source-line="47" data-uid="lnk19" id="link_John_Crowds"><path codeLine="47" d="M534.02,597.1494 C605.55,607.1494 713.24,626.1594 802.4,658.4794 C832.31,669.3294 836.21,679.8094 865.4,692.4794 C890.13,703.2094 911.6892,711.3383 937.4592,720.0983" fill="none" id="John-to-Crowds" style="stroke:#181818;stroke-width:1;"/><polygon fill="#181818" points="943.14,722.0294,935.9062,715.3456,938.406,720.4202,933.3315,722.92,943.14,722.0294" style="stroke:#181818;stroke-width:1;"/><text fill="#000000" font-family="sans-serif" font-size="13" lengthAdjust="spacing" textLength="49.8608" x="905.7904" y="672.9745">Baptizes</text><text fill="#000000" font-family="sans-serif" font-size="13" lengthAdjust="spacing" textLength="128.6416" x="866.4" y="689.3261">Preaches Repentance</text></g><!--link Crowds to John--><g class="link" data-entity-1="Crowds" data-entity-2="John" data-source-line="55" data-uid="lnk27" id="link_Crowds_John"><path codeLine="55" d="M1041.17,722.3594 C1033.87,700.7594 1020.93,673.5194 999.4,658.4794 C925.89,607.1694 672.3275,593.3131 540.0875,589.4831" fill="none" id="Crowds-to-John" style="stroke:#181818;stroke-width:1;"/><polygon fill="#181818" points="534.09,589.3094,542.9704,593.5683,539.0879,589.4541,543.202,585.5716,534.09,589.3094" style="stroke:#181818;stroke-width:1;"/><text fill="#000000" font-family="sans-serif" font-size="13" lengthAdjust="spacing" textLength="74.4199" x="1039.3986" y="672.9745">Confess sins</text><text fill="#000000" font-family="sans-serif" font-size="13" lengthAdjust="spacing" textLength="96.0972" x="1028.56" y="689.3261">Receive baptism</text></g><!--link John to Pharisees--><g class="link" data-entity-1="John" data-entity-2="Pharisees" data-source-line="48" data-uid="lnk20" id="link_John_Pharisees"><path codeLine="48" d="M455.4,628.5794 C455.4,657.3494 455.4,689.3894 455.4,716.0594" fill="none" id="John-to-Pharisees" style="stroke:#181818;stroke-width:1;"/><polygon fill="#181818" points="455.4,722.0594,459.4,713.0594,455.4,717.0594,451.4,713.0594,455.4,722.0594" style="stroke:#181818;stroke-width:1;"/><text fill="#000000" font-family="sans-serif" font-size="13" lengthAdjust="spacing" textLength="37.5591" x="490.2806" y="672.9745">Warns</text><text fill="#000000" font-family="sans-serif" font-size="13" lengthAdjust="spacing" textLength="105.3203" x="456.4" y="689.3261">("Brood of vipers")</text></g><!--link John to Sadducees--><g class="link" data-entity-1="John" data-entity-2="Sadducees" data-source-line="49" data-uid="lnk21" id="link_John_Sadducees"><path codeLine="49" d="M528.68,628.7894 C580.2,657.5694 642.9518,692.6035 690.5918,719.2135" fill="none" id="John-to-Sadducees" style="stroke:#181818;stroke-width:1;"/><polygon fill="#181818" points="695.83,722.1394,689.9232,714.2584,691.4648,719.7011,686.022,721.2427,695.83,722.1394" style="stroke:#181818;stroke-width:1;"/><text fill="#000000" font-family="sans-serif" font-size="13" lengthAdjust="spacing" textLength="37.5591" x="698.9438" y="672.9745">Warns</text><text fill="#000000" font-family="sans-serif" font-size="13" lengthAdjust="spacing" textLength="153.7466" x="640.85" y="689.3261">("Bear fruit of repentance")</text></g><!--link Jesus to John--><g class="link" data-entity-1="Jesus" data-entity-2="John" data-source-line="50" data-uid="lnk22" id="link_Jesus_John"><path codeLine="50" d="M290.16,467.5494 C290.13,483.6794 292.87,501.5894 302.4,515.2594 C319.96,540.4594 343.2385,554.7455 371.2185,565.3355" fill="none" id="Jesus-to-John" style="stroke:#181818;stroke-width:1;"/><polygon fill="#181818" points="376.83,567.4594,369.8286,560.5326,372.1537,565.6895,366.9968,568.0146,376.83,567.4594" style="stroke:#181818;stroke-width:1;"/><text fill="#000000" font-family="sans-serif" font-size="13" lengthAdjust="spacing" textLength="105.4917" x="303.4" y="511.7545">Requests Baptism</text></g><!--link John to Jesus--><g class="link" data-entity-1="John" data-entity-2="Jesus" data-source-line="51" data-uid="lnk23" id="link_John_Jesus"><path codeLine="51" d="M441.91,544.9194 C435.16,528.7694 425.75,510.8794 413.4,497.2594 C403.37,486.2094 396.165,479.7182 383.505,471.1282" fill="none" id="John-to-Jesus" style="stroke:#181818;stroke-width:1;"/><polygon fill="#181818" points="378.54,467.7594,383.7416,476.1226,382.6775,470.5667,388.2334,469.5026,378.54,467.7594" style="stroke:#181818;stroke-width:1;"/><text fill="#000000" font-family="sans-serif" font-size="13" lengthAdjust="spacing" textLength="106.9517" x="427.2" y="511.7545">Baptizes in Jordan</text></g><!--link Spirit to Jesus--><g class="link" data-entity-1="Spirit" data-entity-2="Jesus" data-source-line="52" data-uid="lnk24" id="link_Spirit_Jesus"><path codeLine="52" d="M174.23,290.3694 C186.24,310.4094 201.88,334.3994 218.4,354.0394 C227.03,364.3194 232.7357,370.4427 242.7057,379.8027" fill="none" id="Spirit-to-Jesus" style="stroke:#181818;stroke-width:1;"/><polygon fill="#181818" points="247.08,383.9094,243.2563,374.8331,243.4347,380.4871,237.7807,380.6655,247.08,383.9094" style="stroke:#181818;stroke-width:1;"/><text fill="#000000" font-family="sans-serif" font-size="13" lengthAdjust="spacing" textLength="57.8081" x="219.4" y="334.5345">Descends</text><text fill="#000000" font-family="sans-serif" font-size="13" lengthAdjust="spacing" textLength="47.6899" x="224.4591" y="350.8861">as Dove</text></g><!--link Father to Jesus--><g class="link" data-entity-1="Father" data-entity-2="Jesus" data-source-line="53" data-uid="lnk25" id="link_Father_Jesus"><path codeLine="53" d="M193.16,129.1894 C213,150.6794 235.55,178.4094 250.4,206.8194 C280.08,263.6394 289.7379,332.3764 293.1779,377.8964" fill="none" id="Father-to-Jesus" style="stroke:#181818;stroke-width:1;"/><polygon fill="#181818" points="293.63,383.8794,296.9404,374.6035,293.2532,378.8936,288.9632,375.2064,293.63,383.8794" style="stroke:#181818;stroke-width:1;"/><text fill="#000000" font-family="sans-serif" font-size="13" lengthAdjust="spacing" textLength="51.2954" x="280.55" y="253.9245">Declares</text><text fill="#000000" font-family="sans-serif" font-size="13" lengthAdjust="spacing" textLength="73.7217" x="214.3522" y="373.1606">Beloved Son</text></g><!--link Father to Spirit--><g class="link" data-entity-1="Father" data-entity-2="Spirit" data-source-line="54" data-uid="lnk26" id="link_Father_Spirit"><path codeLine="54" d="M151.4,129.2194 C151.4,152.9894 151.4,176.8194 151.4,200.5694" fill="none" id="Father-to-Spirit" style="stroke:#181818;stroke-width:1;"/><polygon fill="#181818" points="151.4,206.5694,155.4,197.5694,151.4,201.5694,147.4,197.5694,151.4,206.5694" style="stroke:#181818;stroke-width:1;"/><text fill="#000000" font-family="sans-serif" font-size="13" lengthAdjust="spacing" textLength="36.8608" x="152.4" y="173.3145">Sends</text></g><!--SRC=[dPGzRzim48Pt_Og3bYQ0ZHR8vi50OwDD0xGmxA5B5beyMGGaKkLHDfn-_FOUIKbasdJfOaZ7bu_U-x9JhaNuB9nhy09ti8IzQP50Q0bxR8LJHbEZUeARJIk8OAl4oOeE3kxQucrHl84jraeZY2CvAoe7LT3LneBrgEAFWtAhpbw_Gqj6bo0yqqV-4ZuCdT2vBWJ29tC45QF-ev70QS07mRyst8YFyBs0aDSATjQmMdK4ZqW3USt1Q3x-8jnWMJ1w-Jb17qnxXKElh7A161ypuXQfGYq3IfepliPYotaoi-FeOTDOHP4U0mdEti3Km9aju2XwfvvHyk7x4v_zkdkNR3wQHeVaxxrgeldWYzpx1jqYQfxHlahQDOBj8590p6yPX-T2dPHXeoqAoHaju2AiHWd7Q_XcWXs4b4CrmUQt_uDjhBb8Uhj3qxSOW36IqJQcmp1weLZKXJcssADsGbTZApvfdWaL0bIC4x9S_bXF_HfRd8TYN_uHYMCPYfszfyfbmLI1B3XcaKNOv8lbc-3hAUFLr4DwqZkBeceOkKzvplhaOWLVkQwilodlhU5LuRawgvuhNjucVJAOwr5OgEt0HU5BgPp-ubY6THmstyzl0vAZSH2xX8xIv1oKvajM-h9C5K-gQQsUjF-3y7irToeNyMXOHh75bZNIBqoPAqSoRvA7fLBFVZT6ryZJHShdkiSArHcdyIb-0m00]--></g></svg>