<svg xmlns="http://www.w3.org/2000/svg" xmlns:xlink="http://www.w3.org/1999/xlink" contentStyleType="text/css" data-diagram-type="CLASS" height="643px" preserveAspectRatio="none" style="width:930px;height:643px;background:#FFFFFF;" version="1.1" viewBox="0 0 930 643" width="930px" zoomAndPan="magnify"><title>Geographical Movement in Matthew 2 (RSV-CE)</title><defs/><g><g class="title" data-source-line="1"><text fill="#000000" font-family="sans-serif" font-size="14" font-weight="bold" lengthAdjust="spacing" textLength="316.5996" x="299.8392" y="24.5332">Geographical Movement in Matthew 2 (RSV-CE)</text></g><!--class Bethlehem--><g class="entity" data-entity="Bethlehem" data-source-line="6" data-uid="ent0002" id="entity_Bethlehem"><rect fill="#F1F1F1" height="76.3125" rx="2.5" ry="2.5" style="stroke:#181818;stroke-width:0.5;" width="159.6064" x="455.87" y="180.0094"/><ellipse cx="470.87" cy="210.1656" fill="#ADD1B2" rx="11" ry="11" style="stroke:#181818;stroke-width:1;"/><path d="M473.6356,206.0406 Q473.7919,205.8219 473.9794,205.7125 Q474.1669,205.6031 474.3856,205.6031 Q474.7606,205.6031 474.995,205.8688 Q475.2294,206.1188 475.2294,206.7281 L475.2294,208.1813 Q475.2294,208.7906 474.995,209.0563 Q474.7606,209.3219 474.3856,209.3219 Q474.0419,209.3219 473.8388,209.1188 Q473.6356,208.9313 473.5263,208.4156 Q473.4794,208.0563 473.2919,207.8688 Q472.9638,207.4938 472.3544,207.275 Q471.745,207.0563 471.12,207.0563 Q470.3544,207.0563 469.7138,207.3844 Q469.0888,207.7125 468.5888,208.4625 Q468.1044,209.2125 468.1044,210.2438 L468.1044,211.3375 Q468.1044,212.5719 468.995,213.4 Q469.8856,214.2125 471.4794,214.2125 Q472.4169,214.2125 473.0731,213.9625 Q473.4638,213.8063 473.8856,213.3688 Q474.1513,213.1031 474.2919,213.025 Q474.4481,212.9469 474.6513,212.9469 Q474.9794,212.9469 475.2294,213.2125 Q475.495,213.4625 475.495,213.8063 Q475.495,214.15 475.1513,214.5563 Q474.6513,215.1344 473.8544,215.4625 Q472.7763,215.9156 471.4794,215.9156 Q469.9638,215.9156 468.7606,215.2906 Q467.7763,214.7906 467.0888,213.7281 Q466.4013,212.65 466.4013,211.3688 L466.4013,210.2125 Q466.4013,208.8844 467.0106,207.7438 Q467.6356,206.5875 468.7294,205.9781 Q469.8231,205.3531 471.0575,205.3531 Q471.7919,205.3531 472.4325,205.525 Q473.0888,205.6813 473.6356,206.0406 Z " fill="#000000"/><text fill="#000000" font-family="sans-serif" font-size="12" font-style="italic" lengthAdjust="spacing" textLength="54.709" x="521.3187" y="197.4664">&#171;location&#187;</text><text fill="#000000" font-family="sans-serif" font-size="14" lengthAdjust="spacing" textLength="66.9307" x="515.2079" y="214.6363">Bethlehem</text><text fill="#000000" font-family="sans-serif" font-size="14" lengthAdjust="spacing" textLength="127.6064" x="484.87" y="232.2457">(Birthplace of Jesus)</text><line style="stroke:#181818;stroke-width:0.5;" x1="456.87" x2="614.4764" y1="240.3219" y2="240.3219"/><line style="stroke:#181818;stroke-width:0.5;" x1="456.87" x2="614.4764" y1="248.3219" y2="248.3219"/></g><!--class Egypt--><g class="entity" data-entity="Egypt" data-source-line="7" data-uid="ent0003" id="entity_Egypt"><rect fill="#F1F1F1" height="76.3125" rx="2.5" ry="2.5" style="stroke:#181818;stroke-width:0.5;" width="160.3789" x="21.48" y="316.3194"/><ellipse cx="36.48" cy="346.4756" fill="#ADD1B2" rx="11" ry="11" style="stroke:#181818;stroke-width:1;"/><path d="M39.2456,342.3506 Q39.4019,342.1319 39.5894,342.0225 Q39.7769,341.9131 39.9956,341.9131 Q40.3706,341.9131 40.605,342.1788 Q40.8394,342.4288 40.8394,343.0381 L40.8394,344.4913 Q40.8394,345.1006 40.605,345.3663 Q40.3706,345.6319 39.9956,345.6319 Q39.6519,345.6319 39.4488,345.4288 Q39.2456,345.2413 39.1363,344.7256 Q39.0894,344.3663 38.9019,344.1788 Q38.5738,343.8038 37.9644,343.585 Q37.355,343.3663 36.73,343.3663 Q35.9644,343.3663 35.3238,343.6944 Q34.6988,344.0225 34.1988,344.7725 Q33.7144,345.5225 33.7144,346.5538 L33.7144,347.6475 Q33.7144,348.8819 34.605,349.71 Q35.4956,350.5225 37.0894,350.5225 Q38.0269,350.5225 38.6831,350.2725 Q39.0738,350.1163 39.4956,349.6788 Q39.7613,349.4131 39.9019,349.335 Q40.0581,349.2569 40.2613,349.2569 Q40.5894,349.2569 40.8394,349.5225 Q41.105,349.7725 41.105,350.1163 Q41.105,350.46 40.7613,350.8663 Q40.2613,351.4444 39.4644,351.7725 Q38.3863,352.2256 37.0894,352.2256 Q35.5738,352.2256 34.3706,351.6006 Q33.3863,351.1006 32.6988,350.0381 Q32.0113,348.96 32.0113,347.6788 L32.0113,346.5225 Q32.0113,345.1944 32.6206,344.0538 Q33.2456,342.8975 34.3394,342.2881 Q35.4331,341.6631 36.6675,341.6631 Q37.4019,341.6631 38.0425,341.835 Q38.6988,341.9913 39.2456,342.3506 Z " fill="#000000"/><text fill="#000000" font-family="sans-serif" font-size="12" font-style="italic" lengthAdjust="spacing" textLength="54.709" x="87.315" y="333.7764">&#171;location&#187;</text><text fill="#000000" font-family="sans-serif" font-size="14" lengthAdjust="spacing" textLength="35.7998" x="96.7696" y="350.9463">Egypt</text><text fill="#000000" font-family="sans-serif" font-size="14" lengthAdjust="spacing" textLength="128.3789" x="50.48" y="368.5557">(Refuge from Herod)</text><line style="stroke:#181818;stroke-width:0.5;" x1="22.48" x2="180.8589" y1="376.6319" y2="376.6319"/><line style="stroke:#181818;stroke-width:0.5;" x1="22.48" x2="180.8589" y1="384.6319" y2="384.6319"/></g><!--class Nazareth--><g class="entity" data-entity="Nazareth" data-source-line="8" data-uid="ent0004" id="entity_Nazareth"><rect fill="#F1F1F1" height="76.3125" rx="2.5" ry="2.5" style="stroke:#181818;stroke-width:0.5;" width="151.0615" x="138.14" y="452.6394"/><ellipse cx="153.14" cy="482.7956" fill="#ADD1B2" rx="11" ry="11" style="stroke:#181818;stroke-width:1;"/><path d="M155.9056,478.6706 Q156.0619,478.4519 156.2494,478.3425 Q156.4369,478.2331 156.6556,478.2331 Q157.0306,478.2331 157.265,478.4988 Q157.4994,478.7488 157.4994,479.3581 L157.4994,480.8113 Q157.4994,481.4206 157.265,481.6863 Q157.0306,481.9519 156.6556,481.9519 Q156.3119,481.9519 156.1088,481.7488 Q155.9056,481.5613 155.7963,481.0456 Q155.7494,480.6863 155.5619,480.4988 Q155.2338,480.1238 154.6244,479.905 Q154.015,479.6863 153.39,479.6863 Q152.6244,479.6863 151.9838,480.0144 Q151.3588,480.3425 150.8588,481.0925 Q150.3744,481.8425 150.3744,482.8738 L150.3744,483.9675 Q150.3744,485.2019 151.265,486.03 Q152.1556,486.8425 153.7494,486.8425 Q154.6869,486.8425 155.3431,486.5925 Q155.7338,486.4363 156.1556,485.9988 Q156.4213,485.7331 156.5619,485.655 Q156.7181,485.5769 156.9213,485.5769 Q157.2494,485.5769 157.4994,485.8425 Q157.765,486.0925 157.765,486.4363 Q157.765,486.78 157.4213,487.1863 Q156.9213,487.7644 156.1244,488.0925 Q155.0463,488.5456 153.7494,488.5456 Q152.2338,488.5456 151.0306,487.9206 Q150.0463,487.4206 149.3588,486.3581 Q148.6713,485.28 148.6713,483.9988 L148.6713,482.8425 Q148.6713,481.5144 149.2806,480.3738 Q149.9056,479.2175 150.9994,478.6081 Q152.0931,477.9831 153.3275,477.9831 Q154.0619,477.9831 154.7025,478.155 Q155.3588,478.3113 155.9056,478.6706 Z " fill="#000000"/><text fill="#000000" font-family="sans-serif" font-size="12" font-style="italic" lengthAdjust="spacing" textLength="54.709" x="199.3163" y="470.0964">&#171;location&#187;</text><text fill="#000000" font-family="sans-serif" font-size="14" lengthAdjust="spacing" textLength="119.0615" x="167.14" y="487.2663">Nazareth in Galilee</text><text fill="#000000" font-family="sans-serif" font-size="14" lengthAdjust="spacing" textLength="110.4824" x="171.4296" y="504.8757">(Final Settlement)</text><line style="stroke:#181818;stroke-width:0.5;" x1="139.14" x2="288.2015" y1="512.9519" y2="512.9519"/><line style="stroke:#181818;stroke-width:0.5;" x1="139.14" x2="288.2015" y1="520.9519" y2="520.9519"/></g><!--class Jesus--><g class="entity" data-entity="Jesus" data-source-line="11" data-uid="ent0005" id="entity_Jesus"><rect fill="#F1F1F1" height="48" rx="2.5" ry="2.5" style="stroke:#181818;stroke-width:0.5;" width="68.5723" x="626.38" y="58.3094"/><ellipse cx="641.38" cy="74.3094" fill="#ADD1B2" rx="11" ry="11" style="stroke:#181818;stroke-width:1;"/><path d="M644.1456,70.1844 Q644.3019,69.9656 644.4894,69.8563 Q644.6769,69.7469 644.8956,69.7469 Q645.2706,69.7469 645.505,70.0125 Q645.7394,70.2625 645.7394,70.8719 L645.7394,72.325 Q645.7394,72.9344 645.505,73.2 Q645.2706,73.4656 644.8956,73.4656 Q644.5519,73.4656 644.3488,73.2625 Q644.1456,73.075 644.0363,72.5594 Q643.9894,72.2 643.8019,72.0125 Q643.4738,71.6375 642.8644,71.4188 Q642.255,71.2 641.63,71.2 Q640.8644,71.2 640.2238,71.5281 Q639.5988,71.8563 639.0988,72.6063 Q638.6144,73.3563 638.6144,74.3875 L638.6144,75.4813 Q638.6144,76.7156 639.505,77.5438 Q640.3956,78.3563 641.9894,78.3563 Q642.9269,78.3563 643.5831,78.1063 Q643.9738,77.95 644.3956,77.5125 Q644.6613,77.2469 644.8019,77.1688 Q644.9581,77.0906 645.1613,77.0906 Q645.4894,77.0906 645.7394,77.3563 Q646.005,77.6063 646.005,77.95 Q646.005,78.2938 645.6613,78.7 Q645.1613,79.2781 644.3644,79.6063 Q643.2863,80.0594 641.9894,80.0594 Q640.4738,80.0594 639.2706,79.4344 Q638.2863,78.9344 637.5988,77.8719 Q636.9113,76.7938 636.9113,75.5125 L636.9113,74.3563 Q636.9113,73.0281 637.5206,71.8875 Q638.1456,70.7313 639.2394,70.1219 Q640.3331,69.4969 641.5675,69.4969 Q642.3019,69.4969 642.9425,69.6688 Q643.5988,69.825 644.1456,70.1844 Z " fill="#000000"/><text fill="#000000" font-family="sans-serif" font-size="14" lengthAdjust="spacing" textLength="36.5723" x="655.38" y="80.0379">Jesus</text><line style="stroke:#181818;stroke-width:0.5;" x1="627.38" x2="693.9523" y1="90.3094" y2="90.3094"/><line style="stroke:#181818;stroke-width:0.5;" x1="627.38" x2="693.9523" y1="98.3094" y2="98.3094"/></g><!--class Mary--><g class="entity" data-entity="Mary" data-source-line="12" data-uid="ent0006" id="entity_Mary"><rect fill="#F1F1F1" height="48" rx="2.5" ry="2.5" style="stroke:#181818;stroke-width:0.5;" width="63.1104" x="730.12" y="58.3094"/><ellipse cx="745.12" cy="74.3094" fill="#ADD1B2" rx="11" ry="11" style="stroke:#181818;stroke-width:1;"/><path d="M747.8856,70.1844 Q748.0419,69.9656 748.2294,69.8563 Q748.4169,69.7469 748.6356,69.7469 Q749.0106,69.7469 749.245,70.0125 Q749.4794,70.2625 749.4794,70.8719 L749.4794,72.325 Q749.4794,72.9344 749.245,73.2 Q749.0106,73.4656 748.6356,73.4656 Q748.2919,73.4656 748.0888,73.2625 Q747.8856,73.075 747.7763,72.5594 Q747.7294,72.2 747.5419,72.0125 Q747.2138,71.6375 746.6044,71.4188 Q745.995,71.2 745.37,71.2 Q744.6044,71.2 743.9638,71.5281 Q743.3388,71.8563 742.8388,72.6063 Q742.3544,73.3563 742.3544,74.3875 L742.3544,75.4813 Q742.3544,76.7156 743.245,77.5438 Q744.1356,78.3563 745.7294,78.3563 Q746.6669,78.3563 747.3231,78.1063 Q747.7138,77.95 748.1356,77.5125 Q748.4013,77.2469 748.5419,77.1688 Q748.6981,77.0906 748.9013,77.0906 Q749.2294,77.0906 749.4794,77.3563 Q749.745,77.6063 749.745,77.95 Q749.745,78.2938 749.4013,78.7 Q748.9013,79.2781 748.1044,79.6063 Q747.0263,80.0594 745.7294,80.0594 Q744.2138,80.0594 743.0106,79.4344 Q742.0263,78.9344 741.3388,77.8719 Q740.6513,76.7938 740.6513,75.5125 L740.6513,74.3563 Q740.6513,73.0281 741.2606,71.8875 Q741.8856,70.7313 742.9794,70.1219 Q744.0731,69.4969 745.3075,69.4969 Q746.0419,69.4969 746.6825,69.6688 Q747.3388,69.825 747.8856,70.1844 Z " fill="#000000"/><text fill="#000000" font-family="sans-serif" font-size="14" lengthAdjust="spacing" textLength="31.1104" x="759.12" y="80.0379">Mary</text><line style="stroke:#181818;stroke-width:0.5;" x1="731.12" x2="792.2304" y1="90.3094" y2="90.3094"/><line style="stroke:#181818;stroke-width:0.5;" x1="731.12" x2="792.2304" y1="98.3094" y2="98.3094"/></g><!--class Joseph--><g class="entity" data-entity="Joseph" data-source-line="13" data-uid="ent0007" id="entity_Joseph"><rect fill="#F1F1F1" height="48" rx="2.5" ry="2.5" style="stroke:#181818;stroke-width:0.5;" width="77.1445" x="734.1" y="330.4794"/><ellipse cx="749.1" cy="346.4794" fill="#ADD1B2" rx="11" ry="11" style="stroke:#181818;stroke-width:1;"/><path d="M751.8656,342.3544 Q752.0219,342.1356 752.2094,342.0263 Q752.3969,341.9169 752.6156,341.9169 Q752.9906,341.9169 753.225,342.1825 Q753.4594,342.4325 753.4594,343.0419 L753.4594,344.495 Q753.4594,345.1044 753.225,345.37 Q752.9906,345.6356 752.6156,345.6356 Q752.2719,345.6356 752.0688,345.4325 Q751.8656,345.245 751.7563,344.7294 Q751.7094,344.37 751.5219,344.1825 Q751.1938,343.8075 750.5844,343.5888 Q749.975,343.37 749.35,343.37 Q748.5844,343.37 747.9438,343.6981 Q747.3188,344.0263 746.8188,344.7763 Q746.3344,345.5263 746.3344,346.5575 L746.3344,347.6513 Q746.3344,348.8856 747.225,349.7138 Q748.1156,350.5263 749.7094,350.5263 Q750.6469,350.5263 751.3031,350.2763 Q751.6938,350.12 752.1156,349.6825 Q752.3813,349.4169 752.5219,349.3388 Q752.6781,349.2606 752.8813,349.2606 Q753.2094,349.2606 753.4594,349.5263 Q753.725,349.7763 753.725,350.12 Q753.725,350.4638 753.3813,350.87 Q752.8813,351.4481 752.0844,351.7763 Q751.0063,352.2294 749.7094,352.2294 Q748.1938,352.2294 746.9906,351.6044 Q746.0063,351.1044 745.3188,350.0419 Q744.6313,348.9638 744.6313,347.6825 L744.6313,346.5263 Q744.6313,345.1981 745.2406,344.0575 Q745.8656,342.9013 746.9594,342.2919 Q748.0531,341.6669 749.2875,341.6669 Q750.0219,341.6669 750.6625,341.8388 Q751.3188,341.995 751.8656,342.3544 Z " fill="#000000"/><text fill="#000000" font-family="sans-serif" font-size="14" lengthAdjust="spacing" textLength="45.1445" x="763.1" y="352.2079">Joseph</text><line style="stroke:#181818;stroke-width:0.5;" x1="735.1" x2="810.2445" y1="362.4794" y2="362.4794"/><line style="stroke:#181818;stroke-width:0.5;" x1="735.1" x2="810.2445" y1="370.4794" y2="370.4794"/></g><!--class Magi--><g class="entity" data-entity="Magi" data-source-line="14" data-uid="ent0008" id="entity_Magi"><rect fill="#F1F1F1" height="48" rx="2.5" ry="2.5" style="stroke:#181818;stroke-width:0.5;" width="62.3447" x="636.5" y="330.4794"/><ellipse cx="651.5" cy="346.4794" fill="#ADD1B2" rx="11" ry="11" style="stroke:#181818;stroke-width:1;"/><path d="M654.2656,342.3544 Q654.4219,342.1356 654.6094,342.0263 Q654.7969,341.9169 655.0156,341.9169 Q655.3906,341.9169 655.625,342.1825 Q655.8594,342.4325 655.8594,343.0419 L655.8594,344.495 Q655.8594,345.1044 655.625,345.37 Q655.3906,345.6356 655.0156,345.6356 Q654.6719,345.6356 654.4688,345.4325 Q654.2656,345.245 654.1563,344.7294 Q654.1094,344.37 653.9219,344.1825 Q653.5938,343.8075 652.9844,343.5888 Q652.375,343.37 651.75,343.37 Q650.9844,343.37 650.3438,343.6981 Q649.7188,344.0263 649.2188,344.7763 Q648.7344,345.5263 648.7344,346.5575 L648.7344,347.6513 Q648.7344,348.8856 649.625,349.7138 Q650.5156,350.5263 652.1094,350.5263 Q653.0469,350.5263 653.7031,350.2763 Q654.0938,350.12 654.5156,349.6825 Q654.7813,349.4169 654.9219,349.3388 Q655.0781,349.2606 655.2813,349.2606 Q655.6094,349.2606 655.8594,349.5263 Q656.125,349.7763 656.125,350.12 Q656.125,350.4638 655.7813,350.87 Q655.2813,351.4481 654.4844,351.7763 Q653.4063,352.2294 652.1094,352.2294 Q650.5938,352.2294 649.3906,351.6044 Q648.4063,351.1044 647.7188,350.0419 Q647.0313,348.9638 647.0313,347.6825 L647.0313,346.5263 Q647.0313,345.1981 647.6406,344.0575 Q648.2656,342.9013 649.3594,342.2919 Q650.4531,341.6669 651.6875,341.6669 Q652.4219,341.6669 653.0625,341.8388 Q653.7188,341.995 654.2656,342.3544 Z " fill="#000000"/><text fill="#000000" font-family="sans-serif" font-size="14" lengthAdjust="spacing" textLength="30.3447" x="665.5" y="352.2079">Magi</text><line style="stroke:#181818;stroke-width:0.5;" x1="637.5" x2="697.8447" y1="362.4794" y2="362.4794"/><line style="stroke:#181818;stroke-width:0.5;" x1="637.5" x2="697.8447" y1="370.4794" y2="370.4794"/></g><!--class Herod--><g class="entity" data-entity="Herod" data-source-line="15" data-uid="ent0009" id="entity_Herod"><rect fill="#F1F1F1" height="48" rx="2.5" ry="2.5" style="stroke:#181818;stroke-width:0.5;" width="132.3857" x="469.48" y="330.4794"/><ellipse cx="484.48" cy="346.4794" fill="#ADD1B2" rx="11" ry="11" style="stroke:#181818;stroke-width:1;"/><path d="M487.2456,342.3544 Q487.4019,342.1356 487.5894,342.0263 Q487.7769,341.9169 487.9956,341.9169 Q488.3706,341.9169 488.605,342.1825 Q488.8394,342.4325 488.8394,343.0419 L488.8394,344.495 Q488.8394,345.1044 488.605,345.37 Q488.3706,345.6356 487.9956,345.6356 Q487.6519,345.6356 487.4488,345.4325 Q487.2456,345.245 487.1363,344.7294 Q487.0894,344.37 486.9019,344.1825 Q486.5738,343.8075 485.9644,343.5888 Q485.355,343.37 484.73,343.37 Q483.9644,343.37 483.3238,343.6981 Q482.6988,344.0263 482.1988,344.7763 Q481.7144,345.5263 481.7144,346.5575 L481.7144,347.6513 Q481.7144,348.8856 482.605,349.7138 Q483.4956,350.5263 485.0894,350.5263 Q486.0269,350.5263 486.6831,350.2763 Q487.0738,350.12 487.4956,349.6825 Q487.7613,349.4169 487.9019,349.3388 Q488.0581,349.2606 488.2613,349.2606 Q488.5894,349.2606 488.8394,349.5263 Q489.105,349.7763 489.105,350.12 Q489.105,350.4638 488.7613,350.87 Q488.2613,351.4481 487.4644,351.7763 Q486.3863,352.2294 485.0894,352.2294 Q483.5738,352.2294 482.3706,351.6044 Q481.3863,351.1044 480.6988,350.0419 Q480.0113,348.9638 480.0113,347.6825 L480.0113,346.5263 Q480.0113,345.1981 480.6206,344.0575 Q481.2456,342.9013 482.3394,342.2919 Q483.4331,341.6669 484.6675,341.6669 Q485.4019,341.6669 486.0425,341.8388 Q486.6988,341.995 487.2456,342.3544 Z " fill="#000000"/><text fill="#000000" font-family="sans-serif" font-size="14" lengthAdjust="spacing" textLength="100.3857" x="498.48" y="352.2079">Herod the Great</text><line style="stroke:#181818;stroke-width:0.5;" x1="470.48" x2="600.8657" y1="362.4794" y2="362.4794"/><line style="stroke:#181818;stroke-width:0.5;" x1="470.48" x2="600.8657" y1="370.4794" y2="370.4794"/></g><!--class Archelaus--><g class="entity" data-entity="Archelaus" data-source-line="16" data-uid="ent0010" id="entity_Archelaus"><rect fill="#F1F1F1" height="48" rx="2.5" ry="2.5" style="stroke:#181818;stroke-width:0.5;" width="94.2549" x="166.54" y="588.9494"/><ellipse cx="181.54" cy="604.9494" fill="#ADD1B2" rx="11" ry="11" style="stroke:#181818;stroke-width:1;"/><path d="M184.3056,600.8244 Q184.4619,600.6056 184.6494,600.4963 Q184.8369,600.3869 185.0556,600.3869 Q185.4306,600.3869 185.665,600.6525 Q185.8994,600.9025 185.8994,601.5119 L185.8994,602.965 Q185.8994,603.5744 185.665,603.84 Q185.4306,604.1056 185.0556,604.1056 Q184.7119,604.1056 184.5088,603.9025 Q184.3056,603.715 184.1963,603.1994 Q184.1494,602.84 183.9619,602.6525 Q183.6338,602.2775 183.0244,602.0588 Q182.415,601.84 181.79,601.84 Q181.0244,601.84 180.3838,602.1681 Q179.7588,602.4963 179.2588,603.2463 Q178.7744,603.9963 178.7744,605.0275 L178.7744,606.1213 Q178.7744,607.3556 179.665,608.1838 Q180.5556,608.9963 182.1494,608.9963 Q183.0869,608.9963 183.7431,608.7463 Q184.1338,608.59 184.5556,608.1525 Q184.8213,607.8869 184.9619,607.8088 Q185.1181,607.7306 185.3213,607.7306 Q185.6494,607.7306 185.8994,607.9963 Q186.165,608.2463 186.165,608.59 Q186.165,608.9338 185.8213,609.34 Q185.3213,609.9181 184.5244,610.2463 Q183.4463,610.6994 182.1494,610.6994 Q180.6338,610.6994 179.4306,610.0744 Q178.4463,609.5744 177.7588,608.5119 Q177.0713,607.4338 177.0713,606.1525 L177.0713,604.9963 Q177.0713,603.6681 177.6806,602.5275 Q178.3056,601.3713 179.3994,600.7619 Q180.4931,600.1369 181.7275,600.1369 Q182.4619,600.1369 183.1025,600.3088 Q183.7588,600.465 184.3056,600.8244 Z " fill="#000000"/><text fill="#000000" font-family="sans-serif" font-size="14" lengthAdjust="spacing" textLength="62.2549" x="195.54" y="610.6779">Archelaus</text><line style="stroke:#181818;stroke-width:0.5;" x1="167.54" x2="259.7949" y1="620.9494" y2="620.9494"/><line style="stroke:#181818;stroke-width:0.5;" x1="167.54" x2="259.7949" y1="628.9494" y2="628.9494"/></g><!--class Innocents--><g class="entity" data-entity="Innocents" data-source-line="17" data-uid="ent0011" id="entity_Innocents"><rect fill="#F1F1F1" height="48" rx="2.5" ry="2.5" style="stroke:#181818;stroke-width:0.5;" width="124.6064" x="473.37" y="466.7894"/><ellipse cx="488.37" cy="482.7894" fill="#ADD1B2" rx="11" ry="11" style="stroke:#181818;stroke-width:1;"/><path d="M491.1356,478.6644 Q491.2919,478.4456 491.4794,478.3363 Q491.6669,478.2269 491.8856,478.2269 Q492.2606,478.2269 492.495,478.4925 Q492.7294,478.7425 492.7294,479.3519 L492.7294,480.805 Q492.7294,481.4144 492.495,481.68 Q492.2606,481.9456 491.8856,481.9456 Q491.5419,481.9456 491.3388,481.7425 Q491.1356,481.555 491.0263,481.0394 Q490.9794,480.68 490.7919,480.4925 Q490.4638,480.1175 489.8544,479.8988 Q489.245,479.68 488.62,479.68 Q487.8544,479.68 487.2138,480.0081 Q486.5888,480.3363 486.0888,481.0863 Q485.6044,481.8363 485.6044,482.8675 L485.6044,483.9613 Q485.6044,485.1956 486.495,486.0238 Q487.3856,486.8363 488.9794,486.8363 Q489.9169,486.8363 490.5731,486.5863 Q490.9638,486.43 491.3856,485.9925 Q491.6513,485.7269 491.7919,485.6488 Q491.9481,485.5706 492.1513,485.5706 Q492.4794,485.5706 492.7294,485.8363 Q492.995,486.0863 492.995,486.43 Q492.995,486.7738 492.6513,487.18 Q492.1513,487.7581 491.3544,488.0863 Q490.2763,488.5394 488.9794,488.5394 Q487.4638,488.5394 486.2606,487.9144 Q485.2763,487.4144 484.5888,486.3519 Q483.9013,485.2738 483.9013,483.9925 L483.9013,482.8363 Q483.9013,481.5081 484.5106,480.3675 Q485.1356,479.2113 486.2294,478.6019 Q487.3231,477.9769 488.5575,477.9769 Q489.2919,477.9769 489.9325,478.1488 Q490.5888,478.305 491.1356,478.6644 Z " fill="#000000"/><text fill="#000000" font-family="sans-serif" font-size="14" lengthAdjust="spacing" textLength="92.6064" x="502.37" y="488.5179">Holy Innocents</text><line style="stroke:#181818;stroke-width:0.5;" x1="474.37" x2="596.9764" y1="498.7894" y2="498.7894"/><line style="stroke:#181818;stroke-width:0.5;" x1="474.37" x2="596.9764" y1="506.7894" y2="506.7894"/></g><!--class Angels--><g class="entity" data-entity="Angels" data-source-line="18" data-uid="ent0012" id="entity_Angels"><rect fill="#F1F1F1" height="48" rx="2.5" ry="2.5" style="stroke:#181818;stroke-width:0.5;" width="74.8066" x="701.27" y="194.1694"/><ellipse cx="716.27" cy="210.1694" fill="#ADD1B2" rx="11" ry="11" style="stroke:#181818;stroke-width:1;"/><path d="M719.0356,206.0444 Q719.1919,205.8256 719.3794,205.7163 Q719.5669,205.6069 719.7856,205.6069 Q720.1606,205.6069 720.395,205.8725 Q720.6294,206.1225 720.6294,206.7319 L720.6294,208.185 Q720.6294,208.7944 720.395,209.06 Q720.1606,209.3256 719.7856,209.3256 Q719.4419,209.3256 719.2388,209.1225 Q719.0356,208.935 718.9263,208.4194 Q718.8794,208.06 718.6919,207.8725 Q718.3638,207.4975 717.7544,207.2788 Q717.145,207.06 716.52,207.06 Q715.7544,207.06 715.1138,207.3881 Q714.4888,207.7163 713.9888,208.4663 Q713.5044,209.2163 713.5044,210.2475 L713.5044,211.3413 Q713.5044,212.5756 714.395,213.4038 Q715.2856,214.2163 716.8794,214.2163 Q717.8169,214.2163 718.4731,213.9663 Q718.8638,213.81 719.2856,213.3725 Q719.5513,213.1069 719.6919,213.0288 Q719.8481,212.9506 720.0513,212.9506 Q720.3794,212.9506 720.6294,213.2163 Q720.895,213.4663 720.895,213.81 Q720.895,214.1538 720.5513,214.56 Q720.0513,215.1381 719.2544,215.4663 Q718.1763,215.9194 716.8794,215.9194 Q715.3638,215.9194 714.1606,215.2944 Q713.1763,214.7944 712.4888,213.7319 Q711.8013,212.6538 711.8013,211.3725 L711.8013,210.2163 Q711.8013,208.8881 712.4106,207.7475 Q713.0356,206.5913 714.1294,205.9819 Q715.2231,205.3569 716.4575,205.3569 Q717.1919,205.3569 717.8325,205.5288 Q718.4888,205.685 719.0356,206.0444 Z " fill="#000000"/><text fill="#000000" font-family="sans-serif" font-size="14" lengthAdjust="spacing" textLength="42.8066" x="730.27" y="215.8979">Angels</text><line style="stroke:#181818;stroke-width:0.5;" x1="702.27" x2="775.0766" y1="226.1694" y2="226.1694"/><line style="stroke:#181818;stroke-width:0.5;" x1="702.27" x2="775.0766" y1="234.1694" y2="234.1694"/></g><g class="entity" data-entity="GMN22" data-source-line="38" data-uid="ent0023" id="entity_GMN22"><path d="M479.65,44.6094 L479.65,120.0156 A0,0 0 0 0 479.65,120.0156 L531.67,120.0156 L535.67,179.5794 L539.67,120.0156 L591.6881,120.0156 A0,0 0 0 0 591.6881,120.0156 L591.6881,54.6094 L581.6881,44.6094 L479.65,44.6094 A0,0 0 0 0 479.65,44.6094" fill="#FEFFDD" style="stroke:#181818;stroke-width:0.5;"/><path d="M581.6881,44.6094 L581.6881,54.6094 L591.6881,54.6094 L581.6881,44.6094" fill="#FEFFDD" style="stroke:#181818;stroke-width:0.5;"/><text fill="#000000" font-family="sans-serif" font-size="13" lengthAdjust="spacing" textLength="69.3672" x="485.65" y="63.1045">Key Events:</text><text fill="#000000" font-family="sans-serif" font-size="13" lengthAdjust="spacing" textLength="78.0444" x="485.65" y="79.4561">1. Jesus born</text><text fill="#000000" font-family="sans-serif" font-size="13" lengthAdjust="spacing" textLength="91.0381" x="485.65" y="95.8076">2. Magi worship</text><text fill="#000000" font-family="sans-serif" font-size="13" lengthAdjust="spacing" textLength="87.0327" x="485.65" y="112.1592">3. Herod's plan</text></g><g class="entity" data-entity="GMN25" data-source-line="45" data-uid="ent0026" id="entity_GMN25"><path d="M12.05,188.6394 L12.05,247.6941 A0,0 0 0 0 12.05,247.6941 L97.67,247.6941 L101.67,316.0794 L105.67,247.6941 L191.2971,247.6941 A0,0 0 0 0 191.2971,247.6941 L191.2971,198.6394 L181.2971,188.6394 L12.05,188.6394 A0,0 0 0 0 12.05,188.6394" fill="#FEFFDD" style="stroke:#181818;stroke-width:0.5;"/><path d="M181.2971,188.6394 L181.2971,198.6394 L191.2971,198.6394 L181.2971,188.6394" fill="#FEFFDD" style="stroke:#181818;stroke-width:0.5;"/><text fill="#000000" font-family="sans-serif" font-size="13" lengthAdjust="spacing" textLength="69.3672" x="18.05" y="207.1345">Key Events:</text><text fill="#000000" font-family="sans-serif" font-size="13" lengthAdjust="spacing" textLength="113.4199" x="18.05" y="223.4861">1. Holy Family flees</text><text fill="#000000" font-family="sans-serif" font-size="13" lengthAdjust="spacing" textLength="158.2471" x="18.05" y="239.8376">2. Fulfillment of Hosea 11:1</text></g><g class="entity" data-entity="GMN28" data-source-line="51" data-uid="ent0029" id="entity_GMN28"><path d="M216.61,324.9494 L216.61,384.0041 A0,0 0 0 0 216.61,384.0041 L248.91,384.0041 L252.91,452.3894 L256.91,384.0041 L434.7301,384.0041 A0,0 0 0 0 434.7301,384.0041 L434.7301,334.9494 L424.7301,324.9494 L216.61,324.9494 A0,0 0 0 0 216.61,324.9494" fill="#FEFFDD" style="stroke:#181818;stroke-width:0.5;"/><path d="M424.7301,324.9494 L424.7301,334.9494 L434.7301,334.9494 L424.7301,324.9494" fill="#FEFFDD" style="stroke:#181818;stroke-width:0.5;"/><text fill="#000000" font-family="sans-serif" font-size="13" lengthAdjust="spacing" textLength="69.3672" x="222.61" y="343.4445">Key Events:</text><text fill="#000000" font-family="sans-serif" font-size="13" lengthAdjust="spacing" textLength="123.5317" x="222.61" y="359.7961">1. Holy Family settles</text><text fill="#000000" font-family="sans-serif" font-size="13" lengthAdjust="spacing" textLength="197.1201" x="222.61" y="376.1476">2. "He shall be called a Nazarene"</text></g><!--link Bethlehem to Egypt--><g class="link" data-entity-1="Bethlehem" data-entity-2="Egypt" data-source-line="21" data-uid="lnk13" id="link_Bethlehem_Egypt"><path codeLine="21" d="M462.67,256.7294 C462.67,285.8994 462.67,320.9494 462.67,320.9494 C462.67,320.9494 294.63,320.9494 188.24,320.9494" fill="none" id="Bethlehem-to-Egypt" style="stroke:#181818;stroke-width:1;"/><polygon fill="#181818" points="182.24,320.9494,191.24,324.9494,187.24,320.9494,191.24,316.9494,182.24,320.9494" style="stroke:#181818;stroke-width:1;"/><text fill="#000000" font-family="sans-serif" font-size="13" lengthAdjust="spacing" textLength="93.2153" x="260.56" y="301.4445">Flight into Egypt</text><text fill="#000000" font-family="sans-serif" font-size="13" lengthAdjust="spacing" textLength="81.6436" x="266.3459" y="317.7961">(Matt 2:13-15)</text></g><!--link Egypt to Nazareth--><g class="link" data-entity-1="Egypt" data-entity-2="Nazareth" data-source-line="22" data-uid="lnk14" id="link_Egypt_Nazareth"><path codeLine="22" d="M160,392.8094 C160,411.3994 160,427.6694 160,446.2794" fill="none" id="Egypt-to-Nazareth" style="stroke:#181818;stroke-width:1;"/><polygon fill="#181818" points="160,452.2794,164,443.2794,160,447.2794,156,443.2794,160,452.2794" style="stroke:#181818;stroke-width:1;"/><text fill="#000000" font-family="sans-serif" font-size="13" lengthAdjust="spacing" textLength="152.7881" x="7" y="437.0445">Return after Herod's death</text><text fill="#000000" font-family="sans-serif" font-size="13" lengthAdjust="spacing" textLength="81.6436" x="42.5723" y="453.3961">(Matt 2:19-23)</text></g><!--link Bethlehem to Bethlehem--><!--link Bethlehem to Magi--><g class="link" data-entity-1="Bethlehem" data-entity-2="Magi" data-source-line="26" data-uid="lnk16" id="link_Bethlehem_Magi"><path codeLine="26" d="M606.4,256.6294 C606.4,297.0894 606.4,354.9494 606.4,354.9494 C606.4,354.9494 615.24,354.9494 630.32,354.9494" fill="none" id="Bethlehem-to-Magi" style="stroke:#181818;stroke-width:1;stroke-dasharray:7,7;"/><polygon fill="#181818" points="636.32,354.9494,627.32,350.9494,631.32,354.9494,627.32,358.9494,636.32,354.9494" style="stroke:#181818;stroke-width:1;"/><text fill="#000000" font-family="sans-serif" font-size="13" lengthAdjust="spacing" textLength="54.1772" x="484.8663" y="301.2445">Magi visit</text><text fill="#000000" font-family="sans-serif" font-size="13" lengthAdjust="spacing" textLength="187.1099" x="418.4" y="317.5961">Gifts: Gold, Frankincense, Myrrh</text></g><!--link Bethlehem to Herod--><g class="link" data-entity-1="Bethlehem" data-entity-2="Herod" data-source-line="27" data-uid="lnk17" id="link_Bethlehem_Herod"><path codeLine="27" d="M535.67,256.4994 C535.67,280.1294 535.67,303.6994 535.67,324.1494" fill="none" id="Bethlehem-to-Herod" style="stroke:#181818;stroke-width:1;stroke-dasharray:7,7;"/><polygon fill="#181818" points="535.67,330.1494,539.67,321.1494,535.67,325.1494,531.67,321.1494,535.67,330.1494" style="stroke:#181818;stroke-width:1;"/><text fill="#000000" font-family="sans-serif" font-size="13" lengthAdjust="spacing" textLength="140.8989" x="536.67" y="289.8245">Herod learns of Messiah</text></g><!--link Herod to Innocents--><g class="link" data-entity-1="Herod" data-entity-2="Innocents" data-source-line="28" data-uid="lnk18" id="link_Herod_Innocents"><path codeLine="28" d="M535.67,378.8494 C535.67,403.6594 535.67,435.8994 535.67,460.6294" fill="none" id="Herod-to-Innocents" style="stroke:#181818;stroke-width:1;"/><polygon fill="#181818" points="535.67,466.6294,539.67,457.6294,535.67,461.6294,531.67,457.6294,535.67,466.6294" style="stroke:#181818;stroke-width:1;"/><text fill="#000000" font-family="sans-serif" font-size="13" lengthAdjust="spacing" textLength="152.4707" x="382.67" y="403.2345">Massacre of the Innocents</text><text fill="#000000" font-family="sans-serif" font-size="13" lengthAdjust="spacing" textLength="62.8545" x="427.4781" y="419.5861">(Matt 2:16)</text></g><!--link Angels to Joseph--><g class="link" data-entity-1="Angels" data-entity-2="Joseph" data-source-line="31" data-uid="lnk19" id="link_Angels_Joseph"><path codeLine="31" d="M755.09,242.5394 C755.09,267.3494 755.09,299.5894 755.09,324.3194" fill="none" id="Angels-to-Joseph" style="stroke:#181818;stroke-width:1;"/><polygon fill="#181818" points="755.09,330.3194,759.09,321.3194,755.09,325.3194,751.09,321.3194,755.09,330.3194" style="stroke:#181818;stroke-width:1;"/><text fill="#000000" font-family="sans-serif" font-size="13" lengthAdjust="spacing" textLength="98.249" x="790.0595" y="266.9245">Warns in dreams</text><text fill="#000000" font-family="sans-serif" font-size="13" lengthAdjust="spacing" textLength="166.188" x="756.09" y="283.2761">(Flee / Return / Avoid Judea)</text></g><!--link Angels to Magi--><g class="link" data-entity-1="Angels" data-entity-2="Magi" data-source-line="32" data-uid="lnk20" id="link_Angels_Magi"><path codeLine="32" d="M717.68,242.6194 C717.68,281.9694 717.68,354.9494 717.68,354.9494 C717.68,354.9494 715.11,354.9494 705.06,354.9494" fill="none" id="Angels-to-Magi" style="stroke:#181818;stroke-width:1;"/><polygon fill="#181818" points="699.06,354.9494,708.06,358.9494,704.06,354.9494,708.06,350.9494,699.06,354.9494" style="stroke:#181818;stroke-width:1;"/><text fill="#000000" font-family="sans-serif" font-size="13" lengthAdjust="spacing" textLength="158.2407" x="718.68" y="304.5945">Warn not to return to Herod</text></g><!--link Nazareth to Archelaus--><g class="link" data-entity-1="Nazareth" data-entity-2="Archelaus" data-source-line="35" data-uid="lnk21" id="link_Nazareth_Archelaus"><path codeLine="35" d="M213.67,529.4394 C213.67,548.8794 213.67,565.8294 213.67,582.7394" fill="none" id="Nazareth-to-Archelaus" style="stroke:#181818;stroke-width:1;stroke-dasharray:7,7;"/><polygon fill="#181818" points="213.67,588.7394,217.67,579.7394,213.67,583.7394,209.67,579.7394,213.67,588.7394" style="stroke:#181818;stroke-width:1;"/><text fill="#000000" font-family="sans-serif" font-size="13" lengthAdjust="spacing" textLength="122.1416" x="90.67" y="573.5845">Joseph avoids Judea</text><text fill="#000000" font-family="sans-serif" font-size="13" lengthAdjust="spacing" textLength="97.5508" x="102.9654" y="589.9361">Settles in Galilee</text></g><!--SRC=[XLHDJnin4BtlhnXnWKWaA46jr1MA19I4qYu7aDf3wM7OdOsjUksLxGrDVtt7zkucHLGz-NFUcpVpR2-z8bYJsLXiXInHGM6sr93s83KKwBsW5rZ0oSFZr-drpIJBt4-fMxJOW9AQ_AubCDOBasN7yCMKwANH3j31lQd8PQL2v-3eYhnG9AXvqYTNak-t2akEhE6ENEScHo5Yl0HmSQ5whELomBZPx5hFyGzKTnk2sfe6RicQAaN7uxSZx_4tMWOFcjQef29Yd9NKhFUHFDSWA4umuzs_aLZTjM3PfISRvRa6bI8BEiY4sbXWCYlzhYUDklfvWNRSDevQCIHMu4P6rZ0PDgCcuCB3sXBwU1xtXWkNjXIai7FnQ5oDyKRju9FMfcHHwSwu6Y7qXbGV7wT1O86Xvtt_NRPlntIwxCkRmqh9ZGZky0Q6ZWIVm2AVdq_dxoPPkXbYnbhcy42-ingmvlebDSSEAfOd3k8_J1Vdav39pJPa0EZtdZXCvxkGLKNw1rEyTJwRBMD1cJOEM-aafxcMjNSvh8sgJc5bKREJkIYEJg7OMIjU8QGsvFse22txcWrRa7CIHPRsWyonkf7GEInjj7PeuNXs8FDzrFXHRla1mRgJ5N8UMUf314mcORHlaPIxKh4Jce2nOk_2sL3ECxZS6bd1NSUbd1n2zFe305lK0tVBfXYU9JTn3gDte3JQqo-VZIqB9TWVvqDE6FXS8dpIwV6uWtULPSn6JDA62kox0_2PTdrVSrxDP-c5mBEncjUBMKhvnLWdPCixvxFH9_nPw8nq5PIyOeXcUmizle8LDfA7cXDpYMJLgLeg5Nyu3hzbLGZpUJx_1_vGZ_zHk5I9HC9F69pW_m6U2ShmJrI0FPIceptL7m00]--></g></svg>