<svg xmlns="http://www.w3.org/2000/svg" xmlns:xlink="http://www.w3.org/1999/xlink" contentStyleType="text/css" data-diagram-type="CLASS" height="787px" preserveAspectRatio="none" style="width:3072px;height:787px;background:#FFFFFF;" version="1.1" viewBox="0 0 3072 787" width="3072px" zoomAndPan="magnify"><title>Matthew 1-8 - Genealogy, Early Ministry, and Key Individuals</title><defs/><g><g class="title" data-source-line="1"><text fill="#000000" font-family="sans-serif" font-size="14" font-weight="bold" lengthAdjust="spacing" textLength="402.9922" x="1327.7498" y="24.5332">Matthew 1-8 - Genealogy, Early Ministry, and Key Individuals</text></g><!--cluster Genealogy & Birth (Matthew 1-2)--><g class="cluster" data-entity="Genealogy . Birth .Matthew 1-2." data-source-line="6" data-uid="ent0002" id="cluster_Genealogy . Birth .Matthew 1-2."><path d="M641.5,44.6094 L857.9688,44.6094 A3.75,3.75 0 0 1 860.4688,47.1094 L867.4688,68.2188 L867.5,68.2188 A2.5,2.5 0 0 1 870,70.7188 L870,650.1094 A2.5,2.5 0 0 1 867.5,652.6094 L641.5,652.6094 A2.5,2.5 0 0 1 639,650.1094 L639,47.1094 A2.5,2.5 0 0 1 641.5,44.6094" fill="#FFFFE0" style="stroke:#000000;stroke-width:1.5;"/><line style="stroke:#000000;stroke-width:1.5;" x1="639" x2="867.4688" y1="68.2188" y2="68.2188"/><text fill="#000000" font-family="sans-serif" font-size="14" font-weight="bold" lengthAdjust="spacing" textLength="215.4688" x="643" y="61.1426">Genealogy &amp; Birth (Matthew 1-2)</text></g><!--cluster Preparation for Ministry (Matthew 3-4)--><g class="cluster" data-entity="Preparation for Ministry .Matthew 3-4." data-source-line="22" data-uid="ent0012" id="cluster_Preparation for Ministry .Matthew 3-4."><path d="M896.5,44.6094 L1148.7549,44.6094 A3.75,3.75 0 0 1 1151.2549,47.1094 L1158.2549,68.2188 L1215.5,68.2188 A2.5,2.5 0 0 1 1218,70.7188 L1218,522.1094 A2.5,2.5 0 0 1 1215.5,524.6094 L896.5,524.6094 A2.5,2.5 0 0 1 894,522.1094 L894,47.1094 A2.5,2.5 0 0 1 896.5,44.6094" fill="#ADD8E6" style="stroke:#000000;stroke-width:1.5;"/><line style="stroke:#000000;stroke-width:1.5;" x1="894" x2="1158.2549" y1="68.2188" y2="68.2188"/><text fill="#000000" font-family="sans-serif" font-size="14" font-weight="bold" lengthAdjust="spacing" textLength="251.2549" x="898" y="61.1426">Preparation for Ministry (Matthew 3-4)</text></g><!--cluster Teachings: Sermon on the Mount (Matthew 5-7)--><g class="cluster" data-entity="Teachings. Sermon on the Mount .Matthew 5-7." data-source-line="36" data-uid="ent0020" id="cluster_Teachings. Sermon on the Mount .Matthew 5-7."><path d="M8.5,44.6094 L324.5068,44.6094 A3.75,3.75 0 0 1 327.0068,47.1094 L334.0068,68.2188 L612.5,68.2188 A2.5,2.5 0 0 1 615,70.7188 L615,268.1094 A2.5,2.5 0 0 1 612.5,270.6094 L8.5,270.6094 A2.5,2.5 0 0 1 6,268.1094 L6,47.1094 A2.5,2.5 0 0 1 8.5,44.6094" fill="#90EE90" style="stroke:#000000;stroke-width:1.5;"/><line style="stroke:#000000;stroke-width:1.5;" x1="6" x2="334.0068" y1="68.2188" y2="68.2188"/><text fill="#000000" font-family="sans-serif" font-size="14" font-weight="bold" lengthAdjust="spacing" textLength="315.0068" x="10" y="61.1426">Teachings: Sermon on the Mount (Matthew 5-7)</text></g><!--cluster Miracles & Authority (Matthew 8)--><g class="cluster" data-entity="Miracles . Authority .Matthew 8." data-source-line="45" data-uid="ent0024" id="cluster_Miracles . Authority .Matthew 8."><path d="M1244.5,44.6094 L1462.5273,44.6094 A3.75,3.75 0 0 1 1465.0273,47.1094 L1472.0273,68.2188 L1575.5,68.2188 A2.5,2.5 0 0 1 1578,70.7188 L1578,650.1094 A2.5,2.5 0 0 1 1575.5,652.6094 L1244.5,652.6094 A2.5,2.5 0 0 1 1242,650.1094 L1242,47.1094 A2.5,2.5 0 0 1 1244.5,44.6094" fill="#FFB6C1" style="stroke:#000000;stroke-width:1.5;"/><line style="stroke:#000000;stroke-width:1.5;" x1="1242" x2="1472.0273" y1="68.2188" y2="68.2188"/><text fill="#000000" font-family="sans-serif" font-size="14" font-weight="bold" lengthAdjust="spacing" textLength="217.0273" x="1246" y="61.1426">Miracles &amp; Authority (Matthew 8)</text></g><!--cluster Key Individuals & Relationships (Matthew 8)--><g class="cluster" data-entity="Key Individuals . Relationships .Matthew 8." data-source-line="61" data-uid="ent0034" id="cluster_Key Individuals . Relationships .Matthew 8."><path d="M1604.5,44.6094 L1898.7686,44.6094 A3.75,3.75 0 0 1 1901.2686,47.1094 L1908.2686,68.2188 L2961.5,68.2188 A2.5,2.5 0 0 1 2964,70.7188 L2964,778.1094 A2.5,2.5 0 0 1 2961.5,780.6094 L1604.5,780.6094 A2.5,2.5 0 0 1 1602,778.1094 L1602,47.1094 A2.5,2.5 0 0 1 1604.5,44.6094" fill="#FFFFFF" style="stroke:#000000;stroke-width:1.5;"/><line style="stroke:#000000;stroke-width:1.5;" x1="1602" x2="1908.2686" y1="68.2188" y2="68.2188"/><text fill="#000000" font-family="sans-serif" font-size="14" font-weight="bold" lengthAdjust="spacing" textLength="293.2686" x="1606" y="61.1426">Key Individuals &amp; Relationships (Matthew 8)</text></g><!--class Genealogy of Jesus (Ch 1)--><g class="entity" data-entity="Genealogy of Jesus .Ch 1." data-source-line="7" data-uid="ent0003" id="entity_Genealogy of Jesus .Ch 1."><rect fill="#F1F1F1" height="48" rx="2.5" ry="2.5" style="stroke:#181818;stroke-width:0.5;" width="198.5303" x="654.73" y="80.6094"/><ellipse cx="669.73" cy="96.6094" fill="#ADD1B2" rx="11" ry="11" style="stroke:#181818;stroke-width:1;"/><path d="M672.4956,92.4844 Q672.6519,92.2656 672.8394,92.1563 Q673.0269,92.0469 673.2456,92.0469 Q673.6206,92.0469 673.855,92.3125 Q674.0894,92.5625 674.0894,93.1719 L674.0894,94.625 Q674.0894,95.2344 673.855,95.5 Q673.6206,95.7656 673.2456,95.7656 Q672.9019,95.7656 672.6988,95.5625 Q672.4956,95.375 672.3863,94.8594 Q672.3394,94.5 672.1519,94.3125 Q671.8238,93.9375 671.2144,93.7188 Q670.605,93.5 669.98,93.5 Q669.2144,93.5 668.5738,93.8281 Q667.9488,94.1563 667.4488,94.9063 Q666.9644,95.6563 666.9644,96.6875 L666.9644,97.7813 Q666.9644,99.0156 667.855,99.8438 Q668.7456,100.6563 670.3394,100.6563 Q671.2769,100.6563 671.9331,100.4063 Q672.3238,100.25 672.7456,99.8125 Q673.0113,99.5469 673.1519,99.4688 Q673.3081,99.3906 673.5113,99.3906 Q673.8394,99.3906 674.0894,99.6563 Q674.355,99.9063 674.355,100.25 Q674.355,100.5938 674.0113,101 Q673.5113,101.5781 672.7144,101.9063 Q671.6363,102.3594 670.3394,102.3594 Q668.8238,102.3594 667.6206,101.7344 Q666.6363,101.2344 665.9488,100.1719 Q665.2613,99.0938 665.2613,97.8125 L665.2613,96.6563 Q665.2613,95.3281 665.8706,94.1875 Q666.4956,93.0313 667.5894,92.4219 Q668.6831,91.7969 669.9175,91.7969 Q670.6519,91.7969 671.2925,91.9688 Q671.9488,92.125 672.4956,92.4844 Z " fill="#000000"/><text fill="#000000" font-family="sans-serif" font-size="14" lengthAdjust="spacing" textLength="166.5303" x="683.73" y="102.3379">Genealogy of Jesus (Ch 1)</text><line style="stroke:#181818;stroke-width:0.5;" x1="655.73" x2="852.2603" y1="112.6094" y2="112.6094"/><line style="stroke:#181818;stroke-width:0.5;" x1="655.73" x2="852.2603" y1="120.6094" y2="120.6094"/></g><!--class Birth of Jesus (Ch 1)--><g class="entity" data-entity="Birth of Jesus .Ch 1." data-source-line="8" data-uid="ent0004" id="entity_Birth of Jesus .Ch 1."><rect fill="#F1F1F1" height="48" rx="2.5" ry="2.5" style="stroke:#181818;stroke-width:0.5;" width="159.5996" x="674.2" y="206.6094"/><ellipse cx="689.2" cy="222.6094" fill="#ADD1B2" rx="11" ry="11" style="stroke:#181818;stroke-width:1;"/><path d="M691.9656,218.4844 Q692.1219,218.2656 692.3094,218.1563 Q692.4969,218.0469 692.7156,218.0469 Q693.0906,218.0469 693.325,218.3125 Q693.5594,218.5625 693.5594,219.1719 L693.5594,220.625 Q693.5594,221.2344 693.325,221.5 Q693.0906,221.7656 692.7156,221.7656 Q692.3719,221.7656 692.1688,221.5625 Q691.9656,221.375 691.8563,220.8594 Q691.8094,220.5 691.6219,220.3125 Q691.2938,219.9375 690.6844,219.7188 Q690.075,219.5 689.45,219.5 Q688.6844,219.5 688.0438,219.8281 Q687.4188,220.1563 686.9188,220.9063 Q686.4344,221.6563 686.4344,222.6875 L686.4344,223.7813 Q686.4344,225.0156 687.325,225.8438 Q688.2156,226.6563 689.8094,226.6563 Q690.7469,226.6563 691.4031,226.4063 Q691.7938,226.25 692.2156,225.8125 Q692.4813,225.5469 692.6219,225.4688 Q692.7781,225.3906 692.9813,225.3906 Q693.3094,225.3906 693.5594,225.6563 Q693.825,225.9063 693.825,226.25 Q693.825,226.5938 693.4813,227 Q692.9813,227.5781 692.1844,227.9063 Q691.1063,228.3594 689.8094,228.3594 Q688.2938,228.3594 687.0906,227.7344 Q686.1063,227.2344 685.4188,226.1719 Q684.7313,225.0938 684.7313,223.8125 L684.7313,222.6563 Q684.7313,221.3281 685.3406,220.1875 Q685.9656,219.0313 687.0594,218.4219 Q688.1531,217.7969 689.3875,217.7969 Q690.1219,217.7969 690.7625,217.9688 Q691.4188,218.125 691.9656,218.4844 Z " fill="#000000"/><text fill="#000000" font-family="sans-serif" font-size="14" lengthAdjust="spacing" textLength="127.5996" x="703.2" y="228.3379">Birth of Jesus (Ch 1)</text><line style="stroke:#181818;stroke-width:0.5;" x1="675.2" x2="832.7996" y1="238.6094" y2="238.6094"/><line style="stroke:#181818;stroke-width:0.5;" x1="675.2" x2="832.7996" y1="246.6094" y2="246.6094"/></g><!--class Visit of the Magi (Ch 2)--><g class="entity" data-entity="Visit of the Magi .Ch 2." data-source-line="9" data-uid="ent0005" id="entity_Visit of the Magi .Ch 2."><rect fill="#F1F1F1" height="48" rx="2.5" ry="2.5" style="stroke:#181818;stroke-width:0.5;" width="174.3857" x="666.81" y="334.6094"/><ellipse cx="681.81" cy="350.6094" fill="#ADD1B2" rx="11" ry="11" style="stroke:#181818;stroke-width:1;"/><path d="M684.5756,346.4844 Q684.7319,346.2656 684.9194,346.1563 Q685.1069,346.0469 685.3256,346.0469 Q685.7006,346.0469 685.935,346.3125 Q686.1694,346.5625 686.1694,347.1719 L686.1694,348.625 Q686.1694,349.2344 685.935,349.5 Q685.7006,349.7656 685.3256,349.7656 Q684.9819,349.7656 684.7788,349.5625 Q684.5756,349.375 684.4663,348.8594 Q684.4194,348.5 684.2319,348.3125 Q683.9038,347.9375 683.2944,347.7188 Q682.685,347.5 682.06,347.5 Q681.2944,347.5 680.6538,347.8281 Q680.0288,348.1563 679.5288,348.9063 Q679.0444,349.6563 679.0444,350.6875 L679.0444,351.7813 Q679.0444,353.0156 679.935,353.8438 Q680.8256,354.6563 682.4194,354.6563 Q683.3569,354.6563 684.0131,354.4063 Q684.4038,354.25 684.8256,353.8125 Q685.0913,353.5469 685.2319,353.4688 Q685.3881,353.3906 685.5913,353.3906 Q685.9194,353.3906 686.1694,353.6563 Q686.435,353.9063 686.435,354.25 Q686.435,354.5938 686.0913,355 Q685.5913,355.5781 684.7944,355.9063 Q683.7163,356.3594 682.4194,356.3594 Q680.9038,356.3594 679.7006,355.7344 Q678.7163,355.2344 678.0288,354.1719 Q677.3413,353.0938 677.3413,351.8125 L677.3413,350.6563 Q677.3413,349.3281 677.9506,348.1875 Q678.5756,347.0313 679.6694,346.4219 Q680.7631,345.7969 681.9975,345.7969 Q682.7319,345.7969 683.3725,345.9688 Q684.0288,346.125 684.5756,346.4844 Z " fill="#000000"/><text fill="#000000" font-family="sans-serif" font-size="14" lengthAdjust="spacing" textLength="142.3857" x="695.81" y="356.3379">Visit of the Magi (Ch 2)</text><line style="stroke:#181818;stroke-width:0.5;" x1="667.81" x2="840.1957" y1="366.6094" y2="366.6094"/><line style="stroke:#181818;stroke-width:0.5;" x1="667.81" x2="840.1957" y1="374.6094" y2="374.6094"/></g><!--class Flight to Egypt (Ch 2)--><g class="entity" data-entity="Flight to Egypt .Ch 2." data-source-line="10" data-uid="ent0006" id="entity_Flight to Egypt .Ch 2."><rect fill="#F1F1F1" height="48" rx="2.5" ry="2.5" style="stroke:#181818;stroke-width:0.5;" width="164.2754" x="671.86" y="460.6094"/><ellipse cx="686.86" cy="476.6094" fill="#ADD1B2" rx="11" ry="11" style="stroke:#181818;stroke-width:1;"/><path d="M689.6256,472.4844 Q689.7819,472.2656 689.9694,472.1563 Q690.1569,472.0469 690.3756,472.0469 Q690.7506,472.0469 690.985,472.3125 Q691.2194,472.5625 691.2194,473.1719 L691.2194,474.625 Q691.2194,475.2344 690.985,475.5 Q690.7506,475.7656 690.3756,475.7656 Q690.0319,475.7656 689.8288,475.5625 Q689.6256,475.375 689.5163,474.8594 Q689.4694,474.5 689.2819,474.3125 Q688.9538,473.9375 688.3444,473.7188 Q687.735,473.5 687.11,473.5 Q686.3444,473.5 685.7038,473.8281 Q685.0788,474.1563 684.5788,474.9063 Q684.0944,475.6563 684.0944,476.6875 L684.0944,477.7813 Q684.0944,479.0156 684.985,479.8438 Q685.8756,480.6563 687.4694,480.6563 Q688.4069,480.6563 689.0631,480.4063 Q689.4538,480.25 689.8756,479.8125 Q690.1413,479.5469 690.2819,479.4688 Q690.4381,479.3906 690.6413,479.3906 Q690.9694,479.3906 691.2194,479.6563 Q691.485,479.9063 691.485,480.25 Q691.485,480.5938 691.1413,481 Q690.6413,481.5781 689.8444,481.9063 Q688.7663,482.3594 687.4694,482.3594 Q685.9538,482.3594 684.7506,481.7344 Q683.7663,481.2344 683.0788,480.1719 Q682.3913,479.0938 682.3913,477.8125 L682.3913,476.6563 Q682.3913,475.3281 683.0006,474.1875 Q683.6256,473.0313 684.7194,472.4219 Q685.8131,471.7969 687.0475,471.7969 Q687.7819,471.7969 688.4225,471.9688 Q689.0788,472.125 689.6256,472.4844 Z " fill="#000000"/><text fill="#000000" font-family="sans-serif" font-size="14" lengthAdjust="spacing" textLength="132.2754" x="700.86" y="482.3379">Flight to Egypt (Ch 2)</text><line style="stroke:#181818;stroke-width:0.5;" x1="672.86" x2="835.1354" y1="492.6094" y2="492.6094"/><line style="stroke:#181818;stroke-width:0.5;" x1="672.86" x2="835.1354" y1="500.6094" y2="500.6094"/></g><!--class Return to Nazareth (Ch 2)--><g class="entity" data-entity="Return to Nazareth .Ch 2." data-source-line="11" data-uid="ent0007" id="entity_Return to Nazareth .Ch 2."><rect fill="#F1F1F1" height="48" rx="2.5" ry="2.5" style="stroke:#181818;stroke-width:0.5;" width="193.0684" x="657.47" y="588.6094"/><ellipse cx="672.47" cy="604.6094" fill="#ADD1B2" rx="11" ry="11" style="stroke:#181818;stroke-width:1;"/><path d="M675.2356,600.4844 Q675.3919,600.2656 675.5794,600.1563 Q675.7669,600.0469 675.9856,600.0469 Q676.3606,600.0469 676.595,600.3125 Q676.8294,600.5625 676.8294,601.1719 L676.8294,602.625 Q676.8294,603.2344 676.595,603.5 Q676.3606,603.7656 675.9856,603.7656 Q675.6419,603.7656 675.4388,603.5625 Q675.2356,603.375 675.1263,602.8594 Q675.0794,602.5 674.8919,602.3125 Q674.5638,601.9375 673.9544,601.7188 Q673.345,601.5 672.72,601.5 Q671.9544,601.5 671.3138,601.8281 Q670.6888,602.1563 670.1888,602.9063 Q669.7044,603.6563 669.7044,604.6875 L669.7044,605.7813 Q669.7044,607.0156 670.595,607.8438 Q671.4856,608.6563 673.0794,608.6563 Q674.0169,608.6563 674.6731,608.4063 Q675.0638,608.25 675.4856,607.8125 Q675.7513,607.5469 675.8919,607.4688 Q676.0481,607.3906 676.2513,607.3906 Q676.5794,607.3906 676.8294,607.6563 Q677.095,607.9063 677.095,608.25 Q677.095,608.5938 676.7513,609 Q676.2513,609.5781 675.4544,609.9063 Q674.3763,610.3594 673.0794,610.3594 Q671.5638,610.3594 670.3606,609.7344 Q669.3763,609.2344 668.6888,608.1719 Q668.0013,607.0938 668.0013,605.8125 L668.0013,604.6563 Q668.0013,603.3281 668.6106,602.1875 Q669.2356,601.0313 670.3294,600.4219 Q671.4231,599.7969 672.6575,599.7969 Q673.3919,599.7969 674.0325,599.9688 Q674.6888,600.125 675.2356,600.4844 Z " fill="#000000"/><text fill="#000000" font-family="sans-serif" font-size="14" lengthAdjust="spacing" textLength="161.0684" x="686.47" y="610.3379">Return to Nazareth (Ch 2)</text><line style="stroke:#181818;stroke-width:0.5;" x1="658.47" x2="849.5384" y1="620.6094" y2="620.6094"/><line style="stroke:#181818;stroke-width:0.5;" x1="658.47" x2="849.5384" y1="628.6094" y2="628.6094"/></g><!--class John the Baptist Prepares the Way (Ch 3)--><g class="entity" data-entity="John the Baptist Prepares the Way .Ch 3." data-source-line="23" data-uid="ent0013" id="entity_John the Baptist Prepares the Way .Ch 3."><rect fill="#F1F1F1" height="48" rx="2.5" ry="2.5" style="stroke:#181818;stroke-width:0.5;" width="291.123" x="910.44" y="80.6094"/><ellipse cx="925.44" cy="96.6094" fill="#ADD1B2" rx="11" ry="11" style="stroke:#181818;stroke-width:1;"/><path d="M928.2056,92.4844 Q928.3619,92.2656 928.5494,92.1563 Q928.7369,92.0469 928.9556,92.0469 Q929.3306,92.0469 929.565,92.3125 Q929.7994,92.5625 929.7994,93.1719 L929.7994,94.625 Q929.7994,95.2344 929.565,95.5 Q929.3306,95.7656 928.9556,95.7656 Q928.6119,95.7656 928.4088,95.5625 Q928.2056,95.375 928.0963,94.8594 Q928.0494,94.5 927.8619,94.3125 Q927.5338,93.9375 926.9244,93.7188 Q926.315,93.5 925.69,93.5 Q924.9244,93.5 924.2838,93.8281 Q923.6588,94.1563 923.1588,94.9063 Q922.6744,95.6563 922.6744,96.6875 L922.6744,97.7813 Q922.6744,99.0156 923.565,99.8438 Q924.4556,100.6563 926.0494,100.6563 Q926.9869,100.6563 927.6431,100.4063 Q928.0338,100.25 928.4556,99.8125 Q928.7213,99.5469 928.8619,99.4688 Q929.0181,99.3906 929.2213,99.3906 Q929.5494,99.3906 929.7994,99.6563 Q930.065,99.9063 930.065,100.25 Q930.065,100.5938 929.7213,101 Q929.2213,101.5781 928.4244,101.9063 Q927.3463,102.3594 926.0494,102.3594 Q924.5338,102.3594 923.3306,101.7344 Q922.3463,101.2344 921.6588,100.1719 Q920.9713,99.0938 920.9713,97.8125 L920.9713,96.6563 Q920.9713,95.3281 921.5806,94.1875 Q922.2056,93.0313 923.2994,92.4219 Q924.3931,91.7969 925.6275,91.7969 Q926.3619,91.7969 927.0025,91.9688 Q927.6588,92.125 928.2056,92.4844 Z " fill="#000000"/><text fill="#000000" font-family="sans-serif" font-size="14" lengthAdjust="spacing" textLength="259.123" x="939.44" y="102.3379">John the Baptist Prepares the Way (Ch 3)</text><line style="stroke:#181818;stroke-width:0.5;" x1="911.44" x2="1200.563" y1="112.6094" y2="112.6094"/><line style="stroke:#181818;stroke-width:0.5;" x1="911.44" x2="1200.563" y1="120.6094" y2="120.6094"/></g><!--class Baptism of Jesus (Ch 3)--><g class="entity" data-entity="Baptism of Jesus .Ch 3." data-source-line="24" data-uid="ent0014" id="entity_Baptism of Jesus .Ch 3."><rect fill="#F1F1F1" height="48" rx="2.5" ry="2.5" style="stroke:#181818;stroke-width:0.5;" width="181.3857" x="965.31" y="206.6094"/><ellipse cx="980.31" cy="222.6094" fill="#ADD1B2" rx="11" ry="11" style="stroke:#181818;stroke-width:1;"/><path d="M983.0756,218.4844 Q983.2319,218.2656 983.4194,218.1563 Q983.6069,218.0469 983.8256,218.0469 Q984.2006,218.0469 984.435,218.3125 Q984.6694,218.5625 984.6694,219.1719 L984.6694,220.625 Q984.6694,221.2344 984.435,221.5 Q984.2006,221.7656 983.8256,221.7656 Q983.4819,221.7656 983.2788,221.5625 Q983.0756,221.375 982.9663,220.8594 Q982.9194,220.5 982.7319,220.3125 Q982.4038,219.9375 981.7944,219.7188 Q981.185,219.5 980.56,219.5 Q979.7944,219.5 979.1538,219.8281 Q978.5288,220.1563 978.0288,220.9063 Q977.5444,221.6563 977.5444,222.6875 L977.5444,223.7813 Q977.5444,225.0156 978.435,225.8438 Q979.3256,226.6563 980.9194,226.6563 Q981.8569,226.6563 982.5131,226.4063 Q982.9038,226.25 983.3256,225.8125 Q983.5913,225.5469 983.7319,225.4688 Q983.8881,225.3906 984.0913,225.3906 Q984.4194,225.3906 984.6694,225.6563 Q984.935,225.9063 984.935,226.25 Q984.935,226.5938 984.5913,227 Q984.0913,227.5781 983.2944,227.9063 Q982.2163,228.3594 980.9194,228.3594 Q979.4038,228.3594 978.2006,227.7344 Q977.2163,227.2344 976.5288,226.1719 Q975.8413,225.0938 975.8413,223.8125 L975.8413,222.6563 Q975.8413,221.3281 976.4506,220.1875 Q977.0756,219.0313 978.1694,218.4219 Q979.2631,217.7969 980.4975,217.7969 Q981.2319,217.7969 981.8725,217.9688 Q982.5288,218.125 983.0756,218.4844 Z " fill="#000000"/><text fill="#000000" font-family="sans-serif" font-size="14" lengthAdjust="spacing" textLength="149.3857" x="994.31" y="228.3379">Baptism of Jesus (Ch 3)</text><line style="stroke:#181818;stroke-width:0.5;" x1="966.31" x2="1145.6957" y1="238.6094" y2="238.6094"/><line style="stroke:#181818;stroke-width:0.5;" x1="966.31" x2="1145.6957" y1="246.6094" y2="246.6094"/></g><!--class Temptation in the Desert (Ch 4)--><g class="entity" data-entity="Temptation in the Desert .Ch 4." data-source-line="25" data-uid="ent0015" id="entity_Temptation in the Desert .Ch 4."><rect fill="#F1F1F1" height="48" rx="2.5" ry="2.5" style="stroke:#181818;stroke-width:0.5;" width="228.082" x="941.96" y="334.6094"/><ellipse cx="956.96" cy="350.6094" fill="#ADD1B2" rx="11" ry="11" style="stroke:#181818;stroke-width:1;"/><path d="M959.7256,346.4844 Q959.8819,346.2656 960.0694,346.1563 Q960.2569,346.0469 960.4756,346.0469 Q960.8506,346.0469 961.085,346.3125 Q961.3194,346.5625 961.3194,347.1719 L961.3194,348.625 Q961.3194,349.2344 961.085,349.5 Q960.8506,349.7656 960.4756,349.7656 Q960.1319,349.7656 959.9288,349.5625 Q959.7256,349.375 959.6163,348.8594 Q959.5694,348.5 959.3819,348.3125 Q959.0538,347.9375 958.4444,347.7188 Q957.835,347.5 957.21,347.5 Q956.4444,347.5 955.8038,347.8281 Q955.1788,348.1563 954.6788,348.9063 Q954.1944,349.6563 954.1944,350.6875 L954.1944,351.7813 Q954.1944,353.0156 955.085,353.8438 Q955.9756,354.6563 957.5694,354.6563 Q958.5069,354.6563 959.1631,354.4063 Q959.5538,354.25 959.9756,353.8125 Q960.2413,353.5469 960.3819,353.4688 Q960.5381,353.3906 960.7413,353.3906 Q961.0694,353.3906 961.3194,353.6563 Q961.585,353.9063 961.585,354.25 Q961.585,354.5938 961.2413,355 Q960.7413,355.5781 959.9444,355.9063 Q958.8663,356.3594 957.5694,356.3594 Q956.0538,356.3594 954.8506,355.7344 Q953.8663,355.2344 953.1788,354.1719 Q952.4913,353.0938 952.4913,351.8125 L952.4913,350.6563 Q952.4913,349.3281 953.1006,348.1875 Q953.7256,347.0313 954.8194,346.4219 Q955.9131,345.7969 957.1475,345.7969 Q957.8819,345.7969 958.5225,345.9688 Q959.1788,346.125 959.7256,346.4844 Z " fill="#000000"/><text fill="#000000" font-family="sans-serif" font-size="14" lengthAdjust="spacing" textLength="196.082" x="970.96" y="356.3379">Temptation in the Desert (Ch 4)</text><line style="stroke:#181818;stroke-width:0.5;" x1="942.96" x2="1169.042" y1="366.6094" y2="366.6094"/><line style="stroke:#181818;stroke-width:0.5;" x1="942.96" x2="1169.042" y1="374.6094" y2="374.6094"/></g><!--class Start of Public Ministry in Galilee (Ch 4)--><g class="entity" data-entity="Start of Public Ministry in Galilee .Ch 4." data-source-line="26" data-uid="ent0016" id="entity_Start of Public Ministry in Galilee .Ch 4."><rect fill="#F1F1F1" height="48" rx="2.5" ry="2.5" style="stroke:#181818;stroke-width:0.5;" width="276.3027" x="917.85" y="460.6094"/><ellipse cx="932.85" cy="476.6094" fill="#ADD1B2" rx="11" ry="11" style="stroke:#181818;stroke-width:1;"/><path d="M935.6156,472.4844 Q935.7719,472.2656 935.9594,472.1563 Q936.1469,472.0469 936.3656,472.0469 Q936.7406,472.0469 936.975,472.3125 Q937.2094,472.5625 937.2094,473.1719 L937.2094,474.625 Q937.2094,475.2344 936.975,475.5 Q936.7406,475.7656 936.3656,475.7656 Q936.0219,475.7656 935.8188,475.5625 Q935.6156,475.375 935.5063,474.8594 Q935.4594,474.5 935.2719,474.3125 Q934.9438,473.9375 934.3344,473.7188 Q933.725,473.5 933.1,473.5 Q932.3344,473.5 931.6938,473.8281 Q931.0688,474.1563 930.5688,474.9063 Q930.0844,475.6563 930.0844,476.6875 L930.0844,477.7813 Q930.0844,479.0156 930.975,479.8438 Q931.8656,480.6563 933.4594,480.6563 Q934.3969,480.6563 935.0531,480.4063 Q935.4438,480.25 935.8656,479.8125 Q936.1313,479.5469 936.2719,479.4688 Q936.4281,479.3906 936.6313,479.3906 Q936.9594,479.3906 937.2094,479.6563 Q937.475,479.9063 937.475,480.25 Q937.475,480.5938 937.1313,481 Q936.6313,481.5781 935.8344,481.9063 Q934.7563,482.3594 933.4594,482.3594 Q931.9438,482.3594 930.7406,481.7344 Q929.7563,481.2344 929.0688,480.1719 Q928.3813,479.0938 928.3813,477.8125 L928.3813,476.6563 Q928.3813,475.3281 928.9906,474.1875 Q929.6156,473.0313 930.7094,472.4219 Q931.8031,471.7969 933.0375,471.7969 Q933.7719,471.7969 934.4125,471.9688 Q935.0688,472.125 935.6156,472.4844 Z " fill="#000000"/><text fill="#000000" font-family="sans-serif" font-size="14" lengthAdjust="spacing" textLength="244.3027" x="946.85" y="482.3379">Start of Public Ministry in Galilee (Ch 4)</text><line style="stroke:#181818;stroke-width:0.5;" x1="918.85" x2="1193.1527" y1="492.6094" y2="492.6094"/><line style="stroke:#181818;stroke-width:0.5;" x1="918.85" x2="1193.1527" y1="500.6094" y2="500.6094"/></g><!--class Beatitudes & Teaching on the Law (Ch 5)--><g class="entity" data-entity="Beatitudes . Teaching on the Law .Ch 5." data-source-line="37" data-uid="ent0021" id="entity_Beatitudes . Teaching on the Law .Ch 5."><rect fill="#F1F1F1" height="48" rx="2.5" ry="2.5" style="stroke:#181818;stroke-width:0.5;" width="288.04" x="21.98" y="80.6094"/><ellipse cx="36.98" cy="96.6094" fill="#ADD1B2" rx="11" ry="11" style="stroke:#181818;stroke-width:1;"/><path d="M39.7456,92.4844 Q39.9019,92.2656 40.0894,92.1563 Q40.2769,92.0469 40.4956,92.0469 Q40.8706,92.0469 41.105,92.3125 Q41.3394,92.5625 41.3394,93.1719 L41.3394,94.625 Q41.3394,95.2344 41.105,95.5 Q40.8706,95.7656 40.4956,95.7656 Q40.1519,95.7656 39.9488,95.5625 Q39.7456,95.375 39.6363,94.8594 Q39.5894,94.5 39.4019,94.3125 Q39.0738,93.9375 38.4644,93.7188 Q37.855,93.5 37.23,93.5 Q36.4644,93.5 35.8238,93.8281 Q35.1988,94.1563 34.6988,94.9063 Q34.2144,95.6563 34.2144,96.6875 L34.2144,97.7813 Q34.2144,99.0156 35.105,99.8438 Q35.9956,100.6563 37.5894,100.6563 Q38.5269,100.6563 39.1831,100.4063 Q39.5738,100.25 39.9956,99.8125 Q40.2613,99.5469 40.4019,99.4688 Q40.5581,99.3906 40.7613,99.3906 Q41.0894,99.3906 41.3394,99.6563 Q41.605,99.9063 41.605,100.25 Q41.605,100.5938 41.2613,101 Q40.7613,101.5781 39.9644,101.9063 Q38.8863,102.3594 37.5894,102.3594 Q36.0738,102.3594 34.8706,101.7344 Q33.8863,101.2344 33.1988,100.1719 Q32.5113,99.0938 32.5113,97.8125 L32.5113,96.6563 Q32.5113,95.3281 33.1206,94.1875 Q33.7456,93.0313 34.8394,92.4219 Q35.9331,91.7969 37.1675,91.7969 Q37.9019,91.7969 38.5425,91.9688 Q39.1988,92.125 39.7456,92.4844 Z " fill="#000000"/><text fill="#000000" font-family="sans-serif" font-size="14" lengthAdjust="spacing" textLength="256.04" x="50.98" y="102.3379">Beatitudes &amp; Teaching on the Law (Ch 5)</text><line style="stroke:#181818;stroke-width:0.5;" x1="22.98" x2="309.02" y1="112.6094" y2="112.6094"/><line style="stroke:#181818;stroke-width:0.5;" x1="22.98" x2="309.02" y1="120.6094" y2="120.6094"/></g><!--class Prayer, Fasting, Trust in God (Ch 6)--><g class="entity" data-entity="Prayer. Fasting. Trust in God .Ch 6." data-source-line="38" data-uid="ent0022" id="entity_Prayer. Fasting. Trust in God .Ch 6."><rect fill="#F1F1F1" height="48" rx="2.5" ry="2.5" style="stroke:#181818;stroke-width:0.5;" width="254.5166" x="344.74" y="80.6094"/><ellipse cx="359.74" cy="96.6094" fill="#ADD1B2" rx="11" ry="11" style="stroke:#181818;stroke-width:1;"/><path d="M362.5056,92.4844 Q362.6619,92.2656 362.8494,92.1563 Q363.0369,92.0469 363.2556,92.0469 Q363.6306,92.0469 363.865,92.3125 Q364.0994,92.5625 364.0994,93.1719 L364.0994,94.625 Q364.0994,95.2344 363.865,95.5 Q363.6306,95.7656 363.2556,95.7656 Q362.9119,95.7656 362.7088,95.5625 Q362.5056,95.375 362.3963,94.8594 Q362.3494,94.5 362.1619,94.3125 Q361.8338,93.9375 361.2244,93.7188 Q360.615,93.5 359.99,93.5 Q359.2244,93.5 358.5838,93.8281 Q357.9588,94.1563 357.4588,94.9063 Q356.9744,95.6563 356.9744,96.6875 L356.9744,97.7813 Q356.9744,99.0156 357.865,99.8438 Q358.7556,100.6563 360.3494,100.6563 Q361.2869,100.6563 361.9431,100.4063 Q362.3338,100.25 362.7556,99.8125 Q363.0213,99.5469 363.1619,99.4688 Q363.3181,99.3906 363.5213,99.3906 Q363.8494,99.3906 364.0994,99.6563 Q364.365,99.9063 364.365,100.25 Q364.365,100.5938 364.0213,101 Q363.5213,101.5781 362.7244,101.9063 Q361.6463,102.3594 360.3494,102.3594 Q358.8338,102.3594 357.6306,101.7344 Q356.6463,101.2344 355.9588,100.1719 Q355.2713,99.0938 355.2713,97.8125 L355.2713,96.6563 Q355.2713,95.3281 355.8806,94.1875 Q356.5056,93.0313 357.5994,92.4219 Q358.6931,91.7969 359.9275,91.7969 Q360.6619,91.7969 361.3025,91.9688 Q361.9588,92.125 362.5056,92.4844 Z " fill="#000000"/><text fill="#000000" font-family="sans-serif" font-size="14" lengthAdjust="spacing" textLength="222.5166" x="373.74" y="102.3379">Prayer, Fasting, Trust in God (Ch 6)</text><line style="stroke:#181818;stroke-width:0.5;" x1="345.74" x2="598.2566" y1="112.6094" y2="112.6094"/><line style="stroke:#181818;stroke-width:0.5;" x1="345.74" x2="598.2566" y1="120.6094" y2="120.6094"/></g><!--class Judgment & True Discipleship (Ch 7)--><g class="entity" data-entity="Judgment . True Discipleship .Ch 7." data-source-line="39" data-uid="ent0023" id="entity_Judgment . True Discipleship .Ch 7."><rect fill="#F1F1F1" height="48" rx="2.5" ry="2.5" style="stroke:#181818;stroke-width:0.5;" width="260.7578" x="35.62" y="206.6094"/><ellipse cx="50.62" cy="222.6094" fill="#ADD1B2" rx="11" ry="11" style="stroke:#181818;stroke-width:1;"/><path d="M53.3856,218.4844 Q53.5419,218.2656 53.7294,218.1563 Q53.9169,218.0469 54.1356,218.0469 Q54.5106,218.0469 54.745,218.3125 Q54.9794,218.5625 54.9794,219.1719 L54.9794,220.625 Q54.9794,221.2344 54.745,221.5 Q54.5106,221.7656 54.1356,221.7656 Q53.7919,221.7656 53.5888,221.5625 Q53.3856,221.375 53.2763,220.8594 Q53.2294,220.5 53.0419,220.3125 Q52.7138,219.9375 52.1044,219.7188 Q51.495,219.5 50.87,219.5 Q50.1044,219.5 49.4638,219.8281 Q48.8388,220.1563 48.3388,220.9063 Q47.8544,221.6563 47.8544,222.6875 L47.8544,223.7813 Q47.8544,225.0156 48.745,225.8438 Q49.6356,226.6563 51.2294,226.6563 Q52.1669,226.6563 52.8231,226.4063 Q53.2138,226.25 53.6356,225.8125 Q53.9013,225.5469 54.0419,225.4688 Q54.1981,225.3906 54.4013,225.3906 Q54.7294,225.3906 54.9794,225.6563 Q55.245,225.9063 55.245,226.25 Q55.245,226.5938 54.9013,227 Q54.4013,227.5781 53.6044,227.9063 Q52.5263,228.3594 51.2294,228.3594 Q49.7138,228.3594 48.5106,227.7344 Q47.5263,227.2344 46.8388,226.1719 Q46.1513,225.0938 46.1513,223.8125 L46.1513,222.6563 Q46.1513,221.3281 46.7606,220.1875 Q47.3856,219.0313 48.4794,218.4219 Q49.5731,217.7969 50.8075,217.7969 Q51.5419,217.7969 52.1825,217.9688 Q52.8388,218.125 53.3856,218.4844 Z " fill="#000000"/><text fill="#000000" font-family="sans-serif" font-size="14" lengthAdjust="spacing" textLength="228.7578" x="64.62" y="228.3379">Judgment &amp; True Discipleship (Ch 7)</text><line style="stroke:#181818;stroke-width:0.5;" x1="36.62" x2="295.3778" y1="238.6094" y2="238.6094"/><line style="stroke:#181818;stroke-width:0.5;" x1="36.62" x2="295.3778" y1="246.6094" y2="246.6094"/></g><!--class Healing the Leper (8:1-4)--><g class="entity" data-entity="Healing the Leper .8.1-4." data-source-line="46" data-uid="ent0025" id="entity_Healing the Leper .8.1-4."><rect fill="#F1F1F1" height="48" rx="2.5" ry="2.5" style="stroke:#181818;stroke-width:0.5;" width="187.6475" x="1316.18" y="80.6094"/><ellipse cx="1331.18" cy="96.6094" fill="#ADD1B2" rx="11" ry="11" style="stroke:#181818;stroke-width:1;"/><path d="M1333.9456,92.4844 Q1334.1019,92.2656 1334.2894,92.1563 Q1334.4769,92.0469 1334.6956,92.0469 Q1335.0706,92.0469 1335.305,92.3125 Q1335.5394,92.5625 1335.5394,93.1719 L1335.5394,94.625 Q1335.5394,95.2344 1335.305,95.5 Q1335.0706,95.7656 1334.6956,95.7656 Q1334.3519,95.7656 1334.1488,95.5625 Q1333.9456,95.375 1333.8363,94.8594 Q1333.7894,94.5 1333.6019,94.3125 Q1333.2738,93.9375 1332.6644,93.7188 Q1332.055,93.5 1331.43,93.5 Q1330.6644,93.5 1330.0238,93.8281 Q1329.3988,94.1563 1328.8988,94.9063 Q1328.4144,95.6563 1328.4144,96.6875 L1328.4144,97.7813 Q1328.4144,99.0156 1329.305,99.8438 Q1330.1956,100.6563 1331.7894,100.6563 Q1332.7269,100.6563 1333.3831,100.4063 Q1333.7738,100.25 1334.1956,99.8125 Q1334.4613,99.5469 1334.6019,99.4688 Q1334.7581,99.3906 1334.9613,99.3906 Q1335.2894,99.3906 1335.5394,99.6563 Q1335.805,99.9063 1335.805,100.25 Q1335.805,100.5938 1335.4613,101 Q1334.9613,101.5781 1334.1644,101.9063 Q1333.0863,102.3594 1331.7894,102.3594 Q1330.2738,102.3594 1329.0706,101.7344 Q1328.0863,101.2344 1327.3988,100.1719 Q1326.7113,99.0938 1326.7113,97.8125 L1326.7113,96.6563 Q1326.7113,95.3281 1327.3206,94.1875 Q1327.9456,93.0313 1329.0394,92.4219 Q1330.1331,91.7969 1331.3675,91.7969 Q1332.1019,91.7969 1332.7425,91.9688 Q1333.3988,92.125 1333.9456,92.4844 Z " fill="#000000"/><text fill="#000000" font-family="sans-serif" font-size="14" lengthAdjust="spacing" textLength="155.6475" x="1345.18" y="102.3379">Healing the Leper (8:1-4)</text><line style="stroke:#181818;stroke-width:0.5;" x1="1317.18" x2="1502.8275" y1="112.6094" y2="112.6094"/><line style="stroke:#181818;stroke-width:0.5;" x1="1317.18" x2="1502.8275" y1="120.6094" y2="120.6094"/></g><!--class Healing the Centurion's Servant (8:5-13)--><g class="entity" data-entity="Healing the Centurion.s Servant .8.5-13." data-source-line="47" data-uid="ent0026" id="entity_Healing the Centurion.s Servant .8.5-13."><rect fill="#F1F1F1" height="48" rx="2.5" ry="2.5" style="stroke:#181818;stroke-width:0.5;" width="282.1406" x="1268.93" y="206.6094"/><ellipse cx="1283.93" cy="222.6094" fill="#ADD1B2" rx="11" ry="11" style="stroke:#181818;stroke-width:1;"/><path d="M1286.6956,218.4844 Q1286.8519,218.2656 1287.0394,218.1563 Q1287.2269,218.0469 1287.4456,218.0469 Q1287.8206,218.0469 1288.055,218.3125 Q1288.2894,218.5625 1288.2894,219.1719 L1288.2894,220.625 Q1288.2894,221.2344 1288.055,221.5 Q1287.8206,221.7656 1287.4456,221.7656 Q1287.1019,221.7656 1286.8988,221.5625 Q1286.6956,221.375 1286.5863,220.8594 Q1286.5394,220.5 1286.3519,220.3125 Q1286.0238,219.9375 1285.4144,219.7188 Q1284.805,219.5 1284.18,219.5 Q1283.4144,219.5 1282.7738,219.8281 Q1282.1488,220.1563 1281.6488,220.9063 Q1281.1644,221.6563 1281.1644,222.6875 L1281.1644,223.7813 Q1281.1644,225.0156 1282.055,225.8438 Q1282.9456,226.6563 1284.5394,226.6563 Q1285.4769,226.6563 1286.1331,226.4063 Q1286.5238,226.25 1286.9456,225.8125 Q1287.2113,225.5469 1287.3519,225.4688 Q1287.5081,225.3906 1287.7113,225.3906 Q1288.0394,225.3906 1288.2894,225.6563 Q1288.555,225.9063 1288.555,226.25 Q1288.555,226.5938 1288.2113,227 Q1287.7113,227.5781 1286.9144,227.9063 Q1285.8363,228.3594 1284.5394,228.3594 Q1283.0238,228.3594 1281.8206,227.7344 Q1280.8363,227.2344 1280.1488,226.1719 Q1279.4613,225.0938 1279.4613,223.8125 L1279.4613,222.6563 Q1279.4613,221.3281 1280.0706,220.1875 Q1280.6956,219.0313 1281.7894,218.4219 Q1282.8831,217.7969 1284.1175,217.7969 Q1284.8519,217.7969 1285.4925,217.9688 Q1286.1488,218.125 1286.6956,218.4844 Z " fill="#000000"/><text fill="#000000" font-family="sans-serif" font-size="14" lengthAdjust="spacing" textLength="250.1406" x="1297.93" y="228.3379">Healing the Centurion's Servant (8:5-13)</text><line style="stroke:#181818;stroke-width:0.5;" x1="1269.93" x2="1550.0706" y1="238.6094" y2="238.6094"/><line style="stroke:#181818;stroke-width:0.5;" x1="1269.93" x2="1550.0706" y1="246.6094" y2="246.6094"/></g><!--class Healing Peter's Mother-in-law (8:14-17)--><g class="entity" data-entity="Healing Peter.s Mother-in-law .8.14-17." data-source-line="48" data-uid="ent0027" id="entity_Healing Peter.s Mother-in-law .8.14-17."><rect fill="#F1F1F1" height="48" rx="2.5" ry="2.5" style="stroke:#181818;stroke-width:0.5;" width="275.8857" x="1272.06" y="334.6094"/><ellipse cx="1287.06" cy="350.6094" fill="#ADD1B2" rx="11" ry="11" style="stroke:#181818;stroke-width:1;"/><path d="M1289.8256,346.4844 Q1289.9819,346.2656 1290.1694,346.1563 Q1290.3569,346.0469 1290.5756,346.0469 Q1290.9506,346.0469 1291.185,346.3125 Q1291.4194,346.5625 1291.4194,347.1719 L1291.4194,348.625 Q1291.4194,349.2344 1291.185,349.5 Q1290.9506,349.7656 1290.5756,349.7656 Q1290.2319,349.7656 1290.0288,349.5625 Q1289.8256,349.375 1289.7163,348.8594 Q1289.6694,348.5 1289.4819,348.3125 Q1289.1538,347.9375 1288.5444,347.7188 Q1287.935,347.5 1287.31,347.5 Q1286.5444,347.5 1285.9038,347.8281 Q1285.2788,348.1563 1284.7788,348.9063 Q1284.2944,349.6563 1284.2944,350.6875 L1284.2944,351.7813 Q1284.2944,353.0156 1285.185,353.8438 Q1286.0756,354.6563 1287.6694,354.6563 Q1288.6069,354.6563 1289.2631,354.4063 Q1289.6538,354.25 1290.0756,353.8125 Q1290.3413,353.5469 1290.4819,353.4688 Q1290.6381,353.3906 1290.8413,353.3906 Q1291.1694,353.3906 1291.4194,353.6563 Q1291.685,353.9063 1291.685,354.25 Q1291.685,354.5938 1291.3413,355 Q1290.8413,355.5781 1290.0444,355.9063 Q1288.9663,356.3594 1287.6694,356.3594 Q1286.1538,356.3594 1284.9506,355.7344 Q1283.9663,355.2344 1283.2788,354.1719 Q1282.5913,353.0938 1282.5913,351.8125 L1282.5913,350.6563 Q1282.5913,349.3281 1283.2006,348.1875 Q1283.8256,347.0313 1284.9194,346.4219 Q1286.0131,345.7969 1287.2475,345.7969 Q1287.9819,345.7969 1288.6225,345.9688 Q1289.2788,346.125 1289.8256,346.4844 Z " fill="#000000"/><text fill="#000000" font-family="sans-serif" font-size="14" lengthAdjust="spacing" textLength="243.8857" x="1301.06" y="356.3379">Healing Peter's Mother-in-law (8:14-17)</text><line style="stroke:#181818;stroke-width:0.5;" x1="1273.06" x2="1546.9457" y1="366.6094" y2="366.6094"/><line style="stroke:#181818;stroke-width:0.5;" x1="1273.06" x2="1546.9457" y1="374.6094" y2="374.6094"/></g><!--class Calming the Storm (8:23-27)--><g class="entity" data-entity="Calming the Storm .8.23-27." data-source-line="49" data-uid="ent0028" id="entity_Calming the Storm .8.23-27."><rect fill="#F1F1F1" height="48" rx="2.5" ry="2.5" style="stroke:#181818;stroke-width:0.5;" width="208.627" x="1305.69" y="460.6094"/><ellipse cx="1320.69" cy="476.6094" fill="#ADD1B2" rx="11" ry="11" style="stroke:#181818;stroke-width:1;"/><path d="M1323.4556,472.4844 Q1323.6119,472.2656 1323.7994,472.1563 Q1323.9869,472.0469 1324.2056,472.0469 Q1324.5806,472.0469 1324.815,472.3125 Q1325.0494,472.5625 1325.0494,473.1719 L1325.0494,474.625 Q1325.0494,475.2344 1324.815,475.5 Q1324.5806,475.7656 1324.2056,475.7656 Q1323.8619,475.7656 1323.6588,475.5625 Q1323.4556,475.375 1323.3463,474.8594 Q1323.2994,474.5 1323.1119,474.3125 Q1322.7838,473.9375 1322.1744,473.7188 Q1321.565,473.5 1320.94,473.5 Q1320.1744,473.5 1319.5338,473.8281 Q1318.9088,474.1563 1318.4088,474.9063 Q1317.9244,475.6563 1317.9244,476.6875 L1317.9244,477.7813 Q1317.9244,479.0156 1318.815,479.8438 Q1319.7056,480.6563 1321.2994,480.6563 Q1322.2369,480.6563 1322.8931,480.4063 Q1323.2838,480.25 1323.7056,479.8125 Q1323.9713,479.5469 1324.1119,479.4688 Q1324.2681,479.3906 1324.4713,479.3906 Q1324.7994,479.3906 1325.0494,479.6563 Q1325.315,479.9063 1325.315,480.25 Q1325.315,480.5938 1324.9713,481 Q1324.4713,481.5781 1323.6744,481.9063 Q1322.5963,482.3594 1321.2994,482.3594 Q1319.7838,482.3594 1318.5806,481.7344 Q1317.5963,481.2344 1316.9088,480.1719 Q1316.2213,479.0938 1316.2213,477.8125 L1316.2213,476.6563 Q1316.2213,475.3281 1316.8306,474.1875 Q1317.4556,473.0313 1318.5494,472.4219 Q1319.6431,471.7969 1320.8775,471.7969 Q1321.6119,471.7969 1322.2525,471.9688 Q1322.9088,472.125 1323.4556,472.4844 Z " fill="#000000"/><text fill="#000000" font-family="sans-serif" font-size="14" lengthAdjust="spacing" textLength="176.627" x="1334.69" y="482.3379">Calming the Storm (8:23-27)</text><line style="stroke:#181818;stroke-width:0.5;" x1="1306.69" x2="1513.317" y1="492.6094" y2="492.6094"/><line style="stroke:#181818;stroke-width:0.5;" x1="1306.69" x2="1513.317" y1="500.6094" y2="500.6094"/></g><!--class Healing the Gadarene Demoniacs (8:28-34)--><g class="entity" data-entity="Healing the Gadarene Demoniacs .8.28-34." data-source-line="50" data-uid="ent0029" id="entity_Healing the Gadarene Demoniacs .8.28-34."><rect fill="#F1F1F1" height="48" rx="2.5" ry="2.5" style="stroke:#181818;stroke-width:0.5;" width="303.5986" x="1258.2" y="588.6094"/><ellipse cx="1273.2" cy="604.6094" fill="#ADD1B2" rx="11" ry="11" style="stroke:#181818;stroke-width:1;"/><path d="M1275.9656,600.4844 Q1276.1219,600.2656 1276.3094,600.1563 Q1276.4969,600.0469 1276.7156,600.0469 Q1277.0906,600.0469 1277.325,600.3125 Q1277.5594,600.5625 1277.5594,601.1719 L1277.5594,602.625 Q1277.5594,603.2344 1277.325,603.5 Q1277.0906,603.7656 1276.7156,603.7656 Q1276.3719,603.7656 1276.1688,603.5625 Q1275.9656,603.375 1275.8563,602.8594 Q1275.8094,602.5 1275.6219,602.3125 Q1275.2938,601.9375 1274.6844,601.7188 Q1274.075,601.5 1273.45,601.5 Q1272.6844,601.5 1272.0438,601.8281 Q1271.4188,602.1563 1270.9188,602.9063 Q1270.4344,603.6563 1270.4344,604.6875 L1270.4344,605.7813 Q1270.4344,607.0156 1271.325,607.8438 Q1272.2156,608.6563 1273.8094,608.6563 Q1274.7469,608.6563 1275.4031,608.4063 Q1275.7938,608.25 1276.2156,607.8125 Q1276.4813,607.5469 1276.6219,607.4688 Q1276.7781,607.3906 1276.9813,607.3906 Q1277.3094,607.3906 1277.5594,607.6563 Q1277.825,607.9063 1277.825,608.25 Q1277.825,608.5938 1277.4813,609 Q1276.9813,609.5781 1276.1844,609.9063 Q1275.1063,610.3594 1273.8094,610.3594 Q1272.2938,610.3594 1271.0906,609.7344 Q1270.1063,609.2344 1269.4188,608.1719 Q1268.7313,607.0938 1268.7313,605.8125 L1268.7313,604.6563 Q1268.7313,603.3281 1269.3406,602.1875 Q1269.9656,601.0313 1271.0594,600.4219 Q1272.1531,599.7969 1273.3875,599.7969 Q1274.1219,599.7969 1274.7625,599.9688 Q1275.4188,600.125 1275.9656,600.4844 Z " fill="#000000"/><text fill="#000000" font-family="sans-serif" font-size="14" lengthAdjust="spacing" textLength="271.5986" x="1287.2" y="610.3379">Healing the Gadarene Demoniacs (8:28-34)</text><line style="stroke:#181818;stroke-width:0.5;" x1="1259.2" x2="1560.7986" y1="620.6094" y2="620.6094"/><line style="stroke:#181818;stroke-width:0.5;" x1="1259.2" x2="1560.7986" y1="628.6094" y2="628.6094"/></g><!--class Jesus--><g class="entity" data-entity="Jesus" data-source-line="62" data-uid="ent0035" id="entity_Jesus"><rect fill="#FFFFE0" height="48" rx="2.5" ry="2.5" style="stroke:#181818;stroke-width:0.5;" width="68.5723" x="2164.71" y="80.6094"/><ellipse cx="2179.71" cy="96.6094" fill="#ADD1B2" rx="11" ry="11" style="stroke:#181818;stroke-width:1;"/><path d="M2182.4756,92.4844 Q2182.6319,92.2656 2182.8194,92.1563 Q2183.0069,92.0469 2183.2256,92.0469 Q2183.6006,92.0469 2183.835,92.3125 Q2184.0694,92.5625 2184.0694,93.1719 L2184.0694,94.625 Q2184.0694,95.2344 2183.835,95.5 Q2183.6006,95.7656 2183.2256,95.7656 Q2182.8819,95.7656 2182.6788,95.5625 Q2182.4756,95.375 2182.3663,94.8594 Q2182.3194,94.5 2182.1319,94.3125 Q2181.8038,93.9375 2181.1944,93.7188 Q2180.585,93.5 2179.96,93.5 Q2179.1944,93.5 2178.5538,93.8281 Q2177.9288,94.1563 2177.4288,94.9063 Q2176.9444,95.6563 2176.9444,96.6875 L2176.9444,97.7813 Q2176.9444,99.0156 2177.835,99.8438 Q2178.7256,100.6563 2180.3194,100.6563 Q2181.2569,100.6563 2181.9131,100.4063 Q2182.3038,100.25 2182.7256,99.8125 Q2182.9913,99.5469 2183.1319,99.4688 Q2183.2881,99.3906 2183.4913,99.3906 Q2183.8194,99.3906 2184.0694,99.6563 Q2184.335,99.9063 2184.335,100.25 Q2184.335,100.5938 2183.9913,101 Q2183.4913,101.5781 2182.6944,101.9063 Q2181.6163,102.3594 2180.3194,102.3594 Q2178.8038,102.3594 2177.6006,101.7344 Q2176.6163,101.2344 2175.9288,100.1719 Q2175.2413,99.0938 2175.2413,97.8125 L2175.2413,96.6563 Q2175.2413,95.3281 2175.8506,94.1875 Q2176.4756,93.0313 2177.5694,92.4219 Q2178.6631,91.7969 2179.8975,91.7969 Q2180.6319,91.7969 2181.2725,91.9688 Q2181.9288,92.125 2182.4756,92.4844 Z " fill="#000000"/><text fill="#000000" font-family="sans-serif" font-size="14" lengthAdjust="spacing" textLength="36.5723" x="2193.71" y="102.3379">Jesus</text><line style="stroke:#181818;stroke-width:0.5;" x1="2165.71" x2="2232.2823" y1="112.6094" y2="112.6094"/><line style="stroke:#181818;stroke-width:0.5;" x1="2165.71" x2="2232.2823" y1="120.6094" y2="120.6094"/></g><!--class Leper--><g class="entity" data-entity="Leper" data-source-line="63" data-uid="ent0036" id="entity_Leper"><rect fill="#F1F1F1" height="48" rx="2.5" ry="2.5" style="stroke:#181818;stroke-width:0.5;" width="67.8066" x="1618.1" y="206.6094"/><ellipse cx="1633.1" cy="222.6094" fill="#ADD1B2" rx="11" ry="11" style="stroke:#181818;stroke-width:1;"/><path d="M1635.8656,218.4844 Q1636.0219,218.2656 1636.2094,218.1563 Q1636.3969,218.0469 1636.6156,218.0469 Q1636.9906,218.0469 1637.225,218.3125 Q1637.4594,218.5625 1637.4594,219.1719 L1637.4594,220.625 Q1637.4594,221.2344 1637.225,221.5 Q1636.9906,221.7656 1636.6156,221.7656 Q1636.2719,221.7656 1636.0688,221.5625 Q1635.8656,221.375 1635.7563,220.8594 Q1635.7094,220.5 1635.5219,220.3125 Q1635.1938,219.9375 1634.5844,219.7188 Q1633.975,219.5 1633.35,219.5 Q1632.5844,219.5 1631.9438,219.8281 Q1631.3188,220.1563 1630.8188,220.9063 Q1630.3344,221.6563 1630.3344,222.6875 L1630.3344,223.7813 Q1630.3344,225.0156 1631.225,225.8438 Q1632.1156,226.6563 1633.7094,226.6563 Q1634.6469,226.6563 1635.3031,226.4063 Q1635.6938,226.25 1636.1156,225.8125 Q1636.3813,225.5469 1636.5219,225.4688 Q1636.6781,225.3906 1636.8813,225.3906 Q1637.2094,225.3906 1637.4594,225.6563 Q1637.725,225.9063 1637.725,226.25 Q1637.725,226.5938 1637.3813,227 Q1636.8813,227.5781 1636.0844,227.9063 Q1635.0063,228.3594 1633.7094,228.3594 Q1632.1938,228.3594 1630.9906,227.7344 Q1630.0063,227.2344 1629.3188,226.1719 Q1628.6313,225.0938 1628.6313,223.8125 L1628.6313,222.6563 Q1628.6313,221.3281 1629.2406,220.1875 Q1629.8656,219.0313 1630.9594,218.4219 Q1632.0531,217.7969 1633.2875,217.7969 Q1634.0219,217.7969 1634.6625,217.9688 Q1635.3188,218.125 1635.8656,218.4844 Z " fill="#000000"/><text fill="#000000" font-family="sans-serif" font-size="14" lengthAdjust="spacing" textLength="35.8066" x="1647.1" y="228.3379">Leper</text><line style="stroke:#181818;stroke-width:0.5;" x1="1619.1" x2="1684.9066" y1="238.6094" y2="238.6094"/><line style="stroke:#181818;stroke-width:0.5;" x1="1619.1" x2="1684.9066" y1="246.6094" y2="246.6094"/></g><!--class Centurion--><g class="entity" data-entity="Centurion" data-source-line="64" data-uid="ent0037" id="entity_Centurion"><rect fill="#F1F1F1" height="48" rx="2.5" ry="2.5" style="stroke:#181818;stroke-width:0.5;" width="92.7031" x="1720.65" y="206.6094"/><ellipse cx="1735.65" cy="222.6094" fill="#ADD1B2" rx="11" ry="11" style="stroke:#181818;stroke-width:1;"/><path d="M1738.4156,218.4844 Q1738.5719,218.2656 1738.7594,218.1563 Q1738.9469,218.0469 1739.1656,218.0469 Q1739.5406,218.0469 1739.775,218.3125 Q1740.0094,218.5625 1740.0094,219.1719 L1740.0094,220.625 Q1740.0094,221.2344 1739.775,221.5 Q1739.5406,221.7656 1739.1656,221.7656 Q1738.8219,221.7656 1738.6188,221.5625 Q1738.4156,221.375 1738.3063,220.8594 Q1738.2594,220.5 1738.0719,220.3125 Q1737.7438,219.9375 1737.1344,219.7188 Q1736.525,219.5 1735.9,219.5 Q1735.1344,219.5 1734.4938,219.8281 Q1733.8688,220.1563 1733.3688,220.9063 Q1732.8844,221.6563 1732.8844,222.6875 L1732.8844,223.7813 Q1732.8844,225.0156 1733.775,225.8438 Q1734.6656,226.6563 1736.2594,226.6563 Q1737.1969,226.6563 1737.8531,226.4063 Q1738.2438,226.25 1738.6656,225.8125 Q1738.9313,225.5469 1739.0719,225.4688 Q1739.2281,225.3906 1739.4313,225.3906 Q1739.7594,225.3906 1740.0094,225.6563 Q1740.275,225.9063 1740.275,226.25 Q1740.275,226.5938 1739.9313,227 Q1739.4313,227.5781 1738.6344,227.9063 Q1737.5563,228.3594 1736.2594,228.3594 Q1734.7438,228.3594 1733.5406,227.7344 Q1732.5563,227.2344 1731.8688,226.1719 Q1731.1813,225.0938 1731.1813,223.8125 L1731.1813,222.6563 Q1731.1813,221.3281 1731.7906,220.1875 Q1732.4156,219.0313 1733.5094,218.4219 Q1734.6031,217.7969 1735.8375,217.7969 Q1736.5719,217.7969 1737.2125,217.9688 Q1737.8688,218.125 1738.4156,218.4844 Z " fill="#000000"/><text fill="#000000" font-family="sans-serif" font-size="14" lengthAdjust="spacing" textLength="60.7031" x="1749.65" y="228.3379">Centurion</text><line style="stroke:#181818;stroke-width:0.5;" x1="1721.65" x2="1812.3531" y1="238.6094" y2="238.6094"/><line style="stroke:#181818;stroke-width:0.5;" x1="1721.65" x2="1812.3531" y1="246.6094" y2="246.6094"/></g><!--class Servant--><g class="entity" data-entity="Servant" data-source-line="65" data-uid="ent0038" id="entity_Servant"><rect fill="#F1F1F1" height="48" rx="2.5" ry="2.5" style="stroke:#181818;stroke-width:0.5;" width="154.5137" x="1788.74" y="334.6094"/><ellipse cx="1803.74" cy="350.6094" fill="#ADD1B2" rx="11" ry="11" style="stroke:#181818;stroke-width:1;"/><path d="M1806.5056,346.4844 Q1806.6619,346.2656 1806.8494,346.1563 Q1807.0369,346.0469 1807.2556,346.0469 Q1807.6306,346.0469 1807.865,346.3125 Q1808.0994,346.5625 1808.0994,347.1719 L1808.0994,348.625 Q1808.0994,349.2344 1807.865,349.5 Q1807.6306,349.7656 1807.2556,349.7656 Q1806.9119,349.7656 1806.7088,349.5625 Q1806.5056,349.375 1806.3963,348.8594 Q1806.3494,348.5 1806.1619,348.3125 Q1805.8338,347.9375 1805.2244,347.7188 Q1804.615,347.5 1803.99,347.5 Q1803.2244,347.5 1802.5838,347.8281 Q1801.9588,348.1563 1801.4588,348.9063 Q1800.9744,349.6563 1800.9744,350.6875 L1800.9744,351.7813 Q1800.9744,353.0156 1801.865,353.8438 Q1802.7556,354.6563 1804.3494,354.6563 Q1805.2869,354.6563 1805.9431,354.4063 Q1806.3338,354.25 1806.7556,353.8125 Q1807.0213,353.5469 1807.1619,353.4688 Q1807.3181,353.3906 1807.5213,353.3906 Q1807.8494,353.3906 1808.0994,353.6563 Q1808.365,353.9063 1808.365,354.25 Q1808.365,354.5938 1808.0213,355 Q1807.5213,355.5781 1806.7244,355.9063 Q1805.6463,356.3594 1804.3494,356.3594 Q1802.8338,356.3594 1801.6306,355.7344 Q1800.6463,355.2344 1799.9588,354.1719 Q1799.2713,353.0938 1799.2713,351.8125 L1799.2713,350.6563 Q1799.2713,349.3281 1799.8806,348.1875 Q1800.5056,347.0313 1801.5994,346.4219 Q1802.6931,345.7969 1803.9275,345.7969 Q1804.6619,345.7969 1805.3025,345.9688 Q1805.9588,346.125 1806.5056,346.4844 Z " fill="#000000"/><text fill="#000000" font-family="sans-serif" font-size="14" lengthAdjust="spacing" textLength="122.5137" x="1817.74" y="356.3379">Centurion's Servant</text><line style="stroke:#181818;stroke-width:0.5;" x1="1789.74" x2="1942.2537" y1="366.6094" y2="366.6094"/><line style="stroke:#181818;stroke-width:0.5;" x1="1789.74" x2="1942.2537" y1="374.6094" y2="374.6094"/></g><!--class Peter--><g class="entity" data-entity="Peter" data-source-line="66" data-uid="ent0039" id="entity_Peter"><rect fill="#F1F1F1" height="48" rx="2.5" ry="2.5" style="stroke:#181818;stroke-width:0.5;" width="65.4619" x="2030.27" y="206.6094"/><ellipse cx="2045.27" cy="222.6094" fill="#ADD1B2" rx="11" ry="11" style="stroke:#181818;stroke-width:1;"/><path d="M2048.0356,218.4844 Q2048.1919,218.2656 2048.3794,218.1563 Q2048.5669,218.0469 2048.7856,218.0469 Q2049.1606,218.0469 2049.395,218.3125 Q2049.6294,218.5625 2049.6294,219.1719 L2049.6294,220.625 Q2049.6294,221.2344 2049.395,221.5 Q2049.1606,221.7656 2048.7856,221.7656 Q2048.4419,221.7656 2048.2388,221.5625 Q2048.0356,221.375 2047.9263,220.8594 Q2047.8794,220.5 2047.6919,220.3125 Q2047.3638,219.9375 2046.7544,219.7188 Q2046.145,219.5 2045.52,219.5 Q2044.7544,219.5 2044.1138,219.8281 Q2043.4888,220.1563 2042.9888,220.9063 Q2042.5044,221.6563 2042.5044,222.6875 L2042.5044,223.7813 Q2042.5044,225.0156 2043.395,225.8438 Q2044.2856,226.6563 2045.8794,226.6563 Q2046.8169,226.6563 2047.4731,226.4063 Q2047.8638,226.25 2048.2856,225.8125 Q2048.5513,225.5469 2048.6919,225.4688 Q2048.8481,225.3906 2049.0513,225.3906 Q2049.3794,225.3906 2049.6294,225.6563 Q2049.895,225.9063 2049.895,226.25 Q2049.895,226.5938 2049.5513,227 Q2049.0513,227.5781 2048.2544,227.9063 Q2047.1763,228.3594 2045.8794,228.3594 Q2044.3638,228.3594 2043.1606,227.7344 Q2042.1763,227.2344 2041.4888,226.1719 Q2040.8013,225.0938 2040.8013,223.8125 L2040.8013,222.6563 Q2040.8013,221.3281 2041.4106,220.1875 Q2042.0356,219.0313 2043.1294,218.4219 Q2044.2231,217.7969 2045.4575,217.7969 Q2046.1919,217.7969 2046.8325,217.9688 Q2047.4888,218.125 2048.0356,218.4844 Z " fill="#000000"/><text fill="#000000" font-family="sans-serif" font-size="14" lengthAdjust="spacing" textLength="33.4619" x="2059.27" y="228.3379">Peter</text><line style="stroke:#181818;stroke-width:0.5;" x1="2031.27" x2="2094.7319" y1="238.6094" y2="238.6094"/><line style="stroke:#181818;stroke-width:0.5;" x1="2031.27" x2="2094.7319" y1="246.6094" y2="246.6094"/></g><!--class MotherInLaw--><g class="entity" data-entity="MotherInLaw" data-source-line="67" data-uid="ent0040" id="entity_MotherInLaw"><rect fill="#F1F1F1" height="48" rx="2.5" ry="2.5" style="stroke:#181818;stroke-width:0.5;" width="163.8242" x="2029.09" y="334.6094"/><ellipse cx="2044.09" cy="350.6094" fill="#ADD1B2" rx="11" ry="11" style="stroke:#181818;stroke-width:1;"/><path d="M2046.8556,346.4844 Q2047.0119,346.2656 2047.1994,346.1563 Q2047.3869,346.0469 2047.6056,346.0469 Q2047.9806,346.0469 2048.215,346.3125 Q2048.4494,346.5625 2048.4494,347.1719 L2048.4494,348.625 Q2048.4494,349.2344 2048.215,349.5 Q2047.9806,349.7656 2047.6056,349.7656 Q2047.2619,349.7656 2047.0588,349.5625 Q2046.8556,349.375 2046.7463,348.8594 Q2046.6994,348.5 2046.5119,348.3125 Q2046.1838,347.9375 2045.5744,347.7188 Q2044.965,347.5 2044.34,347.5 Q2043.5744,347.5 2042.9338,347.8281 Q2042.3088,348.1563 2041.8088,348.9063 Q2041.3244,349.6563 2041.3244,350.6875 L2041.3244,351.7813 Q2041.3244,353.0156 2042.215,353.8438 Q2043.1056,354.6563 2044.6994,354.6563 Q2045.6369,354.6563 2046.2931,354.4063 Q2046.6838,354.25 2047.1056,353.8125 Q2047.3713,353.5469 2047.5119,353.4688 Q2047.6681,353.3906 2047.8713,353.3906 Q2048.1994,353.3906 2048.4494,353.6563 Q2048.715,353.9063 2048.715,354.25 Q2048.715,354.5938 2048.3713,355 Q2047.8713,355.5781 2047.0744,355.9063 Q2045.9963,356.3594 2044.6994,356.3594 Q2043.1838,356.3594 2041.9806,355.7344 Q2040.9963,355.2344 2040.3088,354.1719 Q2039.6213,353.0938 2039.6213,351.8125 L2039.6213,350.6563 Q2039.6213,349.3281 2040.2306,348.1875 Q2040.8556,347.0313 2041.9494,346.4219 Q2043.0431,345.7969 2044.2775,345.7969 Q2045.0119,345.7969 2045.6525,345.9688 Q2046.3088,346.125 2046.8556,346.4844 Z " fill="#000000"/><text fill="#000000" font-family="sans-serif" font-size="14" lengthAdjust="spacing" textLength="131.8242" x="2058.09" y="356.3379">Peter's Mother-in-law</text><line style="stroke:#181818;stroke-width:0.5;" x1="2030.09" x2="2191.9142" y1="366.6094" y2="366.6094"/><line style="stroke:#181818;stroke-width:0.5;" x1="2030.09" x2="2191.9142" y1="374.6094" y2="374.6094"/></g><!--class Scribe--><g class="entity" data-entity="Scribe" data-source-line="68" data-uid="ent0041" id="entity_Scribe"><rect fill="#F1F1F1" height="48" rx="2.5" ry="2.5" style="stroke:#181818;stroke-width:0.5;" width="136.2754" x="2267.86" y="206.6094"/><ellipse cx="2282.86" cy="222.6094" fill="#ADD1B2" rx="11" ry="11" style="stroke:#181818;stroke-width:1;"/><path d="M2285.6256,218.4844 Q2285.7819,218.2656 2285.9694,218.1563 Q2286.1569,218.0469 2286.3756,218.0469 Q2286.7506,218.0469 2286.985,218.3125 Q2287.2194,218.5625 2287.2194,219.1719 L2287.2194,220.625 Q2287.2194,221.2344 2286.985,221.5 Q2286.7506,221.7656 2286.3756,221.7656 Q2286.0319,221.7656 2285.8288,221.5625 Q2285.6256,221.375 2285.5163,220.8594 Q2285.4694,220.5 2285.2819,220.3125 Q2284.9538,219.9375 2284.3444,219.7188 Q2283.735,219.5 2283.11,219.5 Q2282.3444,219.5 2281.7038,219.8281 Q2281.0788,220.1563 2280.5788,220.9063 Q2280.0944,221.6563 2280.0944,222.6875 L2280.0944,223.7813 Q2280.0944,225.0156 2280.985,225.8438 Q2281.8756,226.6563 2283.4694,226.6563 Q2284.4069,226.6563 2285.0631,226.4063 Q2285.4538,226.25 2285.8756,225.8125 Q2286.1413,225.5469 2286.2819,225.4688 Q2286.4381,225.3906 2286.6413,225.3906 Q2286.9694,225.3906 2287.2194,225.6563 Q2287.485,225.9063 2287.485,226.25 Q2287.485,226.5938 2287.1413,227 Q2286.6413,227.5781 2285.8444,227.9063 Q2284.7663,228.3594 2283.4694,228.3594 Q2281.9538,228.3594 2280.7506,227.7344 Q2279.7663,227.2344 2279.0788,226.1719 Q2278.3913,225.0938 2278.3913,223.8125 L2278.3913,222.6563 Q2278.3913,221.3281 2279.0006,220.1875 Q2279.6256,219.0313 2280.7194,218.4219 Q2281.8131,217.7969 2283.0475,217.7969 Q2283.7819,217.7969 2284.4225,217.9688 Q2285.0788,218.125 2285.6256,218.4844 Z " fill="#000000"/><text fill="#000000" font-family="sans-serif" font-size="14" lengthAdjust="spacing" textLength="104.2754" x="2296.86" y="228.3379">Unnamed Scribe</text><line style="stroke:#181818;stroke-width:0.5;" x1="2268.86" x2="2403.1354" y1="238.6094" y2="238.6094"/><line style="stroke:#181818;stroke-width:0.5;" x1="2268.86" x2="2403.1354" y1="246.6094" y2="246.6094"/></g><!--class Disciple--><g class="entity" data-entity="Disciple" data-source-line="69" data-uid="ent0042" id="entity_Disciple"><rect fill="#F1F1F1" height="48" rx="2.5" ry="2.5" style="stroke:#181818;stroke-width:0.5;" width="145.6064" x="2439.2" y="206.6094"/><ellipse cx="2454.2" cy="222.6094" fill="#ADD1B2" rx="11" ry="11" style="stroke:#181818;stroke-width:1;"/><path d="M2456.9656,218.4844 Q2457.1219,218.2656 2457.3094,218.1563 Q2457.4969,218.0469 2457.7156,218.0469 Q2458.0906,218.0469 2458.325,218.3125 Q2458.5594,218.5625 2458.5594,219.1719 L2458.5594,220.625 Q2458.5594,221.2344 2458.325,221.5 Q2458.0906,221.7656 2457.7156,221.7656 Q2457.3719,221.7656 2457.1688,221.5625 Q2456.9656,221.375 2456.8563,220.8594 Q2456.8094,220.5 2456.6219,220.3125 Q2456.2938,219.9375 2455.6844,219.7188 Q2455.075,219.5 2454.45,219.5 Q2453.6844,219.5 2453.0438,219.8281 Q2452.4188,220.1563 2451.9188,220.9063 Q2451.4344,221.6563 2451.4344,222.6875 L2451.4344,223.7813 Q2451.4344,225.0156 2452.325,225.8438 Q2453.2156,226.6563 2454.8094,226.6563 Q2455.7469,226.6563 2456.4031,226.4063 Q2456.7938,226.25 2457.2156,225.8125 Q2457.4813,225.5469 2457.6219,225.4688 Q2457.7781,225.3906 2457.9813,225.3906 Q2458.3094,225.3906 2458.5594,225.6563 Q2458.825,225.9063 2458.825,226.25 Q2458.825,226.5938 2458.4813,227 Q2457.9813,227.5781 2457.1844,227.9063 Q2456.1063,228.3594 2454.8094,228.3594 Q2453.2938,228.3594 2452.0906,227.7344 Q2451.1063,227.2344 2450.4188,226.1719 Q2449.7313,225.0938 2449.7313,223.8125 L2449.7313,222.6563 Q2449.7313,221.3281 2450.3406,220.1875 Q2450.9656,219.0313 2452.0594,218.4219 Q2453.1531,217.7969 2454.3875,217.7969 Q2455.1219,217.7969 2455.7625,217.9688 Q2456.4188,218.125 2456.9656,218.4844 Z " fill="#000000"/><text fill="#000000" font-family="sans-serif" font-size="14" lengthAdjust="spacing" textLength="113.6064" x="2468.2" y="228.3379">Unnamed Disciple</text><line style="stroke:#181818;stroke-width:0.5;" x1="2440.2" x2="2583.8064" y1="238.6094" y2="238.6094"/><line style="stroke:#181818;stroke-width:0.5;" x1="2440.2" x2="2583.8064" y1="246.6094" y2="246.6094"/></g><!--class Disciples--><g class="entity" data-entity="Disciples" data-source-line="70" data-uid="ent0043" id="entity_Disciples"><rect fill="#F1F1F1" height="48" rx="2.5" ry="2.5" style="stroke:#181818;stroke-width:0.5;" width="88.0137" x="2619.99" y="206.6094"/><ellipse cx="2634.99" cy="222.6094" fill="#ADD1B2" rx="11" ry="11" style="stroke:#181818;stroke-width:1;"/><path d="M2637.7556,218.4844 Q2637.9119,218.2656 2638.0994,218.1563 Q2638.2869,218.0469 2638.5056,218.0469 Q2638.8806,218.0469 2639.115,218.3125 Q2639.3494,218.5625 2639.3494,219.1719 L2639.3494,220.625 Q2639.3494,221.2344 2639.115,221.5 Q2638.8806,221.7656 2638.5056,221.7656 Q2638.1619,221.7656 2637.9588,221.5625 Q2637.7556,221.375 2637.6463,220.8594 Q2637.5994,220.5 2637.4119,220.3125 Q2637.0838,219.9375 2636.4744,219.7188 Q2635.865,219.5 2635.24,219.5 Q2634.4744,219.5 2633.8338,219.8281 Q2633.2088,220.1563 2632.7088,220.9063 Q2632.2244,221.6563 2632.2244,222.6875 L2632.2244,223.7813 Q2632.2244,225.0156 2633.115,225.8438 Q2634.0056,226.6563 2635.5994,226.6563 Q2636.5369,226.6563 2637.1931,226.4063 Q2637.5838,226.25 2638.0056,225.8125 Q2638.2713,225.5469 2638.4119,225.4688 Q2638.5681,225.3906 2638.7713,225.3906 Q2639.0994,225.3906 2639.3494,225.6563 Q2639.615,225.9063 2639.615,226.25 Q2639.615,226.5938 2639.2713,227 Q2638.7713,227.5781 2637.9744,227.9063 Q2636.8963,228.3594 2635.5994,228.3594 Q2634.0838,228.3594 2632.8806,227.7344 Q2631.8963,227.2344 2631.2088,226.1719 Q2630.5213,225.0938 2630.5213,223.8125 L2630.5213,222.6563 Q2630.5213,221.3281 2631.1306,220.1875 Q2631.7556,219.0313 2632.8494,218.4219 Q2633.9431,217.7969 2635.1775,217.7969 Q2635.9119,217.7969 2636.5525,217.9688 Q2637.2088,218.125 2637.7556,218.4844 Z " fill="#000000"/><text fill="#000000" font-family="sans-serif" font-size="14" lengthAdjust="spacing" textLength="56.0137" x="2648.99" y="228.3379">Disciples</text><line style="stroke:#181818;stroke-width:0.5;" x1="2620.99" x2="2707.0037" y1="238.6094" y2="238.6094"/><line style="stroke:#181818;stroke-width:0.5;" x1="2620.99" x2="2707.0037" y1="246.6094" y2="246.6094"/></g><!--class Demoniacs--><g class="entity" data-entity="Demoniacs" data-source-line="71" data-uid="ent0044" id="entity_Demoniacs"><rect fill="#F1F1F1" height="48" rx="2.5" ry="2.5" style="stroke:#181818;stroke-width:0.5;" width="168.1787" x="2742.91" y="206.6094"/><ellipse cx="2757.91" cy="222.6094" fill="#ADD1B2" rx="11" ry="11" style="stroke:#181818;stroke-width:1;"/><path d="M2760.6756,218.4844 Q2760.8319,218.2656 2761.0194,218.1563 Q2761.2069,218.0469 2761.4256,218.0469 Q2761.8006,218.0469 2762.035,218.3125 Q2762.2694,218.5625 2762.2694,219.1719 L2762.2694,220.625 Q2762.2694,221.2344 2762.035,221.5 Q2761.8006,221.7656 2761.4256,221.7656 Q2761.0819,221.7656 2760.8788,221.5625 Q2760.6756,221.375 2760.5663,220.8594 Q2760.5194,220.5 2760.3319,220.3125 Q2760.0038,219.9375 2759.3944,219.7188 Q2758.785,219.5 2758.16,219.5 Q2757.3944,219.5 2756.7538,219.8281 Q2756.1288,220.1563 2755.6288,220.9063 Q2755.1444,221.6563 2755.1444,222.6875 L2755.1444,223.7813 Q2755.1444,225.0156 2756.035,225.8438 Q2756.9256,226.6563 2758.5194,226.6563 Q2759.4569,226.6563 2760.1131,226.4063 Q2760.5038,226.25 2760.9256,225.8125 Q2761.1913,225.5469 2761.3319,225.4688 Q2761.4881,225.3906 2761.6913,225.3906 Q2762.0194,225.3906 2762.2694,225.6563 Q2762.535,225.9063 2762.535,226.25 Q2762.535,226.5938 2762.1913,227 Q2761.6913,227.5781 2760.8944,227.9063 Q2759.8163,228.3594 2758.5194,228.3594 Q2757.0038,228.3594 2755.8006,227.7344 Q2754.8163,227.2344 2754.1288,226.1719 Q2753.4413,225.0938 2753.4413,223.8125 L2753.4413,222.6563 Q2753.4413,221.3281 2754.0506,220.1875 Q2754.6756,219.0313 2755.7694,218.4219 Q2756.8631,217.7969 2758.0975,217.7969 Q2758.8319,217.7969 2759.4725,217.9688 Q2760.1288,218.125 2760.6756,218.4844 Z " fill="#000000"/><text fill="#000000" font-family="sans-serif" font-size="14" lengthAdjust="spacing" textLength="136.1787" x="2771.91" y="228.3379">Demoniacs of Gadara</text><line style="stroke:#181818;stroke-width:0.5;" x1="2743.91" x2="2910.0887" y1="238.6094" y2="238.6094"/><line style="stroke:#181818;stroke-width:0.5;" x1="2743.91" x2="2910.0887" y1="246.6094" y2="246.6094"/></g><!--class Demons--><g class="entity" data-entity="Demons" data-source-line="72" data-uid="ent0045" id="entity_Demons"><rect fill="#F1F1F1" height="48" rx="2.5" ry="2.5" style="stroke:#181818;stroke-width:0.5;" width="84.1309" x="2710.93" y="334.6094"/><ellipse cx="2725.93" cy="350.6094" fill="#ADD1B2" rx="11" ry="11" style="stroke:#181818;stroke-width:1;"/><path d="M2728.6956,346.4844 Q2728.8519,346.2656 2729.0394,346.1563 Q2729.2269,346.0469 2729.4456,346.0469 Q2729.8206,346.0469 2730.055,346.3125 Q2730.2894,346.5625 2730.2894,347.1719 L2730.2894,348.625 Q2730.2894,349.2344 2730.055,349.5 Q2729.8206,349.7656 2729.4456,349.7656 Q2729.1019,349.7656 2728.8988,349.5625 Q2728.6956,349.375 2728.5863,348.8594 Q2728.5394,348.5 2728.3519,348.3125 Q2728.0238,347.9375 2727.4144,347.7188 Q2726.805,347.5 2726.18,347.5 Q2725.4144,347.5 2724.7738,347.8281 Q2724.1488,348.1563 2723.6488,348.9063 Q2723.1644,349.6563 2723.1644,350.6875 L2723.1644,351.7813 Q2723.1644,353.0156 2724.055,353.8438 Q2724.9456,354.6563 2726.5394,354.6563 Q2727.4769,354.6563 2728.1331,354.4063 Q2728.5238,354.25 2728.9456,353.8125 Q2729.2113,353.5469 2729.3519,353.4688 Q2729.5081,353.3906 2729.7113,353.3906 Q2730.0394,353.3906 2730.2894,353.6563 Q2730.555,353.9063 2730.555,354.25 Q2730.555,354.5938 2730.2113,355 Q2729.7113,355.5781 2728.9144,355.9063 Q2727.8363,356.3594 2726.5394,356.3594 Q2725.0238,356.3594 2723.8206,355.7344 Q2722.8363,355.2344 2722.1488,354.1719 Q2721.4613,353.0938 2721.4613,351.8125 L2721.4613,350.6563 Q2721.4613,349.3281 2722.0706,348.1875 Q2722.6956,347.0313 2723.7894,346.4219 Q2724.8831,345.7969 2726.1175,345.7969 Q2726.8519,345.7969 2727.4925,345.9688 Q2728.1488,346.125 2728.6956,346.4844 Z " fill="#000000"/><text fill="#000000" font-family="sans-serif" font-size="14" lengthAdjust="spacing" textLength="52.1309" x="2739.93" y="356.3379">Demons</text><line style="stroke:#181818;stroke-width:0.5;" x1="2711.93" x2="2794.0609" y1="366.6094" y2="366.6094"/><line style="stroke:#181818;stroke-width:0.5;" x1="2711.93" x2="2794.0609" y1="374.6094" y2="374.6094"/></g><!--class Swine--><g class="entity" data-entity="Swine" data-source-line="73" data-uid="ent0046" id="entity_Swine"><rect fill="#F1F1F1" height="48" rx="2.5" ry="2.5" style="stroke:#181818;stroke-width:0.5;" width="119.9307" x="2689.03" y="460.6094"/><ellipse cx="2704.03" cy="476.6094" fill="#ADD1B2" rx="11" ry="11" style="stroke:#181818;stroke-width:1;"/><path d="M2706.7956,472.4844 Q2706.9519,472.2656 2707.1394,472.1563 Q2707.3269,472.0469 2707.5456,472.0469 Q2707.9206,472.0469 2708.155,472.3125 Q2708.3894,472.5625 2708.3894,473.1719 L2708.3894,474.625 Q2708.3894,475.2344 2708.155,475.5 Q2707.9206,475.7656 2707.5456,475.7656 Q2707.2019,475.7656 2706.9988,475.5625 Q2706.7956,475.375 2706.6863,474.8594 Q2706.6394,474.5 2706.4519,474.3125 Q2706.1238,473.9375 2705.5144,473.7188 Q2704.905,473.5 2704.28,473.5 Q2703.5144,473.5 2702.8738,473.8281 Q2702.2488,474.1563 2701.7488,474.9063 Q2701.2644,475.6563 2701.2644,476.6875 L2701.2644,477.7813 Q2701.2644,479.0156 2702.155,479.8438 Q2703.0456,480.6563 2704.6394,480.6563 Q2705.5769,480.6563 2706.2331,480.4063 Q2706.6238,480.25 2707.0456,479.8125 Q2707.3113,479.5469 2707.4519,479.4688 Q2707.6081,479.3906 2707.8113,479.3906 Q2708.1394,479.3906 2708.3894,479.6563 Q2708.655,479.9063 2708.655,480.25 Q2708.655,480.5938 2708.3113,481 Q2707.8113,481.5781 2707.0144,481.9063 Q2705.9363,482.3594 2704.6394,482.3594 Q2703.1238,482.3594 2701.9206,481.7344 Q2700.9363,481.2344 2700.2488,480.1719 Q2699.5613,479.0938 2699.5613,477.8125 L2699.5613,476.6563 Q2699.5613,475.3281 2700.1706,474.1875 Q2700.7956,473.0313 2701.8894,472.4219 Q2702.9831,471.7969 2704.2175,471.7969 Q2704.9519,471.7969 2705.5925,471.9688 Q2706.2488,472.125 2706.7956,472.4844 Z " fill="#000000"/><text fill="#000000" font-family="sans-serif" font-size="14" lengthAdjust="spacing" textLength="87.9307" x="2718.03" y="482.3379">Herd of Swine</text><line style="stroke:#181818;stroke-width:0.5;" x1="2690.03" x2="2807.9607" y1="492.6094" y2="492.6094"/><line style="stroke:#181818;stroke-width:0.5;" x1="2690.03" x2="2807.9607" y1="500.6094" y2="500.6094"/></g><!--class Herdsmen--><g class="entity" data-entity="Herdsmen" data-source-line="74" data-uid="ent0047" id="entity_Herdsmen"><rect fill="#F1F1F1" height="48" rx="2.5" ry="2.5" style="stroke:#181818;stroke-width:0.5;" width="96.5791" x="2702.71" y="588.6094"/><ellipse cx="2717.71" cy="604.6094" fill="#ADD1B2" rx="11" ry="11" style="stroke:#181818;stroke-width:1;"/><path d="M2720.4756,600.4844 Q2720.6319,600.2656 2720.8194,600.1563 Q2721.0069,600.0469 2721.2256,600.0469 Q2721.6006,600.0469 2721.835,600.3125 Q2722.0694,600.5625 2722.0694,601.1719 L2722.0694,602.625 Q2722.0694,603.2344 2721.835,603.5 Q2721.6006,603.7656 2721.2256,603.7656 Q2720.8819,603.7656 2720.6788,603.5625 Q2720.4756,603.375 2720.3663,602.8594 Q2720.3194,602.5 2720.1319,602.3125 Q2719.8038,601.9375 2719.1944,601.7188 Q2718.585,601.5 2717.96,601.5 Q2717.1944,601.5 2716.5538,601.8281 Q2715.9288,602.1563 2715.4288,602.9063 Q2714.9444,603.6563 2714.9444,604.6875 L2714.9444,605.7813 Q2714.9444,607.0156 2715.835,607.8438 Q2716.7256,608.6563 2718.3194,608.6563 Q2719.2569,608.6563 2719.9131,608.4063 Q2720.3038,608.25 2720.7256,607.8125 Q2720.9913,607.5469 2721.1319,607.4688 Q2721.2881,607.3906 2721.4913,607.3906 Q2721.8194,607.3906 2722.0694,607.6563 Q2722.335,607.9063 2722.335,608.25 Q2722.335,608.5938 2721.9913,609 Q2721.4913,609.5781 2720.6944,609.9063 Q2719.6163,610.3594 2718.3194,610.3594 Q2716.8038,610.3594 2715.6006,609.7344 Q2714.6163,609.2344 2713.9288,608.1719 Q2713.2413,607.0938 2713.2413,605.8125 L2713.2413,604.6563 Q2713.2413,603.3281 2713.8506,602.1875 Q2714.4756,601.0313 2715.5694,600.4219 Q2716.6631,599.7969 2717.8975,599.7969 Q2718.6319,599.7969 2719.2725,599.9688 Q2719.9288,600.125 2720.4756,600.4844 Z " fill="#000000"/><text fill="#000000" font-family="sans-serif" font-size="14" lengthAdjust="spacing" textLength="64.5791" x="2731.71" y="610.3379">Herdsmen</text><line style="stroke:#181818;stroke-width:0.5;" x1="2703.71" x2="2798.2891" y1="620.6094" y2="620.6094"/><line style="stroke:#181818;stroke-width:0.5;" x1="2703.71" x2="2798.2891" y1="628.6094" y2="628.6094"/></g><!--class CityPeople--><g class="entity" data-entity="CityPeople" data-source-line="75" data-uid="ent0048" id="entity_CityPeople"><rect fill="#F1F1F1" height="48" rx="2.5" ry="2.5" style="stroke:#181818;stroke-width:0.5;" width="141.7441" x="2728.13" y="716.6094"/><ellipse cx="2743.13" cy="732.6094" fill="#ADD1B2" rx="11" ry="11" style="stroke:#181818;stroke-width:1;"/><path d="M2745.8956,728.4844 Q2746.0519,728.2656 2746.2394,728.1563 Q2746.4269,728.0469 2746.6456,728.0469 Q2747.0206,728.0469 2747.255,728.3125 Q2747.4894,728.5625 2747.4894,729.1719 L2747.4894,730.625 Q2747.4894,731.2344 2747.255,731.5 Q2747.0206,731.7656 2746.6456,731.7656 Q2746.3019,731.7656 2746.0988,731.5625 Q2745.8956,731.375 2745.7863,730.8594 Q2745.7394,730.5 2745.5519,730.3125 Q2745.2238,729.9375 2744.6144,729.7188 Q2744.005,729.5 2743.38,729.5 Q2742.6144,729.5 2741.9738,729.8281 Q2741.3488,730.1563 2740.8488,730.9063 Q2740.3644,731.6563 2740.3644,732.6875 L2740.3644,733.7813 Q2740.3644,735.0156 2741.255,735.8438 Q2742.1456,736.6563 2743.7394,736.6563 Q2744.6769,736.6563 2745.3331,736.4063 Q2745.7238,736.25 2746.1456,735.8125 Q2746.4113,735.5469 2746.5519,735.4688 Q2746.7081,735.3906 2746.9113,735.3906 Q2747.2394,735.3906 2747.4894,735.6563 Q2747.755,735.9063 2747.755,736.25 Q2747.755,736.5938 2747.4113,737 Q2746.9113,737.5781 2746.1144,737.9063 Q2745.0363,738.3594 2743.7394,738.3594 Q2742.2238,738.3594 2741.0206,737.7344 Q2740.0363,737.2344 2739.3488,736.1719 Q2738.6613,735.0938 2738.6613,733.8125 L2738.6613,732.6563 Q2738.6613,731.3281 2739.2706,730.1875 Q2739.8956,729.0313 2740.9894,728.4219 Q2742.0831,727.7969 2743.3175,727.7969 Q2744.0519,727.7969 2744.6925,727.9688 Q2745.3488,728.125 2745.8956,728.4844 Z " fill="#000000"/><text fill="#000000" font-family="sans-serif" font-size="14" lengthAdjust="spacing" textLength="109.7441" x="2757.13" y="738.3379">People of Gadara</text><line style="stroke:#181818;stroke-width:0.5;" x1="2729.13" x2="2868.8741" y1="748.6094" y2="748.6094"/><line style="stroke:#181818;stroke-width:0.5;" x1="2729.13" x2="2868.8741" y1="756.6094" y2="756.6094"/></g><!--link Genealogy of Jesus (Ch 1) to Birth of Jesus (Ch 1)--><g class="link" data-entity-1="Genealogy of Jesus .Ch 1." data-entity-2="Birth of Jesus .Ch 1." data-source-line="13" data-uid="lnk8" id="link_Genealogy of Jesus .Ch 1._Birth of Jesus .Ch 1."><path codeLine="13" d="M754,128.9294 C754,151.0994 754,178.2594 754,200.3894" fill="none" id="Genealogy of Jesus (Ch 1)-to-Birth of Jesus (Ch 1)" style="stroke:#181818;stroke-width:1;"/><polygon fill="#181818" points="754,206.3894,758,197.3894,754,201.3894,750,197.3894,754,206.3894" style="stroke:#181818;stroke-width:1;"/></g><!--link Birth of Jesus (Ch 1) to Visit of the Magi (Ch 2)--><g class="link" data-entity-1="Birth of Jesus .Ch 1." data-entity-2="Visit of the Magi .Ch 2." data-source-line="14" data-uid="lnk9" id="link_Birth of Jesus .Ch 1._Visit of the Magi .Ch 2."><path codeLine="14" d="M754,255.0094 C754,277.6494 754,305.7394 754,328.3294" fill="none" id="Birth of Jesus (Ch 1)-to-Visit of the Magi (Ch 2)" style="stroke:#181818;stroke-width:1;"/><polygon fill="#181818" points="754,334.3294,758,325.3294,754,329.3294,750,325.3294,754,334.3294" style="stroke:#181818;stroke-width:1;"/></g><!--link Visit of the Magi (Ch 2) to Flight to Egypt (Ch 2)--><g class="link" data-entity-1="Visit of the Magi .Ch 2." data-entity-2="Flight to Egypt .Ch 2." data-source-line="15" data-uid="lnk10" id="link_Visit of the Magi .Ch 2._Flight to Egypt .Ch 2."><path codeLine="15" d="M754,382.9294 C754,405.0994 754,432.2594 754,454.3894" fill="none" id="Visit of the Magi (Ch 2)-to-Flight to Egypt (Ch 2)" style="stroke:#181818;stroke-width:1;"/><polygon fill="#181818" points="754,460.3894,758,451.3894,754,455.3894,750,451.3894,754,460.3894" style="stroke:#181818;stroke-width:1;"/></g><!--link Flight to Egypt (Ch 2) to Return to Nazareth (Ch 2)--><g class="link" data-entity-1="Flight to Egypt .Ch 2." data-entity-2="Return to Nazareth .Ch 2." data-source-line="16" data-uid="lnk11" id="link_Flight to Egypt .Ch 2._Return to Nazareth .Ch 2."><path codeLine="16" d="M754,509.0094 C754,531.6494 754,559.7394 754,582.3294" fill="none" id="Flight to Egypt (Ch 2)-to-Return to Nazareth (Ch 2)" style="stroke:#181818;stroke-width:1;"/><polygon fill="#181818" points="754,588.3294,758,579.3294,754,583.3294,750,579.3294,754,588.3294" style="stroke:#181818;stroke-width:1;"/></g><!--link John the Baptist Prepares the Way (Ch 3) to Baptism of Jesus (Ch 3)--><g class="link" data-entity-1="John the Baptist Prepares the Way .Ch 3." data-entity-2="Baptism of Jesus .Ch 3." data-source-line="28" data-uid="lnk17" id="link_John the Baptist Prepares the Way .Ch 3._Baptism of Jesus .Ch 3."><path codeLine="28" d="M1056,128.9294 C1056,151.0994 1056,178.2594 1056,200.3894" fill="none" id="John the Baptist Prepares the Way (Ch 3)-to-Baptism of Jesus (Ch 3)" style="stroke:#181818;stroke-width:1;"/><polygon fill="#181818" points="1056,206.3894,1060,197.3894,1056,201.3894,1052,197.3894,1056,206.3894" style="stroke:#181818;stroke-width:1;"/></g><!--link Baptism of Jesus (Ch 3) to Temptation in the Desert (Ch 4)--><g class="link" data-entity-1="Baptism of Jesus .Ch 3." data-entity-2="Temptation in the Desert .Ch 4." data-source-line="29" data-uid="lnk18" id="link_Baptism of Jesus .Ch 3._Temptation in the Desert .Ch 4."><path codeLine="29" d="M1056,255.0094 C1056,277.6494 1056,305.7394 1056,328.3294" fill="none" id="Baptism of Jesus (Ch 3)-to-Temptation in the Desert (Ch 4)" style="stroke:#181818;stroke-width:1;"/><polygon fill="#181818" points="1056,334.3294,1060,325.3294,1056,329.3294,1052,325.3294,1056,334.3294" style="stroke:#181818;stroke-width:1;"/></g><!--link Temptation in the Desert (Ch 4) to Start of Public Ministry in Galilee (Ch 4)--><g class="link" data-entity-1="Temptation in the Desert .Ch 4." data-entity-2="Start of Public Ministry in Galilee .Ch 4." data-source-line="30" data-uid="lnk19" id="link_Temptation in the Desert .Ch 4._Start of Public Ministry in Galilee .Ch 4."><path codeLine="30" d="M1056,382.9294 C1056,405.0994 1056,432.2594 1056,454.3894" fill="none" id="Temptation in the Desert (Ch 4)-to-Start of Public Ministry in Galilee (Ch 4)" style="stroke:#181818;stroke-width:1;"/><polygon fill="#181818" points="1056,460.3894,1060,451.3894,1056,455.3894,1052,451.3894,1056,460.3894" style="stroke:#181818;stroke-width:1;"/></g><!--link Healing the Leper (8:1-4) to Healing the Centurion's Servant (8:5-13)--><g class="link" data-entity-1="Healing the Leper .8.1-4." data-entity-2="Healing the Centurion.s Servant .8.5-13." data-source-line="53" data-uid="lnk30" id="link_Healing the Leper .8.1-4._Healing the Centurion.s Servant .8.5-13."><path codeLine="53" d="M1410,128.9294 C1410,151.0994 1410,178.2594 1410,200.3894" fill="none" id="Healing the Leper (8:1-4)-to-Healing the Centurion's Servant (8:5-13)" style="stroke:#181818;stroke-width:1;"/><polygon fill="#181818" points="1410,206.3894,1414,197.3894,1410,201.3894,1406,197.3894,1410,206.3894" style="stroke:#181818;stroke-width:1;"/></g><!--link Healing the Centurion's Servant (8:5-13) to Healing Peter's Mother-in-law (8:14-17)--><g class="link" data-entity-1="Healing the Centurion.s Servant .8.5-13." data-entity-2="Healing Peter.s Mother-in-law .8.14-17." data-source-line="54" data-uid="lnk31" id="link_Healing the Centurion.s Servant .8.5-13._Healing Peter.s Mother-in-law .8.14-17."><path codeLine="54" d="M1410,255.0094 C1410,277.6494 1410,305.7394 1410,328.3294" fill="none" id="Healing the Centurion's Servant (8:5-13)-to-Healing Peter's Mother-in-law (8:14-17)" style="stroke:#181818;stroke-width:1;"/><polygon fill="#181818" points="1410,334.3294,1414,325.3294,1410,329.3294,1406,325.3294,1410,334.3294" style="stroke:#181818;stroke-width:1;"/></g><!--link Healing Peter's Mother-in-law (8:14-17) to Calming the Storm (8:23-27)--><g class="link" data-entity-1="Healing Peter.s Mother-in-law .8.14-17." data-entity-2="Calming the Storm .8.23-27." data-source-line="55" data-uid="lnk32" id="link_Healing Peter.s Mother-in-law .8.14-17._Calming the Storm .8.23-27."><path codeLine="55" d="M1410,382.9294 C1410,405.0994 1410,432.2594 1410,454.3894" fill="none" id="Healing Peter's Mother-in-law (8:14-17)-to-Calming the Storm (8:23-27)" style="stroke:#181818;stroke-width:1;"/><polygon fill="#181818" points="1410,460.3894,1414,451.3894,1410,455.3894,1406,451.3894,1410,460.3894" style="stroke:#181818;stroke-width:1;"/></g><!--link Calming the Storm (8:23-27) to Healing the Gadarene Demoniacs (8:28-34)--><g class="link" data-entity-1="Calming the Storm .8.23-27." data-entity-2="Healing the Gadarene Demoniacs .8.28-34." data-source-line="56" data-uid="lnk33" id="link_Calming the Storm .8.23-27._Healing the Gadarene Demoniacs .8.28-34."><path codeLine="56" d="M1410,509.0094 C1410,531.6494 1410,559.7394 1410,582.3294" fill="none" id="Calming the Storm (8:23-27)-to-Healing the Gadarene Demoniacs (8:28-34)" style="stroke:#181818;stroke-width:1;"/><polygon fill="#181818" points="1410,588.3294,1414,579.3294,1410,583.3294,1406,579.3294,1410,588.3294" style="stroke:#181818;stroke-width:1;"/></g><!--link Jesus to Leper--><g class="link" data-entity-1="Jesus" data-entity-2="Leper" data-source-line="78" data-uid="lnk49" id="link_Jesus_Leper"><path codeLine="78" d="M2164.42,106.5494 C2068.7,109.6094 1802.18,121.3494 1724,158.6094 C1701.5,169.3394 1685.568,185.332 1672.488,201.612" fill="none" id="Jesus-to-Leper" style="stroke:#181818;stroke-width:1;"/><polygon fill="#181818" points="1668.73,206.2894,1677.4852,201.7787,1671.8616,202.3916,1671.2487,196.768,1668.73,206.2894" style="stroke:#181818;stroke-width:1;"/><text fill="#000000" font-family="sans-serif" font-size="13" lengthAdjust="spacing" textLength="33.2363" x="1725" y="173.1045">Heals</text></g><!--link Jesus to Centurion--><g class="link" data-entity-1="Jesus" data-entity-2="Centurion" data-source-line="79" data-uid="lnk50" id="link_Jesus_Centurion"><path codeLine="79" d="M2164.31,104.8494 C2073.61,103.6194 1832.61,105.5294 1778,158.6094 C1765.57,170.6894 1763.1565,184.5939 1763.7665,200.2539" fill="none" id="Jesus-to-Centurion" style="stroke:#181818;stroke-width:1;"/><polygon fill="#181818" points="1764,206.2494,1767.6467,197.1005,1763.8054,201.2532,1759.6527,197.4119,1764,206.2494" style="stroke:#181818;stroke-width:1;"/><text fill="#000000" font-family="sans-serif" font-size="13" lengthAdjust="spacing" textLength="94.6499" x="1779" y="173.1045">Commends faith</text></g><!--link Centurion to Servant--><g class="link" data-entity-1="Centurion" data-entity-2="Servant" data-source-line="80" data-uid="lnk51" id="link_Centurion_Servant"><path codeLine="80" d="M1782.78,255.0894 C1792.78,269.6294 1806.21,288.5394 1819,304.6094 C1826.96,314.6194 1832.1965,320.7794 1840.3765,329.8694" fill="none" id="Centurion-to-Servant" style="stroke:#181818;stroke-width:1;"/><polygon fill="#181818" points="1844.39,334.3294,1841.3431,324.9637,1841.0454,330.6127,1835.3964,330.315,1844.39,334.3294" style="stroke:#181818;stroke-width:1;"/><text fill="#000000" font-family="sans-serif" font-size="13" lengthAdjust="spacing" textLength="53.46" x="1820" y="301.1045">Cares for</text></g><!--link Jesus to Servant--><g class="link" data-entity-1="Jesus" data-entity-2="Servant" data-source-line="81" data-uid="lnk52" id="link_Jesus_Servant"><path codeLine="81" d="M2164.67,106.8794 C2102.45,111.1094 1971.04,129.2694 1901,206.6094 C1900.46,207.2094 1882.3777,286.0004 1872.7077,328.2804" fill="none" id="Jesus-to-Servant" style="stroke:#181818;stroke-width:1;"/><polygon fill="#181818" points="1871.37,334.1294,1877.2759,326.2477,1872.4848,329.2552,1869.4773,324.4641,1871.37,334.1294" style="stroke:#181818;stroke-width:1;"/><text fill="#000000" font-family="sans-serif" font-size="13" lengthAdjust="spacing" textLength="110.5635" x="1902" y="236.1045">Heals at a distance</text></g><!--link Jesus to Peter--><g class="link" data-entity-1="Jesus" data-entity-2="Peter" data-source-line="82" data-uid="lnk53" id="link_Jesus_Peter"><path codeLine="82" d="M2164.48,109.8994 C2134.42,115.5894 2092.26,128.6894 2070,158.6094 C2059.95,172.1294 2058.2252,185.3311 2059.1652,200.3511" fill="none" id="Jesus-to-Peter" style="stroke:#181818;stroke-width:1;"/><polygon fill="#181818" points="2059.54,206.3394,2062.97,197.1071,2059.2277,201.3491,2054.9857,197.6068,2059.54,206.3394" style="stroke:#181818;stroke-width:1;"/><text fill="#000000" font-family="sans-serif" font-size="13" lengthAdjust="spacing" textLength="85.998" x="2071" y="173.1045">Stays at house</text></g><!--link Peter to MotherInLaw--><g class="link" data-entity-1="Peter" data-entity-2="MotherInLaw" data-source-line="83" data-uid="lnk54" id="link_Peter_MotherInLaw"><path codeLine="83" d="M2071.92,255.0094 C2080.54,277.6494 2091.3953,306.132 2099.9953,328.722" fill="none" id="Peter-to-MotherInLaw" style="stroke:#181818;stroke-width:1;"/><polygon fill="#181818" points="2102.13,334.3294,2102.6662,324.4951,2100.3511,329.6565,2095.1896,327.3414,2102.13,334.3294" style="stroke:#181818;stroke-width:1;"/><text fill="#000000" font-family="sans-serif" font-size="13" lengthAdjust="spacing" textLength="38.2764" x="2090.87" y="301.1045">Family</text></g><!--link Jesus to MotherInLaw--><g class="link" data-entity-1="Jesus" data-entity-2="MotherInLaw" data-source-line="84" data-uid="lnk55" id="link_Jesus_MotherInLaw"><path codeLine="84" d="M2193.23,129.0394 C2183.65,166.7194 2163,242.7994 2138,304.6094 C2133.97,314.5694 2131.548,319.8664 2126.778,328.9564" fill="none" id="Jesus-to-MotherInLaw" style="stroke:#181818;stroke-width:1;"/><polygon fill="#181818" points="2123.99,334.2694,2131.7139,328.1586,2126.3133,329.8419,2124.63,324.4413,2123.99,334.2694" style="stroke:#181818;stroke-width:1;"/><text fill="#000000" font-family="sans-serif" font-size="13" lengthAdjust="spacing" textLength="65.749" x="2172.01" y="236.1045">Heals fever</text></g><!--link Jesus to Scribe--><g class="link" data-entity-1="Jesus" data-entity-2="Scribe" data-source-line="85" data-uid="lnk56" id="link_Jesus_Scribe"><path codeLine="85" d="M2214.46,128.9394 C2224.87,143.6194 2239.48,162.4094 2255,176.6094 C2266.9,187.4994 2276.2063,194.4608 2289.5163,202.9208" fill="none" id="Jesus-to-Scribe" style="stroke:#181818;stroke-width:1;"/><polygon fill="#181818" points="2294.58,206.1394,2289.1302,197.9358,2290.3603,203.4573,2284.8388,204.6874,2294.58,206.1394" style="stroke:#181818;stroke-width:1;"/><text fill="#000000" font-family="sans-serif" font-size="13" lengthAdjust="spacing" textLength="162.5825" x="2256" y="173.1045">Teaches cost of discipleship</text></g><!--link Jesus to Disciple--><g class="link" data-entity-1="Jesus" data-entity-2="Disciple" data-source-line="86" data-uid="lnk57" id="link_Jesus_Disciple"><path codeLine="86" d="M2233.59,109.0294 C2279,114.5594 2360.29,128.0994 2423,158.6094 C2447.71,170.6294 2467.424,186.4459 2484.304,202.1259" fill="none" id="Jesus-to-Disciple" style="stroke:#181818;stroke-width:1;"/><polygon fill="#181818" points="2488.7,206.2094,2484.8283,197.1534,2485.0367,202.8065,2479.3836,203.0148,2488.7,206.2094" style="stroke:#181818;stroke-width:1;"/><text fill="#000000" font-family="sans-serif" font-size="13" lengthAdjust="spacing" textLength="80.1963" x="2453.3" y="173.1045">Calls to follow</text></g><!--link Jesus to Disciples--><g class="link" data-entity-1="Jesus" data-entity-2="Disciples" data-source-line="87" data-uid="lnk58" id="link_Jesus_Disciples"><path codeLine="87" d="M2233.62,106.7194 C2296.69,109.6594 2433.79,120.3094 2542,158.6094 C2574.34,170.0594 2602.8213,186.8708 2626.4913,202.7908" fill="none" id="Jesus-to-Disciples" style="stroke:#181818;stroke-width:1;"/><polygon fill="#181818" points="2631.47,206.1394,2626.2344,197.7974,2627.3211,203.3489,2621.7696,204.4356,2631.47,206.1394" style="stroke:#181818;stroke-width:1;"/><text fill="#000000" font-family="sans-serif" font-size="13" lengthAdjust="spacing" textLength="97.5635" x="2581.86" y="173.1045">Leads &amp; rebukes</text></g><!--link Jesus to Demoniacs--><g class="link" data-entity-1="Jesus" data-entity-2="Demoniacs" data-source-line="88" data-uid="lnk59" id="link_Jesus_Demoniacs"><path codeLine="88" d="M2233.63,105.0994 C2314.84,104.8194 2523.12,109.3894 2688,158.6094 C2724.61,169.5394 2757.9029,186.9028 2785.0629,203.0528" fill="none" id="Jesus-to-Demoniacs" style="stroke:#181818;stroke-width:1;"/><polygon fill="#181818" points="2790.22,206.1194,2784.5287,198.0814,2785.9224,203.5639,2780.4399,204.9576,2790.22,206.1194" style="stroke:#181818;stroke-width:1;"/><text fill="#000000" font-family="sans-serif" font-size="13" lengthAdjust="spacing" textLength="108.3799" x="2732.91" y="173.1045">Drives out demons</text></g><!--link Demoniacs to Demons--><g class="link" data-entity-1="Demoniacs" data-entity-2="Demons" data-source-line="89" data-uid="lnk60" id="link_Demoniacs_Demons"><path codeLine="89" d="M2813.25,255.0094 C2799.96,277.6494 2782.979,306.5659 2769.709,329.1559" fill="none" id="Demoniacs-to-Demons" style="stroke:#181818;stroke-width:1;"/><polygon fill="#181818" points="2766.67,334.3294,2774.6775,328.5952,2769.2025,330.0182,2767.7796,324.5432,2766.67,334.3294" style="stroke:#181818;stroke-width:1;"/><text fill="#000000" font-family="sans-serif" font-size="13" lengthAdjust="spacing" textLength="80.9326" x="2795.43" y="301.1045">Possessed by</text></g><!--link Demons to Swine--><g class="link" data-entity-1="Demons" data-entity-2="Swine" data-source-line="90" data-uid="lnk61" id="link_Demons_Swine"><path codeLine="90" d="M2747.62,382.9594 C2745.76,392.1494 2743.92,402.8194 2743,412.6094 C2741.51,428.4994 2742.2393,440.4544 2744.1293,454.3144" fill="none" id="Demons-to-Swine" style="stroke:#181818;stroke-width:1;"/><polygon fill="#181818" points="2744.94,460.2594,2747.6873,450.8015,2744.2644,455.3052,2739.7607,451.8824,2744.94,460.2594" style="stroke:#181818;stroke-width:1;"/><text fill="#000000" font-family="sans-serif" font-size="13" lengthAdjust="spacing" textLength="60.7026" x="2744" y="427.1045">Enter herd</text></g><!--link Swine to Herdsmen--><g class="link" data-entity-1="Swine" data-entity-2="Herdsmen" data-source-line="91" data-uid="lnk62" id="link_Swine_Herdsmen"><path codeLine="91" d="M2749.37,509.0094 C2749.73,531.6494 2750.1744,559.7401 2750.5344,582.3301" fill="none" id="Swine-to-Herdsmen" style="stroke:#181818;stroke-width:1;"/><polygon fill="#181818" points="2750.63,588.3294,2754.4861,579.2668,2750.5503,583.33,2746.4871,579.3943,2750.63,588.3294" style="stroke:#181818;stroke-width:1;"/><text fill="#000000" font-family="sans-serif" font-size="13" lengthAdjust="spacing" textLength="64.3081" x="2751.12" y="555.1045">Cause loss</text></g><!--link Herdsmen to CityPeople--><g class="link" data-entity-1="Herdsmen" data-entity-2="CityPeople" data-source-line="92" data-uid="lnk63" id="link_Herdsmen_CityPeople"><path codeLine="92" d="M2747.71,637.0894 C2746.58,651.8094 2746.89,670.8994 2753,686.6094 C2757.24,697.5094 2760.7142,703.2678 2768.4742,711.7278" fill="none" id="Herdsmen-to-CityPeople" style="stroke:#181818;stroke-width:1;"/><polygon fill="#181818" points="2772.53,716.1494,2769.3941,706.8131,2769.1502,712.4647,2763.4986,712.2208,2772.53,716.1494" style="stroke:#181818;stroke-width:1;"/><text fill="#000000" font-family="sans-serif" font-size="13" lengthAdjust="spacing" textLength="84.5254" x="2754" y="683.1045">Report miracle</text></g><!--link CityPeople to Jesus--><g class="link" data-entity-1="CityPeople" data-entity-2="Jesus" data-source-line="93" data-uid="lnk64" id="link_CityPeople_Jesus"><path codeLine="93" d="M2822.53,716.2894 C2830.1,707.6094 2837.85,697.2694 2843,686.6094 C3060.95,235.7794 2987.57,310.7394 2929,206.6094 C2908.86,170.7994 2889.08,171.2794 2850,158.6094 C2733.64,120.8694 2357.0283,109.2409 2239.5883,106.4709" fill="none" id="CityPeople-to-Jesus" style="stroke:#181818;stroke-width:1;"/><polygon fill="#181818" points="2233.59,106.3294,2242.4932,110.5405,2238.5886,106.4473,2242.6818,102.5427,2233.59,106.3294" style="stroke:#181818;stroke-width:1;"/><text fill="#000000" font-family="sans-serif" font-size="13" lengthAdjust="spacing" textLength="98.9917" x="2965.5" y="427.1045">Beg Him to leave</text></g><!--SRC=[bPPTJ-iu48Rl-HLMLmAEH2xQmbBrOgMb1pY7FQmgokvUkycqiN3YodP0EQlzxpipRhvAKmhYeiayCvwFrtQyyXh4e_G-XJSnZ2OY4lUGWzHcNLw8MsbrAHvLhfot-2ppHFm1fVYU9-fL9ONKxkJaJ4JzVsXTGEoLoSLmseGMf-96MPz-uBoHyOjSWnYySnJdJTAZBmFnYrRhr9UWjNaJ_vu84MlfNDlHhCG3kCA9yragXby63HC2zjl_LavvikDwsAkrOcJKHkvuUU6Dk5sN6_yUU09Vs9o0F-LFQO4gs3887KWJ-_DRNug2N7jCxDQRENlsMzcvfoPsxREnuu5Q_pjUBgEfc5lOI2lvSMLiBSHZLTFdtuXd75tMubdg0jhIUJ1fpgsvaHkFVjjqmF7BVsJ9LOqxIc8owqwZGpn3jl4X8nMYVmK7DdJmiaqklBGydNcnr2fkaaU_UwcL1gYTQ2H7fxjLL7-glRRWUKG97p8XqcTA_8HonbFn339ELRvsU9ujm6RureGy7asH-sC5L8UPxelIoEWgkgvbjBO0ULj7Du2Dy4M2apYj4wi2_P1lNE9LU_HpAqkm5-9EEe_iXNYs1GwKkc8Indzjumz5iiu0ypab45kjNAms6bogDanVVwv_brESX9Mnven_BtnghF8bjhAgTt9i0_V6gTisgPksKVbBksVVy3IaBd6BO0DMd4-cmwYpGThC3CilB2P_vcXIhvAcCvbUHSFnFfSvUB28FXfqjf7A8qrpm2Kke-5rssCcTLOjil36PaIDnj7ekY-LUvdWhij9yIWO9MF7BfDel9NnWUB2jZYwC77o2ROJ-gC6j29_Y7BWGtt2O0VDxue-tCAZTNmrtVrOeIqqI_5qmvuVhU7T6AVY2JIVRRJ1t8wStrBbkzS8dQ038TtsB6r_gJGKwu0f_jKIO3LKDjPFUu1cwenkVxTE5Heac_ZNZc5tmWo6DzzpFAKQ_AyybnaaOX5RjOIm5lzyZrGd4KFLGuFL1rN7xbf0FN-y95WLCg3L-ntKDLRNtfqseG2BDvLlywLVNS3X2Sgswg7T7uDfxQGmmvCi6EZsFUjg0j-4OPEqmnQV1ecxGSTM3u_iCvFXkeaJAwbyIc1Z9hZQquJonOxVDDrmBO8N4z8BAHAyL6KUGvVbgHE9jt39P6eAnr0m4TGI0A5tCbEwxCRPGSAwAtY5tTnO8uJm7OZfnyRnxP-qxgkkJoM9KBB6mFXHkJAqTVQ3ZiWV81FQfXQMnGliTBoH599VhNf57rDuaGJz8DiGDS_mt3W7-9-8PLbpszf8JyJSvjGvx4T2H7XDG2MgK0YsMMYCHanjOJdKeYBm2JO6lu-oS8Uo7XexuQ6gANrYhCKtbL5tDCXNe7lcVm00]--></g></svg>