<svg xmlns="http://www.w3.org/2000/svg" xmlns:xlink="http://www.w3.org/1999/xlink" contentStyleType="text/css" data-diagram-type="CLASS" height="1191px" preserveAspectRatio="none" style="width:263px;height:1191px;background:#FFFFFF;" version="1.1" viewBox="0 0 263 1191" width="263px" zoomAndPan="magnify"><title>Matthew 6 - Structure of Teachings</title><defs/><g><g class="title" data-source-line="1"><text fill="#000000" font-family="sans-serif" font-size="14" font-weight="bold" lengthAdjust="spacing" textLength="232.5859" x="10" y="24.5332">Matthew 6 - Structure of Teachings</text></g><!--cluster Matthew 6--><g class="cluster" data-entity="Matthew 6" data-source-line="3" data-uid="ent0002" id="cluster_Matthew 6"><path d="M11.293,44.6094 L79.9688,44.6094 A3.75,3.75 0 0 1 82.4688,47.1094 L89.4688,68.2188 L254.293,68.2188 A2.5,2.5 0 0 1 256.793,70.7188 L256.793,1181.9994 A2.5,2.5 0 0 1 254.293,1184.4994 L11.293,1184.4994 A2.5,2.5 0 0 1 8.793,1181.9994 L8.793,47.1094 A2.5,2.5 0 0 1 11.293,44.6094" fill="none" style="stroke:#000000;stroke-width:1.5;"/><line style="stroke:#000000;stroke-width:1.5;" x1="8.793" x2="89.4688" y1="68.2188" y2="68.2188"/><text fill="#000000" font-family="sans-serif" font-size="14" font-weight="bold" lengthAdjust="spacing" textLength="67.6758" x="12.793" y="61.1426">Matthew 6</text></g><!--class Almsgiving--><g class="entity" data-entity="Almsgiving" data-source-line="5" data-uid="ent0003" id="entity_Almsgiving"><rect fill="#F1F1F1" height="96.4375" rx="2.5" ry="2.5" style="stroke:#181818;stroke-width:0.5;" width="162.9443" x="51.323" y="80.6094"/><ellipse cx="94.7877" cy="103.2188" fill="#ADD1B2" rx="11" ry="11" style="stroke:#181818;stroke-width:1;"/><path d="M97.5533,99.0938 Q97.7095,98.875 97.897,98.7656 Q98.0845,98.6563 98.3033,98.6563 Q98.6783,98.6563 98.9127,98.9219 Q99.147,99.1719 99.147,99.7813 L99.147,101.2344 Q99.147,101.8438 98.9127,102.1094 Q98.6783,102.375 98.3033,102.375 Q97.9595,102.375 97.7564,102.1719 Q97.5533,101.9844 97.4439,101.4688 Q97.397,101.1094 97.2095,100.9219 Q96.8814,100.5469 96.272,100.3281 Q95.6627,100.1094 95.0377,100.1094 Q94.272,100.1094 93.6314,100.4375 Q93.0064,100.7656 92.5064,101.5156 Q92.022,102.2656 92.022,103.2969 L92.022,104.3906 Q92.022,105.625 92.9127,106.4531 Q93.8033,107.2656 95.397,107.2656 Q96.3345,107.2656 96.9908,107.0156 Q97.3814,106.8594 97.8033,106.4219 Q98.0689,106.1563 98.2095,106.0781 Q98.3658,106 98.5689,106 Q98.897,106 99.147,106.2656 Q99.4127,106.5156 99.4127,106.8594 Q99.4127,107.2031 99.0689,107.6094 Q98.5689,108.1875 97.772,108.5156 Q96.6939,108.9688 95.397,108.9688 Q93.8814,108.9688 92.6783,108.3438 Q91.6939,107.8438 91.0064,106.7813 Q90.3189,105.7031 90.3189,104.4219 L90.3189,103.2656 Q90.3189,101.9375 90.9283,100.7969 Q91.5533,99.6406 92.647,99.0313 Q93.7408,98.4063 94.9752,98.4063 Q95.7095,98.4063 96.3502,98.5781 Q97.0064,98.7344 97.5533,99.0938 Z " fill="#000000"/><text fill="#000000" font-family="sans-serif" font-size="14" lengthAdjust="spacing" textLength="67.6895" x="115.1132" y="100.1426">Almsgiving</text><text fill="#000000" font-family="sans-serif" font-size="14" lengthAdjust="spacing" textLength="41.2344" x="128.3407" y="117.752">(6:1-4)</text><line style="stroke:#181818;stroke-width:0.5;" x1="52.323" x2="213.2673" y1="125.8281" y2="125.8281"/><rect fill="none" height="6" style="stroke:#C82930;stroke-width:1;" width="6" x="59.323" y="137.1328"/><text fill="#000000" font-family="sans-serif" font-size="14" lengthAdjust="spacing" textLength="80.9307" x="71.323" y="144.3613">Secret giving</text><rect fill="none" height="6" style="stroke:#C82930;stroke-width:1;" width="6" x="59.323" y="154.7422"/><text fill="#000000" font-family="sans-serif" font-size="14" lengthAdjust="spacing" textLength="136.9443" x="71.323" y="161.9707">God rewards in secret</text><line style="stroke:#181818;stroke-width:0.5;" x1="52.323" x2="213.2673" y1="169.0469" y2="169.0469"/></g><!--class Prayer--><g class="entity" data-entity="Prayer" data-source-line="10" data-uid="ent0004" id="entity_Prayer"><rect fill="#F1F1F1" height="131.6563" rx="2.5" ry="2.5" style="stroke:#181818;stroke-width:0.5;" width="161.4063" x="52.093" y="237.0494"/><ellipse cx="104.0358" cy="259.6588" fill="#ADD1B2" rx="11" ry="11" style="stroke:#181818;stroke-width:1;"/><path d="M106.8015,255.5338 Q106.9577,255.315 107.1452,255.2056 Q107.3327,255.0963 107.5515,255.0963 Q107.9265,255.0963 108.1608,255.3619 Q108.3952,255.6119 108.3952,256.2213 L108.3952,257.6744 Q108.3952,258.2838 108.1608,258.5494 Q107.9265,258.815 107.5515,258.815 Q107.2077,258.815 107.0046,258.6119 Q106.8015,258.4244 106.6921,257.9088 Q106.6452,257.5494 106.4577,257.3619 Q106.1296,256.9869 105.5202,256.7681 Q104.9108,256.5494 104.2858,256.5494 Q103.5202,256.5494 102.8796,256.8775 Q102.2546,257.2056 101.7546,257.9556 Q101.2702,258.7056 101.2702,259.7369 L101.2702,260.8306 Q101.2702,262.065 102.1608,262.8931 Q103.0515,263.7056 104.6452,263.7056 Q105.5827,263.7056 106.239,263.4556 Q106.6296,263.2994 107.0515,262.8619 Q107.3171,262.5963 107.4577,262.5181 Q107.614,262.44 107.8171,262.44 Q108.1452,262.44 108.3952,262.7056 Q108.6608,262.9556 108.6608,263.2994 Q108.6608,263.6431 108.3171,264.0494 Q107.8171,264.6275 107.0202,264.9556 Q105.9421,265.4088 104.6452,265.4088 Q103.1296,265.4088 101.9265,264.7838 Q100.9421,264.2838 100.2546,263.2213 Q99.5671,262.1431 99.5671,260.8619 L99.5671,259.7056 Q99.5671,258.3775 100.1765,257.2369 Q100.8015,256.0806 101.8952,255.4713 Q102.989,254.8463 104.2233,254.8463 Q104.9577,254.8463 105.5983,255.0181 Q106.2546,255.1744 106.8015,255.5338 Z " fill="#000000"/><text fill="#000000" font-family="sans-serif" font-size="14" lengthAdjust="spacing" textLength="41.2344" x="128.4289" y="256.5826">Prayer</text><text fill="#000000" font-family="sans-serif" font-size="14" lengthAdjust="spacing" textLength="49.0205" x="124.5358" y="274.192">(6:5-15)</text><line style="stroke:#181818;stroke-width:0.5;" x1="53.093" x2="212.4992" y1="282.2681" y2="282.2681"/><rect fill="none" height="6" style="stroke:#C82930;stroke-width:1;" width="6" x="60.093" y="293.5728"/><text fill="#000000" font-family="sans-serif" font-size="14" lengthAdjust="spacing" textLength="98.041" x="72.093" y="300.8013">Avoid hypocrisy</text><rect fill="none" height="6" style="stroke:#C82930;stroke-width:1;" width="6" x="60.093" y="311.1822"/><text fill="#000000" font-family="sans-serif" font-size="14" lengthAdjust="spacing" textLength="85.5859" x="72.093" y="318.4107">Pray in secret</text><rect fill="none" height="6" style="stroke:#C82930;stroke-width:1;" width="6" x="60.093" y="328.7916"/><text fill="#000000" font-family="sans-serif" font-size="14" lengthAdjust="spacing" textLength="82.8174" x="72.093" y="336.0201">Lord's Prayer</text><rect fill="none" height="6" style="stroke:#C82930;stroke-width:1;" width="6" x="60.093" y="346.4009"/><text fill="#000000" font-family="sans-serif" font-size="14" lengthAdjust="spacing" textLength="135.4063" x="72.093" y="353.6295">Forgive to be forgiven</text><line style="stroke:#181818;stroke-width:0.5;" x1="53.093" x2="212.4992" y1="360.7056" y2="360.7056"/></g><!--class Fasting--><g class="entity" data-entity="Fasting" data-source-line="17" data-uid="ent0005" id="entity_Fasting"><rect fill="#F1F1F1" height="114.0469" rx="2.5" ry="2.5" style="stroke:#181818;stroke-width:0.5;" width="180.8818" x="42.353" y="428.6994"/><ellipse cx="100.1406" cy="451.3088" fill="#ADD1B2" rx="11" ry="11" style="stroke:#181818;stroke-width:1;"/><path d="M102.9062,447.1838 Q103.0624,446.965 103.2499,446.8556 Q103.4374,446.7463 103.6562,446.7463 Q104.0312,446.7463 104.2656,447.0119 Q104.4999,447.2619 104.4999,447.8713 L104.4999,449.3244 Q104.4999,449.9338 104.2656,450.1994 Q104.0312,450.465 103.6562,450.465 Q103.3124,450.465 103.1093,450.2619 Q102.9062,450.0744 102.7968,449.5588 Q102.7499,449.1994 102.5624,449.0119 Q102.2343,448.6369 101.6249,448.4181 Q101.0156,448.1994 100.3906,448.1994 Q99.6249,448.1994 98.9843,448.5275 Q98.3593,448.8556 97.8593,449.6056 Q97.3749,450.3556 97.3749,451.3869 L97.3749,452.4806 Q97.3749,453.715 98.2656,454.5431 Q99.1562,455.3556 100.7499,455.3556 Q101.6874,455.3556 102.3437,455.1056 Q102.7343,454.9494 103.1562,454.5119 Q103.4218,454.2463 103.5624,454.1681 Q103.7187,454.09 103.9218,454.09 Q104.2499,454.09 104.4999,454.3556 Q104.7656,454.6056 104.7656,454.9494 Q104.7656,455.2931 104.4218,455.6994 Q103.9218,456.2775 103.1249,456.6056 Q102.0468,457.0588 100.7499,457.0588 Q99.2343,457.0588 98.0312,456.4338 Q97.0468,455.9338 96.3593,454.8713 Q95.6718,453.7931 95.6718,452.5119 L95.6718,451.3556 Q95.6718,450.0275 96.2812,448.8869 Q96.9062,447.7306 97.9999,447.1213 Q99.0937,446.4963 100.3281,446.4963 Q101.0624,446.4963 101.7031,446.6681 Q102.3593,446.8244 102.9062,447.1838 Z " fill="#000000"/><text fill="#000000" font-family="sans-serif" font-size="14" lengthAdjust="spacing" textLength="45.9102" x="126.0888" y="448.2326">Fasting</text><text fill="#000000" font-family="sans-serif" font-size="14" lengthAdjust="spacing" textLength="56.8066" x="120.6406" y="465.842">(6:16-18)</text><line style="stroke:#181818;stroke-width:0.5;" x1="43.353" x2="222.2348" y1="473.9181" y2="473.9181"/><rect fill="none" height="6" style="stroke:#C82930;stroke-width:1;" width="6" x="50.353" y="485.2228"/><text fill="#000000" font-family="sans-serif" font-size="14" lengthAdjust="spacing" textLength="114.3926" x="62.353" y="492.4513">Avoid gloomy face</text><rect fill="none" height="6" style="stroke:#C82930;stroke-width:1;" width="6" x="50.353" y="502.8322"/><text fill="#000000" font-family="sans-serif" font-size="14" lengthAdjust="spacing" textLength="154.8818" x="62.353" y="510.0607">Anoint head &amp; wash face</text><rect fill="none" height="6" style="stroke:#C82930;stroke-width:1;" width="6" x="50.353" y="520.4416"/><text fill="#000000" font-family="sans-serif" font-size="14" lengthAdjust="spacing" textLength="147.834" x="62.353" y="527.6701">Reward from the Father</text><line style="stroke:#181818;stroke-width:0.5;" x1="43.353" x2="222.2348" y1="534.7463" y2="534.7463"/></g><!--class Treasures--><g class="entity" data-entity="Treasures" data-source-line="23" data-uid="ent0006" id="entity_Treasures"><rect fill="#F1F1F1" height="96.4375" rx="2.5" ry="2.5" style="stroke:#181818;stroke-width:0.5;" width="186.3164" x="39.633" y="602.7494"/><ellipse cx="67.7014" cy="625.3588" fill="#ADD1B2" rx="11" ry="11" style="stroke:#181818;stroke-width:1;"/><path d="M70.4671,621.2338 Q70.6233,621.015 70.8108,620.9056 Q70.9983,620.7963 71.2171,620.7963 Q71.5921,620.7963 71.8264,621.0619 Q72.0608,621.3119 72.0608,621.9213 L72.0608,623.3744 Q72.0608,623.9838 71.8264,624.2494 Q71.5921,624.515 71.2171,624.515 Q70.8733,624.515 70.6702,624.3119 Q70.4671,624.1244 70.3577,623.6088 Q70.3108,623.2494 70.1233,623.0619 Q69.7952,622.6869 69.1858,622.4681 Q68.5764,622.2494 67.9514,622.2494 Q67.1858,622.2494 66.5452,622.5775 Q65.9202,622.9056 65.4202,623.6556 Q64.9358,624.4056 64.9358,625.4369 L64.9358,626.5306 Q64.9358,627.765 65.8264,628.5931 Q66.7171,629.4056 68.3108,629.4056 Q69.2483,629.4056 69.9046,629.1556 Q70.2952,628.9994 70.7171,628.5619 Q70.9827,628.2963 71.1233,628.2181 Q71.2796,628.14 71.4827,628.14 Q71.8108,628.14 72.0608,628.4056 Q72.3264,628.6556 72.3264,628.9994 Q72.3264,629.3431 71.9827,629.7494 Q71.4827,630.3275 70.6858,630.6556 Q69.6077,631.1088 68.3108,631.1088 Q66.7952,631.1088 65.5921,630.4838 Q64.6077,629.9838 63.9202,628.9213 Q63.2327,627.8431 63.2327,626.5619 L63.2327,625.4056 Q63.2327,624.0775 63.8421,622.9369 Q64.4671,621.7806 65.5608,621.1713 Q66.6546,620.5463 67.8889,620.5463 Q68.6233,620.5463 69.2639,620.7181 Q69.9202,620.8744 70.4671,621.2338 Z " fill="#000000"/><text fill="#000000" font-family="sans-serif" font-size="14" lengthAdjust="spacing" textLength="125.2754" x="84.6055" y="622.2826">Heavenly Treasures</text><text fill="#000000" font-family="sans-serif" font-size="14" lengthAdjust="spacing" textLength="56.8066" x="118.8399" y="639.892">(6:19-21)</text><line style="stroke:#181818;stroke-width:0.5;" x1="40.633" x2="224.9494" y1="647.9681" y2="647.9681"/><rect fill="none" height="6" style="stroke:#C82930;stroke-width:1;" width="6" x="47.633" y="659.2728"/><text fill="#000000" font-family="sans-serif" font-size="14" lengthAdjust="spacing" textLength="160.3164" x="59.633" y="666.5013">Store treasures in heaven</text><rect fill="none" height="6" style="stroke:#C82930;stroke-width:1;" width="6" x="47.633" y="676.8822"/><text fill="#000000" font-family="sans-serif" font-size="14" lengthAdjust="spacing" textLength="136.165" x="59.633" y="684.1107">Heart follows treasure</text><line style="stroke:#181818;stroke-width:0.5;" x1="40.633" x2="224.9494" y1="691.1869" y2="691.1869"/></g><!--class Eye--><g class="entity" data-entity="Eye" data-source-line="28" data-uid="ent0007" id="entity_Eye"><rect fill="#F1F1F1" height="96.4375" rx="2.5" ry="2.5" style="stroke:#181818;stroke-width:0.5;" width="150.9131" x="57.333" y="759.1894"/><ellipse cx="95.0206" cy="781.7988" fill="#ADD1B2" rx="11" ry="11" style="stroke:#181818;stroke-width:1;"/><path d="M97.7862,777.6738 Q97.9425,777.455 98.13,777.3456 Q98.3175,777.2363 98.5362,777.2363 Q98.9112,777.2363 99.1456,777.5019 Q99.38,777.7519 99.38,778.3613 L99.38,779.8144 Q99.38,780.4238 99.1456,780.6894 Q98.9112,780.955 98.5362,780.955 Q98.1925,780.955 97.9894,780.7519 Q97.7862,780.5644 97.6769,780.0488 Q97.63,779.6894 97.4425,779.5019 Q97.1144,779.1269 96.505,778.9081 Q95.8956,778.6894 95.2706,778.6894 Q94.505,778.6894 93.8644,779.0175 Q93.2394,779.3456 92.7394,780.0956 Q92.255,780.8456 92.255,781.8769 L92.255,782.9706 Q92.255,784.205 93.1456,785.0331 Q94.0362,785.8456 95.63,785.8456 Q96.5675,785.8456 97.2237,785.5956 Q97.6144,785.4394 98.0362,785.0019 Q98.3019,784.7363 98.4425,784.6581 Q98.5987,784.58 98.8019,784.58 Q99.13,784.58 99.38,784.8456 Q99.6456,785.0956 99.6456,785.4394 Q99.6456,785.7831 99.3019,786.1894 Q98.8019,786.7675 98.005,787.0956 Q96.9269,787.5488 95.63,787.5488 Q94.1144,787.5488 92.9112,786.9238 Q91.9269,786.4238 91.2394,785.3613 Q90.5519,784.2831 90.5519,783.0019 L90.5519,781.8456 Q90.5519,780.5175 91.1612,779.3769 Q91.7862,778.2206 92.88,777.6113 Q93.9737,776.9863 95.2081,776.9863 Q95.9425,776.9863 96.5831,777.1581 Q97.2394,777.3144 97.7862,777.6738 Z " fill="#000000"/><text fill="#000000" font-family="sans-serif" font-size="14" lengthAdjust="spacing" textLength="68.4961" x="114.0623" y="778.7226">Sound Eye</text><text fill="#000000" font-family="sans-serif" font-size="14" lengthAdjust="spacing" textLength="56.8066" x="119.907" y="796.332">(6:22-23)</text><line style="stroke:#181818;stroke-width:0.5;" x1="58.333" x2="207.2461" y1="804.4081" y2="804.4081"/><rect fill="none" height="6" style="stroke:#C82930;stroke-width:1;" width="6" x="65.333" y="815.7128"/><text fill="#000000" font-family="sans-serif" font-size="14" lengthAdjust="spacing" textLength="124.9131" x="77.333" y="822.9413">Eye = Lamp of body</text><rect fill="none" height="6" style="stroke:#C82930;stroke-width:1;" width="6" x="65.333" y="833.3222"/><text fill="#000000" font-family="sans-serif" font-size="14" lengthAdjust="spacing" textLength="108.9443" x="77.333" y="840.5507">Light vs darkness</text><line style="stroke:#181818;stroke-width:0.5;" x1="58.333" x2="207.2461" y1="847.6269" y2="847.6269"/></g><!--class Masters--><g class="entity" data-entity="Masters" data-source-line="33" data-uid="ent0008" id="entity_Masters"><rect fill="#F1F1F1" height="78.8281" rx="2.5" ry="2.5" style="stroke:#181818;stroke-width:0.5;" width="215.082" x="25.253" y="915.6294"/><ellipse cx="88.482" cy="938.2388" fill="#ADD1B2" rx="11" ry="11" style="stroke:#181818;stroke-width:1;"/><path d="M91.2476,934.1138 Q91.4038,933.895 91.5913,933.7856 Q91.7788,933.6763 91.9976,933.6763 Q92.3726,933.6763 92.607,933.9419 Q92.8413,934.1919 92.8413,934.8013 L92.8413,936.2544 Q92.8413,936.8638 92.607,937.1294 Q92.3726,937.395 91.9976,937.395 Q91.6538,937.395 91.4507,937.1919 Q91.2476,937.0044 91.1382,936.4888 Q91.0913,936.1294 90.9038,935.9419 Q90.5757,935.5669 89.9663,935.3481 Q89.357,935.1294 88.732,935.1294 Q87.9663,935.1294 87.3257,935.4575 Q86.7007,935.7856 86.2007,936.5356 Q85.7163,937.2856 85.7163,938.3169 L85.7163,939.4106 Q85.7163,940.645 86.607,941.4731 Q87.4976,942.2856 89.0913,942.2856 Q90.0288,942.2856 90.6851,942.0356 Q91.0757,941.8794 91.4976,941.4419 Q91.7632,941.1763 91.9038,941.0981 Q92.0601,941.02 92.2632,941.02 Q92.5913,941.02 92.8413,941.2856 Q93.107,941.5356 93.107,941.8794 Q93.107,942.2231 92.7632,942.6294 Q92.2632,943.2075 91.4663,943.5356 Q90.3882,943.9888 89.0913,943.9888 Q87.5757,943.9888 86.3726,943.3638 Q85.3882,942.8638 84.7007,941.8013 Q84.0132,940.7231 84.0132,939.4419 L84.0132,938.2856 Q84.0132,936.9575 84.6226,935.8169 Q85.2476,934.6606 86.3413,934.0513 Q87.4351,933.4263 88.6695,933.4263 Q89.4038,933.4263 90.0445,933.5981 Q90.7007,933.7544 91.2476,934.1138 Z " fill="#000000"/><text fill="#000000" font-family="sans-serif" font-size="14" lengthAdjust="spacing" textLength="80.124" x="108.982" y="935.1626">Two Masters</text><text fill="#000000" font-family="sans-serif" font-size="14" lengthAdjust="spacing" textLength="36.5723" x="130.7579" y="952.772">(6:24)</text><line style="stroke:#181818;stroke-width:0.5;" x1="26.253" x2="239.335" y1="960.8481" y2="960.8481"/><rect fill="none" height="6" style="stroke:#C82930;stroke-width:1;" width="6" x="33.253" y="972.1528"/><text fill="#000000" font-family="sans-serif" font-size="14" lengthAdjust="spacing" textLength="189.082" x="45.253" y="979.3813">Cannot serve God &amp; mammon</text><line style="stroke:#181818;stroke-width:0.5;" x1="26.253" x2="239.335" y1="986.4575" y2="986.4575"/></g><!--class Anxiety--><g class="entity" data-entity="Anxiety" data-source-line="37" data-uid="ent0009" id="entity_Anxiety"><rect fill="#F1F1F1" height="114.0469" rx="2.5" ry="2.5" style="stroke:#181818;stroke-width:0.5;" width="166.8477" x="49.373" y="1054.4494"/><ellipse cx="71.8274" cy="1077.0588" fill="#ADD1B2" rx="11" ry="11" style="stroke:#181818;stroke-width:1;"/><path d="M74.593,1072.9338 Q74.7493,1072.715 74.9368,1072.6056 Q75.1243,1072.4963 75.343,1072.4963 Q75.718,1072.4963 75.9524,1072.7619 Q76.1868,1073.0119 76.1868,1073.6213 L76.1868,1075.0744 Q76.1868,1075.6838 75.9524,1075.9494 Q75.718,1076.215 75.343,1076.215 Q74.9993,1076.215 74.7962,1076.0119 Q74.593,1075.8244 74.4837,1075.3088 Q74.4368,1074.9494 74.2493,1074.7619 Q73.9212,1074.3869 73.3118,1074.1681 Q72.7024,1073.9494 72.0774,1073.9494 Q71.3118,1073.9494 70.6712,1074.2775 Q70.0462,1074.6056 69.5462,1075.3556 Q69.0618,1076.1056 69.0618,1077.1369 L69.0618,1078.2306 Q69.0618,1079.465 69.9524,1080.2931 Q70.843,1081.1056 72.4368,1081.1056 Q73.3743,1081.1056 74.0305,1080.8556 Q74.4212,1080.6994 74.843,1080.2619 Q75.1087,1079.9963 75.2493,1079.9181 Q75.4055,1079.84 75.6087,1079.84 Q75.9368,1079.84 76.1868,1080.1056 Q76.4524,1080.3556 76.4524,1080.6994 Q76.4524,1081.0431 76.1087,1081.4494 Q75.6087,1082.0275 74.8118,1082.3556 Q73.7337,1082.8088 72.4368,1082.8088 Q70.9212,1082.8088 69.718,1082.1838 Q68.7337,1081.6838 68.0462,1080.6213 Q67.3587,1079.5431 67.3587,1078.2619 L67.3587,1077.1056 Q67.3587,1075.7775 67.968,1074.6369 Q68.593,1073.4806 69.6868,1072.8713 Q70.7805,1072.2463 72.0149,1072.2463 Q72.7493,1072.2463 73.3899,1072.4181 Q74.0462,1072.5744 74.593,1072.9338 Z " fill="#000000"/><text fill="#000000" font-family="sans-serif" font-size="14" lengthAdjust="spacing" textLength="118.2822" x="87.484" y="1073.9826">Do Not Be Anxious</text><text fill="#000000" font-family="sans-serif" font-size="14" lengthAdjust="spacing" textLength="56.8066" x="118.2217" y="1091.592">(6:25-34)</text><line style="stroke:#181818;stroke-width:0.5;" x1="50.373" x2="215.2206" y1="1099.6681" y2="1099.6681"/><rect fill="none" height="6" style="stroke:#C82930;stroke-width:1;" width="6" x="57.373" y="1110.9728"/><text fill="#000000" font-family="sans-serif" font-size="14" lengthAdjust="spacing" textLength="77.0273" x="69.373" y="1118.2013">Trust in God</text><rect fill="none" height="6" style="stroke:#C82930;stroke-width:1;" width="6" x="57.373" y="1128.5822"/><text fill="#000000" font-family="sans-serif" font-size="14" lengthAdjust="spacing" textLength="133.0479" x="69.373" y="1135.8107">Birds &amp; lilies example</text><rect fill="none" height="6" style="stroke:#C82930;stroke-width:1;" width="6" x="57.373" y="1146.1916"/><text fill="#000000" font-family="sans-serif" font-size="14" lengthAdjust="spacing" textLength="140.8477" x="69.373" y="1153.4201">Seek first the Kingdom</text><line style="stroke:#181818;stroke-width:0.5;" x1="50.373" x2="215.2206" y1="1160.4963" y2="1160.4963"/></g><!--link Almsgiving to Prayer--><g class="link" data-entity-1="Almsgiving" data-entity-2="Prayer" data-source-line="44" data-uid="lnk10" id="link_Almsgiving_Prayer"><path codeLine="44" d="M132.793,177.2994 C132.793,195.6994 132.793,211.0594 132.793,230.8494" fill="none" id="Almsgiving-to-Prayer" style="stroke:#181818;stroke-width:1;"/><polygon fill="#181818" points="132.793,236.8494,136.793,227.8494,132.793,231.8494,128.793,227.8494,132.793,236.8494" style="stroke:#181818;stroke-width:1;"/></g><!--link Prayer to Fasting--><g class="link" data-entity-1="Prayer" data-entity-2="Fasting" data-source-line="45" data-uid="lnk11" id="link_Prayer_Fasting"><path codeLine="45" d="M132.793,369.1694 C132.793,388.5894 132.793,403.6994 132.793,422.4994" fill="none" id="Prayer-to-Fasting" style="stroke:#181818;stroke-width:1;"/><polygon fill="#181818" points="132.793,428.4994,136.793,419.4994,132.793,423.4994,128.793,419.4994,132.793,428.4994" style="stroke:#181818;stroke-width:1;"/></g><!--link Fasting to Treasures--><g class="link" data-entity-1="Fasting" data-entity-2="Treasures" data-source-line="46" data-uid="lnk12" id="link_Fasting_Treasures"><path codeLine="46" d="M132.793,542.9094 C132.793,562.2694 132.793,577.7594 132.793,596.3794" fill="none" id="Fasting-to-Treasures" style="stroke:#181818;stroke-width:1;"/><polygon fill="#181818" points="132.793,602.3794,136.793,593.3794,132.793,597.3794,128.793,593.3794,132.793,602.3794" style="stroke:#181818;stroke-width:1;"/></g><!--link Treasures to Eye--><g class="link" data-entity-1="Treasures" data-entity-2="Eye" data-source-line="47" data-uid="lnk13" id="link_Treasures_Eye"><path codeLine="47" d="M132.793,699.5694 C132.793,718.3494 132.793,733.8994 132.793,752.6994" fill="none" id="Treasures-to-Eye" style="stroke:#181818;stroke-width:1;"/><polygon fill="#181818" points="132.793,758.6994,136.793,749.6994,132.793,753.6994,128.793,749.6994,132.793,758.6994" style="stroke:#181818;stroke-width:1;"/></g><!--link Eye to Masters--><g class="link" data-entity-1="Eye" data-entity-2="Masters" data-source-line="48" data-uid="lnk14" id="link_Eye_Masters"><path codeLine="48" d="M132.793,856.0894 C132.793,875.3394 132.793,891.2494 132.793,909.4694" fill="none" id="Eye-to-Masters" style="stroke:#181818;stroke-width:1;"/><polygon fill="#181818" points="132.793,915.4694,136.793,906.4694,132.793,910.4694,128.793,906.4694,132.793,915.4694" style="stroke:#181818;stroke-width:1;"/></g><!--link Masters to Anxiety--><g class="link" data-entity-1="Masters" data-entity-2="Anxiety" data-source-line="49" data-uid="lnk15" id="link_Masters_Anxiety"><path codeLine="49" d="M132.793,994.6094 C132.793,1012.5694 132.793,1028.2794 132.793,1048.0394" fill="none" id="Masters-to-Anxiety" style="stroke:#181818;stroke-width:1;"/><polygon fill="#181818" points="132.793,1054.0394,136.793,1045.0394,132.793,1049.0394,128.793,1045.0394,132.793,1054.0394" style="stroke:#181818;stroke-width:1;"/></g><!--SRC=[NLF1Rfj04Btp5ICVdFR0mQIssagjbAHDAzMjeiR7NZOmmCgmO-qi9gZAltSMbdMAX12y7TxClFTmsZK8FvLpDVQmWnGUdUrorra4Ak60Ag-rgJX9JYe_gWfX5OjNy3S1a2jl53EiRfgMAtsMyZ_cpUxZ9dttTWMAuOAF7u1lWhb51nCQi6zKWCLUsO916-2nHCvUaakB1wi6j2FzDjri9_u9ZDmtPz85rCE9Sgjv2AWl-e_MWtkonTLC4B1xiZ8MWYDuGYYdDxEOurwnYtlkqitxQP80BqQf6g9sW5BbEEE6j75GeofW3RtY-lNfxr44A2sr84eBgzpjOeBlg6IiPe23HSLY5q_3V4YppJHCFBYexaXiTH4NEUgH9fmBftMoSjDGpx5kqVYHEbF0rm77VbcMPjTJFu5Y9__y2VQgFVaKFL4nsx3NLUtWp50eUpJ8l60_z2HfP8TssYSB6GfOR72dZ24dRbgnoYTd3QrgMreQzONWbzJTecZ-hAaBhDlqUWwdmEY6I7om7JklZ906w5RxIAwXqOqMrV1Prcem9XcFK6eh7tclVeZz1RNp55TmHyPWxZGPzf7YcdeeHL-lYmj_bnI- -aVIzFCbaI7R7WlX4d2EcKUZou9V7FSdue5WtWd_5WGKP9RIes7xv2Nv1m00]--></g></svg>